<svg width="75" height="61" viewBox="0 0 75 61" fill="none" xmlns="http://www.w3.org/2000/svg">
<path d="M42.3412 44.8846C42.3412 36.509 48.1739 30.4957 56.815 29.6367C55.5189 19.5431 50.1182 11.597 43.8534 6.01326L49.9022 0C65.8881 12.0265 74.0972 27.2744 74.0972 41.0189C74.0972 52.8307 67.8324 60.3472 58.1112 60.3472C48.822 60.3472 42.3412 53.9045 42.3412 44.8846ZM-5.34058e-05 44.8846C-5.34058e-05 36.509 5.61664 30.4957 14.4737 29.6367C13.1776 19.5431 7.77691 11.597 1.51213 6.01326L7.34486 0C23.5469 12.0265 31.7559 27.2744 31.7559 41.0189C31.7559 52.8307 25.4911 60.3472 15.5539 60.3472C6.48075 60.3472 -5.34058e-05 53.9045 -5.34058e-05 44.8846Z" fill="#FAB330"/>
</svg>
