<svg width="21" height="21" viewBox="0 0 21 21" fill="none" xmlns="http://www.w3.org/2000/svg">
<g clip-path="url(#clip0_2605_3545)">
<path d="M14.7914 6.01858C14.6787 5.90537 14.5379 5.82431 14.3835 5.78378C14.229 5.74325 14.0665 5.74472 13.9128 5.78805L3.45814 8.63651C3.30859 8.67785 3.17218 8.75697 3.06203 8.86625C2.96148 8.96789 2.8867 9.0921 2.84394 9.22853C2.80118 9.36495 2.79167 9.50962 2.81621 9.65047C2.84075 9.79132 2.89863 9.92425 2.98501 10.0382C3.07139 10.1521 3.18377 10.2437 3.31277 10.3053L7.54921 12.4028C7.59063 12.4233 7.63737 12.4305 7.68304 12.4234C7.72871 12.4163 7.77106 12.3953 7.80431 12.3632L7.8154 12.3521C7.85875 12.3085 7.91058 12.2744 7.96769 12.2517C8.02479 12.229 8.08594 12.2184 8.14735 12.2203C8.20875 12.2223 8.2691 12.2369 8.32463 12.2631C8.38017 12.2894 8.42971 12.3268 8.47018 12.3731C8.54448 12.4617 8.58254 12.5752 8.57674 12.6907C8.57093 12.8063 8.5217 12.9154 8.43888 12.9961C8.40573 13.0293 8.38381 13.072 8.37621 13.1183C8.36115 13.2099 8.41074 13.2984 8.43909 13.3869L9.61259 17.0475C9.69139 17.2114 9.81821 17.3475 9.97619 17.4377C10.1342 17.5278 10.3159 17.5678 10.4971 17.5522C10.6783 17.5366 10.8505 17.4663 10.9908 17.3506C11.1311 17.2348 11.2329 17.0791 11.2826 16.9041L15.0199 6.8936C15.0628 6.74058 15.0643 6.57891 15.0241 6.42515C14.9839 6.2714 14.9036 6.13108 14.7914 6.01858Z" fill="white"/>
</g>
<defs>
<clipPath id="clip0_2605_3545">
<rect width="14.3409" height="14.3409" fill="white" transform="matrix(0.707107 -0.707107 -0.707107 -0.707107 10.1406 20.2812)"/>
</clipPath>
</defs>
</svg>
