<svg width="4" height="4" viewBox="0 0 4 4" fill="none" xmlns="http://www.w3.org/2000/svg">
<path d="M3.22139 2.24087C3.19551 2.12212 3.22141 1.88741 3.04934 1.94888C2.87238 2.00616 2.75487 2.09278 2.63946 1.94888C2.52264 1.80149 2.37782 1.82873 2.4058 1.62337C2.43588 1.4187 2.37854 1.59403 2.4359 1.4187C2.4359 1.4187 2.73038 1.16442 2.69611 1.06453C2.5772 0.709676 2.49533 0.593739 2.4058 0.62168C2.31837 0.652416 2.3184 0.85917 2.14214 0.59303C1.96517 0.328287 1.7924 0.241677 1.67419 0.356236C1.56997 0.461015 1.58744 0.708979 1.47063 0.799788C1.39859 0.852177 1.31396 0.824248 1.23911 0.807483C1.23422 0.756491 1.20624 0.734143 1.20624 0.651717C1.20624 0.533665 1.265 0.444244 0.971223 0.0872948C0.871898 -0.0300582 0.590725 0.00486027 0.502592 0.00486027C0.417257 0.00486027 0.135362 0.115238 0.0367369 0.150863C-0.0534942 0.1809 0.0367314 0.328287 0.153542 0.388361C0.268954 0.444243 0.327 0.651717 0.327 0.651717C0.327 0.651717 0.590704 0.708997 0.734794 0.708997C0.81943 0.708997 0.89077 0.862659 0.939033 0.996079C0.89077 1.03659 0.843203 1.0785 0.857192 1.15255C0.881673 1.32718 0.562741 1.15255 0.881697 1.32718C1.20625 1.5088 1.31464 1.49063 1.38179 1.62196C1.58674 2.03619 1.55597 2.18288 1.642 2.2695C1.73153 2.35961 1.73155 2.33028 1.96377 2.44833C2.19949 2.56638 1.81966 2.26951 2.19947 2.56639C2.57648 2.85837 2.66742 2.97572 2.66742 2.97572C2.9584 3.12172 2.98918 3.12171 3.07871 3.18248C3.16545 3.24046 3.16543 3.00785 3.19411 2.8877C3.21999 2.76965 3.16543 2.59432 3.19411 2.47557C3.22139 2.36032 3.25357 2.36032 3.22139 2.24087Z" fill="white" fill-opacity="0.18"/>
</svg>
