<svg width="8" height="5" viewBox="0 0 8 5" fill="none" xmlns="http://www.w3.org/2000/svg">
<path d="M1.9203 3.58895C2.26304 3.7098 2.48057 3.55752 2.63445 3.62038C2.79183 3.68185 3.03944 3.7105 3.03944 3.7105C3.03944 3.7105 3.41086 3.80271 3.50808 3.83554C3.60321 3.86628 3.72283 3.95289 3.82145 3.95778C4.31388 3.98711 4.34815 3.86627 4.44048 3.95778C4.44048 3.95778 4.84827 4.23161 4.96928 4.29447C5.09518 4.35664 5.24906 4.26094 5.37567 4.35664C5.49667 4.44814 5.77647 4.51032 5.90097 4.47539C6.02548 4.44885 6.3696 4.26164 6.3696 4.26164C6.3696 4.26164 6.4948 3.9445 6.58573 3.92634C7.33136 3.77267 7.21175 3.7112 7.42999 3.65112C7.64752 3.59035 7.45587 3.74193 7.64752 3.59035C7.83148 3.43388 7.92451 3.68255 7.83148 3.43388C7.73985 3.19219 7.86436 3.00987 7.64752 2.98123C7.42999 2.9477 7.17889 2.91697 7.17889 2.91697C7.17889 2.91697 7.17888 2.64035 6.99002 2.60752C6.80396 2.58097 6.66198 2.54116 6.55636 2.4273C6.243 2.08642 6.21012 2.48597 6.243 2.08641C6.27587 1.69174 5.838 1.44447 6.27587 1.47451C6.71164 1.50594 6.49412 1.23142 6.71165 1.50594C6.92778 1.78256 6.8949 1.84402 7.08655 1.93134C7.26981 2.02704 7.55029 1.72039 7.55029 1.72039C7.55029 1.72039 7.67691 1.50524 7.70558 1.3823C7.73916 1.26075 7.89303 1.10708 7.67689 1.01487C7.45586 0.922665 7.14602 0.894023 7.14602 0.894023C7.14602 0.894023 6.99072 0.706826 6.68226 0.770392C6.3689 0.832561 6.21013 0.832552 6.08982 0.894023C5.96601 0.955493 5.71699 0.955496 5.59109 0.986231C5.46659 1.01487 5.46659 0.832552 5.31131 0.922663C5.15743 1.01487 5.31131 0.922665 5.15742 1.01487C4.99865 1.10708 4.81538 1.14061 4.62653 0.832554C4.44047 0.524502 4.56428 0.402261 4.31387 0.402261C4.06766 0.402261 3.7536 0.219251 3.7536 0.219251C3.7536 0.219251 3.2283 0.00270093 3.13317 0.0362304C3.04014 0.0648701 2.85338 -0.0580712 2.76175 0.0362304C2.66872 0.126341 2.51415 0.0956047 2.38404 0.280017C2.26304 0.461634 2.23366 0.461637 2.13783 0.741049C2.0455 1.01557 1.98325 1.14131 2.01193 1.29219C2.04481 1.44447 2.07348 1.35366 2.01193 1.56741C1.94968 1.78256 1.82727 1.81399 1.82727 1.81399C1.82727 1.81399 1.54888 1.9034 1.51601 2.02774C1.51601 2.02774 1.57826 2.18142 1.29778 2.27293C1.01729 2.36514 0.987909 2.24289 0.861305 2.27293C0.7375 2.30157 0.612992 2.08642 0.361883 2.21495C0.114273 2.3323 0.11428 2.18142 0.0856021 2.48598C0.055525 2.79263 -0.0717773 2.82266 0.0555256 2.9477C0.176533 3.06855 -0.227763 3.0427 0.394063 3.09998C1.01659 3.15796 0.895583 3.15796 1.20405 3.19219C1.51531 3.22083 1.89022 2.94771 1.85734 3.15797C1.82727 3.37102 1.57826 3.46741 1.9203 3.58895Z" fill="white" fill-opacity="0.18"/>
</svg>
