<svg width="3" height="2" viewBox="0 0 3 2" fill="none" xmlns="http://www.w3.org/2000/svg">
<path d="M2.00687 0.161362C1.8411 0.240296 1.55222 0.0789364 1.42562 0.121547C1.30461 0.161363 1.13744 0 0.972368 0C0.806595 0 0.514913 0.078235 0.514913 0.078235C0.263804 0.287794 -0.150983 0.611217 0.0560589 0.857099C0.263101 1.10158 0.307169 1.51092 0.596049 1.46831C0.886327 1.4257 0.845761 1.26504 1.09687 1.38519C1.34448 1.51092 1.50536 1.71629 1.67603 1.75401C2.25519 1.87625 2.38668 1.95099 2.50629 1.83294C2.79587 1.54794 2.83924 1.30486 2.83924 1.17912C2.83924 1.06037 2.79658 0.48967 2.71054 0.610515C2.71054 0.611912 2.17124 0.0789358 2.00687 0.161362Z" fill="white" fill-opacity="0.18"/>
</svg>
