<svg width="3" height="4" viewBox="0 0 3 4" fill="none" xmlns="http://www.w3.org/2000/svg">
<path d="M2.72952 0.430106C2.70085 0.163268 2.75963 0.225423 2.55538 0.0486948C2.35184 -0.12943 2.49384 0.225426 2.4113 0.401456C2.32177 0.57539 2.32173 0.635463 2.29445 0.780757C2.26297 0.930242 2.26298 1.0462 2.2343 1.16705C2.20422 1.2851 2.11681 1.37172 2 1.57709C1.88109 1.78176 1.99999 1.57707 1.82582 1.84251C1.64886 2.10656 1.82583 1.84252 1.64886 1.87046C1.4726 1.9019 1.64887 1.87047 1.55934 1.57709C1.53486 1.48977 1.64886 1.43179 1.70901 1.25366C1.76427 1.07624 1.85031 1.10558 1.88179 0.988922C1.91187 0.87087 1.88179 0.814281 1.88179 0.605421C1.88179 0.400752 1.88178 0.605421 1.67823 0.400752C1.47329 0.193289 1.4733 0.313436 1.29913 0.313436C1.06411 0.313436 0.88856 0.725566 0.88856 0.725566C0.799727 0.725566 0.799701 0.962372 0.712967 1.01825C0.624835 1.07623 0.77451 1.16706 0.798992 1.31235C0.833265 1.46044 0.79901 1.48977 0.774529 1.57709C0.741654 1.66441 0.683595 1.9019 0.683595 1.9019C0.683595 1.9019 0.566774 2.07792 0.419887 2.19807C0.275797 2.30913 0.419913 2.19807 0.158313 2.34546C-0.104687 2.49424 0.0393727 2.49426 0.0393727 2.87146C0.0393727 2.97974 0.275797 3.13689 0.419887 3.16483C0.566774 3.19627 0.742343 3.43098 0.833273 3.46102C0.91651 3.49245 1.21029 3.81308 1.21029 3.81308C1.21029 3.81308 1.32712 3.63565 1.23829 3.28359C1.15226 2.93223 1.21029 3.13759 1.21029 2.89939C1.21029 2.66608 1.23828 2.66608 1.29913 2.19807C1.31312 2.07722 1.67823 2.37131 1.67823 2.37131C1.67823 2.37131 1.67823 2.37132 1.67823 2.87146C1.67823 3.37231 1.67822 2.87147 1.73698 2.75761C1.79573 2.63467 2.11681 2.30984 2.11681 2.30984C2.11681 2.30984 2.35183 1.98921 2.49382 1.66579C2.64421 1.34307 2.64421 1.55055 2.70156 1.40246C2.76032 1.25507 2.73025 1.07763 2.73025 0.963767C2.72955 0.840127 2.7596 0.694849 2.72952 0.430106Z" fill="white" fill-opacity="0.18"/>
</svg>
