<svg width="13" height="7" viewBox="0 0 13 7" fill="none" xmlns="http://www.w3.org/2000/svg">
<path d="M8.55274 5.16063C8.58632 5.25004 8.58632 5.25004 8.58632 5.25004C8.58632 5.25004 8.80385 5.25004 8.83323 5.43515C8.86611 5.61817 8.98641 5.86055 8.98641 5.86055C8.98641 5.86055 9.2739 5.94927 9.39141 6.04637C9.88943 6.44383 10.3287 6.32089 10.4497 6.35232C10.5749 6.38516 10.9827 6.32089 10.9827 6.32089C11.4807 6.53883 11.8822 6.53883 12.1004 6.41379C12.3215 6.28736 12.8468 5.92552 12.5642 5.89688C12.5642 5.89688 12.3802 5.86056 12.4131 5.49732C12.4425 5.12641 12.4425 4.97272 12.348 4.94408C12.2557 4.91405 12.0081 4.66816 12.0081 4.66816L11.6017 4.51589C11.2303 3.99479 11.1051 3.93471 11.1974 3.84111C11.294 3.7489 11.4192 3.47368 11.4192 3.47368C11.4192 3.47368 11.7283 3.41221 11.4814 3.16633C11.2303 2.92254 10.8554 3.10415 10.8554 3.10415C10.4833 2.7968 10.5126 2.68085 10.5455 2.58585C10.5756 2.49155 10.6078 2.15485 10.3287 2.21842C10.0489 2.28129 9.79849 2.01864 9.64251 2.12622C9.23752 2.40074 9.1326 2.5146 9.02138 2.40074C8.71012 2.09339 8.71012 1.90897 8.55204 1.81816C8.39886 1.72805 8.55204 1.54364 8.27226 1.50872C7.99177 1.48008 8.18063 1.29776 7.77564 1.29776C7.36995 1.29776 7.21607 1.23629 7.09086 1.26702C6.96426 1.29776 6.84325 0.991803 6.59284 1.26702C6.34593 1.54294 6.1263 1.50871 5.97102 1.66588C5.62898 2.00537 5.59889 2.12552 5.59889 1.60441C5.59889 1.08122 5.50378 0.835335 5.50378 0.835335C5.50378 0.835335 5.44362 0.654417 5.25616 0.561512C5.06801 0.470005 4.69309 0.437173 4.69309 0.437173C4.22794 0.285592 4.25872 0.223423 4.03979 0.136107C3.82226 0.0418055 3.85653 -0.0818378 3.57324 0.0746328C3.29765 0.22342 3.23471 0.103276 2.95422 0.194085C2.67443 0.286291 2.5779 0.0746362 2.23586 0.165445C1.89312 0.257651 1.55109 0.257648 1.4014 0.257648C1.24193 0.257648 0.865616 0.22342 0.744609 0.257648C0.620803 0.286288 0.309535 0.314932 0.181533 0.531476C0.0598259 0.745925 -0.0555876 0.943605 0.0290478 1.08122C0.308834 1.54294 0.37109 1.36063 0.71243 1.38927C1.05517 1.4221 1.18247 1.36063 1.36713 1.47938C1.55179 1.60441 1.77282 1.50802 1.58397 1.75879C1.40141 2.00537 1.24193 1.75879 1.4014 2.00537C1.55179 2.24776 1.33496 2.21702 1.71057 2.24776C2.08199 2.27919 2.32959 2.1828 2.32959 2.1828L2.39535 1.81747C2.39535 1.81747 2.70521 1.66589 2.79614 1.72736C2.89407 1.78464 3.31025 1.62328 3.29836 1.75949C3.26339 2.03331 3.08012 1.83633 3.1095 2.09339C3.13958 2.3728 3.29836 2.30923 3.32844 2.49155C3.32844 2.49155 3.93277 2.37979 3.98313 2.46291C4.20066 2.86107 4.20067 3.04548 4.20067 3.04548C4.20067 3.04548 4.10344 2.79681 3.85792 2.92254C3.60752 3.04548 3.41866 2.86107 3.45154 2.95258C3.48092 3.04548 3.66977 3.04548 3.88591 3.07482C3.88591 3.07482 3.98313 3.29277 3.82365 3.37938C3.66977 3.47369 3.54667 3.32001 3.41867 3.37938C3.29836 3.44365 3.13888 3.29207 3.04655 3.25854C2.95422 3.2299 2.89337 2.79681 2.64366 2.95258C2.39465 3.10416 2.36177 2.98401 2.01834 3.10415C1.6784 3.22989 1.58327 3.07412 1.45876 3.32C1.33426 3.56659 0.962134 3.68743 1.30417 3.99479C1.64691 4.29865 1.86305 4.24136 1.95468 4.33147C2.05191 4.42298 2.20579 4.33148 2.39464 4.51589C2.5772 4.69891 2.39465 4.66816 2.70451 4.66816C3.01717 4.66816 3.32774 4.48306 3.41867 4.51589C3.51379 4.54663 3.8852 4.60669 3.8852 4.60669C3.8852 4.60669 4.13632 4.39085 4.22795 4.39085C4.32098 4.39085 4.38322 4.14706 4.69309 4.24066C5.00925 4.33077 5.22678 3.96125 5.28624 4.05695C5.34849 4.14706 5.38206 4.29864 5.44361 4.42298C5.50377 4.54592 5.47229 4.39085 5.7199 4.42298C5.97101 4.45511 5.90877 4.54592 6.15638 4.51519C6.40469 4.48236 6.28088 4.36151 6.59354 4.45512C6.59354 4.45512 6.90691 4.54593 7.02791 4.606C7.15382 4.66747 7.12303 5.00555 7.12303 5.00555L7.5588 4.97272C7.90084 4.88541 7.30769 4.88541 7.90084 4.88541C8.49189 4.88611 8.52407 5.06702 8.55274 5.16063Z" fill="white" fill-opacity="0.18"/>
</svg>
