<svg width="13" height="12" viewBox="0 0 13 12" fill="none" xmlns="http://www.w3.org/2000/svg">
<path d="M11.911 10.3068C11.9929 10.0197 12.1188 10.1475 12.2006 9.94002C12.2839 9.73535 12.1195 9.32672 12.1195 9.32672L11.3277 9.5733C11.3277 9.5733 11.3676 9.40496 11.4935 9.24639C11.618 9.08434 11.7054 8.88036 11.5354 8.34808C11.5354 8.34808 11.2039 8.42771 10.9563 8.59186C10.7059 8.75532 10.7059 9.16465 10.4597 9.32602C10.2093 9.49366 9.8777 9.04173 9.8777 9.04173C9.83784 8.83566 9.8777 8.88035 10.4597 8.18182C10.6639 7.93664 10.8318 8.01837 11.2472 7.65234C11.6585 7.28771 11.5788 7.40786 11.618 7.20319C11.6585 6.99782 11.2472 7.28701 11.0822 7.32473C10.9122 7.36665 10.7478 7.61113 10.5408 7.69425C10.3352 7.77388 9.91897 7.5294 9.91897 7.5294C9.91897 7.5294 9.62869 7.69425 10.0001 7.36594C10.3715 7.03973 10.0001 7.36595 9.95743 7.07955C9.91896 6.79315 9.66785 6.91609 9.95743 6.38661C10.1022 6.12396 10.3344 6.38661 10.4121 6.18054C10.4967 5.97587 10.7045 5.93536 10.7045 5.73419C10.7045 5.52602 10.1267 5.36466 9.95743 5.32205C9.79306 5.28502 9.71193 5.11738 9.58533 5.19771C9.46432 5.28503 9.00266 5.15999 8.92362 4.71083C8.89774 4.56414 8.54731 4.99654 8.54731 4.99654C8.54731 4.99654 8.33956 5.28502 8.13252 5.40307C7.92548 5.52602 7.92548 5.81242 7.80097 5.89624C7.67507 5.97937 7.42957 6.01709 7.42957 6.01709C7.42957 6.01709 7.42957 5.52672 7.18196 5.15999C7.10922 5.05102 6.76367 5.15999 6.47479 5.15999C6.18381 5.15999 5.97677 5.16 6.02014 4.99654C6.06001 4.83169 6.10127 4.71084 6.22717 4.54878C6.34888 4.38532 6.22718 4.54878 6.5993 4.26168C6.97491 3.97529 6.80704 3.80973 6.80704 3.80973C6.68323 3.77132 6.39156 3.85234 6.14465 3.80973C5.89494 3.77132 5.85646 3.64837 5.64522 3.64837C5.44027 3.64837 5.64522 3.64837 5.18986 4.05631C4.73241 4.46565 4.44145 4.83168 4.44145 4.83168C4.44145 4.83168 4.44145 4.66963 4.64849 4.26168C4.85623 3.85235 4.85623 3.97529 4.85623 3.80973C4.85623 3.64837 4.93945 3.52404 4.93945 3.24113C4.93945 2.95893 5.10383 2.87161 5.44027 2.58731C5.76902 2.30161 6.22718 2.05432 6.43282 1.56605C6.63916 1.07359 6.34889 1.23774 6.18382 0.910829C6.02015 0.586013 6.3482 0.789287 6.72381 0.626529C7.09872 0.461676 7.09732 0.586021 6.88958 0.0523439C6.59861 -0.0685017 6.88957 0.0523381 6.39086 0.0921543C5.89354 0.132669 6.10059 0.0921533 5.76834 0.132668C5.43959 0.175278 5.47876 0.298924 5.14651 0.461681C4.81426 0.623042 4.77369 1.15671 4.64778 1.44241C4.52398 1.72671 3.98259 1.89227 3.86018 2.09624C3.73637 2.30091 3.57271 2.41966 3.36497 2.70955C3.15443 2.99385 3.11455 3.28094 2.7844 3.69028C2.63052 3.87469 2.57528 3.97528 2.65991 4.18065C2.73965 4.38462 2.61793 4.71083 2.61793 4.71083L2.16048 5.15999L1.745 5.65036C1.58063 5.69297 1.53726 5.85363 1.53726 6.10021C1.53726 6.34819 1.45402 6.34819 1.37288 6.58779C1.29034 6.83647 1.08262 6.87418 0.874876 6.99782C0.667135 7.12076 0.499955 7.40717 0.499955 7.40717C0.499955 7.40717 0.751068 7.48749 1.08262 7.48749C1.41416 7.48749 1.03924 7.89962 1.03924 7.89962C1.03924 7.89962 0.791638 8.1015 0.624466 8.22235C0.460091 8.34808 0.373341 8.42701 0.169796 8.67639C-0.0379455 8.91948 0.00333975 9.32602 0.00333975 9.32602C0.00333975 9.32602 0.336286 9.45106 0.751069 9.36863C1.16515 9.289 1.66177 9.49368 1.86951 9.49368C2.07726 9.49368 2.78442 9.49367 3.36497 9.45106C3.94483 9.40426 3.65385 9.53068 4.14837 9.53068C4.64849 9.53068 4.69185 9.49368 4.81426 9.49368C4.93946 9.49368 5.14651 9.40496 5.60466 9.24639C6.05931 9.08434 6.05931 8.9607 6.34818 8.9607C6.63846 8.9607 6.43212 9.2464 6.43212 9.49368C6.43212 9.73537 6.47409 9.69553 6.63847 9.81638C6.80564 9.93932 6.97422 10.3068 6.97422 10.3068C6.84762 10.3913 6.80635 10.4702 6.51607 10.5953C6.22649 10.7182 6.18381 10.7587 6.10057 10.9201C6.01943 11.0821 6.26635 11.0451 6.47479 11.0821C6.68253 11.124 6.76367 11.124 7.01478 11.0821C7.26379 11.0444 7.42956 10.9201 7.55406 10.7175C7.67507 10.5128 7.88282 10.3494 8.17589 10.2257C8.46687 10.1028 8.79842 9.93934 8.71588 9.73467C8.63055 9.53 8.92363 9.65153 9.54545 9.85899C9.54545 9.85899 9.54545 9.85899 9.54545 10.1028C9.54545 10.3494 9.50488 10.3913 9.62868 11.0821L10.4121 10.7587L10.9115 11.5739C10.9115 11.5739 11.285 11.5739 11.6166 11.2463C11.9488 10.9201 11.704 11.0451 11.7411 10.837C11.7844 10.6365 11.8285 10.5953 11.911 10.3068Z" fill="white" fill-opacity="0.18"/>
</svg>
