<svg width="9" height="8" viewBox="0 0 9 8" fill="none" xmlns="http://www.w3.org/2000/svg">
<path d="M7.07345 4.94281C7.16088 5.17682 7.16088 5.23968 7.16088 5.47229C7.16088 5.70909 7.26369 6.14427 7.33643 5.9445C7.69106 5.00288 7.65889 4.97493 7.80788 4.82684C7.95267 4.67945 8.09883 4.58865 8.15688 4.50203C8.21564 4.41332 8.12615 4.12203 8.12615 4.12203C8.12615 4.12203 8.06736 3.76577 7.97993 3.70919C7.89319 3.64982 7.86312 3.38159 7.86312 3.38159C7.86312 3.38159 7.80788 3.17832 7.80788 3.08821C7.80788 3.0009 7.7771 2.67817 7.7771 2.67817C7.7771 2.67817 7.71833 2.41064 7.69035 2.32612C7.65817 2.23531 7.62878 2.02644 7.62878 2.02644C7.62878 2.02644 7.6582 1.82176 7.6582 1.67647C7.6582 1.52768 7.86244 1.73585 7.6582 1.52769C7.45396 1.32512 7.45394 1.32511 7.42386 1.12044C7.39518 0.911584 7.27766 0.764198 7.24968 0.648242C7.2189 0.528793 6.95523 0.204669 6.95523 0.204669C6.95523 0.204669 6.86989 0 6.63696 0C6.40124 0 6.31523 0.0887162 6.25367 0.470113C6.19492 0.852908 6.19491 0.822868 6.11027 1.05688C6.02074 1.29368 5.72068 1.24897 5.67101 1.32511C5.46677 1.6164 5.26811 1.54375 5.1415 1.61639C4.84983 1.79452 4.99601 1.73586 4.93586 1.94402C4.8771 2.1466 4.76378 2.0879 4.61759 2.11934C4.4693 2.14658 4.44132 1.82247 4.23707 2.08791C4.02933 2.35475 3.9433 2.08791 4.02934 2.35475C4.12027 2.61809 4.06222 2.53357 4.00346 2.65232C3.94331 2.76618 3.59288 2.8549 3.47677 2.79482C3.26623 2.68865 3.47679 2.44277 3.38516 2.26534C3.30262 2.08791 3.50404 2.17663 3.30259 2.08791C3.09625 2.002 2.95006 1.97195 2.83605 1.97195C2.71714 1.97195 2.65558 1.91259 2.53947 2.0013C2.42266 2.08722 2.44994 1.85181 2.2478 2.08721C2.04215 2.32611 1.98763 2.29467 1.98763 2.44206C1.98763 2.59085 2.01487 2.59086 1.80713 2.73825C1.60359 2.88144 1.57423 2.88143 1.45812 2.91147C1.34131 2.94291 0.786621 3.02953 0.786621 3.02953C0.464866 3.26633 0.315191 3.41231 0.29071 3.61838C0.259934 3.82584 0.143124 3.94182 0.143124 4.0906C0.143124 4.2366 0.260612 4.26593 0.260612 4.41262C0.260612 4.56001 0.229874 4.3253 0.229874 4.88063C0.229874 5.44294 0.113026 5.12092 0.113026 5.32559C0.113026 5.53095 -0.119874 5.61968 0.0829707 5.76707C0.290712 5.91586 0.315886 6.05904 0.434796 5.88581C0.551606 5.70838 0.520824 5.67695 0.551601 5.56449L0.260612 5.26762C0.406101 5.03292 0.52082 4.85129 0.52082 4.85129C0.701282 4.62078 0.668404 4.79402 0.701279 4.62079C0.729957 4.44546 0.70129 4.58724 0.729968 4.29316C0.756548 4.00048 0.551622 4.14788 0.756565 4.00049C0.962908 3.8566 0.846769 3.73714 1.07829 3.67707C1.31191 3.61839 1.37207 3.50384 1.45881 3.59045C1.54484 3.67707 1.54483 3.85658 1.54483 3.85658H1.989C2.19114 3.59044 2.2492 3.47031 2.33523 3.6177C2.42476 3.76509 2.39681 3.88244 2.48354 3.96975C2.57098 4.06126 2.68847 4.0906 2.74302 4.00049C2.80458 3.91178 2.83746 3.73714 2.83746 3.73714L2.8039 3.34946C2.8039 3.34946 3.00885 3.32501 3.12636 3.34946C3.12636 3.34946 3.65235 3.50382 3.74048 3.5611C3.82652 3.61838 3.79923 3.88314 3.85729 4.00049C3.91254 4.12134 4.02936 3.96975 3.85729 4.23658C3.68032 4.50133 3.76776 4.14787 3.68033 4.50133C3.59359 4.85129 3.53624 4.88063 3.56352 5.09229C3.5936 5.29766 3.62224 5.3263 3.65232 5.64972C3.6803 5.97244 3.44741 5.67696 3.68033 5.97244C3.91325 6.26792 4.12099 6.29586 4.26508 6.41182C4.41547 6.53126 4.50149 6.76666 4.70643 6.70798C4.91067 6.6528 4.58752 6.59134 4.91067 6.65281C5.23242 6.70799 4.96594 6.76666 5.23244 6.70798C5.29609 6.69401 5.31847 6.66888 5.32196 6.64373C5.33455 6.6584 5.32964 6.6584 5.34993 6.67726C5.61013 6.94689 5.69966 6.91614 5.73044 7.15085C5.75772 7.38486 5.64161 7.15086 5.75772 7.38487C5.7871 7.44215 5.7773 7.47916 5.75422 7.50361L5.75772 7.50291C6.13683 7.47427 6.16554 7.41279 6.25367 7.26471C6.34321 7.11941 6.31523 6.99928 6.40126 6.85748C6.66496 6.41252 6.81042 6.73801 6.66493 6.4125C6.52014 6.09187 6.46141 5.91655 6.46141 5.91655C6.46141 5.91655 6.40123 5.85649 6.34247 5.67766C6.28372 5.50164 6.19139 5.37728 6.22567 5.29834C6.3145 5.09297 6.37328 4.78005 6.42854 4.852C6.63628 5.12233 6.69221 5.00218 6.69221 5.00218C6.69221 5.00218 6.75099 4.82615 6.75099 4.64733C6.75099 4.47409 6.9867 4.38538 7.01398 4.50203C7.04755 4.62148 6.98741 4.7095 7.07345 4.94281Z" fill="white" fill-opacity="0.18"/>
</svg>
