<svg width="23" height="10" viewBox="0 0 23 10" fill="none" xmlns="http://www.w3.org/2000/svg">
<path d="M22.0442 5.94703C22.1184 5.89045 22.168 5.54748 22.2639 5.02777C22.3576 4.50877 22.2639 5.02777 22.3863 4.84336C22.5115 4.66104 22.5751 4.72461 22.6374 4.4431C22.6989 4.17067 22.6989 4.20001 22.6668 3.89336C22.6374 3.5881 22.4814 3.58811 22.4198 3.43373C22.3576 3.28494 21.7351 3.31288 21.4546 3.12567C21.4546 3.12567 20.5523 3.28563 20.4564 3.25211C20.3655 3.21927 20.2711 3.40159 20.1802 3.46725C20.085 3.52663 20.0535 4.017 19.9304 3.86332C19.8122 3.71872 19.4625 3.65237 19.4317 3.52663C19.4037 3.40159 18.9974 3.65236 18.9022 3.65236C18.8106 3.65236 18.3133 3.83468 18.0622 3.83468C17.8125 3.83468 18.1881 3.77181 18.4686 3.43442C18.7469 3.09773 18.4686 3.31358 18.3133 3.09774C18.1587 2.88538 17.5648 3.09773 17.2557 2.79457C17.1312 2.6381 17.2557 2.79457 17.4103 2.51516C17.5648 2.24064 17.4103 2.36149 17.1627 1.84248C17.0745 1.66366 17.0374 1.6888 17.0374 1.07549C17.0374 0.750673 16.9129 0.680122 16.8808 0.279166C16.8479 -0.120394 16.7542 0.127586 16.4443 0.0640193C16.1351 0.00254869 16.0694 0.0353814 15.8519 0.00255048C15.6364 -0.0274863 15.4504 0.217697 15.358 0.217697C15.2629 0.217697 15.1699 0.40071 14.9209 0.617953C14.6726 0.831004 14.6411 0.983285 14.4816 1.13906C14.3312 1.29134 14.2655 1.35211 14.1417 1.32138C14.0172 1.29134 13.9878 1.44501 13.7367 1.77891C13.4863 2.11979 13.7367 1.77891 13.6751 2.212C13.6129 2.6381 13.9556 2.33284 14.1417 2.36218C14.3305 2.39501 14.4214 2.51585 14.5145 2.51585C14.6068 2.51585 14.7313 2.79527 14.7313 2.79527C14.7313 2.79527 15.0111 3.00413 15.2007 3.03696C15.3874 3.06839 15.1356 3.28634 15.0447 3.31428C14.953 3.34501 14.8579 3.4987 14.6404 3.52734C14.4221 3.56086 14.4515 3.65307 14.2976 3.65307C14.1417 3.65307 14.0801 3.73829 13.9885 3.86402C13.8927 3.98487 14.2046 3.98487 14.3599 4.0177C14.5152 4.04844 14.6068 4.04843 14.732 4.14203C14.8586 4.23284 14.9831 4.23285 15.1076 4.23285C15.23 4.23285 15.358 4.26498 15.5441 4.35649C15.7267 4.4452 15.8854 4.41866 15.8239 4.75395C15.7924 4.90833 15.6357 4.87619 15.5091 4.84475C15.3881 4.81402 15.3881 4.93906 15.2014 4.99634C15.0118 5.05711 14.7656 4.9656 14.6733 4.90832C14.5788 4.84476 14.39 5.02917 14.2046 5.05781C14.0179 5.09274 13.7087 5.18355 13.5198 5.09274C13.3366 4.99704 13.6136 4.90833 13.5198 4.81402C13.4289 4.72601 13.0855 4.87619 13.0526 4.75395C13.0204 4.63101 12.7728 4.87619 12.6161 4.84475C12.4629 4.81402 12.2433 4.90832 12.0258 4.9656C11.8075 5.02847 11.8992 4.81332 11.7789 4.56953C11.6523 4.32575 11.8992 4.20141 11.8992 4.0177C11.8992 3.83538 11.5278 3.86403 11.4067 3.71105C11.2801 3.56086 11.2186 3.68031 11.029 3.61953C10.8423 3.56086 10.7213 3.52733 10.5037 3.34502C10.2827 3.15991 10.2533 3.34501 10.0995 3.06839C9.94347 2.79527 9.87772 2.91611 9.5098 2.85464C9.13489 2.79527 9.09991 2.54938 8.88377 2.36218C8.66554 2.18196 8.57392 2.36218 8.13815 2.27138C7.70308 2.18196 7.85556 2.36218 7.73315 2.33284C7.60934 2.30001 7.32956 2.39431 7.11063 2.39431C6.89449 2.39431 6.82665 2.60806 6.73572 2.39431C6.64339 2.18126 6.67696 2.24064 6.54825 1.75027C6.42585 1.2599 6.42585 1.62943 6.23909 1.32138C6.05373 1.01821 5.64875 1.41288 5.43051 1.3521C5.21158 1.29203 4.80519 1.47366 4.6548 1.44502C4.49532 1.41358 4.09453 1.59659 3.93506 1.65806C3.78117 1.71744 3.69024 1.96612 3.69024 1.96612C3.69024 1.96612 3.40976 2.2113 3.28525 2.27067C3.15865 2.33214 3.25027 2.42295 3.46851 2.51446C3.69024 2.60736 5.21158 2.63741 5.21158 2.63741C5.11855 2.73031 4.99335 2.63741 4.68418 2.63741C4.37082 2.63741 4.12321 2.73031 3.84343 2.66884C3.56154 2.60737 3.31673 2.69748 2.87887 2.57663C2.4445 2.45299 2.53543 2.60737 2.4445 2.57663C2.34937 2.54799 2.16401 2.79387 1.97725 2.97409C1.7891 3.15851 1.82127 3.37226 1.85065 3.46656C1.88003 3.55946 2.07168 3.61814 2.34937 3.73689C2.62775 3.86262 2.78303 3.70964 3.00126 3.73689C3.2202 3.77041 3.90707 3.65166 4.12321 3.52593C4.33795 3.40089 4.62123 3.52594 4.77931 3.5888C4.93529 3.65237 4.71286 3.83399 4.71286 3.83399C4.58906 3.80116 4.24631 3.98347 4.06095 3.98347C3.8735 3.98347 3.62729 4.01631 3.50139 3.98347C3.37688 3.95484 3.12507 4.07568 2.75435 4.0163C2.38294 3.95483 2.32068 4.04704 2.09965 3.95483C1.88142 3.86263 1.69816 3.98347 1.60443 4.0163C1.50931 4.04704 1.35543 4.20072 1.10432 4.35509C0.856707 4.50877 0.795847 4.72461 0.824525 4.81263C0.856701 4.90693 1.10431 4.90693 1.35542 4.93766C1.60443 4.96421 1.85135 5.05641 2.09896 5.02777C2.35006 4.99564 2.47387 4.99564 2.59978 4.96491C2.72498 4.93836 3.18733 4.81262 3.37618 4.72461C3.56154 4.62961 4.15259 4.72461 4.15259 4.72461C4.02739 4.78398 3.84272 4.84336 3.59231 4.87479C3.3426 4.90692 3.00057 5.18285 3.00057 5.18285L2.72358 5.36516C2.72358 5.36516 2.41021 5.51675 2.25493 5.42873C2.09755 5.33443 1.56946 5.33442 1.56946 5.33442C1.56946 5.33442 0.977015 5.30299 0.793755 5.18285C0.607697 5.05711 0.633574 5.303 0.479691 5.36516C0.325109 5.42873 0.232084 5.60756 0.0460259 5.67392C-0.139333 5.73329 0.295038 6.3466 0.295038 6.3466C0.295038 6.3466 0.295028 6.3466 0.63287 6.3466C0.976308 6.3466 0.85391 6.53171 0.976317 6.55895C1.10152 6.58969 1.53588 6.65116 1.53588 6.65116C1.53588 6.65116 1.66109 6.46884 1.81987 6.37803C1.97585 6.28582 2.00313 6.37803 2.19198 6.28582C2.38084 6.19362 2.4431 6.46884 2.47178 6.55895C2.50465 6.65116 2.87676 6.92288 2.87676 6.92288C2.87676 6.92288 3.2188 7.08634 3.31462 6.92288C3.40765 6.7741 3.31463 6.92289 3.84132 6.68539C3.94345 6.63649 4.05887 6.83836 4.09244 6.95921C4.12112 7.08564 4.2757 6.98994 4.36943 7.01928C4.46106 7.05141 5.36406 6.98924 5.49067 7.08564C5.61447 7.16877 5.89846 6.89634 5.99009 6.74475C6.08172 6.58898 5.99009 6.40597 5.99009 6.25229C5.99009 6.09861 6.29995 6.37733 6.42446 6.37733C6.54686 6.37733 6.48741 6.19292 6.60982 5.67392C6.65598 5.47763 7.20226 5.85413 7.20226 5.85413C7.20226 5.85413 7.07636 6.3459 6.8931 6.58899C6.70494 6.83766 6.98473 6.9585 6.98473 6.9585C6.98473 6.9585 6.98473 6.9585 7.51283 7.14222C8.04512 7.32663 7.88774 7.08494 7.88774 6.71403C7.88774 6.3459 8.16472 6.62112 8.50676 6.65046C8.8523 6.68468 8.82292 6.68469 8.8523 6.58899C8.88238 6.50097 9.13279 6.4374 9.34893 6.31307C9.56716 6.19222 9.60003 6.3459 9.69306 6.37663C9.78399 6.40527 9.84694 6.50028 9.97145 6.50028C10.0981 6.50028 10.2519 6.68468 10.3436 6.68468C10.4366 6.68468 10.752 6.71403 10.9367 6.43741C11.1221 6.16009 11.1221 6.40597 11.2459 6.34589C11.3718 6.28442 11.6509 6.2523 11.7775 6.13145C11.8978 6.00642 12.1482 6.00642 12.2734 5.91491C12.3993 5.8248 12.4916 6.00641 12.2734 6.2516C12.0573 6.50027 11.7145 6.53031 11.6215 6.55756C11.5264 6.58829 11.3431 6.68398 11.2459 6.71332C11.1542 6.74406 10.6233 6.98855 10.5023 6.95781C10.3778 6.92149 9.34893 6.89495 9.34893 6.89495C9.34893 6.89495 8.69702 7.10939 8.60539 7.14153C8.50677 7.16807 8.10527 7.3874 8.01155 7.41604C7.91642 7.44957 7.66951 7.54039 7.38902 7.54039C7.10853 7.54039 6.89239 7.75343 6.08101 8.11946C5.27173 8.48899 6.14396 8.36605 6.20622 8.51763C6.26987 8.6741 6.48671 8.76421 6.73432 8.73557C6.98473 8.70274 7.38972 9.0101 7.63593 9.16377C7.88704 9.31885 8.28783 9.28601 8.60539 9.28601C8.91525 9.28601 9.47482 9.16377 9.65808 9.13164C9.84694 9.103 10.6548 8.88995 11.1878 8.82638C11.7145 8.76491 12.2111 8.51832 12.4615 8.33601C12.7085 8.15159 12.833 8.12017 12.833 8.12017L13.3939 7.75343C13.3939 7.75343 13.3604 7.87429 13.58 7.78627C13.7982 7.69616 13.7066 7.87428 13.7066 7.87428C13.7066 7.87428 13.8612 7.84564 14.4207 7.75343C14.981 7.66332 14.5767 7.84564 14.7635 7.75343C14.9516 7.66332 15.0433 7.78626 15.507 7.32593C15.9757 6.8663 15.7574 7.32593 15.8218 7.23233C15.8833 7.14222 16.2883 7.05071 16.8143 7.08494C16.8143 7.08494 17.1291 7.20089 17.2536 7.23233C17.3753 7.26306 17.6551 7.3881 17.6551 7.3881C17.6551 7.3881 17.8726 7.23233 18.03 7.01858C18.186 6.80553 18.3399 6.92148 18.4665 6.9585C18.591 6.98924 18.591 7.11009 18.6196 7.32664C18.6532 7.54108 18.8085 7.35527 19.1799 7.3881C19.5555 7.41674 19.5261 7.45027 19.5849 7.3881C19.6479 7.32663 19.836 7.32663 19.9899 7.2945C20.1466 7.26376 20.2697 7.35528 20.4879 7.26377C20.7061 7.16877 20.9545 7.05141 20.9894 6.9585C21.0167 6.867 21.2349 6.95851 21.5777 6.74406C21.9162 6.53101 21.6085 6.62112 21.5777 6.31307C21.5455 6.00711 21.5791 6.31376 22.0442 5.94703Z" fill="white" fill-opacity="0.18"/>
</svg>
