<svg width="4" height="3" viewBox="0 0 4 3" fill="none" xmlns="http://www.w3.org/2000/svg">
<path d="M2.59997 0.125367C2.35306 0.154705 2.32369 0.248308 2.19778 0.339117C2.07258 0.431323 1.91869 0.614342 1.82357 0.708644C1.73054 0.796658 1.01638 1.16687 0.765275 1.37923C0.517664 1.59577 0.360989 1.72011 0.113378 1.9639C-0.13773 2.20838 0.0511247 2.08684 0.455416 2.3907C0.859008 2.69805 0.640775 2.51503 0.92126 2.54577C1.20454 2.5772 1.29617 2.57721 1.66829 2.42283C2.0397 2.26985 1.66829 2.42283 2.10266 2.17905C2.54122 1.93246 2.32369 2.08614 2.54122 1.93247C2.75735 1.77739 2.81961 1.68658 2.97559 1.32195C3.13087 0.955218 3.29524 0.837863 3.44213 0.647164C3.53516 0.52073 3.44213 0.310473 2.85038 0.0932307C2.25794 -0.119122 2.85108 0.0932343 2.59997 0.125367Z" fill="white" fill-opacity="0.18"/>
</svg>
