<svg width="2" height="4" viewBox="0 0 2 4" fill="none" xmlns="http://www.w3.org/2000/svg">
<path d="M1.77742 1.34817C1.69558 0.978646 1.56968 0.857804 1.36194 0.817289C1.1542 0.776774 1.15419 0.776769 1.4053 0.488276C1.65221 0.203974 1.94599 0.284307 1.65221 0.203976C1.36193 0.121549 0.821254 0 0.821254 0C0.658278 0.122243 0.159557 -0.0782289 0.202924 0.609124C0.242094 1.30765 -0.299293 0.900411 0.242094 1.30765C0.781382 1.7156 0.74151 1.83574 0.945755 2.24368C1.1535 2.65581 0.907285 2.901 1.19616 3.02255C1.48644 3.14339 1.11503 2.53218 1.2794 2.32821C1.44797 2.12284 1.23673 2.24368 1.48714 1.91887C1.73895 1.59196 1.81029 1.49207 1.77742 1.34817Z" fill="white" fill-opacity="0.18"/>
</svg>
