<svg width="43" height="23" viewBox="0 0 43 23" fill="none" xmlns="http://www.w3.org/2000/svg">
<path d="M42.7773 20.9578C42.531 20.9984 42.217 20.9599 42.217 20.9599L41.7196 20.7874C41.7196 20.7874 41.3636 20.7874 41.2594 20.6812C41.1538 20.5778 40.9369 20.3264 40.9747 20.2216C40.9747 20.2216 40.5516 19.7291 40.4417 19.7605C40.3382 19.8004 39.8773 19.7654 39.7716 19.6586C39.6639 19.5545 39.6262 19.4106 39.6262 19.2709C39.6262 19.1284 39.6262 18.916 39.5219 18.8098C39.4156 18.71 39.3414 18.2489 39.0973 18.4236C38.8476 18.5996 39.203 18.4599 38.8476 18.5996C38.4958 18.7435 38.3538 18.6771 38.3538 18.5311C38.3538 18.3935 38.3538 18.2489 38.1727 17.9681C37.9985 17.6838 38.0684 17.2284 37.7089 17.1928C37.3564 17.1599 37.1822 17.0489 37.2529 16.8044C37.3186 16.5571 37.1095 16.3818 36.9675 16.3503C36.8234 16.3119 36.3638 16.101 36.2589 15.9948C36.1519 15.8886 35.728 15.6776 35.6553 15.4681C35.5811 15.255 35.5812 15.0455 35.4399 14.9735C35.3021 14.903 35.0544 14.8694 34.9796 14.5132C34.9124 14.1625 34.6984 14.1954 34.9124 14.0186C35.1216 13.8468 34.4501 13.7043 35.3349 13.7427C36.2183 13.77 36.1477 13.77 36.3603 13.5925C36.5709 13.4179 36.6408 13.4151 36.6408 13.2761C36.6408 13.1315 36.6744 13.0323 36.5331 12.8877C36.3918 12.7431 36.3918 12.6754 36.1435 12.5706C35.8952 12.4651 36.0722 12.2877 35.7539 12.1815C35.4349 12.076 35.0796 11.8679 34.6522 11.7261C34.234 11.5871 33.6296 11.622 33.5226 11.5158C33.4177 11.411 33.5226 11.3377 33.3785 11.1323C33.2372 10.9172 33.3079 10.8487 33.0288 10.7782C32.7434 10.7097 32.6399 10.672 32.4958 10.5323C32.3545 10.3905 32.8476 10.5651 32.1747 9.78903C31.4991 9.01506 30.5786 8.70003 30.5786 8.70003C30.4366 8.34518 29.9413 7.99521 29.7287 7.88974C29.5147 7.78356 28.7739 7.46713 28.6319 7.39658C28.4892 7.32742 28.0283 7.07875 27.7429 6.97537C27.4631 6.87268 27.2162 6.76649 26.5412 6.52201C25.8669 6.27752 25.62 6.3816 25.4067 6.31314C25.1933 6.24468 24.1337 5.71731 23.9196 5.61114C23.7077 5.50705 23.4216 5.25698 23.1069 5.15569C22.9278 5.09492 22.6536 5.09701 22.4452 5.10749V4.61992C22.3032 4.6283 22.2046 4.63947 22.2046 4.63947C22.2046 4.63947 21.9185 4.74356 21.6338 4.56893C21.3547 4.3915 21.6009 4.13932 21.2113 4.13932C20.821 4.13932 20.6098 4.00101 20.1509 4.00101C19.6907 4.00101 19.4095 3.75443 19.05 3.61263C18.7002 3.47362 18.631 2.90572 18.3106 2.97837C17.9952 3.04892 17.7105 2.94066 17.4258 2.94066C17.1404 2.94066 17.0733 2.65985 16.8257 2.5886C16.5802 2.52224 16.2947 2.52223 16.1514 2.48242C16.0094 2.44889 15.9436 2.13036 15.7974 2.16319C15.6575 2.20021 15.5869 2.05701 15.4113 2.16319C15.2309 2.27146 14.8797 2.34342 14.7042 2.5886C14.5272 2.83937 14.2418 2.7681 14.2048 2.90501C14.1712 3.04891 14.1712 3.1537 14.1712 3.25778C14.1712 3.36395 14.1082 3.47432 13.9963 3.5763C13.6074 3.93115 13.5711 3.89345 13.4305 3.964C13.2885 4.03455 13.2171 3.78726 13.0744 3.85991C12.9331 3.93046 12.5813 3.99962 12.5813 3.99962C12.3337 4.60455 12.0483 4.63738 11.8028 4.88536C11.5552 5.12985 11.4467 5.09142 11.2698 5.44767C11.0935 5.80113 10.9543 5.84025 10.7753 5.97786C10.599 6.12176 10.599 6.01348 10.2444 6.08613C9.88973 6.15529 9.43089 6.0484 9.32597 5.94013C9.22245 5.84094 9.25605 5.80113 9.18261 5.55245C9.11196 5.30866 8.82865 5.09143 8.72303 4.88536C8.61881 4.67022 8.51042 4.42573 8.37052 4.31885C8.22923 4.21128 8.41666 3.68459 8.11309 3.964C8.15785 3.7286 8.11311 3.54279 7.97182 3.16349C7.93965 3.07967 7.91235 3.05591 7.89066 3.04543C7.92773 3.03775 7.99838 2.99025 8.15856 2.74087C8.58173 2.08006 8.15856 2.74087 8.15856 1.98785C8.15856 1.23624 8.06416 1.47165 8.06416 1.00154C8.06416 0.526538 7.35627 0.904426 7.21498 0.857624C7.07508 0.810823 6.50714 0.904438 6.50714 0.904438C6.50714 0.904438 6.0343 0.575423 5.75312 0.247114C5.46843 -0.0839887 5.51809 0.150732 5.28167 0.104629C5.04595 0.0571286 4.38286 0.10461 4.05551 0.0117059C3.72396 -0.0839927 3.44348 0.434326 3.25602 0.576128C3.06506 0.715135 2.97134 0.62083 2.73142 0.62083C2.4992 0.62083 2.07183 1.04624 2.07183 1.04624C2.07183 1.04624 1.88506 1.61624 1.60038 1.37664C1.3178 1.13914 1.60039 1.37665 1.27024 0.905141C0.941493 0.435031 0.798112 0.766122 0.282605 0.858328C-0.238497 0.953328 0.0426658 1.00222 0.46934 1.51983C0.562369 1.63648 1.08278 1.89355 1.08278 1.89355C1.08278 1.89355 1.31709 2.22326 1.55491 2.37065C1.78714 2.50756 1.55492 2.37065 2.02636 2.37065C2.4985 2.37065 2.49851 2.45867 2.68527 2.45867C2.68527 2.45867 2.97062 2.60325 3.20214 2.65215C3.44276 2.69336 3.38959 3.07477 3.34623 3.30738C3.30076 3.54348 3.5372 3.68598 3.62953 3.92139C3.72326 4.1519 3.91419 4.05969 4.05479 4.01429C4.19538 3.96469 4.66825 3.9647 4.94944 3.87319C5.23202 3.77819 4.94944 3.87319 5.28099 4.0597C5.61253 4.25039 5.5174 4.2015 5.79858 4.1086C6.07977 4.0143 6.22107 4.154 6.55611 3.92139C6.88486 3.68598 6.97929 4.01429 7.12058 4.0597C7.2332 4.09881 7.36536 4.14701 7.54652 4.1491C7.40033 4.15609 7.25836 4.1568 7.16533 4.2504C6.95479 4.45996 7.20171 4.49627 6.74216 4.45995C6.27982 4.42572 6.38541 4.21198 6.1385 4.31955C5.89019 4.42573 5.61181 4.39009 5.61181 4.39009C5.61181 4.39009 5.2551 4.56753 5.18655 4.81271C5.11591 5.05999 5.11589 5.12983 4.72279 5.12983C4.33668 5.12983 4.58571 4.77988 4.29962 4.77988C4.01844 4.77988 3.99326 4.45367 3.87714 4.70444C3.66381 5.16477 3.4169 5.13054 3.66381 5.30937C3.91002 5.4819 3.9478 5.59016 4.16254 5.66281C4.37028 5.73196 4.37027 5.73198 4.61858 5.94153C4.86689 6.15738 4.76268 6.15737 4.90397 6.36763C5.04526 6.57998 5.00817 6.79163 5.04524 7.03891C5.07881 7.2841 5.11589 7.28411 5.15086 7.46503C5.18723 7.63617 5.18726 7.71022 5.57407 7.77867C5.96647 7.85202 5.96645 7.852 6.10494 7.852C6.24833 7.852 6.33646 7.83244 6.42389 7.7102C6.6715 7.35535 6.60225 7.10738 6.63723 7.00191C6.6715 6.89643 6.70789 6.75462 6.77854 6.54646C6.84988 6.33061 6.77082 6.142 6.88343 6.08752C7.37655 5.84163 7.44931 5.38061 7.37657 5.84164C7.30522 6.29569 7.15624 6.26285 7.13036 6.44028C7.05972 6.89572 7.13038 6.93485 7.2353 7.07385C7.34511 7.21286 7.41155 7.32183 7.69484 7.28411C7.98092 7.24778 7.98092 7.18073 8.12291 7.4287C8.26 7.67389 8.29845 7.53418 8.50829 7.56771C8.72093 7.60613 9.22034 7.35535 9.18047 7.49995C9.1469 7.63616 9.3239 7.77866 9.29032 7.92465C9.25395 8.06157 9.29031 8.16496 9.39453 8.2397C9.49875 8.31095 9.74704 8.48767 9.74704 8.48767L10.3129 8.5177C10.3129 8.5177 10.4542 8.59175 10.6676 8.62947C10.8809 8.663 11.267 8.87605 11.6216 8.83973C11.9742 8.8055 12.0455 8.76919 12.3302 9.05559C12.6114 9.33779 12.896 9.29867 13.1423 9.44047C13.3941 9.58088 13.7459 9.58087 13.8886 9.61649C14.0278 9.65072 14.2397 9.68985 14.4167 9.7604C14.5923 9.82816 15.021 9.86658 15.0917 9.97066C15.1623 10.0775 15.8324 10.2172 15.796 10.4317C15.7597 10.6426 16.0793 10.9263 16.1164 11.1365C16.15 11.3489 16.2024 11.5074 16.3304 11.6276C16.8963 12.1927 16.9278 12.3044 16.9634 12.4812C17.0012 12.6593 17.3202 12.9003 17.3202 13.0058C17.3202 13.1133 17.2467 13.0421 17.7468 13.4682C18.2407 13.8908 18.3442 13.9627 18.1323 14.1723C17.9182 14.3847 17.5286 14.1416 17.5286 14.1416C17.5286 14.1416 17.4615 13.9621 17.3908 14.349C17.3719 14.4364 17.3747 14.4908 17.3908 14.5293C17.5146 14.5376 17.6056 14.5614 17.6056 14.5614C17.6056 14.5614 17.4328 14.6606 17.3908 14.5293C17.1887 14.5104 16.8942 14.5139 16.7166 14.6676C16.4347 14.9162 16.1507 14.845 15.9751 15.1265C15.7968 15.4087 15.9044 15.0888 15.6904 15.6916C15.4813 16.2945 15.3386 16.0786 15.3386 16.5047C15.3386 16.9259 15.305 16.8197 15.5526 16.8197C15.7968 16.8197 16.1171 16.7492 16.4731 16.7869C16.825 16.8197 17.3209 16.8596 17.5286 16.8197C17.7468 16.7869 18.0266 16.9259 18.1323 16.6793C18.2407 16.4314 18.4512 16.2944 18.3442 16.1862C18.2407 16.0793 18.2029 15.8669 18.2029 15.8669C18.2029 15.8669 18.3806 16.2553 18.5918 16.2944C18.8058 16.3273 18.5918 16.0437 18.8059 16.3273C19.0192 16.6088 19.229 16.6088 19.3703 16.5711C19.5123 16.5375 19.3332 16.5375 19.8299 16.3608C20.3251 16.1862 20.2922 15.8313 20.3251 16.1862C20.3636 16.5375 20.43 16.6437 20.644 16.8882C20.856 17.1362 20.9966 17.2095 21.1372 17.3513C21.2813 17.491 21.7373 17.8096 21.7744 17.9849C21.8121 18.1595 21.8828 17.9849 22.0598 18.2685C22.1339 18.3872 22.2731 18.476 22.4207 18.5423L22.4221 19.0404C22.6137 19.12 22.8229 19.1556 22.96 19.1389C23.2083 19.1011 23.8077 19.0278 23.8077 19.0278L24.34 19.0655C24.34 19.0655 24.8017 19.0278 24.9052 19.0613C25.3326 19.2031 25.6508 19.3058 25.8278 19.1989C26.0034 19.0956 26.1775 19.0222 26.3594 18.9537C26.5342 18.879 26.8532 18.7393 26.9574 18.7393C27.063 18.7351 27.2757 18.7351 27.3463 18.5954C27.4156 18.4536 27.5981 18.3795 27.524 18.207C27.2722 17.6433 27.3114 17.5357 27.0973 17.5721C26.8826 17.6063 26.4601 17.5357 26.4601 17.5357C26.4601 17.5357 25.6851 17.3611 25.5767 17.2899C24.9024 16.8728 24.9024 16.8728 24.9024 16.8728C24.9024 16.8728 25.5053 17.0111 25.9285 17.1508C26.3517 17.2898 26.5322 17.3611 26.7406 17.3939C26.9525 17.4275 27.2722 17.3234 27.3778 17.3234C27.3778 17.3234 27.7667 17.3569 27.7003 16.9685C27.6254 16.5836 27.1295 16.5131 27.6254 16.5836C28.1193 16.65 28.441 16.5068 28.441 16.5068L28.683 16.0514L28.8607 16.087L29.3209 15.9773C29.3915 15.6225 29.146 15.554 29.3916 15.6225C29.6385 15.6937 30.1827 15.5491 30.24 15.693C30.3806 16.0486 30.5261 15.8739 30.7031 15.9773C31.1297 16.2204 31.2675 16.043 31.3773 16.1527C31.4816 16.2539 31.7628 16.1478 31.8005 16.2504C31.8334 16.3601 32.1929 16.0814 32.3993 16.2504C32.8259 16.6032 33.3911 17.1313 33.3911 17.3807C33.3946 17.6265 33.3946 17.6978 33.6429 17.8382C33.894 17.9786 34.2004 18.1197 34.2074 18.2245C34.2445 18.6471 34.4585 18.754 34.5292 18.858C34.5998 18.9635 34.5998 19.1438 34.7061 19.2478C34.8138 19.3533 35.1335 19.3868 35.1656 19.5258C35.2034 19.6732 35.1706 19.7396 35.2034 19.8786C35.2405 20.0246 35.663 19.9512 35.7693 20.0889C35.8777 20.2341 35.9484 20.3746 36.0869 20.4786C36.2303 20.5855 36.4093 20.5855 36.4792 20.7224C36.5527 20.867 36.9752 20.7958 37.0836 20.8293C37.1878 20.867 37.4354 20.9355 37.5774 20.9355C37.7208 20.9355 37.8579 20.7203 37.9642 20.8649C38.0726 21.0067 38.6413 20.9355 38.8176 21.0395C38.9924 21.1457 39.559 21.2827 39.8409 21.3525C40.1235 21.4245 40.1612 21.4245 40.5138 21.3881C40.8691 21.3525 40.5844 21.1779 40.8691 21.3525C41.1503 21.5271 41.2923 21.5635 41.4028 21.7737C41.5063 21.9861 41.5399 21.882 41.7217 22.058C41.8959 22.2319 42.075 22.3039 42.2149 22.2319C42.3562 22.1579 42.5667 22.1963 42.6038 21.912C42.6373 21.6312 42.3939 21.912 42.6374 21.6312C42.8892 21.3483 42.3562 21.9483 42.7087 21.4894C43.0619 21.0256 43.0291 20.9222 42.7773 20.9578Z" fill="white" fill-opacity="0.18"/>
</svg>
