<svg width="6" height="2" viewBox="0 0 6 2" fill="none" xmlns="http://www.w3.org/2000/svg">
<path d="M5.32942 0.292056C4.86358 0.292056 4.76916 0.104854 4.45929 0.169119C4.14663 0.230589 4.27253 -0.0732728 3.68008 0.0168375C3.08973 0.104154 2.55884 0.26062 2.28185 0.324885C1.99997 0.38426 1.75234 0.384265 1.75234 0.384265C1.75234 0.384265 1.50544 0.237572 1.40682 0.260624C0.849341 0.384263 0.940972 0.137679 0.69546 0.324885C0.444351 0.509297 0.165268 0.753781 0.165268 0.753781C0.0694408 0.782421 -0.115231 0.966841 0.100205 1.05905C0.318438 1.15125 0.631817 1.36569 0.787098 1.39363C0.940981 1.42856 1.09696 1.27139 1.18789 1.39363C1.28652 1.52077 1.40611 1.73662 1.59566 1.70309C1.78102 1.67026 2.24758 1.48794 2.46652 1.52077C2.68405 1.54941 3.1219 1.3657 3.27579 1.42856C3.43107 1.48794 3.99135 1.54941 4.14594 1.61088C4.30331 1.67026 4.39633 1.45721 4.61457 1.54941C4.8307 1.64162 5.4826 1.48794 5.4826 1.48794C5.4826 1.48794 5.67146 1.20853 5.70084 1.12052C5.73302 1.02831 5.95055 0.937497 5.76659 0.690916C5.57983 0.443637 5.79667 0.292056 5.32942 0.292056Z" fill="white" fill-opacity="0.18"/>
</svg>
