<svg width="4" height="3" viewBox="0 0 4 3" fill="none" xmlns="http://www.w3.org/2000/svg">
<path d="M2.63122 0.0147289C2.42208 0.0482583 2.29759 0.0685066 2.22625 0.0796831C2.04928 0.141852 1.5904 0.193544 1.38056 0.368875C1.14554 0.565162 1.14555 0.289252 0.875558 0.604987C0.604165 0.91723 0.409036 0.95635 0.251657 1.23157C0.0970747 1.50819 -0.0980706 1.23156 0.0565114 1.74148C0.211093 2.25281 0.0970436 2.37088 0.211057 2.48753C0.329966 2.60558 0.329974 2.48751 0.604165 2.37086C0.875557 2.25281 1.0686 1.90075 1.38056 1.97619C1.69252 2.06001 1.61699 2.17529 1.88838 1.93989C2.16187 1.70448 2.31575 1.54591 2.43326 1.42786C2.55217 1.314 2.7872 1.19315 2.90471 0.996866C3.01802 0.79988 3.05861 0.644808 3.05861 0.644808C2.82289 0.173301 3.13694 -0.0635065 2.63122 0.0147289Z" fill="white" fill-opacity="0.18"/>
</svg>
