<svg width="6" height="4" viewBox="0 0 6 4" fill="none" xmlns="http://www.w3.org/2000/svg">
<path d="M0.913971 2.69787C1.47214 2.97379 1.10213 2.81871 1.47215 2.97378C1.84566 3.12746 1.75193 3.08485 1.96947 3.1561C2.81442 3.43062 3.20823 3.49698 3.33973 3.5857C3.74402 3.85952 3.86713 3.80014 4.02381 3.80014C4.17559 3.80014 4.20846 3.80014 4.36654 3.82878C4.52252 3.85951 4.86457 3.64646 4.98907 3.71003C5.11218 3.76731 5.32271 3.82529 5.42133 3.71003C5.73469 3.33771 5.70531 3.31047 5.73469 3.06389C5.76337 2.8194 5.85921 2.94304 5.76338 2.63639C5.67175 2.32834 5.85919 3.03526 5.60809 2.17676C5.36257 1.31617 5.30032 1.16319 5.20659 1.10381C5.11076 1.04234 4.98836 1.01092 4.86386 0.825109C4.74005 0.642793 4.39732 0.304004 4.39732 0.304004C4.39732 0.304004 4.14692 0.120984 4.08466 0.215985C4.02311 0.303999 3.6188 0.0930471 3.4943 0.121687C3.37329 0.152422 3.33903 -0.0613269 3.08932 0.0616143C2.83821 0.183857 2.34438 -0.0920682 2.21988 0.0336671C2.09327 0.152417 1.78202 0.365468 1.75054 0.491203C1.75054 0.491203 1.47075 0.737088 1.31617 0.855838C1.16229 0.982272 1.06575 0.765732 0.81674 1.04165C0.569829 1.31548 0.631383 1.22397 0.446024 1.44051C0.256469 1.65496 0.135461 1.46915 0.135461 1.74647C0.135461 2.02309 -0.145011 2.2054 0.101201 2.2983C0.35161 2.3947 0.289342 2.47782 0.536254 2.60356C0.788061 2.7265 0.353699 2.41985 0.913971 2.69787Z" fill="white" fill-opacity="0.18"/>
</svg>
