<svg width="54" height="38" viewBox="0 0 54 38" fill="none" xmlns="http://www.w3.org/2000/svg">
<path d="M52.5943 24.6594C52.9224 24.6804 53.1343 24.577 53.2169 24.598C53.298 24.6203 53.5694 23.9232 53.589 23.8449C53.6072 23.7618 53.7128 23.5145 53.6072 23.4964C53.5029 23.4733 53.5694 23.1674 53.5029 23.1492C53.4435 23.1304 53.3805 22.9459 53.1343 22.8838C52.8846 22.8237 52.6958 22.6183 52.5076 22.6588C52.3243 22.7008 52.3621 22.5806 52.1796 22.6183C51.9907 22.6588 52.1551 22.5974 51.8886 22.4716C51.6186 22.3529 51.7431 22.107 51.534 22.311C51.3262 22.5142 51.3066 22.4556 51.1856 22.6183C51.0555 22.7818 51.0989 22.6588 50.8722 22.7224C50.6449 22.7818 50.4568 22.8433 50.6449 22.5974C50.8296 22.3529 50.81 22.23 50.9555 22.1685C51.0996 22.107 51.3066 22.0267 51.2255 21.9834C51.1387 21.9436 51.2255 21.6977 50.9555 21.6977C50.6841 21.6977 50.7268 21.5978 50.5407 21.5147C50.3553 21.4322 50.3553 21.2073 50.2896 21.1284C50.2294 21.0438 50.1042 20.5744 49.9406 20.617C49.7727 20.6569 49.6069 20.6359 49.2551 20.6569C48.8991 20.6743 48.8802 20.513 48.6522 20.7379C48.4262 20.9628 48.4654 21.0438 48.3402 21.1284C48.2143 21.2073 48.3199 21.3701 48.1122 21.4937C47.9044 21.6187 47.9044 21.3694 47.8457 21.2688C47.7806 21.1682 48.0919 20.8615 48.0919 20.8615C48.0919 20.8615 48.2143 20.8804 48.0919 20.5549C47.9667 20.228 48.1954 19.8787 47.8841 19.9011C47.5757 19.9213 47.74 19.9814 47.4701 19.8375C47.1987 19.695 47.1602 19.5343 47.0553 19.572C46.9531 19.6126 46.6831 19.695 46.5342 19.6335C46.3887 19.572 46.432 19.3269 46.204 19.3269C45.9732 19.3269 45.9732 19.2256 45.8718 19.4086C45.778 19.5797 45.8529 19.5441 45.7424 19.7076C45.7417 19.6635 45.7067 19.6251 45.5192 19.6573C45.0191 19.7376 45.187 19.5343 45.0191 19.7376C44.8527 19.9416 44.9205 20.024 44.7722 20.024C44.5645 20.024 44.5015 19.8375 44.4826 19.7579C44.4624 19.6747 44.4623 19.6747 44.5833 19.5727C44.7093 19.4708 44.8345 19.4302 44.8736 19.3283C44.9205 19.227 45.0849 19.023 45.0422 18.9622C44.9988 18.9008 45.2304 18.7981 44.98 18.4935C44.7288 18.1848 45.2304 18.2888 44.6274 18.1044C44.0252 17.92 44.1105 17.7566 43.8608 17.8572C43.6097 17.9605 43.6943 17.8774 43.4642 17.9605C43.2376 18.0423 43.0718 18.1449 42.9235 18.2895C42.7794 18.4313 42.948 18.3489 42.7612 18.5529C42.5759 18.7589 42.3877 18.4698 42.2632 18.6779C42.138 18.8805 42.2422 18.9434 42.138 19.0237C42.0352 19.1047 42.2422 18.2895 42.2199 18.3699C42.2003 18.453 41.91 18.3489 41.7848 18.4698C41.6582 18.5948 41.4945 18.6779 41.4945 18.6779L41.4113 18.4698C41.4113 18.4698 41.4945 18.286 41.5372 18.2043C41.5805 18.1219 41.6582 18.0031 41.6582 18.0031C41.6582 18.0031 41.5155 17.7566 41.3924 17.737C41.2644 17.7153 41.0993 17.6148 41.0378 17.6734C40.9734 17.737 40.8923 17.5952 40.7888 17.6329C40.6845 17.6734 40.7265 17.5107 40.5579 17.4101C40.3942 17.306 40.602 17.0832 40.3362 17.1642C40.0655 17.2445 40.004 17.0832 39.8969 17.102C39.7962 17.1209 39.6892 16.875 39.6262 16.8583C39.5633 16.8366 40.0844 16.7318 40.1026 16.655C40.1236 16.5719 40.2292 16.2442 40.2292 16.2442C40.2292 16.2442 40.3936 16.1639 40.4803 16.224C40.5572 16.2827 40.8293 16.1639 40.8916 16.2044C40.9538 16.2449 41.0986 16.143 41.0986 16.143L41.1616 15.9795L41.0594 15.7336C41.0594 15.7336 41.5561 15.6295 41.5987 15.7141C41.6386 15.7937 41.9918 15.7141 42.0534 15.7937C42.1156 15.8747 42.6983 15.9383 42.7591 15.9586C42.8214 15.9795 43.2774 15.7748 43.2774 15.7748C43.2774 15.7748 43.6279 15.7546 43.5258 15.7134C43.4236 15.6715 43.4013 15.5297 43.2991 15.427C43.197 15.3264 43.1732 15.1217 42.9025 15.0386C42.6332 14.9562 42.4878 14.9345 42.2185 14.8563C41.9513 14.7731 41.7442 14.6719 41.5554 14.7333C41.3693 14.792 41.2861 14.7333 41.0986 14.7145C40.914 14.6928 40.7062 14.6097 40.6013 14.5692C40.4992 14.5294 40.3936 14.4469 40.3936 14.3638C40.3936 14.2807 40.2697 14.1598 40.481 14.1808C40.6845 14.2024 41.0601 14.0816 41.1182 14.0606C41.1846 14.0348 41.4749 13.8106 41.6575 13.8532C41.8464 13.8972 42.2408 13.9978 42.3024 13.9132C42.3675 13.8322 42.3444 13.8099 42.4101 13.7491C42.4682 13.689 42.5738 13.4033 42.5738 13.4033C42.5738 13.4033 42.4472 12.6287 42.1982 12.6461C41.9513 12.6692 41.6813 12.1578 41.5554 12.1578C41.4336 12.1578 41.4931 11.9134 41.1616 12.1152C40.8293 12.3234 40.8524 12.3423 40.6013 12.5672C40.3537 12.7907 40.5572 12.6894 40.2488 12.8494C39.9396 13.0149 39.9795 12.8326 39.771 12.913C39.5633 12.994 39.4626 12.9563 39.4626 12.9563C39.4626 12.9563 39.6073 12.8494 39.6472 12.6887C39.6892 12.5274 39.7717 12.3604 39.5857 12.3227C39.4003 12.278 39.2359 12.299 39.2359 12.299C39.2359 12.299 39.1492 12.2584 39.4814 12.0531C39.8151 11.8491 39.9795 11.7283 40.1243 11.6877C40.2704 11.6451 40.481 11.5837 40.4999 11.5257C40.5188 11.4642 40.5579 11.3832 40.3943 11.2386C40.2299 11.0947 40.1242 10.9522 39.9606 10.9731C39.7962 10.992 39.3814 10.8509 39.2947 10.8509C39.2149 10.8509 39.0443 10.6686 38.9848 10.6686C38.9226 10.6686 38.9848 10.3396 38.7344 10.4031C38.4889 10.4646 38.4057 10.4031 38.2378 10.4646C38.0699 10.5233 38.0496 10.4842 37.9664 10.5855C37.8846 10.6874 37.9042 10.5855 37.7398 10.626C37.5754 10.6686 37.6992 10.5652 37.4894 10.6874C37.2809 10.8104 37.2439 10.9927 37.1816 10.8726C37.1179 10.7517 37.1816 10.5498 37.2445 10.5498C37.3061 10.5498 37.5104 10.524 37.4516 10.422C37.388 10.3179 37.6593 10.3179 37.388 10.3179C37.1187 10.3179 37.1823 10.2411 36.8913 10.3808C36.601 10.524 36.7857 10.3605 36.4772 10.5855C36.1639 10.8104 36.3912 10.5652 36.1212 10.6874C35.854 10.8104 35.7295 10.7873 35.8729 10.6448C36.0191 10.5009 36.1016 10.4031 36.1016 10.4031L36.331 10.1978C36.331 10.1978 36.352 10.0979 36.3912 10.012C36.4374 9.93233 36.415 9.68575 36.352 9.62428C36.2919 9.5663 36.2261 9.25895 36.0618 9.36163C35.8981 9.46292 36.0618 9.25895 35.8114 9.33998C35.5644 9.42031 35.7099 9.25895 35.419 9.50344C35.1266 9.74722 35.2217 9.78075 34.9811 9.84921C34.7768 9.91068 34.7034 9.77098 34.7111 9.70671C34.7545 9.50344 34.9405 9.29946 34.9405 9.29946C34.9405 9.29946 35.0007 9.19538 35.0671 9.11296C35.1259 9.03193 35.1259 8.78604 35.0867 8.68615C35.0468 8.58416 34.8377 8.33829 34.7545 8.32152C34.6705 8.29568 34.4446 7.99252 34.2369 8.01138C34.0291 8.03513 33.9857 7.72708 33.7388 7.78855C33.4877 7.84583 33.3632 7.76759 33.1562 7.82766C32.9484 7.88774 33.0114 7.74524 32.8463 7.76759C32.6826 7.78855 32.5952 7.76759 32.4707 7.88774C32.3476 8.01068 32.3476 7.88774 32.2448 7.97226C32.1427 8.05329 32.1427 8.01067 31.8915 8.23769C31.6411 8.45843 31.7027 8.32152 31.6649 8.3795C31.6215 8.44167 31.7069 7.85421 31.5607 8.03512C31.1872 8.48149 31.3516 8.29568 31.1004 8.50174C30.8535 8.70501 30.729 8.64703 30.729 8.64703V8.27751C30.729 8.27751 30.6654 7.99321 30.5828 8.01207C30.5003 8.03582 30.5003 7.93174 30.3569 8.01207C30.2114 8.0945 30.0659 8.03583 30.1715 7.93175C30.2702 7.82906 30.3758 7.62439 30.4388 7.56501C30.5003 7.50145 30.4388 7.15498 30.3569 7.23601C30.2702 7.31844 30.2114 7.23601 29.9806 7.31843C29.7533 7.39807 29.9806 7.27792 29.7533 7.39806C29.5266 7.5245 29.5462 7.34009 29.2986 7.44068C29.0496 7.54266 28.9664 7.54266 28.9664 7.54266C28.9664 7.54266 28.7593 7.25627 28.8608 7.19689C28.9664 7.13542 29.0503 7.053 29.2168 7.01039C29.3812 6.96777 29.4644 6.95031 29.5462 6.84902C29.6302 6.74494 29.6728 6.6653 29.6728 6.4795C29.6728 6.29508 29.6728 6.29509 29.6728 6.29509C29.6728 6.29509 29.6512 6.03314 29.5064 6.07226C29.3609 6.11138 29.3812 5.72509 29.1741 5.82847C28.9664 5.92906 28.9664 5.72509 28.8608 5.78796C28.7593 5.84663 28.4271 5.94862 28.4271 5.94862C28.22 5.78795 28.0739 5.66432 28.0739 5.66432L27.7647 5.60354L27.7024 5.29479L27.6164 4.98953L27.3681 4.68428L26.954 4.5802C26.954 4.5802 26.912 4.37832 26.7085 4.50196C26.5008 4.62071 26.3518 4.64446 26.2685 4.60115C26.1853 4.56064 26.144 4.45656 25.9992 4.37832C25.667 4.19391 25.7083 4.13174 25.5222 4.15199C25.3368 4.17365 25.2123 4.0067 25.1074 4.0067C25.0046 4.0067 24.1352 3.90681 24.0526 3.90681C23.9673 3.90681 24.0939 3.60016 23.5329 3.7231C22.9726 3.84813 22.6824 4.03116 22.4516 4.11079C22.2256 4.19391 22.0368 4.25538 21.8332 4.43979C21.6213 4.62001 21.5821 4.64377 21.5401 4.78836C21.501 4.92597 21.7738 4.96368 21.6647 5.02795C21.0197 5.41843 21.0631 5.35906 21.0631 5.51693C21.0631 5.68248 21.1037 5.7677 21.1659 5.96957C21.2261 6.17354 21.3947 6.07156 21.4163 6.25597C21.4352 6.44178 21.3709 6.44178 21.2485 6.50255C21.1247 6.55913 21.103 6.39567 20.9169 6.37891C20.7316 6.35586 20.6693 6.00729 20.6693 6.00729L20.8127 5.70204L20.5014 5.19281L20.1678 5.09082C20.1678 5.09082 20.0244 5.21376 20.0041 5.29339C19.981 5.37442 19.8355 5.00909 19.6096 5.13343C19.3809 5.25427 19.2158 5.09083 19.155 5.06987C19.0899 5.05031 19.0312 4.70035 18.8843 4.84704C18.7395 4.98814 18.6968 4.94832 18.6779 5.13343C18.6534 5.31365 18.5912 5.21377 18.6136 5.45825C18.6388 5.70204 18.4898 5.74465 18.4058 5.88854C18.3247 6.03314 18.1981 6.00729 18.1568 6.11138C18.1177 6.21406 18.1177 6.17424 17.9722 6.23781C17.8267 6.29579 17.4322 6.35656 17.4322 6.35656C17.4322 6.35656 17.0608 6.39917 17.2244 6.15468C17.3923 5.9067 17.5966 5.51762 17.5966 5.51762C17.5966 5.51762 17.6364 5.23472 17.6588 5.17185C17.6826 5.10898 17.6588 5.02865 17.6427 4.92597C17.6168 4.82258 17.5763 4.76252 17.7022 4.68428C17.826 4.60115 18.4492 3.94802 18.4261 3.84814C18.4051 3.74336 18.4261 3.8649 18.3058 3.59946C18.1799 3.33611 17.8665 3.41924 17.847 3.33611C17.8267 3.25368 17.6833 2.94843 17.6833 2.94843C17.6833 2.94843 17.8868 2.78357 17.7868 2.71861C17.6833 2.65854 17.7211 2.35329 17.4098 2.37494C17.0985 2.39171 17.0985 2.31277 16.9733 2.23034C16.853 2.14931 16.7698 1.9684 16.7075 1.9684C16.6453 1.9684 16.5823 2.00751 16.6019 1.80354C16.6208 1.59817 16.6866 1.55626 16.6019 1.47662C16.518 1.3949 16.4564 1.35508 16.4963 1.27195C16.5432 1.19093 16.7264 1.06798 16.6642 1.08964C16.6019 1.11059 16.518 0.805336 16.3508 0.719417C16.1864 0.640483 16.2263 0.374352 15.8766 0.374352C15.524 0.374352 15.4618 0.310083 15.2757 0.352693C15.0869 0.395304 14.861 0.43582 14.7155 0.514056C14.57 0.597181 14.3007 0.577624 14.1552 0.597183C14.0062 0.618139 14.0062 0.23185 13.7404 0.435821C13.4711 0.64049 12.8877 0.906627 12.8087 0.906627C12.7234 0.906627 12.6632 0.719419 12.3499 0.843058C12.0393 0.968095 11.6427 1.2531 11.5839 1.31457C11.5196 1.37255 11.5007 1.3942 11.293 1.47662C11.0817 1.55626 11.0628 1.45567 10.8971 1.45567C10.7327 1.45567 10.6893 1.43402 10.4438 1.59818C10.192 1.76303 10.1738 1.76303 10.0682 1.86781C9.96258 1.9684 9.94299 1.82519 9.69678 1.92508C9.44567 2.02916 9.52751 1.78048 9.36244 2.08784C9.19876 2.3917 9.17709 2.27435 9.09316 2.43641C9.00992 2.59986 9.00991 2.61802 8.94696 2.70045C8.8882 2.78357 8.7588 2.51604 8.67836 2.82269C8.59723 3.13074 8.59722 3.14961 8.57274 3.29351C8.55316 3.43601 8.48951 3.43601 8.3678 3.60016C8.24329 3.76571 8.16076 3.82858 8.18104 4.03116C8.20063 4.23513 8.22231 4.39718 8.26288 4.50196C8.30625 4.60115 8.57274 4.68428 8.57274 4.82259C8.57274 4.96788 8.57274 5.01049 8.75879 5.07056C8.94695 5.13413 9.23793 5.10828 9.36244 5.10828C9.48904 5.10828 9.55129 4.98883 9.69678 5.07056C9.84017 5.15578 10.2543 5.051 10.2773 5.31435C10.2983 5.57979 10.3571 5.82847 10.3571 5.82847C10.3571 5.82847 10.1528 5.50016 9.90384 5.51762C9.65273 5.54137 9.58907 5.40027 9.44498 5.4799C9.29949 5.56302 9.11133 5.64126 9.05258 5.70273C9.05258 5.70273 8.80146 5.88924 8.71683 6.13373C8.63779 6.37961 8.40697 6.23501 8.26218 6.44177C8.11739 6.64505 8.16007 6.66531 8.32445 6.82667C8.48882 6.99013 8.9071 7.27652 8.88822 7.35755C8.86583 7.43998 9.21626 7.43998 9.23724 7.5231C9.25963 7.60064 9.83949 7.64395 9.90384 7.64395C9.96259 7.64395 10.2773 7.6649 10.2319 7.82836C10.1913 7.99321 10.6068 8.29638 10.3997 8.3802C10.192 8.45914 9.85976 8.45913 9.75764 8.5213C9.65272 8.58417 9.46735 8.33898 9.36173 8.35715C9.25961 8.3802 8.77909 7.74593 8.69655 7.82836C8.61471 7.90799 8.5126 7.78924 8.43007 7.80321C8.43007 7.80321 8.13977 7.50005 8.01107 7.45953C7.89076 7.42181 7.86978 7.23461 7.76206 7.11027C7.66204 6.98942 7.70121 6.88744 7.63896 6.82597C7.57671 6.7645 7.7222 6.55843 7.53684 6.6213C7.35009 6.68277 7.27734 6.71839 7.2053 6.6213C7.08009 6.45924 7.03811 6.29438 7.0591 6.21265C7.08008 6.13232 7.0591 6.0066 7.08008 5.8648C7.10316 5.72369 7.12205 5.6196 7.12205 5.6196C7.37316 5.37442 7.86908 4.96648 7.4508 4.80372C7.03881 4.64236 6.70727 4.39578 6.70727 4.39578C6.70727 4.39578 7.28644 3.49607 7.53755 3.25298C7.78866 3.0064 6.37573 3.08954 7.62078 2.35259C8.86582 1.62123 8.96444 1.4885 9.2778 1.20909C10.0283 0.553868 10.0283 1.12596 10.0283 0.553866C10.0283 0.553866 9.63874 0.52663 9.30999 0.279351C8.97635 0.0355638 7.42492 -0.0901711 6.84577 0.074682C6.26591 0.240234 5.61472 0.0355638 5.28247 0.279351C4.94812 0.525932 4.12555 0.57552 3.96117 0.904527C3.7961 1.22725 3.33793 1.28663 2.75598 1.93976C2.17612 2.59358 1.86278 2.45178 1.61587 3.27325C1.36476 4.08703 0.898213 3.74197 0.898213 4.47682C0.898213 5.21307 0.14978 5.6196 0.14978 5.6196C0.236513 7.0928 -0.288091 7.25416 0.236508 7.6642C1.47736 8.64633 1.56411 8.8084 1.89635 8.96976C2.2251 9.13601 2.42933 9.0927 2.7231 9.13601C3.65829 9.26733 3.94927 9.14509 4.20108 9.21564C4.12134 9.23101 4.03531 9.24987 3.88493 9.29877C3.14139 9.54325 2.47551 9.46222 2.47551 9.46222H1.5634C1.64454 10.3598 1.62215 10.9047 1.97888 11.0137C3.05396 11.3392 2.64268 10.9305 3.05397 11.3392C3.47225 11.7506 3.30507 11.9951 3.71986 12.1578C4.13534 12.3234 3.14069 12.4869 4.46688 12.1578C5.79587 11.8344 5.38038 11.5844 5.79586 11.8344C6.7905 12.8117 6.70727 11.9134 6.95768 12.2389C7.20529 12.5679 7.03813 12.8948 7.53755 13.0582C8.03557 13.2217 8.03555 13.302 8.36709 13.302C8.69654 13.302 9.44499 13.1393 9.6961 13.2217C9.6961 13.2217 10.4431 12.9737 10.6886 13.1393C10.9397 13.302 12.5149 13.2217 12.5149 13.2217L13.6774 13.302H14.4238C15.2506 14.1193 15.4177 13.9559 15.6688 13.7107L15.0029 12.8124C15.0029 12.8124 15.5856 12.9744 15.8325 13.0582C15.8325 13.0582 16.2508 12.9332 16.3305 12.8948C16.4152 12.8501 16.5173 12.7509 16.6194 12.7907C16.725 12.8333 16.7894 12.957 16.8698 12.9737C16.9537 12.9947 17.1804 12.9947 17.2426 12.9947C17.3035 12.9947 17.6154 12.8948 17.6154 12.8948L17.9512 13.0582C18.2177 13.1791 18.4681 13.2008 18.4681 13.2008C18.7157 13.2008 18.7157 13.2008 18.7157 13.2008L18.9025 13.1791C18.9025 13.1791 19.1543 13.191 19.1969 13.2406C19.3606 13.4445 19.6306 13.4662 19.6929 13.4662C19.7537 13.4662 20.0279 13.4138 20.0859 13.4871C20.2314 13.6695 20.1909 13.5891 20.3552 13.6485C20.5238 13.71 20.6287 13.6771 20.6868 13.6485C20.9155 13.5458 20.9743 13.4536 21.061 13.4662C21.3492 13.506 21.3695 13.506 21.3695 13.4236C21.3695 13.3405 21.3492 13.1393 21.3492 13.1393C21.3492 13.1393 21.3492 12.9947 21.3492 12.9332C21.3492 12.8738 21.31 12.6894 21.31 12.6894L21.1233 12.4449L20.8533 12.2626C20.8533 12.2626 20.8113 12.095 20.6253 12.1159C20.442 12.1383 20.2307 12.1795 20.2105 12.095C20.1909 12.016 20.086 11.8505 20.1909 11.81C20.293 11.7723 20.2308 11.6689 20.3986 11.6689C20.563 11.6689 20.3986 11.9748 20.6679 11.6284C20.9344 11.2805 20.9344 11.24 21.04 11.3846C21.1421 11.5271 21.268 11.4845 21.2471 11.6472C21.2247 11.8107 21.1016 11.9148 21.2037 11.9553C21.31 11.9958 21.4982 11.9748 21.5597 12.0167C21.6185 12.0552 21.8038 11.9553 21.7451 12.2005C21.6849 12.4463 21.6003 12.468 21.8892 12.468C22.1794 12.468 22.4096 12.4254 22.4683 12.468C22.532 12.5057 22.8048 12.468 22.8642 12.4889C22.9272 12.5057 23.0944 12.5693 23.1154 12.7712C23.1342 12.9758 22.9496 13.3677 22.9915 13.4885C23.0328 13.6115 22.6348 13.4885 23.1538 13.6709C23.6756 13.8553 23.9029 13.4459 24.0498 13.425C24.1953 13.4054 24.2555 13.4886 24.3177 13.5291C24.3793 13.5696 24.6682 13.6115 24.6094 13.733C24.5436 13.8546 24.5059 13.9999 24.5059 13.9999C24.5059 13.9999 24.7325 13.9363 24.7514 14.083C24.7759 14.2206 24.5437 14.2821 24.6682 14.3058C24.7948 14.3226 25.0459 14.3226 25.1046 14.3456C25.1704 14.3652 25.4607 14.4288 25.3557 14.5496C25.2494 14.674 25.3341 14.8151 25.3977 14.836C25.4607 14.8577 25.7271 15.0805 25.8509 15.0616C25.9776 15.0393 26.3686 15.0805 26.3686 15.1413C26.3686 15.2006 26.5371 15.1839 26.6819 15.3047C26.8274 15.427 27.0778 15.2433 27.0135 15.5297C26.9519 15.8161 27.0974 15.6505 26.9519 15.816C26.8064 15.9795 26.726 15.9795 26.6197 16.0389C26.514 16.1003 26.5567 16.143 26.3909 16.1814C26.2252 16.2247 25.8132 16.2449 25.7705 16.2449C25.7271 16.2449 25.4607 15.939 25.3341 16.101C25.2095 16.2673 24.9794 16.2247 24.9193 16.5914C24.8563 16.9588 25.2907 17.0001 25.2494 17.0839C25.2102 17.1649 26.3679 16.9798 26.4539 16.9225C26.5364 16.8589 26.5133 16.9393 26.9512 16.6745L27.3037 16.4091L27.5548 16.305L27.778 16.4482C27.778 16.4482 27.9703 16.3951 28.0095 16.3476C28.155 16.1814 28.5495 16.4482 28.5698 16.5097C28.588 16.5719 28.7132 16.3658 28.588 16.5719C28.4656 16.7779 28.4243 16.6333 28.4656 16.7779C28.5054 16.9211 28.8391 16.9581 28.8775 17.021C28.9202 17.0825 28.7789 16.8359 28.9202 17.0825C29.0692 17.327 29.0881 17.3877 29.0881 17.5728C29.0881 17.7559 29.2546 17.7154 29.3161 17.7559C29.3784 17.7943 29.5036 17.941 29.5868 17.8767C29.67 17.8152 29.7106 17.6734 29.7729 17.5952C29.8337 17.5107 29.7309 17.4101 29.919 17.4101C30.1037 17.4101 30.1688 17.4695 30.2086 17.5952C30.2471 17.7154 30.4129 17.8564 30.3541 17.9808C30.2905 18.1037 30.0422 18.2274 30.2275 18.2651C30.4129 18.3077 30.4359 18.4935 30.7262 18.5305C31.0151 18.5731 31.1116 18.4404 31.1634 18.4935C31.5131 18.8798 32.1769 19.922 32.1769 19.9828C32.1769 20.047 32.3224 20.1469 32.4273 20.2866C32.5295 20.4333 32.6994 20.2866 32.7771 20.5325C32.8638 20.7791 32.9072 20.8196 32.9267 21.1081C32.9484 21.3952 33.0282 21.3715 33.0282 21.537C33.0282 21.6984 33.173 21.5768 33.0505 21.7997C32.9274 22.0274 33.0911 21.8451 32.8435 22.0497C32.5924 22.2523 32.6798 22.1901 32.4497 22.3941C32.221 22.5981 32.3042 22.3941 32.0531 22.7231C31.8034 23.0479 31.744 22.9473 31.7041 23.1094C31.6621 23.2708 31.8034 23.0479 31.6621 23.2708C31.5131 23.4978 31.6383 23.2708 31.3886 23.4747C31.1417 23.6801 31.2228 23.5592 30.8703 23.8463C30.5199 24.1299 30.3345 24.2326 30.2478 24.3556C30.1695 24.4743 29.6288 24.5994 29.5665 24.6999C29.5043 24.8075 29.3168 24.8872 29.235 25.0492C29.1482 25.2155 29.2742 25.2329 29.3175 25.395C29.3595 25.5619 29.6714 25.6234 29.8575 25.8267C30.0442 26.0293 30.0645 25.9685 30.2485 26.2137C30.4374 26.4589 30.8521 26.3352 30.5814 26.5601C30.3149 26.7858 30.2688 26.8046 30.1051 26.9702C29.9414 27.1357 29.9596 27.0708 29.7743 27.112C29.5882 27.1553 29.4826 27.112 29.463 27.2175C29.4427 27.3159 29.4427 27.316 29.2979 27.4424C29.1489 27.5632 28.9223 27.5423 28.7334 27.6247C28.5502 27.705 28.4047 27.5842 28.3222 27.5842C28.2375 27.5842 28.2599 27.4186 28.0724 27.5206C27.8843 27.6247 27.9046 27.4431 27.7409 27.6457C27.5751 27.8482 27.6367 27.7057 27.5751 27.8482C27.5129 27.9914 27.4688 27.7889 27.345 28.034C27.2219 28.2792 27.0547 28.2569 27.345 28.2792C27.6367 28.2995 27.8032 28.1374 27.7787 28.2995C27.7633 28.4608 27.7633 28.5007 27.6619 28.6453C27.5563 28.7878 27.5751 28.7067 27.4297 28.8115C27.2856 28.9107 27.0547 28.6453 27.0547 28.6453C27.0547 28.6453 27.3051 28.4001 26.8071 28.2157C26.3105 28.034 26.3916 28.0731 26.2056 27.9334C26.0181 27.7888 25.958 27.6463 25.8328 27.6463C25.7069 27.6463 25.3984 27.4193 25.3354 27.3802C25.2732 27.3397 25.085 27.2566 24.8143 27.3397C24.5443 27.4193 24.2786 27.5031 24.1107 27.5437C23.947 27.5856 23.8596 27.3802 23.7358 27.5646C23.6127 27.749 23.5693 27.8678 23.5063 28.0103C23.4476 28.1556 23.5693 28.2792 23.4049 28.3428C23.2399 28.4001 23.0951 28.3176 22.8649 28.5013C22.6348 28.6844 22.6803 28.5419 22.4935 28.8499C22.3047 29.158 22.2858 29.4821 22.3249 29.7077C22.3683 29.9319 22.2648 30.0556 22.4488 30.1785C22.6341 30.2973 22.7187 30.2596 22.8244 30.3399C22.9265 30.423 23.0531 30.2826 23.1776 30.4014C23.2986 30.5271 23.4686 30.4013 23.5056 30.4838C23.5497 30.5627 23.7141 30.7492 23.7141 30.7492C23.7141 30.7492 23.8589 30.6479 24.0701 30.6479C24.2772 30.6479 24.6297 30.5054 24.6297 30.5054L24.9787 30.548C25.19 30.7325 24.5863 30.7897 25.355 30.7066C26.1203 30.6284 26.079 30.6284 26.2042 30.5858C26.328 30.548 26.5134 30.3399 26.5134 30.3399C26.5134 30.3399 26.598 30.1785 26.619 30.0772C26.6414 29.9745 26.7253 29.8286 26.8694 29.8733C27.0128 29.9124 27.1163 29.9515 27.2198 30.013C27.324 30.0772 27.6129 30.24 27.6598 30.2973C27.6989 30.3608 27.8633 30.2826 27.9878 30.2826C28.1116 30.2826 28.2571 30.1359 28.3397 30.1974C28.4229 30.2603 28.7978 30.1562 28.7978 30.1562C28.7978 30.1562 28.9419 29.9319 28.9006 29.874C28.8566 29.809 28.9426 29.5869 28.7307 29.5436C28.5264 29.5044 28.4229 29.4444 28.383 29.3836C28.3396 29.3193 28.297 29.3026 28.3194 29.1161C28.3397 28.9337 28.5271 28.7675 28.653 28.8932C28.7775 29.0141 29.1888 29.2774 29.2532 29.3626C29.3154 29.4444 29.4798 29.3836 29.4798 29.6057C29.4798 29.83 29.6043 29.7503 29.6267 29.9529C29.6477 30.1569 29.812 30.4028 29.8547 30.4244C29.8946 30.4454 30.0414 30.1373 30.0834 30.0144C30.1212 29.8921 30.0834 29.7091 30.1674 29.7915C30.2457 29.8747 30.3129 29.7915 30.4562 29.8921C30.6024 29.9934 31.0571 29.9536 31.0753 30.0388C31.0963 30.1219 31.183 29.934 31.183 30.2847C31.183 30.6305 30.9752 30.4035 31.2837 30.7346C31.5978 31.0573 31.8013 31.2012 31.9489 31.1823C32.0944 31.1586 32.2196 31.0384 32.3028 31.1586C32.3875 31.2878 31.7824 31.0999 31.8258 31.3248C31.8685 31.5469 31.8881 31.5071 32.0517 31.5707C32.2203 31.6336 32.5826 31.628 32.5917 31.6915C32.6561 32.0401 32.5106 32.0198 32.4665 32.1589C32.4273 32.3028 32.5721 32.3482 32.6561 32.4068C32.7372 32.4683 33.0275 32.2853 33.1142 32.2448C33.1953 32.2022 33.5877 32.1407 33.6066 32.2022C33.629 32.265 34.0249 32.2022 34.1473 32.265C34.276 32.3244 34.3774 32.1819 34.5614 32.4068C34.7503 32.6318 34.9965 32.6108 34.8741 32.7554C34.7496 32.8979 34.7286 32.8762 34.4593 32.9601C34.19 33.0397 34.0872 32.8546 33.8983 33.0607C33.7122 33.2653 33.629 33.2444 33.7955 33.4071C33.9627 33.5713 34.2585 33.7529 34.3138 33.8193C34.5866 34.142 34.7929 34.0414 34.8944 34.1036C34.9965 34.1629 35.1021 34.0421 35.2707 34.1231C35.4343 34.2055 35.4567 34.3467 35.5169 34.4486C35.5791 34.5506 36.0569 34.6337 35.8253 34.8195C35.5994 35.0005 35.5169 35.0207 35.5588 35.0822C35.5994 35.1437 35.9939 35.1248 35.9114 35.3092C35.8246 35.4915 35.868 35.3882 36.0142 35.5747C36.159 35.757 36.6178 35.736 36.6584 35.6361C36.699 35.5321 36.7423 35.4748 36.7626 35.4133C36.7815 35.3483 36.8871 35.1248 36.8871 35.1248C36.8871 35.1248 37.0949 35.0207 37.197 35.0417C37.3019 35.0626 37.197 34.6128 37.5726 35.0012C37.9405 35.3882 38.235 35.3882 38.2133 35.4748C38.1916 35.553 38.3784 35.6361 38.4218 35.6934C38.4616 35.757 38.6288 35.7165 38.7743 35.8569C38.9191 36.0022 38.9191 35.7989 39.0667 36.0238C39.2122 36.2473 39.3779 36.3898 39.5423 36.3898C39.706 36.3898 40.1404 36.4939 40.2075 36.5519C40.267 36.6148 40.453 36.5317 40.6202 36.6357C40.7853 36.7377 40.8888 36.6811 41.0168 36.7377C41.1378 36.7971 41.1378 36.7971 41.2833 36.7803C41.4316 36.7566 41.719 36.6993 41.8044 36.7377C41.8876 36.7803 41.8876 36.8774 42.1569 36.9221C42.4269 36.9647 42.5059 36.7189 42.6745 36.9012C42.8417 37.0835 43.2572 37.2875 43.2572 37.2875C43.2572 37.2875 43.6496 37.3727 43.7118 37.4307C43.7741 37.4928 43.9419 37.5962 44.0007 37.5536C44.0643 37.5138 44.1651 37.4712 44.2518 37.4307C44.3343 37.3915 44.3343 37.3098 44.3343 37.1261C44.3343 36.9403 44.4155 36.9012 44.314 36.8181C44.2119 36.7377 44.3141 36.4939 44.2301 36.3898C44.1462 36.29 44.4595 36.4108 44.0007 36.1447C43.546 35.8771 42.6311 35.2457 42.6123 35.1248C42.5913 35.0005 42.5059 34.7979 42.3003 34.6959C42.0925 34.5918 42.8816 34.6743 41.8442 34.3292C40.8062 33.9806 40.6817 33.8388 40.6209 33.7766C40.5551 33.7131 40.6817 33.5496 40.4782 33.4071C40.267 33.2653 40.4537 33.3051 40.1648 33.1228C39.8711 32.9363 39.871 32.7959 39.7927 32.7729C39.706 32.7561 39.706 32.673 39.6234 32.5689C39.5423 32.469 39.5213 32.2657 39.5213 32.2657C39.5213 32.2657 39.7682 32.1023 39.8515 32.1246C39.9368 32.1414 40.1215 32.1826 40.2082 32.2455C40.2893 32.3034 40.5789 32.2867 40.6209 32.4075C40.6614 32.5284 41.0574 32.5095 41.0755 32.6115C41.0965 32.7114 41.242 32.652 41.3672 32.8155C41.491 32.981 42.3835 33.3673 42.5283 33.4476C42.6745 33.5315 43.2963 33.7766 43.2963 33.7766C43.2963 33.7766 43.7489 33.7131 43.7734 33.9191C43.7951 34.1231 44.1259 34.3292 44.2714 34.4074C44.4148 34.4926 44.3525 34.4074 44.7246 34.4305C45.1003 34.4493 45.0548 33.9834 45.2262 34.4926C45.2443 34.5513 45.2639 34.8384 45.2639 34.8384C45.2639 34.8384 45.4962 34.7553 45.5787 34.8594C45.6605 34.9614 45.8676 35.0005 45.8676 35.0005L45.9935 35.3085C45.9935 35.3085 46.2201 35.4748 46.2397 35.5321C46.2635 35.5914 46.3852 35.4713 46.4509 35.553C46.6363 35.7996 46.5719 35.984 46.5964 35.8995C46.6153 35.8205 46.7797 35.4748 46.7797 35.4748C46.7797 35.4748 46.7601 35.1835 46.6545 35.2051C46.553 35.2261 46.4712 35.0207 46.4712 35.0207C46.4712 35.0207 46.4055 34.9418 46.283 34.8594C46.1564 34.779 46.0564 34.6344 46.0949 34.5723C46.1376 34.5115 46.2635 34.3054 46.283 34.3669C46.3054 34.4298 46.6153 34.7448 46.6545 34.6959C46.823 34.4926 46.8042 34.1231 46.8042 34.1231C46.8042 34.1231 46.7608 33.734 46.6797 33.7536C46.5964 33.7766 46.5531 33.5713 46.5531 33.5713L46.8867 33.4071C46.8867 33.4071 47.1133 33.4309 47.156 33.3673C47.1945 33.3058 47.2147 32.8986 47.2147 32.8986C47.2147 32.8986 47.156 32.4075 47.1133 32.448C47.07 32.4914 47.007 32.1414 46.9056 32.1414C46.8035 32.1414 46.8035 31.9374 46.7797 31.8557C46.7601 31.7754 46.8034 31.8131 46.7412 31.6524C46.6796 31.4869 46.7412 31.2214 46.5307 31.2417C46.3229 31.264 46.2642 31.0782 46.1376 31.0782C46.0138 31.0782 45.9942 30.8959 45.9305 30.8344C45.8683 30.7716 45.7871 30.5292 45.8683 30.5501C45.9515 30.5648 45.9515 30.2616 45.9515 30.1995C45.9515 30.138 46.2404 29.7922 45.9942 29.7517C45.7445 29.7098 45.536 29.3403 45.4346 29.4059C45.329 29.4632 45.2849 29.2614 45.2269 29.2006C45.1611 29.1391 45.2059 28.852 45.0387 28.975C44.8701 29.0993 44.8498 29.1398 44.7253 29.2404C44.6036 29.341 44.5617 29.304 44.4386 29.2613C44.3134 29.2187 44.3371 29.0462 44.2518 29.0155C43.9818 28.9135 44.0007 28.7682 43.8363 28.852C43.6726 28.9351 43.4607 28.7905 43.3775 28.873C43.2963 28.9561 43.2565 28.4448 43.2334 28.3595C43.2131 28.2813 43.2131 27.9355 43.1515 27.9942C43.0893 28.0543 43.0061 27.7909 42.8816 27.8322C42.7571 27.8699 42.7158 27.5667 42.65 27.5667C42.5913 27.5667 42.5913 27.2398 42.5913 27.2398C42.5913 27.2398 42.6745 27.1155 42.4661 27.0337C42.259 26.9548 42.4269 26.7306 42.1758 26.7082C41.9268 26.688 42.0702 26.4225 41.8233 26.5853C41.5778 26.7466 41.505 26.8361 41.4728 26.7676C41.3469 26.505 41.3273 26.4002 41.3078 26.2793C41.284 26.1564 41.3469 26.0719 41.242 26.0719C41.1378 26.0719 41.0175 25.9112 40.93 25.9315C40.8496 25.9531 40.93 25.768 40.8055 25.768C40.6817 25.768 40.6607 25.5647 40.5544 25.5214C40.453 25.4816 40.3327 25.337 40.3327 25.337L40.2264 25.0932C40.2264 25.0932 40.3908 25.0932 40.4775 25.1952C40.5544 25.2972 40.7657 25.337 40.7853 25.4222C40.8048 25.5026 40.9923 25.6451 40.9923 25.6451C40.9923 25.6451 41.1581 25.7491 41.2826 25.8064C41.4071 25.8679 41.4714 25.8889 41.5519 25.9531C41.6351 26.0097 42.0296 25.8889 42.0912 25.8889C42.1548 25.8889 42.3632 26.0327 42.3632 25.8476C42.3632 25.6681 42.3199 25.7876 42.3632 25.6681C42.4059 25.5445 42.5262 25.1945 42.3632 25.2769C42.1947 25.3601 42.1947 25.1351 42.0492 25.1561C41.9044 25.1729 41.8023 25.0115 41.7393 24.9689C41.6771 24.9326 41.5945 24.6853 41.7393 24.7027C41.8855 24.7251 41.8638 24.7251 42.0905 24.7027C42.3192 24.6853 42.6717 24.6022 42.6095 24.5616C42.5493 24.5204 42.6095 24.357 42.5885 24.2117C42.5696 24.0692 42.6094 23.8659 42.713 23.9085C42.8165 23.9497 42.8787 23.8233 43.0033 23.9497C43.1278 24.0692 43.2725 23.9693 43.3558 24.1921C43.4397 24.4177 43.6461 24.4366 43.6223 24.54C43.6027 24.6441 43.7461 24.6846 43.7713 24.7887C43.7929 24.8886 44.1238 24.7649 44.1434 24.8669C44.1623 24.9682 44.2882 24.8669 44.3728 24.95C44.4561 25.0304 44.5148 24.9319 44.5386 25.1554C44.5582 25.3761 44.6813 25.3971 44.7029 25.52C44.7225 25.6437 44.7876 25.6674 44.8904 25.7261C44.9925 25.7869 45.3227 25.5298 45.3695 25.6255C45.5129 25.9098 45.7011 25.8881 45.72 25.9524C45.8032 26.1962 45.9277 25.9308 46.0298 26.0712C46.1348 26.2172 46.3621 26.3191 46.281 26.4421C46.1984 26.5636 46.0543 26.6873 46.176 26.7075C46.304 26.7299 46.7587 26.7893 46.6929 26.8912C46.6335 26.9953 46.8014 26.8298 46.6335 27.0743C46.4691 27.3194 46.5083 27.3823 46.6335 27.4829C46.758 27.587 46.9468 27.7274 46.9853 27.8315C47.0287 27.9355 47.2364 27.9118 47.3372 27.9544C47.4435 27.9942 47.589 27.8287 47.647 27.8119C47.7121 27.7909 48.0219 27.7909 48.0436 28.0368C48.066 28.282 48.3339 28.282 48.4591 28.3197C48.5829 28.3596 48.7682 28.2597 48.834 28.3595C48.8928 28.4636 48.9984 28.648 49.1033 28.6676C49.2061 28.6865 49.4754 28.4448 49.4964 28.3023C49.5146 28.1577 49.7853 27.7504 49.6412 27.5667C49.4964 27.3823 49.5587 27.3621 49.4964 27.0973C49.4335 26.8305 49.4565 27.0128 49.4754 26.6663C49.4964 26.3205 49.7853 26.3806 49.7664 26.4861C49.7419 26.586 49.7853 26.5057 49.9532 26.6265C50.1189 26.7473 50.4701 26.5643 50.4701 26.5643L50.9681 26.2179L51.0926 25.9936L51.3829 25.849C51.3829 25.849 51.5074 25.7694 51.55 25.6458C51.5934 25.5221 51.7578 25.4229 51.7137 25.3992C51.671 25.3782 51.8158 25.3195 51.671 25.2197C51.5269 25.1149 51.3822 25.0129 51.3192 24.869C51.2556 24.7265 51.2556 24.4611 51.3822 24.4611C51.5067 24.4611 51.6116 24.4995 51.7767 24.5421C51.9403 24.5826 52.2929 24.4191 52.3369 24.5211C52.3831 24.6203 52.2614 24.6406 52.5943 24.6594Z" fill="white" fill-opacity="0.18"/>
</svg>
