<svg width="4" height="3" viewBox="0 0 4 3" fill="none" xmlns="http://www.w3.org/2000/svg">
<path d="M2.72576 1.84033C2.68239 1.63636 2.31098 1.43239 2.22774 1.22772C2.14451 1.02305 1.97663 0.738754 1.72902 0.656327C1.48001 0.573901 1.39678 0.330117 1.2296 0.330117C1.06523 0.330117 0.610574 -0.202865 0.23566 0.0856273C0.23566 0.0856273 -0.0965844 0.739454 0.0279206 0.983241C0.152426 1.22842 0.235656 1.43309 0.36016 1.63706C0.484665 1.84103 1.10369 2.33141 1.31143 2.41383C1.51918 2.49346 1.56255 2.74004 1.77029 2.78125C1.97733 2.82176 2.18507 2.65552 2.43548 2.69813C2.68309 2.74074 2.89014 2.69813 3.14125 2.69813C3.38676 2.69813 3.26645 2.6178 3.17971 2.3314C3.09927 2.0436 2.76353 2.0436 2.72576 1.84033Z" fill="white" fill-opacity="0.18"/>
</svg>
