<svg width="8" height="3" viewBox="0 0 8 3" fill="none" xmlns="http://www.w3.org/2000/svg">
<path d="M7.15121 0.69144C6.96585 0.51052 6.62102 0.419012 6.37551 0.266034C6.1286 0.110961 6.03276 0.17383 5.96911 0.0494917C5.91036 -0.0692584 5.44102 0.0844179 5.19201 0.0208517C4.9451 -0.0413175 4.66461 0.0494899 4.47645 0.11096C4.28899 0.174527 4.13161 0.266034 4.13161 0.266034C4.13161 0.266034 3.48391 0.570595 3.38668 0.632065C3.29505 0.69144 3.01177 0.850009 3.01177 0.850009C3.01177 0.850009 2.51935 1.00159 2.42212 0.970154C2.33049 0.937323 2.11225 1.09379 1.95907 1.03162C1.79889 0.970152 1.79889 1.06096 1.58346 1.03162C1.36452 1.00159 1.45686 1.12452 1.23933 1.18599C1.02319 1.24537 1.0092 1.35853 0.930856 1.30684C0.837127 1.24537 0.337713 1.46192 0.0285494 1.82795C-0.0378998 1.90339 0.028544 1.98163 0.0579215 2.07383C0.090097 2.16464 0.305532 2.10456 0.495088 2.04099C0.680446 1.98162 0.86861 2.07382 1.21065 2.13599C1.21065 2.13599 1.48973 2.041 1.64851 1.92016C1.79889 1.79931 1.76951 1.85659 2.0493 1.79931C2.33049 1.73574 2.26824 1.85659 2.4543 1.82795C2.64315 1.79931 2.64315 1.88942 2.82711 1.92016C3.01177 1.94879 3.11039 2.13599 3.26287 2.16463C3.42025 2.19746 3.60492 2.16464 3.79237 1.88942C3.97703 1.61489 3.79238 1.88942 4.13232 1.76648C4.47716 1.64354 4.289 1.76648 4.47715 1.85659C4.66531 1.94879 4.97517 2.01306 5.22558 1.94879C5.47668 1.88942 5.84881 1.98092 6.15797 2.07313C6.47133 2.16394 6.53008 2.16394 6.99872 2.0403C7.46597 1.91945 7.34146 1.91945 7.46597 1.76577C7.59047 1.61489 7.64923 1.27541 7.5576 1.00088C7.46527 0.724266 7.34077 0.877947 7.15121 0.69144Z" fill="white" fill-opacity="0.18"/>
</svg>
