<svg width="8" height="8" viewBox="0 0 8 8" fill="none" xmlns="http://www.w3.org/2000/svg">
<path d="M7.69182 0.688208C7.31411 0.544311 6.9315 0.263482 6.69928 0.405283C6.46356 0.543592 5.52208 0.734292 5.28566 0.974587C5.04924 1.20929 4.43718 1.3043 4.29239 1.25819C4.15459 1.2093 4.06016 0.975319 3.68245 1.16602C3.30683 1.35462 3.30267 0.836284 2.78647 0.885181C2.26677 0.930586 2.07651 0.602999 1.60437 0.367594C1.13223 0.135682 0.945448 -0.098344 0.802058 0.042759C0.660766 0.182465 0.473329 0.227193 0.473329 0.37109C0.473329 0.687524 -0.187002 0.513583 0.0522152 1.2191C0.285137 1.92461 0.285143 1.64312 0.809742 2.20823C1.32665 2.76984 1.18605 3.00734 1.33084 3.52705C1.47283 4.04187 1.33085 3.85323 1.47634 4.37084C1.61763 4.88845 0.905571 4.65375 1.47634 5.31456C2.0464 5.96908 1.95197 6.11159 2.46747 6.442C2.98858 6.76961 2.84731 6.7207 3.22432 6.95541C3.60343 7.18941 3.41459 7.28513 3.88673 7.33123C4.35817 7.37803 4.40431 7.18941 4.689 7.42482C4.97158 7.65673 4.8275 6.62642 5.20591 6.66903C5.58432 6.71723 5.58433 6.81082 5.77038 6.76402C5.95994 6.71791 5.67456 5.91598 5.86132 5.77348C6.05087 5.63378 6.33276 5.4417 6.47894 5.86711C6.62024 6.28972 6.80838 6.47762 7.14063 6.38192C7.46728 6.28972 7.08885 5.44172 7.13572 5.20422C7.18328 4.96672 6.99584 4.59439 7.22806 4.31149C7.46308 4.02719 7.51275 4.26189 7.65054 3.84067C7.79253 3.41387 7.79044 2.99198 7.79044 2.52117C7.78694 2.05036 7.78691 1.62634 7.73725 1.15553C7.69178 0.688213 8.07163 0.821627 7.69182 0.688208Z" fill="white" fill-opacity="0.18"/>
</svg>
