<svg width="12" height="14" viewBox="0 0 12 14" fill="none" xmlns="http://www.w3.org/2000/svg">
<path d="M11.1686 0.32894C11.1308 0.212984 11.1308 -0.13698 10.8601 0.0579098C10.5873 0.253498 10.5062 0.0166901 10.2754 0.409264C10.0396 0.804632 9.96129 0.72081 9.76544 1.07496C9.57309 1.42982 9.26249 1.62541 9.06734 1.70434C8.86869 1.78467 8.67706 1.78467 8.56024 1.74346C8.44133 1.70434 8.09159 1.62541 7.93421 1.5849C7.77963 1.54718 7.70129 1.34949 7.38933 1.46684C7.07597 1.58489 6.99624 1.62541 6.88083 1.5849C6.76401 1.54718 6.33664 1.58489 6.06105 1.42981C5.78826 1.27334 5.59381 0.996031 5.39796 1.07496C5.20631 1.15669 4.75794 1.34389 4.65512 1.27264C4.22775 0.959002 4.1914 0.720816 3.95638 0.840963C3.72066 0.959713 3.64581 0.959707 3.56677 1.07496C3.48843 1.19232 3.29257 1.50735 3.252 1.6254C3.21633 1.74345 2.94353 1.89854 2.78615 1.93975C2.63157 1.98026 2.74838 1.6254 2.47629 1.98025C2.2007 2.33301 2.43294 2.05919 2.20071 2.33301C1.96779 2.60823 1.73487 2.52651 1.77264 2.80383C1.81321 3.07696 1.53902 2.76471 1.61596 3.39059C1.6971 4.01927 1.18859 4.21345 1.34457 4.49147C1.46767 4.70592 1.34457 4.60604 1.07108 5.11667C0.798991 5.62939 0.835336 5.03772 0.798964 5.62937C0.759794 6.21614 0.798985 6.09669 0.759815 6.52698C0.722044 6.96077 0.759795 6.7638 0.563944 7.03833C0.372291 7.31145 0.25409 7.03832 0.3723 7.47071C0.485613 7.9024 0.485594 7.62579 0.291142 7.90241C0.0966908 8.17763 -0.0984428 7.82276 0.0554397 8.3732C0.213519 8.92225 0.0183773 9.07871 0.213528 9.19467C0.40798 9.31552 0.448531 9.23728 0.798964 9.31552C1.1487 9.39236 1.34457 9.07943 1.34457 9.4706C1.34457 9.86597 1.46138 9.98191 1.34457 10.2571C1.22566 10.5296 1.14869 10.2159 1.22563 10.5296C1.30677 10.8439 1.54181 10.5729 1.46137 11.0786C1.38303 11.5927 1.46138 11.5515 1.26273 11.8631C1.07107 12.1795 0.680754 12.1795 0.798964 12.4149C0.916474 12.6496 0.798991 12.9653 1.07108 13.1588C1.34457 13.3565 1.46135 13.5528 1.81388 13.3935C2.16361 13.2371 2.43292 13.0813 2.47629 12.7677C2.51406 12.4533 2.59449 12.1788 2.63156 11.9434C2.67143 11.7052 2.86588 11.0409 2.74837 10.8432C2.63156 10.6476 2.63156 10.4905 2.63156 10.0602C2.63156 9.62847 2.59449 9.98052 2.67144 9.07802C2.74838 8.17622 3.05267 7.84721 3.29329 7.97924C3.72136 8.21743 4.0361 8.02045 3.95706 8.44935C3.87942 8.88383 3.48912 8.76369 3.48912 8.95928C3.48912 9.15906 2.98199 8.99979 3.52967 9.31413C4.07456 9.62847 3.68425 9.041 4.07455 9.62846C4.46485 10.2152 4.42362 10.2564 4.5831 10.4905C4.73768 10.7266 4.81743 10.4905 4.73769 10.9222C4.65655 11.3538 4.79362 11.4635 4.93351 11.4747C5.51827 11.511 6.02609 11.511 6.02609 11.3531C6.02609 11.1994 6.17995 10.9627 6.3786 10.9997C6.57025 11.0402 6.68709 10.9997 6.84377 10.9627C6.99835 10.9221 7.43202 10.8034 7.04242 10.3347C6.64931 9.86388 6.10583 9.50972 6.18068 9.2359C6.26181 8.95858 6.29746 8.72457 6.22192 8.60652C6.14288 8.48987 5.55955 7.86188 5.55955 7.86188L5.28393 7.35265L4.89364 6.84063C5.05102 6.48787 5.28394 6.29439 5.48189 6.29439C5.67355 6.29439 5.48189 6.36913 5.94634 6.0946C6.41638 5.82148 6.61155 5.62729 6.72906 5.58608C6.84447 5.54556 6.96198 5.35137 7.04242 5.19211C7.11516 5.03494 7.19628 4.79953 7.19628 4.79953C7.19628 4.79953 7.82231 4.8582 7.85869 4.72338C7.93633 4.44816 7.8587 3.93964 7.4684 4.13453C7.07809 4.32872 7.04242 4.37133 6.88364 4.48938C6.72906 4.60394 6.33946 4.5264 6.10584 4.56761C5.87222 4.60394 5.90787 4.40765 5.59661 4.60394C5.28465 4.80023 5.71483 4.60394 5.28466 4.80023C4.85728 4.99791 5.24687 5.03633 4.85727 4.99791C4.46696 4.95949 5.20981 4.29449 4.46698 4.95949C3.72414 5.62868 3.22054 5.50714 3.22054 5.50714C3.22054 5.50714 3.10162 5.39327 3.02608 5.19349C2.94774 4.99791 2.90714 4.84492 2.79033 4.76529C2.67562 4.68426 2.52667 4.58507 2.43714 4.44956C2.08811 3.90191 1.85447 4.13593 2.08809 3.74335C2.32311 3.35357 2.12866 3.58619 2.32311 3.1538C2.51756 2.72281 2.47979 2.60684 2.67494 2.52581C2.86939 2.45037 2.86941 2.33862 3.06036 2.37145C4.00044 2.52582 3.37442 2.52581 4.00044 2.52581C4.62156 2.52581 4.81948 2.48669 4.81948 2.48669C4.81948 2.48669 4.73978 2.40916 5.20982 2.40916C5.67426 2.40916 5.43854 2.33162 5.67426 2.40916C5.90859 2.4867 6.06385 2.33163 6.18136 2.37075C6.29817 2.40916 6.72906 2.48669 6.72906 2.48669C6.72906 2.48669 7.35158 2.40915 7.4684 2.48669C7.4684 2.48669 7.97689 2.7228 8.17205 2.76401C8.3679 2.80313 8.60361 2.91838 8.79526 2.84224C8.99041 2.76401 9.34015 2.45037 9.65491 2.48739C9.96338 2.52651 9.96339 2.37143 10.3537 2.05919C10.7433 1.74346 10.9391 1.70433 11.0175 1.50735C11.093 1.31176 10.8985 1.03654 11.0545 0.881466C11.2098 0.720805 11.2098 0.449785 11.1686 0.32894Z" fill="white" fill-opacity="0.18"/>
</svg>
