<svg width="9" height="10" viewBox="0 0 9 10" fill="none" xmlns="http://www.w3.org/2000/svg">
<path d="M6.40996 3.03273C6.55615 3.0963 6.80586 3.24438 6.86811 3.22343C6.93036 3.20177 7.2829 3.1424 7.61095 3.01317C7.9432 2.88325 7.98586 2.80221 8.13135 2.71629C8.27684 2.63107 8.56432 2.3349 8.67204 2.23012C8.77206 2.12604 8.62867 1.97725 8.64756 1.87177C8.67204 1.7649 8.48389 1.53578 8.44402 1.4289C8.39646 1.32063 7.98518 0.775074 7.75995 0.564118C7.52772 0.353162 7.4074 0.287503 7.4074 0.287503C7.4074 0.287503 7.15909 0.0954101 7.09474 0.0395277C7.03319 -0.0296267 6.59951 0.0129875 6.59951 0.0129875L6.10081 0.116366L5.23066 0.731076C5.23066 0.731076 5.18941 1.15368 5.16703 1.21795C5.14814 1.27942 4.73335 1.6189 4.6718 1.65942C4.60955 1.70343 4.17377 2.14769 4.17377 2.14769V2.48438L4.87813 2.82386C4.87813 2.82386 4.25702 2.69534 4.09055 2.63177C3.92477 2.5682 3.88281 2.50464 3.88281 2.3356C3.88281 2.16655 3.69673 2.08273 3.69673 2.08273L3.44983 2.23081L2.94971 2.71699L2.7035 2.61292C2.7035 2.61292 2.36914 2.63247 2.28521 2.65483C2.20547 2.67299 1.91729 2.84762 1.81237 2.84762C1.70605 2.84762 1.3787 2.69534 1.21223 2.61292C1.04506 2.527 0.837325 2.61291 0.797456 2.54725C0.75269 2.48438 0.360991 2.48438 0.279153 2.50534C0.196616 2.52699 0.196616 2.58986 0.15255 2.761C0.11338 2.92864 0.172127 3.22482 0.235778 3.24578C0.298031 3.26883 0.548443 3.50004 0.607199 3.5196C0.672948 3.54335 1.001 3.6663 0.924059 3.87725C0.837325 4.0903 0.692529 4.23908 0.528154 4.38647C0.360982 4.53316 0.360976 4.63865 0.403643 4.78604C0.442114 4.93482 0.568034 4.89012 0.713523 4.87335C0.856214 4.8517 1.08844 4.89012 1.2717 4.87335C1.45916 4.8517 1.72565 5.06265 1.89283 5.06265C2.0614 5.06265 1.99844 5.33718 1.97605 5.39935C1.95507 5.46222 1.70675 5.59074 1.66688 5.65431C1.62351 5.71578 1.44097 6.01196 1.50322 6.12023C1.56197 6.22292 1.81237 6.3717 1.81237 6.3717L1.3976 6.94311C1.3976 6.94311 0.963926 7.1743 0.899575 7.21761C0.838022 7.26092 0.586922 7.45024 0.466614 7.53336C0.342109 7.61859 0.0909941 7.91265 0.0315395 7.97621C-0.0314124 8.03838 0.00914499 8.31571 0.0720969 8.44424C0.135049 8.56927 0.299441 9.01355 0.466614 9.05407C0.630289 9.09877 0.73311 9.24266 0.94295 9.28736C1.15069 9.33137 1.29267 9.49971 1.45914 9.49971C1.62351 9.49971 1.7928 9.47666 2.22717 9.35302C2.66084 9.22379 2.53562 9.26501 3.15745 9.0345C3.77927 8.80189 3.65337 8.84169 3.84152 8.67195C4.02828 8.5036 4.1318 8.39603 4.31786 8.25074C4.50462 8.10475 4.64731 7.93501 4.77601 7.76945C4.89632 7.59692 5.12645 7.6605 5.27194 7.63884C5.41673 7.61789 5.56151 7.68005 5.70699 7.68005C5.85178 7.68005 6.30785 7.6605 6.42956 7.61789C6.55546 7.57528 6.74362 7.57527 6.74362 7.57527C6.74362 7.57527 7.50883 5.52508 7.49065 4.851C7.46896 4.17692 7.49065 4.34317 7.49065 4.19509C7.49065 4.0456 7.18077 3.73126 7.05487 3.64953C6.92966 3.56221 6.59882 3.51821 6.53656 3.45744C6.47291 3.39247 6.03855 3.09629 5.977 3.05577C5.91825 3.01386 5.95602 2.92795 5.99589 2.82317C6.03926 2.71629 6.26587 2.97266 6.40996 3.03273Z" fill="white" fill-opacity="0.18"/>
</svg>
