<svg width="16" height="23" viewBox="0 0 16 23" fill="none" xmlns="http://www.w3.org/2000/svg">
<path d="M12.7124 18.7499C12.9299 18.6389 13.3041 18.4028 13.4139 18.3378C13.5223 18.2722 13.644 18.1618 13.7678 18.0668C13.8945 17.9732 14.2029 17.6875 14.2827 17.6246C14.3603 17.5597 14.652 17.1782 14.6688 17.1161C14.6869 17.0525 14.7492 16.6893 14.7492 16.6893L14.9325 16.4818L15.1052 16.1661C15.1052 16.1661 14.9674 15.7553 14.8583 15.661C14.7499 15.5639 14.703 15.2643 14.5457 15.2301C14.3897 15.2007 14.1707 15.0093 13.9392 15.0408C13.7063 15.0715 13.6762 14.9772 13.5056 14.9926C13.3342 15.0093 13.3468 14.9457 13.1306 15.091C12.9131 15.23 12.7131 15.2936 12.6172 15.3593C12.5242 15.4235 12.0437 15.0715 11.9989 15.091C11.9485 15.1022 11.9367 14.9457 11.9989 14.864C12.0619 14.7879 12.1528 14.6782 12.1996 14.6447C12.2444 14.6139 12.3214 14.4554 12.3088 14.3604C12.292 14.2668 12.229 14.0565 12.1703 13.8994C12.1045 13.7394 11.7961 13.5508 11.7961 13.5508L11.6695 13.1708C11.6695 13.1708 11.4701 12.9172 11.4225 12.9172C11.3736 12.9172 11.2826 12.6008 11.2687 12.5079C11.2533 12.4101 11.3449 12.0489 11.2687 12.0273C11.1896 12.0133 10.9385 11.6648 10.9385 11.6648C10.9385 11.6648 10.8937 11.523 10.8763 11.4741C10.8644 11.4266 10.9112 11.1751 10.8147 11.143C10.7224 11.1094 10.893 11.0151 10.5055 10.9516C10.1159 10.8915 10.2425 10.7154 10.039 10.698C9.83685 10.6833 9.29407 10.4305 9.29407 10.4305C9.29407 10.4305 9.23182 10.0637 9.10731 10.0043C8.98281 9.94078 8.87439 9.46159 8.8569 9.41409C8.84501 9.36589 8.87439 9.08089 8.78136 9.04876C8.68973 9.01733 8.60999 8.70368 8.48548 8.66876C8.36098 8.63872 8.32951 8.41868 8.28124 8.33765C8.23857 8.26012 8.25255 8.03659 8.1889 8.01982C8.12665 8.00585 7.84687 7.56019 7.84687 7.56019L7.66291 7.4638L7.47475 7.40302C7.47475 7.40302 7.44537 7.16552 7.30338 7.21512C7.16139 7.26052 7.03688 7.17949 7.03688 7.17949C7.03688 7.17949 7.00751 7.07192 6.89909 7.14736C6.78997 7.227 6.54306 7.08798 6.54306 7.08798C6.54306 7.08798 6.57384 6.9413 6.48081 6.96086C6.38569 6.97343 5.90586 7.17949 5.8548 7.19696C5.81423 7.21512 5.90515 6.94129 5.93453 6.84559C5.9674 6.75269 6.01427 6.68843 6.18494 6.61089C6.35281 6.53335 6.54235 6.40692 6.54235 6.40692C6.54235 6.40692 6.66547 6.19876 6.6186 6.13659C6.57314 6.07442 6.57314 5.92912 6.58853 5.86416C6.60042 5.80199 6.85153 5.61129 6.85153 5.61129C6.85153 5.61129 7.05718 5.48486 7.10264 5.39056C7.14881 5.29277 7.45797 4.86666 7.45797 4.86666L7.48734 4.45523L7.78602 4.20515C7.78602 4.20515 7.94129 3.92993 7.98675 3.91736C8.03362 3.89919 8.14134 3.77486 8.15953 3.52199C8.17492 3.26773 8.17492 3.15456 8.17492 3.15456C8.17492 3.15456 8.21828 3.01206 8.20079 2.91916C8.1875 2.82346 8.25116 2.26813 7.87975 2.40994C7.50623 2.55244 7.3999 2.53706 7.28729 2.53706C7.17817 2.53706 7.03619 2.44486 6.99352 2.47559C6.94526 2.50563 7.32018 2.25556 6.64729 2.44556C5.9807 2.63346 5.45399 2.53777 5.45399 2.53777C5.45399 2.53777 5.24975 2.38059 5.15672 2.44556C5.06439 2.50563 4.7993 2.68166 4.7993 2.68166C4.7993 2.68166 4.66081 2.83953 4.56988 2.88982C4.47615 2.93453 4.33136 2.8556 4.33136 2.8556C4.33136 2.7606 4.28938 2.56989 4.23972 2.40294C4.19285 2.23809 4.1481 2.0949 4.1481 2.0949C4.43838 1.79872 4.43137 2.02574 4.55237 1.90629C4.74962 1.70511 4.58876 1.64155 4.77412 1.46063C4.88463 1.34467 5.26164 1.26225 5.40643 1.11207C5.58199 0.936037 5.51696 0.702026 5.51696 0.702026L5.45539 0.257067L4.6461 0.0649649C4.6461 0.0649649 3.90188 0.1928 3.71303 0.318536C3.53047 0.447764 3.15626 0.130633 3.15626 0.130633L2.40712 0C2.34487 0.636361 2.03431 1.14559 2.03431 1.14559L1.66148 1.01636L1.78599 2.03063C1.78599 2.03063 1.04247 1.90629 1.04247 2.0949C1.04247 2.2849 0.729113 2.47559 0.852918 2.72846C0.976024 2.98273 0.917959 3.29706 0.917959 3.29706C0.917959 3.29706 1.28937 3.67637 1.35162 3.86986C1.41528 4.05777 0.794152 4.88063 0.794152 4.88063L0.295424 5.1363C0.295424 5.1363 -0.13894 5.64342 0.0457188 5.70699L0.247865 5.86416C0.247865 5.86416 0.387757 5.89839 0.434622 5.86416C0.479388 5.83622 0.605304 5.72375 0.605304 5.72375C0.605304 5.72375 0.729112 5.91097 0.747298 5.96126C0.759189 6.00806 0.589914 6.13659 0.589914 6.13659C0.589914 6.13659 0.354183 6.29376 0.434622 6.33917C0.513661 6.38736 0.667558 6.30912 0.729111 6.29306C0.794162 6.27559 0.947343 6.15266 0.994207 6.13589C1.04247 6.12053 1.14739 5.94449 1.14739 5.94449L1.22782 5.77195L1.30477 5.57846C1.30477 5.57846 1.3985 5.42269 1.44326 5.47089L1.70765 5.53026C1.80208 5.40523 1.94477 5.49883 1.94477 5.49883C1.94477 5.49883 1.95876 5.61129 1.87902 5.70699C1.80278 5.80199 1.35233 6.13659 1.38241 6.19876C1.41668 6.26023 1.41668 6.24625 1.38241 6.42228C1.35233 6.59412 1.13618 6.61089 1.04315 6.71916C0.948726 6.83092 0.918663 6.67166 0.94874 6.83093C0.977418 6.99089 0.777359 7.10265 0.901864 7.13339C1.02777 7.16482 1.18166 7.21512 1.22852 7.16482C1.27469 7.11453 1.43207 6.97343 1.47893 6.9413C1.5244 6.91196 1.68318 6.8435 1.72375 6.86376C1.91261 6.96085 2.06997 6.87843 2.11334 6.76946C2.1637 6.6563 2.28402 6.49983 2.31409 6.57666C2.34627 6.6563 2.64355 6.89589 2.64355 6.9413C2.64355 6.99089 2.50505 7.21512 2.51904 7.32339C2.53513 7.43306 2.36375 7.6538 2.43999 7.67405C2.51903 7.68593 2.76735 7.84729 2.78204 7.89199C2.79743 7.94019 2.9534 8.05335 2.87716 8.12949C2.79742 8.21122 2.70579 8.3174 2.70579 8.3174C2.70579 8.3174 2.9394 8.27269 2.9394 8.36769C2.9394 8.46548 2.8268 8.66666 2.73587 8.74978C2.64354 8.82662 2.48896 9.04666 2.48896 9.04666C2.48896 9.04666 2.42671 9.22129 2.39314 9.30093C2.36376 9.38195 2.0511 9.52446 2.07069 9.64879C2.08398 9.77732 2.11404 9.96592 2.19308 10.049C2.27073 10.1245 2.31409 10.2377 2.34626 10.3166C2.38124 10.399 2.99956 10.267 3.04502 10.3347C3.09539 10.399 3.3577 10.3508 3.43324 10.3508C3.51089 10.3508 3.60811 10.2041 3.60811 10.2041L3.76199 10.2551C3.76199 10.2551 3.97952 10.2866 4.02639 10.2998C4.07115 10.3173 4.27539 10.2684 4.27539 10.2684C4.44606 10.1573 4.52511 10.1434 4.5391 10.0959C4.55448 10.0497 4.36843 9.98549 4.66361 9.92192C4.95878 9.86045 5.23856 9.90725 5.23856 9.90725C5.23856 9.90725 5.33229 10.003 5.33229 10.0952C5.33229 10.1916 5.27003 10.3166 5.177 10.399C5.08467 10.4759 4.97275 10.4758 4.88112 10.6344C4.78949 10.7916 4.77622 10.9676 4.81749 11.0305C4.86715 11.0899 5.06719 11.0759 5.11475 11.1416C5.15952 11.2086 5.48547 11.4091 5.47358 11.4573C5.45679 11.5041 5.43862 11.7262 5.4568 11.7912C5.47359 11.8534 5.61208 11.8715 5.70301 11.9162C5.79464 11.9644 6.01566 11.9993 6.01566 11.9993C6.01566 11.9993 6.18704 12.0259 6.03176 12.2494C5.87438 12.4737 5.78133 12.5065 5.79462 12.568C5.81561 12.6315 5.845 12.7559 5.85619 12.8215C5.87437 12.8858 5.96881 12.8376 5.89326 13.1058C5.81562 13.3748 5.89326 13.3748 5.91914 13.5005C5.95411 13.6304 5.87437 13.9119 5.8282 13.9909C5.78064 14.0705 5.61207 14.1341 5.61207 14.1341C5.61207 14.1341 5.39383 13.9783 5.27003 14.0244C5.14412 14.0705 4.94339 14.0705 4.8021 14.0879C4.66361 14.1033 4.55517 14.0705 4.49222 14.1515C4.43067 14.2284 4.33345 14.2284 4.21314 14.2444C4.08794 14.264 4.21315 14.264 4.08795 14.264C3.96554 14.264 4.05857 14.199 3.90328 14.3723C3.7494 14.5455 3.71443 14.5623 3.69905 14.6244C3.68366 14.6915 3.63679 14.7851 3.60811 14.8605C3.57594 14.9416 3.6081 15.0051 3.68434 15.098C3.76198 15.1965 3.91728 15.3851 3.97953 15.4487C4.04528 15.5151 4.24181 15.5437 4.22992 15.6568C4.21313 15.7693 4.25931 16.0515 4.21314 16.099C4.16768 16.1479 3.99491 16.2289 3.91727 16.2716C3.84172 16.3212 3.69903 16.3847 3.71512 16.4951C3.72981 16.6076 3.82633 16.6851 3.69973 16.8255C3.57592 16.9722 3.28146 17.063 3.15835 17.144C3.03175 17.2222 2.9702 17.063 2.86318 17.1741C2.75266 17.2865 2.67782 17.3173 2.58269 17.4304C2.48966 17.5415 2.24064 17.5708 2.24064 17.5708C2.24064 17.5708 2.02381 18.115 2.0364 18.1751C2.05249 18.2344 2.36445 18.3476 2.40921 18.3657C2.45608 18.3783 2.68971 18.2861 2.73657 18.3029C2.78274 18.3182 2.98628 18.2568 3.03175 18.2568C3.07791 18.2568 3.34231 18.1758 3.34231 18.1758C3.34231 18.1758 3.76269 18.3993 3.84243 18.46C3.91797 18.5229 4.52581 18.7297 4.57338 18.7297C4.61814 18.7297 4.64892 18.5879 4.74474 18.6829C4.83567 18.7786 5.03992 18.9665 5.03992 18.9665C5.03992 18.9665 5.13295 18.9029 5.23927 18.935C5.34838 18.9665 5.65754 18.9029 5.65754 18.9029C5.65754 18.9029 6.01776 18.6829 6.03314 18.6354C6.04713 18.5872 6.25069 18.4943 6.29756 18.4747C6.34232 18.46 6.34232 18.4286 6.45074 18.4286C6.55985 18.4286 6.71723 18.2693 6.76339 18.2693C6.76339 18.2693 6.62141 18.8575 6.54517 18.9204C6.46753 18.9839 6.21711 18.9357 6.18773 19.0496C6.15486 19.1558 6.15487 19.2675 5.9842 19.3632C5.81703 19.4562 5.61277 19.5525 5.53653 19.5525C5.45749 19.5525 5.36166 19.3633 5.28542 19.4911C5.20987 19.6161 4.97276 19.6014 4.97276 19.6014C4.97276 19.6014 5.01962 19.4135 4.88112 19.4135C4.74333 19.4135 4.70975 19.2857 4.60064 19.3632C4.49222 19.445 4.32157 19.4135 4.24183 19.4743C4.16769 19.5358 3.62418 19.9647 3.62418 19.9647C3.62418 19.9647 3.51088 19.9828 3.41995 20.0778C3.32832 20.1715 3.26606 20.3 3.15765 20.4271C3.04503 20.5501 2.96949 20.6164 2.87716 20.7408C2.78203 20.8686 2.62674 20.7882 2.36375 21.0949C2.09795 21.3911 1.88043 21.5818 1.88043 21.6628C1.88043 21.7396 1.64052 21.7997 1.60065 21.8535C1.3999 22.1399 1.43206 22.17 1.46213 22.2796C1.49151 22.3921 1.72444 22.4249 1.80418 22.4375C1.88042 22.4535 1.97556 22.376 2.02242 22.376C2.07069 22.376 2.00493 22.4375 2.31409 22.0889C2.62676 21.7396 2.86177 21.5971 2.86177 21.5971C3.06531 21.6118 3.13947 21.5971 3.20382 21.6307C3.26537 21.6621 3.39058 21.5029 3.46612 21.5029C3.54586 21.5029 3.57593 21.3128 3.79487 21.5517C4.0124 21.7906 4.11802 21.6775 4.19566 21.7557C4.2754 21.8388 4.30617 21.8214 4.43068 21.8703C4.55448 21.915 4.97276 21.6446 4.97276 21.6446L5.15952 21.3443L5.34768 20.9985C5.34768 20.9985 5.4393 20.8993 5.53583 20.8867C5.62746 20.8693 5.99889 20.8539 6.07793 20.8693C6.15417 20.8867 6.40317 20.8867 6.4962 20.9C6.59133 20.9175 7.16349 20.8372 7.24323 20.8372C7.32227 20.8372 7.76992 20.7414 7.76992 20.7414L8.06509 20.4718C8.06509 20.4718 8.54913 20.5507 8.56591 20.6164C8.5778 20.6772 8.84569 20.8176 8.84569 20.8176L9.65078 20.7408C9.65078 20.7408 9.7753 20.5501 9.93058 20.5207C10.0866 20.4914 11.254 20.7289 11.2987 20.7289C11.3456 20.7289 11.7653 20.6988 11.8765 20.6632C11.9835 20.6332 12.2451 20.4425 12.3095 20.4571C12.3717 20.4718 13.5685 20.045 13.5685 20.045L14.0784 19.6329L14.1917 19.3472C14.1917 19.3472 13.9868 19.0971 13.9112 19.1272C13.8315 19.1565 13.6161 19.0622 13.3831 19.1439C13.1509 19.2207 12.9649 19.1907 12.776 19.0503C12.5872 18.9064 12.4927 18.8603 12.7124 18.7499Z" fill="white" fill-opacity="0.18"/>
</svg>
