<svg width="5" height="2" viewBox="0 0 5 2" fill="none" xmlns="http://www.w3.org/2000/svg">
<path d="M4.29741 0.302248C4.06169 0.342762 3.98895 0.302245 3.75253 0.422393C3.51751 0.538349 3.59793 0.459404 3.32164 0.499221C3.04815 0.538338 2.81735 0.459417 2.7397 0.302248C2.66136 0.145078 2.81735 -0.00999405 2.38997 0.0284251C1.9563 0.0696383 2.07311 -0.0526044 1.80172 0.0284251C1.52893 0.108057 1.29741 -0.052611 1.14003 0.0696317C0.984753 0.183492 0.672771 0.263834 0.672771 0.263834C0.672771 0.263834 0.361514 0.693417 0.0495527 0.539042C-0.185468 0.423086 0.47692 0.775153 0.75111 0.931623C1.0225 1.0867 1.49254 1.08669 1.60726 1.1258C1.72407 1.16702 1.99687 1.28298 2.27176 1.20754C2.54525 1.12581 3.36224 1.01195 3.36224 1.01195C3.90782 1.01195 4.25334 0.948394 4.29741 0.814974C4.45549 0.342768 4.53173 0.263828 4.29741 0.302248Z" fill="white" fill-opacity="0.18"/>
</svg>
