<svg width="2" height="4" viewBox="0 0 2 4" fill="none" xmlns="http://www.w3.org/2000/svg">
<path d="M0.907307 2.8771C1.27872 3.24383 1.15422 3.40658 1.40323 2.99585C1.65364 2.5907 1.44519 2.42725 1.48996 1.89637C1.52983 1.36549 1.27872 1.36548 1.36546 1.03857C1.4452 0.710258 1.23886 0.50629 1.11435 0.344929C0.987749 0.179378 0.987742 0.056442 0.739431 0.0145303C0.49182 -0.0245874 -0.0040971 0.0145301 0.120408 0.140964C0.295274 0.314199 -0.173369 0.506294 0.0735427 0.792691C0.324651 1.08118 0.120408 1.24254 0.245613 1.56946C0.368719 1.89637 0.368715 2.01721 0.700262 2.26309C1.02971 2.50758 0.534492 2.50758 0.907307 2.8771Z" fill="white" fill-opacity="0.18"/>
</svg>
