<svg width="3" height="4" viewBox="0 0 3 4" fill="none" xmlns="http://www.w3.org/2000/svg">
<path d="M1.83655 2.93627C2.1611 2.61494 2.3059 2.37605 2.3059 2.37605L2.39475 2.08127L2.04288 1.8759C2.04288 1.8759 1.81205 1.78509 1.68964 1.90593C1.57563 2.02329 1.39797 1.93458 1.39797 1.93458C1.16435 1.72991 1.10769 1.61186 1.01746 1.61186C0.695704 1.61186 0.227074 1.43443 0.373961 1.34712C0.541134 1.24373 0.426414 1.11102 0.52364 1.0223C0.874072 0.698884 0.936318 0.671628 0.962898 0.580819C1.01816 0.345414 0.901358 0.0513419 0.696414 0.0220037C0.491471 -0.00733456 0.0249323 -0.00733456 0.142443 0.0220037C0.257855 0.0513419 0.227784 0.140043 0.227784 0.34541C0.227784 0.551477 0.142454 0.551479 0.0836984 0.758244C0.0249433 0.962913 -0.0351999 0.72681 0.0249542 0.962913C0.0837093 1.19762 0.0837049 1.19762 0.16904 1.37924C0.257172 1.55038 0.169023 1.31777 0.257156 1.55038C0.345988 1.78439 0.37397 1.78438 0.435523 2.04982C0.490781 2.31596 0.460695 2.61354 0.373961 2.87758C0.287927 3.13953 0.490782 2.7281 0.287937 3.13953C0.083693 3.55236 0.0529219 3.46436 0.0836984 3.7284C0.111677 3.99454 -0.0611064 3.96519 0.111662 3.99453C0.287927 4.02317 0.227772 3.93517 0.346681 3.81921C0.461394 3.70116 0.405442 3.63968 0.579609 3.61035C0.758672 3.57961 0.78177 3.55237 0.901379 3.52303C0.901379 3.52303 1.15526 3.87159 1.22311 3.75982C1.42805 3.43571 1.13497 3.49648 1.39797 3.25967C1.66237 3.02148 1.73443 3.03965 1.83655 2.93627Z" fill="white" fill-opacity="0.18"/>
</svg>
