<svg width="5" height="4" viewBox="0 0 5 4" fill="none" xmlns="http://www.w3.org/2000/svg">
<path d="M0.584753 2.82416C0.685476 2.81088 0.626708 2.94219 0.685463 2.9876C0.745617 3.02951 0.818363 3.07422 0.905797 3.1336C0.99253 3.19018 1.27094 3.22162 1.27094 3.22162C1.27094 3.22162 1.4444 3.15176 1.50246 3.04279C1.56261 2.9422 1.57729 3.01555 1.63604 2.92684C1.6962 2.83743 1.89626 2.67815 1.94313 2.61738C1.98579 2.5587 2.03264 2.44135 2.04593 2.39874C2.06132 2.35474 2.2222 2.19129 2.32432 2.01456C2.42365 1.83644 2.36839 1.92793 2.44113 1.87135C2.51178 1.80778 2.62929 1.72047 2.80696 1.67926C2.98462 1.63176 2.92589 1.80779 3.01192 1.83643C3.09796 1.87136 3.08185 1.92794 3.142 1.94121C3.20076 1.95588 3.41967 1.95587 3.41967 1.95587C3.41967 1.95587 3.903 1.85529 3.96246 1.82386C4.02121 1.79242 4.16602 1.69184 4.16602 1.69184C4.16602 1.69184 4.3101 1.4725 4.37025 1.39706C4.42901 1.32511 4.50456 0.604925 4.50456 0.604925C4.50456 0.604925 4.37027 0.425398 4.35488 0.38139C4.34369 0.336684 4.02125 0.265445 4.02125 0.265445L3.74285 0L3.50783 0.0901088L3.21543 0.132019H2.98464L2.77618 0.204669L2.70552 0.320614L2.41176 0.530186L2.22361 0.588852C2.22361 0.588852 2.09 0.718781 2.03474 0.748818C1.97319 0.778854 1.76827 0.793523 1.7242 0.778854C1.68154 0.76628 1.40245 0.77886 1.35978 0.719485C1.31572 0.661507 1.14222 0.778847 0.96595 0.898295C0.920484 0.929729 0.894611 1.06246 0.894611 1.06246C0.894611 1.06246 0.747022 1.26502 0.761711 1.3258C0.775001 1.38307 0.73093 1.53117 0.73093 1.53117C0.73093 1.53117 0.381903 1.72187 0.291672 1.76587C0.205638 1.80918 0 1.97333 0 1.97333C0 1.97333 0.393787 2.00128 0.46863 2.00128C0.46863 2.00128 0.45254 2.11864 0.483316 2.16545C0.511295 2.21015 0.483344 2.29887 0.511322 2.37012C0.538601 2.44486 0.381898 2.69422 0.408477 2.75359C0.433658 2.81157 0.481232 2.83813 0.584753 2.82416Z" fill="white" fill-opacity="0.18"/>
</svg>
