<svg width="2" height="3" viewBox="0 0 2 3" fill="none" xmlns="http://www.w3.org/2000/svg">
<path d="M0.80172 1.41157C0.887755 1.43952 1.15144 1.47097 1.2102 1.6463C1.27035 1.82163 1.27035 2.32596 1.41444 2.17508C1.56062 2.02978 1.56063 1.85446 1.64736 1.76365C1.7362 1.67634 1.8516 1.52964 1.8516 1.44022C1.8516 1.35151 1.70542 1.14685 1.62008 1.17619C1.53125 1.20553 1.32841 1.02878 1.18083 0.939371C1.03464 0.850658 1.00456 0.764745 0.887745 0.70537C0.771634 0.646693 0.740174 0.588016 0.624762 0.473457C0.507951 0.352612 0.479936 -0.118198 0.185461 0.0277952C-0.0523572 0.147942 0.244232 0.587317 0.332364 0.795479C0.418399 0.998751 0.534532 1.17618 0.389742 1.43952C0.243554 1.70776 -0.164263 1.91242 0.0721566 2.02908C0.302281 2.14503 0.479955 2.20582 0.598165 2.14504C0.712877 2.08986 0.826202 1.94107 0.80172 1.76295C0.771643 1.58692 0.712888 1.38224 0.80172 1.41157Z" fill="white" fill-opacity="0.18"/>
</svg>
