<svg width="4" height="3" viewBox="0 0 4 3" fill="none" xmlns="http://www.w3.org/2000/svg">
<path d="M0.27627 1.67053C0.120289 1.7341 0.306343 1.82421 0.429449 1.91642C0.556052 2.01351 0.556053 2.0708 0.709936 2.03727C0.865916 2.01352 0.898792 2.16091 0.990422 1.94995C1.08345 1.73341 1.05199 1.67054 1.14571 1.57834C1.14571 1.57834 1.39471 1.97859 1.48774 1.82352C1.57937 1.66984 1.48774 1.82351 1.92211 1.88289C2.35998 1.94925 2.29774 2.13157 2.54535 2.09874C2.79646 2.0701 2.82513 1.94926 3.01189 1.91573C3.19725 1.8829 3.1056 1.30521 3.07623 1.05863C3.04195 0.812745 2.94964 0.81274 2.79576 0.71774C2.64048 0.629725 2.45371 0.717746 2.3264 0.385945C2.2019 0.0471578 2.8573 -0.106527 1.17509 0.080679C-0.504332 0.262995 0.119597 0.717744 0.0874218 0.874914C0.0545469 1.02999 0.30566 1.15083 0.428766 1.33314C0.556768 1.51755 0.430153 1.61186 0.27627 1.67053Z" fill="white" fill-opacity="0.18"/>
</svg>
