<svg width="12" height="10" viewBox="0 0 12 10" fill="none" xmlns="http://www.w3.org/2000/svg">
<path d="M11.4601 5.85766C11.6161 5.58104 11.6455 5.79968 11.7406 5.21362C11.7595 5.09277 11.6161 5.0313 11.4902 4.87972C11.365 4.72605 11.3062 4.81615 11.151 4.69251C10.9943 4.57167 11.151 4.41799 11.4279 4.23358C11.5867 4.1288 11.5867 4.02053 11.5867 3.77605C11.5867 3.53016 11.4601 3.59023 11.3985 3.46869C11.3356 3.34645 11.1188 3.40583 10.9334 3.37579C10.7439 3.34645 10.7439 3.43726 10.5256 3.46869C10.3102 3.50152 10.3102 3.74252 10.3102 4.02053C10.3102 4.15884 10.4676 4.14347 10.6522 4.14347C10.8397 4.14347 10.7767 4.32578 10.8397 4.45152C10.9026 4.57097 10.8096 4.57097 10.4018 4.75469C10.2242 4.83711 10.2186 4.69252 10.1843 4.418C10.1549 4.14418 10.1255 4.29715 9.908 3.89689C9.75412 3.77605 9.908 3.89689 9.44075 3.62307C9.35052 3.51829 9.34842 3.53295 9.33653 3.56928C9.27568 3.54064 9.26938 3.54693 9.31764 3.58325C9.30435 3.6091 9.30156 3.64123 9.22322 3.65101C9.00289 3.68384 8.97421 3.71248 8.63147 3.89689C8.45451 3.9891 8.25376 4.20215 8.13345 4.082C8.00825 3.95697 8.13345 4.082 8.32021 3.83822C8.50557 3.59024 8.5979 3.71248 8.5979 3.53016C8.5979 3.34645 8.75597 3.34645 8.81892 3.19347C8.87978 3.0391 9.06514 3.01116 9.28197 2.88542C9.49951 2.76458 9.53308 2.82744 9.908 2.57807C10.0136 2.51241 9.84155 2.39505 10.0633 2.08979C10.1983 1.89979 10.2815 2.14986 10.3731 2.02902C10.469 1.90817 10.527 1.84461 10.5613 1.69233C10.5928 1.54075 10.5928 1.29417 10.4976 1.17123C10.4025 1.04898 10.2193 0.989613 9.84224 0.801709C9.75761 0.759797 9.59394 0.863173 9.49951 0.833834C9.40858 0.801702 9.13159 0.7116 9.13159 0.7116C9.254 0.622887 9.254 0.651521 9.34563 0.498543C9.44075 0.344867 9.3785 0.344871 9.28197 0.0053856C9.28197 0.0053856 9.00359 0.0361209 8.78955 0.0053856C8.57132 -0.0225556 8.50556 0.0689456 8.41323 0.0361147C8.3202 0.00537938 8.16353 0.131116 8.00825 0.189792C7.85366 0.249866 7.66621 0.344173 7.66621 0.344173C7.66621 0.344173 7.38642 0.405642 7.23044 0.462922C7.07516 0.524392 7.04298 0.462916 6.8884 0.376298C6.73242 0.279901 6.63729 0.462915 6.42535 0.650121C6.20362 0.832437 6.45403 0.861778 6.73242 0.926043C7.0094 0.987513 6.8884 1.10837 6.98353 1.29278C7.07516 1.4744 6.91778 1.44435 6.79327 1.41641C6.67017 1.38567 6.48341 1.50653 6.2323 1.26274C5.98469 1.01616 6.01826 1.16983 5.77065 0.954683C5.51814 0.740933 5.5797 0.740935 5.1796 0.620788C4.77391 0.497148 5.1796 0.620788 4.83617 0.620788C4.49413 0.620788 4.80189 0.895314 4.80189 0.895314C4.80189 0.895314 4.64452 1.04689 4.52351 1.10836C4.4011 1.16983 4.24302 1.19847 3.93315 1.01686C3.62119 0.832443 3.80935 0.955386 3.49809 0.955386C3.18683 0.955386 3.27845 1.04759 3.18682 1.08042C3.0896 1.10906 3.12387 1.35354 3.12387 1.35354C3.12387 1.35354 3.12388 1.57079 2.93572 1.69164C2.75036 1.81248 2.93572 1.69164 2.71749 1.663C2.50205 1.63296 2.37544 1.78384 2.22086 1.84461C2.06138 1.90818 2.09566 2.11914 1.97116 2.27421C1.84805 2.42719 2.12784 2.33568 2.25304 2.33568C2.37545 2.33568 2.34606 2.64163 2.47057 2.82744C2.59367 3.01115 2.71818 3.132 2.71818 3.132C2.71818 3.132 2.99797 3.16483 3.55894 3.31432C3.65406 3.34017 3.7457 3.34645 3.83733 3.31432C3.93386 3.28149 4.11781 3.34645 4.24372 3.37579C4.36752 3.40652 4.45985 3.65101 4.55288 3.68384C4.64451 3.71248 4.71097 3.9891 4.2731 3.89689C3.83733 3.80678 4.21084 4.05057 4.36752 4.418C4.5242 4.78752 4.21085 4.54094 3.99261 4.57168C3.77438 4.60521 3.83663 4.66388 3.46662 4.84479C3.34001 4.90766 3.18683 5.00057 3.06372 5.00057C2.93642 5.00057 2.77974 4.937 2.68881 4.81615C2.59368 4.69251 2.53003 4.54094 1.81588 3.86825C1.10172 3.19347 1.53678 3.53016 1.28917 3.53016C1.03807 3.53016 0.945039 3.65101 0.449817 3.83822C0.449817 3.83822 0.198712 4.14348 0.0749061 4.17561C-0.0502983 4.20145 0.0119546 4.51229 0.0448295 4.63244C0.0749066 4.75399 0.136452 4.8441 0.292433 4.99987C0.450512 5.15354 0.450517 5.24435 0.700227 5.42876C0.945739 5.61387 0.915664 5.61388 1.28988 5.79829C1.3892 5.84789 1.44516 5.94777 1.47313 6.10355C1.50601 6.25513 1.66199 6.25513 1.78649 6.28866C1.9089 6.31869 2.00473 6.37737 2.12853 6.31869C2.25374 6.25513 2.50275 6.28865 2.78044 6.25512C3.06442 6.22579 2.87487 6.37737 2.9693 6.56318C3.06442 6.74759 3.24978 6.59182 3.24978 6.59182C3.24978 6.59182 3.62189 6.65748 3.77508 6.71755C3.93386 6.77763 4.05836 6.96135 4.11782 7.05565C4.18217 7.14506 4.45985 7.35951 4.55288 7.54182C4.64451 7.72414 4.86624 7.54181 4.95787 7.63402C5.053 7.72413 5.42792 8.06362 5.55102 8.1244C5.67553 8.18587 6.04765 8.52326 6.04765 8.52326C6.04765 8.52326 6.42535 8.79708 6.42535 9.01502C6.42535 9.22807 6.57504 9.28884 6.63729 9.41038C6.70164 9.53612 6.79397 9.53613 6.98422 9.62693C7.16958 9.71844 7.2934 9.71843 7.5445 9.5941C7.79142 9.47325 7.82079 9.71774 7.82079 9.71774C7.82079 9.71774 8.03903 9.53542 8.44751 9.22737C8.56852 9.13377 8.5986 8.98219 8.53914 8.82712C8.53914 8.82712 8.32091 8.55399 8.16423 8.2159C8.00895 7.87921 8.38526 7.99936 8.38526 7.99936C8.38526 7.99936 8.47689 8.12369 8.47689 8.3102C8.47689 8.48902 8.63287 8.58472 8.84831 8.82641C9.06654 9.07229 8.84831 8.82642 9.16167 8.67693C9.47503 8.52186 9.5002 8.61546 9.69326 8.58473C9.87512 8.55329 10.22 8.55329 10.3445 8.43034C10.4697 8.3102 10.4983 8.2152 10.6207 8.06222C10.7459 7.90925 10.6208 8.06223 11.0292 7.94068C11.4307 7.81914 11.3097 7.8785 11.3685 7.66545C11.4307 7.44751 11.4307 7.29873 11.4937 7.02141C11.5559 6.74619 11.4937 6.68473 11.4014 6.56179C11.3097 6.43745 11.2125 6.25372 11.3097 6.13288C11.3979 6.01483 11.3062 6.13498 11.4601 5.85766Z" fill="white" fill-opacity="0.18"/>
</svg>
