<svg width="86" height="135" viewBox="0 0 86 135" fill="none" xmlns="http://www.w3.org/2000/svg">
<path d="M85.4896 35.1158C85.433 34.9041 85.4504 34.712 85.4246 34.5444C85.4672 34.6289 85.4938 34.6576 85.4071 34.4829C85.3945 34.4152 85.3679 34.3565 85.3224 34.295C85.3196 34.2943 85.3161 34.2943 85.3161 34.2943C85.2679 34.1916 85.2007 34.0575 85.1161 33.8864C84.3726 32.4167 84.4964 32.1701 84.169 32.2127C83.8333 32.2553 83.5052 32.2909 83.2164 32.2553C82.9289 32.2127 83.0058 32.0499 82.7183 32.0499C82.4288 32.0499 81.8524 32.0499 81.8524 32.0499C81.8524 32.0499 81.7705 32.2127 81.439 31.9291C81.1075 31.6413 80.9445 31.517 80.8613 31.2299C80.7745 30.9456 80.6941 30.4552 80.4052 30.2903C80.1135 30.1269 79.7848 30.0466 79.6603 30.0046C79.5379 29.9627 79.414 29.7168 79.121 29.5925C78.8335 29.4738 78.5054 29.0225 78.3802 28.9841C78.2564 28.9436 77.9669 28.6942 77.7598 28.5748C77.5535 28.4518 77.0988 28.2031 76.9764 28.1214C76.8526 28.039 76.1895 28.2024 76.107 28.039C76.0251 27.8769 75.8999 27.8769 75.6523 27.7959C75.4054 27.7135 75.1592 27.55 74.785 27.675C74.4143 27.7959 74.3716 27.6338 73.9974 27.8769C73.6274 28.1207 73.6274 27.9195 73.2574 28.039C72.8824 28.164 72.9685 27.9593 72.5943 27.9202C72.2242 27.8776 72.0983 27.4271 71.6856 27.5095C71.2751 27.5905 71.2324 27.469 71.0666 27.4271C70.9016 27.3879 70.9848 27.1002 70.528 26.9786C70.0748 26.8557 70.2 26.5707 69.8265 26.8557C69.4544 27.1421 69.9111 26.8557 69.4543 27.1421C68.9997 27.4271 68.5464 27.4683 68.5464 27.4683C68.1331 27.4264 68.4213 27.1421 68.1331 27.4264C67.8442 27.7128 68.2569 27.8378 67.8442 27.8762C67.4322 27.9188 67.3462 27.7533 67.5945 27.3447C67.8442 26.9374 67.8645 26.9402 67.8442 26.7719C67.7602 26.0768 67.6763 26.1578 67.3902 25.8721C67.1 25.5865 66.9762 25.7087 66.7698 25.629C66.5663 25.5459 66.1927 25.5459 66.0668 25.3839C65.943 25.2162 65.7794 25.2987 65.6535 25.1373C65.529 24.9745 65.2009 24.8914 64.9904 24.9745C64.7875 25.0542 64.456 24.7273 64.2895 24.7706C64.1251 24.8097 63.9601 24.3982 63.7516 24.4828C63.5488 24.5624 63.5488 24.116 63.2991 24.1964C63.0521 24.2795 63.1347 23.829 62.885 23.8702C62.6381 23.9079 62.5954 23.7863 62.3926 23.991C62.1813 24.1964 62.2653 23.8702 62.0582 23.9505C61.8512 24.0336 61.6042 23.7458 61.3951 23.991C61.1909 24.239 61.1909 23.9072 60.9845 24.32C60.7782 24.7272 60.7523 24.7873 60.49 25.1373C60.1165 25.6291 60.1165 25.4244 59.7031 25.7876C59.2932 26.1571 59.4562 25.8337 59.2932 26.1571C59.126 26.4861 59.1638 26.3227 58.919 26.5274C58.6735 26.7327 58.7127 26.4463 58.6735 26.7327C58.6266 27.0177 58.6266 27.0177 58.6266 27.0177C58.6266 27.0177 58.7127 26.1991 58.3405 26.3234C57.967 26.4463 57.511 26.5274 57.511 26.5274C57.511 26.5274 57.099 26.1166 56.936 26.1166C56.7709 26.1166 56.7675 26.0482 56.5226 25.8337C56.1093 25.4621 57.1836 25.9127 57.39 25.8714C57.5963 25.8337 57.3487 25.8714 57.9237 25.8337C58.5063 25.7876 58.6266 25.8337 58.919 25.7876C59.2072 25.7492 59.8661 25.3839 59.8661 25.3839C59.8661 25.3839 59.9899 25.263 60.0332 25.0137C60.0724 24.7699 60.0724 24.7272 60.1557 24.4821C60.2403 24.2383 60.2403 23.9903 60.2802 23.7856C60.3228 23.5838 60.5285 23.2953 60.1557 23.2953C59.787 23.2953 59.2932 23.3784 59.0869 23.3379C58.8763 23.2953 58.7973 23.1737 58.5056 23.2953C58.2167 23.4182 58.2167 23.2953 57.6362 23.1737C57.0584 23.0501 57.3893 22.6834 56.8934 23.0906C56.3967 23.4992 56.1498 23.5418 56.1498 23.7025C56.1498 23.8688 56.3184 23.6627 56.3562 24.1531C56.396 24.6455 56.396 25.0542 56.2317 25.0137C56.068 24.9745 55.8616 24.7272 55.9008 24.6455C55.9421 24.561 55.6707 24.3906 55.6112 24.2383C55.3657 23.5838 55.1552 23.6264 55.3224 23.3784C55.4909 23.129 55.444 23.1737 55.6553 22.8852C55.8616 22.5995 55.4448 22.7232 56.0253 22.4787C56.6052 22.2328 56.6052 22.2733 56.8934 22.0707C57.1829 21.8626 57.3067 21.8626 57.4326 21.6209C57.5529 21.375 57.348 21.2912 57.5529 21.0034C57.76 20.717 57.8852 21.5776 57.7166 20.5556C57.7166 20.5556 57.6355 20.0632 57.6781 19.9423C57.7166 19.8222 57.5956 19.5749 57.4718 19.5323C57.348 19.4918 56.9752 19.1676 56.8521 19.1676C56.7297 19.1676 56.4814 18.8387 56.3177 18.8806C56.1491 18.9197 56.1918 18.5509 56.1491 18.3895C56.1078 18.2267 56.1918 17.9802 56.1918 17.7755C56.1918 17.5722 56.3177 17.3647 56.0246 17.0791C55.735 16.7941 55.9001 16.5887 55.735 16.3044C55.5679 16.0145 55.9001 16.1395 55.5679 15.6052C55.2412 15.0778 54.8271 15.1588 54.8271 15.1588C54.8271 15.1588 54.7551 15.0449 54.6536 14.9052C54.4984 14.6936 54.2878 14.4142 54.164 14.3436C53.9612 14.2179 53.2995 13.606 53.0498 13.5207C52.8036 13.4397 52.5972 13.3147 52.3042 13.1952C52.016 13.0744 51.9768 12.7482 51.6068 12.8264C51.2326 12.9067 51.4816 12.4981 51.1465 12.4981C50.8199 12.4981 50.9828 12.2578 50.7373 12.2969C50.4911 12.3353 50.5702 12.0098 50.3212 12.0496C50.2918 12.0559 50.2554 12.0559 50.2156 12.0559C49.9798 12.0412 49.6749 11.903 49.4972 12.0105C49.2909 12.1314 49.3335 12.0105 49.0027 12.1314C48.6704 12.2578 48.5026 11.8072 48.2577 11.9658C48.0129 12.1314 48.3403 11.8876 47.8024 11.8876C47.2638 11.8876 47.1827 11.7646 46.8966 11.8876C46.6035 12.0105 46.686 12.2117 46.5231 12.2578C46.3594 12.2976 46.4832 11.8492 45.9852 12.0916C45.4893 12.336 45.5718 12.1747 45.3221 12.2976C45.1906 12.3654 45.1367 12.3158 45.0829 12.2445C45.0367 12.1831 44.9954 12.0985 44.9087 12.0503C44.4163 11.7653 44.3743 11.6033 44.1694 11.3155C43.9616 11.0284 43.0523 10.4577 43.0131 10.4954C42.967 10.5415 42.967 10.332 42.6781 10.3781C42.3906 10.4158 41.9828 10.603 41.9374 10.3327C41.8506 9.84159 41.894 10.0085 41.8506 9.67883C41.8108 9.35401 41.6044 9.27158 41.4841 9.06691C41.3603 8.86294 41.4379 8.65968 41.1106 8.58004C40.779 8.49482 40.6972 8.45222 40.5713 8.24685C40.4468 8.04638 40.2433 7.96185 39.9935 7.88152C39.8229 7.82493 39.6732 7.71247 39.541 7.64611C39.4822 7.61677 39.4242 7.59652 39.3724 7.59652C39.2073 7.59652 39.2927 7.35063 39.043 7.22419C38.794 7.10335 38.7121 6.81694 38.3428 6.81694C37.9707 6.81694 37.742 6.68352 37.516 6.81694C36.8138 7.22419 36.5641 7.2668 36.69 7.02161C36.8138 6.77643 36.7739 6.77644 37.0166 6.49004C37.2663 6.20504 37.4734 5.83412 37.4734 5.83412C37.0166 5.38567 37.1027 5.1817 36.853 5.1817C36.6067 5.1817 36.6067 5.01825 36.2752 5.13909C35.9443 5.26552 35.9045 5.1817 35.8226 4.97354C35.738 4.77795 35.9045 4.57048 35.7793 4.52717C35.6555 4.48945 35.4092 4.73185 35.1595 4.8953C34.9112 5.06086 34.6224 5.01825 34.579 4.8953C34.5405 4.77795 34.5405 4.36442 34.5405 4.36442C34.5405 4.36442 33.9201 4.73114 33.8348 4.44894C33.755 4.16045 33.755 4.03681 33.8809 3.87405C34.0047 3.7099 33.1751 4.16044 34.0047 3.70988C34.3468 3.52268 34.5601 3.3732 34.7077 3.27401C34.295 3.24048 33.7186 3.16504 33.6704 3.26004C33.5878 3.4242 33.0108 3.4668 32.8044 3.42419C32.5981 3.38507 32.6785 3.26003 32.184 3.38507C31.6895 3.50662 31.814 3.01486 31.1901 3.62677C30.5738 4.24287 30.5738 4.24286 30.5738 4.24286C30.5738 4.24286 29.8296 4.08221 29.5806 4.16045C29.3344 4.24288 29.2099 4.03679 28.7573 3.95646C28.3013 3.87404 28.5901 3.70988 28.2187 3.58624C27.8459 3.4668 28.0544 3.09659 27.6801 3.26004C27.3066 3.4242 27.3934 3.42419 26.9366 3.42419C26.4834 3.42419 27.2668 3.09658 26.233 3.42419C25.2005 3.7525 25.4502 4.0829 24.9124 3.7525C24.3752 3.42419 24.7053 3.4668 24.3752 3.42419C24.2821 3.41162 24.2423 3.43328 24.2234 3.46122C24.2157 3.45214 24.2136 3.43606 24.2115 3.42419C24.0849 3.09658 23.754 2.73124 23.754 2.73124C23.754 2.73124 23.8786 2.19827 23.5078 2.19827C23.1378 2.19827 22.5943 2.03483 22.3076 2.03483C22.018 2.03483 21.8942 1.82875 21.6913 1.78963C21.4815 1.74912 21.6445 1.54305 21.4815 1.29856C21.3164 1.05268 21.6445 0.644056 21.2353 0.602144C20.8219 0.559534 20.7806 0.152986 20.491 0.559531C20.2015 0.968869 19.9532 1.29786 19.9147 1.54235C19.8713 1.78893 20.3672 1.62338 19.8713 1.9936C19.3754 2.36033 19.0879 2.23949 18.6311 2.44067C18.1779 2.64673 18.0975 2.68724 18.0114 2.93103C17.9282 3.1811 17.9282 3.1811 17.9716 3.50522C18.0114 3.83422 18.7144 3.87334 18.7144 4.36371C18.7144 4.85478 18.8774 4.52647 18.8382 5.2215C18.7955 5.91654 19.2516 5.79571 18.7955 6.16243C18.343 6.53056 18.2213 6.28537 17.9723 6.20434C17.7226 6.12122 17.2714 5.42897 17.2287 5.13768C17.1896 4.85408 16.7342 5.05945 17.3546 4.28268C17.9723 3.50522 17.5603 2.2772 17.5176 2.15636C17.4777 2.0397 17.2057 2.10677 17.2287 1.81408C17.2287 1.8036 17.2252 1.79872 17.2287 1.78825C17.2714 1.46133 17.1854 1.381 17.5176 1.381C17.8485 1.381 18.2185 1.46132 18.3856 1.29786C18.55 1.13021 18.9242 0.847316 18.7962 0.681765C18.6759 0.51761 18.9242 0.847316 18.9242 0.847316C18.9242 0.847316 19.0886 0.925555 19.2131 0.889929C19.3383 0.847319 19.2523 0.764195 19.2131 0.558827C19.1732 0.356952 19.2523 0.069853 18.8788 0.0314338C18.5087 -0.0104779 18.5122 -0.0104779 18.0555 0.0314338C17.5994 0.0740441 17.5183 0.0705459 17.1476 0.274517C16.7727 0.480583 16.5279 0.723676 16.4411 0.925551C16.3593 1.13022 16.4027 1.21404 15.9459 1.46132C15.4941 1.70511 15.6186 1.62268 15.2443 1.90978C14.8736 2.19687 15.2877 2.15637 14.8736 2.19688C14.4609 2.23879 14.9981 2.31912 14.461 2.23879C13.9238 2.15636 14.0042 1.86856 13.6342 2.03342C13.2635 2.19687 14.0042 1.381 13.2635 2.19688C12.5185 3.01346 13.1012 2.64603 12.4374 2.68654C11.7743 2.72915 11.568 2.68654 11.3217 2.85209C11.0713 3.01345 10.9902 3.30055 10.744 3.54504C10.4957 3.78882 10.6985 3.42209 10.6202 4.0347C10.5342 4.64941 10.6579 5.26341 10.4131 5.5072C10.1634 5.75378 10.2068 5.7538 9.95709 5.7538C9.70668 5.7538 9.6696 5.4667 9.37932 5.91515C9.09044 6.36501 8.92327 6.81556 8.67426 6.97902C8.42875 7.14108 8.47071 7.02023 8.26367 7.34924C8.05733 7.67475 8.17905 7.63423 8.05734 7.88011C8.02237 7.94647 7.98319 7.96114 7.93563 7.95346C7.81532 8.40611 7.47957 8.78123 6.913 8.74351C7.05429 9.14795 6.69618 9.41827 6.37233 9.6411C6.56538 9.81643 6.71365 9.94566 6.71365 9.94566C6.71365 9.94566 6.66959 9.98617 6.66959 10.1259C6.66959 10.2691 6.71365 10.1895 6.79479 10.4144C6.88012 10.6393 7.12634 10.6784 7.10606 10.8244C7.08367 10.9648 7.31241 10.9865 7.20749 11.2324C7.10607 11.4789 7.1683 11.6193 7.1683 11.7646C7.1683 11.9078 7.25014 12.3353 7.25014 12.4981C7.25014 12.6651 7.02282 12.8264 7.04311 13.0744C7.06409 13.3147 7.12564 13.1743 7.22986 13.4397C7.33338 13.7059 7.47608 13.8274 7.45649 14.009C7.43621 14.1976 7.47538 14.3806 7.43621 14.6042C7.39495 14.8312 7.43621 14.9974 7.37465 15.2182C7.3117 15.4452 7.4362 15.9565 7.51874 16.0599C7.60197 16.1605 7.74676 15.9544 7.55791 16.2848C7.37395 16.6089 7.27042 16.6306 7.14452 16.7934C7.02211 16.9554 7.04241 16.9785 6.9193 17.1831C6.79409 17.3864 6.79411 17.3648 6.71297 17.5527C6.62973 17.7329 6.6507 17.7545 6.46324 17.8607C6.27858 17.9585 6.42409 17.7545 6.2786 17.9585C6.13381 18.1639 6.44787 17.9585 6.13381 18.1639C5.82325 18.3685 5.65885 18.2267 5.51337 18.3036C5.37067 18.3888 5.41055 18.3252 5.24547 18.3888C5.0811 18.4461 4.75027 18.5725 4.75027 18.8163C4.75027 19.0622 4.6887 19.2871 4.64954 19.4708C4.60617 19.658 4.62505 19.5959 4.52502 19.6147C4.4187 19.6364 4.47887 19.8376 4.439 19.899C4.40612 19.9493 4.33688 20.0632 4.29771 20.1882C4.28652 20.221 4.27671 20.2546 4.27461 20.2909C4.25433 20.4522 4.41801 20.5989 4.39842 20.717C4.38023 20.8413 4.21027 20.8413 4.06758 20.8413C3.92349 20.8413 3.79759 20.7631 3.6549 20.8211C3.51011 20.8825 3.15827 21.0516 3.09672 21.1089C3.03517 21.1676 3.03516 21.2102 2.92954 21.2716C2.82812 21.3317 2.51686 21.2716 2.43292 21.3317C2.35248 21.3953 2.37138 21.2465 2.20841 21.3953C2.04403 21.5371 2.00135 21.4358 2.00135 21.6412C2.00135 21.8416 1.87545 21.945 2.02374 22.1064C2.16783 22.2726 2.12586 22.3145 2.16783 22.4368C2.2084 22.5576 2.26996 22.4556 2.25037 22.6589C2.22659 22.865 2.3315 22.6191 2.04402 22.8845C1.75444 23.1507 1.59077 23.2135 1.54461 23.3574C1.50684 23.4978 1.54461 23.4783 1.56839 23.662C1.59077 23.8485 1.60685 23.8485 1.59076 24.0315C1.56838 24.2201 1.59078 24.7259 1.50614 24.8279C1.42011 24.9298 1.23543 25.1142 1.11163 25.3399C0.985723 25.5669 0.985728 25.423 0.985728 25.6668C0.985728 25.9106 1.17389 25.8701 1.04938 26.074C0.926275 26.2801 0.802474 26.0559 0.926279 26.2801C1.04939 26.5057 1.44108 26.5434 1.31727 26.6482C1.19487 26.7474 1.17248 26.7306 1.13261 26.8522C1.09064 26.9751 1.07036 27.0149 1.25432 27.1616C1.44108 27.3013 1.70759 27.2804 1.70759 27.506C1.70759 27.7358 1.89784 27.8546 1.89784 27.8546C1.89784 27.8546 2.18672 27.9964 2.26785 27.835C2.35039 27.6716 2.45531 27.5465 2.53645 27.3642C2.61899 27.1791 2.80015 26.6978 2.84772 26.7928C2.97013 27.0338 2.72391 27.7714 2.72391 27.7714C2.72391 27.7714 2.92745 27.7714 2.78266 28.0802C2.63717 28.3882 2.12377 28.755 2.12377 28.755C2.12377 28.755 2.11466 28.7564 2.10067 28.7627C2.04192 28.8011 1.85727 28.9101 1.77333 28.9799C1.66841 29.0602 1.48374 29.0602 1.29838 29.2251C1.11023 29.3871 1.31729 29.1413 0.98434 29.4263C0.65699 29.7134 0.512886 29.7944 0.427551 29.9383C0.348511 30.0829 0.244307 30.5334 0.203738 30.6759C0.158972 30.8177 0.0330498 31.0007 0.0141642 31.1845C-0.0047214 31.3703 -0.0047214 31.123 0.0141642 31.5128C0.0330498 31.9053 0.0330503 31.7992 0.158954 32.0639C0.28276 32.33 0.203723 32.3301 0.406568 32.4746C0.614309 32.6178 0.67726 32.4341 0.759097 32.7408C0.841634 33.046 0.922084 32.9657 0.884313 33.1893C0.841645 33.4128 1.00811 33.3548 0.780785 33.5169C0.552059 33.6782 0.591932 33.4763 0.552062 33.6782C0.512892 33.8836 0.591932 33.8053 0.552062 33.9877C0.512892 34.1707 0.74021 34.1511 0.985023 34.4173C1.23473 34.6834 1.64811 34.7644 1.70827 34.7644C1.77402 34.7644 1.81179 34.7463 1.91671 34.7854C2.02233 34.8259 2.33012 34.8259 2.31123 34.93C2.28745 35.034 2.53714 35.2352 2.63787 35.3582C2.74349 35.479 3.03377 35.6033 3.03377 35.7668C3.03377 35.9296 3.03376 36.0315 3.09531 36.1552C3.15686 36.2781 3.36391 36.5645 3.36391 36.6239C3.36391 36.6875 3.67167 36.8321 3.67167 37.0333C3.67167 37.2407 4.0242 37.7925 4.06617 37.8938C4.10604 37.9944 4.06617 37.9944 4.18718 38.1579C4.31308 38.3213 4.37884 38.4233 4.43759 38.5672C4.49984 38.7104 4.56139 38.7719 4.64813 38.8718C4.72647 38.9745 4.8111 39.0157 4.87405 39.0988C4.937 39.1812 5.07971 39.1812 5.16295 39.3223C5.24409 39.4655 5.43153 39.4481 5.45042 39.673C5.4721 39.8986 5.59941 40.0802 5.63858 40.3457C5.67845 40.6111 5.76309 40.6523 5.90788 41.1448C6.05267 41.6324 6.25551 42.0005 6.34084 42.2268C6.42408 42.4559 6.42408 42.3274 6.50662 42.5132C6.59055 42.6976 6.88014 43.188 7.02283 43.3724C7.16762 43.5554 7.37466 43.5338 7.43621 43.7811C7.49637 44.0269 7.55791 44.2505 7.63975 44.4544C7.72578 44.6598 7.93214 44.8833 7.99439 44.9853C8.05664 45.0894 8.13916 45.0258 8.30214 45.396C8.46651 45.7663 8.28397 45.7439 8.57285 46.0708C8.86103 46.3984 9.06806 46.3586 9.09044 46.6213C9.11143 46.8867 9.25622 47.0921 9.2933 47.2569C9.33247 47.4211 9.48145 47.3373 9.41919 47.6453C9.35904 47.9506 9.25621 47.9918 9.23453 48.2167C9.21634 48.4437 9.16948 48.3823 9.25622 48.5632C9.33316 48.7497 9.37932 48.7497 9.56678 48.9327L10.29 49.5041C10.29 49.5041 10.2075 49.8352 10.4138 50.0783C10.6209 50.3249 10.6992 50.0783 10.7838 50.3249C10.865 50.5694 11.4043 50.4862 11.4435 50.612C11.4854 50.7328 11.7743 50.8956 11.7743 51.059C11.7743 51.2246 11.9778 51.3538 12.1051 51.4293C12.6018 51.7115 12.8508 51.5906 13.0151 51.7946C13.1816 52.0048 14.1308 52.7355 14.3791 52.7781C14.6246 52.8158 14.7491 53.024 14.9988 53.1022C15.2443 53.1861 15.4549 52.9409 15.6577 53.1483C15.8655 53.3502 16.1523 53.4731 16.2782 53.5961C16.4027 53.7148 16.5698 53.6778 16.7349 53.7616C16.8986 53.8413 17.1049 53.8001 17.2294 53.8825C17.3553 53.9621 17.6827 54.0047 17.973 54.412C18.2618 54.8248 18.4661 55.1203 18.5088 55.2341C18.7571 55.8433 19.1362 56.0025 19.253 56.0898C19.7902 56.4985 19.253 55.8034 19.7902 56.4985C19.8769 56.6068 19.9455 56.6948 20.007 56.7646C20.3483 57.1572 20.3987 57.0908 20.3295 57.1949C20.2434 57.3186 20.1623 57.6441 20.2434 57.9305C20.3295 58.2148 20.3693 58.6653 20.4106 58.8707C20.4533 59.0754 20.4924 59.2807 20.5358 59.44C20.5792 59.6076 20.5792 59.6461 20.5358 59.9737C20.4924 60.3013 20.4533 60.3425 20.4533 60.6317C20.4533 60.9132 20.4106 60.8713 20.5358 61.1605C20.6561 61.4469 20.6561 61.0354 20.782 61.6494C20.9058 62.2634 20.9471 62.3466 20.824 62.633C20.6995 62.9173 20.5722 63.1073 20.5365 63.2847C20.3693 64.0629 20.3295 63.8212 20.3295 64.3087C20.3295 64.8019 20.617 63.8994 20.2861 65.0059C19.9553 66.1088 19.9552 65.7798 19.9552 66.1088C20.0371 67.0086 20.0315 67.1084 20.0371 67.253C20.0798 68.1122 19.9168 70.2379 19.709 70.6081C19.5034 70.9734 19.339 71.0565 19.339 71.424C19.339 71.7907 19.6265 71.8717 19.46 72.2818C19.2957 72.6904 19.4195 72.6108 19.2957 73.1025C19.1732 73.5908 19.2957 73.0194 19.1733 73.5908C19.0459 74.1615 19.1285 74.1615 19.0026 74.5722C18.8788 74.9816 19.0893 74.2467 18.8788 74.9816C18.6759 75.7143 18.7571 75.1862 18.6326 75.9225C18.5088 76.6581 18.7962 76.1677 18.5088 76.658C18.4423 76.7733 18.4101 76.7915 18.3933 76.7733C18.3898 76.7859 18.3899 76.7998 18.3864 76.8187C18.2227 77.7198 18.2625 77.7198 18.3864 78.1299C18.5088 78.5399 18.7571 78.3338 18.5934 78.8256C18.4262 79.3152 18.3507 79.4221 18.2625 79.6457C18.0135 80.2576 18.0135 80.2576 18.0135 80.2576C18.0562 81.4018 17.7652 81.8495 17.8499 82.2218C17.9303 82.5872 17.8499 82.9972 17.8499 83.3625C17.8499 83.73 18.0135 83.774 18.0135 84.1421C18.0135 84.5095 18.138 84.5927 18.0562 84.9161C17.9737 85.2451 17.9303 85.2451 17.81 85.6125C17.6834 85.9806 17.6002 86.1888 17.4756 86.3907C17.3553 86.596 17.5995 86.3075 17.4756 86.7581C17.3553 87.2079 17.191 87.2492 16.9832 87.6564C16.7741 88.0657 16.7356 87.8611 16.7356 88.2732C16.7356 88.679 16.9832 88.517 16.8993 89.0486C16.8153 89.5794 16.6915 89.4174 16.4852 89.8651C16.2782 90.3206 16.0725 90.6852 15.9081 90.9325C15.7431 91.1777 15.9081 91.3397 15.7431 91.8308C15.5752 92.3198 15.7431 92.3198 15.5325 92.6467C15.329 92.9743 15.245 92.727 15.1191 93.0938C14.9988 93.4633 14.9401 93.4856 14.71 93.7511C13.965 94.6109 14.1721 94.611 14.1721 95.1824C14.1721 95.7565 14.1308 95.3472 14.2546 96.0017C14.3791 96.6556 14.0469 96.2029 14.3791 96.6556C14.71 97.1061 14.668 97.352 14.71 97.5119C14.7491 97.6761 14.7918 98.3739 14.7918 98.3739C14.7918 98.3739 14.9121 98.6596 14.8736 98.7805C14.831 98.9055 14.9121 98.8224 14.6673 99.1884C14.4176 99.56 14.5022 99.2303 14.4176 99.56C14.3371 99.8848 14.3371 99.8848 14.3371 99.8848C14.3371 99.8848 14.4609 100.336 14.2546 100.743C14.0469 101.153 14.1308 101.071 13.8804 101.439C13.6342 101.809 13.6342 101.48 13.6342 101.809C13.6342 102.135 13.6342 102.38 13.758 102.585C13.8804 102.789 13.965 102.87 14.1308 103.033C14.2945 103.197 14.4253 103.213 14.5861 103.28C15.0814 103.483 15.1192 103.483 15.3297 103.364C15.5332 103.238 15.5332 103.074 15.8662 103.238C16.197 103.404 16.4418 103.364 16.2397 103.647C16.0333 103.933 15.6458 103.676 15.7836 104.017C15.9473 104.425 16.1152 104.219 16.0333 104.629C15.9473 105.041 16.1152 104.794 15.9473 105.041C15.7836 105.284 15.9095 105.326 15.9473 105.53C15.9907 105.734 15.62 105.734 15.62 105.938C15.62 106.142 15.62 106.225 15.5766 106.513C15.5339 106.797 15.6591 106.592 15.5339 106.797C15.4101 107.003 15.4962 106.062 15.4101 107.003C15.3304 107.941 15.4101 107.775 15.3304 107.941C15.2457 108.104 15.2457 108.392 15.2457 108.555C15.2457 108.72 15.2066 108.596 15.2457 108.883C15.2891 109.17 15.4892 109.205 15.62 109.332C16.0333 109.74 15.8263 109.946 15.7025 110.108C15.7025 110.108 15.1338 109.99 15.0821 110.4C14.9569 111.337 14.7932 111.337 14.9569 111.337C15.1198 111.337 15.62 112.033 15.4101 112.033C15.2066 112.033 15.1639 111.5 14.8331 111.825C14.5043 112.154 14.4623 112.235 14.4623 112.401C14.4623 112.563 14.6687 112.728 14.626 113.011C14.5875 113.299 14.256 113.665 14.256 113.665C13.7993 114.323 13.7992 114.323 13.7992 114.323C13.7992 114.323 13.3467 114.69 13.4292 114.445C13.5118 114.199 13.6251 113.922 13.3901 113.869C12.8088 113.751 12.5199 113.466 12.8088 113.383C12.8088 113.383 12.3989 112.81 12.2317 112.933C11.6519 113.343 11.4861 113.503 11.5253 113.667C11.5686 113.829 11.775 113.791 11.689 114.036C11.612 114.284 11.612 114.2 11.2791 114.405C10.9482 114.607 10.1648 114.529 10.3719 114.854C10.5782 115.181 11.1154 115.466 11.2392 115.387C11.3623 115.304 11.8624 114.771 11.8624 114.771C11.8624 114.771 12.3136 114.771 12.2716 114.98C12.2324 115.181 12.1065 115.225 12.3136 115.347C12.5199 115.466 13.2236 114.65 13.1837 114.937C13.1403 115.226 13.3054 114.937 13.2243 115.388C13.1411 115.839 13.2243 115.388 13.141 115.839C13.0571 116.288 12.4794 115.961 12.3968 116.288C12.3143 116.615 12.3569 116.573 12.6046 116.9C12.8536 117.226 13.4306 116.738 13.4306 116.983C13.4306 117.226 13.0172 117.636 13.3915 117.43C13.7608 117.226 13.6789 117.021 13.9273 117.268C14.1749 117.514 14.7729 117.742 14.5889 117.841C14.0504 118.126 13.5132 118.046 13.5132 118.046C13.5132 118.046 13.1033 117.8 12.9774 118.126C12.8529 118.454 12.8102 118.575 12.9347 118.7L12.2332 119.558C12.2332 119.558 12.8102 119.599 12.8529 119.926C12.8927 120.253 13.5936 120.58 13.3474 120.908C13.1033 121.233 12.9774 121.806 12.9774 121.806C12.9774 121.806 13.2243 121.889 13.1404 122.095C13.0564 122.299 12.892 122.048 12.727 122.379C12.5633 122.707 12.6039 122.953 12.6892 123.072C12.7668 123.198 13.4306 123.483 13.3474 123.648C13.2656 123.81 13.3278 123.877 13.0166 124.095C12.4388 124.507 12.3961 124.178 12.1499 124.424C11.9002 124.669 11.8191 124.465 12.1898 124.794C12.5633 125.119 12.7668 125.2 13.1404 125.2C13.5125 125.2 13.4299 124.71 13.6776 125.119C13.9259 125.527 14.2161 125.648 14.2161 126.023C14.2161 126.39 14.1322 126.305 14.1735 126.632C14.2161 126.959 14.4197 127.082 14.5449 127.039C14.6687 127.002 14.9135 127.284 15.0002 126.877C15.0821 126.468 15.0821 126.184 15.1632 126.263C15.2457 126.342 15.5332 126.263 15.6591 126.342C15.7836 126.425 15.9907 126.672 16.1152 126.592C16.2397 126.507 16.4859 126.14 16.4418 126.39C16.4034 126.632 16.36 126.917 16.36 127.204C16.36 127.492 15.9088 127.284 15.7836 127.535C15.6591 127.777 15.9473 127.613 15.9088 127.938C15.8662 128.267 16.2789 127.697 16.1152 128.268C15.9473 128.837 16.6496 127.736 16.9 128.145C17.149 128.554 17.4763 128.469 17.6841 128.635C17.8904 128.799 18.2206 128.593 18.2639 128.965C18.3038 129.332 18.3877 129.451 18.4276 129.577C18.471 129.698 18.9263 130.067 18.5948 130.15C18.264 130.23 17.9751 129.781 17.6841 130.067C17.3938 130.353 17.3134 130.11 17.2308 130.518C17.1497 130.925 17.2308 130.637 17.3134 131.007C17.3938 131.378 17.0231 131.502 17.5197 131.62C18.0142 131.742 18.5514 131.742 18.7172 131.826C18.8802 131.905 19.3404 131.459 19.3404 131.212C19.3404 130.968 19.3404 130.721 19.2544 130.434C19.1747 130.15 19.6279 129.655 19.6279 129.655L20.0168 129.409L20.4554 129.127C20.4554 129.127 20.1644 128.88 20.6582 128.761C21.1548 128.636 21.4458 128.838 21.4857 128.838C21.5326 128.838 21.5325 128.838 21.5325 128.838C21.5325 128.838 21.983 129.084 21.2793 129.332C20.582 129.577 19.9189 130.23 20.1217 130.353C20.3316 130.476 20.9911 130.476 21.1157 130.518C21.2395 130.561 21.6955 130.434 21.6493 130.637C21.6116 130.843 21.3619 131.13 21.3619 131.13C21.3619 131.13 20.8268 130.721 20.7848 131.212C20.7449 131.705 20.8268 131.705 20.8268 132.028C20.8268 132.359 21.5703 132.437 21.5703 132.642C21.5703 132.846 22.0236 132.888 21.6116 133.008C21.1989 133.132 20.8687 132.97 20.8687 132.97C20.8687 132.97 19.7111 132.767 19.5852 132.929C19.4621 133.091 19.1753 133.05 18.927 133.253C18.6787 133.461 18.5528 133.912 18.8417 133.827C19.1306 133.746 19.8755 134.199 19.9993 134.075C20.1217 133.951 20.582 134.032 20.7848 133.992C20.9912 133.95 21.5703 133.912 21.5703 133.912C21.5703 133.912 21.6116 134.116 21.8606 134.32C22.1061 134.521 22.5195 134.566 22.644 134.482C22.7692 134.399 22.2306 134.277 23.014 134.482C23.0903 134.503 23.1553 134.514 23.2176 134.528C23.8086 134.644 23.8625 134.453 24.0506 134.566C24.2542 134.687 24.8949 134.396 25.0411 134.482C25.5803 134.807 25.744 134.644 25.9504 134.77C26.1581 134.889 26.361 134.644 26.5708 134.727C26.7743 134.808 27.2717 134.687 27.2717 134.687C27.2717 134.687 27.8886 134.521 27.7711 134.687C27.6473 134.853 28.3055 134.89 28.5118 134.77C28.7189 134.644 29.4211 134.32 29.4211 134.32L29.2526 134.113C29.2526 134.113 29.5456 133.665 29.1288 133.708C28.7189 133.746 28.2635 133.461 27.8501 133.499C27.4367 133.541 26.9415 133.336 26.9415 133.336C26.9415 133.336 26.6519 132.929 26.361 132.724C26.0714 132.52 26.0315 132.641 25.9504 132.359C25.8685 132.07 25.9077 131.579 25.6615 131.704C25.4111 131.824 25.167 131.579 24.9564 131.5C24.7494 131.415 24.3801 130.679 24.2542 130.559C24.1331 130.433 24.0066 130.433 24.0905 130.066C24.173 129.697 24.3402 129.449 24.1339 129.409C23.9268 129.371 23.8841 128.798 23.5134 129.003C23.1434 129.207 23.1001 129.207 22.8937 129.207C22.8825 129.207 22.879 129.204 22.8727 129.204C22.6832 129.174 22.6321 128.797 22.2306 128.675C21.8207 128.553 21.6501 128.513 21.6501 128.266C21.6501 128.157 21.6535 128.081 21.671 128.013C21.6934 127.925 21.7431 127.862 21.8613 127.816C22.0676 127.735 22.3138 127.776 22.6874 127.98C23.0581 128.183 23.3477 128.309 23.6351 128.266C23.9275 128.224 24.0919 127.98 23.8422 127.816C23.5974 127.651 23.3078 127 23.1014 126.713C22.8951 126.425 22.6874 125.976 22.6454 125.853C22.6013 125.73 22.7279 125.158 22.6874 124.914C22.6454 124.668 22.439 124.217 22.6874 124.259C22.9371 124.298 22.7706 123.972 23.2259 123.481C23.6792 122.99 23.8044 122.705 24.1346 122.788C24.4619 122.868 24.8375 122.827 24.8753 122.705C24.9186 122.584 24.7515 121.886 24.8375 121.722C24.918 121.56 25.4978 120.336 25.6629 120.047C25.8266 119.759 26.1154 119.8 26.4085 119.596C26.696 119.393 27.1101 119.393 27.5626 118.944C28.0159 118.494 28.5132 118.288 28.5531 118.086C28.5958 117.882 28.7629 117.676 28.6783 117.512C28.5958 117.347 28.7196 117.266 28.2649 117.185C27.8116 117.102 28.1005 116.692 28.3488 116.531C28.5957 116.365 28.7195 116.49 28.5957 116.038C28.4719 115.59 28.5132 115.302 28.3069 115.302C28.1005 115.302 27.9362 115.182 27.7263 115.224C27.5235 115.261 27.1094 115.261 26.8988 115.224C26.696 115.179 26.1987 115.14 26.1154 114.852C26.0329 114.566 25.7028 114.486 25.6629 114.035C25.6202 113.587 25.7846 113.216 25.9518 113.011C26.1154 112.809 26.2826 112.276 26.3225 112.116C26.3623 111.949 26.3225 111.87 26.4897 111.747C26.6533 111.624 27.1493 111.337 27.1493 111.337C27.1493 111.337 26.9856 111.583 27.6018 111.253C28.2243 110.928 28.8028 110.315 28.8839 110.433C28.9665 110.561 29.254 111.214 29.547 110.355C29.8359 109.497 29.9177 108.841 29.9177 108.841L29.6673 108.432L29.9597 107.941C29.9597 107.941 30.1528 106.979 30.3304 106.922C30.9502 106.717 31.1138 106.429 31.1138 106.429C31.1138 106.429 30.4563 105.775 30.4934 105.609C30.5368 105.445 30.6193 105.284 30.8264 105.326C31.0334 105.367 31.0886 105.139 31.2824 105.367C31.7342 105.896 31.4866 106.225 31.7769 106.183C32.0651 106.142 32.0651 107.207 32.3973 106.02C32.7261 104.834 33.0171 104.548 32.561 104.548C32.1078 104.548 31.9028 104.061 31.6098 104.385C31.3209 104.71 31.1138 105.122 31.1138 105.122C30.6193 104.997 30.3038 104.833 30.2906 104.672C30.2486 104.22 30.0429 104.263 30.08 103.973C30.1234 103.688 30.2451 103.401 30.2906 103.198C30.3304 102.994 30.2906 102.911 30.3703 102.624C30.4563 102.339 29.8737 102.095 30.08 101.809C30.2906 101.523 30.08 101.563 30.7438 101.725C31.4069 101.888 31.9833 101.725 31.9028 102.011C31.8203 102.296 31.9833 102.666 32.3973 102.666C32.8107 102.666 33.0982 102.543 33.3052 102.585C33.5123 102.623 33.8872 102.585 34.011 102.543C34.1292 102.504 34.5461 102.38 34.6713 102.216C34.7916 102.054 35.8289 101.929 35.1658 101.684C34.5041 101.438 34.4209 101.359 34.5041 101.153C34.5853 100.952 35.0022 100.581 35.0022 100.581C35.2057 99.8059 35.3722 99.7214 35.3722 99.4748C35.3722 99.2296 35.6624 99.2722 35.4155 98.7805C35.1658 98.2901 34.8448 98.0428 35.0413 97.9646C35.8688 97.6391 35.7855 97.8417 36.1961 97.8794C36.613 97.9213 36.0325 97.9213 36.613 97.9213C37.1894 97.9213 37.4363 97.8794 37.4363 97.8794C37.4363 97.8794 37.6468 98.0051 38.3057 97.8794C38.9695 97.7606 41.1567 97.1864 41.3246 97.1864C41.4911 97.1864 41.9444 97.1054 41.9444 97.1054C41.9444 97.1054 42.2724 96.856 42.3563 96.9804C42.4389 97.1054 42.6851 96.6143 42.8117 96.694C42.9348 96.7757 43.2649 96.4914 43.3901 96.3685C43.5126 96.2462 43.5126 96.1226 43.6797 96.0394C43.8462 95.9591 44.0896 95.7146 44.0896 95.7146C44.4233 95.3053 44.6268 94.8163 44.6268 94.8163C44.6268 94.8163 44.752 94.5278 44.9591 94.4063C45.1661 94.2827 45.1661 94.1618 45.206 93.9962C45.2472 93.8356 45.1269 94.0787 45.206 93.5073C45.2899 92.9317 45.3759 93.2593 45.2899 92.7689C45.206 92.2779 45.3759 92.2779 45.0024 92.157C44.6268 92.0362 44.589 91.8315 44.5065 91.6254C44.4233 91.4215 44.5065 91.9544 44.4233 91.4215C44.3386 90.8906 44.5925 90.7627 44.5464 90.5623C44.4631 90.192 44.6296 89.7457 44.4631 89.7052C44.2994 89.6619 44.4233 89.0912 44.0498 89.1701C43.679 89.2525 42.7697 88.7629 42.562 88.6797C42.357 88.6015 42.2731 88.4793 42.1514 88.3116C42.0262 88.1503 41.9849 88.0287 42.0262 87.6962C42.0689 87.3707 42.3151 87.824 42.2325 87.1304C42.1514 86.4333 42.4816 86.2279 42.3976 86.1063C42.3151 85.982 42.1906 85.901 42.3151 85.6139C42.4389 85.3275 42.1913 85.3722 42.4389 85.1654C42.6858 84.9601 42.7697 84.9601 42.6858 84.5514C42.6138 84.1798 42.6739 83.8815 42.6823 83.8257C42.6858 83.8201 42.6858 83.8152 42.6858 83.8152C42.6858 83.8152 42.8921 84.5514 42.8488 84.9608C42.8117 85.3722 42.7292 85.4106 42.7292 85.6928C42.7292 85.9827 42.739 86.8056 42.6858 86.9236C42.4389 87.4964 42.2731 87.6194 42.3983 87.7437C42.5221 87.8646 42.8124 88.4387 43.0992 88.3556C43.3902 88.2753 43.2733 88.1342 43.5559 88.2753C44.0504 88.5191 44.424 88.232 44.4638 88.5191C44.5072 88.8062 44.838 88.9675 45.0843 89.0926C45.3298 89.2148 45.7536 89.1932 45.9103 89.2539C46.3279 89.4195 46.2811 89.4195 46.4909 89.3818C46.6937 89.3392 46.9434 89.4195 47.1505 89.3392C47.3575 89.2539 47.2715 89.0926 47.6044 89.1715C47.9353 89.2539 48.1962 89.1806 48.3487 89.2539C48.925 89.5417 49.7952 89.1715 49.7952 89.1715C49.7952 89.1715 50.1659 88.6811 50.2897 88.642C50.4149 88.6022 50.5387 88.642 50.829 88.2313C51.1172 87.8247 51.3228 87.2932 51.4487 87.21C51.569 87.1318 51.6942 87.0466 51.9034 86.6798C52.1069 86.3096 52.3139 86.107 52.5203 85.9017C52.7308 85.6928 53.226 85.3282 53.226 85.3282C53.226 85.3282 53.5142 84.8818 53.4716 84.6338C53.4331 84.3908 53.5968 84.0597 53.6779 83.855C53.7597 83.6559 53.7597 83.5309 53.9255 83.4072C54.0752 83.2983 54.2927 83.7816 54.2389 83.2773C54.5075 83.2137 55.1636 82.7527 55.1636 82.7527C55.1636 82.7527 55.3307 82.3874 55.6637 82.2239C55.9917 82.0563 56.24 81.7734 56.3646 81.7329C56.4905 81.6909 56.6534 81.4856 56.8178 81.3207C56.9843 81.158 57.3564 80.8709 57.3144 80.5021C57.2739 80.1381 57.3564 79.9334 57.4802 79.8119C57.604 79.6855 57.6439 79.8922 57.8082 79.2782C57.9754 78.6649 57.8082 78.6649 58.1419 78.2947C58.4699 77.9287 58.428 77.5899 59.2149 77.0681C59.2149 77.0681 59.9178 75.926 60.0808 75.6368C60.248 75.3504 60.3312 75.393 60.4117 75.189C60.4977 74.9844 60.6621 74.5345 60.6621 74.3305C60.6621 74.1217 60.9083 73.4301 60.7859 73.2667C60.6621 73.106 60.8251 72.5297 60.8251 72.5297C60.8251 72.5297 60.7054 72.1658 60.5362 71.9576C60.3739 71.7558 60.5362 71.7139 60.3739 71.4275C60.2081 71.1404 59.9178 71.06 60.2081 70.856C60.4977 70.6486 60.7425 70.9343 60.5788 70.4453C60.4117 69.9564 59.9983 69.7482 60.3312 69.6679C60.6621 69.5896 61.0754 69.7105 61.2811 69.6679C61.4888 69.6294 61.4448 69.6294 61.6917 69.5058C61.7036 69.5016 61.7099 69.4967 61.7169 69.4939C61.7274 69.459 61.8155 69.3437 62.1519 69.0147C62.9353 68.2359 63.5942 67.953 63.5942 67.953C64.0454 67.5408 63.8824 67.3781 64.0454 67.3376C64.216 67.2984 64.3797 67.1734 64.5861 67.1734C64.7938 67.1734 65.0393 67.0505 65.2471 66.9694C65.2471 66.9694 65.5387 67.0903 65.7024 67.2558C65.8661 67.42 65.7857 67.2558 66.0731 67.2167C66.3627 67.1734 66.8607 67.0903 66.8607 67.0903C66.8607 67.0903 65.9493 66.8863 66.4061 66.5601C66.8607 66.2325 66.8607 66.5601 67.2706 66.2744C67.6833 65.9908 67.8512 66.1536 67.9764 65.7421C68.1002 65.3335 67.9344 65.0464 68.1002 65.3335C68.2646 65.6206 68.3037 65.4983 68.5933 65.536C68.8836 65.5794 69.2977 65.3768 69.504 65.4173C69.7069 65.4578 69.9174 65.2126 69.9971 65.3342C70.0811 65.4578 70.2874 65.2133 70.4133 65.3768C70.5336 65.536 70.7442 65.6213 71.0309 65.4578C71.3205 65.2944 71.487 65.008 71.6101 65.1707C71.7339 65.3335 71.9801 65.2126 72.0606 65.2944C72.1473 65.3768 72.4746 65.2944 72.5607 65.0101C72.6404 64.7223 72.7894 64.417 72.9314 64.3129C73.4273 63.9448 72.9314 64.5169 73.6763 63.8253C74.4199 63.1261 74.5038 63.0842 74.5038 62.8418C74.5038 62.5966 74.338 62.0637 74.5842 61.8192C74.8312 61.5726 75.2047 61.3672 75.2858 61.0396C75.3718 60.7127 75.4117 60.7553 75.9062 60.0582C76.4021 59.3652 76.1524 59.3233 76.4022 59.1222C76.6519 58.9147 76.6519 60.0226 76.733 58.6283C76.8148 57.241 76.9387 57.3598 76.8582 57.0356C76.7715 56.7052 76.733 56.7052 76.8141 56.502C76.8974 56.298 76.7323 56.0933 77.1044 55.9732C77.4779 55.8467 77.5989 55.6812 77.6416 55.5597C77.685 55.4402 77.8913 54.9897 77.8913 54.8283C77.8913 54.6614 78.1382 54.0459 77.9725 53.7651C77.8088 53.4766 77.9277 53.1407 77.9725 53.0247C78.2222 52.3744 78.262 52.4128 78.2222 52.0859C78.1795 51.7589 77.8486 51.3084 77.8913 50.941C77.9305 50.5743 78.1788 50.0001 78.0963 49.7563C78.0151 49.5097 78.2215 49.3476 78.1375 48.9383C78.055 48.5304 78.1375 48.2453 78.0963 48.0798C78.055 47.917 78.1788 48.04 78.055 47.5468C77.9305 47.0578 77.4772 46.9349 77.8913 46.8113C78.3026 46.6883 77.8081 46.8113 78.3026 46.6883C78.7992 46.5675 79.0881 46.6883 78.632 46.5263C78.1788 46.3635 77.9717 46.2776 77.9717 46.2776C77.9717 46.2776 77.8906 46.1169 78.3432 46.1169C78.7985 46.1169 78.6321 45.994 78.9622 46.0764C79.2944 46.1602 78.9223 46.404 79.2945 46.1602C79.6645 45.9109 79.996 45.8312 80.0387 45.5029C80.0786 45.1767 80.3653 44.8498 80.4521 44.729C80.5346 44.6081 80.6591 44.3629 80.6591 44.3629C80.6591 44.3629 80.6983 44.0723 80.7416 43.9508C80.7794 43.8285 80.7794 43.422 80.9046 43.3794C81.0291 43.3361 81.1117 43.422 81.4432 42.968C81.7748 42.5202 82.9708 41.5381 83.3024 41.2126C83.6332 40.8815 83.7591 41.047 83.9662 40.6768C84.1725 40.3122 84.211 40.3121 84.4572 39.9461C84.7069 39.5752 84.8307 39.5752 84.9133 39.411C85 39.2525 85.0378 38.9633 85.1609 38.7593C85.2861 38.5505 85.4903 38.2284 85.4504 38.0224C85.4092 37.8177 85.4903 37.3678 85.4504 37.247C85.4092 37.1206 85.4092 37.0395 85.3665 36.7538C85.3266 36.4681 85.1616 36.0993 85.3266 35.8932C85.4896 35.6886 85.5715 35.4469 85.4896 35.1158ZM56.1526 80.2604C55.9861 81.1992 56.1526 81.1992 55.6973 81.5254C55.2454 81.853 55.7819 80.9135 55.2454 81.853C54.7054 82.796 55.202 82.3085 54.7054 82.796C54.4942 83.007 54.3305 83.1313 54.227 83.2047C54.22 83.1662 54.2179 83.1243 54.2116 83.0817C54.085 82.2623 54.3746 82.0577 54.3746 82.0577C54.3746 82.0577 54.5816 81.9361 54.7446 81.8153C54.9118 81.6917 55.0349 81.649 55.2013 81.1999C55.3692 80.7507 55.4475 80.5453 55.6581 80.4245C55.8644 80.3002 56.3212 79.3194 56.1526 80.2604Z" fill="white" fill-opacity="0.18"/>
</svg>
