<svg width="9" height="4" viewBox="0 0 9 4" fill="none" xmlns="http://www.w3.org/2000/svg">
<path d="M6.88789 3.07628C7.96997 3.37245 8.15184 3.31308 8.24347 3.34381C8.333 3.37245 8.63237 3.28584 8.63237 3.28584C8.63237 3.28584 8.29873 2.60337 8.24347 2.51326C8.18192 2.42804 8.02872 2.069 7.96996 1.95235C7.91121 1.8315 7.72935 1.6841 7.64121 1.62752C7.54749 1.56605 7.34044 1.4501 7.25231 1.41727C7.16068 1.39073 6.95015 1.06311 6.79766 1.03447C6.64588 1.00374 6.43743 0.829108 6.28775 0.795578C6.13596 0.766939 5.74637 0.620242 5.74637 0.620242C5.74637 0.620242 5.38476 0.558772 5.26515 0.620242C5.14834 0.677522 4.84546 0.530134 4.84546 0.530134L4.21245 0.20322L3.70183 0.384141C3.70183 0.384141 3.46471 0.384147 3.37378 0.440728C3.04014 0.646096 2.68201 0.64609 2.65054 0.558774C2.65054 0.558774 2.28892 0.2647 2.20148 0.2647C2.11125 0.2647 1.95876 0.144548 1.84125 0.23396C1.72024 0.325467 1.52509 0.388333 1.41877 0.325465C1.08722 0.118002 1.35652 0.23396 1.08722 0.118004C0.817227 -0.00493754 0.274452 -0.0922532 0.0967876 0.175284C0.0967876 0.175284 -0.0263268 0.528041 0.0051492 0.766938C0.0352262 1.00374 0.0352346 1.00374 0.0967876 1.18186C0.154843 1.35789 0.0967851 1.44941 0.24717 1.50669C0.395457 1.56536 0.42554 1.47665 0.576625 1.56536C0.724212 1.65338 0.938246 1.62683 1.02848 1.71415C1.11731 1.80705 1.20754 1.80705 1.23972 2.00963C1.26979 2.21639 1.17606 2.27506 1.26979 2.48392C1.35653 2.68929 1.38661 2.81014 1.53839 2.90164C1.68878 2.98687 1.779 2.90165 1.99024 3.13356C2.20148 3.37245 2.05249 3.48841 2.23015 3.51915C2.41201 3.54918 2.65124 3.51915 2.7114 3.60926C2.77015 3.69937 3.28356 3.40179 3.31154 3.4919C3.34232 3.58062 3.95014 3.41856 4.03408 3.37315C4.36493 3.19433 4.84546 2.96102 4.84546 2.96102C4.84546 2.96102 4.87413 2.8716 5.14832 2.92819C5.41831 2.98756 5.77784 2.8716 5.86877 2.92819C5.9576 2.98756 5.83661 3.04834 6.19613 3.07698C6.55636 3.10702 5.80652 2.7801 6.88789 3.07628Z" fill="white" fill-opacity="0.18"/>
</svg>
