<svg width="19" height="21" viewBox="0 0 19 21" fill="none" xmlns="http://www.w3.org/2000/svg">
<path d="M18.6759 15.1096L18.0911 14.4662C18.0911 14.4662 17.8561 14.1687 17.7386 14.1421C17.6197 14.1114 17.2721 14.1114 17.1811 14.1421C17.0958 14.168 16.8901 14.0834 16.8901 14.0834C16.8901 14.0834 16.6551 13.7593 16.7174 13.6699C16.7733 13.5833 16.8048 13.4331 16.8048 13.4331C16.5691 13.2291 16.2473 13.0538 16.2473 13.0538C16.2473 13.0538 16.1613 12.8764 16.1921 12.7898C16.2201 12.6989 16.1921 12.6396 16.1921 12.4056C16.1921 12.1688 16.3662 12.4642 16.1921 12.1688C16.0158 11.8782 15.9256 11.7573 15.9256 11.7573C15.9256 11.7573 15.6038 11.67 15.5178 11.7028C15.4304 11.7287 14.9393 11.7552 14.875 11.6693C14.6693 11.4074 14.4651 11.466 14.6421 11.2299C14.8148 10.9938 15.0499 10.8772 14.8148 10.8772C14.5826 10.8772 14.5232 10.8436 14.4651 10.7598C14.407 10.6711 14.2602 10.7871 14.407 10.523C14.5532 10.2576 14.4966 10.3484 14.6148 10.1102C14.7288 9.87759 14.8456 10.1402 14.7288 9.87758C14.6148 9.61214 14.7868 9.64008 14.6148 9.46475C14.4343 9.28523 14.642 9.08266 14.2601 8.99325C13.8803 8.90663 13.8531 9.37813 13.7635 9.23004C13.6754 9.08265 13.6173 9.14134 13.5005 8.99325C13.383 8.84796 13.3544 8.60976 13.2096 8.55458C13.0655 8.4959 12.8885 8.28843 12.7696 8.31567C12.6521 8.34641 12.3926 8.28844 12.3031 8.19973C12.2142 8.10962 12.1869 7.96291 12.1869 7.84765C12.1869 7.7303 12.2142 7.43413 12.2142 7.43413C12.2142 7.43413 12.0988 7.13796 11.954 7.11282C11.8043 7.08278 11.5742 6.96541 11.5742 6.96541C11.2797 6.75794 11.4826 6.34931 11.2518 6.46317C11.016 6.57912 10.8426 7.05204 10.7251 7.02409C10.6083 6.99266 10.5173 6.8753 10.49 6.75795C10.4614 6.64199 10.49 6.4492 10.3446 6.31857C10.0494 6.05383 9.99062 5.99516 9.87661 6.11111C9.757 6.22986 9.73043 6.40659 9.73043 6.40659C9.73043 6.40659 9.43805 6.14186 9.34992 6.02241C9.26108 5.90436 9.02884 5.75767 8.9393 5.66756C8.85327 5.58304 8.73437 5.46358 8.5602 5.37487C8.38533 5.28965 8.32728 5.31759 8.29581 5.14225C8.26783 4.96623 8.56022 5.19884 8.26784 4.72804C7.97407 4.26002 7.53758 3.96453 7.45085 3.99386C7.36201 4.0239 6.86609 3.75988 6.80803 3.66837C6.74998 3.58175 6.45831 3.28836 6.3394 3.3184C6.22259 3.34983 6.19463 3.13956 6.04564 3.1689C5.90155 3.20033 5.75324 3.16892 5.66581 2.96355C5.57907 2.75748 5.46089 2.43895 5.46089 2.43895C5.46089 2.43895 5.54759 2.25732 5.4021 2.02192C5.25801 1.78861 5.40212 1.78862 5.13912 1.63844C4.87961 1.49244 4.67326 1.40652 4.67326 1.40652C4.67326 1.40652 4.58654 1.2291 4.52708 1.05167C4.46833 0.876343 4.55718 0.585046 4.38232 0.701002C4.20465 0.816958 4.2361 1.01465 4.2361 1.01465L3.80943 0.584353C3.80943 0.584353 3.13724 0.772245 2.95538 0.772245C2.77002 0.772245 2.58676 0.399935 2.21954 0.460008C1.85442 0.524273 1.36898 0.584353 1.36898 0.584353C1.36898 0.584353 0.93883 0.0918773 0.756269 0.0918773C0.574408 0.0918773 0.0861807 -0.151912 0.144236 0.154742C0.205789 0.46 -0.159321 0.891694 0.0854921 1.13967C0.328906 1.38206 0.632455 1.75019 0.694707 1.93739C0.75626 2.1211 0.817838 2.18328 1.18366 2.42637C1.55088 2.67365 1.7313 2.79729 1.97752 3.22688C2.21953 3.65578 1.97752 3.4127 2.21954 3.65579C2.46715 3.90377 1.85442 4.08747 2.46715 3.90375C3.07918 3.72004 3.74996 4.08748 3.74996 4.2698C3.74996 4.4591 4.11579 5.06961 4.11579 5.06961L4.3599 5.86873C4.84883 6.42267 5.27622 6.05383 5.51963 6.36048C5.76514 6.67063 6.0722 6.54701 6.13376 6.85087C6.19251 7.16381 6.43593 7.40688 6.43593 7.65206C6.43593 7.89795 6.38348 7.98386 6.49749 8.26607C6.80456 9.00511 6.74229 9.19094 6.9864 9.43682C7.23191 9.68201 7.78241 9.74208 7.90202 10.048C8.02232 10.3568 8.1475 10.2325 8.20906 10.6055C8.27061 10.9694 8.63435 11.2167 8.6966 11.4639C8.75815 11.7084 8.88057 11.6449 9.06243 12.0801C9.24499 12.5055 9.43035 13.0622 9.67446 13.3661C9.91997 13.6755 10.4676 14.7792 10.4676 14.7792C10.4676 14.7792 10.7726 15.0265 10.9545 15.3988C11.1413 15.762 11.2616 15.5825 11.4448 15.8856C11.6302 16.1965 11.5064 16.0722 12.0554 16.2538C12.608 16.4403 12.3597 15.4595 12.608 16.4403C12.8479 17.4245 13.3369 17.8562 13.3369 17.8562C13.8874 18.5931 14.6197 18.897 14.7456 19.0814C14.8659 19.27 15.4744 19.2065 15.5367 19.453C15.5982 19.6961 15.9046 19.7597 16.0256 20.0663C16.1487 20.3765 16.269 19.576 16.5145 19.576C16.7572 19.576 17.0615 19.8212 17.0615 19.8212L17.7358 20.1285L18.2863 20.0056L18.5297 19.145V18.7196C18.5884 18.1028 18.5885 17.6718 18.5885 17.6718V17.1185C18.4689 16.5667 18.4688 16.3166 18.4688 16.3166C18.4688 16.3166 18.7137 16.0149 18.7759 15.7634L18.6759 15.1096Z" fill="white" fill-opacity="0.18"/>
</svg>
