<svg width="6" height="4" viewBox="0 0 6 4" fill="none" xmlns="http://www.w3.org/2000/svg">
<path d="M1.47101 3.16069C1.81724 3.49738 2.55729 3.35418 2.75663 3.40238C2.95388 3.44779 4.48082 3.11109 4.6291 3.0615C4.77809 3.01469 4.67945 2.9644 5.31736 2.72341C5.96087 2.47683 6.00914 2.04094 5.76362 1.75175C5.51391 1.45837 4.23461 1.60296 4.08632 1.26627C3.93733 0.924687 3.69251 0.680202 3.34977 0.439908C3.00004 0.196121 3.00005 0.148627 2.4104 0.0990317C1.81725 0.0515317 1.03034 -0.144062 0.239939 0.196122C-0.222408 0.394504 0.0909575 1.07208 0.288906 1.21877C0.485456 1.36127 1.07721 1.11959 1.03104 1.41227C0.980681 1.70007 -0.00695544 1.41227 0.0916693 1.79855C0.190294 2.18344 0.339281 2.52781 0.634456 2.57601C0.932428 2.62281 1.79486 2.38182 1.96623 2.62281C2.41039 3.25708 1.12897 2.8198 1.47101 3.16069Z" fill="white" fill-opacity="0.18"/>
</svg>
