<svg width="36" height="19" viewBox="0 0 36 19" fill="none" xmlns="http://www.w3.org/2000/svg">
<mask id="path-1-inside-1_2605_3536" fill="white">
<path d="M5.80037 0.190706C5.71014 0.0663675 5.56885 0.000703475 5.42686 0.000703475C5.33173 0.000703475 5.23591 0.0300303 5.15337 0.0894053C5.05055 0.164847 4.9876 0.27452 4.96941 0.391175H0.921612C0.910421 0.320623 0.883145 0.251473 0.83768 0.190002C0.747449 0.065664 0.606133 0 0.463442 0C0.368314 0 0.272493 0.0293481 0.189956 0.0887232C-0.0163861 0.239606 -0.0618387 0.528788 0.0892459 0.734855C0.180177 0.859193 0.320734 0.924857 0.464125 0.924857C0.558553 0.924857 0.65439 0.896224 0.736927 0.835452C0.744621 0.829863 0.75162 0.824263 0.758614 0.818675L6.24036 5.69163C6.01723 5.9878 6.00253 6.40622 6.23335 6.72056C6.40262 6.95177 6.66491 7.0747 6.93141 7.0747C7.10838 7.0747 7.28744 7.02023 7.44132 6.90847C7.56443 6.81836 7.65676 6.70239 7.71622 6.57246L11.9697 8.1239C11.9452 8.24684 11.9697 8.37957 12.0501 8.48854C12.141 8.61218 12.2816 8.67784 12.4243 8.67784C12.5187 8.67784 12.6146 8.64919 12.6964 8.58911C12.7216 8.57025 12.744 8.55071 12.7643 8.52836L14.6409 9.79199C14.5975 9.92751 14.6179 10.0812 14.7088 10.2048C14.7633 10.2796 14.8368 10.3334 14.9172 10.3641L13.903 14.3143C13.8876 14.3129 13.8729 14.3122 13.8575 14.3122C13.7624 14.3122 13.6666 14.3408 13.584 14.4009C13.3777 14.5518 13.3329 14.841 13.484 15.0477C13.5742 15.1714 13.7155 15.237 13.8575 15.237C13.9526 15.237 14.0485 15.2077 14.1303 15.1476C14.2856 15.0352 14.35 14.8438 14.308 14.6684L21.6663 11.6864C21.674 11.6983 21.6817 11.7102 21.6901 11.722C21.7804 11.8457 21.9217 11.9113 22.0644 11.9113C22.0707 11.9113 22.077 11.9113 22.0826 11.9106L23.0583 16.859C23.0303 16.8716 23.003 16.8877 22.9772 16.9065C22.7701 17.0574 22.7254 17.3466 22.8765 17.5534C22.9667 17.677 23.108 17.7426 23.2507 17.7426C23.3458 17.7426 23.4409 17.7133 23.5235 17.6532C23.7172 17.5121 23.769 17.2502 23.6508 17.0476L25.8792 14.0754C25.9478 14.1131 26.0254 14.1326 26.1031 14.1326C26.1982 14.1326 26.294 14.1033 26.3759 14.0425C26.4241 14.0083 26.4633 13.9657 26.4934 13.9189L34.4393 17.6127C34.4009 17.7454 34.4225 17.8942 34.5107 18.0144C34.6009 18.138 34.7415 18.2037 34.8842 18.2037C34.9793 18.2037 35.0751 18.1743 35.1569 18.1136C35.364 17.9634 35.4088 17.6742 35.2577 17.4681C35.1668 17.3438 35.0261 17.2781 34.8835 17.2781C34.8835 17.2781 34.8786 17.2781 34.8765 17.2781L33.9944 12.1069C34.0119 12.0971 34.0294 12.0867 34.0455 12.0741C34.2525 11.9232 34.298 11.634 34.1463 11.4286C34.056 11.3043 33.9154 11.2386 33.7727 11.2386C33.6902 11.2386 33.607 11.261 33.5328 11.3057L27.7552 6.86794C27.879 6.59412 27.8552 6.26301 27.665 6.00316C27.4957 5.77125 27.2327 5.64831 26.9655 5.64831C26.7885 5.64831 26.6102 5.7021 26.457 5.81456C26.3528 5.8907 26.2702 5.98641 26.2108 6.09259L18.311 3.8957C18.3194 3.78882 18.2914 3.67916 18.2236 3.58625C18.132 3.46191 17.9914 3.39625 17.8487 3.39625C17.7535 3.39625 17.6577 3.4249 17.5759 3.48497C17.5528 3.50174 17.5318 3.52058 17.5129 3.54014L13.831 1.37122C13.8785 1.23291 13.8596 1.07433 13.7673 0.947901C13.6771 0.823563 13.5358 0.757899 13.3938 0.757899C13.2987 0.757899 13.2035 0.787252 13.121 0.847325C12.9923 0.940928 12.9265 1.08832 12.9314 1.23571L7.55395 5.61128C7.38747 5.43735 7.16013 5.34586 6.93 5.34586C6.88244 5.34586 6.83489 5.34935 6.78733 5.35773L5.64651 0.866873C5.6647 0.857094 5.68286 0.845915 5.70034 0.833341C5.90669 0.685951 5.95146 0.396772 5.80037 0.190706ZM12.4229 7.75368C12.3278 7.75368 12.232 7.78231 12.1494 7.84239C12.0935 7.8836 12.0494 7.9346 12.0179 7.99118L7.76378 6.43974C7.77497 6.39923 7.78334 6.35803 7.78824 6.31542L17.1003 6.68353C17.1038 6.69191 17.1065 6.6996 17.1107 6.70798L12.8398 8.01423C12.8279 7.98978 12.8139 7.96603 12.7964 7.94298C12.7062 7.81934 12.5656 7.75368 12.4229 7.75368ZM14.8081 9.55867C14.7668 9.58871 14.7319 9.62504 14.7039 9.66486L12.8426 8.41169C12.8804 8.32996 12.8936 8.23915 12.8811 8.14974L17.1926 6.83092C17.224 6.86445 17.2597 6.8924 17.2982 6.91476L15.3355 9.54541C15.2593 9.49582 15.1711 9.46997 15.0816 9.46997C14.9864 9.46997 14.8906 9.4986 14.8081 9.55867ZM26.1024 6.48726C26.101 6.52358 26.1024 6.55921 26.1052 6.59553L15.5237 9.79687C15.509 9.74868 15.4859 9.70329 15.4551 9.66068C15.4502 9.65439 15.446 9.6481 15.4404 9.64181L17.4346 6.96854C17.4661 6.97553 17.4989 6.97901 17.5311 6.97901C17.6255 6.97901 17.7214 6.95038 17.8032 6.89031C17.8738 6.83931 17.9256 6.77155 17.9571 6.6961L26.1024 6.48726ZM14.0387 14.3499L15.0543 10.3941C15.0634 10.3948 15.0732 10.3948 15.0823 10.3948C15.1774 10.3948 15.2725 10.3655 15.3551 10.3054C15.4775 10.216 15.5432 10.0784 15.5453 9.93868L26.131 6.73522C26.1415 6.77364 26.1541 6.81206 26.1695 6.84908L14.2045 14.47C14.1576 14.4163 14.1002 14.3757 14.0387 14.3499ZM27.6853 6.99578L33.4216 11.4021C33.2838 11.5614 33.2691 11.7996 33.3985 11.9763C33.4887 12.1006 33.63 12.1656 33.7727 12.1656C33.8014 12.1656 33.8301 12.1628 33.8588 12.1572L34.7366 17.3033C34.7177 17.3096 34.6988 17.3173 34.6799 17.3263L27.5964 7.10544C27.6293 7.07191 27.6594 7.0349 27.6853 6.99578ZM26.9669 7.37858C27.1439 7.37858 27.3229 7.32409 27.4768 7.21162C27.4817 7.20813 27.4859 7.20463 27.4908 7.20114L34.5638 17.4081C34.5379 17.4318 34.5162 17.4583 34.4974 17.487L26.5493 13.7918C26.5843 13.6619 26.5619 13.5166 26.4759 13.3992C26.4123 13.3126 26.3241 13.2546 26.2283 13.2274L26.9012 7.87662L26.9641 7.37926L26.9669 7.37858ZM26.8228 7.36669L26.087 13.2099C25.9967 13.2127 25.9065 13.2413 25.8282 13.2986C25.6218 13.4502 25.5771 13.7394 25.7282 13.9454C25.74 13.9615 25.7526 13.9769 25.7659 13.9908L23.557 16.9358C23.5437 16.924 23.5297 16.9128 23.515 16.9023L26.7633 7.35413C26.7829 7.35902 26.8025 7.36319 26.8228 7.36669ZM26.6291 7.31081L23.3871 16.8402C23.3423 16.8262 23.2961 16.8192 23.2492 16.8192C23.2311 16.8192 23.2129 16.8206 23.1947 16.8227L22.2217 11.8855C22.2623 11.8708 22.3015 11.8499 22.3379 11.824C22.5442 11.6738 22.5896 11.3846 22.4386 11.1786C22.4372 11.1772 22.4358 11.1751 22.4351 11.1737L26.3773 7.14876C26.4521 7.21721 26.5375 7.2717 26.6291 7.31081ZM26.2688 7.02512C26.273 7.03071 26.2772 7.03628 26.2814 7.04187L22.3329 11.0731C22.2532 11.0165 22.1588 10.9872 22.0636 10.9872C21.9685 10.9872 21.8727 11.0158 21.7909 11.0759C21.6363 11.1891 21.5719 11.3797 21.6132 11.5551L14.5458 14.4198L26.2346 6.97483C26.2451 6.99229 26.257 7.00905 26.2688 7.02512ZM18.1229 4.2345C18.1949 4.18211 18.2474 4.11225 18.2781 4.03541L26.152 6.22599C26.1381 6.26511 26.1269 6.30564 26.1192 6.34545L17.9928 6.55221C18.0012 6.44534 17.9732 6.33496 17.9054 6.24136C17.8578 6.1771 17.7976 6.1282 17.7305 6.09676L17.9354 4.31552C18.0005 4.30365 18.0648 4.27711 18.1229 4.2345ZM17.7913 4.3204L17.5913 6.05694C17.571 6.05415 17.5507 6.05277 17.5304 6.05277C17.436 6.05277 17.3402 6.08139 17.2583 6.14147C17.1268 6.23786 17.0604 6.39085 17.0695 6.54243L7.79456 6.1757C7.79316 6.15056 7.79174 6.12611 7.78824 6.10096L17.4227 4.04029C17.4367 4.07312 17.4542 4.10527 17.4759 4.1353C17.5535 4.24148 17.6689 4.30504 17.7913 4.3204ZM12.9629 1.39356C12.9776 1.42919 12.9958 1.46341 13.0196 1.49555C13.1098 1.61988 13.2511 1.68625 13.3931 1.68625C13.4882 1.68625 13.5833 1.65692 13.6659 1.59685C13.7043 1.56891 13.7372 1.53607 13.7638 1.49975L17.4318 3.65961C17.3954 3.73505 17.38 3.81956 17.387 3.90269L7.75678 5.96266C7.7316 5.87953 7.69311 5.79849 7.64065 5.72375L12.9629 1.39356ZM6.64952 5.39544C6.56908 5.42269 6.49215 5.46249 6.41941 5.51488C6.38933 5.53724 6.36066 5.5617 6.33338 5.58685L0.852366 0.7139C0.888039 0.658716 0.911094 0.596545 0.920887 0.532978H4.96869C4.97918 0.604228 5.0072 0.673394 5.05266 0.736262C5.14359 0.8606 5.28418 0.926242 5.42618 0.926242C5.45485 0.926242 5.4835 0.923458 5.51147 0.918568L6.64952 5.39544Z"/>
</mask>
<path d="M5.80037 0.190706C5.71014 0.0663675 5.56885 0.000703475 5.42686 0.000703475C5.33173 0.000703475 5.23591 0.0300303 5.15337 0.0894053C5.05055 0.164847 4.9876 0.27452 4.96941 0.391175H0.921612C0.910421 0.320623 0.883145 0.251473 0.83768 0.190002C0.747449 0.065664 0.606133 0 0.463442 0C0.368314 0 0.272493 0.0293481 0.189956 0.0887232C-0.0163861 0.239606 -0.0618387 0.528788 0.0892459 0.734855C0.180177 0.859193 0.320734 0.924857 0.464125 0.924857C0.558553 0.924857 0.65439 0.896224 0.736927 0.835452C0.744621 0.829863 0.75162 0.824263 0.758614 0.818675L6.24036 5.69163C6.01723 5.9878 6.00253 6.40622 6.23335 6.72056C6.40262 6.95177 6.66491 7.0747 6.93141 7.0747C7.10838 7.0747 7.28744 7.02023 7.44132 6.90847C7.56443 6.81836 7.65676 6.70239 7.71622 6.57246L11.9697 8.1239C11.9452 8.24684 11.9697 8.37957 12.0501 8.48854C12.141 8.61218 12.2816 8.67784 12.4243 8.67784C12.5187 8.67784 12.6146 8.64919 12.6964 8.58911C12.7216 8.57025 12.744 8.55071 12.7643 8.52836L14.6409 9.79199C14.5975 9.92751 14.6179 10.0812 14.7088 10.2048C14.7633 10.2796 14.8368 10.3334 14.9172 10.3641L13.903 14.3143C13.8876 14.3129 13.8729 14.3122 13.8575 14.3122C13.7624 14.3122 13.6666 14.3408 13.584 14.4009C13.3777 14.5518 13.3329 14.841 13.484 15.0477C13.5742 15.1714 13.7155 15.237 13.8575 15.237C13.9526 15.237 14.0485 15.2077 14.1303 15.1476C14.2856 15.0352 14.35 14.8438 14.308 14.6684L21.6663 11.6864C21.674 11.6983 21.6817 11.7102 21.6901 11.722C21.7804 11.8457 21.9217 11.9113 22.0644 11.9113C22.0707 11.9113 22.077 11.9113 22.0826 11.9106L23.0583 16.859C23.0303 16.8716 23.003 16.8877 22.9772 16.9065C22.7701 17.0574 22.7254 17.3466 22.8765 17.5534C22.9667 17.677 23.108 17.7426 23.2507 17.7426C23.3458 17.7426 23.4409 17.7133 23.5235 17.6532C23.7172 17.5121 23.769 17.2502 23.6508 17.0476L25.8792 14.0754C25.9478 14.1131 26.0254 14.1326 26.1031 14.1326C26.1982 14.1326 26.294 14.1033 26.3759 14.0425C26.4241 14.0083 26.4633 13.9657 26.4934 13.9189L34.4393 17.6127C34.4009 17.7454 34.4225 17.8942 34.5107 18.0144C34.6009 18.138 34.7415 18.2037 34.8842 18.2037C34.9793 18.2037 35.0751 18.1743 35.1569 18.1136C35.364 17.9634 35.4088 17.6742 35.2577 17.4681C35.1668 17.3438 35.0261 17.2781 34.8835 17.2781C34.8835 17.2781 34.8786 17.2781 34.8765 17.2781L33.9944 12.1069C34.0119 12.0971 34.0294 12.0867 34.0455 12.0741C34.2525 11.9232 34.298 11.634 34.1463 11.4286C34.056 11.3043 33.9154 11.2386 33.7727 11.2386C33.6902 11.2386 33.607 11.261 33.5328 11.3057L27.7552 6.86794C27.879 6.59412 27.8552 6.26301 27.665 6.00316C27.4957 5.77125 27.2327 5.64831 26.9655 5.64831C26.7885 5.64831 26.6102 5.7021 26.457 5.81456C26.3528 5.8907 26.2702 5.98641 26.2108 6.09259L18.311 3.8957C18.3194 3.78882 18.2914 3.67916 18.2236 3.58625C18.132 3.46191 17.9914 3.39625 17.8487 3.39625C17.7535 3.39625 17.6577 3.4249 17.5759 3.48497C17.5528 3.50174 17.5318 3.52058 17.5129 3.54014L13.831 1.37122C13.8785 1.23291 13.8596 1.07433 13.7673 0.947901C13.6771 0.823563 13.5358 0.757899 13.3938 0.757899C13.2987 0.757899 13.2035 0.787252 13.121 0.847325C12.9923 0.940928 12.9265 1.08832 12.9314 1.23571L7.55395 5.61128C7.38747 5.43735 7.16013 5.34586 6.93 5.34586C6.88244 5.34586 6.83489 5.34935 6.78733 5.35773L5.64651 0.866873C5.6647 0.857094 5.68286 0.845915 5.70034 0.833341C5.90669 0.685951 5.95146 0.396772 5.80037 0.190706ZM12.4229 7.75368C12.3278 7.75368 12.232 7.78231 12.1494 7.84239C12.0935 7.8836 12.0494 7.9346 12.0179 7.99118L7.76378 6.43974C7.77497 6.39923 7.78334 6.35803 7.78824 6.31542L17.1003 6.68353C17.1038 6.69191 17.1065 6.6996 17.1107 6.70798L12.8398 8.01423C12.8279 7.98978 12.8139 7.96603 12.7964 7.94298C12.7062 7.81934 12.5656 7.75368 12.4229 7.75368ZM14.8081 9.55867C14.7668 9.58871 14.7319 9.62504 14.7039 9.66486L12.8426 8.41169C12.8804 8.32996 12.8936 8.23915 12.8811 8.14974L17.1926 6.83092C17.224 6.86445 17.2597 6.8924 17.2982 6.91476L15.3355 9.54541C15.2593 9.49582 15.1711 9.46997 15.0816 9.46997C14.9864 9.46997 14.8906 9.4986 14.8081 9.55867ZM26.1024 6.48726C26.101 6.52358 26.1024 6.55921 26.1052 6.59553L15.5237 9.79687C15.509 9.74868 15.4859 9.70329 15.4551 9.66068C15.4502 9.65439 15.446 9.6481 15.4404 9.64181L17.4346 6.96854C17.4661 6.97553 17.4989 6.97901 17.5311 6.97901C17.6255 6.97901 17.7214 6.95038 17.8032 6.89031C17.8738 6.83931 17.9256 6.77155 17.9571 6.6961L26.1024 6.48726ZM14.0387 14.3499L15.0543 10.3941C15.0634 10.3948 15.0732 10.3948 15.0823 10.3948C15.1774 10.3948 15.2725 10.3655 15.3551 10.3054C15.4775 10.216 15.5432 10.0784 15.5453 9.93868L26.131 6.73522C26.1415 6.77364 26.1541 6.81206 26.1695 6.84908L14.2045 14.47C14.1576 14.4163 14.1002 14.3757 14.0387 14.3499ZM27.6853 6.99578L33.4216 11.4021C33.2838 11.5614 33.2691 11.7996 33.3985 11.9763C33.4887 12.1006 33.63 12.1656 33.7727 12.1656C33.8014 12.1656 33.8301 12.1628 33.8588 12.1572L34.7366 17.3033C34.7177 17.3096 34.6988 17.3173 34.6799 17.3263L27.5964 7.10544C27.6293 7.07191 27.6594 7.0349 27.6853 6.99578ZM26.9669 7.37858C27.1439 7.37858 27.3229 7.32409 27.4768 7.21162C27.4817 7.20813 27.4859 7.20463 27.4908 7.20114L34.5638 17.4081C34.5379 17.4318 34.5162 17.4583 34.4974 17.487L26.5493 13.7918C26.5843 13.6619 26.5619 13.5166 26.4759 13.3992C26.4123 13.3126 26.3241 13.2546 26.2283 13.2274L26.9012 7.87662L26.9641 7.37926L26.9669 7.37858ZM26.8228 7.36669L26.087 13.2099C25.9967 13.2127 25.9065 13.2413 25.8282 13.2986C25.6218 13.4502 25.5771 13.7394 25.7282 13.9454C25.74 13.9615 25.7526 13.9769 25.7659 13.9908L23.557 16.9358C23.5437 16.924 23.5297 16.9128 23.515 16.9023L26.7633 7.35413C26.7829 7.35902 26.8025 7.36319 26.8228 7.36669ZM26.6291 7.31081L23.3871 16.8402C23.3423 16.8262 23.2961 16.8192 23.2492 16.8192C23.2311 16.8192 23.2129 16.8206 23.1947 16.8227L22.2217 11.8855C22.2623 11.8708 22.3015 11.8499 22.3379 11.824C22.5442 11.6738 22.5896 11.3846 22.4386 11.1786C22.4372 11.1772 22.4358 11.1751 22.4351 11.1737L26.3773 7.14876C26.4521 7.21721 26.5375 7.2717 26.6291 7.31081ZM26.2688 7.02512C26.273 7.03071 26.2772 7.03628 26.2814 7.04187L22.3329 11.0731C22.2532 11.0165 22.1588 10.9872 22.0636 10.9872C21.9685 10.9872 21.8727 11.0158 21.7909 11.0759C21.6363 11.1891 21.5719 11.3797 21.6132 11.5551L14.5458 14.4198L26.2346 6.97483C26.2451 6.99229 26.257 7.00905 26.2688 7.02512ZM18.1229 4.2345C18.1949 4.18211 18.2474 4.11225 18.2781 4.03541L26.152 6.22599C26.1381 6.26511 26.1269 6.30564 26.1192 6.34545L17.9928 6.55221C18.0012 6.44534 17.9732 6.33496 17.9054 6.24136C17.8578 6.1771 17.7976 6.1282 17.7305 6.09676L17.9354 4.31552C18.0005 4.30365 18.0648 4.27711 18.1229 4.2345ZM17.7913 4.3204L17.5913 6.05694C17.571 6.05415 17.5507 6.05277 17.5304 6.05277C17.436 6.05277 17.3402 6.08139 17.2583 6.14147C17.1268 6.23786 17.0604 6.39085 17.0695 6.54243L7.79456 6.1757C7.79316 6.15056 7.79174 6.12611 7.78824 6.10096L17.4227 4.04029C17.4367 4.07312 17.4542 4.10527 17.4759 4.1353C17.5535 4.24148 17.6689 4.30504 17.7913 4.3204ZM12.9629 1.39356C12.9776 1.42919 12.9958 1.46341 13.0196 1.49555C13.1098 1.61988 13.2511 1.68625 13.3931 1.68625C13.4882 1.68625 13.5833 1.65692 13.6659 1.59685C13.7043 1.56891 13.7372 1.53607 13.7638 1.49975L17.4318 3.65961C17.3954 3.73505 17.38 3.81956 17.387 3.90269L7.75678 5.96266C7.7316 5.87953 7.69311 5.79849 7.64065 5.72375L12.9629 1.39356ZM6.64952 5.39544C6.56908 5.42269 6.49215 5.46249 6.41941 5.51488C6.38933 5.53724 6.36066 5.5617 6.33338 5.58685L0.852366 0.7139C0.888039 0.658716 0.911094 0.596545 0.920887 0.532978H4.96869C4.97918 0.604228 5.0072 0.673394 5.05266 0.736262C5.14359 0.8606 5.28418 0.926242 5.42618 0.926242C5.45485 0.926242 5.4835 0.923458 5.51147 0.918568L6.64952 5.39544Z" fill="white" fill-opacity="0.18" stroke="#FFC221" stroke-width="2" mask="url(#path-1-inside-1_2605_3536)"/>
</svg>
