<svg width="110" height="81" viewBox="0 0 110 81" fill="none" xmlns="http://www.w3.org/2000/svg">
<path d="M58.4663 64.6224L68.1364 45.7265C68.1986 45.7481 68.2658 45.7593 68.335 45.7593C68.3959 45.7593 68.4547 45.7502 68.5099 45.7334L74.3938 58.5019L74.4365 58.5389L74.4924 58.5333L89.8408 49.8157L89.8422 49.8122L89.8478 49.8108L89.8758 49.7591L90.6088 39.9524C90.9341 39.9398 91.1943 39.6716 91.1943 39.3426C91.1943 39.2071 91.1495 39.0813 91.0747 38.9801L96.8537 33.5692C96.9264 33.6251 97.0173 33.658 97.116 33.658C97.3538 33.658 97.5475 33.4645 97.5475 33.227C97.5475 33.0083 97.3845 32.8281 97.174 32.8002L96.7907 19.38C97.0222 19.3353 97.1754 19.1118 97.1327 18.8792C97.123 18.8247 97.1027 18.7751 97.0754 18.7304L108.414 8.8818C108.569 9.03339 108.782 9.12699 109.017 9.12699C109.494 9.12699 109.881 8.7414 109.881 8.265C109.881 7.7886 109.494 7.40232 109.017 7.40232C108.54 7.40232 108.154 7.7886 108.154 8.265L95.8192 9.27997C95.7744 9.08158 95.5981 8.94467 95.3988 8.94467C95.3729 8.94467 95.347 8.94677 95.3204 8.95166C95.1994 8.97401 95.0994 9.04387 95.0371 9.13956L78.5025 0.818675C78.5262 0.753712 78.5395 0.682459 78.5395 0.609114C78.5395 0.272422 78.2668 0 77.9282 0C77.6107 0 77.3497 0.242385 77.3211 0.551834L58.739 0.947203L58.7384 0.947901L58.7377 0.947203L50.3623 1.3272C50.3154 1.03731 50.0629 0.815882 49.76 0.815882C49.4222 0.815882 49.1487 1.089 49.1487 1.42569C49.1487 1.47529 49.155 1.52349 49.1662 1.57029L36.6989 6.18269L21.0868 7.64261C21.0287 7.36669 20.7832 7.15923 20.4902 7.15923C20.1523 7.15923 19.8802 7.43235 19.8802 7.76835C19.8802 7.84099 19.8928 7.91155 19.9166 7.97651L10.4046 12.7272L10.3773 12.7593L10.3696 12.7642L8.08373 18.5914C8.03407 18.5781 7.98231 18.5718 7.92915 18.5718C7.592 18.5718 7.3192 18.8442 7.3192 19.1816C7.3192 19.2571 7.33319 19.3297 7.35837 19.3961L0.037078 23.1807L0 23.2317L0.0181868 23.2918L6.69808 30.4328L6.70299 30.4342L6.70438 30.4384L6.76873 30.4531L18.1644 27.3398C18.2547 27.564 18.4743 27.7218 18.7317 27.7218C18.8926 27.7218 19.0395 27.659 19.1486 27.557L28.746 35.6662C28.7397 35.7019 28.7362 35.7389 28.7362 35.7766C28.7362 36.1133 29.0097 36.3857 29.3461 36.3857C29.3706 36.3857 29.3944 36.3843 29.4181 36.3815L35.4412 48.4123C35.2342 48.5101 35.0908 48.7204 35.0908 48.9648C35.0908 49.3015 35.3643 49.574 35.7021 49.574C35.7231 49.574 35.7441 49.5726 35.7644 49.5712L34.4585 62.9417C34.1269 62.948 33.8604 63.2183 33.8604 63.5508C33.8604 63.8875 34.1339 64.16 34.4704 64.16C34.5592 64.16 34.6431 64.1411 34.7194 64.1076L40.1109 73.1892C40.0682 73.2555 40.0437 73.3352 40.0437 73.4204C40.0437 73.6593 40.2361 73.8521 40.4753 73.8521C40.5746 73.8521 40.6663 73.8185 40.739 73.762L50.8057 80.1297C50.7931 80.1703 50.7861 80.2136 50.7861 80.2583C50.7861 80.4958 50.9792 80.6893 51.2177 80.6893C51.4562 80.6893 51.65 80.4958 51.65 80.2583C51.65 80.0857 51.5479 79.9363 51.4003 79.8678L57.7185 66.1661C57.8109 66.1997 57.9102 66.2178 58.0137 66.2178C58.49 66.2178 58.8769 65.8315 58.8769 65.3558C58.8762 65.0464 58.7125 64.7747 58.4663 64.6224ZM68.335 44.5404C68.1923 44.5404 68.0608 44.5893 67.9573 44.671L61.3788 37.5509L46.0584 20.9685C46.1095 20.9126 46.1536 20.8504 46.1885 20.7834L89.9989 39.1742C89.9835 39.228 89.9751 39.2846 89.9751 39.3433C89.9751 39.3726 89.9772 39.4013 89.9814 39.4292L68.9149 44.9588C68.8344 44.7157 68.605 44.5404 68.335 44.5404ZM86.7667 29.8202C86.759 29.867 86.7548 29.9152 86.7548 29.9648C86.7548 30.4419 87.1416 30.8275 87.6186 30.8275C87.7179 30.8275 87.8131 30.8108 87.9019 30.78L90.3416 38.7838C90.2199 38.8369 90.1185 38.9291 90.0542 39.0436L46.2438 20.652C46.2445 20.6492 46.2459 20.6464 46.2466 20.643L86.7667 29.8202ZM74.4903 58.3726L68.64 45.6783C68.7575 45.6105 68.8505 45.5043 68.9016 45.3772L89.61 49.7856L74.4903 58.3726ZM89.7415 49.6683L68.9387 45.2396C68.9429 45.2102 68.9457 45.1802 68.9457 45.1495C68.9457 45.132 68.945 45.1145 68.9436 45.0971L90.0171 39.5654C90.0926 39.7575 90.2626 39.9021 90.4689 39.9419L89.7415 49.6683ZM90.9788 38.8774C90.8725 38.7873 90.7347 38.7335 90.5851 38.7335C90.548 38.7335 90.5109 38.737 90.4752 38.7433L88.0313 30.7234C88.2076 30.627 88.3475 30.4713 88.4216 30.282L89.268 30.576L96.6914 33.155C96.6879 33.1788 96.6851 33.2032 96.6851 33.2277C96.6851 33.3157 96.7117 33.3981 96.7571 33.4666L90.9788 38.8774ZM97.0341 32.8044C96.9061 32.8295 96.7984 32.9105 96.7383 33.0209L88.4629 30.1465C88.4755 30.0878 88.4817 30.0277 88.4817 29.9655C88.4817 29.7518 88.4041 29.5562 88.2747 29.406L96.4941 19.3318C96.5417 19.3591 96.5942 19.3772 96.6501 19.3849L97.0341 32.8044ZM95.8282 9.42317L108.166 8.4068C108.188 8.54372 108.243 8.66945 108.322 8.77633L96.9837 18.6242C96.9103 18.5641 96.818 18.5285 96.7201 18.5264L95.503 9.79478C95.6814 9.75147 95.8087 9.5992 95.8282 9.42317ZM78.4388 0.945807L94.9805 9.27019C94.9658 9.32886 94.9623 9.39103 94.9742 9.4546C95.0099 9.64949 95.1721 9.78989 95.361 9.80666L96.5802 18.5467C96.534 18.5613 96.4913 18.583 96.4543 18.6102L78.4122 0.983528C78.4213 0.970954 78.4304 0.959079 78.4388 0.945807ZM78.3129 1.08411L95.1134 17.4968L96.3556 18.7101C96.292 18.8009 96.2633 18.9169 96.285 19.0349C96.2997 19.1146 96.3354 19.1851 96.3857 19.2424L88.1754 29.3061C88.025 29.1797 87.8312 29.1035 87.6193 29.1035C87.585 29.1035 87.5508 29.1056 87.5172 29.1091L78.1884 1.16165C78.2325 1.14139 78.2744 1.11555 78.3129 1.08411ZM77.9282 1.21963C77.9709 1.21963 78.0128 1.21544 78.0527 1.20706L87.3759 29.1378C87.1073 29.216 86.8926 29.4207 86.8016 29.6833L46.2767 20.5053C46.2823 20.4662 46.2851 20.4257 46.2851 20.3845C46.2851 20.2448 46.2522 20.1135 46.1934 19.9975L77.447 0.985622C77.5596 1.12812 77.7331 1.21963 77.9282 1.21963ZM58.7782 1.08761L77.3239 0.693637C77.3323 0.753711 77.349 0.811691 77.3742 0.865477L46.1207 19.8774C46.0773 19.8173 46.0256 19.7635 45.9682 19.7167L58.7782 1.08761ZM49.7593 2.03551C50.0818 2.03551 50.3462 1.78544 50.3686 1.46901L58.602 1.09529L45.8521 19.6364C45.7996 19.6063 45.743 19.5812 45.6835 19.563L49.6929 2.03272C49.7146 2.03412 49.7369 2.03551 49.7593 2.03551ZM49.2144 1.70231C49.2851 1.84062 49.4068 1.9482 49.5551 2.00059L45.545 19.5316C45.5052 19.526 45.4639 19.5225 45.4226 19.5225C45.282 19.5225 45.1491 19.556 45.0316 19.6161L36.8206 6.28816L49.2144 1.70231ZM44.7574 20.9349L29.8721 35.4678C29.814 35.3687 29.7287 35.2883 29.6273 35.2352L36.7437 6.43346L44.9113 19.6902C44.698 19.8473 44.5595 20.1002 44.5595 20.3852C44.5595 20.5941 44.6336 20.7855 44.7574 20.9349ZM7.42273 19.5218C7.50877 19.6489 7.64096 19.7418 7.79554 19.7761L6.69599 30.2226L0.18396 23.2631L7.42273 19.5218ZM18.1204 27.1113C18.1204 27.1428 18.1225 27.1728 18.1274 27.2028L6.83168 30.2889L7.78506 21.2227L7.93615 19.7907C8.10961 19.7893 8.26629 19.7146 8.37611 19.5966L18.2001 26.8103C18.149 26.899 18.1204 27.0017 18.1204 27.1113ZM18.2841 26.6957L8.45934 19.4827C8.5104 19.394 8.53909 19.2906 8.53909 19.1809C8.53909 18.9469 8.40758 18.745 8.21522 18.6424L10.4465 12.9521L18.3652 26.6217C18.3365 26.6447 18.3092 26.6692 18.2841 26.6957ZM18.4883 26.5518L10.5333 12.8201L19.9782 8.10295C20.0656 8.23567 20.2027 8.33276 20.3636 8.36629L18.7149 26.5022C18.6345 26.5043 18.5582 26.5218 18.4883 26.5518ZM18.8555 26.5148L20.5041 8.37886C20.8294 8.37118 21.0924 8.10783 21.0994 7.78232L36.5478 6.33846L19.073 26.6063C19.0087 26.5623 18.9352 26.5309 18.8555 26.5148ZM29.3454 35.1668C29.0999 35.1668 28.888 35.3121 28.7914 35.5209L19.2402 27.4487C19.3046 27.3523 19.3416 27.2364 19.3416 27.1113C19.3416 26.9521 19.2801 26.8068 19.18 26.6985L27.9227 16.5579L36.5751 6.52217L29.4937 35.1843C29.4468 35.1731 29.3972 35.1668 29.3454 35.1668ZM35.7015 48.355C35.6581 48.355 35.6161 48.3592 35.5762 48.3676L29.558 36.3487C29.791 36.2628 29.9567 36.0393 29.9567 35.7773C29.9567 35.7186 29.9483 35.6613 29.933 35.6076L30.815 34.7463L44.8568 21.0362C44.9246 21.0949 45.0008 21.1431 45.0848 21.178L36.0295 48.4507C35.9344 48.3899 35.8218 48.355 35.7015 48.355ZM35.9078 49.539C36.1428 49.4545 36.3114 49.2296 36.3114 48.9655C36.3114 48.8035 36.2484 48.6561 36.1449 48.5464L44.8735 22.2607L34.6306 62.6281L35.9078 49.539ZM34.6872 62.9815L37.4263 52.1858L45.2799 21.2346C45.3268 21.2423 45.3744 21.2465 45.4233 21.2465C45.4793 21.2465 45.5338 21.2409 45.587 21.2311L57.7136 64.5469C57.4255 64.6538 57.21 64.9088 57.1611 65.2196L35.081 63.5271C35.0698 63.277 34.9096 63.0661 34.6872 62.9815ZM40.4746 72.9901C40.3753 72.9901 40.2829 73.0236 40.2102 73.0802L34.8397 64.0356C34.9565 63.9469 35.0397 63.817 35.0691 63.6675L57.1485 65.3607C57.1492 65.4613 57.1674 65.5584 57.1995 65.6485L40.7936 73.1312C40.7152 73.0446 40.6012 72.9901 40.4746 72.9901ZM51.2604 79.8308C51.2457 79.8294 51.231 79.8287 51.217 79.8287C51.075 79.8287 50.9484 79.8978 50.8701 80.004L40.8362 73.6579C40.881 73.5901 40.9062 73.5091 40.9062 73.4218C40.9062 73.3617 40.8936 73.3044 40.8719 73.2527L57.259 65.7778C57.3366 65.9154 57.4506 66.0299 57.5877 66.1075L51.2604 79.8308ZM58.0123 64.4932C57.9563 64.4932 57.9018 64.4987 57.8486 64.5085L47.1909 26.4401L45.722 21.1927C45.8059 21.1613 45.8843 21.1179 45.9535 21.0635L67.8566 44.7702C67.7734 44.8743 67.7237 45.0063 67.7237 45.1495C67.7237 45.3667 67.837 45.5567 68.0084 45.665L58.3404 64.5581C58.2396 64.5162 58.1284 64.4932 58.0123 64.4932Z" fill="#FFC221"/>
</svg>
