<svg width="58" height="29" viewBox="0 0 58 29" fill="none" xmlns="http://www.w3.org/2000/svg">
<path d="M49.5488 6.64323C49.9314 6.58386 49.7495 6.60062 50.1853 6.49375C50.6189 6.38478 50.9722 6.23669 51.0498 6.22621C51.1296 6.21433 51.11 6.1361 51.2953 6.10537C51.4716 6.07603 51.7689 5.98591 51.9493 5.96845C52.1305 5.9461 52.1382 5.88882 52.283 5.8986C52.4229 5.90558 52.4229 5.80639 52.6054 5.86088C52.7873 5.90558 52.6264 5.84761 52.9768 5.79731C53.3294 5.74702 53.6239 5.63805 53.7456 5.61919C53.8645 5.60033 54.1184 5.45154 54.2359 5.38937C54.3576 5.33 54.9535 4.97305 55.0228 4.9947C55.0955 5.01496 55.6495 4.92345 55.6495 4.92345L55.9223 4.70551C55.9223 4.70551 56.093 4.49945 56.1231 4.47849C56.1559 4.45474 56.1951 4.33669 56.3665 4.36742C56.5378 4.39466 56.598 4.27731 56.84 4.139C57.082 4.00139 57.0442 3.77158 56.9092 3.8072C56.428 3.93294 56.847 3.55783 56.349 3.25536C55.8531 2.95011 55.8531 2.82647 55.1683 2.88794C54.4835 2.95011 54.1736 2.9501 54.1736 2.9501C54.1736 2.9501 53.6071 3.43279 53.2385 2.9501C52.6782 2.21316 52.1193 2.15169 52.1193 2.15169C52.8663 1.47691 52.9286 1.29389 52.4306 1.35327C51.934 1.41544 51.6143 1.03264 51.3079 1.23172C50.7477 1.60124 50.0664 1.35327 50.0664 1.35327C49.4446 1.17095 48.9437 0.802124 49.0095 1.0501C49.0682 1.29389 48.8206 1.54047 48.6346 1.60194C48.4499 1.66202 48.075 1.66202 48.075 1.66202C48.075 1.66202 47.5777 1.23242 47.3902 1.4769C47.2056 1.72279 46.895 1.54047 46.7047 1.78496C46.5201 2.03084 46.2067 1.96728 46.0186 2.03084C45.4639 2.21316 44.7784 2.3361 44.7784 2.3361L44.2146 2.21316C44.2146 2.21316 43.7194 2.21316 43.4074 2.3361C43.1004 2.45485 42.6597 2.57849 42.6597 2.57849C42.6597 2.57849 43.8432 1.90581 44.5308 1.84783C45.2128 1.78426 45.089 1.84783 45.5842 1.78426C46.0857 1.72209 46.2067 1.66062 46.6446 1.41474C46.6446 1.41474 46.846 1.31764 46.9286 1.24849C47.0083 1.17794 47.0916 1.06128 46.9678 1.04103C46.8453 1.01867 46.3326 1.00051 46.3025 1.00749C46.2697 1.01867 46.192 1.01867 46.192 1.01867C46.192 1.01867 45.9081 1.0494 45.7374 1.06826C45.5653 1.08782 44.8707 1.08084 44.7183 1.00749C44.5686 0.936943 44.4986 0.870584 44.4063 0.888745C44.3168 0.911098 44.3468 0.822386 44.2251 0.789555C44.1062 0.758122 43.76 0.553449 43.5599 0.602346C43.3592 0.651941 43.2802 0.573705 43.1158 0.651941C42.9549 0.732272 42.6709 0.769297 42.5723 0.801429C42.4709 0.831466 42.4709 0.633085 42.3296 0.633085C42.1876 0.633085 41.9659 0.533192 41.7658 0.561832C41.5651 0.594663 41.3496 0.435399 41.3496 0.473119C41.3496 0.51084 41.1894 0.443083 41.0321 0.423524C40.8698 0.403267 40.313 0.265658 40.2746 0.256577C40.234 0.243305 40.0011 0.0973101 39.9591 0.104994C39.9213 0.12106 39.7898 0.0742575 39.6772 0.097309C39.5646 0.121059 39.4856 -0.0347116 39.2946 0.00720022C39.1051 0.0456194 38.8406 -0.0347123 38.6294 0.0861334C38.4182 0.20628 38.386 0.185326 38.2244 0.286613C38.0642 0.383709 37.9411 0.366243 37.9013 0.436096C37.8628 0.505251 37.8712 0.57371 38.0642 0.644261C38.2538 0.715511 38.4287 0.802128 38.5378 0.888745C38.6504 0.982348 38.7189 1.01867 38.586 1.099C38.458 1.17794 38.1363 1.08783 38.0132 1.06128C37.8922 1.03055 37.5389 0.851024 37.4788 0.851024C37.4158 0.851024 37.4305 0.661721 37.4158 0.611427C37.4074 0.561831 37.5795 0.466834 37.3382 0.383709C37.0948 0.304076 37.2263 0.147607 36.9857 0.274739C36.7415 0.403967 36.7849 0.343892 36.6135 0.336906C36.4436 0.325031 35.2202 0.256573 35.1782 0.244C35.137 0.232823 34.9754 0.135732 34.7068 0.177644C34.4333 0.216063 34.2486 0.266356 34.1892 0.383709C34.1304 0.505253 34.0801 0.661724 34.0402 0.703636C33.9996 0.74415 33.8276 0.822384 33.759 0.88106C33.6898 0.945325 33.5639 0.888744 33.7485 1.00749C33.9297 1.13113 33.9682 1.24849 34.0612 1.34768C34.15 1.44827 34.3752 1.50555 34.4144 1.55514C34.4529 1.60684 33.9402 1.59845 33.7485 1.58588C33.5562 1.5775 33.4324 1.48599 33.3142 1.44827C33.1911 1.40845 33.0204 1.18981 32.9113 1.0997C32.7987 1.0082 32.8092 0.899222 32.6189 0.765104C32.4251 0.623303 32.6819 0.352971 32.2874 0.485691C31.8908 0.611427 31.1556 0.511539 31.1073 0.511539C31.0535 0.511539 30.7436 0.452862 30.4918 0.443781C30.2386 0.436097 30.3156 0.372531 29.9938 0.395583C29.6742 0.412347 29.4112 0.365547 29.1705 0.383709C28.9264 0.403966 27.8786 0.315254 27.566 0.352974C27.2547 0.396283 26.9707 0.50525 26.9015 0.573706C26.8287 0.644257 26.8182 0.623303 26.877 0.765104C26.9392 0.899222 27.0218 0.948121 27.2197 1.13952C27.424 1.32672 27.4443 1.37701 27.5967 1.45735C27.7471 1.53488 27.9975 1.65643 27.9975 1.69415C27.9975 1.73466 28.2605 1.60544 28.4025 1.71511C28.5438 1.82408 28.7879 1.99242 28.7942 2.06367C28.8061 2.13492 28.8865 2.10139 28.9761 2.23412C29.0677 2.36055 29.1887 2.01338 29.3601 2.39268C29.5315 2.76709 29.5916 2.86628 29.3706 2.86628C29.1495 2.86628 29.0971 2.72029 29.018 2.76709C28.9369 2.81668 28.8278 2.60922 28.7257 2.48838C28.6235 2.37242 28.5921 2.27253 28.4312 2.23412C28.2703 2.1936 28.3186 2.11187 28.0801 2.12235C27.8345 2.13492 27.5135 2.07066 27.4834 1.99242C27.454 1.91209 27.5331 1.90231 27.3743 1.78426C27.2134 1.66341 27.1008 1.37702 26.9798 1.41474C26.8574 1.45735 27.0805 1.16816 26.7287 1.1493C26.3727 1.13044 26.1908 1.17794 26.0803 1.15908C25.9712 1.13952 25.5557 0.999813 25.4662 1.06128C25.3752 1.11856 25.1941 1.21915 25.0724 1.26805C24.9528 1.31764 24.6317 1.13044 24.4897 1.11856C24.3477 1.11018 24.3673 0.989333 24.1665 1.0068C23.9623 1.02985 23.7944 0.944626 23.6629 0.959994C23.5314 0.982347 23.5832 0.898525 23.3999 0.860105C23.2188 0.822385 23.3699 0.64426 22.8557 0.753231C22.3374 0.860106 22.2395 0.881061 22.029 0.929259C21.8177 0.982347 21.7947 0.929259 21.7359 1.00749C21.6737 1.08783 21.7051 0.92926 21.6527 1.13114C21.6044 1.32742 21.7254 1.5775 21.8772 1.625C22.0283 1.67599 22.25 1.78426 22.2976 1.82407C22.3507 1.86459 22.7047 2.12235 22.6725 2.13492C22.6417 2.14191 22.2276 2.01338 21.994 1.98334C21.7653 1.9547 21.8632 1.84782 21.6723 1.82407C21.4813 1.80521 21.3302 1.58518 21.2001 1.5775C21.0658 1.56632 21.0987 1.39099 20.877 1.50554C20.6545 1.62569 20.3628 1.4769 20.202 1.48599C20.0383 1.49786 19.7473 1.39657 19.5284 1.50554C19.3039 1.61871 19.1038 1.59845 19.1612 1.72349C19.222 1.85341 19.001 1.70533 19.3969 1.9554C19.7872 2.20338 19.8606 2.40176 20.0712 2.4311C20.2824 2.45974 20.4139 2.60922 20.4139 2.60922C20.4139 2.60922 20.0817 2.69933 19.9684 2.69933C19.8571 2.69933 19.8166 2.50235 19.6557 2.44787C19.4948 2.40246 19.4843 2.29349 19.171 2.31863C18.8583 2.35146 18.7198 2.22364 18.503 2.30187C18.2924 2.38151 17.8196 2.56173 17.8497 2.65184C17.8812 2.73985 17.9189 2.63088 18.0022 2.8097C18.0819 2.98853 18.1553 2.92705 18.0532 3.05838C17.9511 3.1897 17.7294 3.10658 17.5482 3.14709C17.3664 3.1904 17.2453 3.12614 17.1656 3.25816C17.0844 3.38599 17.0551 3.51452 17.1656 3.64235C17.2782 3.77228 17.3076 3.73316 17.4496 3.82187C17.5881 3.91058 17.8504 3.97974 17.8504 3.97974C17.8504 3.97974 18.0756 3.95948 18.184 4.00209C18.2931 4.03981 18.4037 4.10897 18.7597 4.12992C19.1129 4.15018 20.0999 4.59514 20.2013 4.60492C20.2999 4.6168 20.7559 4.70621 20.9077 4.73695C21.0581 4.76768 21.2882 4.94441 21.4211 4.94441C21.5519 4.94441 21.8618 4.95768 22.0563 5.00448C22.2514 5.05478 22.3172 4.93393 22.5711 5.17492C22.8229 5.41103 22.9551 5.4711 23.0138 5.67088C23.074 5.86787 23.2062 5.94749 23.0348 5.95797C22.8641 5.96985 22.5711 5.86298 22.3354 5.69044C22.1059 5.52209 22.0073 5.38448 21.7639 5.26643C21.5233 5.14279 21.8842 5.04779 21.2386 5.05547C20.5944 5.06665 20.1495 4.97514 20.0991 4.94511C20.0495 4.91786 20.0803 4.8047 19.8557 4.76838C19.6354 4.72577 18.9884 4.61819 18.8086 4.56022C18.6268 4.50084 18.4561 4.41073 18.1539 4.3304C17.849 4.24728 17.8595 4.1404 17.6188 4.11036C17.3754 4.08172 17.2153 3.92316 17.0726 3.98114C16.9341 4.04191 16.8529 3.92386 16.7606 4.03562C16.6718 4.1411 16.592 4.1411 16.9746 4.3311C17.3566 4.51831 17.4552 4.60632 17.6077 4.70691C17.758 4.8047 18.0224 4.76838 17.7909 4.8543C17.558 4.94511 17.3761 4.94511 17.1859 4.91786C16.9942 4.88713 16.6802 4.58117 16.5598 4.58117C16.4388 4.58117 16.7431 4.91787 16.1577 4.34018C15.5722 3.76459 15.7226 3.80022 15.5722 3.76459C15.4197 3.72338 14.9462 3.55643 14.8343 3.54665C14.7217 3.53478 14.3307 3.50614 14.2006 3.50614C14.0698 3.50614 13.8061 3.39717 13.6438 3.44746C13.4822 3.49426 13.592 3.54665 13.2821 3.35595C12.9688 3.16805 12.8303 3.11915 12.5939 3.08632C12.3638 3.05907 12.0595 2.93963 11.8105 2.96827C11.5566 2.9983 11.9623 3.0486 11.8 3.23581C11.6391 3.42371 11.4475 3.4768 11.5559 3.70173C11.6685 3.93434 11.9413 4.00279 11.8203 4.10198C11.6972 4.20187 11.3453 4.05029 11.2138 4.06007C11.0851 4.07055 10.9725 3.88474 10.6704 3.96996C10.3675 4.06007 10.3472 3.92246 10.0142 4.07055C9.682 4.22003 9.50855 4.17952 9.447 4.31922C9.38824 4.45474 9.10565 4.38698 9.59947 4.49944C10.0982 4.60422 10.5284 4.74602 10.7298 4.72437C10.934 4.70551 11.4684 4.60422 11.6783 4.64614C11.8895 4.68665 11.7377 4.67478 12.1315 4.82496C12.5239 4.97375 12.8079 5.00379 12.8576 5.19379C12.9093 5.38309 13.2815 5.33139 12.9485 5.49904C12.6121 5.66948 12.2316 5.68904 12.1413 5.68904C12.0504 5.68904 11.5552 5.29088 11.4566 5.2315C11.3544 5.17422 11.5657 5.09389 11.0649 5.05408C10.5577 5.01496 10.1122 4.90459 10.0429 4.90459C9.97019 4.90459 9.77293 4.71529 9.5596 4.90459C9.34766 5.09389 9.45747 5.25316 9.26652 5.36912C9.07486 5.48996 9.05528 5.38937 8.86363 5.36143C8.67408 5.33139 8.63071 5.22242 8.54188 5.09389C8.45025 4.96606 8.83076 4.80331 8.29777 4.82496C7.76408 4.84522 7.64586 4.83613 7.48218 4.804C7.3234 4.77536 7.24016 4.63775 6.77642 4.72437C6.31337 4.81658 6.28259 4.72437 5.97133 4.91647C5.65657 5.10228 5.55726 5.18191 5.29496 5.40963C5.03266 5.63805 5.17604 5.55282 5.01236 5.67716C4.85079 5.80709 4.87317 5.64922 4.66893 5.82805C4.46888 6.00687 4.26465 5.71908 4.17652 5.67716C4.08279 5.63874 4.24926 5.51091 3.92261 5.53117C3.59875 5.55352 3.08534 5.53117 3.10843 5.53955C3.12941 5.55352 2.83493 5.59125 2.65517 5.66948C2.46981 5.74772 2.26906 5.73864 2.07671 5.79801C1.88716 5.86158 1.83819 5.79033 1.59337 5.91746C1.35066 6.04599 1.34368 6.09768 1.1884 6.21364C1.03941 6.33448 0.869432 6.29397 0.677778 6.39246C0.484026 6.49305 0.44415 6.34147 0.272781 6.51331C0.102111 6.68095 0 6.65022 0 6.78084C0 6.91077 0.0118897 6.9918 0.361623 7.05886C0.717651 7.12871 0.797398 7.20834 1.08628 7.2272C1.38215 7.24676 1.39265 7.4647 1.66544 7.18948C1.93473 6.91007 1.92633 6.92893 2.00746 6.87933C2.0872 6.82974 2.58242 6.68864 2.62159 6.68026C2.66146 6.67117 3.49243 6.58246 3.56937 6.58246C3.64911 6.58246 4.01424 6.4714 3.89253 6.63066C3.77362 6.79062 3.86456 6.8011 3.64912 6.87933C3.44138 6.95757 3.50012 6.81018 3.0077 7.02114C2.51247 7.2272 2.33132 7.23698 2.22571 7.40742C2.12708 7.57368 1.94522 7.56599 2.08721 7.68754C2.22571 7.80349 2.23899 7.98162 2.73421 7.94389C3.22733 7.90128 3.25671 7.88312 3.39801 7.88312C3.5365 7.88312 3.9226 7.66448 4.00374 7.62536C4.08278 7.58764 4.52833 7.42838 4.62976 7.39555C4.72978 7.36551 5.12359 7.25794 5.21592 7.27051C5.30265 7.2768 5.55796 7.34665 5.48731 7.38926C5.41876 7.42908 5.39358 7.49614 4.75777 7.66448C4.12265 7.83422 4.33738 7.6547 4.02402 7.88312C3.71136 8.11154 3.84356 7.99209 3.56308 8.21981C3.28119 8.45242 3.31967 8.44125 3.1476 8.58934C2.97623 8.74092 2.99721 8.71507 2.85522 8.82614C2.71323 8.93581 2.77198 9.11393 2.95384 9.22919C3.1385 9.35213 3.07695 9.37239 3.35884 9.47088C3.64352 9.57216 3.6722 9.64132 3.88623 9.61268C4.09817 9.57985 4.09817 9.5086 4.29541 9.52886C4.49896 9.55121 4.75847 9.42198 4.78225 9.59103C4.80184 9.75868 4.73048 9.69232 4.72069 9.90048C4.7102 10.1065 4.8522 10.2281 4.95362 10.2658C5.05224 10.3056 5.57963 10.4942 5.57963 10.4942C5.57963 10.4942 6.78903 10.8519 6.89045 10.8603C6.98907 10.87 7.09958 10.9692 7.28144 11.0705C7.4633 11.1655 7.63468 11.1823 7.81584 11.2081C7.9956 11.2389 8.84685 11.1278 8.84685 11.1278C8.89512 11.0209 9.10636 10.7443 9.10636 10.7443C9.10636 10.7443 9.43299 10.4055 9.49874 10.3371C9.57078 10.2651 9.63024 10.2274 9.75265 10.1261C9.87436 10.0262 9.77503 10.0975 10.0751 9.87044C10.3808 9.64062 10.9117 9.73003 10.9739 9.69231C11.0334 9.6497 11.2642 9.54213 11.367 9.56029C11.4691 9.57915 11.8406 9.47926 11.4293 9.73772C11.0145 9.99687 10.8914 10.2162 10.7942 10.2749C10.6906 10.3343 10.4899 10.3867 10.3283 10.4837C10.1681 10.5829 10.1576 10.5333 10.0373 10.7038C9.91424 10.87 10.0268 10.5243 9.83449 10.9399C9.64424 11.3611 9.48825 11.3897 9.88485 11.4275C10.2758 11.468 9.98697 11.5567 10.4486 11.5057C10.9117 11.4561 12.1134 11.5762 12.1833 11.6147C12.2518 11.6552 12.2959 11.6147 12.5169 11.6838C12.7401 11.7551 12.7009 11.6601 12.9702 11.6943C13.2437 11.7243 13.1122 11.7048 13.4353 11.6943C13.7571 11.6838 14.1012 11.6468 14.1796 11.6559C14.2621 11.6608 14.544 11.6272 14.6041 11.5776C14.6664 11.5281 14.8343 11.5574 14.8867 11.4365C14.9364 11.3157 14.8245 11.3276 14.9986 11.1655C15.17 11.0118 15.3617 10.803 15.3883 10.6905C15.4204 10.5836 15.6058 10.446 15.7044 10.467C15.8065 10.4817 16.0178 10.1967 15.9275 10.7045C15.8359 11.2088 15.7548 11.0621 15.9045 11.2493C16.0597 11.4365 15.9856 11.3793 16.1346 11.4365C16.2899 11.498 17.1866 11.3793 17.4887 11.4282C17.7916 11.4764 18.0959 11.4973 18.2931 11.4875C18.4967 11.4764 19.0437 11.3269 19.0828 11.315C19.1234 11.3073 19.3717 11.22 19.3717 11.22L19.7074 11.1278C19.7074 11.1278 20.1621 10.8896 20.4426 10.803C20.7224 10.7129 21.8226 10.5746 22.0332 10.5054C22.2514 10.4369 22.5802 10.3559 22.711 10.2875C22.8446 10.2176 22.9404 10.1673 23.0635 10.0884C23.1859 10.008 23.2446 9.8893 23.274 9.84739C23.3069 9.80827 22.9621 10.0975 23.4062 9.61268C23.8511 9.12231 23.6399 9.14397 23.8903 9.12232C24.1414 9.10555 24.3155 9.08949 24.4554 9.01544C24.5974 8.93511 24.6177 8.96584 24.7863 8.80518C24.9604 8.64871 24.8982 8.57956 25.1416 8.4664C25.3857 8.36162 24.7989 8.64801 25.6159 8.26033C26.4321 7.86985 27.8157 7.7532 27.2883 7.88243C26.7658 8.01165 25.5424 8.65709 25.229 8.82544C24.9164 8.99588 24.9597 8.90577 24.6366 9.24316C24.3148 9.57985 24.2232 9.66367 24.1337 9.75029C24.042 9.83761 24.0812 9.84739 24.1001 9.98919C24.1225 10.1268 24.403 10.1554 24.5247 10.1457C24.6471 10.138 24.7863 10.1862 25.0437 10.1743C25.292 10.1673 25.3319 10.1065 25.5529 10.117C25.7732 10.1268 25.8264 10.0569 26.0495 10.0786C26.2712 10.0975 26.5217 9.96754 26.9455 10.0975C27.3708 10.2281 27.5611 10.2951 27.0288 10.2658C26.4923 10.2386 26.4132 10.2386 26.1188 10.2658C25.8271 10.2944 25.7473 10.3433 25.4445 10.3748C25.1416 10.4062 25.2116 10.3056 24.8681 10.3748C24.5247 10.4453 24.545 10.3867 24.2456 10.4719C23.9434 10.562 23.8504 10.5543 23.6692 10.6325C23.4881 10.7157 23.5175 10.7157 23.2342 10.8197C22.9537 10.9315 22.8292 10.9902 22.6403 11.0523C22.4473 11.1103 22.7389 10.87 22.3284 11.1823C21.9129 11.4875 21.9632 11.4568 21.7023 11.5853C21.4386 11.7153 21.5331 11.6468 21.219 11.7551C20.9063 11.8633 20.8923 11.885 20.6419 11.9325C20.3922 11.9835 20.7133 11.9227 20.1607 11.9542C19.6025 11.9835 19.1801 12.1602 19.0094 12.1602C18.838 12.1602 18.4855 12.0415 18.3036 12.0813C18.119 12.1211 17.8986 12.0121 17.6979 12.0631C17.4943 12.1127 17.4286 12.0722 17.2432 12.1595C17.0656 12.251 16.9494 12.251 16.7494 12.3411C16.5487 12.4292 16.4654 12.3789 16.578 12.5381C16.6906 12.6946 16.8725 13.1158 16.9844 13.1843C17.095 13.2534 17.3558 13.2457 17.5062 13.3931C17.6587 13.5412 17.7895 13.6816 17.949 13.7403C18.1141 13.7997 18.7653 14.1371 18.929 14.1964C19.087 14.2551 19.3116 14.2551 19.2598 14.4067C19.2101 14.5541 18.9989 14.7266 19.0486 14.793C19.101 14.8635 19.0709 14.8999 19.2717 14.9432C19.4724 14.9809 19.7655 15.0214 19.8438 15.0109C19.9236 15.0018 20.4321 15.0214 20.5321 15.0214C20.6329 15.0214 20.6622 15.0018 21.2582 15.0109C21.8534 15.0214 22.3053 15.0521 22.1857 15.0933C22.0653 15.1297 21.4386 15.24 21.1505 15.2498C20.8532 15.2596 20.0068 15.21 19.9376 15.2191C19.8648 15.2296 19.6641 15.1527 19.322 15.1597C18.9793 15.1716 18.8961 15.21 18.6855 15.0724C18.4743 14.9341 18.6366 15.1297 18.2113 14.6435C17.7888 14.1559 17.9602 13.9478 17.779 13.9994C17.5986 14.049 17.053 13.9093 16.9488 13.8905C16.8522 13.8681 16.911 13.6991 16.7487 13.632C16.5906 13.5615 16.7725 13.5615 16.3472 13.4525C15.9247 13.3456 15.8835 13.2157 15.7212 13.1542C15.5603 13.0949 15.5827 13.0138 15.3596 12.9237C15.1343 12.8364 15.1162 12.7407 14.8944 12.7183C14.6748 12.6946 14.4419 12.6164 14.2684 12.6254C14.0991 12.6373 14.0782 12.5486 13.8564 12.5591C13.6333 12.5675 13.3899 12.4704 13.1786 12.52C12.9674 12.5675 13.1206 12.4298 12.5918 12.4885C12.0714 12.5486 12.17 12.6087 12.0784 12.6171C11.9882 12.6261 11.7881 12.4438 11.6041 12.4299C11.4265 12.4208 11.4265 12.33 11.1341 12.3418C10.8389 12.3495 10.6794 12.2804 10.3556 12.3796C10.0338 12.4794 10.1339 12.2922 9.87086 12.5598C9.60856 12.8259 9.65963 12.71 9.59738 13.004C9.53862 13.3044 9.5491 13.2758 9.689 13.5126C9.83099 13.7543 9.83798 13.771 10.0415 13.8828C10.2423 13.9911 10.3115 14.0008 10.3248 14.0707C10.3346 14.1385 10.3248 14.1196 10.2423 14.2872C10.1639 14.4577 10.2332 14.5073 10.3444 14.5785C10.457 14.6449 10.6088 14.7329 10.79 14.8062C10.9697 14.8726 11.2019 15.0319 11.4831 15.0535C11.7678 15.0738 12.6233 15.3511 12.8967 15.481C13.1667 15.6075 13.1577 15.919 13.308 16.014C13.4605 16.1139 13.534 16.1537 13.6249 16.2767C13.7102 16.3926 13.8026 16.4827 13.9935 16.5826C14.1894 16.6818 14.125 16.6511 14.3272 16.8006C14.5307 16.9507 15.3575 17.5557 15.4463 17.5843C15.5393 17.6129 15.6506 17.7925 15.7506 17.8351C15.8506 17.8714 15.9408 17.8449 16.1115 17.9231C16.2864 18.0034 16.3129 17.9748 16.4633 18.0034C16.6186 18.0342 16.8005 18.0893 16.8005 18.0893C16.8005 18.0893 16.939 18.1103 17.0509 18.1033C17.1614 18.0893 17.2118 18.0488 17.4125 18.0439C17.6161 18.0342 17.9063 18.0342 18.0085 18.0034C18.1113 17.9748 18.4239 17.8637 18.4533 17.8637C18.4827 17.8637 18.796 17.7408 18.887 17.8043C18.9772 17.8637 19.0849 17.7149 18.9968 17.9112C18.908 18.1103 18.8548 18.141 18.5743 18.2102C18.2889 18.2814 17.6559 18.5196 17.5965 18.5273C17.5349 18.5399 16.8984 18.5273 16.8494 18.5895C16.7998 18.6461 17.0194 18.5273 17.2509 18.6908C17.4845 18.8451 17.6042 18.7997 17.6769 18.9639C17.7483 19.1343 17.8462 19.2147 17.7874 19.3118C17.7252 19.4138 17.6559 19.4613 17.5139 19.5108C17.3726 19.5625 17.1824 19.5625 17.1824 19.5625C17.1824 19.5625 16.8396 19.4326 16.6683 19.3732C16.4976 19.3118 16.385 19.0729 16.0947 18.9234C15.8023 18.776 15.7883 18.6377 15.5393 18.5895C15.2854 18.5399 15.5148 18.4903 15.1973 18.4903C14.8734 18.4903 14.125 18.3904 13.9683 18.3785C13.8033 18.3695 13.3486 18.2528 13.0786 18.2528C12.8058 18.2528 12.7548 18.2528 12.482 18.2416C12.2085 18.2297 12.2623 18.1599 12.0294 18.2102C11.7972 18.2619 12.3407 18.3122 12.0777 18.3206C11.8182 18.3282 11.3929 18.2242 11.1229 18.3904C10.8536 18.5567 11.0641 18.528 10.6144 18.5979C10.1737 18.6698 10.6284 18.3904 10.0017 18.6265C9.37565 18.8682 9.2847 19.0058 9.11613 19.1336C8.94197 19.2636 8.73073 19.4606 8.54047 19.7022C8.34882 19.939 8.29637 20.0264 8.23762 20.2799C8.17676 20.5258 8.16487 20.7326 8.21663 20.8241C8.267 20.9121 8.5202 21.0902 8.59853 21.0846C8.68037 21.0707 8.99443 21.1217 8.94127 21.2411C8.8916 21.3578 8.99444 21.4667 9.12664 21.4779C9.25464 21.4884 9.60787 21.3997 9.68831 21.3396C9.77155 21.2795 10.0513 21.0127 10.0814 21.0127C10.1136 21.0127 10.2521 20.7424 10.4031 20.8513C10.5556 20.9617 10.5759 20.8136 10.6088 21.1405C10.6347 21.4674 10.7074 21.4598 10.8977 21.517C11.0907 21.5785 11.3425 21.5687 11.4831 21.5443C11.6216 21.5282 11.8657 21.4674 11.949 21.4304C12.0287 21.3927 12.7646 20.9247 12.7541 20.8835C12.7422 20.8422 12.6338 20.8835 12.7023 20.7214C12.7757 20.567 12.8772 20.354 12.8863 20.2359C12.8968 20.1172 12.9065 19.909 13.0248 19.8895C13.1514 19.8706 13.4025 19.7882 13.3486 19.9467C13.3017 20.1074 13.329 20.2303 13.329 20.4539C13.329 20.6844 13.3017 20.8248 13.6123 20.9009C13.9236 20.984 14.1656 21.1119 14.1656 21.2299C14.1656 21.3508 14.3279 21.3207 13.7445 21.4081C13.1577 21.5003 12.987 21.4779 12.845 21.517C12.703 21.5548 12.6533 21.5072 12.3407 21.6965C12.0294 21.8838 11.9791 21.867 11.8077 22.0242C11.6363 22.182 12.1001 22.3127 12.242 22.3329C12.3805 22.3518 12.482 22.1743 12.6827 22.2149C12.887 22.2526 12.9184 22.365 12.9072 22.4314C12.8975 22.5026 12.9177 22.6109 12.717 22.7911C12.5127 22.9686 12.3938 22.9595 12.3938 23.0971C12.3938 23.2354 12.2819 23.1572 12.3715 23.3276C12.4631 23.4939 13.1283 23.4429 13.2899 23.4547C13.4507 23.4652 13.541 23.4058 13.6941 23.5225C13.8459 23.6426 15.3372 23.4939 15.4162 23.4939C15.4967 23.4939 15.689 23.5344 15.8429 23.285C15.9891 23.0363 16.0031 23.0803 16.1241 22.8484C16.243 22.62 16.5081 22.3329 16.5165 22.2819C16.527 22.2323 16.3458 22.182 16.6396 22.043C16.932 21.9061 17.2523 21.8838 17.2817 21.8942C17.3146 21.9061 17.4559 22.0249 17.3936 22.1157C17.3349 22.2037 16.5466 22.9595 16.4766 23.0852C16.4039 23.2152 16.4437 23.315 16.2143 23.5127C15.9821 23.7139 16.0947 23.6322 15.7296 23.8313C15.3659 24.0303 15.1141 24.0792 14.7811 24.1617C14.4475 24.2385 14.0656 24.1721 13.7039 24.249C13.3402 24.3286 13.1765 24.3167 13.1765 24.3167C13.1765 24.3167 13.0052 24.3 12.6233 24.2301C12.2379 24.1617 12.3204 24.089 12.1085 24.0199C11.8979 23.9507 11.786 23.3751 11.1082 23.1264C10.4367 22.8778 9.96389 22.5495 9.90933 22.5027C9.85967 22.4503 9.82121 22.3127 9.64005 22.3022C9.45889 22.2938 9.56729 22.2742 9.18538 22.2938C8.80347 22.3127 8.56987 22.1946 8.31036 22.2533C8.04527 22.3126 7.92214 22.1946 7.75287 22.3127C7.5801 22.4314 7.56053 22.3818 7.40734 22.5187C7.25836 22.6605 7.26886 22.4831 7.11637 22.7814C6.96459 23.0803 7.13736 23.3339 7.21849 23.4659C7.29753 23.5938 7.3416 23.4848 7.45911 23.6615C7.58011 23.8424 7.63047 23.8424 7.70251 24.031C7.77176 24.2203 7.76127 24.3978 7.87388 24.4187C7.98649 24.439 8.1243 24.3978 8.40619 24.4781C8.68947 24.5598 8.9112 24.5947 9.00283 24.696C9.09306 24.7931 9.02381 25.1249 8.95386 25.1536C8.88182 25.1836 8.34742 25.1417 8.10331 25.134C7.85919 25.1249 7.41924 25.0439 7.11567 25.1012C6.8128 25.1648 6.50013 25.1934 6.37213 25.2409C6.24132 25.2926 6.5617 25.2318 6.06718 25.4497C5.57475 25.6719 5.71253 25.5915 5.38938 25.799C5.06832 26.0072 5.00818 26.0456 4.73749 26.207C4.464 26.3648 4.464 26.2181 4.47519 26.4738C4.48358 26.7322 4.22406 26.8244 4.5661 27.3176C4.90954 27.8122 4.94873 27.8674 5.1201 27.8834C5.29147 27.9051 5.53556 27.9428 5.6244 27.8506C5.71323 27.7675 5.90699 27.597 5.93707 27.5376C5.96785 27.4762 6.11823 26.9292 6.10005 26.9006C6.07557 26.8726 6.37283 26.9299 6.37283 26.9809C6.37283 27.0305 6.20007 27.1772 6.22036 27.3763C6.24204 27.5754 6.20637 27.4762 6.26862 27.6962C6.32877 27.9128 6.58408 28.0043 6.76314 28.042C6.945 28.0825 7.11636 28.1705 7.22827 28.0825C7.34158 27.9952 7.38915 28.0043 7.48777 27.9051C7.5899 27.8045 7.64305 27.7346 7.69272 27.6962C7.74238 27.6557 7.74239 27.3986 7.91375 27.5467C8.08512 27.6962 8.24599 27.685 8.28656 27.8129C8.32923 27.9435 8.37891 27.9826 8.52999 28.0217C8.68038 28.0616 8.88252 28.0133 8.91189 28.0357C8.94127 28.0504 9.87016 28.1139 9.9492 28.0217C10.0331 27.9351 10.0331 27.6962 10.1534 27.5754C10.271 27.4552 10.457 27.5467 10.4444 27.6368C10.4367 27.7269 10.4032 27.8122 10.457 27.9128C10.506 28.014 10.6277 28.0616 10.8284 28.0832C10.8284 28.0832 11.323 28.1635 11.3705 28.1635C11.4251 28.1635 11.4936 28.093 11.5132 28.1712C11.5377 28.2536 11.6944 28.3011 11.714 28.3298C11.7349 28.3626 12.0777 28.2963 12.1203 28.2914C12.3309 28.2669 12.4407 28.2061 12.4925 28.2669C12.5435 28.341 12.6533 28.2914 12.7226 28.3214C12.7946 28.35 12.9366 28.2537 12.966 28.2327C12.9989 28.2103 13.059 28.1209 13.059 28.1209C13.059 28.1209 13.0863 28.0622 13.045 27.9777C13.0059 27.8841 12.952 27.8052 12.9464 27.7535C12.9366 27.706 12.966 27.5977 13.059 27.6368C13.1507 27.6746 13.3192 27.706 13.3409 27.7675C13.3584 27.8261 13.5815 27.7346 13.6018 27.8261C13.6242 27.9128 13.8026 27.8834 13.8648 27.9351C13.9236 27.9826 14.0537 27.9777 14.1054 27.8939C14.1593 27.8129 14.2278 27.7353 14.2467 27.685C14.2663 27.6375 14.2761 27.3183 14.2761 27.2778C14.2761 27.238 14.4398 27.1311 14.4768 27.1905C14.5202 27.2492 14.7412 27.4769 14.721 27.5139C14.6979 27.5572 14.2971 27.2988 14.7713 27.6417C15.2449 27.9959 15.1239 27.727 15.1861 27.7675C15.2449 27.8045 15.6491 27.8429 15.6491 27.8429C15.6491 27.8429 15.8114 27.7535 15.8016 27.7263C15.787 27.6955 15.8604 27.5851 15.8996 27.625C15.9401 27.6676 16.1535 27.7528 16.2318 27.7961C16.3122 27.8338 16.3843 27.8122 16.443 27.9121C16.5067 28.0134 16.5661 27.9512 16.6382 28.0727C16.7074 28.1894 16.5557 27.9428 16.7074 28.1894C16.8578 28.4422 16.9816 28.35 17.011 28.4304C17.0397 28.5086 17.0922 28.5282 17.2006 28.5889C17.3132 28.6504 17.572 28.7175 17.572 28.7175C17.572 28.7175 17.856 28.6295 17.9056 28.6295C17.9581 28.6295 18.0371 28.5512 18.1106 28.5282C18.1791 28.5086 18.261 28.3906 18.361 28.3703C18.461 28.3493 18.6135 27.9631 18.6233 27.9121C18.6338 27.8625 18.7618 27.7961 18.6534 27.7158C18.5407 27.6368 18.5107 27.4454 18.3918 27.4552C18.2673 27.4685 18.1868 27.4685 18.056 27.3267C17.9245 27.1898 17.8448 27.2198 17.8658 27.0731C17.8839 26.9195 18.0175 26.8719 18.0903 26.9006C18.1581 26.9299 18.4813 26.9893 18.51 27.1185C18.5401 27.2485 18.7939 27.5258 18.7939 27.5258C18.7939 27.5258 19.0136 27.5377 19.0667 27.5852C19.1171 27.6361 19.2969 27.7158 19.3584 27.7158C19.4193 27.7158 19.3067 27.6843 19.5375 27.706C19.7704 27.7263 19.8746 27.6683 19.9194 27.6955C19.9732 27.7263 20.1341 27.6836 20.2251 27.7151C20.3153 27.7451 20.5776 27.8115 20.5056 27.9114C20.4363 28.0127 20.4167 28.181 20.316 28.32C20.2174 28.4611 20.2034 28.4611 20.1775 28.5366C20.1439 28.6169 20.2034 28.7468 20.2859 28.8257C20.3677 28.9054 20.87 28.9249 20.87 28.9249C20.87 28.9249 21.2533 28.7992 21.2812 28.7992C21.3162 28.7992 21.5065 28.6357 21.5862 28.6071C21.6653 28.5778 21.8163 28.4688 21.8779 28.4618C21.9429 28.4499 22.1185 28.3906 22.1913 28.3906C22.2605 28.3906 22.4522 28.3291 22.5235 28.3291C22.592 28.3291 22.5837 28.3291 22.8236 28.2858C23.0677 28.2327 23.4293 28.1202 23.4622 28.1202C23.4874 28.1202 23.8735 27.8122 23.9469 27.7961C24.0162 27.7724 24.2078 27.6843 24.2183 27.625C24.2274 27.5663 24.1288 27.4371 24.2274 27.3875C24.3288 27.3337 24.3988 27.2478 24.51 27.326C24.6233 27.407 24.682 27.3546 24.682 27.5041C24.682 27.6543 24.7737 27.7521 24.7989 27.7668C24.8338 27.7717 25.8404 27.2974 25.8711 27.2478C25.8998 27.1982 25.9418 27.1094 26.0061 26.9879C26.0649 26.8713 26.1719 26.6512 26.1719 26.6512C26.1719 26.6512 26.1719 26.5625 26.0719 26.3641C25.9712 26.1636 25.4179 25.4602 25.4179 25.4602L25.2479 25.5C25.2479 25.5 25.1955 25.4602 25.0961 25.5399C24.994 25.6195 24.7982 25.7396 24.6744 25.887C24.5394 26.0372 24.5093 26.1071 24.4184 26.1273C24.3281 26.1462 24.0483 26.0456 23.9637 26.0065C23.5419 25.7983 23.3908 25.8067 23.3118 25.7983C23.2286 25.7892 23.0278 25.7662 23.1796 25.6397C23.3307 25.5105 23.4874 25.4693 23.5314 25.3624C23.5741 25.2535 23.6 25.2018 23.5916 25.0998C23.5811 25.0027 23.5119 24.9531 23.5412 24.8539C23.5734 24.7533 23.7224 24.5787 23.8042 24.5647C23.884 24.5577 23.9462 24.5382 24.1281 24.4662C24.3092 24.3964 24.1575 24.3572 24.3974 24.3964C24.6415 24.4376 24.7604 24.4376 24.8919 24.3572C25.0234 24.2783 25.7599 23.6608 25.7599 23.6608C25.7599 23.6608 25.9817 23.5127 25.9516 23.4345C25.9194 23.3563 26.1817 23.7432 25.839 23.1635C25.4976 22.5893 25.4445 22.502 25.3654 22.3881C25.2857 22.2812 25.257 22.1443 25.3067 22.1324C25.3584 22.1227 25.8698 21.9445 25.8928 21.9746C25.9124 22.0032 26.2412 22.0724 26.2943 22.1108C26.3482 22.1513 26.4762 22.2197 26.5965 22.2197C26.7196 22.2197 26.9287 22.1513 27.1498 22.1513C27.375 22.1513 27.5317 22.0821 27.5645 22.1108C27.5946 22.1443 27.6548 22.2142 27.8744 22.2142C28.099 22.2142 28.4606 22.1736 28.5186 22.1813C28.5816 22.1904 28.8824 22.0731 28.9656 22.0528C29.0467 22.0325 29.1992 21.8656 29.2475 21.9047C29.2978 21.9438 29.8049 21.8831 29.8049 21.8831C29.8049 21.8831 30.1288 21.6958 30.1477 21.6574C30.1666 21.6169 30.2078 21.3571 30.1666 21.2593C30.1288 21.158 30.0456 20.9827 30.1477 20.9114C30.2456 20.8409 30.3687 20.7906 30.489 20.72C30.6086 20.6529 30.7611 20.6034 30.8611 20.4629C30.9661 20.3232 30.4806 20.0746 30.3981 20.0746C30.3176 20.0746 30.2267 19.9572 30.026 19.93C29.8238 19.8992 29.8546 19.7581 29.9756 19.7407C30.0952 19.7204 30.147 19.601 30.4163 19.6582C30.6912 19.7197 30.8821 19.6771 31.0234 19.6771C31.1661 19.6771 31.2347 19.6296 31.3557 19.6296C31.4774 19.6296 31.6585 19.5088 31.6879 19.499C31.7194 19.492 31.7418 19.3621 31.7271 19.3243C31.7187 19.281 31.6788 19.0708 31.6788 19.0708C31.6788 19.0708 31.9229 18.9548 31.9712 18.973C32.0216 18.9918 32.407 18.9045 32.3027 18.8857C32.202 18.8661 31.7187 18.7054 31.5886 18.644C31.4571 18.5874 31.5298 18.4568 31.227 18.3883C30.9213 18.3185 31.0129 18.1396 30.7723 18.192C30.5282 18.2395 29.6623 17.7911 29.6623 17.7911C29.6623 17.7911 30.0155 17.8099 30.0449 17.8225C30.0735 17.8337 30.7499 17.7135 30.8912 17.7513C31.0332 17.7911 31.3445 17.8525 31.4172 17.87C31.4865 17.8938 31.8495 17.87 31.9411 17.8518C32.03 17.833 31.8984 17.1945 31.9124 17.1652C31.9222 17.1365 31.9712 16.8571 31.8495 16.8571C31.7264 16.8571 31.5298 16.6608 31.3752 16.6301C31.2263 16.5994 31.0556 16.5791 30.7093 16.6301C30.3673 16.6797 30.2652 16.519 30.0442 16.6112C29.8224 16.6986 29.9225 16.6182 29.7406 16.649C29.5594 16.6797 29.4608 16.533 29.3363 16.533C29.2167 16.533 29.2069 16.3814 28.9544 16.431C28.7033 16.4806 28.5914 16.4415 28.5914 16.3207C28.5914 16.2047 28.8264 16.1621 28.5914 16.1048C28.462 16.0713 28.6096 15.9351 28.6096 15.8792C28.5886 15.8715 28.5683 15.8645 28.5459 15.8568C28.4809 15.8645 28.3564 15.9008 28.1304 15.984C27.2414 16.3116 27.2204 16.2997 27.1379 16.3724C27.0595 16.4415 27.0393 16.2822 27.119 16.2236C27.2022 16.1621 27.4617 15.9665 27.6324 15.8869C27.808 15.8038 28.1171 15.736 28.229 15.7549C28.2892 15.7667 28.4228 15.8135 28.5459 15.8568C28.5928 15.852 28.6096 15.861 28.6096 15.8792C28.6837 15.9057 28.7501 15.9288 28.776 15.9351C28.8418 15.9546 29.1447 15.9351 29.2062 15.9847C29.2671 16.035 29.2461 16.0454 29.3986 16.153C29.5482 16.2669 29.8322 16.2669 29.9162 16.2927C29.9952 16.3214 30.2547 16.2927 30.3673 16.2927C30.4792 16.2927 30.8702 16.343 30.8702 16.343L31.4046 16.3221L32.0684 16.0748C32.0684 16.0748 32.3013 16.0825 32.4356 16.0936C32.5664 16.1055 32.7476 16.035 32.807 16.035C32.8658 16.035 33.2407 16.0063 33.3009 15.9672C33.3596 15.9232 33.7611 15.7458 33.8332 15.7556C33.9059 15.7674 34.0969 15.6983 34.1969 15.7171C34.3004 15.736 34.4697 15.7674 34.5585 15.6368C34.6502 15.509 34.7124 15.4398 34.6935 15.3385C34.6739 15.2407 34.5117 15.0731 34.362 14.9928C34.2088 14.911 34.1899 14.7762 34.0969 14.7441C34.0052 14.7154 33.6954 14.566 33.7353 14.5373C33.7751 14.5059 34.2885 14.5736 34.3913 14.6211C34.49 14.6749 34.5809 14.6442 34.704 14.7015C34.8236 14.7629 34.9047 14.7853 35.0656 14.8894C35.2279 15.0018 35.4293 15.0221 35.5399 15.0221C35.6511 15.0221 36.2946 14.9816 36.3289 15.0116C36.3575 15.0403 36.7087 15.0221 36.773 15.0598C36.8325 15.1024 37.0962 15.0598 37.1941 15.0598C37.2976 15.0598 37.5082 14.9718 37.5872 14.9543C37.6697 14.9355 38.0901 14.7448 38.0901 14.7448C38.0901 14.7448 38.7364 14.2865 38.756 14.1915C38.7777 14.091 38.8385 13.9617 38.7987 13.9058C38.756 13.8583 38.6966 13.6998 38.6875 13.6614C38.6784 13.6236 38.5154 13.4818 38.6049 13.4246C38.6965 13.361 39.3422 13.384 39.352 13.3254C39.3632 13.2611 39.5828 13.1549 39.2533 13.1472C38.9197 13.1368 39.0197 12.9894 38.6049 13.076C38.1936 13.1661 38.3937 13.0956 38.1244 13.1242C37.8509 13.1549 37.6488 13.1465 37.9097 13.076C38.1727 13.0033 39.24 12.8252 39.24 12.8252C39.24 12.8252 39.7779 12.8182 39.8689 12.7875C39.9577 12.7554 40.0591 12.6876 40.0892 12.6499C40.1193 12.6094 40.178 12.4704 40.178 12.4704C40.178 12.4704 39.9087 12.1728 39.8556 12.1127C39.8066 12.0554 40.0892 11.9842 40.262 11.9919C40.4312 12.0024 40.804 12.0226 40.8971 12.0226C40.988 12.0226 41.2685 11.9053 41.3965 11.9227C41.5315 11.9423 41.9847 11.7642 41.9847 11.7642L42.7416 11.1962C42.7416 11.1962 44.3839 9.77823 44.3944 9.84599C44.4035 9.91934 45.0001 9.90746 45.0393 9.8879C45.0799 9.86974 45.4632 9.57846 45.636 9.5596C45.8052 9.54143 46.1298 9.44084 46.2277 9.42128C46.3298 9.40033 46.6131 9.25154 46.7054 9.2229C46.7985 9.19077 47.2797 8.92463 47.2797 8.92463C47.2797 8.92463 47.5427 8.76606 47.6945 8.68503C47.8456 8.6047 47.7141 8.69691 48.117 8.5097C48.5219 8.319 50.8784 7.33547 50.8784 7.33547C50.8784 7.33547 50.8288 7.23559 50.8889 7.22581C50.9512 7.21533 51.1114 7.11684 51.0198 7.11684C50.9281 7.11684 50.819 6.86606 50.4958 6.90658C50.1748 6.94709 49.618 7.09798 49.618 7.09798L48.6031 7.28727C48.6031 7.28727 48.0855 7.33618 47.9841 7.38577C47.8855 7.43257 47.6217 7.41581 47.4007 7.52408C47.1797 7.63095 46.7551 7.76227 46.5739 7.81117C46.3935 7.86356 46.0703 7.66239 45.9584 7.67356C45.8493 7.68125 45.9878 7.54364 46.3207 7.46331C46.653 7.38507 47.0153 7.20625 47.2286 7.15526C47.4399 7.10776 46.8362 7.1783 47.8742 6.95617C48.9227 6.74242 49.1662 6.7068 49.5488 6.64323Z" fill="white" fill-opacity="0.18"/>
</svg>
