<svg width="7" height="4" viewBox="0 0 7 4" fill="none" xmlns="http://www.w3.org/2000/svg">
<path d="M6.58081 1.86927C6.67524 1.68486 6.95504 1.86927 6.7396 1.47111C6.52067 1.07364 6.30313 0.828456 6.2087 0.796323C6.11707 0.767684 5.5568 0.581177 5.5568 0.581177C5.5568 0.581177 5.21405 0.4296 5.05807 0.45824C4.90069 0.490372 4.55866 0.519708 4.55866 0.519708C4.55866 0.519708 4.34043 0.51971 4.2488 0.45824C4.15577 0.397467 4.1243 0.305958 3.93894 0.305958C3.75008 0.305958 3.47029 0.265445 3.37447 0.245886C3.0653 0.184415 2.56729 0.0307397 2.56729 0.0307397C2.56729 0.0307397 1.41526 0 1.32363 0C1.2306 0 0.575207 0.213058 0.483577 0.336698C0.391947 0.457544 0.203781 0.366728 0.141528 0.611214C0.079276 0.856397 -0.0473238 0.94861 0.018426 1.10299C0.0792796 1.25666 -0.0074578 1.4271 0.141528 1.46971C0.671724 1.62199 0.512942 1.65692 0.671721 1.62199C0.979486 1.83853 0.610169 1.59335 0.979487 1.83853C1.3565 2.08302 1.35651 1.99012 1.51109 1.95938C1.66637 1.92934 1.82026 1.86717 1.88251 1.99011C1.94476 2.11165 1.4789 2.35545 1.66636 2.41692C1.84962 2.48048 2.10073 2.35545 2.19375 2.54195C2.28608 2.72218 2.44278 2.63276 2.60225 2.63276C2.75614 2.63276 2.75613 2.41692 2.87924 2.5706C3.00374 2.72218 3.09888 2.60412 3.16113 2.72217C3.22129 2.85 3.43812 2.6628 3.52905 2.81927C3.62628 2.97085 4.06343 3.0917 4.06343 3.0917C4.06343 3.0917 4.52928 3.09169 4.55936 3.18669C4.59224 3.2761 4.93427 3.18669 5.0259 3.24607C5.12033 3.30754 5.74285 2.99949 5.83658 2.99949C5.92821 2.99949 6.08211 2.97085 6.17933 2.90868C6.27026 2.8493 6.36259 2.63276 6.36259 2.63276C6.23808 2.35544 6.05272 2.2346 6.2087 2.20246C6.36189 2.17243 6.48848 2.05368 6.58081 1.86927Z" fill="white" fill-opacity="0.18"/>
</svg>
