<svg width="4" height="8" viewBox="0 0 4 8" fill="none" xmlns="http://www.w3.org/2000/svg">
<path d="M0.766521 6.36848C2.46063 6.90704 1.92973 7.35901 2.46063 6.90706C2.99712 6.4593 3.53079 5.83202 3.53079 5.83202L3.71129 4.93371C3.71129 4.93371 3.79732 4.21772 3.71129 3.85937C3.61826 3.49753 2.73061 1.7065 2.73061 1.7065C2.73061 1.7065 2.64108 1.25595 2.19483 0.896206C1.74647 0.539956 1.03443 0.269632 0.680497 0C0.680497 0 0.767231 1.07502 0.680497 1.34396C0.589566 1.61289 -0.21485 1.34395 0.0551442 1.52418C0.320242 1.70649 0.141202 1.97404 0.411196 2.33309C0.68049 2.69283 0.320265 4.1269 0.411196 4.66547C0.500727 5.20473 0.286688 6.22039 0.766521 6.36848Z" fill="white" fill-opacity="0.18"/>
</svg>
