<svg width="5" height="6" viewBox="0 0 5 6" fill="none" xmlns="http://www.w3.org/2000/svg">
<path d="M3.99653 2.29307C3.99653 2.29307 4.22948 1.93963 4.26655 1.78316C4.30712 1.6225 4.22945 1.35285 4.22945 1.35285L3.64402 0.842933L3.60483 0.48738C3.60483 0.48738 3.44608 0.448263 3.21385 0.409145C2.98233 0.370027 2.74661 0.332296 2.6291 0.293178C2.51089 0.251965 2.35629 0.0955016 2.20171 0.056384C2.04363 0.0158692 2.04363 -0.0225596 1.65333 0.0158595C1.49805 0.0312272 1.18607 0.409145 1.18607 0.409145C1.18607 0.409145 0.562155 0.919058 0.446044 0.919058C0.329233 0.919058 0.210332 1.03502 0.0522529 1.11605C-0.10163 1.19638 0.133368 1.54775 0.133368 1.54775C0.0144585 1.58687 0.250216 1.94031 0.250216 1.94031L0.486601 2.33569L0.446044 2.48796L0.953866 2.53057C1.06858 2.48796 1.11055 2.17434 1.11055 2.17434C1.06858 1.97875 1.38403 1.78316 1.38403 1.78316L1.53862 2.33569L1.73376 2.64654L1.38471 3.15436C1.2679 3.19767 1.26792 3.43028 1.14901 3.50921C1.0322 3.59024 0.99092 3.66708 1.11123 4.09597L1.06926 4.5682C1.06926 4.5682 1.26794 4.87903 1.30292 5.15705C1.34069 5.43227 1.30291 5.15705 1.5764 5.15705C1.84919 5.15705 1.57638 5.15704 1.73376 4.76447C1.79112 4.61498 1.96669 4.52838 1.96669 4.52838C1.96669 4.52838 1.96668 4.80499 1.92891 5.19617C1.88834 5.58804 1.92893 5.19618 2.12128 5.31493C2.31993 5.43088 2.12127 5.31492 2.51157 5.11864C2.63817 5.05507 2.82772 5.11864 3.13688 4.72467C3.2362 4.59963 3.21386 4.56679 3.25373 4.29018C3.2915 4.01705 3.25372 4.29018 3.52721 3.70341C3.63143 3.47919 3.60484 3.50783 3.56427 3.27312C3.5272 3.03562 3.56428 3.11594 3.64402 2.95877C3.72166 2.8023 3.76081 2.64653 3.99653 2.29307Z" fill="white" fill-opacity="0.18"/>
</svg>
