<svg width="6" height="20" viewBox="0 0 6 20" fill="none" xmlns="http://www.w3.org/2000/svg">
<path d="M2.74577 12.0272C2.92274 12.118 3.04302 11.9091 3.15843 11.9384C3.27594 11.9685 3.65575 12.0272 3.65575 12.0272C3.65575 12.0272 4.32657 11.9978 4.32657 12.118C4.32657 12.2339 4.67558 12.206 4.73573 12.4379C4.7735 12.5888 5.01623 12.667 5.17781 12.7355C4.99595 12.4994 4.70777 11.9985 4.70777 11.9985C4.70777 11.9985 4.386 11.4711 4.386 11.3237C4.386 11.1763 4.20904 10.9396 4.15098 10.7614C4.09292 10.5875 4.03208 10.2333 3.85931 9.90992C3.68234 9.5865 3.68233 9.43911 3.5956 9.23235C3.50817 9.02908 3.53684 8.70286 3.5956 8.49958C3.65435 8.29631 3.80057 8.49959 3.77119 8.23484C3.74042 7.9701 3.70961 7.53002 3.5956 7.41197C3.47949 7.29322 3.18714 6.8224 3.15707 6.73369C3.12769 6.64498 3.04162 6.41028 3.01085 6.26289C2.98007 6.11411 2.80591 5.61536 2.83739 5.41139C2.86467 5.20602 2.83739 5.23325 2.92132 4.90983C3.01085 4.58781 2.74435 5.02858 3.01085 4.58781C3.27455 4.14704 3.53688 3.94237 3.30465 3.94237C3.06893 3.94237 3.04163 2.8834 3.04163 2.76325C3.04163 2.6473 2.92132 2.35322 2.92132 2.35322C2.92132 2.35322 2.68981 2.00046 2.65834 1.91244C2.63106 1.82583 2.63106 1.53035 2.63106 1.38575C2.63106 1.23906 2.57228 1.20554 2.5429 0.796198C2.51212 0.38197 2.95282 0.970829 2.51216 0.381968C2.07709 -0.204797 1.57763 0.0592436 1.57763 0.0592436C1.57763 0.0592436 1.36993 0.41131 1.34475 0.53006C1.31467 0.646016 1.46016 0.7955 1.5504 0.853478C1.63643 0.910757 1.78611 1.23766 1.75463 1.35222C1.72386 1.47027 1.7861 1.73432 1.60564 1.76366C1.43357 1.79369 1.43358 1.82443 1.34475 1.99976C1.25592 2.17579 1.22581 2.35252 1.22581 2.35252C1.22581 2.35252 1.19853 1.99976 0.906856 2.11711C0.617277 2.23516 0.70263 2.08778 0.523567 2.35252C0.350099 2.62076 0.350105 2.52716 0.319328 2.85127C0.29065 3.17539 0.380849 3.20613 0.408128 3.35142C0.436806 3.49881 0.554343 3.55958 0.523567 3.82363C0.499785 4.08907 0.46692 4.1163 0.350109 4.32097C0.232599 4.52844 0.205298 4.29234 0.205298 4.67583C0.205298 5.06072 0.29065 5.08937 0.144462 5.29194C0.000371835 5.4994 -0.0303992 5.38135 0.0276565 5.67613C0.0864116 5.97161 0.350083 6.17419 0.436817 6.32367C0.523551 6.46966 0.523564 6.58841 0.616593 6.70227C0.701928 6.82242 0.820834 6.88178 0.875392 6.99843C0.934147 7.11578 0.964202 7.06272 0.99288 7.29323C1.02366 7.53003 1.02368 7.76403 1.08313 7.90933C1.13839 8.05672 1.19713 8.26698 1.11109 8.3529C1.02366 8.44161 0.964224 8.50029 0.875392 8.56036C0.787959 8.61904 0.848113 8.26697 0.787959 8.61903C0.729204 8.96829 0.848101 8.88028 0.906856 9.14712C0.964912 9.41256 0.934141 9.49848 0.964917 9.61932C0.993595 9.73528 1.08384 8.79226 0.993606 9.88336C0.906872 10.9682 1.08383 10.2669 0.964917 11.2057C0.848106 12.148 0.499064 12.2074 0.466189 12.3834C0.436811 12.558 0.350072 12.6174 0.408128 12.8507C0.466183 13.0861 0.616593 13.3264 0.616593 13.4102C0.616593 13.4997 0.758579 13.5863 0.820832 13.733C0.87539 13.8804 0.906856 13.8803 0.906856 14.2038C0.906856 14.5265 1.02436 14.6746 0.876075 14.794C0.729887 14.9114 0.585812 15.2334 0.585812 15.2334C0.585812 15.2334 0.437543 15.4709 0.437543 15.6127C0.437543 15.7629 0.370383 15.9725 0.408854 16.0898C0.672552 16.8205 0.702617 16.4677 0.702617 16.4677C0.702617 16.4677 0.702628 16.8799 0.643873 16.97C0.585817 17.0566 0.499784 17.2326 0.408854 17.3835C0.320021 17.5288 0.408844 17.2326 0.320011 17.5288C0.233278 17.8222 0.291348 17.7027 0.264768 17.9388C0.233292 18.1742 0.292042 18.2343 0.381573 18.3202C0.467608 18.4089 0.617993 18.439 0.643873 18.5584C0.672551 18.6723 0.466903 18.9978 0.585812 19.0271C0.702623 19.0585 0.702606 19.0858 0.848795 19.0586C0.993584 19.0271 1.13977 18.8797 1.19853 18.7659C1.25658 18.645 1.4035 18.3481 1.43427 18.2022C1.46085 18.059 1.48883 17.8501 1.57836 17.8843C1.66649 17.9116 1.87283 17.8229 1.90081 17.9116C1.92949 17.994 2.36734 18.0275 2.39881 18.1162C2.42609 18.2022 2.83809 18.0862 2.86467 18.2022C2.89405 18.3209 3.04166 18.3209 3.06963 18.4704C3.09761 18.6171 3.04233 19.0278 3.18712 18.9098C3.33261 18.7917 3.41863 18.7917 3.4501 18.5849C3.47948 18.3789 3.47952 18.235 3.47952 18.235V17.9395C3.47952 17.9395 3.39137 17.5295 3.30534 17.5875C3.2165 17.6461 2.86467 17.4079 2.86467 17.4079L2.72058 17.1159C2.72058 17.1159 2.65835 16.8526 2.51216 16.7639C2.36737 16.6759 2.33728 16.409 2.22117 16.3818C2.10436 16.3504 1.87212 15.9676 1.87212 15.9676L1.7861 15.6728L2.07709 14.8199L2.04631 14.261C2.04631 14.261 2.0183 14.0564 2.0183 13.8804C2.0183 13.7036 2.16311 13.4731 2.16311 13.4731C2.36736 13.1734 2.54294 12.8207 2.57231 12.7054C2.60099 12.5846 2.51216 12.498 2.57231 12.3534C2.63177 12.2053 2.5737 11.9384 2.74577 12.0272Z" fill="white" fill-opacity="0.18"/>
</svg>
