<svg width="4" height="2" viewBox="0 0 4 2" fill="none" xmlns="http://www.w3.org/2000/svg">
<path d="M2.71491 0.0930128C2.57921 0.171947 2.36306 0.0930068 2.17071 0.171941C1.97276 0.24808 2.12807 0.229226 1.91473 0.151689C1.70069 0.0748508 1.71956 -0.0641611 1.50553 0.0336331C1.29219 0.131427 1.21454 0.0154699 1.11801 0.191499C1.05016 0.310948 0.708136 0.388485 0.649381 0.423412C0.590626 0.466022 0.43394 0.46602 0.259773 0.563116C0.0856062 0.661608 0.0674146 0.584071 0.0268456 0.739144C-0.0137235 0.897711 -0.0137122 1.05488 0.064628 1.0912C0.142269 1.13521 0.337419 1.1911 0.396174 1.23021C0.454929 1.27073 0.883717 1.40695 0.883717 1.40695C0.883717 1.40695 0.883705 1.48658 1.00261 1.58297C1.11873 1.68286 1.3922 1.74153 1.48802 1.7597C1.58385 1.77925 1.58737 1.72197 1.72027 1.77925C1.85526 1.83723 2.09028 1.83723 2.19031 1.79742C2.28613 1.76039 2.49876 1.62278 2.49876 1.62278C2.49876 1.62278 2.57991 1.54665 2.69322 1.48797C2.81213 1.4272 2.79396 1.46562 2.89118 1.3294C2.98911 1.19249 2.92893 1.17224 3.12338 1.05628C3.31853 0.936835 3.3969 0.899112 3.43397 0.819479C3.47664 0.740545 3.47662 0.663005 3.47662 0.564512C3.47662 0.467416 3.51368 0.405948 3.39687 0.308852C3.27796 0.208962 3.16466 0.0944091 3.06464 0.0944091C2.96601 0.0930121 2.852 0.015476 2.71491 0.0930128Z" fill="white" fill-opacity="0.18"/>
</svg>
