<svg width="5" height="3" viewBox="0 0 5 3" fill="none" xmlns="http://www.w3.org/2000/svg">
<path d="M3.92023 1.38289C3.97059 1.16565 3.84748 1.06855 3.47886 0.923957C3.11094 0.777265 3.28232 0.77727 2.91371 0.68227C2.54369 0.58238 2.49543 0.51183 2.17577 0.486683C1.85542 0.461535 1.75749 0.365839 1.43364 0.27014C1.11538 0.170949 1.11536 -0.0211488 0.918814 0.00190265C0.723663 0.0284468 0.55231 0.0500987 0.354362 0.152084C0.0263121 0.309952 -0.187023 0.270838 0.234056 0.708117C0.649538 1.14121 0.621545 1.30815 0.970578 1.33679C1.31332 1.35914 1.21469 1.21315 1.58261 1.45694C1.95263 1.69793 1.70921 1.38289 2.2485 1.86837C2.79129 2.35385 2.64441 2.25466 3.08578 2.4258C3.52994 2.59624 3.99717 2.71778 4.02165 2.45234C4.04753 2.18481 3.77614 1.89352 3.65164 1.67768C3.52923 1.45694 3.87197 1.60153 3.92023 1.38289Z" fill="white" fill-opacity="0.18"/>
</svg>
