<svg width="4" height="5" viewBox="0 0 4 5" fill="none" xmlns="http://www.w3.org/2000/svg">
<path d="M1.87783 4.12504C2.7109 4.53019 2.66473 4.45126 2.95851 4.33041C3.15226 4.24589 3.03964 4.04191 2.91584 3.75761C2.78993 3.46842 2.54022 3.145 2.54022 3.145C2.29331 2.65254 2.58149 2.89843 2.25274 2.37244C1.9205 1.83736 1.87783 2.08394 1.83796 1.63339C1.79459 1.18564 1.66939 1.14302 1.54418 1.10111C1.42388 1.06059 1.09164 1.01728 1.0084 0.778383C0.925163 0.52761 0.925156 0.445187 0.758683 0.366253C0.345998 0.160885 -0.278619 -0.247053 0.136863 0.204197C0.551647 0.651955 0.592909 0.735775 0.633478 1.14302C0.676146 1.54886 0.425739 1.51045 0.425739 1.87648C0.425739 2.2453 -0.361155 2.16497 0.2215 2.65324C0.800658 3.1457 0.966425 3.06188 1.37981 3.39089C1.79459 3.7178 1.04757 3.7178 1.87783 4.12504Z" fill="white" fill-opacity="0.18"/>
</svg>
