<svg width="3" height="3" viewBox="0 0 3 3" fill="none" xmlns="http://www.w3.org/2000/svg">
<path d="M1.5047 0.708906C1.42636 0.313538 1.42638 0.12843 1.16687 0.0257462C0.904574 -0.0825259 0.279944 0.180809 0.198107 0.259044C0.0568144 0.404338 -0.141113 0.47211 0.149865 0.736853C0.433848 0.997405 0.408654 0.811578 0.669555 1.05048C0.930455 1.28867 0.85422 1.36413 1.11372 1.70641C1.37392 2.05009 1.37391 2.02143 1.74253 2.28478C2.10695 2.55022 2.03001 2.91835 2.10695 2.55022C2.18459 2.1786 2.18459 2.07382 2.00342 1.83911C1.81946 1.60301 1.55998 1.65612 1.58376 1.31174C1.61034 0.968065 1.58374 1.10427 1.5047 0.708906Z" fill="white" fill-opacity="0.18"/>
</svg>
