<svg width="20" height="16" viewBox="0 0 20 16" fill="none" xmlns="http://www.w3.org/2000/svg">
<path d="M19.4622 3.82646C19.4713 3.73705 19.4196 3.48837 19.4343 3.3298C19.4483 3.16635 19.3629 3.1349 19.3902 3.04479C19.4196 2.96167 19.3902 2.85689 19.3322 2.78355C19.2776 2.7088 19.202 2.54745 19.1265 2.45664C19.0538 2.37002 18.7761 2.01797 18.746 1.89712C18.7159 1.78117 18.6747 1.83984 18.6747 1.69454C18.6747 1.54925 18.5417 1.53388 18.4718 1.39906C18.3969 1.26774 18.3242 1.26774 18.1466 1.08962C17.9731 0.912892 18.0899 1.047 18.1941 0.928247C18.2941 0.8081 18.2207 0.783655 18.2801 0.678875C18.3389 0.574794 18.12 0.428816 18.1032 0.235323C18.0906 0.0446249 17.9738 0.0739565 17.915 0.0145815C17.8563 -0.044095 17.5653 0.0914155 17.5184 0.119357C17.4765 0.147996 17.4464 0.250683 17.5345 0.327521C17.6234 0.39947 17.4324 0.694255 17.4191 0.782968C17.4009 0.869586 17.1099 0.899622 17.1099 0.794842C17.1099 0.694254 17.0071 0.634871 16.9358 0.546856C16.8609 0.460239 16.7294 0.530789 16.7022 0.471414C16.6693 0.41623 16.4776 0.471414 16.3678 0.471414C16.2475 0.471414 16.4223 0.694254 16.5119 0.794842C16.6 0.899622 16.4385 1.17903 16.3944 1.14969C16.3475 1.11966 16.1748 1.21046 16.0845 1.19439C15.9978 1.17903 15.8957 1.26774 15.8845 1.31245C15.8684 1.35786 15.8957 1.51782 15.8957 1.51782C15.8957 1.51782 15.6795 1.7658 15.6648 1.85451C15.6487 1.94672 15.6921 2.09341 15.7656 2.10459C15.8376 2.12135 15.8243 2.26804 15.8845 2.45664C15.8845 2.45664 15.7957 2.84083 15.7656 2.96167C15.7348 3.07553 15.6928 3.19358 15.7956 3.35564C15.7956 3.35564 15.8964 3.59175 15.9132 3.63296C15.9258 3.68116 15.9397 3.91726 15.9845 3.95777C16.0265 4.00388 15.9258 4.2358 15.9258 4.2358L15.811 4.41601L15.6501 4.84351L15.5914 5.05027L15.6075 5.16483C15.6075 5.16483 15.5166 5.38697 15.5019 5.43098C15.4893 5.47708 15.2263 5.77116 15.1675 5.74042C15.1087 5.71108 15.1087 5.81516 15.1675 5.94788C15.2263 6.07921 15.0346 6.23848 15.0346 6.23848C15.0346 6.23848 14.7877 6.47668 14.7268 6.55142C14.6681 6.62197 14.61 6.75399 14.5828 6.87553C14.5513 6.9887 14.3079 7.06623 14.2603 7.07741C14.2162 7.09348 13.9973 7.19826 13.9246 7.19826C13.8497 7.19826 13.7196 7.94568 13.7036 8.00506C13.6903 8.06583 13.4839 8.2258 13.4839 8.2258C13.4839 8.2258 13.279 8.35781 13.237 8.37458C13.1929 8.38785 13.1621 8.50871 13.1621 8.50871C13.1621 8.50871 12.8992 8.69869 12.8131 8.72943C12.725 8.75807 12.683 8.80208 12.2004 8.84539C11.7177 8.8887 11.9675 8.91733 11.8933 8.97671C11.8185 9.03538 11.759 9.02073 11.7177 9.03539C11.6737 9.04937 11.3359 9.15624 11.3359 9.15624C11.3359 9.15624 11.0029 9.14018 10.9861 9.09617C10.9714 9.04937 10.6371 9.0787 10.6056 9.02003C10.5783 8.96205 10.4014 8.99208 10.4014 8.99208L10.2251 8.91664C10.2251 8.91664 10.0642 9.19816 10.0474 9.31621C10.0362 9.43496 10.0041 9.76954 9.96211 9.94697C9.91804 10.1272 9.84458 10.1076 9.84458 10.1076C9.84458 10.1076 9.63962 10.2424 9.59556 10.283C9.55219 10.3312 9.43469 10.4178 9.43469 10.4178C9.43469 10.4178 9.34796 10.5784 9.33257 10.6518C9.31789 10.7251 9.22903 10.8893 9.11292 10.9906C8.99541 11.0939 9.0101 11.0499 8.89609 11.094C8.77788 11.1394 8.80726 11.182 8.79047 11.2847C8.77788 11.3894 8.79047 11.5808 8.79047 11.6388C8.79047 11.6989 8.58555 11.7876 8.58555 11.7876C8.58555 11.7876 8.45613 11.863 8.39668 11.863C8.33792 11.863 8.22252 11.9189 8.17776 11.9189C8.13439 11.9189 8.01759 11.863 7.98611 11.8169C7.95883 11.7729 7.79725 11.7268 7.7259 11.6095C7.65106 11.4893 7.63638 11.7261 7.63638 11.7261L7.42723 11.8623C7.42723 11.8623 7.26987 11.8463 7.25518 11.7135C7.24189 11.5801 6.99216 11.5801 6.99216 11.5801C6.99216 11.5801 6.71517 11.6982 6.68439 11.6381C6.65361 11.5801 6.47947 11.6821 6.36266 11.6542C6.24375 11.6269 6.24374 11.6088 6.08427 11.6675C6.08427 11.6675 5.93876 11.8002 5.8793 11.8002C5.82055 11.8002 5.73313 11.8002 5.73313 11.8002C5.73313 11.8002 5.58832 11.7869 5.51347 11.7722C5.44143 11.7576 5.41138 11.8162 5.37221 11.8162C5.32534 11.8162 5.23931 11.9182 5.23931 11.9182C5.23931 11.9182 4.98888 12.037 4.9595 11.9937C4.92873 11.949 4.79446 11.9783 4.79446 11.9783C4.79446 11.9783 4.59231 11.949 4.54684 11.9015C4.50348 11.8623 4.4286 11.8735 4.37334 11.9015C4.31599 11.9329 4.31601 12.0537 4.31601 12.0537L4.15092 12.0377L3.89071 12.0537L3.818 11.9182C3.818 11.9182 3.62984 11.9182 3.56898 11.9015C3.51023 11.8896 3.51024 12.0649 3.51024 12.0649L3.25703 12.3415L2.7513 12.7732L2.28126 13.0883L1.92803 13.244L1.50064 13.594C1.38383 13.5172 1.22997 13.8699 1.22997 13.8699L0.724242 14.2632C0.724242 14.2632 0.487831 14.3407 0.059058 14.4183C-0.0934255 14.4476 0.0975235 14.7298 0.0975235 14.7298C0.0975235 14.7298 -0.0283861 14.9065 0.030369 14.9477C0.0863263 14.9917 0.0303926 14.9477 0.220647 14.9233C0.412301 14.8905 0.293374 14.9918 0.45635 14.9918C0.615129 14.9918 0.628405 15.0819 0.79208 15.0546C0.94946 15.0218 1.12646 15.1119 1.18591 15.1119C1.24467 15.1119 1.37475 15.1119 1.49436 15.0218C1.61047 14.9331 1.65244 15.0218 1.79863 15.0546C1.79863 15.0546 2.01828 15.1845 2.1204 15.1706C2.22252 15.1545 2.34002 15.3613 2.47222 15.2872C2.60302 15.2146 2.4722 15.1985 2.48618 15.0386C2.50017 14.8751 2.4862 14.8024 2.50019 14.683C2.51697 14.5656 2.42813 14.507 2.48618 14.3917C2.54424 14.2744 2.64709 14.2136 2.82196 14.2429L2.96882 14.4183C2.96882 14.4183 3.14719 14.375 3.27449 14.3917C3.27449 14.3917 3.46613 14.4623 3.56826 14.4364C3.67108 14.4036 3.69909 14.3037 3.75644 14.2429C3.8166 14.1822 3.89005 14.1514 4.0803 14.0955C4.27266 14.0404 4.22507 14.229 4.34188 14.171C4.46079 14.1109 4.57762 14.1822 4.69443 14.0837C4.81334 13.9803 4.76506 14.0229 4.88257 13.9803C5.00148 13.9342 5.02874 14.0229 5.11828 14.0089C5.20501 13.9915 5.27638 14.041 5.3813 13.9803C5.48342 13.9202 5.64499 13.9202 5.84993 13.7568C5.99542 13.6995 5.84992 13.7568 5.96323 13.7449C6.08214 13.7267 6.08214 13.7267 6.17097 13.6862C6.25701 13.6401 6.52073 13.6268 6.65083 13.6115C6.78373 13.5947 6.85507 13.6401 6.90054 13.6401C6.9474 13.6401 7.29781 13.7568 7.65943 13.6268C8.02525 13.4913 7.77696 13.7135 7.88258 13.9049C7.88258 13.9049 7.8658 14.0501 7.83502 14.0962C7.80774 14.1409 7.749 14.2296 7.749 14.2848C7.749 14.347 7.58879 14.6125 7.53003 14.7298C7.46988 14.8472 7.50209 14.8604 7.51748 14.9799C7.53007 15.0958 7.64688 15.1852 7.72172 15.1852C7.79306 15.1852 7.85181 15.3473 7.89518 15.362C7.93784 15.378 8.05467 15.5715 8.09873 15.5715C8.1428 15.5715 8.21763 15.7133 8.21763 15.7133L8.5219 15.8314C8.5219 15.8314 8.71146 15.7015 8.7856 15.654C8.86045 15.6114 9.00521 15.4346 9.00521 15.4346C9.00521 15.4346 9.10803 15.3173 9.1528 15.2579C9.19686 15.1985 9.41581 14.9631 9.51653 14.8751C9.62006 14.7878 9.60468 14.7598 9.64525 14.6984C9.69281 14.6397 9.85299 14.5664 9.85299 14.5664C9.85299 14.5664 10.1314 14.5824 10.1754 14.551C10.2188 14.5237 10.2615 14.4797 10.2776 14.419C10.2943 14.3631 10.3951 14.2143 10.4258 14.0837C10.4531 13.9474 10.3517 13.9803 10.2615 13.8916C10.1754 13.8001 10.0306 13.8168 10.0139 13.6862C9.99846 13.5521 9.97047 13.6115 10.0418 13.4774C10.1167 13.3446 10.1475 13.2706 10.2335 13.1993C10.3202 13.1246 10.8043 13.6115 10.8043 13.6115C10.8043 13.6115 11.1127 13.7449 11.1687 13.7449C11.2274 13.7449 11.2981 13.9202 11.3736 13.9202C11.4478 13.9202 11.7527 13.8755 11.801 13.8608C11.845 13.8476 12.2836 13.9342 12.2836 13.9342L12.6019 13.8608C12.6019 13.8608 12.7627 13.8001 12.8523 13.7267C12.9404 13.6548 12.9824 13.5646 12.9985 13.4627C13.0132 13.36 13.0132 13.2608 13.0845 13.1246C13.1559 12.9919 13.2489 12.9199 13.3629 12.8892C13.4783 12.8605 13.4783 13.1553 13.4783 13.1553L13.5839 13.4173C13.5839 13.4173 13.6853 13.6401 13.7462 13.6694C13.8008 13.6995 13.8183 13.8315 13.8623 13.8315C13.9064 13.8315 14.0512 13.8315 14.2673 13.418C14.4107 13.1553 14.3715 13.1923 14.3435 13.2273C14.3435 13.228 14.3436 13.2287 14.3429 13.2301C14.3156 13.2664 14.3282 13.2475 14.3435 13.2273C14.4163 13.1225 14.3436 12.9779 14.4177 12.8033C14.4925 12.6237 14.5198 12.6098 14.5786 12.5685C14.6373 12.519 14.8108 12.6985 14.9864 12.6573C15.164 12.6091 14.9864 12.6573 15.1941 12.491C15.399 12.3297 15.3683 12.4763 15.3683 12.4763C15.3683 12.4763 15.4536 12.6398 15.5124 12.6824C15.5711 12.7278 15.5124 12.8885 15.5124 13.0205C15.5124 13.1546 15.6292 13.1351 15.7005 13.1232C15.7754 13.1071 16.0223 13.1546 16.081 13.1232C16.1405 13.0959 16.4497 12.9632 16.5651 12.8752C16.6819 12.7865 16.5651 12.8752 16.6658 12.7725C16.7714 12.6678 16.7714 12.4903 16.7714 12.4191C16.7714 12.3457 16.8435 12.1851 16.8875 12.1089C16.933 12.0363 16.9155 11.9769 17.0204 11.8449C17.1211 11.7129 17.2547 11.7128 17.31 11.6535C17.3702 11.5969 17.3974 11.4879 17.4597 11.4167C17.5149 11.3426 17.4289 11.2693 17.3981 11.1973C17.3708 11.1261 17.224 11.1261 17.2554 10.9473C17.2848 10.7691 17.1806 10.7852 17.0799 10.7098C16.9777 10.6371 16.9463 10.6078 16.9777 10.4318C17.005 10.255 16.8882 10.1537 16.9029 10.0951C16.9162 10.0343 17.1079 9.78561 17.2247 9.66336C17.3436 9.5502 17.3716 9.55021 17.5051 9.35742C17.6353 9.16602 17.6352 9.19746 17.766 8.99069C17.8996 8.78323 17.8996 8.69661 17.8262 8.4633C17.8066 8.40392 17.7514 8.25514 17.766 8.1811C17.78 8.10775 17.6212 7.6956 17.6772 7.57615C17.7374 7.4602 17.7521 7.30025 17.78 7.1361C17.8101 6.97474 17.6772 7.03619 17.6772 6.88391C17.6772 6.74001 17.6968 6.75191 17.708 6.7086C17.7206 6.66459 17.7373 6.57657 17.8108 6.48785C17.8856 6.39914 18.0745 6.35583 18.1179 6.29715C18.1598 6.23568 18.4235 6.31043 18.4823 6.23569C18.5403 6.16444 18.4977 6.14908 18.5145 6.07643C18.5257 6.00378 18.6012 5.58954 18.6012 5.58954C18.6012 5.58954 18.674 5.38418 18.7145 5.26613C18.7621 5.15018 18.8467 5.06006 18.8915 5.01815C18.9335 4.97344 19.1419 4.87075 19.1999 4.78203C19.2552 4.69332 19.1692 4.53406 19.1817 4.47259C19.1999 4.41391 19.2874 4.32521 19.3021 4.2812C19.3174 4.2351 19.4343 4.16525 19.4622 3.82646Z" fill="white" fill-opacity="0.18"/>
</svg>
