<svg width="112" height="83" viewBox="0 0 112 83" fill="none" xmlns="http://www.w3.org/2000/svg">
<path d="M107.553 11.2962C107.634 11.2774 107.833 11.3277 107.969 11.306C108.1 11.2774 108.353 11.3465 108.449 11.3465C108.549 11.3465 108.719 11.3465 108.828 11.3109C108.937 11.2767 108.979 11.2767 109.098 11.188C109.214 11.1021 109.794 10.9225 109.895 10.889C109.99 10.8548 110.307 10.6948 110.352 10.6843C110.395 10.6773 111.571 9.59183 111.805 9.38856C112.04 9.18459 111.947 9.15036 111.974 9.12521C112 9.09657 111.749 9.02602 111.582 8.88352C111.411 8.74382 111.301 8.70889 111.265 8.64462C111.232 8.58525 111.006 8.40084 110.781 8.28488C110.556 8.16753 110.343 8.25904 110.176 8.2751C110.003 8.29396 109.743 8.19896 109.671 8.20455C109.598 8.21363 109.259 8.14168 109.203 8.1326C109.148 8.12631 107.885 7.80429 107.52 7.62268C107.152 7.43826 107.204 7.53326 107.099 7.50672C106.99 7.48157 106.683 7.56819 106.611 7.59543C106.542 7.62267 106.156 7.63036 106.112 7.66598C106.065 7.70161 104.82 7.54374 104.648 7.60521C104.48 7.66598 104.236 7.59543 104.094 7.58635C103.949 7.58146 103.825 7.74631 103.789 7.79451C103.753 7.83433 103.475 7.88951 103.384 7.93142C103.297 7.97473 102.336 8.33797 102.211 8.49584C102.085 8.6544 101.943 8.81716 101.888 8.87164C101.836 8.91984 101.611 9.10845 101.567 9.16782C101.52 9.22929 101.269 9.47936 101.233 9.559C101.196 9.63723 101.046 9.77554 101.01 9.7965C100.974 9.81326 100.614 9.77065 100.535 9.71617C100.453 9.66168 100.275 9.68962 100.184 9.66168C100.096 9.63723 99.9171 9.59951 99.899 9.57576C99.8787 9.54992 99.6807 9.45073 99.6297 9.43047C99.5765 9.4172 98.5889 9.38996 98.4434 9.37948C98.3021 9.3711 98.1769 9.42488 98.1412 9.43047C98.1048 9.44234 97.9803 9.52197 97.9174 9.54992C97.8558 9.57576 97.6481 9.76297 97.6313 9.7972C97.6096 9.83282 97.2648 9.97043 97.2263 9.9369C97.1913 9.90128 97.2088 9.76297 97.2459 9.69032C97.2781 9.61907 97.3977 9.45841 97.4963 9.28517C97.5949 9.10984 97.4166 9.06304 97.3907 9.00157C97.3613 8.9394 97.2263 8.96804 97.0843 8.98271C96.9423 9.00157 96.7521 9.01694 96.645 9.05117C96.538 9.08819 96.5016 9.13429 96.4121 9.15175C96.3198 9.16852 96.24 9.22161 96.054 9.30963C95.8651 9.39694 95.9078 9.46679 95.8651 9.52896C95.8183 9.59253 95.6217 9.6994 95.6112 9.72525C95.6056 9.75109 94.3417 10.495 94.3144 10.5027C94.2878 10.5097 94.0367 10.6361 93.8542 10.713C93.6765 10.794 93.6618 10.845 93.615 10.8659C93.5709 10.8806 93.3988 10.9868 93.3268 11.049C93.254 11.1104 92.8456 11.3766 92.8057 11.4003C92.7728 11.4262 92.2958 11.6525 92.2419 11.6769C92.1902 11.7021 91.4151 12.1177 91.1591 12.2595C90.8968 12.402 91.0661 12.3545 90.9521 12.4726C90.836 12.5885 90.843 12.6388 90.7989 12.664C90.7541 12.6877 90.5758 12.9539 90.5653 12.9993C90.5548 13.0426 90.0708 13.2291 90.0708 13.2291C90.0966 13.1872 90.1862 13.0908 90.3212 12.9909C90.459 12.8917 90.3471 12.7967 90.3869 12.745C90.4198 12.687 90.4198 12.5501 90.4457 12.5243C90.4736 12.4963 90.5121 12.3636 90.5653 12.3042C90.6191 12.2414 91.05 12.0011 91.3417 11.6839C91.6397 11.364 91.4718 11.5771 91.5075 11.5512C91.541 11.5268 91.902 11.2313 91.902 11.2313L92.0265 11.1628C92.0265 11.1628 92.2412 11.0559 92.3503 10.9232C92.4559 10.7933 92.549 10.7311 92.6273 10.6529C92.7064 10.5684 93.7311 9.36969 93.9969 8.71587C94.2683 8.06344 93.9969 8.35613 93.9913 8.22271C93.9808 8.09279 93.9535 7.96705 93.9283 7.79451C93.901 7.61429 93.7919 7.46481 93.6835 7.25944C93.58 7.05756 93.4338 7.21124 93.0421 7.10926C92.6455 7.01495 92.8085 7.11834 92.5798 7.13021C92.3566 7.13999 92.2944 7.15187 92.0545 7.21823C91.811 7.2776 91.6578 7.26782 91.6578 7.26782C91.6578 7.26782 90.9402 7.35793 90.8262 7.37679C90.7108 7.38866 90.4044 7.52348 90.2163 7.53326C90.0274 7.54304 89.8924 7.64712 89.8476 7.73444C89.8001 7.82595 89.8113 8.01874 89.8113 8.08021C89.8113 8.14168 89.8267 8.47139 89.8267 8.5133C89.8267 8.5587 89.6035 8.69143 89.6035 8.69143C89.6035 8.69143 89.1664 8.71517 88.9586 8.72425C88.7544 8.73403 88.8271 8.76966 88.7802 8.75289C88.7334 8.73403 88.5823 8.87514 88.5033 8.86676C88.4207 8.85698 88.2081 8.9897 88.1612 8.98062C88.1178 8.97084 87.8842 9.01484 87.822 8.93731C87.7583 8.85698 87.317 9.0337 87.317 9.0337L86.7014 9.26492C86.7014 9.26492 86.3881 9.40672 86.316 9.40672C86.2426 9.40672 85.9943 9.59113 85.9943 9.59113C85.9943 9.59113 85.776 9.69801 85.5319 9.77485C85.2955 9.85727 85.2815 9.86565 84.7968 9.98999C84.3162 10.1108 84.6758 10.041 84.4897 10.0235C84.2981 10.0068 84.2358 10.0955 84.1812 10.1199C84.126 10.1486 83.8756 10.1569 84.1001 9.81256C84.3267 9.46539 84.2974 9.71547 84.4254 9.67007C84.5485 9.62676 84.8541 9.56598 84.9989 9.52757C85.1395 9.49403 85.6515 9.36131 85.8935 9.22859C86.1356 9.09587 86.3692 9.14128 86.5853 8.97154C86.7973 8.80599 86.9162 8.81087 87.1197 8.71587C87.3275 8.62017 87.3995 8.5594 87.5352 8.44694C87.6695 8.33099 87.8667 8.2297 87.9101 8.16054C87.9563 8.09209 87.8213 7.86017 87.8213 7.75609C87.8213 7.64712 87.6695 7.59473 87.5191 7.36422C87.3624 7.1344 87.3533 7.32021 87.3533 7.32021C87.3533 7.32021 87.04 7.25874 86.6203 7.21054C86.1985 7.15186 86.181 7.31322 85.8593 7.28878C85.5354 7.25944 85.6522 7.34885 85.5319 7.33209C85.42 7.31393 85.1136 7.4208 85.0045 7.42709C84.901 7.43896 84.3694 7.50672 84.3071 7.50113C84.2435 7.48925 83.1055 7.45572 82.8907 7.34885C82.6732 7.24477 82.4592 7.38937 82.2255 7.33977C81.9954 7.28878 81.482 7.4201 81.3141 7.33209C81.1414 7.24477 80.9875 7.36561 80.8658 7.28878C80.7364 7.21054 80.6846 7.4201 80.5951 7.43896C80.5063 7.45573 80.174 7.64293 80.0397 7.68554C79.9061 7.72815 79.8872 7.78473 79.8872 7.78473C79.8872 7.78473 79.6361 7.52418 79.5445 7.52418C79.4571 7.52418 79.3402 7.68554 79.2675 7.70161C79.1955 7.72047 78.3351 7.84411 78.1826 7.80499C78.0287 7.77286 77.9553 7.90558 77.8791 7.92235C77.7993 7.93841 77.5482 8.03131 77.2782 8.04738C77.0082 8.06414 76.8026 8.16124 76.6683 8.07253C76.5333 7.98661 76.3633 8.08161 76.2633 8.09348C76.1682 8.10256 75.8149 8.18848 75.7492 8.1808C75.6904 8.16822 75.4568 8.23948 75.403 8.22341C75.3477 8.20525 75.2064 8.43646 75.163 8.43646C75.1183 8.43646 74.9987 8.47977 74.8672 8.48885C74.7322 8.49654 74.2111 8.62646 74.1754 8.62646C74.139 8.62646 73.8886 8.57477 73.8998 8.39385C73.9061 8.20595 74.0411 8.26043 74.0698 8.24017C74.0922 8.22341 74.3803 8.1815 74.4608 8.16194C74.544 8.14517 74.9105 8.30933 74.9623 8.30444C75.0182 8.29396 75.1959 8.06415 75.2749 8.01106C75.3603 7.96076 75.5988 7.93911 75.7688 7.82734C75.9416 7.71209 76.3165 7.78543 76.4347 7.73583C76.5536 7.69322 76.9033 7.64363 77.0789 7.59613C77.2579 7.55142 77.5118 7.62337 77.537 7.60591C77.5636 7.58705 77.9553 7.68624 78.1931 7.43058C78.4239 7.17422 78.7198 7.34955 78.9241 7.21124C79.1311 7.07014 79.2598 7.16444 79.3752 7.11904C79.4899 7.07433 79.7809 7.10366 80.0208 6.97933C80.2607 6.85639 80.4237 7.02264 80.8441 6.91786C81.2659 6.81168 81.3218 6.96116 81.4477 6.94161C81.5729 6.92484 81.901 6.8983 81.901 6.8983C81.901 6.8983 82.4508 6.8983 82.5662 6.87245C82.6865 6.84381 83.1048 6.8983 83.1048 6.8983C83.1048 6.8983 84.5037 7.10297 84.7954 7.04848C85.0934 6.99749 85.5501 6.97933 85.8579 6.88992C86.16 6.79981 86.5496 6.86477 86.6637 6.84381C86.7798 6.82705 86.9868 6.87245 87.0854 6.81797C87.1841 6.76558 87.2708 6.85569 87.3827 6.83473C87.4869 6.81797 89.2097 6.70411 89.2097 6.70411C89.2097 6.70411 89.3713 6.58116 89.4594 6.5623C89.5476 6.54764 89.798 6.54764 89.9008 6.5183C89.998 6.49106 90.6059 6.40304 90.6891 6.36951C90.7702 6.33179 92.8057 6.05727 93.0274 5.82745C93.2505 5.60253 93.1659 5.72477 93.5303 5.53617C93.8989 5.35315 93.7639 5.49355 93.7639 5.49355C93.7639 5.49355 94.1312 5.33569 94.2382 5.31683C94.3466 5.29867 94.6488 5.02903 94.739 4.81109C94.8306 4.60503 94.711 4.74473 94.6488 4.62039C94.5872 4.49605 94.4774 4.54845 94.4159 4.54845C94.3571 4.54845 94.0927 4.45414 94.0927 4.45414C94.0927 4.45414 93.8073 4.2837 93.6807 4.16775C93.5555 4.05598 93.5037 3.98613 93.4835 3.94212C93.4681 3.89532 93.3051 4.00918 93.0267 4.00149C92.7497 3.9966 92.4077 3.95679 92.4077 3.95679L91.9523 3.78146C91.9523 3.78146 91.5823 3.7626 91.5382 3.78146C91.4942 3.80032 91.2647 3.71021 91.2179 3.71021C91.1745 3.71021 90.9122 3.79054 90.7954 3.82407C90.6814 3.85969 90.4562 3.97565 90.3009 3.84293C90.147 3.71021 90.1764 3.73606 90.147 3.6676C90.1211 3.59635 89.244 3.54256 89.1971 3.50693C89.1524 3.47341 88.8138 3.54256 88.76 3.57749C88.7047 3.61521 88.385 3.68646 87.9178 3.88903C87.4527 4.0944 87.382 3.97635 87.382 3.97635C87.382 3.97635 87.7765 3.60753 87.8388 3.56142C87.9017 3.51881 88.0633 3.41543 88.115 3.37701C88.1668 3.34208 88.4543 3.16256 88.5005 3.13183C88.5438 3.09341 88.625 2.92785 88.6676 2.87477C88.7145 2.81819 88.5263 2.54367 88.5165 2.4822C88.5095 2.42492 88.3557 2.30686 88.2836 2.27333C88.2137 2.23561 87.9542 2.22094 87.9185 2.22094C87.8814 2.22094 87.5863 2.19789 87.4869 2.21186C87.3883 2.22094 87.3883 2.25447 87.3883 2.25447C87.3883 2.25447 86.9504 2.18252 86.8707 2.16646C86.7868 2.15039 86.6993 2.17414 86.4657 2.23561C86.2328 2.30057 86.3671 2.25447 86.3419 2.31804C86.3146 2.37951 85.5144 2.61701 85.4718 2.58139C85.4256 2.54366 85.327 2.59885 85.327 2.59885C85.327 2.59885 84.8786 2.75742 84.6814 2.71481C84.4883 2.6715 84.4568 2.79444 83.6867 2.8105C82.9159 2.82867 83.3636 2.88245 82.9621 2.85451C82.5578 2.82866 82.8432 2.8105 82.7655 2.79444C82.6858 2.77837 82.5403 2.74764 82.1647 2.67708C81.7863 2.60793 81.8548 2.62958 81.7394 2.67708C81.6233 2.73367 81.1148 2.7148 82.1647 2.47521C83.2104 2.23631 82.3836 2.48289 82.7655 2.49686C83.1391 2.50385 83.0215 2.58138 83.2293 2.55554C83.437 2.52969 83.8217 2.48289 84.0987 2.41234C84.3771 2.34249 85.0136 2.34249 85.327 2.22164C85.6389 2.09661 85.9992 2.06308 86.2622 1.92826C86.5182 1.79764 86.4559 1.92826 86.7952 1.66282C87.1365 1.40227 86.8602 1.61043 86.386 1.34778C85.9089 1.08374 86.2615 1.36245 86.1419 1.28421C86.0243 1.20598 85.8719 1.28422 85.7487 1.22205C85.6221 1.16058 85.5767 1.23881 85.5074 1.21506C85.4354 1.18921 85.0227 1.09701 84.8702 1.02786C84.7198 0.957304 84.4456 0.869988 84.1792 0.843444C83.9099 0.817598 83.6329 0.907008 83.4874 0.974066C83.3454 1.04462 81.6513 0.851827 81.6513 0.851827C81.6513 0.851827 81.4072 0.842743 81.312 0.798736C81.2113 0.751236 80.9266 0.622009 80.8868 0.622009C80.8539 0.622009 80.4937 0.48859 80.281 0.418737C80.0635 0.347487 79.655 0.276237 79.5718 0.33142C79.4892 0.384509 79.392 0.444581 79.32 0.470426C79.2507 0.499066 79.1416 0.570318 79.0954 0.621311C79.0514 0.673701 78.1477 0.673703 77.9959 0.64646C77.8399 0.621313 77.7413 0.66881 77.5944 0.603148C77.4391 0.541678 77.3831 0.505357 77.0782 0.306975C76.776 0.101607 76.776 0.243407 76.4878 0.135135C76.201 0.0310539 76.3095 0.187526 76.157 0.0645848C76.0031 -0.0569594 73.243 0.0303543 73.243 0.0303543C73.243 0.0303543 72.8737 -0.0143512 72.6673 0.0394355C72.4617 0.0946194 72.3442 0.127453 72.1917 0.179843C72.0413 0.231534 72.1399 0.401971 72.1602 0.43061C72.1735 0.452265 72.0154 0.710024 71.9224 0.82598C71.8378 0.943333 71.7084 0.77918 71.5468 0.647158C71.3859 0.519327 71.4321 0.499769 71.3859 0.393593C71.3432 0.286718 71.0194 0.225244 70.9383 0.225244C70.8557 0.225244 68.5433 0.232229 68.3453 0.244104C68.1481 0.253185 67.7473 0.286714 67.6571 0.313258C67.5689 0.339104 67.1367 0.348185 67.0842 0.332119C67.0275 0.313258 66.8848 0.632487 66.8848 0.632487C66.8848 0.632487 66.6002 0.992929 66.4911 1.02786C66.3826 1.06348 66.3756 0.931456 66.3498 0.907007C66.3197 0.87697 66.1854 0.826678 66.1315 0.835061C66.0798 0.843443 65.7566 0.639473 65.7566 0.639473C65.7566 0.639473 64.9396 0.788958 64.7368 0.931458C64.5256 1.07326 64.4011 1.06348 64.2332 1.16058C64.0597 1.25558 63.9569 1.0565 63.8114 1.08374C63.6694 1.10749 63.4792 1.09771 63.2106 1.16058C62.9413 1.22205 62.879 1.32682 62.8531 1.41903C62.8258 1.50635 62.9315 1.70054 63.0133 1.78576C63.0951 1.88076 63.2371 1.99182 63.4351 2.07076C63.6323 2.15109 63.775 2.18392 63.9905 2.14131C64.2045 2.09661 64.5395 2.16017 64.5395 2.16017C64.5395 2.16017 65.1187 2.3334 65.0285 2.3334C64.9396 2.3334 64.7795 2.38789 64.4815 2.36204C64.1856 2.33341 64.2849 2.36833 64.1751 2.47521C64.0695 2.58138 63.7568 2.45146 63.6134 2.48289C63.4722 2.52061 63.5232 2.67708 63.505 2.75741C63.4875 2.83774 63.333 2.9083 63.3057 2.9537C63.2833 2.9991 62.7181 3.02286 62.5985 3.07106C62.4824 3.11367 62.5922 3.20866 62.6811 3.27014C62.7699 3.33161 63.0861 3.50764 63.1742 3.59705C63.2644 3.68716 63.156 3.82477 63.1014 3.85271C63.0469 3.88135 62.4642 3.73676 62.325 3.61591C62.1796 3.48878 62.1075 3.45524 62.0299 3.3316C61.9466 3.20866 61.6773 3.16256 61.6409 3.03124C61.6039 2.89921 61.6228 2.86569 61.8914 2.6708C62.1614 2.47521 62.0452 2.45775 62.0299 2.39628C62.0089 2.33271 61.7396 2.193 61.6962 2.193C61.6493 2.193 61.2654 2.06238 61.1821 2.07006C61.1024 2.07914 60.5995 2.08823 60.4491 2.14062C60.2966 2.19301 60.5204 2.28311 60.5736 2.36135C60.6253 2.43958 60.6463 2.66172 60.6911 2.69525C60.738 2.73297 60.5834 2.87407 60.4582 2.93694C60.3323 2.99841 60.3232 3.13113 60.0098 2.98653C59.6936 2.84403 59.7951 2.93694 59.5433 2.80282C59.2963 2.6701 59.4901 2.78187 59.239 2.74135C58.9865 2.69525 59.0061 2.73297 58.9347 2.70642C58.8627 2.67569 58.4542 2.65194 58.371 2.68477C58.2884 2.72459 57.9848 2.53598 57.9128 2.49547C57.8408 2.45006 57.789 2.39557 57.6631 2.32363C57.5379 2.25377 57.1951 2.18183 57.1588 2.17344C57.1224 2.16576 55.9305 1.78436 55.6731 1.78436C55.4101 1.78436 55.436 1.84723 55.357 1.84164C55.2751 1.83186 55.0541 1.9115 54.9876 1.91709C54.9268 1.92687 54.8289 1.96388 54.7841 1.98973C54.7379 2.01418 54.6596 2.12944 54.5589 2.16506C54.4602 2.19649 54.3945 2.26216 54.3099 2.28172C54.2168 2.29918 53.9133 2.31664 53.8048 2.28172C53.6978 2.24469 53.6286 2.27124 53.5971 2.27124C53.5705 2.27124 53.134 2.33131 53.134 2.33131L52.7948 2.37811C52.7948 2.37811 51.8785 2.4326 51.556 2.3858C51.2329 2.34039 51.3588 2.39488 51.3588 2.39488C51.3588 2.39488 50.6398 2.41025 50.5216 2.39488C50.4061 2.37811 50.6237 2.56532 50.6936 2.61562C50.7656 2.6687 50.8643 2.88036 50.8832 2.89712C50.9007 2.91319 50.8104 3.36653 50.7328 3.24289C50.646 3.11786 50.6132 3.26874 50.4782 3.14789C50.3474 3.02146 50.3369 3.0466 50.1907 2.9523C50.0515 2.85311 49.9578 2.86499 49.9319 2.81749C49.906 2.77697 49.6556 2.59745 49.3751 2.56602C49.0981 2.52829 49.0093 2.58069 48.7295 2.62889C48.4525 2.6708 48.5449 2.69525 48.4252 2.80282C48.3077 2.9076 48.3343 3.11367 48.3798 3.26944C48.4252 3.4308 48.526 3.44477 48.6855 3.3833C48.8463 3.32183 49.0184 3.6676 49.1548 3.63407C49.287 3.59635 49.5388 3.68646 49.5933 3.6676C49.6451 3.65083 50.5509 3.70183 50.7845 3.70183C51.0182 3.70183 51.1133 3.74863 51.1853 3.73675C51.2581 3.72767 51.8407 3.79124 51.9568 3.82477C52.075 3.86039 52.0555 4.0944 52.0555 4.0944C52.0555 4.0944 51.7421 4.07065 51.4616 4.11815C51.1846 4.16565 51.2861 4.08532 51.0713 4.13282C50.8531 4.1894 50.4971 4.239 50.4488 4.26065C50.4054 4.27672 50.5041 4.34587 50.6027 4.41712C50.7013 4.48767 50.8356 4.62179 50.9153 4.63925C50.9986 4.65881 51.2861 4.74613 51.3406 4.73635C51.3924 4.72517 51.6533 5.01646 51.6897 4.99201C51.7253 4.96617 51.9135 5.05418 51.9562 5.04789C52.003 5.03602 52.2366 5.25955 52.3241 5.27631C52.4143 5.29098 52.4437 5.46631 52.4954 5.5208C52.5493 5.57528 52.7102 5.55642 52.8088 5.54944C52.9074 5.54106 53.0333 5.63606 53.1585 5.61789C53.2844 5.60392 53.4642 5.8072 53.5614 5.82885C53.6621 5.85889 53.7307 6.06775 53.7048 6.08661C53.6789 6.10337 53.5272 6.03212 53.4453 6.01466C53.3663 5.99789 53.1879 6.01466 52.7277 5.8994C52.273 5.78624 52.5031 5.87356 52.2884 5.5676C52.0744 5.25955 51.9925 5.4237 51.9303 5.41741C51.8666 5.40973 50.7111 5.09749 50.6663 5.08003C50.623 5.06326 50.3893 4.9508 50.2704 4.89282C50.1536 4.84322 50.0123 4.8055 49.7633 4.63017C49.5094 4.45484 49.629 4.57569 49.4835 4.51422C49.3415 4.45484 49.3674 4.53098 48.6757 4.48697C47.9839 4.44227 48.5512 4.45484 48.3469 4.44227C48.1399 4.43598 48.0566 4.47091 47.9314 4.47091C47.8055 4.47091 47.7712 4.50374 47.6705 4.54914C47.5719 4.59595 47.3313 4.65811 46.8906 4.72517C46.4535 4.79712 46.5521 4.71749 46.5157 4.70072C46.4786 4.68256 46.5409 4.83275 46.5877 4.9012C46.6332 4.97525 46.7556 5.1422 46.8179 5.1422C46.8836 5.1422 47.0095 5.26304 47.1082 5.32451C47.2068 5.38738 47.3383 5.57389 47.4285 5.62348C47.5201 5.67797 47.7272 5.88613 47.7712 5.86308C47.816 5.84841 47.9132 5.98113 48.0671 5.98602C48.2168 5.9972 48.2343 6.09499 48.5141 6.16554C48.7904 6.23469 48.7288 6.15646 48.7547 6.10198C48.7806 6.04959 49.0785 6.29756 49.1953 6.34855C49.3115 6.40304 49.3737 6.36951 49.6171 6.43797C49.8578 6.50922 49.7158 6.5176 49.8319 6.55183C49.9459 6.58955 49.9823 6.64194 50.1641 6.63495C50.346 6.62098 50.3705 6.76488 50.5131 6.88852C50.6551 7.01356 50.5656 6.98422 50.674 7.06804C50.7831 7.14418 50.816 7.25804 51.1063 7.41871C51.3924 7.58007 51.4889 7.6576 51.5547 7.66389C51.6176 7.67576 51.7414 7.91186 51.7708 7.94889C51.7967 7.98381 52.0807 8.19687 52.1464 8.23738C52.2066 8.28278 52.0904 8.32959 52.0904 8.32959C52.0904 8.32959 51.8827 8.40642 51.7708 8.40642C51.6533 8.40642 51.4546 8.45183 51.4197 8.44554C51.384 8.43366 51.0706 8.35403 51.0706 8.35403C51.0706 8.35403 50.7643 8.24926 50.7104 8.19687C50.6586 8.14168 50.4481 8.01734 50.4201 7.9887C50.3942 7.96495 50.211 7.8937 50.1753 7.85878C50.1375 7.82455 49.8689 7.70929 49.8256 7.70929C49.7752 7.70929 49.3478 7.60312 49.3478 7.60312L48.8463 7.17212C48.8463 7.17212 48.6491 7.14348 48.4973 7.11624C48.3462 7.09039 48.2811 6.97654 48.0559 6.89551C48.0559 6.89551 47.7796 6.93882 47.7279 6.93323C47.6705 6.92135 47.4943 6.86966 47.4544 6.84102C47.4215 6.81517 47.2075 6.66569 47.0788 6.63356C46.9529 6.59584 46.9634 6.6594 46.8906 6.6133C46.8179 6.57139 46.7123 6.64962 46.6052 6.60422C46.4947 6.56021 46.3115 6.52459 46.2562 6.50782C46.2023 6.48966 45.4385 6.07194 45.3294 6.06495C45.2252 6.06006 45.0335 6.02933 44.9496 6.01326C44.8559 5.9951 44.8139 6.00348 44.7572 5.94131C44.7034 5.88403 44.6153 5.84631 44.6153 5.82117C44.6153 5.79253 44.3711 5.76668 44.3096 5.74782C44.2466 5.72896 44.2103 5.72337 44.2103 5.72337C44.2103 5.72337 43.9962 5.71429 43.8871 5.65072C43.7808 5.58855 43.841 5.58157 43.7983 5.43837C43.7514 5.29797 43.715 5.36852 43.6374 5.28819C43.5577 5.20995 43.4926 5.25675 43.4388 5.20995C43.387 5.16595 43.3401 5.20087 43.252 5.20087C43.1618 5.20087 43.117 5.22672 42.7351 5.21834C42.3455 5.20926 42.5427 5.19249 42.5175 5.19249C42.491 5.19249 42.2734 5.18061 42.1748 5.17223C42.0762 5.16525 41.9964 5.1401 41.8719 5.12264C41.7453 5.10308 41.6733 5.14639 41.4138 5.1401C41.1543 5.12962 40.6892 5.16525 40.6892 5.16525C40.6892 5.16525 40.508 5.39367 40.5185 5.50962C40.5283 5.62558 40.473 5.82536 40.4821 5.87006C40.4926 5.91547 40.508 6.2326 40.5542 6.26753C40.601 6.30315 40.6955 6.52389 40.7255 6.58745C40.7514 6.64892 40.9759 6.76278 41.0536 6.82425C41.1333 6.88712 41.2529 6.98282 41.2991 6.98282C41.3403 6.98282 41.5411 7.2755 41.602 7.33697C41.6649 7.39844 41.6901 7.46969 41.7265 7.48366C41.767 7.48646 41.8804 7.60242 41.9076 7.60242C41.9342 7.60242 42.2294 7.70859 42.2728 7.71767C42.3196 7.72536 42.3819 7.79591 42.4085 7.82455C42.4378 7.85039 42.3819 7.91187 42.3644 7.93631C42.3455 7.96495 42.2657 7.94889 42.1412 7.98381C42.016 8.01804 42.0216 7.96495 41.8971 7.93631C41.7726 7.91187 41.7551 7.92514 41.646 7.90349C41.5411 7.88812 41.4565 7.86646 41.4565 7.86646L41.0802 7.81687L40.8193 7.80359C40.8193 7.80359 40.6332 7.85948 40.6066 7.91257C40.5793 7.96565 40.6332 8.00337 40.6332 8.05367C40.6332 8.10606 40.3569 8.28767 40.3569 8.28767C40.2037 8.229 40.2114 8.10326 40.2177 8.00617C40.2247 7.90907 40.175 7.93003 40.2009 7.91606C40.2268 7.90069 39.9484 7.7079 39.9225 7.58495C39.8953 7.46341 39.819 7.53745 39.6973 7.30415C39.5805 7.07084 39.542 7.18679 39.5071 7.16654C39.4693 7.14348 39.3049 7.03661 39.1769 6.88852C39.0545 6.74043 39.0643 6.90039 38.9727 6.88852C38.8775 6.87804 38.4551 6.77676 38.4124 6.74043C38.3732 6.70271 37.1736 6.30595 37.1051 6.27451C37.0351 6.24587 36.6469 6.10127 36.4819 6.08661C36.3182 6.07263 36.2315 6.17183 36.172 6.28848C36.1097 6.39745 36.093 6.53576 36.0475 6.53576C36.0013 6.53576 36.1489 6.82146 36.2126 6.83054C36.2748 6.84172 36.4889 7.17212 36.5224 7.19587C36.5616 7.21683 36.6169 7.45363 36.6274 7.64084C36.6413 7.82455 36.7253 7.92933 36.6427 8.09558C36.5609 8.25694 36.456 8.25205 36.2944 8.33448C36.1363 8.41481 36.1209 8.43646 36.0615 8.4651C36.0048 8.48746 35.8404 8.6558 35.788 8.71098C35.7376 8.76826 35.688 9.02393 35.6642 9.08819C35.6397 9.15665 35.4802 9.29356 35.4606 9.35433C35.4418 9.4151 35.2893 9.42558 35.2893 9.42558C35.2893 9.42558 35.1445 9.31032 35.1585 9.26911C35.1655 9.2258 35.0354 8.85488 35.134 8.70121C35.234 8.54683 35.3949 8.44764 35.4418 8.41062C35.4865 8.37709 35.4417 7.60312 35.4865 7.52698C35.5341 7.45084 35.4418 7.24896 35.4767 7.02613C35.5131 6.79771 35.2893 6.56789 35.276 6.54205C35.269 6.5169 34.5779 6.38907 34.5744 6.25076C34.5716 6.11315 34.5255 6.17183 34.5143 6.02304C34.5059 5.86657 33.7812 5.72407 33.7274 5.65142C33.6756 5.58227 33.3587 5.54455 33.3559 5.49705C33.349 5.44745 33.2035 5.7101 33.1881 5.7101C33.1741 5.7101 32.8782 5.85749 32.7845 5.82256C32.6908 5.78694 32.4271 5.93852 32.3739 5.92874C32.3221 5.91966 32.1137 6.09429 32.055 6.11385C31.9899 6.13271 31.7514 6.35764 31.6954 6.33179C31.6409 6.30595 31.3373 6.41422 31.1554 6.36462C30.9743 6.31503 31.0169 6.424 30.9372 6.41911C30.8574 6.41422 30.7763 6.83124 30.7511 6.85219C30.7232 6.86407 30.4777 6.89481 30.4602 6.88922C30.4469 6.88433 30.3615 6.83194 30.2888 6.63565C30.216 6.43657 30.1636 6.67337 30.1181 6.65172C30.0727 6.63076 29.8404 6.76558 29.8404 6.76558L29.6299 6.85848C29.6299 6.85848 29.2774 6.9472 29.2774 6.92694C29.2774 6.90528 29.1556 6.69014 29.1556 6.69014C29.1556 6.69014 28.4051 6.78444 28.3806 6.79771C28.3548 6.81308 28.2764 6.8955 28.2491 6.85219C28.2275 6.79911 27.9798 6.91646 27.9106 6.91646C27.8372 6.91646 27.2461 7.04709 27.1629 7.01356C27.0796 6.97514 26.9118 7.04709 26.7957 6.97514C26.6851 6.90598 26.4676 7.07083 26.1878 7.05547C25.9066 7.04359 25.8227 7.19587 25.736 7.14348C25.6471 7.09249 25.4534 7.27131 25.2757 7.30903C25.0911 7.34326 25.0358 7.48437 24.9421 7.55422C24.8469 7.62477 25.0043 7.69113 25.189 7.74981C25.3778 7.81617 25.3673 7.89999 25.466 7.90837C25.5646 7.92025 25.7653 8.07183 25.8227 8.09558C25.8815 8.11653 25.9899 8.26323 26.0787 8.33448C26.1647 8.40573 26.2298 8.52378 26.306 8.54753C26.3802 8.57198 26.4774 8.71098 26.9845 8.96944C27.4951 9.22091 27.4469 8.94359 27.5455 8.94778C27.6434 8.95267 27.8148 9.15665 27.9309 9.13569C28.0414 9.11613 28.1939 9.23488 28.3911 9.24396C28.5877 9.25095 28.4842 9.35992 28.6283 9.42628C28.773 9.49264 28.843 9.64282 28.9619 9.68473C29.0794 9.72245 29.4389 9.91245 29.4837 9.91874C29.5306 9.92363 29.916 10.085 29.9453 10.2149C29.9775 10.3386 29.7705 10.3574 29.7705 10.3574C29.7705 10.3574 29.3662 10.194 29.1619 10.1178C28.9612 10.0396 28.9577 10.1178 28.864 9.98999C28.7793 9.86426 28.7535 9.7944 28.6996 9.71337C28.6478 9.63025 27.7259 9.35433 27.6721 9.30334C27.6224 9.25095 27.3419 9.2747 27.2608 9.2747C27.1776 9.2747 26.7915 9.25095 26.7537 9.1776C26.711 9.10216 25.9374 8.72775 25.9374 8.72775C25.9374 8.72775 25.8612 8.58315 25.745 8.21712C25.6296 7.85109 25.666 8.20246 25.531 8.06973C25.4002 7.93701 25.3701 8.07253 25.2317 7.95378C25.0904 7.82874 25.0351 7.91606 24.7182 7.75959C24.4056 7.59683 24.4378 7.81687 24.1426 7.78893C23.8453 7.75959 23.718 7.81756 23.6544 7.77984C23.5956 7.74352 23.6544 7.77985 23.5543 7.71977C23.4578 7.6569 23.0948 7.72256 23.0801 7.72745C23.0647 7.73164 22.7346 7.95028 22.5996 7.9405C22.4674 7.93771 21.7973 8.09698 21.6014 8.14657C21.4049 8.19826 21.1636 8.58245 21.1349 8.60061C21.1055 8.62157 21.2328 9.06025 21.244 9.1322C21.2545 9.20414 21.3853 8.90448 21.4601 9.22231C21.5399 9.54503 21.6714 9.44933 21.8196 9.49404C21.97 9.53944 21.9085 9.64422 21.97 9.67286C22.0337 9.70359 21.9651 9.80558 21.9651 9.89778C21.9651 9.99139 21.7651 10.078 21.6049 10.1367C21.4468 10.203 21.3615 10.312 21.2629 10.4042C21.1643 10.4964 21.216 10.736 21.2706 10.736C21.3237 10.736 21.5077 11.0678 21.5588 11.0937C21.6133 11.1195 21.6021 11.3898 21.6021 11.3898C21.6021 11.3898 21.3692 11.5268 21.3517 11.5226C21.3356 11.5198 21.3034 11.5582 21.2601 11.5344C21.2167 11.5191 20.9013 11.6672 20.7033 11.5582C20.5061 11.4527 20.5935 11.5512 20.3934 11.466C20.1927 11.3808 20.2326 11.3437 20.1927 11.2208C20.1514 11.0986 20.0094 11.1852 19.9633 11.1188C19.9164 11.0504 19.4904 10.9505 19.4198 10.9505C19.347 10.9505 18.8434 10.977 18.7602 10.9651C18.6776 10.9554 18.4042 11.0839 18.2209 10.9861C18.0327 10.889 17.8789 11.1817 17.7585 11.0881C17.6396 10.998 17.5704 11.2872 17.541 11.3375C17.5082 11.3891 17.6207 11.6895 17.6529 11.6755C17.6893 11.6616 17.8572 12.145 17.8796 12.1994C17.8796 12.2176 17.8907 12.3866 17.8439 12.344C17.7851 12.2951 17.7676 12.2455 17.7327 12.1589C17.697 12.0786 17.6529 12.1303 17.5704 11.9047C17.4886 11.6776 17.5473 11.9047 17.5081 11.869C17.476 11.8313 17.3431 11.7957 17.3431 11.7957C17.3431 11.7957 16.7052 11.4094 16.6744 11.3975C16.6415 11.3884 16.5289 11.4408 16.4596 11.4241C16.3939 11.4094 15.9483 11.4283 15.9134 11.4122C15.8756 11.3975 15.7637 11.5135 15.7637 11.5135C15.7637 11.5135 15.4608 11.6322 15.4468 11.6462C15.4293 11.656 14.7418 12.1128 14.7369 12.0919C14.7292 12.0737 14.6893 12.1911 14.6564 12.277C14.641 12.3287 14.6382 12.3489 14.641 12.3622C14.6026 12.3713 14.4333 12.4705 14.229 12.4823C13.994 12.4991 14.1101 12.5278 13.9486 12.5438C13.7863 12.5564 13.8233 12.5746 13.794 12.5948C13.7618 12.6151 13.78 12.7003 13.773 12.7275C13.7716 12.7499 13.6408 13.0328 13.6408 13.0328C13.6408 13.0328 13.4079 13.1446 13.3827 13.1348C13.3561 13.125 13.1449 13.2409 13.1155 13.2228C13.0833 13.206 12.8868 13.2647 12.8651 13.2486C12.8385 13.2354 12.7392 13.2717 12.7231 13.2717C12.7077 13.2717 12.5454 13.3346 12.3874 13.3646C12.2265 13.3995 12.2461 13.4582 12.188 13.4687C12.1327 13.4777 11.583 13.6817 11.5676 13.6817C11.5501 13.6817 11.3354 13.878 11.2444 13.8899C11.1521 13.9094 11.0437 14.0729 11.0143 14.1176C10.9821 14.156 10.5002 14.485 10.4317 14.4753C10.3624 14.4634 10.2757 14.6108 10.1302 14.6778C9.9847 14.7456 10.042 14.8776 10.012 14.8958C9.97909 14.9174 9.94341 15.1661 9.96859 15.2876C9.99098 15.4085 10.1141 15.4839 10.1833 15.479C10.2491 15.4741 10.3617 15.6159 10.4498 15.6125C10.538 15.6076 10.7457 15.6711 10.7891 15.6614C10.8289 15.6537 11.0654 15.6614 11.1318 15.616C11.1976 15.5712 11.2703 15.6383 11.3493 15.616C11.4291 15.595 11.6655 15.6306 11.8194 15.6069C11.9747 15.5831 12.1915 15.7487 12.2258 15.7445C12.2545 15.7396 12.5286 15.9575 12.544 15.9813C12.5678 16.0022 12.7259 16.0777 12.8273 16.0448C12.9231 16.0162 13.0644 15.9952 13.1372 15.9547C13.2092 15.9149 13.3016 15.8982 13.3519 15.822C13.3981 15.7445 13.5023 15.792 13.596 15.7584C13.6877 15.7298 13.8157 15.7445 13.9514 15.7109C14.0898 15.6704 14.0829 15.7584 14.1836 15.7689C14.2871 15.7794 14.4704 15.8458 14.6061 15.8066C14.7411 15.7661 14.7411 15.8353 14.874 15.7801C15.0103 15.7256 14.9691 15.7578 15.1726 15.6621C15.3741 15.5719 15.4251 15.5209 15.4671 15.4958C15.5091 15.4714 15.6315 15.4343 15.6972 15.3826C15.77 15.3303 15.8686 15.34 15.8686 15.34C15.8686 15.34 15.9169 15.3372 16.0001 15.3212C16.0833 15.3079 16.1449 15.3652 16.1421 15.3826C16.1386 15.3966 16.026 15.4916 15.9637 15.5412C15.9015 15.5929 15.7098 15.6544 15.6972 15.6676C15.6902 15.6844 15.2852 15.8122 15.1628 15.8297C15.0446 15.8542 15.0096 15.8751 14.9586 15.8919C14.9068 15.9156 14.6557 15.9743 14.6159 15.996C14.5732 16.0169 14.4186 16.2111 14.4088 16.2537C14.3983 16.2907 14.2843 16.5261 14.3102 16.5876C14.3361 16.6519 14.4018 16.9152 14.4298 16.932C14.4557 16.9501 14.4123 17.2414 14.4123 17.2687C14.4123 17.2945 14.4452 17.553 14.4774 17.569C14.5179 17.5858 14.5543 17.8058 14.5732 17.8275C14.5977 17.8443 14.4921 17.991 14.4774 18.0126C14.4592 18.0357 14.4774 18.1425 14.4774 18.1425C14.4774 18.1425 14.2563 18.1684 14.1822 18.1851C14.1032 18.2061 14.0906 18.2285 14.0906 18.2285C14.0906 18.2285 13.9318 18.373 13.9213 18.3898C13.9115 18.4136 13.7639 18.6266 13.7639 18.6266C13.7639 18.6266 13.5275 18.811 13.5233 18.832C13.517 18.8515 13.2799 19.0534 13.2799 19.0534C13.2799 19.0534 12.8056 19.2644 12.7798 19.235C12.7525 19.2043 12.6797 19.2923 12.5154 19.2846C12.351 19.2755 12.3804 19.3223 12.33 19.3272C12.2789 19.33 12.1831 19.3678 12.1474 19.3468C12.1139 19.3272 11.9656 19.4481 11.8704 19.432C11.7718 19.4173 11.6557 19.4711 11.6557 19.4711L11.5473 19.4593C11.5473 19.4593 11.3612 19.5089 11.2444 19.4376C11.1283 19.3671 10.9821 19.4132 10.8884 19.3698C10.7933 19.3293 10.6911 19.4474 10.5387 19.4586C10.3918 19.4704 10.1903 19.6004 10.1015 19.5969C10.0127 19.592 9.88187 19.7554 9.88187 19.7554L9.48316 19.9468C9.48316 19.9468 9.27473 20.1061 9.11036 20.1899C9.03062 20.2339 8.95857 20.2556 8.92919 20.2339C8.83337 20.1487 8.70188 20.0621 8.65921 19.9783C8.61584 19.9 8.22133 20.067 8.05486 20.0251C7.89258 19.9832 7.51907 20.1934 7.4792 20.1892C7.43583 20.1822 7.31202 20.2912 7.31202 20.2912L7.13715 20.4651C7.13715 20.4651 7.04833 20.667 7.04833 20.6901C7.04833 20.7124 6.63983 20.9611 6.60066 20.952C6.5573 20.9513 5.68997 21.2545 5.61373 21.2454C5.53679 21.2356 5.33324 21.3118 5.15488 21.2147C4.98071 21.1197 4.9807 21.2747 4.87857 21.2307C4.77295 21.1867 4.58761 21.2524 4.55473 21.2524C4.52536 21.2524 4.17283 21.3565 4.15744 21.3474C4.13996 21.3439 3.97207 21.5094 3.9294 21.5094C3.88044 21.5094 3.58318 21.7218 3.54821 21.7274C3.51043 21.7323 3.08726 21.7937 3.08726 21.7714C3.08726 21.7511 2.40667 21.7511 2.29895 21.7211C2.18983 21.6897 2.07372 21.8524 2.02965 21.8461C1.98279 21.8392 1.89186 21.9803 1.89186 21.9803L1.81213 22.1018C1.81213 22.1018 1.73308 22.2611 1.72609 22.2792C1.7135 22.2918 1.40434 22.5335 1.36447 22.4664C1.33159 22.4001 1.09868 22.4427 0.988861 22.3281C0.880444 22.2136 0.823076 22.2876 0.797195 22.2876C0.770616 22.2876 0.544693 22.4601 0.544693 22.4601L0.376124 22.6641C0.376124 22.6641 0.345346 23.005 0.33975 23.0378C0.336253 23.0749 0.125719 23.2614 0.0963418 23.2746C0.0641663 23.2851 0.0305935 23.3424 0.00611216 23.3836C-0.0127734 23.4206 0.0166052 23.5296 0.0333924 23.5841C0.0487806 23.64 0.3922 23.7461 0.552378 23.8628C0.711856 23.9774 0.763617 24.0619 0.784601 24.0619C0.806285 24.0619 1.07139 24.1757 1.09866 24.2023C1.13364 24.233 1.13993 24.3462 1.15252 24.3525C1.16791 24.3581 1.4484 24.4747 1.56032 24.4747C1.66593 24.4747 1.91705 24.5739 1.96881 24.5739C2.01918 24.5739 2.243 24.6982 2.243 24.6982C2.243 24.6982 2.7732 24.7527 2.89071 24.7527C3.00961 24.7527 3.22085 24.8463 3.33276 24.8198C3.43838 24.7953 3.5342 24.8868 3.58876 24.8785C3.64822 24.8687 3.70207 24.9825 3.75104 24.9972C3.8028 25.0203 3.87625 25.1271 3.94829 25.153C4.02174 25.1774 4.23578 25.2934 4.30153 25.2934C4.36658 25.2857 4.67783 25.343 4.78834 25.3311C4.89536 25.3227 5.15418 25.3402 5.17656 25.3227C5.19755 25.3046 5.43395 25.1865 5.43395 25.1865C5.43395 25.1865 5.69697 25.468 5.74033 25.4995C5.7886 25.5316 5.99633 25.6748 6.05019 25.6273C6.09985 25.5798 6.07188 25.8096 6.06838 25.8424C6.06488 25.8711 6.03621 26.0366 6.10546 26.0625C6.17051 26.089 6.4391 26.103 6.49086 26.0932C6.53982 26.0813 6.76784 26.177 6.80072 26.1721C6.8308 26.1644 7.13645 26.0205 7.23927 25.9137C7.3358 25.8054 7.42394 25.7509 7.46031 25.7314C7.49668 25.7097 7.77647 25.7174 7.83173 25.7006C7.89188 25.6818 8.05415 25.9053 8.07164 25.9137C8.08982 25.9255 8.18847 26.001 8.18847 26.001C8.18847 26.001 8.88512 25.9416 8.94877 25.9186C9.01102 25.899 9.3069 25.994 9.37195 25.9088C9.4384 25.8264 9.62935 25.98 9.70279 25.9647C9.77554 25.9514 10.0574 25.9179 10.1407 25.8215C10.2239 25.723 10.2561 25.79 10.3414 25.651C10.4317 25.5134 10.6576 25.4226 10.7499 25.3039C10.8464 25.1886 10.9549 25.3108 11.0612 25.2612C11.1605 25.2096 11.3067 25.394 11.3969 25.4086C11.4843 25.4226 11.7452 25.5882 11.8117 25.5958C11.8802 25.6049 12.1334 25.818 12.16 25.8089C12.1796 25.8068 12.3769 26.1002 12.4433 26.1309C12.3692 26.1665 12.1076 26.3405 12.074 26.3342C12.0411 26.3216 11.9502 26.4529 11.8453 26.5004C11.7452 26.5472 11.7711 26.5717 11.7487 26.5549C11.7285 26.541 11.541 26.6876 11.4613 26.6876C11.3857 26.6876 11.3228 26.754 11.2766 26.7044C11.2304 26.652 11.0989 26.7163 10.9772 26.6332C10.8527 26.55 10.8219 26.6164 10.7919 26.5787C10.7632 26.541 10.5555 26.594 10.3988 26.594C10.2421 26.594 10.0945 26.7163 10.0777 26.7107C10.0595 26.7037 7.98282 26.6206 7.98282 26.6206C7.98282 26.6206 7.92267 26.6562 7.70583 26.6513C7.4883 26.6457 7.55125 26.7037 7.52817 26.7037C7.49949 26.7037 7.36939 26.8029 7.35051 26.7889C7.33092 26.7819 7.25188 26.9119 7.17284 26.9209C7.0966 26.9279 6.65942 27.0823 6.63983 27.069C6.61955 27.0495 5.57315 27.1487 5.5095 27.1438C5.44655 27.1368 5.05275 27.1647 4.93384 27.1487C4.81563 27.1319 4.69671 27.2241 4.65544 27.2032C4.61208 27.1822 4.54004 27.2241 4.42672 27.2241C4.31061 27.2241 4.07699 27.2395 3.96857 27.2241C3.85946 27.2101 3.5538 27.2395 3.5538 27.2395C3.5538 27.2395 3.35934 27.3058 3.31737 27.3282C3.2754 27.3478 3.05788 27.4944 2.96695 27.5357C2.88302 27.5818 2.89839 27.8032 2.89839 27.8032C2.89839 27.8032 3.08375 27.9757 3.10893 27.9757C3.13551 27.9757 3.27471 28.0847 3.34535 28.0749C3.4188 28.0665 3.61046 28.1986 3.63284 28.2153C3.65872 28.2363 3.72796 28.3837 3.75174 28.4067C3.77552 28.4214 3.89723 28.5276 3.9455 28.5157C3.99026 28.5066 4.21548 28.5066 4.21548 28.5066C4.21548 28.5066 4.46309 28.5387 4.51695 28.501C4.56521 28.4682 4.7205 28.5066 4.77645 28.4207C4.83521 28.3425 4.96602 28.3397 5.01359 28.2971C5.06045 28.2593 5.44025 28.1078 5.44025 28.1078C5.44025 28.1078 5.5242 28.2307 5.52 28.2503C5.5165 28.2733 5.34024 28.4137 5.30596 28.42C5.27589 28.4347 5.30246 28.6757 5.32274 28.6861C5.34303 28.6952 5.56685 28.8964 5.56685 28.8964C5.56685 28.8964 5.73753 29.0508 5.75711 29.0431C5.78159 29.0375 6.05159 29.0668 6.11314 29.0578C6.1719 29.0508 6.31388 29.1283 6.38663 29.0578C6.45937 28.9886 6.64753 29.0578 6.70908 29.0508C6.76853 29.0368 6.99026 29.1046 7.01614 29.1046C7.04202 29.1046 7.32531 29.092 7.35189 29.0885C7.37847 29.0836 7.46381 29.1618 7.49039 29.1618C7.51697 29.1549 7.8653 29.1709 7.92476 29.1618C7.99051 29.15 8.10242 29.1618 8.13879 29.1381C8.17517 29.1095 8.18985 29.1409 8.24091 29.1262C8.30177 29.1095 8.72216 29.2827 8.72216 29.2827C8.72216 29.2827 8.82357 29.3993 8.82357 29.4315C8.82357 29.4622 8.70257 29.6173 8.68228 29.6257C8.67039 29.6375 8.17516 29.7067 8.15628 29.7025C8.13529 29.6976 7.92057 29.6459 7.88629 29.6201C7.84852 29.5949 7.79326 29.6452 7.75689 29.6403C7.72052 29.6375 7.57851 29.6662 7.54984 29.6452C7.51696 29.6257 7.42813 29.7465 7.333 29.8331C7.23228 29.9079 7.27286 29.8673 7.20222 29.8701C7.12947 29.8743 6.96998 29.8967 6.9469 29.8876C6.92521 29.875 6.76574 29.9672 6.74825 29.9631C6.73286 29.9582 6.58668 30.1195 6.58389 30.1384C6.57899 30.1517 6.49225 30.3235 6.49225 30.3235L6.69301 30.3871C6.71329 30.3584 6.8217 30.7384 6.89374 30.8111C6.96929 30.883 7.14136 31.0262 7.16025 30.9815C7.17774 30.9361 7.29665 31.1359 7.32602 31.1359C7.3519 31.1359 7.64427 31.2812 7.70163 31.2693C7.75549 31.2637 8.1199 31.3964 8.14998 31.3902C8.17586 31.3776 8.33955 31.6025 8.33955 31.6025C8.33955 31.6025 8.85576 31.7729 9.00894 31.738C9.16282 31.7024 9.17402 31.7729 9.36147 31.7024C9.55592 31.6332 9.77694 31.7192 9.94131 31.7024C10.105 31.6856 10.3428 31.7192 10.4219 31.7024C10.5079 31.6856 10.5534 31.7806 10.5995 31.7331C10.6464 31.6738 10.8632 31.738 10.8989 31.7115C10.9353 31.6856 11.0269 31.6332 11.0157 31.5955C11.0073 31.5606 10.8429 31.4677 10.8366 31.3964C10.8226 31.3245 10.6688 31.1743 10.6156 31.0653C10.5632 30.9578 10.6359 30.883 10.6883 30.8027C10.7436 30.7217 10.8541 30.9033 10.8891 30.8746C10.9255 30.8474 11.0164 30.9578 11.1206 30.8746C11.2192 30.7943 11.3738 31.1596 11.4305 31.2071C11.4857 31.2525 11.5585 31.3776 11.6312 31.4062C11.7068 31.4328 11.8851 31.3964 11.8851 31.3964C11.8851 31.3964 11.9516 31.342 12.0068 31.0367C12.0621 30.7335 12.1349 30.9277 12.1349 30.8565C12.1349 30.7845 12.2803 30.8027 12.3461 30.7335C12.4083 30.6574 12.6189 30.8027 12.6552 30.7943C12.6944 30.7845 12.9903 30.883 12.9903 30.883L12.9749 31.1282C12.9749 31.1282 13.0504 31.4586 13.1127 31.4509C13.1749 31.439 13.6891 31.5005 13.7149 31.4775C13.7429 31.4509 13.815 31.4858 13.8807 31.4509C13.9437 31.4139 14.1626 31.4139 14.2095 31.3894C14.2542 31.3615 14.3913 31.3322 14.427 31.2588C14.4655 31.1897 14.6571 31.0814 14.683 31.0528C14.711 31.0262 15.0397 31.036 15.0397 31.036C15.0397 31.036 15.095 30.927 15.095 30.8655C15.095 30.802 15.2041 30.9459 15.2405 30.8467C15.2769 30.7468 15.3531 30.7733 15.379 30.6693C15.4049 30.5603 15.4965 30.6141 15.507 30.5861C15.5105 30.5743 15.5727 30.584 15.6385 30.591C15.7252 30.6029 15.8161 30.612 15.8266 30.5791C15.8455 30.5128 15.9616 30.8467 16.0672 30.8467C16.1659 30.8467 16.3834 31.0255 16.3834 31.0255C16.41 31.0067 16.5415 31.0898 16.5842 31.0646C16.631 31.036 16.7779 30.9647 16.8507 30.8655C16.9227 30.7657 16.9598 30.8369 16.9961 30.7566C17.0318 30.6742 17.3347 30.6378 17.399 30.5505C17.4641 30.4562 17.5718 30.2236 17.5718 30.1915C17.5718 30.1524 17.7103 30.2376 17.7635 30.2082C17.8187 30.1796 18.0195 30.371 18.0195 30.371C18.0195 30.371 18.5699 30.6385 18.6161 30.6308C18.663 30.6204 18.9623 30.6874 19.0176 30.6749C19.0708 30.67 19.3995 30.8027 19.4659 30.7384C19.5303 30.6749 19.7961 30.8376 19.8681 30.7657C19.9416 30.6951 20.0696 30.927 20.1242 30.9647C20.178 31.0032 20.5788 31.036 20.6984 31.0066C20.8152 30.9808 20.8894 31.0528 20.9355 31.0695C20.9838 31.0905 21.4279 31.0262 21.7049 31.0646C21.977 31.0989 21.9889 31.1561 22.1078 31.1072C22.2253 31.0646 22.3135 31.2518 22.3967 31.2518C22.4834 31.2518 22.6807 31.4139 22.7464 31.4139C22.8122 31.4139 22.9017 31.5229 22.9017 31.5229L23.085 31.5773C23.085 31.5773 23.3473 31.7185 23.4305 31.6849C23.5173 31.6465 23.7796 31.6849 23.9439 31.6325C24.109 31.5781 24.1804 31.7373 24.2902 31.7185C24.3986 31.7017 24.6203 31.9266 24.6651 31.9525C24.7113 31.9811 24.7672 32.0803 24.8393 32.1732C24.912 32.2584 24.9456 32.315 24.9456 32.315L25.1232 32.4764C25.1232 32.4764 25.5415 32.6147 25.5611 32.5756C25.5779 32.5399 25.9633 32.6475 26.0081 32.6217C26.0556 32.593 26.3396 32.6566 26.3753 32.6307C26.4109 32.6021 26.4201 32.8389 26.4201 32.8389C26.4201 32.8389 26.5187 33.1965 26.5851 33.1896C26.6481 33.1784 26.7586 33.2678 26.7866 33.2678C26.8124 33.2678 26.9216 33.4501 26.9216 33.4501C26.9216 33.4501 26.9509 33.536 26.9677 33.5828C26.9873 33.6303 26.8887 33.8385 26.8887 33.8385C26.8887 33.8385 26.8019 33.9628 26.795 33.9971C26.7866 34.0341 26.8229 34.3254 26.8684 34.3254C26.9153 34.3254 27.0062 34.683 27.0062 34.683L27.307 35.0588C27.307 35.0588 27.5441 35.1776 27.6161 35.1315C27.691 35.0875 27.8638 35.2321 27.9547 35.2041C28.0463 35.1776 28.403 35.4402 28.5212 35.4479C28.6402 35.4584 28.5576 35.5471 28.8304 35.5946C29.1067 35.6393 29.0514 35.7741 29.1794 35.8433C29.3081 35.9145 29.2151 36.0947 29.2368 36.1318C29.2522 36.1688 29.3711 36.4852 29.4068 36.5201C29.4452 36.5537 29.583 36.6389 29.6278 36.6389C29.6747 36.6389 29.711 36.7185 29.7558 36.7185C29.7999 36.7185 29.9048 36.8044 30.0754 36.7954C30.2475 36.7905 30.3335 37.0531 30.3853 37.065C30.4413 37.0895 30.6903 37.4646 30.6903 37.4646C30.6903 37.4646 30.4685 37.5358 30.4574 37.5924C30.4511 37.6469 30.4686 37.9242 30.5042 38.0674C30.5434 38.212 30.5959 38.3894 30.6784 38.4292C30.7602 38.4656 30.833 38.8749 30.8791 38.8861C30.9246 38.8952 31.0631 39.1948 31.1827 39.2437C31.3016 39.3003 31.3464 39.4714 31.3464 39.4714V39.4162C31.3464 39.4162 31.4919 39.7054 31.5276 39.7599C31.5653 39.8144 31.6374 40.0917 31.6374 40.0917L31.666 40.4165C31.666 40.4165 31.7395 40.5961 31.8052 40.6045C31.8668 40.6128 32.1501 40.7993 32.2235 40.8287C32.2991 40.8566 32.3515 41.0368 32.4075 41.0459C32.4592 41.0536 32.4341 41.2827 32.4341 41.3421C32.4341 41.4085 32.4075 41.4343 32.3145 41.6313C32.2235 41.8325 32.1032 42.415 32.1032 42.415C32.1032 42.415 32.2984 42.3082 32.3424 42.3158C32.3872 42.3263 32.5362 42.4611 32.6348 42.4493C32.7369 42.4416 32.8537 42.4416 32.9181 42.4325C32.9796 42.4234 33.0566 42.5038 33.1916 42.4688C33.3301 42.4325 33.4007 42.6749 33.4392 42.6959C33.4734 42.7126 33.4315 43.0102 33.4574 42.9948C33.4832 42.9753 33.4315 43.2435 33.4392 43.3336C33.4476 43.4279 33.3951 43.5942 33.3951 43.6954C33.3951 43.7946 33.4105 43.9029 33.5035 43.949C33.5917 43.9895 33.6322 44.1174 33.9414 44.1432C34.2506 44.1739 34.0225 44.5295 33.9876 44.5225C33.9519 44.5148 33.7924 44.3276 33.6385 44.5295C33.4825 44.7384 33.5119 44.818 33.421 44.8725C33.3294 44.927 33.3021 45.0555 33.293 45.0883C33.2818 45.126 33.1643 45.3132 33.144 45.351C33.1272 45.3845 32.9992 45.5577 32.9726 45.5766C32.9468 45.5927 32.788 45.768 32.5711 45.9266C32.3501 46.0879 32.3599 46.0879 32.313 46.1424C32.2683 46.1955 32.3963 46.2248 32.5033 46.2325C32.6159 46.2416 32.7145 46.287 32.753 46.2751C32.788 46.2674 32.8446 46.2751 33.0608 46.0802C33.2818 45.8819 33.3189 45.8371 33.4 45.7282C33.4825 45.6185 33.605 45.659 33.649 45.6381C33.6945 45.6185 33.6385 45.8001 33.6385 45.8462C33.6385 45.8902 33.5658 45.9699 33.5189 45.9957C33.4728 46.0257 33.3762 46.171 33.3762 46.171C33.3762 46.171 33.137 46.3128 33.0923 46.3408C33.0454 46.3694 32.674 46.6502 32.6425 46.6502C32.6159 46.6502 32.4124 46.7375 32.3865 46.7285C32.3606 46.7208 32.0962 46.8207 32.0962 46.8207C32.0962 46.8207 31.829 46.9199 31.7535 46.9199C31.6807 46.9199 31.5842 47.0442 31.5842 47.0442C31.5842 47.0442 31.5562 47.2405 31.6548 47.3236C31.7535 47.4039 31.829 47.6289 31.9018 47.638C31.9745 47.6498 32.185 47.7742 32.2585 47.7993C32.3305 47.828 32.653 47.719 32.7614 47.719C32.8747 47.719 33.1007 47.7378 33.1552 47.719C33.2098 47.7001 33.3119 47.8203 33.3028 47.8608C33.293 47.9083 34.2904 47.9244 34.3688 47.8706C34.4513 47.8203 34.6458 47.8203 34.6996 47.7462C34.7549 47.675 34.822 47.5828 34.9193 47.332C35.0228 47.0784 34.9291 47.017 35.0752 46.9199C35.2242 46.8207 35.2032 46.9052 35.2305 46.8556C35.2606 46.799 35.4697 46.6509 35.4697 46.6509L35.7146 46.4505L35.4767 45.9272C35.4767 45.9272 35.2858 45.7401 35.2606 45.6395C35.2305 45.5417 35.1221 45.4348 35.0962 45.3349C35.0682 45.2336 34.9927 45.0981 34.9633 45.0653C34.9374 45.0247 34.9577 44.8564 35.1158 44.7223C35.2697 44.5847 35.1627 45.0247 35.1781 45.0722C35.1963 45.1177 35.2403 45.4753 35.3522 45.6192C35.4613 45.7687 35.6257 45.9161 35.7083 45.9161C35.7901 45.9161 35.8335 46.1955 35.8544 46.2248C35.8726 46.25 36.0636 46.3883 36.0895 46.4029C36.1209 46.4218 36.456 46.1801 36.5119 46.1047C36.5644 46.0334 36.6861 46.1326 36.74 46.1235C36.7945 46.1166 36.7659 46.3317 36.6861 46.3764C36.6043 46.4218 36.4665 46.565 36.4301 46.602C36.3937 46.637 36.4196 46.8319 36.4196 46.8814C36.4196 46.9276 36.4854 47.0728 36.4854 47.0728C36.4854 47.0728 36.7498 47.105 36.7945 47.033C36.8421 46.9639 36.861 47.0617 36.9953 46.9876C37.1338 46.9192 37.152 46.9527 37.161 46.9827C37.1694 47.0065 37.2786 47.1699 37.3149 47.1532C37.3548 47.1336 37.6717 47.1986 37.8185 47.1231C37.964 47.0533 37.8458 47.2866 37.8248 47.2866C37.8095 47.2866 37.7626 47.4473 37.7997 47.485C37.8395 47.5185 38.1032 47.7176 38.1032 47.7176C38.1578 47.691 38.2018 47.7888 38.3243 47.7364C38.4418 47.6806 38.3858 47.8356 38.469 47.7106C38.5502 47.5821 38.6852 47.5038 38.7432 47.485C38.7978 47.4689 38.9797 47.4948 39.2385 47.3837C39.4938 47.2761 39.5182 47.6736 39.5448 47.691C39.5763 47.7106 39.3273 47.7553 39.272 47.7455C39.2203 47.7364 39.0972 48.0159 39.0972 48.0159L39.2203 48.2219C39.2203 48.2219 38.9069 48.4112 38.8083 48.4804C38.7062 48.5537 38.6131 48.5998 38.6131 48.5998C38.6131 48.5998 38.6131 48.743 38.6425 48.7598C38.6698 48.7807 38.8083 48.8709 38.8782 48.8611C38.9531 48.852 39.2567 48.8876 39.3 48.8799C39.3448 48.8709 39.6106 49.1049 39.6567 49.1049C39.7036 49.1049 39.8386 49.3661 39.8386 49.3661C39.8386 49.3661 39.9365 49.6288 40.0687 49.6742C40.1953 49.7161 40.2226 49.7706 40.2394 49.8062C40.2604 49.8411 40.4772 49.9578 40.4772 49.9578C40.4772 49.9578 40.4681 50.1038 40.4681 50.1561C40.4681 50.2113 40.4143 50.4733 40.4143 50.4733L40.5227 50.7408L40.7136 51.0111C40.7136 51.0111 40.8067 51.2019 40.7794 51.2277C40.7528 51.2556 40.4765 51.4268 40.4765 51.4268L40.3219 51.41C40.3219 51.41 40.1044 51.41 40.0785 51.3814C40.0491 51.3555 39.8834 51.3555 39.8834 51.3555C39.8834 51.3555 39.6826 51.2556 39.6463 51.2368C39.6092 51.2193 39.5441 51.183 39.4371 51.2088C39.3266 51.2368 39.2196 51.2284 39.0881 51.1564C38.9615 51.0852 38.9727 51.1655 38.9727 51.1655L38.7614 50.8959L38.5348 50.877C38.5348 50.877 38.085 50.6898 38.02 50.5906C37.9542 50.4901 37.7115 50.4363 37.6255 50.3916C37.5465 50.3489 37.3415 50.3112 37.3093 50.2749C37.2702 50.24 37.0988 50.1946 37.054 50.138C37.0072 50.0863 36.7952 50.1499 36.6868 50.1038C36.5777 50.0577 36.3224 49.9717 36.137 49.9166C35.9552 49.8621 35.9258 50.0234 35.86 49.9578C35.802 49.8942 35.6705 49.9857 35.5649 50.0123C35.4529 50.0402 34.9388 50.0493 34.8143 50.0123C34.687 49.9759 34.3926 50.0493 34.2729 50.0318C34.1554 50.0123 34.1366 50.0241 33.9995 50.1212C33.861 50.2211 33.9183 50.3273 33.9183 50.3273C33.9183 50.3273 33.9253 50.5194 33.9904 50.5913C34.0561 50.6626 34.1254 50.833 34.1806 50.8624C34.2359 50.8861 34.4289 51.0761 34.4835 51.0936C34.5366 51.111 34.6682 51.1942 34.7563 51.2025C34.85 51.2088 34.8654 51.2843 35.0501 51.3101C35.2312 51.3374 35.2249 51.3269 35.3522 51.3101C35.4774 51.292 35.4907 51.3646 35.5341 51.3751C35.581 51.3814 35.8467 51.3646 35.8887 51.3751C35.9342 51.3814 36.228 51.5176 36.2811 51.5288C36.3392 51.5351 36.8414 51.5455 36.933 51.5288C37.0233 51.5078 37.0981 51.6503 37.1618 51.6992C37.2247 51.7425 37.2072 51.8794 37.2345 51.922C37.2625 51.9695 37.3884 52.1113 37.4276 52.1113C37.4639 52.1113 37.6842 52.3104 37.7374 52.2964C37.7899 52.2937 38.0655 52.4962 38.1298 52.4913C38.1963 52.4809 38.2214 52.4725 38.2214 52.4725C38.2214 52.4725 38.56 52.4634 38.5858 52.4634C38.6117 52.4634 38.9419 52.5437 38.9936 52.4962C39.0496 52.4536 39.1321 52.6331 39.1321 52.6331C39.1321 52.6331 39.4259 52.5814 39.4812 52.5528C39.5329 52.5277 39.6092 52.4816 39.6553 52.4187C39.7022 52.3572 39.754 52.3949 39.754 52.3949C39.754 52.3949 39.9183 52.3949 39.947 52.3831C39.975 52.3733 40.0673 52.5444 40.1037 52.5186C40.1401 52.492 40.4499 52.5528 40.494 52.5291C40.5409 52.4969 40.8612 52.5528 40.8612 52.5528C40.8612 52.5528 41.3285 52.4355 41.411 52.4285C41.4893 52.4187 41.6649 52.4494 41.7265 52.4543C41.7929 52.4641 41.7202 52.6338 41.7202 52.6625C41.7202 52.6897 41.6083 52.777 41.6083 52.8238C41.6083 52.8706 41.7104 53.0061 41.767 53.0061C41.8188 53.0061 41.774 53.2101 41.7391 53.2765C41.7013 53.3352 41.5012 53.3554 41.4733 53.3449C41.4432 53.3352 41.2725 53.5342 41.2984 53.5629C41.3285 53.5887 41.4628 53.7676 41.4628 53.8046C41.4628 53.8423 41.4893 54.0148 41.4893 54.0148L41.262 54.2342C41.262 54.2342 41.0242 54.3697 40.8864 54.4332C40.7514 54.4975 40.7514 54.5625 40.6864 54.6589C40.6241 54.7609 40.6395 54.8209 40.6605 54.867C40.6794 54.9117 40.7584 54.9662 40.871 54.9285C40.978 54.895 41.0424 55.1793 41.1067 55.1793C41.1732 55.1793 41.2096 55.5851 41.2459 55.5795C41.2823 55.5684 41.6383 55.3434 41.6537 55.3155C41.6733 55.291 41.5915 56.137 41.5488 56.1719C41.5012 56.2054 41.262 56.1907 41.2095 56.1104C41.1543 56.0273 41.0347 56.0818 40.978 56.0203C40.9235 55.9553 40.7871 55.9372 40.7507 55.8876C40.7115 55.8282 40.5115 55.8359 40.4751 55.8212C40.4387 55.8024 40.4031 55.7744 40.3765 55.7744C40.3513 55.7744 40.231 55.963 40.231 55.963L40.1939 56.3284C40.1939 56.3284 40.4499 56.4387 40.522 56.4345C40.5947 56.4234 40.5947 56.6665 40.5947 56.6665C40.5947 56.6665 40.5884 56.8131 40.5583 56.818C40.5325 56.8299 40.1757 56.9647 40.0771 57.0094C39.975 57.0548 40.0477 57.242 40.0932 57.27C40.1394 57.2944 40.1205 57.4481 40.238 57.4481C40.3576 57.4481 40.4234 57.5759 40.4667 57.5487C40.5122 57.5187 40.4129 57.6507 40.3667 57.7177C40.3212 57.7904 40.1862 57.819 40.1862 57.819C40.1506 57.803 40.1142 57.8882 40.1296 57.9448C40.1506 57.9972 40.1562 58.2074 40.1562 58.2074C40.1562 58.2074 40.2023 58.331 40.2387 58.3234C40.2793 58.3143 40.2946 58.4561 40.3674 58.4302C40.4401 58.4037 40.4611 58.6105 40.4674 58.6384C40.4765 58.6642 40.5416 58.8445 40.5779 58.8515C40.6143 58.8612 40.8067 58.9772 40.9703 59.0149C41.1354 59.0519 41.0102 59.1427 41.0557 59.1316C41.099 59.1239 41.2012 59.1239 41.2732 59.0519C41.3459 58.9772 41.474 59.0058 41.5572 58.9772C41.6397 58.9513 41.702 59.1316 41.7279 59.1476C41.7579 59.1672 41.7684 59.3467 41.7684 59.3467L41.7754 59.4557L41.6824 59.6261C41.6824 59.6261 41.7404 59.7428 41.7754 59.726C41.8132 59.7092 42.0419 59.8797 42.0419 59.8797L42.0314 59.9789L41.8202 60.0885L41.6096 60.1207H41.2375L41.0844 60.1731L41.0179 60.3198C40.9899 60.3198 41.3292 60.4734 41.3725 60.421C41.4194 60.3645 41.7404 60.4993 41.6824 60.5279C41.6299 60.5538 41.3865 60.5733 41.2186 60.5328C41.0564 60.4993 41.1088 60.5824 41.1088 60.5824C41.1088 60.5824 40.9522 60.6991 40.6507 60.5824C40.3527 60.4637 40.4947 60.6278 40.4674 60.6278C40.4401 60.6278 40.3324 60.5615 40.0212 60.3742C39.8757 60.2841 39.8498 60.2841 39.8484 60.2939C39.8449 60.2841 39.8309 60.2688 39.8015 60.2275C39.6665 60.0571 39.7029 60.2653 39.6008 60.194C39.5022 60.1207 39.4266 60.2464 39.3364 60.1416C39.2447 60.0327 39.2713 60.2206 39.107 60.1654C38.9426 60.1123 38.972 60.2743 38.8957 60.2275C38.823 60.1835 38.8293 60.3288 38.7306 60.2206C38.6327 60.1116 38.6411 60.2108 38.6222 60.1291C38.6075 60.0508 38.1956 59.923 38.1956 59.923L37.9528 59.916L37.3681 59.8238C37.3681 59.8238 37.0519 59.895 36.9785 59.8874C36.9064 59.8783 36.5504 60.0159 36.4847 60.0026C36.4189 59.9949 36.3 60.1039 36.2482 60.1207C36.1923 60.1416 36.1356 60.2464 36.1098 60.2841C36.0797 60.3198 36.0545 60.3575 36.0545 60.3575C36.0545 60.3575 35.7817 60.6348 35.2396 60.8877C34.6996 61.1412 35.141 61.0323 35.1613 61.1245C35.1774 61.2104 35.2137 61.2174 35.2137 61.2174C35.2137 61.2174 35.3984 61.2418 35.476 61.2104C35.5621 61.1852 35.8572 61.2104 35.9636 61.165C36.0615 61.1252 36.207 61.114 36.3294 61.049C36.4441 60.9862 36.5308 61.0658 36.6029 61.0609C36.6756 61.049 36.8917 61.0749 36.9939 61.0399C37.096 61.0043 37.1596 61.0749 37.1596 61.0749L37.3947 61.049C37.3947 61.049 38.1277 60.8995 38.162 60.8995C38.1998 60.8995 38.3368 60.961 38.4208 60.9331C38.5012 60.9051 38.5215 60.9945 38.5215 60.9945C38.5215 60.9945 38.639 61.0749 38.667 61.0658C38.6929 61.0609 38.9125 61.0092 39.0783 60.9233C39.2427 60.8332 39.258 60.9778 39.3245 60.961C39.3881 60.9401 39.4609 61.049 39.5162 61.0204C39.5742 60.9945 39.6183 61.1293 39.6183 61.1293L39.5791 61.2928L39.5742 61.4025C39.5742 61.4025 39.7015 61.4905 39.8302 61.4458C39.9547 61.4025 39.889 61.4968 39.9092 61.473C39.9288 61.4458 40.1499 61.4968 40.3205 61.4255C40.4933 61.3522 40.6059 61.4255 40.743 61.4018C40.8815 61.3738 41.3194 61.3361 41.3704 61.3361C41.4271 61.3361 41.3634 61.5792 41.3634 61.5792C41.2718 61.5974 41.3634 61.5792 41.1627 61.545C40.9627 61.5114 40.7115 61.6442 40.7115 61.6442C40.7115 61.6442 40.5108 61.6442 40.438 61.6442C40.3653 61.6442 40.3562 61.7448 40.3562 61.7448C40.3562 61.7448 40.2471 61.816 40.1925 61.7685C40.1387 61.7252 40.0554 61.8062 39.9638 61.7895C39.9638 61.7895 39.9016 61.7685 39.9016 61.7091C39.9016 61.6449 39.7526 61.6707 39.3714 61.413C38.986 61.1475 39.3965 61.2747 39.3161 61.1783C39.2364 61.0763 38.9503 61.2746 38.8475 61.1657C38.7495 61.0623 38.6502 61.1657 38.5677 61.1307C38.4858 61.0951 38.1942 61.0951 38.0899 61.0763C37.9913 61.0623 37.8633 61.1259 37.8234 61.1147C37.7878 61.1049 37.6332 61.1866 37.6052 61.195C37.5765 61.2034 37.452 61.3005 37.4052 61.2823C37.3611 61.2663 37.1687 61.3466 37.1687 61.3466C37.1687 61.3466 36.8309 61.4374 36.6945 61.3536C36.556 61.2753 36.3993 61.2823 36.3623 61.2663C36.3294 61.2474 35.9699 61.2663 35.9076 61.3131C35.8454 61.3536 35.6677 61.4137 35.6243 61.4137C35.5796 61.4137 35.476 61.5701 35.497 61.6714C35.5124 61.7692 35.6138 61.8866 35.6418 61.925C35.6677 61.9606 35.7229 62.0863 35.853 62.1122C35.9804 62.1408 36.0783 62.3203 36.221 62.3203C36.356 62.3203 36.556 62.328 36.6225 62.3203C36.6847 62.3113 37.2772 62.131 37.4632 62.1038C37.6444 62.078 37.7619 62.2868 37.8808 62.2659C37.9997 62.2484 37.8647 62.4824 37.7885 62.5914C37.7157 62.7003 37.4786 62.8065 37.3072 62.8966C37.1324 62.9867 37.0302 63.1313 36.8491 63.0224C36.6658 62.9155 36.6099 63.1572 36.5756 63.1411C36.5378 63.1244 36.3196 63.1313 36.2643 63.1411C36.2077 63.1481 36.079 63.2906 35.9699 63.3898C35.8572 63.4904 35.8111 63.6685 35.7523 63.7761C35.6866 63.8871 35.7229 64.0953 35.7138 64.1938C35.7069 64.2944 35.8111 64.3279 35.8572 64.3468C35.9076 64.3635 36.0258 64.4474 36.0538 64.4082C36.079 64.3726 36.2538 64.453 36.2538 64.453C36.2538 64.453 37.1324 64.2189 37.1946 64.1666C37.2611 64.1142 37.6234 63.7356 37.7619 63.6266C37.9011 63.5197 37.9437 63.5365 37.9437 63.5365L38.6509 63.0224C38.6509 63.0224 39.023 62.8366 39.172 62.7269C39.3175 62.62 39.456 62.606 39.5078 62.5676C39.5651 62.5194 39.7099 62.5194 39.9834 62.3748C40.2597 62.2288 40.7598 62.1408 40.7598 62.1408C40.7598 62.1408 40.964 62.3022 40.9899 62.2966C41.0179 62.2861 40.8416 62.4349 40.7794 62.4663C40.7136 62.4922 40.5227 62.5194 40.4143 62.5194C40.3058 62.5194 40.1674 62.5704 40.1408 62.5676C40.1156 62.5571 39.8316 62.6521 39.7917 62.6815C39.7554 62.7073 39.0601 63.0084 38.83 63.0789C38.6075 63.1481 38.2844 63.4366 38.2844 63.4366L38.0109 63.7069C38.0109 63.7069 37.5625 64.1142 37.5353 64.1219C37.508 64.1288 37.2688 64.2944 37.196 64.3328C37.124 64.3845 36.805 64.4816 36.74 64.5172C36.6777 64.5521 36.4462 64.7135 36.4014 64.7352C36.3581 64.7512 36.3839 64.9461 36.3839 64.9461L36.3643 65.1396C36.3643 65.1396 36.5119 65.2828 36.5392 65.2828C36.5644 65.2828 36.7036 65.2926 36.7756 65.2681C36.8505 65.2381 37.4066 65.1648 37.4541 65.1648C37.501 65.1648 37.6849 65.1298 37.7423 65.0837C37.8101 65.039 38.248 65.0292 38.369 65.0125C38.4879 64.9936 38.5761 65.0921 38.5761 65.0921C38.5761 65.0921 38.4683 65.1487 38.4033 65.1843C38.3396 65.222 38.1494 65.3478 38.0403 65.3715C37.9277 65.4016 37.7899 65.4532 37.7374 65.447C37.6842 65.4379 37.4793 65.4721 37.4534 65.4379C37.4275 65.4016 37.0421 65.4875 36.9953 65.4805C36.9505 65.4721 36.6959 65.6628 36.6959 65.6628L36.7218 65.8333L36.6777 66.1469L37.0533 66.2705C37.0533 66.2705 37.196 66.3627 37.2695 66.3795C37.3415 66.4005 37.4282 66.4466 37.5269 66.501C37.6255 66.5506 37.6919 66.6715 37.7633 66.6624C37.8402 66.6512 38.02 66.6862 38.092 66.6338C38.1648 66.5793 38.2669 66.4703 38.3243 66.3921C38.3753 66.3111 38.3963 66.3586 38.4879 66.2684C38.5761 66.1762 39.0601 65.8898 39.0601 65.8898C39.0601 65.8898 39.3084 65.7927 39.4098 65.7809C39.5084 65.762 39.656 65.8333 39.6931 65.8144C39.7295 65.7927 40.1876 65.8591 40.2226 65.8521C40.2604 65.8416 40.3058 65.9744 40.28 65.9744C40.2499 65.9744 40.1576 66.1008 40.1163 66.0973C40.0687 66.0833 39.9841 66.0742 39.9841 66.0742C39.9841 66.0742 39.8323 66.0219 39.7554 65.9653C39.6833 65.9129 39.5028 65.9604 39.3909 65.9744C39.2818 65.9939 39.2818 65.9848 39.2203 66.0128C39.1538 66.0379 39.0244 66.1008 38.9951 66.0973C38.9727 66.0833 38.8901 66.207 38.8901 66.207C38.8901 66.207 38.7321 66.3921 38.7055 66.4179C38.6803 66.4466 38.597 66.543 38.3306 66.6617C38.0655 66.7784 38.2368 66.7784 38.2368 66.8035C38.2368 66.8301 38.2662 67.041 38.2837 67.0955C38.3026 67.1472 38.1641 68.262 38.1641 68.3179C38.1641 68.371 38.2214 68.5896 38.2767 68.5498C38.3306 68.5191 38.4117 68.5973 38.469 68.5233C38.5243 68.4527 38.5698 68.3815 38.7146 68.239C38.7579 68.1943 38.8775 68.209 39.3364 68.2816C39.7917 68.3529 39.4266 68.3661 39.4567 68.4367C39.4819 68.5058 39.4266 68.5687 39.3986 68.5973C39.3735 68.6232 39.1168 68.6937 39.0881 68.6937C39.0601 68.6937 38.8237 68.8223 38.7978 68.8104C38.7719 68.8027 38.6082 68.8649 38.5768 68.8572C38.5509 68.846 38.4481 68.9836 38.4481 68.9836C38.4481 68.9836 38.3243 69.182 38.3033 69.2344C38.2844 69.2875 38.248 69.4188 38.2305 69.4712C38.2116 69.5236 38.2117 69.6654 38.2117 69.6654C38.2117 69.6654 38.1969 69.8191 38.2669 69.8833C38.3396 69.9469 38.5033 70.2626 38.5418 70.2626C38.5761 70.2626 38.6418 70.3164 38.7614 70.1341C38.8775 69.9546 38.8698 69.9727 38.8964 69.9127C38.9223 69.8512 39.009 69.7597 39.0244 69.7059C39.0419 69.6521 39.144 69.5613 39.1615 69.481C39.1797 69.3965 39.2818 69.365 39.3273 69.3252C39.3741 69.2882 39.4728 69.3015 39.4826 69.1736C39.4938 69.0458 39.5553 68.9124 39.5763 68.8844C39.5952 68.8579 39.7554 68.823 39.7854 68.7852C39.8106 68.7482 39.9365 68.6518 39.9841 68.6351C40.0289 68.6141 40.3058 68.7482 40.3331 68.7405C40.359 68.7301 40.4611 68.4814 40.4611 68.4814C40.4611 68.4814 40.4401 68.0644 40.4401 67.9952C40.4401 67.9247 40.4045 67.6445 40.4765 67.56C40.5486 67.479 40.5591 67.7528 40.6619 67.8653C40.7598 67.9861 40.9452 68.3717 40.9452 68.3717C40.9452 68.3717 41.2942 68.4884 41.3201 68.4884C41.346 68.4884 41.6397 68.5498 41.7111 68.5331C41.7866 68.5198 41.9216 68.642 41.9216 68.642C41.9216 68.642 42.1238 68.8837 42.158 68.9124C42.1951 68.9403 42.0559 69.2344 42.0776 69.3008C42.0972 69.3643 42.2084 69.5236 42.2525 69.5424C42.2972 69.5606 42.5805 69.8652 42.6099 69.8456C42.6358 69.8288 42.6826 70.0077 42.6267 70.0559C42.57 70.0992 42.4413 70.1173 42.3147 70.0636C42.1902 70.0077 42.1175 70.037 42.0517 69.9993C41.9874 69.9658 41.7398 69.9301 41.609 69.8456C41.4845 69.7674 41.4739 69.9469 41.4739 69.9469C41.4739 69.9469 41.4012 70.037 41.3858 70.1173C41.3648 70.2005 41.3208 70.5588 41.3208 70.5588C41.3208 70.5588 41.2291 70.5784 41.1753 70.5413C41.1186 70.5057 40.8269 70.5665 40.8269 70.5665L40.4681 70.6419C40.4681 70.6419 40.3849 70.9919 40.359 71.0163C40.3331 71.0464 40.2953 71.1183 40.266 71.0911C40.2394 71.0624 40.1673 71.1868 40.1051 71.1609C40.0428 71.1337 39.8491 71.17 39.8491 71.17L39.7917 71.2601C39.7917 71.2601 39.7386 71.3963 39.7386 71.3691C39.7386 71.3426 39.4819 71.8644 39.5553 71.9021C39.6281 71.9363 39.6567 72.0348 39.6931 72.0432C39.7295 72.0537 39.8904 72.0076 40.0428 71.9021C40.1876 71.7952 40.2135 71.9656 40.3849 71.9447C40.5598 71.9279 40.543 72.0725 40.5598 72.0998C40.5786 72.1291 40.4681 72.287 40.4681 72.287L40.3681 72.4937C40.3681 72.4937 40.5961 72.6851 40.6255 72.6851C40.6507 72.6851 40.3527 72.9883 40.3681 73.0148C40.3849 73.0449 40.5339 73.0882 40.6255 73.1056C40.6507 73.1133 40.9703 73.2055 41.0564 73.1797C41.1361 73.1511 41.2375 73.1958 41.2375 73.1958L40.836 73.3662C40.836 73.3662 41.2732 73.5918 41.4187 73.7245C41.5677 73.8635 41.8132 73.8447 41.8748 73.7692C41.9426 73.6994 42.1692 73.7078 42.1958 73.7078C42.221 73.7078 42.1958 73.8922 42.1587 73.9488C42.1244 74.0123 42.0314 74.0857 42.0139 74.1311C41.9957 74.1772 42.0524 74.247 42.0524 74.247C42.0524 74.247 42.1909 74.4818 42.2168 74.4734C42.2427 74.465 42.144 74.6794 42.144 74.7067C42.144 74.7325 41.9335 74.8604 41.9335 74.8604L41.7482 75.0217C41.7482 75.0217 41.7286 75.1663 41.7286 75.255C41.7286 75.3472 41.7586 75.4471 41.795 75.4799C41.8356 75.5163 41.8608 75.554 41.9335 75.6322C42.0055 75.7175 42.0321 75.67 42.1251 75.67C42.2168 75.67 42.2539 75.6888 42.3553 75.7174C42.4539 75.7412 42.4182 75.8131 42.4994 75.8313C42.5819 75.8502 42.5721 75.8502 42.6288 75.8404C42.6847 75.8313 42.7169 75.8858 42.7169 75.8858C42.7169 75.8858 42.8106 75.9584 42.8106 75.9864C42.8106 76.0101 42.7833 76.1645 42.747 76.219C42.7106 76.2728 42.7568 76.3517 42.7833 76.3783C42.8106 76.4069 42.9023 76.5417 42.9023 76.5417C42.9023 76.5417 43.1499 76.6695 43.1848 76.6612C43.2226 76.6479 43.2779 76.6849 43.2779 76.6849C43.2779 76.6849 43.4423 76.5417 43.7983 76.4244C44.1536 76.3063 43.792 76.4956 43.792 76.5857C43.792 76.6765 43.8249 76.7233 43.9081 76.6849C43.9892 76.6472 44.076 76.8393 44.1641 76.8316C44.2571 76.8225 44.1921 76.9552 44.1921 76.9552C44.1921 76.9552 44.0291 77.0558 43.9843 77.0558C43.9375 77.0558 43.9843 77.0558 43.8612 77.1355C43.7458 77.2165 43.8612 77.2011 43.8906 77.2689C43.9172 77.3436 44.0466 77.389 44.0913 77.3604C44.1347 77.3345 44.1186 77.4861 44.1081 77.5238C44.1012 77.5588 44.0809 77.5972 44.0613 77.6573C44.0431 77.7222 44.076 77.8207 44.0913 77.8563C44.1081 77.8934 44.148 77.9318 44.2194 77.8934C44.2921 77.8563 44.346 77.9479 44.3851 77.9388C44.418 77.9318 44.5467 78.0715 44.6292 78.0813C44.7139 78.0931 44.7677 78.2419 44.8237 78.2608C44.8803 78.2797 44.8384 78.3886 44.8335 78.4256C44.8237 78.4627 44.7468 78.5493 44.7041 78.5947C44.6593 78.6415 44.6845 78.675 44.6845 78.7365C44.6845 78.8001 44.7859 78.8741 44.8489 78.8999C44.9153 78.9279 45.0146 79.0068 45.0412 78.9991C45.0699 78.9901 45.2602 78.9118 45.2602 78.9118L45.4784 78.7106C45.4784 78.7106 45.5441 78.5779 45.5903 78.5577C45.6372 78.5423 45.7085 78.7288 45.7085 78.7288L45.7554 79.0439C45.791 79.0439 45.8722 79.0529 45.9191 79.0529C45.9666 79.0529 45.9918 79.1598 45.9918 79.1598L45.8008 79.2415L45.577 79.3512L45.7407 80.2488C45.7407 80.2488 45.775 80.3089 46.0967 80.4025C46.4255 80.4968 46.2254 80.464 46.4255 80.3431C46.6297 80.2223 46.6136 80.2977 46.706 80.2055C46.8025 80.1133 46.878 79.8646 46.9718 79.8052C47.0662 79.7466 47.2837 79.7298 47.3746 79.7298C47.4698 79.7298 47.3907 79.9142 47.4411 80.033C47.4845 80.1587 47.8887 80.0518 48.014 80.0651C48.1399 80.0847 48.4945 79.8507 48.5441 79.7752C48.5917 79.697 48.7778 79.6676 48.8365 79.6537C48.9009 79.6369 49.352 79.6369 49.3835 79.4197C49.4136 79.2066 49.352 79.2848 49.5388 78.9649C49.7235 78.6422 49.7563 78.9789 49.7724 79.055C49.7864 79.1326 49.7724 79.303 49.7864 79.303C49.8025 79.303 50.0823 79.5021 50.1292 79.4853C50.176 79.4672 50.6432 79.0117 50.6432 79.0117L50.7845 79.5154C50.7845 79.5154 50.5803 79.9317 50.5341 79.9603C50.4873 79.989 50.2998 80.114 50.2417 80.1734C50.176 80.2369 50.1291 80.4193 50.0998 80.5569C50.0669 80.6966 50.5047 80.7888 50.6761 80.7587C50.8475 80.7245 51.2959 80.6351 51.2959 80.6351C51.2959 80.6351 51.1455 80.9383 51.2665 81.1227C51.391 81.3057 51.5295 81.1709 51.7176 81.1394C51.9058 81.1101 51.7645 81.3714 51.7029 81.3846C51.6407 81.4007 51.6085 81.6738 51.5917 81.8135C51.5798 81.9553 51.7953 82.1823 51.9366 82.0741C52.0751 81.9672 52.3402 81.831 52.5738 81.7374C52.8074 81.6473 52.7451 81.8932 52.792 81.9218C52.8368 81.9553 53.2418 81.9979 53.2879 81.9979C53.3383 81.9979 53.3684 82.4429 53.3684 82.4429C53.3684 82.4429 53.7566 82.3654 53.695 82.1516C53.6307 81.9365 53.695 81.9979 53.8643 81.905C54.0371 81.8135 54.1756 82.0308 54.2532 81.956C54.3322 81.875 54.5036 81.7688 54.5624 81.5551C54.6288 81.3392 54.4567 81.4622 54.2707 81.3392C54.0825 81.2142 53.9748 81.2638 53.7573 80.9886C53.5397 80.7119 53.8958 80.9557 54.1441 80.8489C54.3917 80.7448 54.6603 81.0011 54.847 80.7601C55.0317 80.5101 54.847 80.7601 54.861 80.5275C54.8764 80.2991 54.924 80.4374 55.2185 80.2076C55.5171 79.9757 55.4696 80.2509 55.529 80.0064C55.5913 79.7626 55.4213 79.7913 55.4073 79.412C55.3905 79.0257 55.3905 78.981 55.4528 78.8559C55.5171 78.7344 55.6703 78.8434 55.7948 78.7204C55.9207 78.5975 56.0592 78.58 55.983 78.3677C55.9039 78.1553 55.7633 78.1707 55.6521 77.9842C55.5486 77.8012 55.7941 77.8633 55.8417 77.79C55.8878 77.7111 56.0592 77.7111 56.125 77.6307C56.1837 77.556 56.3691 77.0984 56.3691 77.0984C56.3691 77.0984 56.3691 76.6695 56.3691 76.511C56.3691 76.3608 56.3551 76.4376 56.4348 76.3119C56.5111 76.191 56.4936 75.9612 56.4796 75.8257C56.4642 75.6888 56.2012 75.5659 56.1369 75.4422C56.0746 75.3214 56.0592 75.4101 55.8088 75.2585C55.5612 75.1048 55.3108 75.0734 55.2835 74.9176C55.252 74.7675 55.3108 74.8436 55.499 74.6145C55.6871 74.3847 55.8256 74.4741 55.9991 74.4615C56.169 74.4433 56.2928 74.5705 56.2928 74.5705C56.2928 74.5705 56.7307 74.6438 56.8531 74.6019C56.9776 74.5544 57.228 74.5705 57.4288 74.1101C57.6302 73.6491 57.4134 73.8314 57.4917 73.7113C57.568 73.5904 57.7253 73.6309 57.8009 73.4975C57.8806 73.3578 57.9268 73.3893 58.0674 73.2041C58.2059 73.0197 58.4409 72.9743 58.5654 72.8702C58.6864 72.7613 58.6241 72.8206 58.6409 72.6376C58.6584 72.4553 58.2401 72.4721 58.2401 72.4721C58.2401 72.4721 58.052 72.1955 58.0807 72.0411C58.1142 71.8874 58.5031 72.2423 58.6864 71.9181C58.8753 71.5933 59.0291 72.2073 59.0963 72.164C59.155 72.1172 59.2789 71.9461 59.2789 71.9461C59.2789 71.9461 59.6062 71.4592 59.574 71.1987C59.544 70.9402 59.5132 70.957 59.4971 70.8438C59.4817 70.7404 59.3593 70.7404 59.2173 70.5539C59.0753 70.3716 58.3479 70.447 58.3479 70.447C58.3479 70.447 58.0989 70.447 58.0366 70.3548C57.9723 70.2668 57.9569 70.447 58.6584 70.0971C59.3586 69.745 59.0634 70.0803 59.1704 70.0349C59.2789 69.9902 59.5307 70.2012 59.7776 70.0188C60.028 69.8358 60.1042 69.7108 60.1665 69.5445C60.2294 69.3741 60.0112 69.437 59.9028 69.0709C59.793 68.6993 59.793 68.8551 59.6824 68.6399C59.5747 68.422 59.4062 68.5785 59.1404 68.5456C58.8753 68.517 58.7661 68.4695 58.7074 68.4213C58.6416 68.3787 58.6591 68.2579 58.6591 67.933C58.6591 67.6145 59.0299 67.9959 59.1886 67.7675C59.3439 67.5384 59.374 67.8129 59.5929 67.8289C59.8112 67.8422 59.9028 68.1796 60.0448 68.0713C60.1833 67.9673 60.4784 67.9812 60.6015 67.7815C60.7295 67.5817 60.6176 67.6906 60.7904 67.4601C60.9597 67.231 61.0863 67.4888 61.1954 67.354C61.3024 67.2163 61.2863 67.2631 61.2737 67.122C61.2576 66.9844 61.166 67.122 60.9436 67.018C60.7296 66.909 60.7904 67.027 60.6512 66.8601C60.5099 66.6924 60.4924 66.7847 60.8212 66.448C61.1478 66.1106 61.1653 66.3571 61.257 66.3418C61.3479 66.3278 61.6913 66.3278 61.8172 66.4186C61.9375 66.5087 62.204 66.3865 62.4838 66.4186C62.765 66.448 63.1539 66.3418 63.4162 66.1902C63.6841 66.0358 63.7128 65.9269 63.8051 65.5888C63.9009 65.2528 63.8709 65.484 63.9765 65.3604C64.0891 65.2353 64.1471 65.4833 64.2423 65.2954C64.3346 65.1152 64.3983 64.9622 64.3647 64.8071C64.3346 64.6597 64.3647 64.6409 64.3843 64.5466C64.3983 64.4585 64.5696 64.3642 64.6025 64.2741C64.6319 64.1798 64.7732 64.2099 64.8186 64.2099C64.8655 64.2099 65.1607 64.2553 65.195 64.3195C65.2208 64.3831 65.1949 64.3195 65.0942 64.4872C65.0033 64.6597 64.8186 64.7338 64.7732 64.7338C64.7228 64.7338 64.7081 64.9915 64.7081 65.0865C64.7081 65.1787 64.5815 65.345 64.5067 65.4183C64.4297 65.4986 64.2709 65.6831 64.18 65.7264C64.0877 65.7732 64.2087 66.2342 64.3339 66.3278C64.4598 66.4179 64.8179 66.3418 64.9117 66.2021C65.0033 66.0645 64.9564 66.0526 64.9739 65.8353C64.9914 65.6216 64.9445 65.653 65.0942 65.4658C65.1152 65.4463 65.3453 65.7271 65.4405 65.7117C65.5342 65.6977 65.4719 65.8354 65.5964 65.6977C65.7209 65.5601 65.7342 65.6363 65.7832 65.5441C65.8266 65.4512 65.9217 65.3897 66.1896 65.3604C66.1896 65.3604 66.4813 65.7438 66.6526 65.7264C66.824 65.711 66.6694 65.6055 66.6233 65.4064C66.5743 65.2095 66.6995 65.3142 66.6813 65.1955C66.6694 65.0698 66.9625 65.0104 67.0415 64.9447C67.1213 64.8833 67.1367 65.0104 67.1367 65.053C67.1367 65.1005 67.634 65.4658 67.7732 65.4512C67.9131 65.4351 67.8515 65.1955 67.8683 65.0698C67.8823 64.9447 68.0509 65.0237 68.1908 64.9629C68.332 64.9014 68.3789 64.7631 68.4118 64.6863C68.4412 64.608 68.4579 64.3642 68.7384 64.3195C69.0154 64.2741 68.8965 64.3642 69.0644 64.4418C69.2386 64.5179 69.4239 64.4872 69.5624 64.4585C69.7044 64.4257 70.3423 64.3028 70.4514 64.1505C70.557 63.9947 70.5424 63.9947 70.5899 63.8452C70.6361 63.6923 70.5424 63.2473 70.6809 63.0657C70.7179 63.014 70.8732 63.2892 70.948 63.3074C71.0264 63.3206 71.2278 63.2187 71.3069 63.0657C71.3831 62.9099 71.4125 62.8645 71.5552 62.5564C71.693 62.2491 71.6307 62.3434 71.6636 62.2966C71.6937 62.2491 71.8021 62.173 71.9735 62.036C72.1441 61.8984 72.3484 61.7755 72.4281 61.6365C72.5023 61.4982 72.4869 61.3913 72.4729 61.2432C72.4568 61.084 72.5659 60.8262 72.7079 60.6131C72.8471 60.3973 72.9996 60.4595 73.1087 60.3051C73.2164 60.1549 73.4046 60.1193 73.4815 60.0592C73.5606 59.997 73.8893 59.8147 73.9495 59.7079C74.0117 59.5982 74.479 59.4948 74.5412 59.4361C74.6 59.3732 74.9924 59.3858 75.1344 59.2936C75.2722 59.2035 75.24 59.2475 75.3813 58.9856C75.5233 58.7271 75.1462 58.711 75.0546 58.5881C74.9595 58.4652 74.9161 58.1613 74.758 58.0712C74.6 57.979 74.6993 57.9468 74.5874 57.6549C74.4782 57.3636 74.8035 57.548 74.9455 57.5794C75.0833 57.6095 75.2868 58.0076 75.4729 58.0244C75.6611 58.0363 75.7394 58.1452 76.1276 58.2989C76.5172 58.4526 76.5172 58.6999 76.6263 58.7914C76.7333 58.8815 77.2796 58.7725 77.4971 58.7278C77.7154 58.6824 77.7294 58.5881 77.7294 58.4198C77.7294 58.2493 77.8987 58.3443 78.0106 58.389C78.1162 58.4365 78.3827 58.6656 78.4288 58.6656C78.4757 58.6656 79.0814 58.5287 79.143 58.4652C79.2073 58.4051 79.2563 58.2828 79.2074 58.236C79.1605 58.192 79.0045 58.2088 78.88 58.2088C78.7548 58.2088 78.7716 58.0363 78.8038 57.9622C78.8345 57.8833 79.0807 57.9469 79.143 57.8379C79.2073 57.7338 79.6445 58.1927 79.7026 58.25C79.7655 58.3136 79.8746 58.3758 79.9215 58.3317C79.9663 58.2835 80.3587 58.1138 80.5601 57.9007C80.7616 57.6856 81.212 58.0845 81.3848 57.9175C81.5541 57.7471 81.9143 57.8085 82.2269 57.548C82.5368 57.2867 82.583 57.548 82.6921 57.4865C82.7991 57.425 82.8928 57.548 82.9845 57.5173C83.0831 57.4865 84.2155 57.2106 84.2624 57.0884C84.3078 56.9654 84.496 57.0416 84.6849 56.8467C84.8674 56.6413 85.0563 56.7691 85.2899 56.7971C85.5228 56.8285 85.6152 56.9067 85.8208 56.7056C86.0215 56.5065 86.2083 56.7056 86.2377 56.6155C86.2727 56.5205 86.3762 56.5826 86.5356 56.4946C86.693 56.3982 86.5944 56.4779 86.784 56.232C86.9693 55.9868 86.9071 56.3074 87.3449 55.8652C87.78 55.4196 87.7143 55.787 87.887 55.713C88.0605 55.6326 88.3529 55.5139 88.4648 55.2491C88.5697 54.9886 88.8523 54.9739 88.96 54.851C89.0705 54.7294 90.6716 53.7473 90.7961 53.5817C90.9213 53.4113 91.1556 53.66 91.2626 53.5342C91.3732 53.4113 91.7907 53.2884 91.8369 53.1361C91.8852 52.9824 92.4301 52.9978 92.6812 52.9056C92.9267 52.8155 93.3771 52.5856 93.331 52.4767C93.2862 52.3684 93.3156 52.3565 93.2862 52.1274C93.2533 51.8948 93.1617 52.1085 92.8966 52.0778C92.6308 52.0485 92.4301 52.156 92.2405 52.1735C92.0544 52.1868 91.5599 52.3684 91.4347 52.3251C91.3095 52.2783 91.0752 52.418 90.8744 52.3565C90.6709 52.2944 90.3729 51.9129 90.1729 51.8166C89.9721 51.7264 89.8008 51.7264 89.4916 51.7264C89.1789 51.7264 89.1635 51.7264 89.0076 51.6817C88.8523 51.6335 88.4781 51.6035 88.4312 51.542C88.385 51.482 87.964 51.4044 87.9178 51.3758C87.8709 51.3429 87.4044 51.3758 87.3568 51.343C87.3107 51.3115 87.0602 51.4331 87.0148 51.4519C86.9679 51.4659 85.8495 51.7739 85.7565 51.8166C85.6648 51.8641 85.3683 51.9416 85.2563 51.9248C85.15 51.913 84.8548 51.9702 84.7289 51.9248C84.6051 51.8801 84.5422 52.0156 84.4485 52.0652C84.3533 52.1078 84.2617 52.3076 84.2148 52.3398C84.1687 52.3684 83.5629 52.6024 83.3923 52.4487C83.2209 52.2937 83.2041 52.506 82.8928 52.4941C82.583 52.476 82.3948 52.4299 82.2395 52.3398C82.0856 52.2476 82.2395 52.3398 82.4571 52.2615C82.6753 52.1861 82.7543 52.418 82.7704 52.2943C82.7872 52.1735 83.1768 52.3565 83.4391 52.1735C83.7014 51.987 83.8728 52.2943 83.9644 52.0485C84.0616 51.8026 84.0616 51.8801 84.1526 51.7739C84.2449 51.665 84.4953 51.665 84.6667 51.6196C84.838 51.5728 85.085 51.6817 85.2724 51.6817C85.4606 51.6817 85.5522 51.542 85.6942 51.2668C85.8355 50.9916 85.8355 50.912 85.8355 50.912C85.8355 50.912 86.2713 50.868 86.316 50.868C86.3629 50.868 87.1071 50.5613 87.3107 50.4544C87.517 50.3468 87.4044 50.409 87.7136 50.0996C88.029 49.7971 87.6863 49.8718 87.638 49.7817C87.5905 49.6874 87.3247 49.4269 87.2484 49.3808C87.1708 49.3354 86.9218 49.3501 86.2831 49.3354C85.6487 49.3172 85.8495 49.3955 85.7697 49.4262C85.6942 49.4534 84.7289 49.5959 84.4953 49.626C84.2617 49.6581 84.3869 49.7161 84.3407 49.7482C84.2946 49.781 84.0763 49.934 83.8098 50.087C83.5454 50.2407 83.6091 50.2546 83.4965 50.4083C83.3915 50.5613 83.0019 50.8533 82.7977 50.9113C82.5949 50.9727 83.1411 51.2375 83.1411 51.2375C83.1411 51.2375 83.0341 51.2661 82.925 51.2661C82.8166 51.2661 82.7222 51.3562 82.5494 51.2948C82.3794 51.2375 82.3514 51.1872 82.2857 51.067C82.2269 50.9441 81.9898 51.067 81.9898 51.067C81.9898 51.067 81.8688 51.0817 81.6478 51.0992C81.4289 51.111 81.3841 51.0992 81.4792 50.9902C81.5708 50.8819 81.6198 50.8673 81.759 50.7611C81.8968 50.6521 82.1773 50.5906 82.2269 50.5599C82.2696 50.5278 82.4739 50.3916 82.5039 50.3161C82.5368 50.24 82.8166 49.8705 82.8327 49.7161C82.846 49.5673 83.0635 49.5198 83.3923 49.4087C83.7196 49.3046 84.1407 49.3165 85.0094 49.3046C85.8831 49.2879 85.1808 49.2879 85.3815 49.2264C85.5872 49.167 85.8502 49.1978 86.0041 49.1216C86.1593 49.0413 86.798 48.9051 86.798 48.9051C86.8595 48.8611 87.0952 48.7982 87.2988 48.6627C87.5002 48.523 87.4827 48.6005 87.4827 48.5544C87.4827 48.5069 87.4995 48.3099 87.4673 48.2485C87.4373 48.187 85.9747 47.6659 85.9607 47.6044C85.9446 47.5443 85.49 47.559 85.49 47.559L85.1339 47.573C85.1339 47.573 84.7597 47.573 84.7171 47.5443C84.6674 47.5108 84.4841 47.4067 84.4337 47.362C84.3883 47.3103 84.6051 47.1441 84.7171 47.2077C84.8227 47.267 85.1808 47.2363 85.1808 47.2363C85.5522 47.2195 85.4606 47.2363 85.5872 47.1895C85.711 47.1441 85.8362 47.267 86.0208 47.3432C86.2076 47.4193 86.237 47.5108 86.4098 47.4815C86.5797 47.4473 86.6923 47.7553 86.8308 47.7553C86.9693 47.7553 87.2197 47.8496 87.2827 47.8496C87.3449 47.8496 87.887 48.1011 87.887 48.1011C88.5012 48.3896 88.2333 48.5439 88.527 48.6508C88.527 48.6508 88.767 48.8611 88.9824 48.8373C89.1936 48.8073 89.0873 49.0413 89.3279 49.0699C89.5678 49.1007 89.6993 49.6197 89.6993 49.6197V49.9892C89.6993 49.9892 89.7833 50.4363 89.9407 50.5648C90.0973 50.6982 90.2638 50.7492 90.5002 50.5948C90.7408 50.4363 90.6611 50.7275 90.8199 50.8023C90.9808 50.8819 91.1381 51.0153 91.4872 51.0153C91.8334 51.0153 92.0474 51.1718 92.0474 51.1718C92.0474 51.1718 92.393 51.1432 92.4196 51.0698C92.4455 50.9909 92.3391 50.8023 92.3112 50.5955C92.2846 50.3846 92.3112 50.5955 92.4196 50.3846C92.528 50.1743 92.7917 50.3042 92.7917 50.3042L92.819 50.6738C92.819 50.6738 92.7917 51.0698 92.926 51.0698C93.0575 51.0698 93.3806 51.2235 93.3806 51.2235C93.3806 51.2235 93.8059 51.2235 93.964 51.0698C94.1263 50.9078 94.234 50.833 94.3389 50.5417C94.3753 50.4398 94.4186 50.226 94.4445 50.0437C94.4725 49.8572 94.2613 49.8069 94.234 49.7266C94.2074 49.6504 93.8066 49.6504 93.7269 49.5449C93.6471 49.4422 93.538 49.4423 93.5919 49.3605C93.6471 49.2809 94.1256 49.3843 94.1256 49.3843L94.2606 49.1021L94.6579 48.889C94.6579 48.889 94.7383 48.6019 94.7642 48.5237C94.7936 48.4413 94.4977 48.1025 94.4977 48.1025C94.4977 48.1025 93.8842 47.682 93.6185 47.682L93.14 47.9963C93.14 47.9963 92.9001 47.814 93.0351 47.6296C93.1666 47.4452 92.9791 47.2635 92.9253 47.156C92.8735 47.0512 92.5797 47.2384 92.6588 47.0756C92.7392 46.9213 92.607 46.9471 92.6854 46.7885C92.7651 46.63 92.4447 46.6845 92.4447 46.6041C92.4447 46.5259 92.1524 46.3967 92.1524 46.3967C92.1524 46.3967 91.8586 46.185 91.8327 46.1068C91.8061 46.0278 91.5662 45.8714 91.5921 45.7387C91.6187 45.608 91.1906 45.7114 91.1906 45.7114L90.9262 45.5026L90.3142 45.1358C90.3142 45.1358 90.0477 45.0576 89.8854 44.9528C89.728 44.8445 89.3531 44.6098 89.3531 44.6098L88.9019 44.5833L88.7138 44.3493C88.7138 44.3493 88.8208 44.0049 88.8467 43.8757C88.8726 43.7471 88.5795 43.5599 88.5795 43.5599C88.5795 43.5599 88.5011 43.3762 88.5795 43.2456C88.662 43.1129 88.3948 43.0088 88.2605 42.955C88.129 42.9054 87.752 42.9857 87.9143 42.853C88.0717 42.7203 88.129 42.7434 88.206 42.6435C88.2857 42.5345 88.071 42.4304 88.1549 42.1915C88.2326 41.9568 87.9143 42.1915 87.8353 42.1175C87.752 42.0364 87.5947 42.1175 87.4897 42.0364C87.3813 41.9568 87.0085 41.7996 87.0085 41.7996C87.0085 41.7996 86.6063 41.7996 86.3965 41.7996C86.1817 41.7996 85.967 41.8262 85.8879 41.8499C85.8068 41.8779 85.4074 41.7472 85.4074 41.7472C85.4074 41.7472 85.1983 41.7472 85.0857 41.6942C84.98 41.6446 84.7947 41.3288 84.9535 41.2506C85.115 41.1703 85.0857 41.4071 85.1983 41.3812C85.3032 41.3575 85.3032 41.4329 85.4872 41.3575C85.6753 41.2743 85.6753 41.5111 85.7844 41.4329C85.8887 41.3575 85.9418 41.5111 86.1307 41.5377C86.3146 41.5663 86.3146 41.6683 86.5797 41.6446C86.5797 41.6446 86.8742 41.6942 87.168 41.4616C87.2582 41.3861 87.2197 41.3009 87.303 41.2226C87.3813 41.1444 87.4897 41.1172 87.6212 41.0403C87.7527 40.9621 87.8618 41.1444 87.9409 41.1172C87.9968 41.0997 88.0598 41.0327 88.1207 40.9754C88.1116 41.326 87.7359 41.3072 88.2466 41.4518C88.7614 41.5957 88.9124 41.4252 89.2328 41.4518C89.5518 41.4762 89.4273 41.7179 89.9442 41.7451C90.4604 41.7654 90.9276 42.2048 90.7569 41.7899C90.5856 41.3777 90.61 41.282 90.1183 41.2101C89.6238 41.1353 89.2552 40.8692 89.0838 40.9432C88.946 41.0019 88.7425 40.7959 88.9131 40.7749C89.0838 40.7491 88.9607 40.4082 88.6655 40.5807C88.413 40.7239 88.2074 40.6575 88.1493 40.8531C88.0801 40.8063 87.9416 40.7532 87.9416 40.5381C87.9416 40.4578 88.1304 40.3579 88.1304 40.3579L88.3676 40.3055L88.7152 40.4885C88.7949 40.4578 88.9831 40.5122 88.9831 40.5122C88.9831 40.5122 89.1698 40.4578 89.3545 40.2014C89.3545 40.2014 89.6203 39.9388 89.9148 39.8319L90.2645 39.8584C90.2645 39.8584 90.7136 39.9115 90.8759 39.8319C91.0332 39.7515 91.192 39.8584 91.2738 39.8319C91.3529 39.806 91.5676 40.0149 91.6753 40.0428C91.7824 40.068 91.9139 40.2538 92.0209 40.2796C92.1279 40.3055 92.3671 40.5122 92.3671 40.5122C92.2321 40.4578 92.1279 40.5123 91.9663 40.4578C91.8082 40.4082 91.6481 40.5381 91.4634 40.1756C91.2745 39.806 91.0088 40.2014 90.8766 40.2252C90.7416 40.2545 90.4478 40.119 90.3687 40.119C90.2904 40.119 90.3163 40.4082 90.3163 40.4082V40.8503C90.5135 40.9195 90.5968 41.1416 90.6793 41.1416C90.7576 41.1416 90.8905 41.2799 91.0451 41.2995C91.1948 41.3169 91.6271 41.3952 91.8138 41.4238C92.0027 41.4497 92.1733 41.8527 92.2461 41.8527C92.3195 41.8527 93.1421 41.7954 93.2247 41.7745C93.303 41.7577 93.6261 41.5992 93.8507 41.5188C94.0738 41.4406 94.3613 41.3777 94.5215 41.2792C94.6831 41.1842 94.683 41.1738 94.683 41.1738C94.683 41.1738 95.0244 41.0005 95.3552 40.9537C95.6868 40.9125 96.0729 40.8846 96.1351 40.8587C96.1974 40.8322 96.2505 40.9537 96.2505 40.9537C96.2505 40.9537 96.5996 40.7637 96.6807 40.6568C96.7639 40.5507 96.7108 40.4417 96.6723 40.3111C96.6373 40.1783 96.7968 39.9842 96.836 39.7096C96.8696 39.4372 96.815 39.6391 96.7444 39.542C96.6723 39.4421 96.629 39.5357 96.3121 39.2765C95.9994 39.023 96.1806 39.2856 95.7693 39.3778C95.3545 39.4638 95.5874 39.4372 95.3734 39.3548C95.1573 39.2765 95.0929 39.3115 94.9153 39.1662C94.7348 39.0111 94.7068 39.0656 94.7068 39.0656C94.7068 39.0656 94.5459 39.039 94.3424 38.9615C94.1347 38.8784 94.2144 39.0111 94.1193 39.023C94.0151 39.0328 93.9115 39.0817 93.7409 39.1361C93.573 39.1906 93.4471 39.0656 93.3911 38.9943C93.3373 38.9245 93.3191 38.7645 93.3911 38.6877C93.4639 38.6081 93.552 38.5452 93.7409 38.4215C93.9283 38.2993 94.015 38.4753 94.043 38.4579C94.0724 38.4411 94.469 38.4334 94.5571 38.4215C94.6446 38.4125 94.8887 38.7834 94.9579 38.7834C95.0307 38.7834 95.186 38.9399 95.2636 38.9399C95.3468 38.9399 95.5972 38.7289 95.7294 38.6584C95.8672 38.5906 96.0526 38.6877 96.1449 38.6877C96.2324 38.6877 96.4296 38.6947 96.5198 38.6507C96.6122 38.6081 96.9353 38.5124 96.9353 38.5124C96.9353 38.5124 97.2123 38.2749 97.2578 38.2469C97.3004 38.2204 97.39 38.2134 97.4159 38.2371C97.4424 38.263 97.7327 38.1903 97.9838 38.2371C98.2328 38.2798 98.2174 38.2797 98.3601 38.2469C98.5021 38.2134 98.5196 38.1128 98.7064 37.8753C98.8987 37.6336 99.452 37.4499 99.452 37.4499C99.452 37.4499 99.8829 37.1942 99.9549 37.0259C100.028 36.8603 99.8717 36.8603 99.7577 36.7961C99.6416 36.7332 99.5331 36.8065 99.4989 36.7961C99.4646 36.7891 99.2806 36.8862 99.1652 36.905C99.0498 36.9225 99.0344 36.956 98.9148 36.8226C98.8008 36.6899 98.8798 36.7961 98.7861 36.6626C98.6994 36.5355 98.7064 36.6305 98.6483 36.576C98.5819 36.5236 98.5098 36.5858 98.4406 36.6138C98.3678 36.6389 98.244 36.7332 98.1888 36.7514C98.1349 36.7681 97.874 36.7611 97.8117 36.6997C97.7488 36.6382 97.5984 36.576 97.7229 36.4342C97.8495 36.2924 97.8118 36.335 97.9733 36.2058C98.1342 36.0731 98.2258 36.0626 98.2258 36.0626C98.2258 36.0626 98.1531 35.8789 98.1342 35.823C98.1146 35.7734 97.2123 35.4444 97.1473 35.4109C97.0885 35.3774 96.843 35.3585 96.8073 35.3396C96.7716 35.3229 96.5723 35.2691 96.5653 35.172C96.5604 35.0742 96.4569 35.0022 96.5128 34.8919C96.5653 34.7738 96.4142 34.7047 96.503 34.5084C96.5933 34.3121 96.7444 34.3687 96.8269 34.3407C96.9053 34.3121 96.9682 34.3687 97.0332 34.324C97.092 34.28 97.1291 34.4483 97.1913 34.5265C97.2571 34.6069 97.3473 34.704 97.4991 34.7396C97.6495 34.7731 97.7068 34.8185 97.8306 34.8912C97.9551 34.9624 98.0279 34.8912 98.2056 34.8618C98.3832 34.8346 98.4028 34.7585 98.5189 34.669C98.6329 34.5768 98.6021 34.5265 98.6889 34.3114C98.7777 34.1025 98.6889 34.1025 98.7511 33.9461C98.8141 33.784 98.7707 33.7093 98.8777 33.5828C98.9848 33.4634 99.0645 33.4962 99.2058 33.3635C99.352 33.2308 99.3184 33.2308 99.352 33.2014C99.3883 33.1763 99.3968 32.9639 99.3968 32.9639C99.3968 32.9639 99.3709 32.7963 99.3772 32.753C99.3884 32.7083 98.8568 31.6738 98.8505 31.6402C98.84 31.6067 98.591 31.4907 98.4028 31.4907C98.216 31.4907 98.1804 31.4376 98.1692 31.3943C98.1594 31.3489 97.988 31.2281 98.0013 31.1289C98.0076 31.0311 97.8299 30.8656 97.7901 30.8132C97.7579 30.7587 97.6593 30.7293 97.6334 30.7077C97.6054 30.6797 97.3634 30.6797 97.3249 30.6623C97.2914 30.6434 96.9339 30.7126 96.9339 30.7126C96.9339 30.7126 96.6367 30.6322 96.5919 30.6434C96.5443 30.6553 95.7399 30.6958 95.5867 30.6246C95.4364 30.5561 95.4196 30.5659 95.3461 30.547C95.2741 30.5282 95.0922 30.5659 95.0922 30.5659C95.0922 30.5659 94.7341 30.6008 94.6285 30.5184C94.5194 30.4415 94.4571 30.4304 94.4466 30.3975C94.4396 30.3598 94.1871 29.9016 94.2326 29.8687C94.2787 29.831 93.9108 29.6201 93.8017 29.5307C93.6961 29.4426 93.5968 29.4985 93.5338 29.4615C93.4709 29.4273 93.3639 29.5307 93.3002 29.523C93.2373 29.5146 93.0869 29.3819 93.0218 29.2778C92.9575 29.1688 92.9575 29.048 93.0155 28.9034C93.0673 28.7658 93.1141 28.7658 93.2225 28.712C93.3268 28.6575 93.5254 28.7281 93.6059 28.7001C93.6863 28.6785 93.7479 28.821 93.8206 28.8538C93.8933 28.8873 93.9206 29.0019 94.036 29.1535C94.1529 29.3008 94.1962 29.3812 94.3326 29.4357C94.4683 29.486 94.5194 29.4273 94.6026 29.3623C94.6809 29.3015 94.7894 29.268 94.967 29.1786C95.1454 29.0906 95.4518 28.9034 95.5434 28.8328C95.6336 28.7651 95.8309 28.6666 95.9827 28.6303C96.1337 28.5946 96.3471 28.5876 96.403 28.5876C96.4555 28.5876 96.743 28.5946 96.9766 28.5164C97.1221 28.4668 97.12 28.4885 97.1179 28.4933C97.1193 28.4906 97.1256 28.4836 97.1452 28.4647C97.2291 28.383 97.4508 28.332 97.5138 28.3229C97.5788 28.3131 97.711 28.4982 97.7894 28.4815C97.8712 28.4647 97.8558 28.4745 97.881 28.4647C97.9083 28.4528 98.0265 28.4745 98.258 28.4906C98.4916 28.5073 98.5623 28.6072 98.6525 28.6407C98.7441 28.6785 98.9218 28.7651 99.0211 28.7539C99.119 28.7462 99.601 28.7204 99.6479 28.7204C99.694 28.7204 99.7926 28.8251 99.9241 28.8391C100.058 28.8594 100.105 28.8978 100.484 28.7895C100.86 28.6826 100.642 28.7462 100.761 28.7113C100.878 28.6778 100.833 28.6233 101.001 28.427C101.173 28.2377 101.046 28.2377 101.089 28.1294C101.136 28.0204 101.074 27.7326 101.074 27.6782C101.074 27.6258 101.001 27.2919 101.001 27.2458C101.001 27.1997 100.77 26.893 100.735 26.8385C100.698 26.7861 100.626 27.009 100.626 27.009C100.626 27.009 99.9088 26.5773 99.8514 26.5654C99.7989 26.5542 99.4632 26.6108 99.4632 26.6108L99.0393 26.7324C99.0393 26.7324 98.705 26.8581 98.5805 26.7184C98.456 26.578 98.3937 26.6374 98.3559 26.5857C98.321 26.5312 98.0741 26.3985 98.0454 26.3726C98.0174 26.3461 97.7838 26.3461 97.7215 26.3035C97.6593 26.2567 97.4984 26.2566 97.4417 26.2511C97.3893 26.2399 97.0766 26.2322 97.0039 26.1973C96.9346 26.1596 96.9416 26.0785 96.9136 25.9409C96.8885 25.7991 96.7793 25.8962 96.7108 25.8522C96.6373 25.8089 96.5604 25.7383 96.5198 25.658C96.4835 25.5784 96.368 25.4296 96.4947 25.2787C96.6185 25.1271 96.645 25.2696 96.6989 25.2696C96.7535 25.2696 96.8591 25.2082 97.1137 25.1718C97.3641 25.1376 97.3263 25.1718 97.4529 25.2179C97.5809 25.2606 97.6607 25.3129 97.7663 25.3849C97.874 25.454 97.974 25.6133 98.0622 25.6419C98.1538 25.6678 98.3426 25.7838 98.3846 25.7838C98.4301 25.7838 98.7462 25.7886 98.7462 25.7886L98.9869 25.739L99.175 25.7013C99.175 25.7013 99.5038 25.6412 99.5513 25.6056C99.5961 25.5721 99.5695 25.3849 99.5695 25.3849L99.175 25.109L98.9421 24.9811C98.9421 24.9811 98.6546 24.891 98.6287 24.891C98.6035 24.891 98.3846 24.7534 98.3671 24.7227C98.3482 24.694 98.2251 24.6235 98.1699 24.6095C98.1146 24.59 97.9195 24.555 97.8733 24.5641C97.8313 24.5732 97.5075 24.59 97.383 24.5732C97.2571 24.555 97.0927 24.6235 97.1291 24.6018C97.1648 24.5732 97.0598 24.5194 96.9416 24.5026C96.8262 24.4859 96.5387 24.4216 96.4296 24.342C96.3226 24.2637 96.1967 24.2728 95.9889 24.2637C95.7847 24.2561 95.8491 24.2896 95.7847 24.2728C95.7225 24.2561 95.4993 24.3364 95.4532 24.3532C95.4098 24.3699 95.1762 24.5432 95.1132 24.6095C95.0503 24.6703 95.0237 24.7227 94.8334 24.9644C94.6446 25.1991 94.4473 25.4387 94.4403 25.4121C94.4305 25.3849 94.2501 25.3597 94.2067 25.2605C94.1612 25.1635 94.171 25.1572 94.1878 25.0398C94.2067 24.9267 94.1612 24.8009 94.2228 24.5907C94.2871 24.3797 94.2801 24.5404 94.3963 24.4153C94.5103 24.2903 94.5103 24.2987 94.6732 24.1576C94.8341 24.0151 94.8271 23.9375 94.8964 23.8321C94.9684 23.7245 95.0314 23.487 95.0671 23.4632C95.1034 23.4374 94.8964 23.3997 94.932 23.3179C94.9684 23.2397 95.1468 22.5328 95.3007 22.4469C95.4531 22.3554 95.4692 22.3554 95.5511 22.2219C95.6343 22.092 95.5979 22.1221 95.614 21.9502C95.6343 21.7819 95.5511 21.7302 95.4888 21.6883C95.4266 21.6436 95.4266 21.4731 95.5147 21.244C95.6028 21.0149 95.6406 21.1301 95.8568 20.9604C96.0715 20.7941 96.1184 20.8486 96.2492 20.7844C96.3876 20.7243 96.3946 20.7941 96.4562 20.7941C96.5191 20.7941 97.0137 20.6873 97.0444 20.6817C97.0864 20.6698 97.2564 20.6272 97.3823 20.5553C97.5068 20.4875 97.6397 20.396 97.711 20.3415C97.7831 20.2912 97.434 20.185 97.6047 20.0453C97.774 19.9028 97.8299 19.9028 98.0076 19.761C98.1867 19.6206 98.2853 19.5124 98.4497 19.4411C98.6071 19.3699 98.8861 19.3203 98.9491 19.2825C99.0127 19.2511 99.1897 19.1324 99.2463 19.0716C99.2981 19.0136 99.1345 18.7901 99.1345 18.7901L98.435 18.6573L98.4923 18.5791C98.4923 18.5791 98.3042 18.4268 98.3147 18.3772C98.3251 18.3228 98.1867 18.1761 98.1804 17.8422C98.1692 17.5187 98.2783 17.7311 98.3406 17.5187C98.4021 17.3078 98.4637 17.3434 98.6064 17.1772C98.7511 17.0067 98.9036 17.0444 99.0477 17.0067C99.1897 16.9718 99.3086 17.1772 99.3968 17.1653C99.4863 17.1562 99.601 17.2652 99.6842 17.2365C99.7668 17.2107 100.033 17.2701 100.313 17.203C100.59 17.1325 100.507 17.2652 100.642 17.2107C100.777 17.1562 100.845 17.0542 101.012 16.8384C101.173 16.6281 101.254 16.7175 101.423 16.5569C101.593 16.3969 101.792 16.4577 101.953 16.2754C102.116 16.0875 102.116 15.8695 102.124 15.8157C102.13 15.7605 101.916 15.7724 101.907 15.6565C101.897 15.5412 101.828 15.6376 101.792 15.588C101.755 15.5356 101.548 15.5789 101.452 15.4979C101.354 15.4197 101.288 15.5175 101.235 15.4979C101.181 15.4804 101.155 15.5503 101.136 15.4979C101.119 15.4434 100.845 15.5265 100.641 15.4979C100.438 15.47 100.339 15.5412 100.277 15.5265C100.213 15.5077 100.095 15.4979 100.095 15.4979C100.095 15.4979 99.8815 15.5049 99.7989 15.4804C99.7199 15.4553 99.5415 15.5412 99.3618 15.5049C99.1799 15.47 99.1729 15.5957 99.0813 15.5691C98.9924 15.5412 98.9924 15.4881 98.9848 15.4225C98.9743 15.3652 98.8672 15.2967 98.798 15.2506C98.7246 15.2066 98.463 15.1619 98.3755 15.1549C98.2846 15.1423 98.186 15.2129 97.9607 15.296C97.7362 15.3743 97.8194 15.3128 97.6586 15.384C97.4977 15.4546 97.5397 15.5684 97.5529 15.595C97.5599 15.6208 97.5138 15.7605 97.5243 15.8534C97.532 15.9408 97.4599 16.1049 97.4256 16.1496C97.3886 16.1964 97.2375 16.4081 97.1382 16.5045C97.0396 16.6016 97.1018 16.6281 97.0759 16.6798C97.0444 16.7343 96.9206 16.7511 96.7786 16.7406C96.6374 16.7343 96.7241 16.7231 96.6716 16.7085C96.6178 16.6896 96.494 16.6009 96.4562 16.3878C96.4198 16.1776 96.4289 16.1419 96.4723 16.0798C96.5191 16.0162 96.8507 15.7012 96.8507 15.7012L97.0591 15.5789C97.0591 15.5789 97.6663 15.1263 97.7642 15.1004C97.8628 15.0732 97.8922 15.1717 97.9286 15.1549C97.9614 15.1347 98.1587 15.1088 98.2587 15.0383C98.3552 14.967 98.6266 15.1256 98.698 15.1165C98.7707 15.1088 98.8777 15.1612 98.9302 15.1347C98.9847 15.1088 99.1344 15.1549 99.2722 15.1088C99.4072 15.0662 99.4317 15.1347 99.6122 15.0928C99.7933 15.0473 100.095 15.0927 100.22 15.1004C100.347 15.1095 100.627 15.2506 100.777 15.2129C100.933 15.1808 101.058 15.2066 101.091 15.2332C101.13 15.259 101.585 15.259 101.585 15.259C101.585 15.259 101.961 15.2422 102.069 15.2129C102.179 15.194 103.316 14.8587 103.385 14.8259C103.459 14.7889 103.567 14.6764 103.766 14.5521C103.964 14.4271 104.036 14.3677 104.22 14.2811C104.411 14.1896 104.437 14.1008 104.615 13.7774C104.797 13.4484 104.536 13.6356 104.329 13.535C104.124 13.44 104.194 13.5811 104.124 13.6C104.049 13.6147 103.262 13.6147 103.226 13.6C103.193 13.5811 103.137 13.4673 103.12 13.4393C103.101 13.4121 102.851 13.3702 102.788 13.3702C102.726 13.3702 102.279 13.3492 102.133 13.3066C101.988 13.264 101.988 13.3185 101.944 13.3066C101.899 13.2989 101.696 13.4673 101.648 13.4938C101.606 13.5197 101.398 13.5888 101.398 13.5888C101.398 13.5888 100.847 13.6517 100.742 13.6615C100.636 13.6691 100.591 13.4484 100.591 13.4484L100.643 13.4079L101.299 13.0069C101.299 13.0069 101.507 12.9608 101.659 12.9273C101.809 12.8945 101.757 13.0502 101.836 13.0321C101.918 13.0174 102.06 13.1026 102.117 13.1215C102.172 13.1362 102.625 12.9797 102.625 12.9797L103.98 13.0412C103.98 13.0412 103.701 13.1948 103.881 13.1166C104.063 13.0321 104.023 13.0621 104.194 13.0412C104.364 13.0244 104.725 13.0503 104.823 13.0412C104.922 13.0321 104.995 12.8994 105.119 12.7876C105.242 12.6716 105.413 12.6954 105.413 12.6954L105.942 12.6123L106.291 12.6381C106.291 12.6381 106.776 12.5585 106.849 12.5319C106.922 12.504 107.413 12.3378 107.504 12.2043C107.592 12.0702 107.442 11.934 107.422 11.8586C107.401 11.7873 107.29 11.7258 107.271 11.5847C107.25 11.4471 107.271 11.4073 107.322 11.3549C107.385 11.2962 107.474 11.3109 107.553 11.2962Z" fill="white" fill-opacity="0.18"/>
</svg>
