<svg width="7" height="5" viewBox="0 0 7 5" fill="none" xmlns="http://www.w3.org/2000/svg">
<path d="M6.30009 2.1394C6.30009 2.1394 6.1714 2.1394 6.1714 1.83275C6.1714 1.52609 5.83285 1.55613 5.83285 1.55613C5.83285 1.55613 5.239 1.5254 4.7137 1.43528C4.1828 1.34308 4.52484 1.52539 4.33669 1.49465C4.15343 1.46392 3.96178 1.37381 3.99466 1.06576C4.02753 0.759802 3.84146 0.819881 3.74564 0.6683C3.65191 0.515322 2.8762 0.791239 2.65727 0.604033C2.44113 0.423812 2.12637 0.454547 1.88086 0.333701C1.63395 0.207966 1.32059 0.116457 1.16112 0.0256482C1.01073 -0.0665577 0.450458 0.117158 0.169273 0.147893C-0.112612 0.180724 0.0426697 0.360944 0.0426697 0.576091C0.0426697 0.791937 0.169276 0.760508 0.133604 1.18731C0.107723 1.6204 0.133597 1.37521 0.41758 2.1394C0.698066 2.90569 0.510613 2.32381 0.915604 2.41462C1.32059 2.50682 1.22476 2.50682 1.4409 2.47609C1.66193 2.44745 1.78714 2.72197 2.0977 2.87565C2.40547 3.02723 2.0977 2.87565 1.06878 3.05797C1.06878 3.05797 1.25694 3.21444 1.53742 3.21444C1.81651 3.21444 1.78644 3.45613 1.81651 3.57977C1.84659 3.7048 2.00397 3.79073 2.06273 3.9465C2.12428 4.09529 2.43903 4.19308 2.8741 4.19308C2.96433 4.07014 2.87412 4.19308 3.34066 3.91786C3.8058 3.64334 3.55888 3.82565 3.68269 3.82565C3.68269 3.82565 3.52601 3.88503 3.9338 4.00797C4.3346 4.12881 4.27374 3.88502 4.77106 3.73344C4.93193 3.68385 5.14667 3.73344 5.48871 3.66848C5.83145 3.6105 5.79857 3.54764 6.08255 3.4254C6.35814 3.30525 6.16999 3.11664 6.20286 2.90569C6.23294 2.69403 5.79857 2.69404 5.7692 2.56621C5.73772 2.44746 6.30009 2.1394 6.30009 2.1394Z" fill="white" fill-opacity="0.18"/>
</svg>
