<svg width="140" height="94" viewBox="0 0 140 94" fill="none" xmlns="http://www.w3.org/2000/svg">
<path d="M139.042 11.6361C139.049 11.6514 139.066 11.2707 139.042 11.2924C138.602 11.1562 138.219 10.9711 137.747 10.9103C137.691 10.9033 137.646 10.8796 137.588 10.8768C137.349 10.2509 137.653 9.70743 137.688 9.1521C137.699 8.96699 137.68 8.78049 137.602 8.58839C137.247 7.73968 136.72 8.05472 135.847 7.83398L135.848 7.83048H135.845C135.824 7.38622 136.015 7.02369 136.436 6.81483C136.239 6.40199 136.345 6.08067 136.637 5.9235L136.639 5.9249L136.641 5.9235C136.569 5.85574 136.38 5.68111 136.329 5.60567C136.266 5.50927 135.831 5.57284 135.706 5.47505C135.582 5.38493 135.026 5.22567 134.93 5.12997C134.84 5.03427 134.404 5.16001 134.309 5.06571C134.22 4.97141 133.749 4.84357 133.626 4.74788C133.502 4.65218 133.218 4.8771 133.127 4.74788C133.035 4.62284 130.641 4.4028 130.457 4.4028C130.268 4.4028 129.555 4.43213 129.555 4.43213L128.095 3.73641C128.095 3.73641 127.753 3.4514 127.66 3.32287C127.564 3.19783 127.1 2.65787 127.034 2.53074C126.975 2.4071 126.198 2.4071 126.073 2.34214C125.95 2.27718 125.731 2.43505 125.639 2.4071C125.544 2.37218 125.265 2.72633 125.232 2.84438C125.203 2.9764 125.265 3.4514 125.265 3.60857C125.265 3.76504 125.298 3.86424 125.298 3.86424C125.298 3.86424 125.483 4.05004 125.67 4.02071C125.856 3.98927 125.888 4.20931 126.168 4.3064C126.445 4.4028 126.634 4.5914 126.885 4.55787C127.131 4.52784 127.194 4.90714 127.285 4.94207C127.38 4.9721 127.627 5.32137 127.906 5.3528C128.187 5.38563 128.154 5.79427 128.278 5.7335C128.403 5.66993 128.344 5.9242 128.374 6.08137C128.404 6.23854 128.5 6.46067 128.684 6.52214C128.871 6.59059 129.119 6.99923 129.119 7.2535C129.119 7.2535 128.996 7.38133 128.963 7.5385C128.934 7.69706 128.716 7.92059 128.716 7.92059C128.716 7.92059 128.061 8.23633 127.937 8.13853C127.817 8.04493 127.662 8.4885 127.662 8.4885L127.691 8.80702L127.411 9.12137L127.195 9.37564C127.195 9.37564 126.603 9.27994 126.54 9.1528C126.477 9.02707 126.326 8.87059 126.326 8.87059C126.326 8.87059 126.356 8.33273 126.447 8.04563C126.541 7.76133 126.231 7.47703 126.231 7.47703C126.231 7.47703 126.231 7.47702 125.579 7.2535C125.471 7.21787 125.112 7.38133 124.799 7.3478C124.49 7.31777 124.457 7.50427 124.457 7.50427C124.457 7.50427 123.835 7.85423 123.744 7.98066C123.652 8.10919 123.246 8.33203 123.246 8.33203L122.532 8.71133L121.629 8.42563L120.731 8.52272H120.358L119.651 8.66383C119.651 8.66383 117.974 9.37004 117.884 9.39938C117.798 9.43151 116.756 9.60754 116.581 9.52092C116.41 9.43081 115.828 9.55096 115.599 9.43082C115.366 9.31556 115.919 9.25408 116.033 9.22265C116.148 9.19261 116.468 8.89644 116.523 8.60306C116.582 8.30898 116.497 7.98556 116.497 7.98556L117.28 7.18713C117.28 7.04114 116.062 7.27376 116.062 7.27376C116.062 7.27376 115.57 7.56784 115.48 7.60207C115.395 7.63141 114.817 7.92478 114.698 7.92478C114.581 7.92478 114.411 8.48431 114.411 8.48431C114.411 8.48431 113.947 9.07666 113.744 9.16468C113.541 9.25549 113.627 8.81052 113.541 8.69527C113.453 8.57442 113.104 8.69527 113.049 8.48431C112.988 8.27824 112.641 8.60375 112.641 8.60375C112.641 8.60375 111.947 8.92788 111.831 8.96141C111.713 8.98795 111.048 8.96141 111.048 8.96141C111.048 8.96141 110.498 9.16467 110.411 9.25548C110.324 9.3421 109.771 9.75772 109.657 9.87577C109.541 9.99383 108.554 10.5541 108.468 10.5541C108.382 10.5541 108.817 10.6421 108.817 10.6421C108.817 10.6421 106.73 11.3525 106.208 11.4405C105.688 11.5285 105.744 11.708 105.659 11.824C105.572 11.9434 105.514 12.8878 105.485 12.8278C105.455 12.7719 105.11 13.0939 104.991 13.242C104.875 13.3915 104.706 13.476 104.706 13.476L102.731 13.9559C102.731 13.9559 102.125 14.0691 102.007 13.981C101.891 13.893 101.368 13.2113 101.342 12.9472C101.312 12.6804 101.167 12.8585 100.763 12.7998C100.355 12.739 100.269 12.5037 100.151 12.3835C100.04 12.2675 100.296 12.1209 100.355 11.8533C100.414 11.5872 100.618 11.6431 100.703 11.4691C100.789 11.2903 100.963 11.2638 101.254 11.0528C101.545 10.8509 101.775 11.0528 101.775 11.0528L102.705 10.9368C102.705 10.9368 103.283 10.9068 103.426 10.7881C103.572 10.6707 103.253 10.7287 103.283 10.3759C103.309 10.0204 102.355 9.36865 102.296 9.19751C102.24 9.01659 101.63 8.80843 101.544 8.69387C101.456 8.57303 101.078 8.69387 100.848 8.57302C100.617 8.45637 100.21 8.66313 100.063 8.57302C99.9187 8.48291 99.4563 8.54438 99.1073 8.51504C98.7611 8.4878 98.4715 8.54438 98.2379 8.6331C98.005 8.72111 97.1964 8.45707 97.1964 8.45707C97.1964 8.45707 97.3139 8.8699 97.5748 8.83916C97.8343 8.80982 98.0371 9.04662 98.1239 9.04662C98.2127 9.04662 98.4715 9.43151 98.5575 9.5761C98.6442 9.72768 98.617 9.84924 98.5876 9.93096C98.5575 10.0253 98.5876 10.2313 98.6177 10.3773C98.645 10.524 98.6177 10.6714 98.6765 10.7622C98.7338 10.8523 98.5883 11.1157 98.6177 11.3231C98.645 11.5285 98.3036 12.0622 98.1246 12.2976C97.9504 12.5337 97.8637 12.8271 97.8937 12.9172C97.9196 13.0038 98.2134 13.0688 98.4442 13.1232C98.6743 13.1819 98.7338 13.2413 98.8485 13.3586C98.9632 13.4753 99.0528 13.8036 99.0814 13.981C99.108 14.1578 98.9331 14.6013 98.8485 14.8675C98.7618 15.135 98.7618 15.0749 98.6757 15.2195C98.5876 15.3669 98.617 15.7225 98.5323 16.0179C98.4435 16.3127 98.4134 16.8464 98.3547 16.611C98.2987 16.3735 98.2127 16.5209 98.0644 16.4049C97.9189 16.2876 97.8343 16.1353 97.7497 15.8985C97.6629 15.6624 97.3698 15.7825 97.2852 15.6065C97.1971 15.4305 96.8208 15.515 96.5872 15.4305C96.357 15.3369 95.9205 15.3103 95.7177 15.1895C95.5169 15.0749 95.0546 15.2195 95.0546 15.2195C95.0546 15.2195 93.8942 16.3735 93.662 16.4895C93.4291 16.611 93.229 16.6955 92.7953 16.8471C92.3589 16.9952 92.3302 17.1412 92.242 17.1992C92.1553 17.2585 91.4573 17.7028 91.3726 17.7307C91.2887 17.7622 90.5633 18.2057 90.6501 18.9127C90.7361 19.6217 91.0837 19.2703 91.2887 19.3863C91.4894 19.5064 91.9818 20.6541 91.9818 20.6541C91.9818 20.6541 91.693 20.7749 91.1124 20.8315C90.5333 20.8916 90.65 20.9216 90.3591 20.8623C90.0716 20.8022 89.8065 20.9216 89.696 20.8022C89.5771 20.6862 89.0567 20.6254 88.9119 20.5961C88.7692 20.5696 88.19 20.7421 88.1005 20.6862C88.0138 20.6255 87.5214 20.6255 87.4332 20.5367C87.3465 20.4487 86.768 19.8284 86.6785 19.6524C86.5939 19.4764 85.7818 19.0901 85.7818 19.0901C85.7818 19.0901 85.3166 19.3562 85.2327 19.4156C85.1467 19.4757 84.7424 19.9171 84.6521 19.9758C84.564 20.0352 84.6522 20.3293 84.7676 20.448C84.8872 20.5689 84.9977 20.8916 85.0564 21.069C85.1166 21.2443 85.4334 21.6013 85.5502 21.7515C85.6692 21.8989 86.2154 21.924 86.3896 21.8989C86.5645 21.8646 87.2017 22.2516 87.2604 22.3417C87.3178 22.4277 87.1758 22.5485 87.0569 22.6358C86.9394 22.7238 86.7072 22.9571 86.5379 23.0773C86.3617 23.1953 86.1889 23.1388 86.014 23.1388C85.8391 23.1388 85.5202 23.2533 85.232 23.1388C84.9417 23.0179 84.855 22.9013 84.8263 22.7853C84.7962 22.6652 84.2178 22.575 84.073 22.4277C83.9275 22.2782 83.724 22.1315 83.3484 21.924C82.9714 21.7179 83.149 21.8989 82.8251 21.8081C82.5055 21.7179 82.0725 21.69 81.8976 21.6593C81.7249 21.6292 81.6088 21.5412 81.6388 21.3058C81.6675 21.0697 81.8123 21.0076 81.8123 20.8923C81.8123 20.7756 81.6934 20.3041 81.5829 20.0939C81.4633 19.8878 81.259 19.5323 81.1429 19.3863C81.0296 19.2389 80.9695 18.8225 81.173 18.4705C81.173 18.4705 81.4892 17.9969 81.5479 17.7622C81.6081 17.5247 81.6374 17.3459 81.6081 17.0525C81.5822 16.757 81.3787 16.8164 80.9989 16.6648C80.6218 16.5202 80.8554 16.581 80.6533 16.4322C80.4491 16.2869 80.3022 16.3428 79.9272 16.1646C79.5509 15.99 79.5817 16.106 79.4041 15.814C79.2334 15.515 79.1746 15.4598 79.0012 15.2803C78.8284 15.1022 78.7976 15.0742 78.7095 14.9254C78.6249 14.776 78.4486 14.8367 78.2185 14.7466C77.9855 14.6565 77.7813 14.3345 77.6953 14.2423C77.6113 14.1564 77.3497 13.5968 77.3497 13.5968L76.8286 13.2406C76.8286 13.2406 76.9734 13.2406 77.3497 13.2106C77.726 13.1805 77.5519 13.3286 77.7526 13.3901C77.9562 13.4502 77.931 13.6828 78.1597 13.8322C78.3933 13.9796 78.3639 14.0062 78.6829 14.2758C79.0005 14.5434 79.1131 14.4218 79.3782 14.4819C79.6405 14.5434 79.7265 14.5433 79.8405 14.5999C79.9573 14.6558 80.2455 14.69 80.4197 14.7459C80.5939 14.806 81.059 14.9248 81.2884 14.9248C81.5221 14.9248 81.8963 15.3355 82.1278 15.4906C82.3614 15.6324 82.6804 15.5457 83.1994 15.7777C83.7226 16.0166 84.3906 15.8133 84.4759 15.8398C84.5619 15.8671 85.2313 15.8671 85.6349 16.0487C86.0427 16.2247 86.3323 16.2247 86.6498 16.3421C86.966 16.4629 88.6475 16.4874 88.7923 16.3714C88.9385 16.2513 89.3448 16.3113 89.8946 16.1639C90.4437 16.0166 90.415 16.0487 90.415 16.0487L90.734 15.9886C90.734 15.9886 91.4013 15.691 91.6601 15.5751C91.9245 15.4584 92.3281 15.1874 92.6149 14.8053C92.9072 14.4211 92.9667 14.3918 93.1975 14.1249C93.427 13.8623 93.4878 13.6814 93.4878 13.4194C93.4878 13.1498 93.4277 13.0352 93.343 12.7691C93.2563 12.5016 93.0821 12.4422 93.0234 12.1195C92.9632 11.7932 92.8226 11.8519 92.5897 11.5858C92.3582 11.3203 92.1252 11.3203 91.8363 10.8754C91.5468 10.4339 91.3461 10.5813 91.139 10.2823C90.9383 9.99173 90.8781 10.1105 90.5899 10.0497C90.2996 9.99104 90.1248 9.961 89.9247 9.92817C89.7212 9.90163 89.2567 9.63548 89.1714 9.60545C89.084 9.57332 88.332 9.07387 87.9249 8.66174C87.52 8.24611 87.201 8.60166 87.0562 8.36556C86.9107 8.13086 86.6778 8.06938 86.5064 7.7753C86.3309 7.47773 85.6944 7.6293 85.5496 7.50776C85.4048 7.38901 85.146 7.24162 84.997 7.21159C84.855 7.18504 84.3332 7.0635 84.2437 6.97548C84.1576 6.88887 83.9275 6.68141 83.8687 6.50468C83.8142 6.32585 83.3784 6.32585 83.2616 6.26927C83.149 6.2078 82.6216 6.35519 82.5377 6.38593C82.451 6.41597 81.4899 6.47743 81.4052 6.32585C81.3192 6.17915 81.1149 6.17916 81.0597 6.06181C80.9995 5.94166 80.477 5.85364 80.477 5.85364L80.1007 5.91442C80.1007 5.91442 79.7272 6.14773 79.6377 6.12328C79.5509 6.09045 79.1746 6.23784 79.1138 6.12328C79.0585 5.99824 79.0291 5.70835 79.0012 5.62033C78.9704 5.53022 78.5087 5.91441 78.422 5.88787C78.3346 5.85364 77.9855 5.94166 77.8694 5.76563C77.7526 5.5903 77.3189 5.64688 77.2056 5.3514C77.0867 5.05593 77.4358 5.116 77.5225 5.116C77.6113 5.116 78.3052 4.93926 78.1891 4.76324C78.0751 4.58721 77.9855 4.43982 77.9303 4.34831C77.8687 4.2603 76.6531 4.16809 76.6531 4.16809C76.6531 4.16809 76.3033 4.46637 76.2746 4.31688C76.2474 4.16809 75.7543 4.22956 75.7543 4.22956L75.3486 4.67243C75.3486 4.67243 75.0667 4.76813 74.9114 4.77302C74.875 4.77581 74.8421 4.77301 74.8302 4.76324C74.7372 4.70176 74.0734 4.58721 74.0734 4.58721C74.0734 4.58721 73.8125 4.76324 73.3495 4.84846C72.885 4.93927 72.9396 4.70177 72.9396 4.70177C72.9396 4.70177 72.422 4.55508 72.336 4.4957C72.2485 4.43982 71.5826 3.90615 71.5826 3.90615C71.5532 3.786 71.9023 3.67073 72.0177 3.57993C72.1317 3.49191 72.3947 3.81604 72.5962 3.84607C72.7969 3.87611 73.1201 3.67004 73.6384 3.25582C74.1581 2.84229 74.1028 2.98688 74.4525 2.72353C74.7967 2.45529 74.4812 2.43015 74.4812 2.43015C74.4812 2.43015 74.4812 1.8357 74.4224 1.62964C74.3623 1.42357 73.609 1.60309 73.5251 1.39354C73.4355 1.18607 72.7969 1.18607 72.6262 0.977909C72.4514 0.769747 71.9876 1.06942 71.8428 0.977909C71.6987 0.894086 70.9454 0.863346 70.8594 0.801177C70.7712 0.744596 70.5103 0.923422 70.4551 0.923422C70.3963 0.923422 69.8438 2.13187 69.757 2.27787C69.6724 2.43015 69.4688 2.36938 69.4688 2.36938C69.4688 2.36938 69.2646 1.86504 69.2646 1.62964C69.2646 1.39353 69.3527 1.24544 69.4688 1.06941C69.5829 0.894083 69.8137 0.833308 69.9906 0.745293C70.1648 0.657279 70.1319 0.596506 70.0214 0.328271C69.9025 0.0642268 69.6983 0.152248 69.4087 0.0355933C69.1198 -0.0824583 68.6295 0.123607 68.4252 0.211622C68.2217 0.303828 67.9622 0.328277 67.9622 0.685924C67.9622 0.810961 67.7572 1.65897 67.7572 1.65897C67.7572 1.65897 67.3523 2.04176 67.2641 2.01592C67.1781 1.98449 66.8032 2.24923 66.6577 2.16052C66.5143 2.0725 66.5395 1.98449 66.6276 1.8357C66.7171 1.68971 66.6829 0.745299 66.5395 0.657284C66.3947 0.565777 66.2499 0.863348 66.1653 1.03938C66.0785 1.2182 65.7295 1.62963 65.6714 1.81125C65.6127 1.98449 64.9188 2.57545 64.7761 2.60548C64.6279 2.63203 64.1375 3.01901 63.7297 2.81224C63.6255 2.75706 63.6437 2.6935 63.9039 2.31C64.1641 1.92581 64.4865 1.45361 64.8887 1.18607C65.2951 0.923427 65.3804 0.211622 65.3804 0.211622C65.3804 0.211622 64.802 0.625853 64.453 0.565779C64.1088 0.509897 63.615 0.71805 63.615 0.71805C63.615 0.71805 63.4409 1.06942 63.4702 1.27199C63.4996 1.48225 62.8624 1.74978 62.7169 1.8357C62.5714 1.92581 62.2812 1.95305 62.1385 1.92581C61.9923 1.89647 61.8475 2.27787 61.7635 2.43015C61.6733 2.57544 61.0368 2.69349 61.0368 2.69349C61.0368 2.69349 60.5716 2.92959 60.4611 2.98687C60.3408 3.04765 60.2541 3.16571 60.1673 3.13567C60.0771 3.10913 59.498 3.46327 59.2685 3.4011C59.0356 3.34103 58.7453 3.165 58.6292 3.01901C58.5159 2.86953 58.0794 3.04765 57.9661 2.98687C57.8507 2.92959 57.9661 2.98688 58.0249 3.22578C58.0801 3.46328 58.2249 3.57923 58.2564 3.60787C58.2851 3.64001 57.82 3.99136 57.6759 3.99136C57.5297 3.99136 57.2681 4.05353 57.2422 3.90544C57.2121 3.75596 56.663 3.75596 56.514 3.7853C56.3693 3.81533 56.514 4.02279 56.4854 4.22886C56.4595 4.43912 55.0668 5.02518 55.0668 5.02518C55.0668 5.02518 54.6625 5.20541 54.2876 5.20541C54.1932 5.20541 53.9939 4.96861 53.9652 4.76254C53.9386 4.55508 53.4741 4.40978 53.4455 4.31618C53.4154 4.22886 52.9817 4.52504 52.8936 4.61376C52.8076 4.70177 52.8076 4.96931 52.8076 4.96931C52.8076 4.96931 52.8369 5.61964 52.8369 5.5903C52.8369 5.55956 52.2879 5.91372 52.1683 5.91372C52.0542 5.91372 51.708 6.08974 51.6192 6.0611C51.531 6.03107 51.2422 5.9717 51.2422 5.58961C51.2422 5.20541 50.7211 5.17537 50.6623 4.99515C50.6071 4.81912 49.9384 5.52883 49.8796 5.73489C49.8236 5.94096 50.0244 6.38523 50.1685 6.50468C50.3168 6.62343 50.4329 6.85952 50.3168 6.88886C50.2027 6.9154 49.9132 7.0635 49.853 6.97548C49.795 6.88887 49.1004 6.79806 49.1004 6.91541C49.1004 7.02089 49.2473 7.2046 49.2872 7.21857C49.2613 7.27096 49.1885 7.47703 49.1885 7.47703L48.8654 7.83467C48.8654 7.83467 48.373 8.01071 48.3163 7.86122C48.261 7.71383 48.0869 7.50776 48.0568 7.36107C48.0281 7.21159 47.7078 7.59928 47.5042 7.71383C47.3028 7.83468 47.158 7.71383 47.2447 7.47703C47.3328 7.24093 47.3895 6.44461 47.1881 6.44461C46.9831 6.44461 46.5788 6.85883 46.5208 7.00622C46.4634 7.15501 46.2592 7.65515 46.2011 7.80603C46.1423 7.95202 45.6807 8.3942 45.5023 8.54159C45.3317 8.68828 45.1023 9.33652 45.1023 9.33652C45.2729 9.18983 45.389 9.16048 45.6807 9.1039C45.9696 9.04243 45.8521 9.39589 46.0556 9.33652C46.2592 9.28133 46.3746 9.42803 46.6635 9.16049C46.9537 8.89435 46.9244 9.16048 47.1573 9.01379C47.3888 8.8664 47.3888 9.07247 47.7658 9.04243C48.1421 9.01379 47.9379 9.36585 48.0267 9.60335C48.1142 9.84434 47.7322 10.1671 47.7322 10.1671C47.7322 10.1671 47.3021 10.2795 47.3021 10.0176C47.3021 9.75353 47.0685 9.69346 46.9537 9.63338C46.8376 9.57191 46.49 10.077 46.49 10.077C46.49 10.077 46.1137 10.1356 46.0843 9.95961C46.0549 9.78008 45.68 10.3096 45.5919 10.2802C45.5016 10.2537 45.5016 10.4053 45.5352 10.6672C45.5618 10.9334 45.389 10.9934 45.331 10.9934C45.2722 10.9934 44.9826 11.2868 44.8686 11.2302C44.7532 11.1695 44.4629 11.5543 44.4629 11.882C44.4629 12.2026 44.5196 12.1446 44.6077 12.2026C44.6945 12.2641 44.1139 12.8543 43.9705 12.8836C43.825 12.9137 43.5054 13.3552 43.3913 13.4718C43.2759 13.5941 43.2759 13.7994 43.2759 13.7994C43.2759 13.7994 41.8546 15.1308 41.9099 15.5115C41.97 15.895 41.9442 15.895 42.0547 15.9257C42.1743 15.9558 41.6798 16.1933 41.3601 16.1618C41.046 16.1318 40.9299 16.1318 40.7229 16.1318C40.5221 16.1318 40.4375 16.4895 40.3774 16.8129C40.3508 16.9596 41.1013 16.991 40.9299 17.1091C40.7558 17.225 40.697 17.2851 40.5809 17.4031C40.4634 17.5205 40.3774 17.6357 40.3774 17.8153C40.3774 17.9934 40.348 18.3489 40.348 18.3489L40.1731 18.8246L39.7387 19.0873C39.7387 19.0873 39.4492 19.2067 39.3317 19.1453C39.219 19.0873 39.2778 19.4414 39.2778 19.4414C39.2778 19.4414 39.0994 19.973 39.0742 20.1546C39.0407 20.3272 38.8399 20.5339 38.8399 20.5339C38.8399 20.5339 38.6084 20.7994 38.5203 20.8609C38.4356 20.9195 38.1167 21.0956 38.0285 20.9461C37.9418 20.8001 37.7705 20.9195 37.6823 20.8902C37.5963 20.8616 37.3025 21.2143 37.3025 21.2143C37.3025 21.2143 37.0136 21.6579 36.9891 21.7501C36.9577 21.8381 36.3204 22.3061 36.2036 22.3403C36.0868 22.3655 35.7119 22.6344 35.6252 22.6344C35.537 22.6344 35.3377 23.1374 35.3041 23.3434C35.2783 23.546 34.9579 23.9036 34.9579 23.9036L34.4382 24.3759C34.4382 24.3759 34.0311 24.6141 33.9989 24.4939C33.973 24.3759 34.0892 24.1397 34.2032 23.9036C34.3186 23.6675 33.8884 23.8471 33.7695 23.6976C33.6527 23.546 33.4498 23.8736 33.3358 24.0797C33.2169 24.2878 33.2771 24.5819 33.1617 24.8215C33.0462 25.0569 32.9315 25.2036 32.8714 25.3796C32.8161 25.5571 32.0334 25.4684 31.8299 25.4956C31.6263 25.5249 31.3102 25.5571 31.1619 25.5249C31.0157 25.4956 30.8163 25.6716 30.731 25.8532C30.6408 26.0265 30.6408 26.2968 30.6408 26.2968C30.6408 26.2968 30.4114 26.593 30.3232 26.6195C30.2372 26.6517 29.8581 26.6517 29.7126 26.5636C29.5678 26.4756 29.4538 26.6796 29.3929 26.7697C29.3342 26.8577 29.309 27.0345 29.309 27.0345L28.6998 27.5367C28.6998 27.5367 28.0612 27.9209 27.8282 28.0704C27.5967 28.2157 27.3085 28.3645 27.2246 28.3938C27.1351 28.4231 26.9602 28.7787 26.9343 28.9275C26.9056 29.0735 26.7601 29.369 26.7308 29.5429C26.7014 29.7238 26.5559 30.2826 26.6405 30.4335C26.7308 30.5788 26.9343 30.7863 27.0483 30.7548C27.1644 30.7283 27.1351 31.1097 27.1351 31.2298C27.1351 31.3472 26.9896 31.6413 26.8749 31.8795C26.7594 32.1156 26.6405 32.7072 26.5258 32.9713C26.4097 33.2409 26.7301 33.5937 26.8749 33.6495C27.0203 33.7124 27.6282 33.7389 27.6282 33.7389C27.6282 33.7389 27.9779 34.0365 28.0332 34.2705C28.1318 34.6687 27.859 34.478 27.6548 34.953C27.4547 35.4238 27.4841 35.5433 27.2799 35.8066C27.0791 36.0727 27.0462 36.4583 27.2246 36.5191C27.3967 36.5771 27.3659 36.605 27.5128 36.4849C27.6548 36.3689 27.8282 36.3689 28.1192 36.1614C28.4109 35.9561 28.5564 36.137 28.641 36.2523C28.7271 36.3689 28.5858 36.7245 28.4955 36.8726C28.4109 37.0185 28.0332 37.3762 27.8037 37.6088C27.5736 37.8442 27.7135 37.9064 27.7135 38.2626C27.7135 38.6147 28.0912 38.6769 28.4109 38.7334C28.727 38.7907 28.8152 38.9416 28.9893 39.1183C29.1649 39.2951 29.3936 39.3244 29.8581 39.5326C30.3232 39.7351 30.7275 39.8308 31.1906 39.8846C31.6557 39.9447 32.9868 39.2063 32.9868 39.2063C32.9868 39.2063 33.4505 38.8529 33.5366 38.7607C33.6268 38.6769 33.7989 38.5281 34.264 38.2312C34.725 37.935 34.6382 38.0251 34.8131 37.8191C34.9873 37.6088 35.1013 37.6388 35.337 37.5508C35.5664 37.467 35.77 37.3154 36.1155 37.2302C36.4645 37.1394 36.6093 36.6351 36.5799 36.4856C36.5492 36.3382 36.8136 35.0696 37.0136 35.1053C37.2179 35.1255 36.9884 35.5439 36.957 35.8387C36.9297 36.137 37.0731 36.1614 37.1885 36.401C37.3025 36.6351 37.5963 36.605 37.8257 36.6951C38.0551 36.7831 38.0551 36.9305 38.1719 37.2854C38.1929 37.3378 38.2006 37.3839 38.2048 37.4279C38.2293 37.6479 38.0768 37.6808 38.0285 37.9071C37.9712 38.1725 38.0873 38.3192 38.1167 38.6468C38.1454 38.9688 38.465 38.9416 38.6651 39.0548C38.8693 39.1742 39.1582 39.3244 39.2183 39.4725C39.2771 39.6185 39.1309 40.1822 39.3037 40.5943C39.4778 41.0044 39.4226 41.4521 39.5072 41.8049C39.5939 42.1597 39.8835 42.1919 40.2326 42.3958C40.576 42.6061 40.576 42.9882 40.7509 43.2823C40.9285 43.5784 41.0999 43.5784 41.0999 43.8138C41.0999 44.0506 41.0705 44.1079 41.0153 44.3447C40.9551 44.5836 40.6662 44.8176 40.5466 44.9678C40.4354 45.1145 40.6054 45.3799 40.6949 45.556C40.7824 45.7341 41.0153 45.9108 41.0698 46.0282C41.1286 46.1476 41.244 46.3537 41.244 46.4438C41.244 46.5325 41.535 47.0033 41.6224 47.1228C41.707 47.2401 42.3757 46.9474 42.3757 46.9474C42.3757 46.9474 43.3893 46.9474 43.4746 46.9474C43.5592 46.9474 43.853 46.7973 43.9083 46.3837C43.9684 45.9716 43.8229 45.8522 43.8229 45.6733C43.8229 45.4959 44.4608 45.5895 44.6343 45.2619C44.8106 44.9385 44.9218 45.2319 45.068 45.141C45.2114 45.0544 45.4457 45.1711 45.5912 45.141C45.7367 45.1145 46.2585 45.2619 46.3452 45.2319C46.4291 45.2018 46.7488 45.2619 46.8376 44.9944C46.9237 44.7275 47.0684 44.7275 47.1272 44.4642C47.1867 44.198 47.6196 44.1366 47.6196 44.1366C47.5882 44.2253 47.6763 44.9678 47.6763 44.9678C47.6763 44.9678 48.0547 44.5564 48.1414 44.1079C48.2261 43.6672 48.4009 43.7258 48.4597 43.5184C48.5149 43.3109 48.694 42.0989 48.694 42.0989C48.6052 42.1304 48.6052 42.2484 48.4891 42.3679C48.3715 42.4838 48.2561 42.8114 48.1715 42.868C48.0855 42.9267 47.8519 43.1663 47.8519 43.1663C47.8519 43.0175 47.8519 43.1663 47.9064 42.9267C47.9687 42.6899 47.9687 42.7507 48.0267 42.574C48.0855 42.3958 48.1142 42.4545 48.1142 42.2484C48.1142 42.0424 48.1142 41.8957 48.1715 41.7148C48.2268 41.5387 48.2268 41.4521 48.2268 41.3613C48.2268 41.274 48.2568 41.0051 48.2869 40.8619C48.3156 40.7124 48.3722 40.6244 48.3722 40.3575C48.3722 40.0907 48.3471 39.8301 48.3156 39.3244C48.2869 38.8221 48.3722 39.2063 48.4898 38.8529C48.6066 38.5008 48.6947 38.5281 48.8094 38.2927C48.9255 38.051 49.1584 38.1998 49.1584 38.1998C49.1584 38.1998 49.4746 38.1131 49.7075 37.9951C49.937 37.8763 50.2538 37.9357 50.2538 37.9357C50.2538 37.9357 50.4909 37.7003 50.5756 37.6095C50.6609 37.5236 50.7197 37.5508 50.8952 37.4921C51.0652 37.4335 51.3002 37.3161 51.3849 37.196C51.473 37.0779 51.7926 36.8439 51.822 36.7545C51.8535 36.6658 51.964 36.5198 51.9087 36.3382C51.8542 36.1615 51.822 36.1915 51.7933 36.0734C51.7605 35.9561 51.8801 35.8946 51.9087 35.7186C51.9381 35.5432 52.199 35.5712 52.4026 35.3358C52.6033 35.1046 52.5166 35.1891 52.5446 34.8615C52.5732 34.5395 52.5446 34.8615 52.3424 34.3928C52.29 34.267 52.1675 34.0945 52.0829 33.9192C51.9983 33.739 51.7926 33.8877 51.6492 33.8025C51.5045 33.7124 51.473 33.623 50.8071 33.0327C50.1405 32.4376 50.4028 32.9713 50.202 32.7366C49.9985 32.4991 49.8789 32.6464 49.6495 32.5284C49.4172 32.4089 49.3592 32.4711 49.2725 32.409C49.1878 32.3524 49.2725 32.409 49.3592 31.9996C49.4452 31.5833 49.3886 31.556 49.3291 31.1747C49.2725 30.787 49.1592 30.6102 49.1878 30.342C49.2137 30.0773 49.2725 30.0458 49.3004 29.8998C49.3291 29.751 49.5334 29.8998 49.6495 29.6938C49.7628 29.487 49.6495 29.4577 49.5893 29.1601C49.5327 28.866 49.562 29.0134 49.6782 28.8108C49.7943 28.6034 49.8229 28.7172 49.937 28.3938C50.0531 28.0704 49.937 28.3938 49.8523 27.8643C49.8285 27.7183 49.59 27.777 49.6495 27.4501C49.7082 27.1246 49.7628 27.2999 49.937 27.2699C50.1118 27.2433 50.2538 27.4214 50.4021 27.3264C50.5476 27.2426 50.6924 27.1518 50.7511 26.9457C50.8064 26.7397 50.6343 26.6517 50.6609 26.5636C50.6917 26.4756 50.6609 26.236 50.5469 25.9434C50.4308 25.6458 50.7511 25.9734 50.8645 25.9734C50.9799 25.9734 51.154 26.1201 51.3002 26.0593C51.445 26.0027 51.8213 25.5571 51.9633 25.3796C52.1081 25.2036 52.5432 25.2036 52.7768 25.0569C53.0104 24.9053 53.2133 24.7594 53.6742 24.4932C54.1373 24.2271 54.0785 24.3752 54.2827 24.1991C54.4828 24.0203 54.5429 23.9616 54.7164 23.8464C54.8906 23.7262 55.12 23.9029 55.355 23.7262C55.5887 23.5446 55.5886 23.5788 55.7593 23.3728C55.9335 23.1653 56.0496 23.0452 56.3385 22.7539C56.6287 22.4549 56.7162 22.3962 56.9484 22.1608C57.1813 21.9212 57.0072 21.982 57.0918 21.8367C57.1813 21.6865 57.296 21.5384 57.3247 21.303C57.3562 21.0669 57.1519 21.2423 56.9484 20.9188C56.7455 20.5933 56.6609 20.6227 56.6868 20.3265C56.7162 20.0324 56.8323 20.0904 57.0918 19.7083C57.3562 19.3227 57.2408 19.5609 57.4114 19.206C57.5856 18.8519 57.6737 18.8519 57.8486 18.7625C58.0228 18.6696 58.0781 18.7031 58.339 18.467C58.5999 18.2309 58.688 18.2309 58.8335 18.0549C58.9761 17.8767 58.9762 17.7587 59.2084 17.5526C59.4413 17.3424 59.4413 17.5212 59.5854 17.4332C59.7295 17.3431 59.961 17.5212 60.1058 17.4946C60.252 17.4618 60.3688 17.5792 60.5695 17.4946C60.7731 17.4031 60.715 17.5526 60.9186 17.4946C61.1186 17.4332 61.0633 17.6993 61.4131 17.6092C61.7579 17.5212 61.7013 18.0549 61.8762 17.9634C61.9748 17.9124 62.0272 17.8711 62.1154 17.8069C62.1797 17.7587 62.2608 17.6993 62.3965 17.6092C62.7155 17.4031 62.8001 17.7587 63.0338 17.8153C63.2646 17.8767 63.4653 17.9934 63.7283 18.1429C63.992 18.2903 63.7885 18.6465 63.9025 18.731C64.0186 18.819 64.1627 19.4414 64.1921 19.3828C64.2222 19.3227 64.134 20.2392 64.1627 20.3265C64.1921 20.4145 63.6136 20.0324 63.6136 20.0324C63.6136 20.0324 63.1778 20.2392 63.2093 20.1225C63.2359 19.9996 63.0337 20.7721 63.0051 20.8595C62.9743 20.9454 62.57 21.1542 62.279 21.3296C61.9909 21.5091 62.0496 21.5992 61.9615 21.7152C61.8754 21.8367 61.6124 22.2188 61.6124 22.2188C61.6124 22.2188 61.0046 22.721 60.9179 22.807C60.8304 22.8985 60.7143 22.9865 60.3982 23.2827C60.075 23.5788 59.8456 23.5446 59.8456 23.5446C59.8456 23.5446 59.1531 23.8464 59.1531 24.0196C59.1531 24.1984 59.1224 24.3458 59.1224 24.4932C59.1224 24.6427 58.6551 24.8488 58.4558 24.9347C58.255 25.0269 57.7311 25.1449 57.5569 25.0856C57.3849 25.0269 57.296 25.263 57.2107 25.409C57.1212 25.5571 56.8917 25.8833 56.6609 26.1194C56.4259 26.3527 56.5119 26.4149 56.4574 26.563C56.3979 26.7096 56.2224 27.0924 56.279 27.4487C56.3385 27.8028 56.542 28.2143 56.6288 28.3337C56.7162 28.4525 57.0918 29.1594 57.3247 29.1922C57.5569 29.2188 57.501 30.0193 57.501 30.0193C57.501 30.0193 56.7456 31.9654 57.0918 32.5584C57.4408 33.148 57.296 32.7652 57.4114 32.9412C57.5275 33.1187 57.8738 33.1787 58.0507 33.2681C58.2235 33.3555 58.6551 33.3247 58.8887 33.3247C59.1224 33.3247 59.2672 33.5371 59.5574 33.5937C59.8456 33.6495 59.8162 33.8884 60.0197 34.2712C60.2205 34.6547 60.3688 34.4228 60.4849 34.596C60.5989 34.7756 61.4383 34.923 61.6712 34.7476C61.9034 34.5716 62.0503 34.6261 62.2504 34.5087C62.4525 34.39 62.3658 34.5716 62.5966 34.3292C62.8295 34.0945 62.7708 34.2412 62.975 34.2132C63.1786 34.1825 63.3786 34.2412 63.7591 33.9757C64.134 33.7089 64.134 33.6237 64.2816 33.5056C64.4264 33.3834 64.6831 33.5056 65.0342 33.4749C65.3798 33.4456 65.4105 33.5371 65.5546 33.4176C65.6987 33.2989 65.8442 33.3254 66.4786 33.0013C67.1172 32.6779 66.8857 33.0893 67.0627 33.0893C67.2347 33.0893 67.5838 33.2409 68.1902 33.3247C68.1902 33.3247 68.5379 33.2409 68.9736 33.0006C69.1842 32.8902 69.2352 32.8637 69.2898 32.8595C69.3381 32.8532 69.3877 32.8714 69.6129 32.8225C70.0466 32.7366 69.9305 32.9412 70.1053 33.0621C70.2767 33.1787 70.218 33.2975 70.3949 33.5615C70.5698 33.827 70.6838 33.8584 70.9153 33.9464C71.1448 34.0365 71.4938 34.0938 71.612 34.0365C71.7274 33.9751 72.2478 34.0645 72.422 33.975C72.5955 33.8877 73.0005 34.3886 72.8843 34.3627C72.7703 34.3292 72.394 34.508 72.1898 34.478C71.9869 34.4487 71.7561 34.6254 71.612 34.508C71.4679 34.3893 71.2329 34.6254 71.1196 34.5709C71 34.508 70.4215 34.9223 70.3054 34.8929C70.19 34.8615 69.813 35.1891 69.7276 35.1591C69.6409 35.1255 69.2359 35.6005 69.2359 35.6005C69.2359 35.6005 69.224 35.6103 69.2142 35.618C69.1317 35.6857 68.8463 35.9156 68.7701 35.8688C68.684 35.8066 68.3091 36.0427 68.2217 35.8688C68.135 35.6885 67.6719 36.0141 67.5565 35.7472C67.4376 35.4832 66.9193 35.6885 66.8032 35.5705C66.6835 35.4545 66.3387 35.6885 66.0792 35.5118C65.8169 35.3351 65.6714 35.4545 65.5854 35.3938C65.4973 35.3351 64.9741 35.5118 64.8636 35.4545C64.744 35.3938 64.5726 35.6306 64.4837 35.6613C64.3991 35.6878 64.1368 35.8059 64.0207 35.6613C63.9046 35.5118 62.9771 35.9274 62.9771 35.9274C62.9771 35.9274 62.1944 36.042 61.9643 36.0134C61.7293 35.9833 61.7034 36.2823 61.4998 36.5757C61.2956 36.8712 61.0074 36.8418 60.6584 37.1373C60.3128 37.4314 60.7465 37.5809 60.8032 37.7869C60.8612 37.993 60.8612 38.1984 61.0368 38.468C61.211 38.7327 61.092 38.7055 61.3564 39.0876C61.6152 39.4711 61.8153 39.4711 61.9643 39.3817C62.1091 39.2944 62.2238 39.3237 62.4553 40.1515C62.4847 40.2465 62.5001 40.3205 62.5141 40.3876C62.6057 40.908 62.3105 40.6802 62.2825 40.8898C62.2539 41.1231 62.3105 41.6833 62.3105 41.6833L61.8167 42.2771C61.8167 42.2771 61.3844 42.6291 61.3256 42.5132C61.2704 42.3944 60.2548 42.247 60.2548 42.0116C60.2548 41.7734 59.7889 41.895 59.7638 41.5373C59.7323 41.1839 59.6189 41.3899 59.4986 41.3313C59.3853 41.2726 58.9202 41.3313 58.8615 41.0651C58.8062 40.8018 58.5131 40.8898 58.3998 40.8018C58.283 40.7068 58.1123 40.8898 57.9668 40.9471C57.8178 41.0037 57.4142 41.3599 57.2688 41.508C57.1233 41.6575 57.0946 41.8635 56.9197 41.9537C56.7484 42.041 56.9505 42.3951 56.7743 42.5439C56.605 42.6892 56.6896 42.8115 56.5742 42.8115C56.4602 42.8115 56.4014 42.9882 56.1706 43.1663C55.937 43.3381 56.1118 43.6078 56.3419 43.8718C56.5749 44.1359 56.1979 44.1072 56.1118 44.1072C56.0223 44.1072 56.0223 44.4935 56.0223 44.4935L56.3126 44.7576C56.3126 44.7576 56.3126 45.0922 56.2916 45.1781C56.2902 45.1899 56.2902 45.199 56.2825 45.2011C56.2566 45.2312 56.0223 45.8508 55.937 45.9409C55.8495 46.0275 56.1706 46.177 56.2825 46.4732C56.342 46.6157 56.342 46.8091 56.2916 46.9677C56.2364 47.1354 56.1307 47.2674 55.9671 47.2674C55.6481 47.2674 55.7376 47.6229 55.6481 48.0071C55.5592 48.3913 55.3004 48.626 55.0102 48.5387C54.7206 48.4507 54.7507 48.6574 54.3744 48.5694C53.9945 48.4793 53.8533 49.0989 53.5917 49.3665C53.5196 49.4405 53.4203 49.5034 53.3091 49.5544C53.0272 49.6913 52.6509 49.7395 52.3151 49.6326C51.8521 49.4838 51.7101 49.4838 51.7101 49.4838L51.3618 48.7462C51.3618 48.7462 50.7539 48.45 50.6637 48.3906C50.5784 48.3319 50.1139 48.538 49.7656 48.5694C49.4193 48.6009 49.1578 48.7147 49.1578 48.7147C49.1578 48.7147 48.3492 49.0123 47.968 49.1604C47.5916 49.3071 46.8978 49.8387 46.662 49.868C46.4326 49.8966 46.2291 49.9567 46.2291 49.9567C46.2291 49.9567 45.7681 49.9274 45.4205 50.0447C45.0722 50.1663 45.1302 50.1935 44.8714 50.3723C44.6063 50.5505 44.2615 50.7523 43.9439 50.8131C43.8509 50.8299 43.7922 50.8508 43.7488 50.8697C43.6446 50.9074 43.6369 50.9074 43.5396 50.6958C43.3941 50.3989 43.0745 50.4303 42.9297 50.3723C42.7821 50.3123 41.3937 49.3665 41.1901 49.1604C40.9894 48.9522 40.6998 49.3364 40.5249 49.2749C40.3508 49.217 40.2053 49.423 39.8563 49.6333C39.5107 49.8387 39.2778 50.0734 38.9288 50.255C38.5846 50.431 38.5538 50.519 38.2908 50.519C38.0327 50.519 37.9159 50.5505 37.8299 50.431C37.7418 50.3123 38.0327 49.9274 38.0593 49.78C38.0915 49.634 37.9166 49.634 37.6557 49.692C37.3927 49.7492 37.2766 49.8394 36.7275 49.4845C36.6191 49.4126 35.9742 49.0996 36.0351 48.8635C36.091 48.626 36.1197 48.626 36.1491 48.4793C36.1792 48.3326 36.0351 48.1273 35.6867 48.0071C35.3419 47.8912 35.3671 47.9505 35.1957 47.799C35.0181 47.6537 35.0481 47.2967 35.0761 47.0334C35.1062 46.7672 35.3958 46.6198 35.5706 46.4124C35.7413 46.2056 36.0043 46.353 35.9749 46.2056C35.9455 46.0568 35.9162 45.8242 36.0043 45.6133C36.091 45.4072 36.6436 45.3785 36.7282 45.3192C36.815 45.2605 37.4228 45.053 37.5718 45.053C37.7166 45.053 37.7718 44.6709 37.7166 44.5201C37.6564 44.3741 37.3676 44.2881 37.1934 44.168C37.0185 44.0499 36.6989 44.0807 36.5548 43.9892C36.4093 43.9012 36.4995 43.401 36.5247 43.1656C36.5548 42.926 36.9346 42.8373 37.1633 42.6054C37.3934 42.3637 37.0479 41.8607 37.0479 41.7434C37.0479 41.6281 37.1381 41.2139 37.1934 41.0351C37.2486 40.8563 36.9933 40.5643 36.9605 40.4448C36.9346 40.3275 36.2659 40.8025 36.0651 40.9478C35.8595 41.0959 35.5413 41.538 35.5119 41.684C35.486 41.8356 34.9922 42.0717 34.7571 42.1569C34.5277 42.2477 34.15 42.2757 33.9779 42.2184C33.8003 42.1569 33.5415 42.4538 33.4512 42.4238C33.3666 42.3951 33.0211 42.7199 32.8763 42.7779C32.7336 42.838 32.5286 43.2543 32.4139 43.3381C32.2978 43.4283 32.2684 43.9899 32.2391 44.2253C32.2097 44.4642 32.3251 44.9077 32.3251 44.9077C32.3251 44.9077 32.2685 46.0002 32.3524 46.6499C32.3671 46.7533 32.7014 46.7372 32.8763 46.7672C33.0512 46.7973 33.3407 47.12 33.4862 47.2394C33.6275 47.3554 33.3407 47.3554 32.905 47.713C32.4685 48.0679 32.9329 48.0071 32.9623 48.274C32.991 48.5394 33.0505 48.626 33.1365 48.626C33.2211 48.626 33.2211 49.0696 33.2813 49.1611C33.34 49.2491 33.6268 49.3078 33.6268 49.3078L33.8604 49.9281C33.8604 49.9281 33.8898 50.5519 33.8604 50.6378C33.8345 50.7216 33.5988 50.7852 33.4505 50.7852C33.3106 50.7852 33.2211 50.9312 33.1659 51.4634C33.1085 51.9971 32.8756 51.8211 32.7874 51.6988C32.7007 51.5808 31.9789 51.4334 31.8341 51.2553C31.6886 51.0793 31.2542 51.2853 31.05 51.2553C30.8457 51.228 30.5576 51.4928 30.5576 51.4928C30.5576 51.4928 30.4093 51.6227 30.282 51.7086C30.2162 51.7526 30.1519 51.7869 30.1232 51.7869C30.0371 51.7869 29.3978 52.0271 29.2845 51.9049C29.1691 51.7869 28.7606 51.9678 28.4417 51.8805C28.1241 51.7869 27.922 52.1152 27.922 52.1152C27.922 52.1152 27.3134 52.4693 27.2295 52.5874C27.14 52.7075 27.0252 52.9408 26.9651 53.2363C26.9063 53.5325 26.3859 53.8866 26.3859 53.8866C26.3859 53.8866 25.9816 54.3288 25.9236 54.4762C25.8627 54.6229 25.7193 54.9512 25.6914 55.0385C25.6627 55.1265 25.3738 55.568 25.3738 55.51C25.3738 55.4527 24.7345 56.2498 24.6485 56.3084C24.5596 56.365 24.156 56.6025 23.807 56.722L23.3132 57.1041C23.3132 57.1041 22.6788 57.5476 22.6165 57.6399C22.5801 57.6978 22.3395 57.841 22.115 57.9046C22.0094 57.9353 21.9108 57.9521 21.8352 57.9353C21.6051 57.8738 21.5757 58.0813 21.4904 57.9912C21.4015 57.9039 20.8783 58.4362 20.6482 58.6122C20.4188 58.7875 20.5321 59.1124 20.4775 59.2325C20.4188 59.3519 20.623 60.0882 20.623 60.0882C20.623 60.0882 19.9837 60.5359 19.7802 60.6519C19.5766 60.7693 19.2864 60.8845 19.0562 60.9188C18.8268 60.9453 18.4484 61.0927 18.4484 61.0927C18.4484 61.0927 18.2155 61.2401 18.2462 61.4797C18.2742 61.7165 18.1875 61.8024 18.1581 62.0699C18.1287 62.3347 17.5796 62.3046 17.4894 62.2173C17.4048 62.1286 16.536 62.364 16.3591 62.276C16.187 62.1873 15.8373 62.2173 15.7233 62.0085C15.6079 61.8024 15.1154 61.6857 14.8839 61.5949C14.651 61.5097 14.0166 61.4189 13.7522 61.4454C13.4941 61.4797 13.6969 61.6864 13.8382 61.8324C13.9851 61.9791 13.9851 62.1586 14.0746 62.3347C14.16 62.5128 14.2173 63.0157 14.4761 63.0723C14.737 63.131 14.6209 63.5766 14.7104 63.9343C14.7993 64.2864 14.4761 64.0181 14.2467 63.9343C14.0166 63.8407 13.8683 64.0181 13.5808 63.8407C13.2912 63.6647 12.9988 63.9343 12.654 63.8721C12.3043 63.8121 12.2756 63.782 12.1014 63.5466C11.9301 63.307 11.7265 63.518 11.581 63.4593C11.4362 63.4006 11.4048 63.307 11.2033 63.3692C11.0026 63.4286 10.8592 63.5766 10.7396 63.6367C10.6242 63.6954 10.4199 63.4893 10.0751 63.6367C9.72606 63.7834 9.69598 63.6046 9.57987 63.6367C9.46586 63.6654 8.94266 64.1362 8.74261 64.3464C8.53907 64.5525 9.0021 64.9346 8.97272 65.2329C8.94335 65.5248 9.14689 65.6715 9.29238 65.8189C9.43717 65.9684 9.87155 66.0005 10.2493 65.9391C10.6242 65.8832 10.536 66.0592 10.6242 66.0292C10.7109 66.0005 10.9438 66.2374 11.0627 66.3826C11.1732 66.5286 11.4048 66.8248 11.7846 66.7075C12.1616 66.5887 12.1616 66.9163 12.3309 66.9163C12.5099 66.9163 12.5694 67.0337 12.8254 67.0337C13.0884 67.0337 13.0296 67.3592 13.1744 67.385C13.3185 67.4158 13.464 67.6267 13.4941 67.7727C13.5221 67.9187 13.4039 68.0668 13.4039 68.1813C13.4039 68.3029 13.6689 68.5376 13.869 68.8366C14.0753 69.1286 14.1614 69.2187 14.3327 69.3388C14.5062 69.4541 14.5964 69.7489 14.9434 69.8124C15.2889 69.8683 15.1749 70.1065 15.2008 70.2525C15.2308 70.3992 15.3456 70.8106 15.3756 70.9308C15.4043 71.0523 15.3211 71.4623 15.3211 71.4623L15.1455 72.0847C15.1455 72.0847 15.3211 73.0578 15.2889 73.326C15.2609 73.5908 15 75.1562 14.9154 75.4796C14.8259 75.8072 14.7377 75.7171 14.3922 76.0719C14.3677 76.0964 14.353 76.1118 14.3327 76.1313C14.0634 76.4044 14.1614 76.3025 13.783 76.2487C13.3787 76.1872 13.4647 76.3374 13.2339 76.2808C13.0003 76.2214 12.7995 76.2214 12.5701 76.1872C12.3316 76.1606 12.2176 76.2214 12.0434 76.1006C11.872 75.9811 11.4936 76.248 11.1488 76.2207C10.7997 76.1865 10.741 76.0712 10.2793 75.9532C9.81279 75.833 9.89812 75.9532 9.89812 75.9532C9.89812 75.9532 9.4099 76.1006 9.11892 76.1607C8.82864 76.2214 8.57054 76.2487 8.57054 76.2487C8.57054 76.2487 7.93123 76.1313 7.67243 76.0398C7.41293 75.9532 7.0639 76.1013 7.03312 75.9811C7.00514 75.8631 6.48333 75.833 6.42527 75.7464C6.36651 75.657 5.29634 75.8931 5.20891 75.8931C5.12288 75.8931 5.03474 75.9811 4.62905 76.0133C4.22406 76.0398 4.2814 76.1313 4.13662 75.9818C3.99043 75.8338 3.90719 75.8938 3.72953 75.7171C3.55676 75.5411 3.35323 75.4545 3.09233 75.4251C2.83352 75.3916 2.65935 75.6277 2.54324 75.7464C2.42783 75.8638 2.31311 76.2214 2.16552 76.3674C2.01934 76.5148 1.64512 76.5148 1.52971 76.4568C1.4157 76.3975 1.0373 76.6329 0.747018 76.6895C0.458139 76.7509 0.371387 77.0736 0.313332 77.2546C0.254576 77.4306 0.458139 77.5465 0.572152 77.6073C0.688263 77.6667 0.716942 77.7547 0.891808 78.141C1.06667 78.5245 1.0366 78.4064 1.06667 78.5531C1.09046 78.6831 1.07297 78.9177 1.0303 79.1902C1.02121 79.2321 1.0184 79.2754 1.00791 79.3201C0.952652 79.6463 1.00792 79.7623 1.06667 80.0598C1.12193 80.3532 1.24084 80.5027 1.29819 80.5935C1.35695 80.678 1.38631 81.2103 1.38631 81.3892C1.38631 81.5624 1.44229 82.008 1.47026 82.1561C1.50244 82.3056 0.716936 84.3118 0.658881 84.7253C0.603623 85.1375 0.488204 85.0515 0.196526 85.4651C-0.0944516 85.8793 0.0237517 85.8206 0.0237517 86.0847C0.0237517 86.3494 0.0832068 86.3494 0.168542 86.4395C0.255275 86.5275 0.196532 86.9425 0.224511 87.1471C0.255287 87.3532 0.51478 87.2673 0.892492 87.328C0.892492 87.328 1.03729 87.7081 1.12333 87.8261C1.21006 87.9449 1.24224 88.2403 1.27091 88.4485C1.29959 88.6546 1.15761 89.1568 1.00932 89.3328C0.864529 89.5116 0.893199 89.9846 0.809263 90.2172C0.719032 90.4568 1.00932 90.4868 1.00932 90.4868C1.00932 90.4868 1.2996 90.4274 1.50384 90.308C1.70389 90.1899 1.87665 90.2507 2.05222 90.308C2.22499 90.3667 2.68942 90.5448 2.68942 90.5448C2.68942 90.5448 2.89367 90.6035 3.20913 90.5727C3.52739 90.5448 3.41337 90.5448 3.58824 90.3387C3.67567 90.229 3.78478 90.229 3.90089 90.2395C4.00651 90.2416 4.11424 90.2612 4.22266 90.2172C4.45768 90.1312 4.54231 90.2779 4.66121 90.3394C4.77523 90.3988 5.3285 90.5734 5.49917 90.6635C5.67334 90.7515 5.6188 91.3146 5.67336 91.3998C5.73001 91.4913 6.34274 92.1709 6.36862 92.2897C6.3966 92.4091 7.0352 92.6159 7.12474 92.6452C7.21077 92.6753 7.52832 92.4091 7.70319 92.2275C7.87386 92.0522 8.04872 91.7875 8.13686 91.7875C8.22359 91.7875 8.94685 91.6373 9.23643 91.3711C9.31407 91.3006 9.52531 91.2852 9.70017 91.3418C9.87504 91.4019 10.0793 91.3711 10.25 91.3418C10.4241 91.3152 10.8879 91.193 11.0634 91.193C11.2362 91.193 11.4971 91.3998 11.4971 91.3998C11.4971 91.3998 11.8748 91.2852 11.9615 91.193C12.0469 91.1092 12.7736 91.2852 12.7736 91.2852L13.1485 91.077L13.5829 90.8416C13.5829 90.8416 14.1313 90.2786 14.2516 90.0998C14.3663 89.9252 14.7154 89.7177 14.7154 89.7177C14.7154 89.7177 15.498 89.4851 15.582 89.2749C15.6722 89.0681 15.7575 89.1575 15.8415 88.9808C15.9289 88.8019 16.1325 88.7447 16.2779 88.503C16.4227 88.2725 16.4822 88.181 16.627 87.919C16.7718 87.6508 16.8858 87.7087 17.0019 87.6207C17.1208 87.532 17.6132 87.3288 17.6699 87.2358C17.7287 87.1478 17.8434 87.0312 17.7552 86.7357C17.6699 86.4395 17.4356 86.4395 17.2649 86.2907C17.0872 86.1433 17.0019 86.0309 16.9445 85.6432C16.8858 85.2597 17.0348 85.1975 17.0348 84.9363C17.0348 84.6674 17.2061 84.6373 17.2908 84.4019C17.381 84.1651 17.9014 83.1019 17.8741 83.0139C17.8434 82.9224 18.163 82.6605 18.163 82.5683C18.163 82.4844 18.7415 82.1834 18.8317 82.0996C18.9156 82.0088 19.4067 81.8621 19.4067 81.8621C19.4067 81.8621 19.9592 81.4758 20.0754 81.3899C20.1887 81.2984 20.5936 81.3305 20.7699 81.2383C20.9427 81.1544 21.4372 81.0364 21.4372 81.0364C21.4372 81.0364 21.8408 80.7402 22.2766 80.2366C22.7096 79.7364 22.769 80.2659 22.9439 80.1164C23.1152 79.9739 23.2635 79.8538 23.4342 79.5569C23.6091 79.2628 23.5244 79.2908 23.4636 79.114C23.4272 79.0058 23.3391 78.7641 23.2481 78.4972C23.1915 78.3296 23.1355 78.1543 23.0894 77.9908C22.9718 77.5787 23.0893 77.6674 23.2055 77.4026C23.3195 77.133 23.8427 76.6643 23.9294 76.5155C24.0175 76.3681 24.6233 76.1879 24.9157 76.0719C25.2045 75.9539 25.3493 76.2214 25.5815 76.2214C25.8152 76.2214 26.2482 76.2487 26.5972 76.2808C26.942 76.3115 26.9973 76.6329 27.1169 76.7509C27.2365 76.8711 27.6667 76.8382 27.8122 76.8382C27.9548 76.8382 28.8271 77.133 28.9984 77.1079C29.1733 77.0736 29.8413 76.5456 30.305 76.0719C30.7702 75.6011 30.7086 76.0133 30.7954 75.8337C30.8856 75.6577 31.0584 75.5411 31.4934 75.1555C31.5039 75.1499 31.5088 75.145 31.5158 75.1359C31.9236 74.7922 31.8718 75.2728 32.0131 75.1848C32.1572 75.0961 32.1572 75.1848 32.302 75.0067C32.4468 74.8314 32.593 74.6232 32.7965 74.4737C33.0001 74.3249 33.1456 74.5945 33.4338 74.4171C33.7247 74.2411 33.7828 74.4472 33.9842 74.3871C34.1885 74.3256 34.3319 74.6239 34.506 74.7126C34.6774 74.8006 35.0558 74.6239 35.2006 74.6553C35.3454 74.6833 35.9833 74.9194 36.1288 74.9773C36.2736 75.0374 36.3624 75.4251 36.3624 75.7171C36.3624 76.0133 36.6485 76.4268 36.6786 76.6035C36.7073 76.7795 37.0269 77.2546 37.143 77.3747C37.257 77.49 37.4921 77.8434 37.8964 78.1703C38.3006 78.4917 38.2139 78.4057 38.3006 78.433C38.3888 78.463 38.7644 78.9059 39.0281 79.1133C39.2876 79.3201 39.8625 79.8217 40.0409 79.8538C40.2158 79.8838 40.2724 80.4727 40.2724 80.4727C40.2724 80.4727 41.2335 80.9456 41.5748 80.8862C41.9232 80.8261 42.736 81.2976 42.8521 81.3598C42.9661 81.4143 43.0248 81.832 43.2857 82.2442C43.5508 82.6598 43.8943 82.3915 44.1006 82.3915C44.3 82.3915 44.3587 82.5403 44.5895 82.6905C44.8225 82.8372 44.7931 83.1627 44.9379 83.4002C45.0834 83.6342 45.403 83.7823 45.6366 83.7823C45.8661 83.7823 46.0703 83.8983 46.2116 83.9276C46.3599 83.959 46.5634 84.5793 46.6488 84.7253C46.7355 84.8727 46.9097 85.4357 47.023 85.6432C47.1391 85.8493 47.2265 86.3494 47.2265 86.3494C47.2265 86.3494 46.3606 88.1251 46.3606 88.211C46.3606 88.3025 47.0552 88.095 47.0552 88.095C47.0552 88.095 47.4315 87.7388 47.5182 87.5928C47.6042 87.4447 48.012 87.0619 48.1253 86.851C48.2407 86.6449 48.5611 86.2335 48.7353 85.996C48.9066 85.7613 48.9402 85.8786 48.9948 85.7613C49.0549 85.6425 49.1403 85.5251 49.1983 85.1689C49.2557 84.8154 48.8787 85.0215 48.7353 84.8455C48.5905 84.6674 48.3009 84.6373 48.1827 84.5193C48.0701 84.4019 48.0701 84.3118 48.1253 84.0757C48.1827 83.8438 48.3009 83.7509 48.2708 83.542C48.2408 83.3374 48.4443 83.3374 48.6485 83.0426C48.8493 82.7464 48.9059 83.1285 49.0822 83.0426C49.255 82.9546 49.6313 83.074 49.6313 83.074C49.6313 83.074 49.9768 83.3695 50.3 83.5762C50.6161 83.7823 50.8204 83.9276 50.9645 84.0156C51.11 84.1057 51.2827 84.2524 51.4282 84.1057C51.5702 83.9591 51.4597 83.8983 51.4597 83.6671C51.4597 83.4254 51.2827 83.3995 51.1953 83.25C51.11 83.1013 50.9946 83.0426 50.9064 82.9811C50.8204 82.9217 49.5432 82.008 49.4578 81.92C49.3718 81.8313 49.0815 81.7713 48.9633 81.6511C48.8486 81.5351 48.4436 81.445 48.0372 81.153C47.6322 80.8548 47.2573 80.8548 47.0537 80.7395C46.8516 80.6173 46.9964 80.3518 47.0824 80.1758C47.1678 79.9977 47.2874 79.9411 47.3126 79.821C47.3419 79.7057 46.7936 79.6156 46.7936 79.6156C46.7936 79.6156 45.8913 79.677 45.5758 79.4996C45.2603 79.3194 45.0827 79.4689 45.0827 79.4689C45.0827 79.4689 44.7924 79.529 44.7078 79.3802C44.6175 79.2314 44.5888 79.2901 44.3587 78.9366C44.1279 78.5845 43.8061 78.5524 43.8061 78.3757C43.8061 78.1962 43.0857 77.2224 43.0563 76.9304C43.0255 76.6322 42.9409 76.7502 42.9115 76.4561C42.8793 76.16 42.7367 76.16 42.3589 75.833C41.984 75.5082 41.8099 75.5669 41.5189 75.2428C41.2307 74.9187 41.2006 75.0667 41.0558 74.8593C40.911 74.6553 41.0558 74.8593 40.881 74.6553C40.7068 74.4479 40.4473 74.1789 40.3025 74.0651C40.157 73.9435 40.071 73.7109 40.1018 73.5314C40.1283 73.3533 40.2473 73.2652 40.3025 73.1765C40.3585 73.0885 40.4473 73.0885 40.4473 72.9111C40.4473 72.7351 40.1276 72.5563 40.1018 72.2307C40.071 71.9031 40.2731 71.6111 40.2731 71.6111C40.2731 71.6111 40.8243 71.5811 40.911 71.5546C40.9971 71.5203 41.0852 71.461 41.3181 71.1375C41.5497 70.8099 41.9232 70.9887 42.1288 70.8749C42.3296 70.7533 42.6492 71.0209 42.6492 71.0209C42.6492 71.0209 42.5919 71.3191 42.5037 71.5804C42.4758 71.6614 42.4897 71.7397 42.517 71.8137C42.5758 71.9779 42.7241 72.1162 42.7653 72.2042C42.8241 72.3187 43.0248 72.7036 43.0248 72.7036C43.0248 72.7036 43.1402 72.8196 43.2011 72.9111C43.2598 72.9977 43.4599 72.763 43.49 72.6429C43.5151 72.5248 43.8936 72.4368 44.272 72.2908C44.435 72.2252 44.6497 72.5248 44.6497 72.5248C44.6497 72.5248 44.6497 72.5248 44.7371 72.6149C44.8218 72.7029 44.7078 73.0885 44.7078 73.1758C44.7078 73.2646 44.9673 73.3246 45.1414 73.3519C45.3128 73.3819 45.5163 73.7395 45.6359 73.8241C45.7514 73.9177 45.7514 74.1189 45.6905 74.2097C45.6359 74.2998 45.6618 74.4164 45.7192 74.6546C45.7779 74.8907 45.8353 74.8307 45.9234 75.006C46.0101 75.1841 46.1557 75.2721 46.2725 75.3315C46.3851 75.3902 46.4431 75.4782 46.7341 75.745C47.0216 76.0119 47.1118 75.9518 47.1118 75.9518C47.1118 75.9518 47.5161 76.0119 47.8064 75.9518C48.0953 75.8917 48.1554 76.1292 48.2694 76.1858C48.352 76.2319 48.3778 76.4093 48.5163 76.6161C48.5695 76.6978 48.6352 76.7865 48.7332 76.869C48.8514 76.9675 48.9927 77.1058 49.1081 77.0723C49.2256 77.045 49.4292 77.2811 49.8062 77.2532C50.1797 77.2231 50.095 77.4886 50.1797 77.5158C50.2664 77.5458 50.6735 77.842 50.6735 77.842C50.7455 77.842 51.1463 78.2632 51.3422 78.4288C51.3786 78.456 51.4114 78.4833 51.4268 78.4909C51.5422 78.5517 51.3974 78.405 51.5723 78.375C51.7465 78.3457 51.9172 78.6991 52.2662 78.9946C52.6152 79.2887 52.3802 79.2007 52.4998 79.3795C52.6159 79.5534 52.6999 79.6449 52.6999 79.6449C52.6999 79.6449 52.9251 79.7259 53.1867 80.1982C53.2063 80.2373 53.23 80.2778 53.2524 80.3211C53.5434 80.9127 53.3678 80.5928 53.3678 80.7388C53.3678 80.8848 53.3678 81.035 53.3126 81.2676C53.2524 81.5051 53.1678 81.8313 53.1377 81.9787C53.1097 82.1254 53.1377 82.6276 53.1377 82.7722C53.1377 82.921 53.1377 83.4547 53.1377 83.4547C53.1377 83.4547 53.3979 83.7201 53.5434 83.7495C53.6875 83.7802 53.8882 84.1337 53.8882 84.1337L53.8309 84.6359C53.8309 84.6359 53.7721 84.9 53.8008 84.9901C53.8309 85.0816 54.1498 85.1109 54.1498 85.1109C54.1498 85.1109 54.38 85.1109 54.4695 85.0809C54.5094 85.0634 54.5681 85.1221 54.6339 85.1836C54.7108 85.2576 54.7947 85.3435 54.8738 85.3435C55.0193 85.3435 55.4522 85.9352 55.4522 85.9352C55.4522 85.9352 55.5684 86.2006 55.802 86.2593C56.0314 86.325 56.0881 86.6435 56.1769 86.6735C56.2657 86.7029 56.4958 86.9089 56.7567 86.9697C57.0169 87.0291 57.1331 87.3267 57.1331 87.3267C57.1331 87.3267 57.1331 87.6487 57.0163 87.8247C56.9002 88.0014 56.8155 88.2096 56.7561 88.3004C56.6987 88.3905 56.5805 88.7132 56.5539 88.8585C56.5238 89.0073 57.3933 89.5096 57.3933 89.5096V89.9231C57.3933 89.9231 57.3933 90.3967 57.3933 90.4854C57.3933 90.5734 57.6828 90.7795 57.7717 90.7795C57.8584 90.7795 58.0878 90.755 58.0878 90.755C58.0878 90.755 58.2662 90.9604 58.2319 91.0463C58.2053 91.135 58.9881 91.2552 59.0454 91.1078C59.1007 90.9604 59.3042 91.2552 59.4532 91.3138C59.5945 91.3697 59.9442 91.5758 60.0862 91.5199C60.2317 91.4619 60.2597 91.4298 60.3772 91.1644C60.4961 90.8982 60.2317 90.9911 60.0589 90.755C59.8834 90.5175 59.8833 90.5441 59.7973 90.3974C59.7134 90.25 59.3329 89.5403 59.4784 89.4837C59.6273 89.4257 59.8274 89.9838 59.8274 89.9838C59.8274 89.9838 60.8969 89.6304 61.0424 89.4837C61.1886 89.3321 60.8122 89.5103 60.5807 89.3042C60.3471 89.0967 60.2317 89.1261 59.9435 88.832C59.6526 88.5337 59.5637 88.5966 59.3035 88.3919C59.0447 88.1803 59.3329 88.2718 59.3644 88.0643C59.3938 87.8554 59.507 87.9749 59.7134 87.7388C59.9134 87.5027 60.1142 87.8876 60.1142 87.8876L60.6087 88.3598L61.5348 88.8907C61.5348 88.8907 61.7985 88.8006 61.8545 88.7139C61.9146 88.6238 61.7691 88.4478 61.6831 88.2711C61.5957 88.0943 61.3347 87.8254 61.1892 87.6193C61.0431 87.4133 61.4215 87.5313 61.567 87.5914C61.7132 87.6494 61.739 87.6773 61.8258 87.7073C61.9153 87.7374 62.0587 87.7073 62.0888 87.56C62.1188 87.4133 62.0587 87.298 61.9433 87.1157C61.8258 86.9411 61.7132 87.0291 61.5964 86.9089C61.4802 86.793 61.19 86.7336 61.1025 86.6169C61.0172 86.4947 60.8136 86.3766 60.3786 85.5489C60.2918 85.3163 60.3786 85.5489 60.3485 85.2834C60.3226 85.0194 60.2911 85.1668 59.684 84.6052C59.0755 84.0436 59.1349 83.7488 59.2217 83.4233C59.3056 83.0998 59.5091 82.5082 59.5091 82.5082C59.5091 82.5082 59.9155 83.2759 60.0296 83.308C60.1457 83.3352 60.3492 83.6063 60.4374 83.7195C60.5241 83.8417 60.8724 83.8116 61.19 83.9255C61.19 83.9255 61.3669 83.6901 61.5103 83.454C61.6551 83.2214 61.8853 83.665 61.8853 83.665C61.8853 83.665 62.2343 83.5434 62.3504 83.4233C62.4658 83.3073 62.3504 83.4233 62.2623 83.2479C62.1755 83.0712 62.0041 83.1599 61.8006 82.9525C61.597 82.7443 61.5369 82.7715 61.5684 82.2134C61.5978 81.6497 61.7404 82.4181 61.8859 82.3035C62.0307 82.1834 62.0048 82.3636 62.151 82.154C62.2937 81.948 62.3804 82.2714 62.4966 82.2714C62.6106 82.2714 62.7554 82.7136 62.9589 82.9525C63.1632 83.1872 62.9589 82.2421 63.2785 82.2134C63.2785 82.2134 63.508 82.2134 63.7423 82.0381C63.9731 81.86 64.206 81.978 64.3222 81.978C64.4355 81.978 64.6712 82.1547 64.7558 82.1547C64.8405 82.1547 65.3084 82.3357 65.4791 82.4824C65.6582 82.6276 65.8876 82.6276 65.8876 82.6276C65.8876 82.6276 66.2038 82.5962 66.2919 82.5662C66.3779 82.5382 66.9857 82.6276 67.0725 82.715C67.1606 82.803 67.4495 82.6884 67.5649 82.5389C67.6838 82.3901 67.7104 82.5962 67.8559 82.4216C67.9999 82.2435 68.0846 82.3049 68.1748 82.1848C68.2622 82.0667 68.3469 82.1254 68.4329 81.9787C68.5232 81.8313 68.7526 81.8313 69.1002 81.6818C69.2122 81.6336 69.5941 81.7405 69.8256 81.8006C70.0592 81.8607 70.5509 81.8313 70.7244 81.8313C70.8971 81.8313 71.0713 81.7412 71.4812 81.5617C71.882 81.3884 71.4812 81.5617 71.4211 81.2432C71.3623 80.9128 71.421 81.2432 71.3329 81.0629C71.2462 80.8855 71.1322 81.0629 70.8678 80.9749C70.609 80.8855 70.6377 81.035 70.4341 80.9135C70.2306 80.7989 70.0592 80.8254 69.7101 80.6173C69.3611 80.4112 69.3611 80.502 69.2765 80.4112C69.1897 80.3211 69.2765 80.4112 69.3353 80.0591C69.38 79.7651 69.273 79.6722 69.1842 79.5171C69.1646 79.4836 69.1443 79.4514 69.1317 79.4074C69.0457 79.172 68.7239 79.2014 68.5511 78.7333C68.3791 78.259 68.4665 78.6111 68.4665 78.0481C68.4665 77.4893 68.6372 77.5158 68.7526 77.2539C68.8701 76.9842 69.0121 76.9304 69.245 76.6888C69.48 76.4561 69.7682 76.6028 69.9689 76.3968C70.1746 76.1907 70.2586 75.9532 70.3173 75.7164C70.3208 75.6954 70.3278 75.6703 70.3313 75.6479C70.3816 75.3608 70.4068 74.7098 70.4334 74.355C70.4467 74.1978 70.5789 74.3549 70.7237 74.1196C70.8671 73.8869 70.7517 73.9722 70.8412 73.8248C70.9272 73.683 71.0413 73.5894 71.1315 73.3246C71.2161 73.0564 71.3609 73.1758 71.4455 73.1172C71.5358 73.0564 71.7358 73.2073 71.8219 73.1765C71.91 73.1465 72.2296 72.9677 72.3471 72.8503C72.4598 72.7351 72.6339 72.4068 72.6074 72.2307C72.5822 72.0722 72.5507 72.1008 72.4003 71.8221C72.3793 71.7941 72.3639 71.7648 72.3471 71.7306C72.1933 71.4421 72.4919 71.3729 72.5178 71.1068C72.5472 70.8442 73.1278 70.9615 73.1278 70.9615C73.1278 70.9615 73.6503 70.4893 73.9664 70.1358C73.9664 70.1358 74.2 69.8969 74.2854 69.6902C74.3735 69.4827 74.4336 69.5134 74.5483 69.3081C74.6645 69.1006 74.7799 69.0713 74.8387 68.9854C74.8939 68.8938 75.2723 68.8938 75.4724 68.7751C75.678 68.6591 75.9074 68.6871 76.1704 68.6277C76.4306 68.5683 76.1704 68.9553 76.1403 69.0419C76.111 69.1279 75.8207 69.3654 75.7053 69.4834C75.5913 69.6022 75.9662 69.8117 76.1117 69.7817C76.2551 69.7516 76.3152 69.8117 76.3152 69.8117C76.3152 69.8117 76.6908 69.9577 76.8391 70.0478C76.9804 70.1358 77.4728 70.3719 77.589 70.4285C77.7065 70.4893 77.7925 70.6073 77.938 70.4893C78.0827 70.3719 78.6325 70.1358 78.7759 70.0478C78.9214 69.9577 79.0396 70.1358 79.125 70.2197C79.211 70.3112 79.125 70.4893 79.125 70.4893C79.125 70.4893 78.9214 70.6066 78.6326 70.6933C78.3458 70.7834 78.1709 70.9294 78.052 70.9622C77.938 70.9894 77.3574 71.4616 77.3574 71.4616C77.3574 71.4616 77.5029 71.8179 77.6771 71.9346C77.8512 72.0547 78.2835 72.2049 78.4598 72.1755C78.6326 72.1441 78.9214 72.5576 78.9214 72.5576L78.9536 73.354C78.9536 73.354 78.5199 73.4147 78.6053 73.472C78.6913 73.5321 78.8662 73.8262 78.9536 73.8262C79.0403 73.8262 79.2117 74.1803 79.6775 74.0364C80.1427 73.8876 80.1112 74.0364 80.2273 73.8876C80.3434 73.7409 80.5176 73.8262 80.7505 73.5321C80.9806 73.238 80.896 73.326 81.01 73.238C81.1255 73.1479 81.4745 73.4147 81.5305 73.326C81.5906 73.238 81.7906 73.1479 81.9655 73.0278C82.1396 72.9118 82.225 72.7043 82.4026 72.4682C82.5726 72.2314 82.6321 72.4682 82.8034 72.6156C82.9818 72.763 83.2721 72.7944 83.4714 72.7036C83.6757 72.6156 83.9947 72.5891 84.2542 72.5569C84.513 72.5269 84.8368 72.4075 84.9487 72.2601C85.0662 72.1106 84.8627 72.1434 84.8368 72.0254C84.8067 71.9038 84.6039 71.878 84.4878 71.7019C84.371 71.5217 84.3437 71.6412 84.1681 71.6412C83.9947 71.6412 83.8506 71.6719 83.5869 71.8179C83.3267 71.966 83.3847 71.7599 83.2385 71.7019C83.0965 71.6412 83.007 71.6719 82.9224 71.5818C82.8356 71.4966 82.3432 71.5818 82.0536 71.5818C81.7641 71.5818 81.7361 71.2884 81.7046 71.1382C81.6787 70.9894 81.3304 70.5773 81.3304 70.5773C81.3304 70.5773 81.0968 70.0171 81.2416 70.1358C81.387 70.2518 82.1082 69.9577 82.1984 69.8676C82.2851 69.7817 83.2119 69.0713 83.4148 68.9553C83.6169 68.8352 83.7317 68.9232 83.8757 68.8939C84.0205 68.8638 84.7774 68.5998 84.8935 68.5118C85.0068 68.4217 85.0068 68.5683 85.1816 68.5362C85.3558 68.5118 86.2246 68.0074 86.2246 68.0074C86.2246 68.0074 86.5127 67.918 86.717 67.7413C86.9212 67.5653 87.094 67.8014 87.094 67.8014C87.094 67.8014 87.3318 67.7972 87.4654 67.7622C87.4913 67.7574 87.5137 67.7504 87.5277 67.7406C87.6116 67.6812 87.8774 67.7713 88.0215 67.6526C88.1649 67.5338 88.8622 67.5338 89.0637 67.4144C89.2637 67.2998 89.2092 67.6819 89.2637 67.6819C89.3239 67.6819 89.2952 67.86 89.1791 67.9473C89.0637 68.0347 88.5139 68.3022 88.43 68.2749C88.3376 68.2456 87.5864 68.6598 87.4123 68.6871C87.2388 68.7136 87.1821 68.9854 87.1821 68.9854L87.8774 69.7475C87.8774 69.7475 87.7893 69.8969 87.6731 70.0171C87.5577 70.1358 87.5284 70.3112 87.2395 70.5179C87.1402 70.592 87.1534 70.6926 87.0639 70.8127C86.9758 70.9294 86.8912 71.1375 86.689 71.3464C86.4855 71.5546 86.5141 71.5804 86.3106 71.5804C86.1098 71.5804 85.993 71.7005 85.6468 71.6712C85.297 71.6405 85.2971 71.9024 85.502 72.4368C85.5307 72.5199 85.7923 72.7029 86.1392 72.9677C86.1392 72.9677 86.4854 73.2932 86.6302 73.4427C86.775 73.5887 87.1828 73.6823 87.3577 73.5887C87.5284 73.5006 87.7613 73.8583 87.7613 73.8583C87.7613 73.8583 88.2264 74.1482 88.3698 74.1188C88.5153 74.0909 88.6013 74.3242 88.716 74.3864C88.8314 74.4472 89.2106 74.7426 89.4435 74.8314C89.6736 74.9187 89.9926 75.3322 89.9632 75.4544C89.945 75.5327 90.2535 75.8931 90.4969 76.16C90.6025 76.2801 90.7011 76.3807 90.748 76.4261C90.8914 76.5728 91.0655 76.6322 91.2404 76.6322C91.4111 76.6322 91.5566 76.8997 91.6741 76.9563C91.7888 77.0164 91.9049 77.0457 92.254 77.0164C92.5988 76.9842 92.4834 77.2539 92.4834 77.2539C92.4834 77.2539 92.8317 77.4893 92.9177 77.5165C93.0038 77.5465 93.2402 77.8427 93.3528 77.8721C93.4703 77.9028 93.4409 78.1089 93.4983 78.2597C93.5571 78.4057 93.5857 78.5845 93.5857 78.5845L93.641 78.8472C93.641 78.8472 93.7606 78.996 93.8746 79.0868C93.9907 79.1727 94.1096 79.3201 94.1649 79.5304C94.2202 79.7364 94.1949 79.7658 94.1949 79.7658C94.1949 79.7658 94.0788 80.0906 94.0201 80.1772C93.9816 80.2366 93.9152 80.3211 93.8368 80.4042C93.7942 80.4538 93.7508 80.4901 93.7032 80.532C93.5577 80.6501 93.4416 80.6836 93.3535 80.7402C93.2668 80.7996 92.8331 81.0636 92.6296 81.1537C92.4281 81.2439 92.1945 81.4751 91.9909 81.5624C91.7902 81.6518 91.6433 81.7419 91.4985 81.6246C91.3537 81.5065 91.2118 81.6832 90.9222 81.5358C90.6291 81.3892 90.5731 81.3891 90.4584 81.3298C90.3395 81.2683 90.1681 81.5359 89.9646 81.6246C89.7604 81.7147 89.7352 81.6832 89.3568 81.6246C88.9783 81.5624 89.0665 81.6518 88.7482 81.5959C88.4328 81.5365 88.4873 81.7426 88.2292 81.802C87.9641 81.8621 87.9389 81.7719 87.9389 81.7719C87.9389 81.7719 85.8503 81.5366 85.6188 81.3899C85.3845 81.2446 84.7802 81.1223 84.7802 81.1223C84.7802 81.1223 84.5472 80.9456 84.5157 80.7402C84.4899 80.5321 84.2269 80.618 84.1681 80.5027C84.1115 80.3861 83.8226 80.4126 83.6778 80.4126C83.533 80.4126 83.2406 80.3532 83.128 80.2066C83.0091 80.0599 82.6342 80.1164 82.5502 79.9425C82.46 79.7658 82.5188 79.7064 82.5188 79.6163C82.5188 79.5297 81.5927 79.6163 81.5927 79.6163C81.5927 79.6163 81.0989 79.7923 80.8394 79.6163C80.5792 79.4389 80.2868 79.6163 80.1707 79.4696C80.0553 79.3201 79.4474 79.4696 79.3019 79.3809C79.1571 79.2908 78.7787 79.5003 78.7787 79.5003L78.0289 79.6163C78.0289 79.6163 76.0025 80.8869 75.8249 81.0608C75.6507 81.2446 75.1597 81.4758 75.0422 81.4457C74.9261 81.4143 74.6673 81.5959 74.5512 81.5065C74.4364 81.4143 74.2595 81.5959 74.2595 81.5959C74.2595 81.5959 73.7398 81.6525 73.5642 81.4457C73.3893 81.2446 73.1893 81.5065 72.5815 81.6246C71.9708 81.7419 72.3171 81.7719 72.2045 81.802C72.087 81.8327 71.7973 82.0088 71.4826 82.0402C71.3896 82.0465 71.0986 82.2442 70.9559 82.3378C70.8111 82.4202 70.8692 82.5403 70.8111 82.6297C70.7538 82.7171 70.5523 82.8672 70.5523 82.8672L70.2607 83.0447C70.2607 83.0447 69.827 83.2249 69.6549 83.2514C69.4821 83.2787 68.3483 83.1027 67.7111 82.9825C67.0739 82.8672 67.1319 82.9231 66.9004 82.8672C66.671 82.8051 66.7276 83.0146 66.5276 83.1292C66.324 83.2514 66.3513 83.338 66.2051 83.5134C66.0596 83.6929 65.9442 83.8144 65.7715 84.0163C65.5987 84.2266 65.7134 84.52 65.7994 84.8741C65.889 85.2283 66.2058 84.8168 66.3248 84.7854C66.4353 84.7568 66.9298 85.0229 66.9011 85.1703C66.8738 85.3205 66.494 85.6446 67.0172 86.2348C67.5369 86.8258 67.0459 86.4703 67.3369 86.8523C67.4019 86.939 67.511 87.1485 67.511 87.1485C67.511 87.1485 67.2208 87.5041 66.962 87.6522C66.6976 87.801 66.6094 87.8568 66.6094 87.8568C66.6094 87.8568 66.7584 88.0971 66.9878 88.1265C67.2208 88.153 67.4229 88.3619 67.5663 88.4184C67.7118 88.4799 67.7405 88.686 67.511 88.7761C67.2781 88.862 66.9878 89.0108 66.8424 89.0402C66.6976 89.0688 67.1333 89.3643 67.2781 89.4278C67.4229 89.4858 67.5376 89.6583 67.5376 89.6583C67.5376 89.6583 67.7118 90.074 67.8307 90.1326C67.9447 90.1913 68.2357 90.3101 68.5805 90.3101C68.9296 90.3101 68.8141 90.4582 68.8722 90.6063C68.9295 90.7578 69.1331 91.1099 69.3045 91.1099C69.3821 91.1099 69.4583 91.2 69.508 91.2817C69.5213 91.2719 69.5738 91.281 69.6276 91.1371C69.7123 90.9003 69.7423 91.0805 69.9165 91.0191C70.0872 90.9625 70.1774 91.1099 70.6992 91.4026C70.6992 91.4026 71.0154 91.6988 71.3931 91.8461C71.768 91.9949 71.5679 92.1158 71.6841 92.2911C71.7981 92.4671 72.522 92.3798 72.8116 92.2911C73.1005 92.2038 73.3033 92.3184 73.3901 92.2289C73.4803 92.1423 73.8853 92.4357 73.9692 91.7889C74.0574 91.1378 74.0021 91.6443 74.1727 91.1378C74.1937 91.0826 74.2056 91.0421 74.2161 91.0121C74.2028 91.084 74.1958 91.1762 74.2889 91.1106C74.4959 90.9632 74.2888 91.1106 75.0163 90.9632C75.7409 90.8123 75.4213 91.0198 75.6815 90.9939C75.9403 90.9632 75.8543 91.2587 75.9403 91.2873C76.0285 91.3166 76.1739 91.5528 76.4936 91.7288C76.8111 91.9069 76.7524 92.0829 76.9272 92.113C77.1014 92.143 77.0147 92.4112 77.2175 92.4678C77.4176 92.5251 77.4176 92.7333 77.7407 92.794C77.7407 92.794 78.0296 92.7039 78.287 92.618C78.55 92.5258 78.8697 92.3491 78.9851 92.2918C79.0991 92.2296 79.3027 92.4113 79.5069 92.2918C79.7069 92.173 79.8846 92.0292 80.0874 91.7896C80.2875 91.5528 80.4309 91.6093 80.491 91.5234C80.5498 91.4333 80.754 91.2265 80.9842 90.9639C81.2129 90.6999 81.0995 90.9639 81.3898 91.1113C81.3898 91.1113 81.7389 91.3173 82.027 91.288C82.3152 91.2594 82.7804 91.3739 83.1 91.0798C83.242 90.9457 83.3882 91.0798 83.5903 90.8444C83.7946 90.6069 83.7079 90.9953 83.5043 92.0543C83.3008 93.1175 83.3882 92.5579 83.2749 92.7039C83.1553 92.8541 83.2148 92.8834 83.1882 93.0301C83.1826 93.0448 83.1847 93.0567 83.1882 93.07C83.2462 93.0965 83.2952 93.1175 83.347 93.1398C83.6351 93.2635 83.8505 93.2977 84.2534 92.873C84.6283 92.4811 84.9298 92.1877 84.9683 91.6135C84.9837 91.3621 84.7571 91.244 84.9648 91.0729C84.9921 91.0498 85.0592 91.0365 85.146 91.0309C85.4062 91.0142 85.8489 91.0603 85.9665 91.0763C86.6016 91.1588 86.8352 91.1329 87.4018 90.9639C87.9082 90.813 88.4321 90.8521 88.9776 91.0093C89.6575 91.2049 89.8758 91.2643 90.5892 91.1267C91.2341 90.9988 91.6055 90.7753 92.198 90.521C92.6736 90.3129 93.4088 90.1494 93.9397 90.0509C93.9592 90.0474 93.976 90.0572 93.9956 90.0544C94.2355 90.0181 94.4656 90.0488 94.6944 90.097C94.9546 90.1515 95.2148 90.2039 95.482 90.2095C95.5638 90.2116 95.6449 90.2186 95.7289 90.206C95.7394 90.2046 95.7513 90.2046 95.7617 90.2032C96.4018 90.09 96.7837 89.7324 97.4356 89.8532C97.4754 89.8595 97.5062 89.8525 97.5482 89.863C97.6216 89.8826 97.7098 89.8951 97.7881 89.9126C98.2386 90.009 98.7394 90.0795 99.1703 90.206C99.413 90.2772 99.6977 90.3185 99.9684 90.3429C99.9656 90.3366 99.9627 90.331 99.96 90.3247C99.9124 90.2144 99.834 90.0991 99.769 89.986C99.5577 89.6227 99.3074 89.2518 99.1891 88.8962C99.0283 88.3968 98.9457 87.685 98.8807 87.0347C98.8219 86.5052 98.5254 85.6404 98.6513 85.2632C98.852 84.6701 99.199 84.6094 99.5858 84.7812C100.229 85.0662 100.985 85.9974 101.362 86.1936C101.751 86.3948 102.079 86.4807 102.373 86.4898C102.505 86.4933 102.614 86.4353 102.733 86.4088C102.871 86.3788 103.017 86.3704 103.145 86.3089C103.112 86.0022 102.979 85.8961 102.832 85.5552C102.748 85.3575 102.757 85.2492 102.737 85.1493C102.737 85.1493 102.734 85.1438 102.733 85.141C102.723 85.0949 102.707 85.0494 102.67 84.9985C102.63 84.9433 102.568 84.8797 102.468 84.7987C102.283 84.6492 101.962 84.5486 101.774 84.4208L101.776 84.418L101.775 84.4173C102.058 84.221 102.086 84.1057 102.021 83.9975C102.007 83.9723 101.978 83.9465 101.956 83.9213C101.879 83.8354 101.776 83.746 101.705 83.6126C101.554 83.3359 101.458 82.8826 101.349 82.5773C101.264 82.3468 101.216 82.2029 101.15 82.0688C101.148 82.0625 101.14 82.0535 101.136 82.0472C101.073 81.9193 100.997 81.7992 100.853 81.6141C100.703 81.422 100.639 81.3025 100.508 81.1579C100.496 81.1461 100.491 81.1349 100.478 81.1223C100.394 81.0371 100.301 81.0105 100.216 80.9714C100.205 80.9665 100.195 80.9582 100.184 80.9533C100.25 80.9156 100.319 80.8911 100.402 80.8722C100.41 80.91 100.419 80.9114 100.426 80.9393C100.45 81.0259 100.47 81.1055 100.503 81.1384C100.546 81.1817 100.608 81.1984 100.717 81.2369C100.717 81.1607 100.717 81.0748 100.734 81.0015C101.292 80.8799 101.562 80.8562 102.025 80.9595C102.079 80.9714 102.112 80.9638 102.173 80.9798C102.207 80.9889 102.256 80.998 102.295 81.0064C102.428 81.0336 102.561 81.0685 102.692 81.1104C102.75 81.1279 102.819 81.1412 102.861 81.1649C102.97 81.2299 102.948 81.357 102.959 81.4534C102.973 81.5477 103.021 81.6113 103.265 81.5526C103.266 81.5435 103.262 81.5296 103.263 81.5205C103.28 81.276 103.15 80.8548 102.952 80.6508C102.883 80.5816 102.806 80.539 102.724 80.5411C102.724 80.5411 102.725 80.5369 102.724 80.5355C102.693 80.4301 102.692 80.2212 102.724 80.115C102.913 80.1241 103.077 80.0221 103.265 80.034C103.133 79.9788 102.994 79.9208 102.856 79.8643C102.994 79.9208 103.133 79.976 103.265 80.0305V80.0291C103.415 80.0906 103.557 80.1541 103.673 80.2135C104.15 80.4727 105.008 81.195 105.594 81.1195C105.827 81.0895 106.559 80.6005 107.001 80.2114C106.671 79.6191 106.34 79.1546 105.86 78.4931C105.601 78.1354 105.307 77.731 105.162 77.3216C104.968 76.7789 105.09 76.4079 104.998 75.8156C104.854 74.9068 103.679 74.5198 103.534 73.873C103.899 73.699 104.139 72.9306 104.35 72.566C104.574 72.1783 104.695 71.3233 105.034 71.0851C105.35 70.8581 106.147 71.0251 106.529 70.8365C106.936 70.6367 107.518 70.1722 107.828 69.8201C107.716 69.7328 107.539 69.6056 107.364 69.4638C107.328 69.4352 107.295 69.4052 107.26 69.3758C107.218 69.3395 107.178 69.3053 107.138 69.2683C107.096 69.2291 107.062 69.1907 107.026 69.1509C106.998 69.1209 106.968 69.0908 106.945 69.0608C106.911 69.0175 106.89 68.9763 106.868 68.9344C106.855 68.9099 106.836 68.8834 106.827 68.8596C106.812 68.8149 106.818 68.7751 106.822 68.7339C106.825 68.7157 106.818 68.6955 106.825 68.6773C106.843 68.6347 106.888 68.5991 106.939 68.5635C106.955 68.553 106.959 68.539 106.978 68.5292C107.06 68.4866 107.171 68.4524 107.325 68.4279C107.332 68.0284 107.087 67.8321 106.838 67.5122C106.674 67.304 106.562 67.0441 106.457 66.7976C106.368 66.5845 106.285 66.3798 106.18 66.2485C105.798 65.7637 105.056 65.7267 104.453 65.9035C104.354 65.6506 104.292 65.2783 104.126 65.0631C104.096 65.0212 104.046 64.9835 103.999 64.9444C103.97 64.9199 103.947 64.8948 103.914 64.8717C103.687 64.7111 103.392 64.5665 103.338 64.4135C103.284 64.2556 103.289 64.125 103.326 64.0049C103.439 63.6472 103.852 63.3992 103.857 62.8683C103.857 62.5247 103.603 62.3088 103.603 62.021C103.6 61.363 103.968 61.1905 104.259 60.6687C104.463 60.2992 104.209 60.1664 104.601 59.9115C104.874 59.7396 105.312 59.8011 105.595 59.9289C105.931 60.0819 106.246 60.7553 106.587 61.0347C106.792 61.2009 107.006 61.224 107.239 60.9062C107.665 60.3327 106.914 59.4455 107.502 58.8266C107.986 58.3251 108.96 58.1791 109.512 57.7313C110.091 57.2612 110.673 56.8205 111.168 56.3769C111.17 56.3741 111.176 56.372 111.179 56.3692C111.205 56.3483 111.23 56.3245 111.258 56.3035C111.174 56.2707 111.084 56.254 110.996 56.2665L110.993 56.2658C110.991 56.1317 110.899 56.0102 110.756 55.8977C110.324 55.5617 109.427 55.3116 109.101 55.0881C108.946 54.9826 108.842 54.9526 108.679 54.8716C108.604 54.8338 108.569 54.7354 108.514 54.6585C108.492 54.6278 108.477 54.5873 108.436 54.5775C108.308 54.544 108.184 54.6955 108.123 54.6816C107.788 54.6033 107.534 54.5957 107.346 54.3966C107.344 54.3952 107.343 54.3917 107.343 54.3917C107.281 54.3246 107.227 54.2429 107.18 54.129C107.041 54.1654 106.627 54.3274 106.518 54.1702C106.345 53.9188 106.787 53.7441 106.743 53.4354C106.594 53.3558 106.355 53.1679 106.166 52.9506C106.137 52.9178 106.122 52.8822 106.096 52.8479C106.037 52.769 105.973 52.6901 105.937 52.6097C105.884 52.4959 105.862 52.3834 105.887 52.2835C106.011 51.7666 106.864 52.0383 106.827 51.279C107.241 51.1198 107.594 51.0765 107.998 50.9388C108.249 50.8557 108.43 50.8131 108.605 50.8376C108.779 50.8606 108.945 50.9514 109.167 51.1365C109.417 50.8334 110.314 50.8969 110.304 50.2522C110.304 50.1537 110.262 50.0741 110.203 50.0028C110.167 49.9588 110.118 49.9204 110.073 49.8813C109.894 49.7269 109.69 49.583 109.745 49.312C109.845 49.2582 109.915 49.2435 109.969 49.2526C110.067 49.2666 110.114 49.3595 110.183 49.4412C110.227 49.4922 110.278 49.539 110.362 49.5572C110.644 49.6235 110.988 49.5208 111.229 49.5495C111.509 49.0298 111.719 49.3224 112.102 49.3057C112.52 49.2924 112.729 49.1192 113.146 49.3127C113.15 49.3881 113.171 49.4733 113.171 49.5488C113.418 49.5411 113.642 49.4859 113.892 49.5013H113.894C113.918 49.5572 113.936 49.6137 113.955 49.6703C113.956 49.6731 113.956 49.6752 113.958 49.6773C114.177 49.8338 114.419 49.9302 114.661 50.0084C114.756 50.0384 114.846 50.0811 114.936 50.1188C115.128 50.1998 115.307 50.3067 115.441 50.503C115.446 50.51 115.455 50.5093 115.459 50.5162C115.487 50.4673 115.639 50.4052 115.685 50.4219C115.631 49.5858 116.438 48.3228 115.315 47.7801H115.319C115.359 47.7906 115.448 47.792 115.525 47.7948C115.689 47.8011 115.885 47.8101 116.06 47.8926C116.096 47.1298 116.835 47.178 116.958 46.6443C116.96 46.6352 116.953 46.6247 116.955 46.6156C116.995 46.3034 116.589 45.9025 116.602 45.8529C116.605 45.8438 116.625 45.8151 116.631 45.8026C116.644 45.7739 116.654 45.7502 116.677 45.7083L116.676 45.7069L116.675 45.7083C116.649 45.6887 116.62 45.6663 116.595 45.6342C116.185 46.0959 115.769 45.9018 115.3 45.8766C115.272 45.8752 115.245 45.8689 115.217 45.8689C115.336 45.5204 116.442 45.9031 115.819 44.9399C115.604 45.0838 115.319 45.2165 115.046 45.111C115.043 45.1096 115.038 45.1124 115.034 45.111C115.068 44.9231 115.396 44.2916 115.154 44.1128C114.885 43.9256 114.708 44.7059 114.598 44.8658C114.542 44.949 114.456 45.0244 114.352 45.0914C114.341 45.0984 114.325 45.1033 114.313 45.1103C114.216 45.1683 114.109 45.2228 113.99 45.2668C113.723 45.3667 113.418 45.4302 113.155 45.4547C112.979 45.4715 112.822 45.4708 112.706 45.4512C112.48 45.4121 112.327 45.3318 112.182 45.2402C112.084 45.1802 111.991 45.1166 111.873 45.0544C111.751 44.9888 111.609 44.9483 111.467 44.9029C111.461 44.9008 111.457 44.898 111.451 44.8959C111.316 44.8526 111.179 44.8058 111.062 44.7268C110.493 44.3384 110.512 43.6713 109.64 43.9186V43.9172C109.849 43.7237 109.773 43.2669 109.54 43.1118L109.538 43.1083C109.391 43.0154 109.177 43.1775 109.122 43.1377C108.956 43.0399 108.93 42.9155 108.745 42.7723C108.281 42.4126 107.609 42.2219 106.943 42.3951C106.627 42.4789 106.406 42.7088 106.074 42.773C105.749 42.8366 105.511 42.8087 105.215 42.9127C105.084 42.9616 105.113 43.167 104.892 43.2019L104.89 43.2012L104.889 43.2019C104.772 43.2264 104.514 43.0573 104.39 43.0287C104.106 42.9519 103.857 42.8764 103.535 42.8904C103.55 42.3616 103.088 41.7504 103.6 41.3927C104.074 41.0616 104.394 41.48 104.782 40.8898C104.892 40.7214 104.953 40.6034 104.974 40.5196C105.036 40.2681 104.735 40.3177 104.284 40.229C103.773 40.127 103.346 40.0397 102.845 39.9978C102.782 39.9922 102.728 39.9803 102.662 39.9768C102.133 38.8955 104.271 38.2829 104.66 37.4572C104.716 37.3399 104.735 37.2169 104.707 37.0884C104.641 36.7915 104.311 36.5673 104.193 36.2627C104.11 36.0518 103.997 35.5055 103.968 35.2974C103.916 34.9292 104.042 34.6701 103.775 34.3935C103.608 34.2174 103.074 34.1783 102.847 34.0826L102.849 34.0812L102.847 34.0798C103.15 33.7026 103.501 33.5203 103.646 33.0118C103.819 32.4027 103.71 32.1393 104.285 31.7586C104.83 31.3996 105.063 31.417 105.574 31.6818C105.915 31.8578 106.421 31.9787 106.745 32.2036C106.776 32.6541 106.743 32.9901 107.002 33.375C106.94 33.3624 106.897 33.3506 106.84 33.3436C106.831 33.3429 106.825 33.3394 106.814 33.3394C106.745 33.7376 106.483 34.2482 106.522 34.6924C106.535 34.8405 106.581 34.9802 106.68 35.1074C106.908 35.407 107.653 35.8869 108.075 35.9694C108.131 35.9805 108.2 36.0092 108.243 36.0036C108.314 36.1628 108.402 36.3249 108.521 36.4353C108.64 36.5449 108.791 36.6043 108.984 36.554C109.036 35.4196 109.312 35.4049 110.237 35.0403C110.559 34.9153 110.898 34.6897 111.23 34.5995C111.661 34.485 111.928 34.6792 112.343 34.6512C112.384 34.1958 112.94 34.3467 112.983 33.8458C113.224 33.7969 113.493 33.8263 113.72 33.7774C113.654 33.7417 113.602 33.6949 113.541 33.6558C113.481 33.6167 113.42 33.5797 113.367 33.5371C113.283 33.47 113.216 33.396 113.149 33.3205C113.101 33.2674 113.048 33.2178 113.01 33.1599C112.959 33.083 112.933 32.9971 112.901 32.9126C112.876 32.8455 112.839 32.7834 112.828 32.7114C112.813 32.6087 112.834 32.4956 112.851 32.3838C112.86 32.3244 112.844 32.2699 112.864 32.2085C113.359 31.9828 114.458 31.4066 115.122 31.526C115.344 31.5651 115.518 31.6818 115.606 31.9144C115.757 31.9521 115.944 31.9577 116.127 31.9647C116.947 31.9961 117.987 31.7803 118.566 31.651C119.414 31.4617 120.241 30.7367 121.051 30.5383C122.853 30.0947 125.643 31.278 126.614 29.2474C127.036 28.368 126.875 27.3488 126.745 26.484C126.578 25.3817 126.66 24.767 127.025 23.6962C127.357 22.7217 127.098 21.968 127.301 21.0397C127.327 20.9188 127.808 19.8808 127.854 19.8592C127.976 19.7921 128.09 19.7739 128.199 19.7823C128.525 19.8068 128.792 20.0743 129.004 20.0254C129.898 19.8159 130.227 18.9259 130.881 18.2421C131.729 17.3507 132.348 17.4981 133.343 17.0832C133.29 16.018 136.276 13.8951 137.323 14.0467C137.379 13.1966 138.152 12.7558 138.721 12.2906C138.674 11.8673 138.568 11.8736 139.042 11.6361Z" fill="white" fill-opacity="0.18"/>
</svg>
