<svg width="14" height="7" viewBox="0 0 14 7" fill="none" xmlns="http://www.w3.org/2000/svg">
<path d="M12.5414 1.46971C12.626 1.25177 12.9785 1.41243 13.1961 1.2825C13.4129 1.16515 13.6626 1.10368 13.7235 0.858496C13.7864 0.611915 13.6339 0.732757 13.1961 0.302462C12.7603 -0.124339 12.7897 0.11666 12.5743 0.0293435C12.3553 -0.0628625 12.0133 0.0915069 11.7958 0.117352C11.5796 0.15158 10.8599 0 10.8599 0C10.8599 0 10.6759 0.151585 10.6143 0.303166C10.5521 0.458938 10.6144 0.550449 10.3045 0.800523C10.2282 0.859199 9.83654 0.704819 9.55605 0.646142C9.27627 0.579782 9.15107 0.733458 8.93284 0.733458C8.7132 0.733458 7.71856 0.67199 7.62553 0.67199C7.5339 0.67199 7.31497 0.705522 7.22124 0.705522C7.12961 0.705522 6.72252 0.917177 6.19373 1.41313C5.66633 1.89721 5.88456 1.68346 4.88922 2.38967C3.89178 3.09309 4.60943 2.57268 4.39119 2.72776C4.17576 2.87934 4.14288 2.87934 4.08063 2.97225C4.01558 3.06445 3.36439 3.33897 3.36439 3.33897C3.36439 3.33897 3.02165 3.55552 2.86496 3.67567C2.70898 3.80071 2.30399 4.07382 2.0277 4.16533C1.74372 4.25893 1.18555 4.16533 0.65815 4.35044C0.532246 4.39585 0.188809 4.68434 0.00554903 5.26971C-0.0441131 5.41431 0.251754 5.26971 0.407035 5.39475C0.566514 5.5156 0.251754 5.94449 0.251754 5.94449C0.251754 5.94449 0.315411 6.21902 0.347587 6.31053C0.377664 6.40203 0.628067 6.49423 0.717599 6.49423C0.812027 6.49423 1.02956 6.25254 1.21702 6.06743C1.40238 5.88651 1.21703 6.06744 1.81017 5.97313C1.94727 5.95637 2.15151 6.21901 2.30539 6.18897C2.46277 6.16033 2.89854 6.06743 2.99017 6.27979C3.0818 6.49423 3.3329 6.3713 3.39516 6.00177C3.42803 5.72586 3.39516 6.00177 3.39516 5.63644C3.39516 5.26971 3.39516 5.63644 3.76658 5.5156C4.14359 5.39475 3.80155 5.75938 4.17646 6.16033C4.32685 6.3196 4.26809 6.33777 4.33035 6.52707C4.3919 6.70938 4.73184 6.70938 4.92069 6.64721C5.10535 6.58365 5.29561 6.52706 5.51314 6.43416C5.73137 6.33706 5.91464 6.40133 6.13217 6.0339C6.34971 5.66717 6.13217 6.03391 6.00906 5.78802C5.88596 5.54354 6.00906 5.78802 5.94681 5.51489C5.88525 5.23758 5.85588 5.23758 6.44203 5.51489C7.03868 5.78802 6.63229 5.60291 6.78757 5.51489C6.94145 5.42269 7.00441 5.48485 7.15969 5.26901C7.31567 5.05316 7.15969 4.99379 7.25482 4.87015C7.34714 4.74581 7.50242 4.89949 7.62693 4.74582C7.75353 4.59423 7.71996 4.62427 7.68919 4.37839C7.66191 4.13181 7.6619 4.25754 7.59406 4.04449C7.5353 3.82865 7.81229 3.92085 8.03402 3.76717C8.24945 3.61769 8.1879 3.76718 8.22007 3.49056C8.25015 3.21743 8.31171 3.24607 8.37606 3.12522C8.43831 3.00018 8.65514 3.21743 9.05734 3.39975C9.20283 3.4675 9.05734 3.61768 8.99929 3.89151C8.93493 4.16463 9.02866 4.10456 8.99929 4.34975C8.96711 4.59423 9.21261 4.72835 9.30844 4.81147C9.52527 4.99379 9.86872 5.05317 10.0856 4.93232C10.3066 4.81148 10.5542 4.93232 10.7081 4.74582C10.862 4.56559 10.7081 4.74581 10.7703 4.28758C10.8319 3.82794 10.9585 4.04379 11.0214 3.92085C11.0802 3.80001 11.2047 3.92085 11.3635 3.89082C11.5195 3.85868 11.7062 4.01236 11.8622 3.89082C12.0154 3.76718 12.4497 3.61699 12.5764 3.45842C12.7009 3.30894 12.7288 3.39905 12.6666 3.186C12.6085 2.97085 12.484 2.97085 12.3574 2.6628C12.2924 2.50144 12.6386 2.63416 12.7288 2.53986C12.8268 2.44974 12.8268 2.29607 12.3868 1.86717C11.951 1.43618 12.3854 1.86787 12.5414 1.46971Z" fill="white" fill-opacity="0.18"/>
</svg>
