<svg width="4" height="1" viewBox="0 0 4 1" fill="none" xmlns="http://www.w3.org/2000/svg">
<path d="M2.24017 0.0386442C2.04501 0.1546 1.85338 0.230757 1.85338 0.230757L1.61763 0.507372C1.61763 0.507372 1.14969 0.428434 0.954538 0.428434C0.761485 0.428434 0.593614 0.293611 0.448125 0.391405C0.0948949 0.626111 -0.140829 0.466147 0.0948915 0.62611C0.330612 0.782581 0.176037 0.821714 0.566339 0.74278C0.954543 0.664545 0.761485 0.626126 0.954538 0.664545C1.41968 0.782597 1.46375 0.821698 1.61763 0.821698C2.20238 0.821698 2.28145 0.705752 2.28145 0.705752C2.70672 0.705752 2.67105 0.912524 2.8627 0.664545C3.17816 0.273369 3.29147 0.391422 3.17815 0.27337C3.06134 0.15462 2.74726 0.11479 2.74726 0.11479C2.74726 0.11479 2.43532 -0.0808044 2.24017 0.0386442Z" fill="white" fill-opacity="0.18"/>
</svg>
