<svg width="5" height="10" viewBox="0 0 5 10" fill="none" xmlns="http://www.w3.org/2000/svg">
<path d="M4.71632 2.94599C4.65967 2.86007 4.42678 2.50453 4.36522 2.56181C4.31066 2.62258 4.19246 2.5618 4.21764 2.29846C4.24841 2.03371 4.1029 2.12244 4.16235 1.91777C4.21761 1.711 4.21763 1.59014 4.27988 1.38547C4.33444 1.1829 4.31066 0.91466 4.31066 0.828043C4.31066 0.737932 4.16238 0.41731 4.0134 0.503229C3.86861 0.594038 3.86858 0.503233 3.63566 0.651321C3.39994 0.798711 3.6056 1.00408 3.39996 0.79871C3.19781 0.594041 3.37266 0.417325 3.07819 0.35795C2.78721 0.297877 2.72918 0.416627 2.52353 0.270634C2.32069 0.121149 2.55149 -0.112861 2.17448 0.0624695C1.79048 0.239896 1.61631 0.29857 1.58623 0.387283C1.53727 0.545151 1.38059 0.621981 1.35471 0.946099C1.32184 1.27022 1.20853 1.35684 1.20853 1.59084C1.20853 1.82555 1.20853 2.1818 1.20853 2.33199C1.20853 2.47798 1.17772 2.74062 1.14975 2.86077C1.12037 2.97812 1.03226 2.91736 1.03226 3.1814C1.03226 3.44964 0.941328 3.30154 0.972104 3.62286C1.00358 3.95048 1.00358 3.83032 1.03226 4.18518C1.06163 4.53724 1.26657 4.38777 1.06163 4.53725C0.855287 4.68115 0.799316 4.51 0.619554 4.56797C0.447485 4.62386 0.359382 4.44923 0.274047 4.38776C0.185215 4.32908 -0.0204578 4.24457 0.00752084 4.4192C0.0382973 4.59663 -0.0197583 4.56729 0.00752084 4.80129C0.0382973 5.03879 0.0383281 5.0388 0.126461 5.27141C0.212495 5.50611 0.32929 5.39224 0.30201 5.71566C0.274032 6.03629 0.360073 6.00626 0.387352 6.33387C0.41533 6.65449 0.360057 6.30242 0.415315 6.65448C0.476868 7.00654 0.448187 6.86056 0.595774 7.1253C0.740564 7.39074 0.688115 7.36909 0.886763 7.39074C1.17774 7.41799 1.03296 7.39074 1.26728 7.2706C1.4995 7.15324 1.26726 7.18468 1.49948 7.15325C1.7359 7.126 1.61631 7.15325 1.85203 7.15325C2.08775 7.15325 1.79046 7.06453 2.08773 7.15325C2.37871 7.24405 2.70048 7.24404 2.58437 7.44941C2.46546 7.65827 2.32066 7.65827 2.20245 7.7421C2.08773 7.8336 1.96953 7.7421 1.73591 7.7421C1.49949 7.7421 1.39457 7.80357 1.41345 7.94956C1.47151 8.39243 1.41348 8.44971 1.61633 8.5978C1.82127 8.74519 1.73521 8.56776 1.96883 8.74519C2.20176 8.91982 2.28781 8.80248 2.55081 8.95126C2.81801 9.09586 2.75574 9.00784 2.90473 8.95126C3.05232 8.89259 3.10758 8.77452 3.19781 8.65367L3.63498 8.39243L3.51608 8.12698C3.51608 8.12698 3.28174 7.77214 3.25446 7.65828C3.22648 7.53813 3.10756 7.2147 3.10756 7.2147C3.10756 7.2147 2.99075 7.03798 2.96347 6.92342C2.9334 6.80258 2.90402 7.2147 2.87254 6.56716C2.84456 5.91893 2.75503 5.83232 2.87254 5.74361C2.87254 5.74361 3.16774 5.6549 3.2265 5.50681C3.28106 5.36082 3.28105 5.15404 3.3433 5.06812C3.3433 5.06812 3.66227 4.94659 3.83853 4.802C4.0113 4.65321 4.19104 4.38776 4.19104 4.38776C4.19104 4.38776 4.27779 4.24456 4.33235 4.12301C4.3967 4.00496 4.30857 3.97772 4.42538 3.74092C4.54219 3.50901 4.39669 3.74092 4.54218 3.50901C4.68697 3.27011 4.77508 3.03541 4.71632 2.94599Z" fill="white" fill-opacity="0.18"/>
</svg>
