<svg width="3" height="5" viewBox="0 0 3 5" fill="none" xmlns="http://www.w3.org/2000/svg">
<path d="M1.49109 2.77723C1.95764 2.80727 1.95763 2.95325 2.13459 2.86593C2.31016 2.77722 2.42485 2.60049 2.42485 2.60049C2.28216 2.18836 2.28217 2.65707 2.2514 2.06821C2.22342 1.48354 2.16468 1.42276 2.19615 1.24813C2.22343 1.07001 2.22343 0.922615 2.22343 0.805262C2.22343 0.689306 2.10663 0.392449 2.10663 0.392449C1.72402 0.189177 1.52116 -0.0196811 1.43512 0.0103556C1.34769 0.0396939 1.13995 -0.0469293 1.05252 0.0396884C0.963686 0.129799 0.876936 0.0690252 0.790902 0.129797C0.699971 0.188474 0.381741 -0.019692 0.381741 0.243654C0.381741 0.425271 0.00122743 -0.0797666 0.00122743 0.21641C0.00122743 0.508395 -0.0260681 0.508402 0.176777 0.659983C0.38242 0.805277 0.49923 0.864641 0.586663 0.980597C0.672697 1.10144 0.613233 1.24813 0.672687 1.42276C0.731443 1.59949 0.846886 1.45142 0.731474 1.59951C0.613964 1.7469 0.322976 1.59951 0.467766 1.77693C0.613954 1.95156 0.409 1.95157 0.26421 2.12969C0.118022 2.30642 0.145996 2.3616 0.145996 2.54112C0.145996 2.71575 -0.0568511 2.92321 0.0914356 2.98258C0.232728 3.03986 0.46848 3.36749 0.587389 3.30671C0.587389 3.30671 0.791617 3.18866 0.877652 3.33396C0.963686 3.48344 1.05321 3.54211 0.994457 3.77892C0.935702 4.01362 0.700688 4.18616 0.817499 4.36568C0.936408 4.54101 0.791623 4.6898 1.02315 4.71774C1.25817 4.74987 1.25814 4.71774 1.43581 4.54101C1.61137 4.36568 1.66665 4.30491 1.7247 4.16101C1.78486 4.01362 1.78486 3.77892 1.78486 3.77892C1.78486 3.77892 1.69181 3.56098 1.63795 3.45481C1.40293 2.9819 1.02315 2.7465 1.49109 2.77723Z" fill="white" fill-opacity="0.18"/>
</svg>
