<svg width="16" height="5" viewBox="0 0 16 5" fill="none" xmlns="http://www.w3.org/2000/svg">
<path d="M1.74611 2.60958C1.82446 2.76605 1.86295 3.00006 2.01823 3.00006C2.17421 3.00006 2.60508 2.84079 2.60508 2.84079H3.1891L3.96623 3.15653L4.43695 3.39193C4.43695 3.39193 5.36728 3.44362 5.52466 3.43035C5.95553 3.39193 5.68274 3.31649 6.10941 3.31649C6.54028 3.31649 6.73471 3.19495 6.81165 3.31649C6.88929 3.43035 7.23832 3.23476 7.32016 3.39193C7.3957 3.54771 7.71049 3.5477 7.71049 3.66855C7.71049 3.78451 8.05882 3.82851 8.2169 3.90046C8.37148 3.9787 8.76175 3.94307 8.87786 4.06043C8.99327 4.17778 9.42277 4.17777 9.58155 4.21619C9.73613 4.25671 10.0851 4.13517 10.202 4.25672C10.3202 4.37058 10.8643 4.29584 10.9819 4.33216C11.1001 4.36988 11.0602 4.33216 11.4904 4.33216C11.9178 4.33216 11.7254 4.25672 11.9177 4.33216C12.1129 4.41109 12.8907 4.13516 12.8907 4.41108L13.6706 4.25601C14.1791 4.56756 14.3736 4.56755 14.645 4.6856C14.9184 4.80156 15.0906 4.7876 15.2297 4.80157C15.6201 4.84069 15.6571 4.52843 15.6571 4.52843C15.6571 4.52843 15.6963 4.29444 15.6963 4.09675C15.6963 3.89907 15.7368 3.47017 15.7368 3.47017C15.7368 3.47017 15.2297 3.15514 15.1136 3.23338C14.9982 3.3151 14.645 3.15512 14.645 3.15512C14.645 3.15512 14.4505 2.99866 14.2959 3.07829C14.1386 3.15513 13.5909 3.39053 13.5909 3.39053C13.0866 3.15512 12.8501 2.95885 12.8501 2.95885C12.8501 2.95885 12.6193 2.76465 12.7774 2.60818C12.9313 2.44961 12.1122 2.33297 13.1264 2.37209C14.1379 2.4119 14.1784 2.37209 14.3736 2.33297C14.5687 2.29665 14.6044 2.33297 14.7233 2.21212C14.8394 2.09686 14.9982 1.86006 14.9982 1.86006C14.9982 1.86006 14.8772 1.70499 14.645 1.78183C14.4127 1.86006 13.9028 1.9795 13.7895 1.93968C13.6713 1.90057 13.6307 1.70499 13.3216 1.7455C13.0096 1.78183 13.0096 1.62745 12.8152 1.78183C12.62 1.9397 12.4605 1.90057 12.3472 1.93968C12.2297 1.9795 12.059 1.96763 11.9562 1.90057C11.5281 1.62395 11.2952 1.58903 11.1378 1.58903C10.9826 1.58903 10.6699 1.66377 10.6699 1.66377C10.6699 1.66377 10.1635 1.15663 10.0075 1.15663C9.84945 1.15663 9.7739 1.03788 9.58155 1.11402C9.3864 1.19505 9.34582 0.761274 9.1101 1.07701C9.02337 1.19366 8.97579 1.20971 8.94151 1.21321C8.94081 1.20692 8.93874 1.21042 8.93524 1.21391C8.88418 1.21461 8.87718 1.17689 8.87718 1.38854C8.7198 1.9788 8.48898 1.85936 8.48898 1.85936C8.48898 1.85936 8.18889 1.98649 8.05809 1.90057C7.70975 1.66376 7.70977 1.7455 7.43278 1.66377C7.16278 1.58903 7.59017 1.35293 7.16279 1.58903C6.73122 1.82374 6.14927 1.62465 5.99329 1.70498C5.83661 1.78182 5.40711 1.7455 5.44978 1.62465C5.48685 1.5094 5.3365 1.24884 5.25326 1.15733C4.9434 0.802481 4.74475 0.646002 4.5503 0.725635L3.88857 0.567779C3.57521 0.375683 3.34228 0.410605 3.34228 0.410605C3.34228 0.410605 2.99327 -0.0972224 2.91353 0.016638C2.83519 0.139579 2.33159 -0.0224848 2.40643 0.491633C2.43581 0.685126 1.86083 0.255526 1.58944 0.33446C1.31664 0.410599 1.05994 0.0431892 0.926343 0.29466C0.614381 0.882123 0.655656 1.00784 0.496178 1.19575C0.109373 1.66446 -0.161305 1.42907 0.109388 1.66448C0.382879 1.90128 0.655661 1.94039 0.885785 1.98021C1.1222 2.02072 1.16275 1.94039 1.31663 1.94039C1.47052 1.94039 1.66567 2.05774 1.70624 2.25333C1.74611 2.45101 1.66847 2.45102 1.74611 2.60958Z" fill="white" fill-opacity="0.18"/>
</svg>
