<svg width="34" height="18" viewBox="0 0 34 18" fill="none" xmlns="http://www.w3.org/2000/svg">
<path d="M30.8073 13.6392C31.0249 13.5778 31.2116 13.6392 31.4005 13.6392C31.5859 13.6392 31.8013 13.3333 31.8635 13.5778C31.9279 13.8222 31.9587 13.7929 32.144 13.8809C32.3322 13.9773 32.3322 13.6993 32.6127 13.8215C32.8939 13.9438 33.2359 13.9117 33.4226 13.9766C33.6073 14.0388 33.7318 14.1596 33.7948 13.9438C33.8584 13.7279 33.8584 13.4841 33.8584 13.3326C33.8584 13.1768 33.8584 12.6864 33.7654 12.6864C33.6703 12.6864 33.608 12.5034 33.2359 12.4748C32.8624 12.4419 32.6127 12.3819 32.5196 12.3211C32.4287 12.2596 32.4875 12.1695 32.363 12.0109C32.2398 11.8608 32.3951 11.6798 32.0853 11.7707C31.7726 11.8608 31.2417 11.8335 31.2417 11.8335C31.2417 11.8335 31.2753 11.6498 31.0585 11.5541C30.8409 11.4591 31.0256 11.0351 30.6206 11.0637C30.2184 11.0959 30.3408 10.8186 30.1226 10.7585C29.9043 10.6963 30.2184 10.2667 29.812 10.5748C29.4084 10.88 29.2524 11.0065 28.9726 10.8472C28.6936 10.6963 28.3165 10.1731 28.3165 10.1731C28.3165 10.1731 28.2249 9.50252 27.9157 9.53116C27.6031 9.5619 27.1652 9.62337 27.1345 9.22521C27.1065 8.82845 27.1659 8.58326 27.2611 8.58326C27.3562 8.58326 27.6325 8.52039 27.6038 8.27451C27.5737 8.03002 27.8213 7.47958 27.5415 7.3259C27.2618 7.17292 27.324 6.95638 27.0106 6.71469C26.7008 6.46741 26.5763 6.01127 26.4532 5.94771C26.328 5.88554 26.358 5.67319 26.1419 5.45734C25.9244 5.24429 25.7355 5.18142 25.7026 4.69245C25.674 4.19999 25.5201 4.01767 25.5495 3.83396C25.5816 3.64675 25.6117 3.4337 25.3942 3.37223C25.178 3.31286 25.0193 3.0984 25.2088 3.13053C25.3942 3.15638 25.8922 3.13053 25.8922 3.13053C25.8922 3.13053 26.079 3.06697 26.2384 2.82249C26.3888 2.5773 26.3287 2.48439 26.577 2.23571C26.8281 1.99263 27.1079 1.96539 27.1079 1.75234C27.1079 1.53161 27.2617 1.75234 27.1079 1.31995C26.9484 0.89175 26.8561 0.58649 26.8561 0.58649C26.8561 0.58649 26.919 0.340604 26.7015 0.340604C26.4846 0.340604 26.2965 -0.028919 25.8628 0.00181627C25.427 0.0346472 24.8353 0.0625905 24.5205 0.124061C24.2128 0.185532 24.3674 -0.0289169 23.8742 0.124061C23.3727 0.278436 23.435 0.247004 23.1846 0.461452C22.9363 0.674504 22.7831 0.645865 22.6551 0.82888C22.5327 1.0105 22.8132 1.13623 23.1545 1.22774C23.4972 1.31995 23.6826 1.34858 23.9659 1.6245C24.2443 1.90182 24.4282 1.68598 24.4282 2.08624C24.4282 2.4844 24.7423 2.5766 24.4618 2.63807C24.1813 2.69744 24.0897 2.36076 23.8386 2.33002C23.5896 2.30068 23.4965 2.08623 23.372 1.99332C23.2475 1.90251 22.7824 1.56234 22.7824 1.56234C22.4103 1.71881 22.6152 2.12046 22.469 2.0562C21.9437 1.81241 21.5996 1.59656 21.4429 1.6252C21.2862 1.65803 21.5037 1.32065 21.0708 1.5323C20.6364 1.75304 20.6364 1.71881 20.5399 1.96539C20.4476 2.20708 20.4776 2.17774 20.4189 2.48439C20.3573 2.79244 20.3223 3.40576 20.386 3.49517C20.4483 3.58738 20.607 3.74175 20.607 3.86189C20.607 3.98483 20.607 4.25727 20.6651 4.44517C20.7301 4.63238 21.2589 4.8119 21.2876 4.96907C21.3191 5.11995 21.694 5.21006 21.6304 5.54675C21.5681 5.88484 21.694 6.22362 21.694 6.34726C21.694 6.46601 21.9108 6.83483 21.9108 6.83483C21.7863 7.14079 21.5058 6.98712 21.3848 7.05068C21.2589 7.11215 21.1967 7.233 21.0428 7.35385C20.8833 7.47819 20.8833 7.233 20.6378 7.233C20.3867 7.233 20.2608 6.89701 20.2314 6.714C20.202 6.52819 20.3867 6.10068 20.202 6.10068C20.0153 6.10068 19.7971 5.79263 19.732 5.64105C19.6732 5.48527 19.732 5.14859 19.5466 4.96907C19.3578 4.78186 19.4221 4.59885 19.2955 4.53528C19.1752 4.47381 19.1752 4.19928 18.9864 4.10847C18.7996 4.01696 18.5856 3.83395 18.4569 3.79903C18.3345 3.77039 17.6497 3.37223 17.6497 3.37223L17.4 2.97546L17.0887 2.79314C17.0887 2.79314 16.6215 2.69745 16.5305 2.69745C16.4375 2.69745 16.3669 2.69466 16.1864 2.76102C15.7828 2.9112 15.8444 2.63807 15.7828 2.9112C15.7199 3.18782 15.6275 3.0984 15.9052 3.25138C16.1864 3.40646 16.5935 3.68097 16.5935 3.68097C16.5935 3.68097 16.8103 3.83466 16.9334 3.8626C17.0565 3.89193 17.3077 4.10918 17.1831 4.23002C17.0565 4.35157 16.9656 4.35156 16.8411 4.29219C16.7145 4.23002 16.5145 4.12385 16.4382 4.25866C16.2815 4.53598 15.9381 4.50734 15.9381 4.50734L15.6282 4.35227C15.1939 4.69315 15.154 4.53179 15.0351 4.69315C14.7854 5.02634 14.6644 5.02635 14.5385 5.05988C14.414 5.09062 14.1335 5.02704 14.1335 5.02704C14.3839 4.66241 14.4762 4.60024 14.6937 4.35296C14.912 4.11057 14.8784 3.92616 14.7854 3.86399C14.6938 3.80113 14.4468 3.71102 14.4468 3.71102C14.4468 3.71102 13.7586 3.28211 13.6397 3.37432C13.511 3.47002 13.5431 3.22134 13.3249 3.25347C13.1067 3.28211 13.1067 3.1005 12.8891 3.1005C12.6723 3.1005 12.4226 2.85391 12.2701 2.91329C12.112 2.97755 12.0505 2.97756 11.8952 2.94542C11.7413 2.91329 11.7714 2.82458 11.5203 2.85322C11.2755 2.88395 11.3377 2.64016 11.1181 2.85322C10.9005 3.06906 10.9943 2.82458 10.776 3.03833C10.5585 3.25347 10.5585 3.25347 10.371 3.49726C10.1864 3.74384 9.74922 3.80113 10.0577 3.86399C10.371 3.92616 10.3088 3.77249 10.371 3.92617C10.1241 4.26006 9.93528 4.26006 9.71425 4.26006C9.49882 4.26006 9.62332 3.92616 9.37641 4.20138C9.1274 4.47521 8.7217 4.35296 8.75318 4.23142C8.78745 4.11057 8.76368 4.01627 8.87909 3.95689C9.27988 3.74384 9.43586 3.56153 9.43586 3.56153C9.43586 3.56153 9.49881 3.40785 9.53099 3.28211C9.56386 3.15847 9.71425 2.48649 9.71425 2.48649L9.62332 2.02477C9.62332 2.02477 9.49881 1.68807 9.31345 1.56373C9.12669 1.44429 8.91126 1.20049 8.75318 1.292C8.5951 1.38281 8.16144 1.50575 8.03763 1.59796C7.91452 1.68807 8.03763 1.59796 7.66691 1.8145C7.292 2.02546 7.22555 1.96818 7.04089 2.02546C6.85763 2.08903 6.82266 1.8145 6.51489 1.99542C6.20363 2.18053 6.32604 2.02547 6.04625 2.23852C5.76646 2.45855 5.83012 2.23851 5.57901 2.39428C5.3321 2.54726 5.39365 2.36355 5.11316 2.51792C4.83408 2.66951 4.83407 2.39428 4.64661 2.57939C4.45846 2.76311 4.64662 2.51793 4.30458 2.79524C3.96184 3.06977 3.86531 3.03903 3.7436 3.13263C3.6198 3.22135 3.71143 3.10049 3.43164 3.25347C3.15465 3.40855 2.99727 3.18991 2.75036 3.37432C2.49925 3.56223 2.68741 3.37433 2.25164 3.74385C1.81448 4.11058 1.84035 3.98275 1.65849 4.16995C1.19125 4.66311 1.19125 4.81399 1.19125 4.81399C1.53399 5.15069 1.15908 4.93763 1.53399 5.15068C1.90611 5.36373 2.09426 5.36374 2.09426 5.36374C2.09426 5.36374 1.40949 5.80171 1.31576 5.82546C0.849217 5.9498 1.22413 5.79472 0.849212 5.9498C0.477096 6.10347 0.540046 6.01336 0.414842 6.31722C0.288239 6.62458 0.386164 6.28859 0.25956 6.8062C0.135055 7.32731 -0.178301 7.11495 0.13506 7.3273C0.444923 7.54384 -0.210473 7.69334 0.66316 7.63536C1.53469 7.57389 1.68997 7.44745 1.7851 7.51172C1.87603 7.57388 2.57899 7.35105 2.52863 7.54315C2.4363 7.90988 2.12784 7.93991 1.96976 8.03072C1.96976 8.03072 2.1866 8.21793 2.34538 8.30594C2.49926 8.40024 2.59438 8.49385 2.9658 8.40025C3.33931 8.30595 3.72752 8.2298 3.83594 8.21862C4.2717 8.15715 4.30457 8.00069 4.61794 8.03142C4.9271 8.06286 5.54893 7.94131 5.70281 7.91058C5.86089 7.88263 6.29596 7.75481 6.44844 7.84911C6.60652 7.94131 7.01011 7.63605 6.82195 7.88333C6.6352 8.12502 6.26378 8.30735 5.86089 8.36882C5.4531 8.43168 5.29852 8.49454 4.9271 8.61469C4.55009 8.73833 4.61793 8.67686 4.24232 8.80399C3.86531 8.92204 3.65197 8.98421 3.40157 9.04359C3.15395 9.10645 3.33862 8.92205 2.81122 9.10646C2.28033 9.29157 2.1852 9.10646 1.84316 9.44315C1.50462 9.77984 1.35073 9.87065 1.47174 10.0886C1.59554 10.3009 2.00124 10.3324 2.4356 10.5447C2.87067 10.7606 3.46382 11.0658 3.46382 11.0658C3.46382 11.0658 3.71073 11.1266 3.99051 11.098C4.271 11.0658 4.58366 11.0372 4.83337 10.9736C5.08098 10.9115 5.05161 10.8207 5.54893 10.8207C6.04555 10.8207 6.60652 10.8821 6.79467 10.9108C6.98143 10.9422 7.4158 10.8493 7.59976 10.9108C7.78792 10.9729 8.5944 10.9108 8.68953 10.8821C8.78675 10.8493 9.34353 10.6691 9.62261 10.7284C9.9059 10.7899 10.5907 11.0079 10.8376 11.0651C11.0852 11.1259 12.2372 11.1259 12.4226 11.186C12.6121 11.2474 13.1696 11.4605 12.9234 11.6191C12.6723 11.7721 12.2365 12.0123 11.9861 11.953C11.7406 11.8936 11.5196 11.7399 10.9327 11.8014C10.3396 11.8629 9.96466 11.8936 9.56316 11.953C9.15817 12.013 9.06374 11.8356 8.66085 11.953C8.25236 12.0759 7.97537 12.0466 7.66621 12.1094C7.35005 12.1709 7.54241 11.8349 6.88561 12.0123C6.23021 12.1995 5.86089 12.1094 5.42233 12.1995C4.98586 12.2918 4.95858 12.0459 4.58366 12.2282C4.20665 12.4147 4.1479 12.1995 3.86461 12.4433C3.58762 12.6878 3.46312 12.4147 3.46312 12.6278C3.46312 12.8415 3.18333 12.6878 3.55685 13.1782C3.93036 13.6658 3.8821 13.911 3.96114 14.0066C4.45706 14.5885 5.11176 14.7736 5.23627 14.8358C5.36007 14.8945 5.61118 14.9259 5.70281 15.0796C5.79444 15.234 5.67063 15.2025 6.17215 15.3876C6.66807 15.5679 7.22484 15.3234 7.34935 15.4477C7.47595 15.5679 8.16003 15.9674 8.31741 15.7851C8.47409 15.6007 8.53564 15.4163 8.68953 15.5392C8.84551 15.6622 9.09453 15.6007 9.37501 15.6007C9.6548 15.6007 9.68557 15.5064 9.87233 15.5679C10.057 15.6349 10.1857 15.7215 10.2479 15.8158C10.3081 15.9059 10.3396 16.1504 10.2773 16.3677C10.2158 16.5779 10.3396 16.6736 10.2773 16.9482C10.2158 17.2234 10.2158 17.0103 10.3703 17.1312C10.5242 17.2562 10.4956 17.1025 10.7131 17.2562C10.9327 17.4078 11.0852 17.4693 11.1468 17.595C11.2097 17.7158 11.5517 17.595 11.7105 17.7452C11.8651 17.8968 12.5457 17.7452 12.5457 17.7452C12.5457 17.7452 12.6114 17.595 12.9227 17.6823C13.2305 17.778 14.0754 17.778 14.0754 17.778C14.0754 17.778 14.009 17.595 14.351 17.6243C14.6938 17.653 13.9152 17.442 15.0987 17.47C16.2822 17.5007 17.3084 17.3163 17.3084 17.3163L18.5219 17.2241C18.5219 17.2241 19.2683 17.0418 19.3942 16.9181C19.5187 16.7931 19.7369 16.6171 19.8579 16.5786C20.2951 16.4634 20.2622 16.5786 20.8847 16.4019C21.5065 16.2126 21.3205 16.2762 21.5065 16.2126C21.6954 16.1511 22.192 16.0016 22.192 16.0016L22.6306 15.6629C22.6306 15.6629 22.7229 15.2032 22.8439 15.1732C22.9705 15.1418 23.2888 14.8365 23.4084 14.8952C23.7511 15.0803 23.9687 14.8651 23.877 15.2032C23.7798 15.5399 23.7504 15.6629 23.877 15.6936C23.9973 15.7222 24.5233 15.6636 24.6206 15.6936C24.7115 15.7222 25.3382 15.6636 25.3382 15.6636C25.6145 15.9681 25.76 15.8347 25.8656 16.0617C26.0482 16.4641 26.3916 16.5214 26.4874 16.6136C26.5791 16.7058 26.5791 16.7693 26.8302 16.7058C27.0757 16.6422 27.0757 16.5214 27.2352 16.5214C27.3877 16.5214 27.636 16.4899 27.7612 16.5793C27.8871 16.675 27.7947 16.4641 28.2291 16.675C28.6635 16.8895 29.7519 16.7058 29.9414 16.7344C30.1268 16.7693 30.6248 16.6422 30.6248 16.6422C30.6248 16.6422 30.936 16.5214 31.1214 16.5214C31.3103 16.5214 31.4634 16.3691 31.5586 16.3055C31.6516 16.2433 31.6516 16.2433 31.9006 16.0918C32.1482 15.9388 32.3035 16.0282 32.3035 15.9067C32.3035 15.7858 32.3665 15.6636 32.3665 15.6636C31.8677 15.6021 31.7761 15.2989 31.7761 15.2989C31.6201 14.958 31.5579 14.8372 31.5579 14.8372C31.5579 14.8372 31.0291 14.5291 30.8731 14.7136C30.7185 14.8959 30.8731 14.6214 30.5597 14.8959C30.2499 15.1739 30.1589 15.2989 30.1589 15.2989C30.1589 15.2989 30.0009 15.1425 30.096 14.9888C30.1876 14.8372 30.3436 14.6828 30.1589 14.6535C29.9701 14.6221 29.6588 14.4991 29.6588 14.4991C29.6588 14.4991 29.8491 14.3454 30.1254 14.4376C30.4059 14.5298 30.6234 14.622 30.6234 14.4376C30.6234 14.2553 30.5926 14.5298 30.6234 14.2553C30.6514 13.9766 30.5891 13.6993 30.8073 13.6392Z" fill="white" fill-opacity="0.18"/>
</svg>
