<svg width="2" height="2" viewBox="0 0 2 2" fill="none" xmlns="http://www.w3.org/2000/svg">
<path d="M0.949189 0.121794C0.716966 0.151132 0.77224 0.151125 0.686206 0.241235C0.596674 0.326456 0.332968 0.532533 0.214758 0.561871C0.214758 0.561871 0.159477 0.802157 0.0426663 0.858738C-0.074844 0.916716 0.0727662 1.18006 0.214758 1.208C0.365143 1.24083 0.537211 1.41687 0.537211 1.41687L0.891127 1.29881C0.891127 1.29881 1.066 1.18008 1.24436 1.00544C1.41643 0.825224 1.50387 0.859442 1.53535 0.712052C1.56193 0.562567 1.59338 0.446611 1.33039 0.0617213C1.22337 -0.0940508 1.18001 0.09036 0.949189 0.121794Z" fill="white" fill-opacity="0.18"/>
</svg>
