<svg width="6" height="3" viewBox="0 0 6 3" fill="none" xmlns="http://www.w3.org/2000/svg">
<path d="M3.44138 0.512715C3.23434 0.39117 2.65447 0.18789 2.44743 0.18789C2.23899 0.18789 2.03195 0.146677 1.57659 0.0614565C1.11844 -0.019573 0.207042 -0.0572938 0 0.18789C0 0.18789 0.247611 0.674068 0.786899 0.75859C1.32619 0.840318 1.78155 1.16514 1.94872 1.28948C2.11449 1.41242 2.57124 1.69742 2.73562 1.78124C2.90279 1.85948 3.4015 2.02293 3.69248 2.06414C3.98135 2.10466 4.35627 2.26742 4.60389 2.22761C4.8508 2.18639 5.01866 1.9426 5.01866 1.9426C5.01866 1.9426 5.22641 1.53256 4.97531 1.44943C4.72909 1.3698 3.65262 0.635656 3.44138 0.512715Z" fill="white" fill-opacity="0.18"/>
</svg>
