<svg width="3" height="2" viewBox="0 0 3 2" fill="none" xmlns="http://www.w3.org/2000/svg">
<path d="M1.49171 0H0.901362C0.901362 0 0.68033 -1.53011e-06 0.49567 0.0901088C0.311711 0.182315 0.213782 0.147394 0.152928 0.303166C0.0906759 0.451953 -0.096085 0.394671 0.0619943 0.578385C0.213778 0.760701 0.213785 0.791438 0.370465 0.885739C0.527146 0.977945 0.650945 0.857103 0.868478 0.919272C1.08461 0.977948 1.05664 0.885742 1.2399 0.977948C1.42806 1.06736 1.36511 1.00938 1.55396 1.03802C1.74072 1.06736 2.4262 1.06736 2.70248 0.918568L2.58147 0.607717L2.11494 0.210254C1.7722 0.0251435 1.49171 0 1.49171 0Z" fill="white" fill-opacity="0.18"/>
</svg>
