<svg width="20" height="13" viewBox="0 0 20 13" fill="none" xmlns="http://www.w3.org/2000/svg">
<path d="M10.8879 8.65262C10.8879 8.65262 11.5104 8.41303 11.8818 8.0449C12.2574 7.67329 12.2574 7.67328 12.6911 7.05858C12.6911 7.05858 13.1891 6.81759 13.4381 6.63457C13.6893 6.44737 14.246 6.32652 14.6216 6.08064C14.9972 5.83685 15.1819 6.01917 15.433 5.89832C15.6799 5.77538 16.2388 5.40585 16.427 5.34508C16.6109 5.28501 17.0495 4.91898 17.4216 4.73247C17.7965 4.55295 17.8567 4.55296 18.3575 4.30428C18.852 4.0577 18.9807 4.18134 19.2255 3.99902C19.4745 3.81182 19.5375 3.93685 19.7235 3.50796C19.9124 3.07976 18.7296 3.1999 17.6112 2.46575C17.3503 2.29531 17.1712 2.21847 16.9264 1.54509C16.9264 1.54509 16.115 1.48571 15.9261 1.36207C15.7429 1.24122 14.8734 1.17766 14.8734 1.17766C14.8734 1.17766 14.4985 1.24123 14.2474 1.12038C14.0005 0.993948 13.4395 1.36207 13.4395 1.36207L12.6338 1.60725C12.5099 1.17766 12.6338 1.60726 11.9462 1.12038C11.7384 0.966706 11.3894 1.17765 10.8893 1.24122C10.3906 1.30269 10.5794 1.42424 10.2668 1.36207C9.95689 1.30269 9.39663 0.813031 8.7734 0.137553C8.45514 -0.210315 8.14808 0.50498 8.14808 0.50498L7.09469 0.382032C7.09469 0.382032 6.84358 0.259097 6.40991 0.137553C5.97624 0.0125159 5.78318 0.137552 5.59852 0.0125153C5.41177 -0.10833 4.41713 0.687289 4.22827 0.625818C4.04571 0.567141 3.668 0.382032 3.668 0.382032C3.668 0.382032 2.79996 0.813024 2.05153 0.750855L2.73701 1.54509L3.23363 2.21846C3.23363 2.21846 3.48474 2.71024 3.48474 2.95402C3.48474 3.19921 3.10772 3.44649 3.10772 3.44649L2.67336 4.30428C2.67336 4.30428 2.3642 4.73247 1.98858 5.22354L2.11519 5.77538C1.92633 5.59307 1.49196 6.26785 1.49196 6.26785L1.1793 6.93774L1.05339 7.73615L0 9.26664L0.372114 9.38958C0.372114 9.38958 0.808583 9.38958 1.55421 9.32811C2.05153 9.28899 1.86408 9.51391 2.42295 9.81847C2.57893 9.90229 3.23433 9.94141 3.23433 9.94141L3.5442 10.8607L4.35348 11.2295C4.35348 11.2295 4.72979 11.4747 5.03895 12.0894C5.15436 12.3122 5.78319 12.2696 5.78319 12.2696L6.34486 12.0894C6.34486 12.0894 6.59596 12.2123 6.90583 11.8414C7.21919 11.4747 7.27934 11.5361 7.96412 11.1666C7.96412 11.1666 8.58664 11.1052 8.7734 10.9843C8.96226 10.8614 9.08327 11.2302 9.64354 10.9843C9.84778 10.8921 10.0191 10.6812 10.2024 10.3109C10.3906 9.94211 10.1437 10.0678 10.3283 9.63615C10.5165 9.20516 10.3283 9.63616 10.4528 9.14858C10.5787 8.65263 10.8879 8.65262 10.8879 8.65262Z" fill="white" fill-opacity="0.18"/>
</svg>
