<svg width="128" height="140" viewBox="0 0 128 140" fill="none" xmlns="http://www.w3.org/2000/svg">
<path d="M127.009 53.3766C127.068 53.2879 127.303 53.086 127.303 53.086C127.303 53.086 127.449 51.8377 127.421 51.7232C127.391 51.6079 127.185 50.9415 127.156 50.6481C127.126 50.3597 127.1 50.477 126.863 50.301C126.631 50.1277 126.717 50.3324 126.425 50.3883C126.132 50.4435 126.279 50.5049 125.841 50.7655C125.841 50.7655 125.372 51.0582 125.136 51.0875C124.905 51.1134 124.788 51.1986 124.495 51.1986C124.203 51.1986 124.086 51.3159 123.881 51.2607C123.675 51.1986 123.211 51.5213 123.211 51.5213L122.828 51.6911C122.828 51.6911 122.566 51.8098 122.419 51.7539C122.27 51.6945 121.339 51.8384 121.218 51.8098C121.101 51.7812 120.637 51.8971 120.637 51.8971L120.371 51.983L119.904 52.0131L119.465 52.3323C119.465 52.3323 118.996 52.6215 118.909 52.5356C118.82 52.4462 118.472 52.5656 118.442 52.4755C118.412 52.3931 117.884 52.3637 117.884 52.3637C117.884 52.3637 117.535 52.3931 117.359 52.4462C117.183 52.5048 116.977 52.5663 116.977 52.5663L116.599 52.6781C116.599 52.6781 116.015 53.0001 115.898 53.0867C115.78 53.1733 115.37 53.0001 115.37 53.0001C115.37 53.0001 114.493 52.9135 114.465 52.8241C114.434 52.7395 113.703 52.4469 113.647 52.333C113.588 52.2205 113.174 51.9565 113.119 51.8699C113.063 51.7812 112.887 51.3432 112.887 51.3432L112.744 51.1818L112.564 50.9688C112.564 50.9688 112.065 50.915 111.86 50.9688C111.655 51.0274 111.598 50.8843 111.628 50.7082C111.655 50.535 112.035 50.7082 112.035 50.7082C112.035 50.7082 112.71 50.4449 112.797 50.3624C112.886 50.2758 112.825 49.9852 112.912 49.9007C113.003 49.8071 112.766 49.52 112.677 49.3454C112.589 49.1722 112.417 49.1721 112.417 49.1721C112.417 49.1721 112.065 49.1149 111.921 48.9116C111.774 48.7055 111.568 48.7055 111.451 48.5344C111.337 48.3584 111.19 48.2718 111.102 48.0992C111.013 47.926 110.896 47.7534 110.867 47.4922C110.837 47.2316 110.368 47.0277 110.368 47.0277L109.317 46.0127C109.317 46.0127 108.612 45.6341 108.465 45.4022C108.319 45.171 108.144 45.0844 108.144 45.0844C108.144 45.0844 107.796 45.0271 107.738 44.9384C107.674 44.8517 107.268 44.6778 107.268 44.6778L106.974 44.5633C106.974 44.5633 106.742 44.5311 106.682 44.3872C106.625 44.2419 106.504 44.01 106.504 43.8948C106.504 43.7788 105.981 43.5197 105.981 43.5197C105.981 43.5197 105.981 43.5196 105.95 43.4603C105.92 43.4016 105.512 43.3443 105.424 43.3129C105.337 43.2877 105.163 42.6779 105.104 42.562C105.043 42.4467 104.429 40.6731 104.4 40.3281C104.373 39.9802 104.282 39.7483 104.167 39.3711C104.068 39.0463 103.881 38.9771 103.812 38.8933C103.801 38.8807 103.793 38.8647 103.789 38.8493C103.76 38.7333 103.377 38.5566 103.348 38.47C103.32 38.3876 102.5 37.8637 102.38 37.6324C102.267 37.4019 101.887 37.1665 101.8 37.1113C101.711 37.0513 101.504 36.906 101.477 36.7607C101.448 36.6161 101.333 36.1222 101.333 35.9203C101.333 35.7185 101.213 35.3413 101.213 35.1087C101.213 34.8774 101.011 34.2662 101.04 34.0357C101.066 33.8073 101.333 33.3421 101.333 33.3421C101.333 33.3421 100.714 31.8905 100.714 31.7753C100.714 31.66 100.569 31.5126 100.426 31.1934C100.28 30.8756 100.164 30.7848 100.133 30.6409C100.104 30.4984 99.7513 30.4697 99.6352 30.3831C99.5191 30.2965 99.4604 30.0324 99.3995 29.8299C99.3442 29.628 99.0476 29.6573 98.9616 29.5134C98.8742 29.3653 98.5503 29.3961 98.407 29.2501C98.3832 29.2256 98.3636 29.2005 98.3405 29.1704C98.2342 29.0356 98.1614 28.8715 98.1139 28.7269C98.0551 28.5537 97.9992 28.2344 97.9992 28.0905C97.9992 27.9445 98.3167 27.7133 98.3167 27.7133C98.3167 27.7133 98.3167 27.3913 98.2908 27.3068C98.2615 27.2222 98.2615 27.1943 98.2615 27.0476C98.2615 26.8981 97.7935 26.5251 97.7935 26.5251C97.7935 26.5251 97.527 26.2031 97.527 26.0313C97.527 25.8545 97.0024 25.5388 97.0024 25.3635C97.0024 25.1902 96.624 24.841 96.5639 24.7257C96.503 24.6111 96.3016 24.2619 96.3016 24.1753C96.3016 24.0865 95.5111 22.3493 95.4552 22.0902C95.3943 21.8275 95.3671 21.8568 95.3062 21.7102C95.2502 21.5635 95.0733 21.4154 95.0733 21.2757C95.0733 21.1311 94.8677 20.9851 94.8096 20.867C94.7508 20.7532 94.6046 20.5513 94.5193 20.3466C94.4284 20.1406 94.399 20.1713 94.399 20.0854C94.399 20.0009 94.313 19.7382 94.2535 19.507C94.1926 19.2744 93.9045 18.8685 93.8436 18.6953C93.7877 18.5214 93.6114 18.4634 93.5212 18.346C93.4358 18.2301 92.9672 17.8815 92.9672 17.8815L92.7315 16.9545C92.7315 16.9545 92.6147 15.8809 92.672 15.9969C92.7315 16.1128 92.7315 16.49 92.7315 16.49C92.7315 16.49 93.1428 16.9804 93.2295 17.0405C93.3155 17.0999 93.4911 17.3897 93.6121 17.3311C93.7268 17.2731 93.6995 17.6796 93.7877 17.6796C93.8737 17.6796 94.1073 18.4033 94.1927 18.5214C94.2808 18.6373 94.3382 18.8392 94.3382 18.8392C94.3382 18.8392 94.7207 19.2744 94.8089 19.3344C94.8963 19.3896 95.246 19.9135 95.246 19.9135L95.9483 19.7103C95.9483 19.479 96.0952 19.157 96.0952 18.9838C96.0952 18.8099 96.2715 18.3747 96.2715 18.3747L96.4617 17.7306C96.4617 17.7306 96.4583 17.7355 96.4541 17.7355C96.4576 17.7355 96.4575 17.7306 96.4575 17.7306L96.6233 17.1865L96.7107 17.4205C96.7107 17.4205 96.6995 17.4757 96.6863 17.5511C97.2584 16.9085 96.8562 15.4129 96.6373 14.7444C96.4582 14.2247 96.0826 13.7874 95.9595 13.2803C95.8672 12.8828 95.9406 12.7802 95.621 12.4672C95.551 12.5406 95.4643 12.616 95.3671 12.6928C94.9866 12.9792 95.1628 12.8947 95.0733 12.9499C94.9859 13.01 93.5219 12.9792 93.0252 13.0393C92.53 13.0966 92.5601 13.0631 92.4412 12.8947C92.3237 12.7166 92.0922 12.8102 91.9754 12.5755C91.8544 12.3443 91.6529 12.491 91.5634 12.4001C91.476 12.3156 91.0087 12.2821 90.9807 12.1955C90.952 12.113 89.4314 12.1689 89.0201 12.2821C88.6123 12.4001 88.727 12.4602 88.727 12.4602C88.727 12.4602 88.1129 12.8367 87.7646 13.0973C87.412 13.3585 87.1476 13.5325 86.9154 13.5604C86.6839 13.5918 86.6839 13.647 86.5965 13.5604C86.5055 13.4738 86.3314 13.5318 86.1551 13.3858C85.9795 13.2405 85.8074 13.2985 85.5102 13.2118C85.2227 13.1252 84.9268 13.156 84.8114 13.0966C84.6904 13.0393 84.3456 12.9785 84.2253 12.9492C84.1064 12.9213 83.6111 12.894 83.6111 12.894C83.6111 12.894 82.0905 12.3701 82.0031 12.3149C81.9149 12.2548 80.7153 12.1124 80.7153 12.1124C80.7153 12.1124 80.2187 12.1675 80.1313 12.1124C80.0424 12.0523 79.7494 12.1948 79.3416 11.9349C79.2751 11.8965 79.2129 11.8553 79.143 11.8064C79.0338 11.7323 78.9135 11.6332 78.7869 11.4725C78.5827 11.2133 78.7268 11.3572 78.6407 11.2133C78.5519 11.0687 78.4645 11.1239 78.2029 11.0687C77.9399 11.0094 77.6748 11.1239 77.5293 11.1533C77.3824 11.1826 76.9452 11.1533 76.9452 11.1533C76.9452 11.1533 75.6596 10.98 75.5134 10.8669C75.3658 10.7432 75.2784 10.8669 75.2483 10.6881C75.2183 10.519 74.9252 10.4911 74.8993 10.2836C74.8699 10.0817 74.6643 10.0503 74.4579 9.84842C74.2558 9.64445 74.1089 9.81907 74.0179 9.73455C73.9333 9.64444 73.6661 9.7597 73.4339 9.56132C73.2024 9.35526 73.1149 9.44186 72.996 9.38807C72.8764 9.328 72.2658 9.53127 71.8881 9.58995C71.5041 9.64374 71.6817 9.70383 71.5901 9.81839C71.5034 9.93574 70.8899 10.2256 70.7137 10.1404C70.5374 10.0496 70.3325 10.3961 70.1296 10.4904C69.9233 10.5742 69.7477 10.8075 69.5456 10.98C69.3399 11.1533 69.2231 11.6178 69.2231 11.6178C69.2231 11.6178 69.4896 12.2255 69.5155 12.3149C69.5456 12.3994 69.6917 12.9213 69.7211 13.0093C69.7477 13.0966 69.3099 13.9383 69.3099 13.9383L68.5495 14.2841C68.5495 14.2841 68.055 14.5181 67.8781 14.5453C67.7018 14.5747 67.4703 14.5747 67.3793 14.6613C67.2905 14.7472 66.9415 14.2841 66.7659 14.1402C66.5903 13.9935 66.3287 13.8489 66.1811 13.7343C66.035 13.6177 65.7992 13.6757 65.5971 13.4444C65.3915 13.2118 64.9228 13.2398 64.8368 13.156C64.7465 13.063 64.3087 13.0393 64.3087 13.0393C64.3087 13.0393 63.0238 12.8102 62.9944 12.6921C62.9657 12.5748 62.4957 12.8095 62.2019 12.8095C61.9123 12.8095 61.9417 12.836 61.8822 12.6328C61.8249 12.4288 61.5038 12.5461 61.2968 12.4895C61.0904 12.4288 61.2408 12.1948 61.2072 11.9077C61.1821 11.6171 60.8883 11.4446 60.7414 11.1239C60.5973 10.8068 60.626 10.7754 60.5672 10.6601C60.5099 10.5442 60.391 10.3954 60.2441 10.3423C60.0979 10.2829 59.7195 10.4282 59.5404 10.3954C59.367 10.3674 58.345 9.64305 58.345 9.64305L57.1755 9.41184C57.1755 9.41184 56.0935 9.64305 56.0032 9.53058C55.9179 9.41183 55.5954 9.58995 55.3639 9.58995C55.1268 9.58995 55.0114 9.49984 55.0114 9.49984C55.0114 9.49984 54.719 9.35526 54.5721 9.18622C54.4259 9.01089 54.2483 9.03742 54.0734 8.9529C53.958 8.89353 53.7859 8.81179 53.6306 8.72028C53.5432 8.67418 53.4635 8.6239 53.404 8.57151C53.2284 8.42901 53.0515 8.25578 52.9605 8.13842C52.8759 8.02247 52.7584 7.73187 52.6402 7.61662C52.5227 7.50136 52.1415 7.58658 52.1415 7.58658C52.1415 7.58658 51.9981 7.88135 51.8239 7.81709C51.649 7.7619 51.5014 7.73257 51.3252 7.50135C51.1517 7.26665 51.0321 7.29669 50.9167 7.06897C50.8006 6.83147 50.9734 6.95092 51.1196 6.80423C51.2657 6.65754 51.3546 6.54298 51.4105 6.40118C51.4714 6.25379 51.8834 6.16785 51.9386 6.07914C51.9981 5.99532 52.2905 5.85004 52.4667 5.67541C52.6395 5.50217 52.7283 5.23811 52.8185 5.06488C52.9046 4.89304 52.8745 4.86302 52.8745 4.66044C52.8745 4.45857 52.8745 4.31466 52.8745 4.22525C52.8745 4.13653 52.2898 3.26826 52.1443 3.12367C51.9974 2.97907 51.8232 2.86381 51.8232 2.65914C51.8232 2.45447 51.9379 2.48381 52.0289 2.28263C52.1135 2.07936 52.231 2.04934 52.345 1.79088C52.466 1.52614 52.6975 1.44091 52.7885 0.976385C52.7885 0.976385 52.5213 0.772429 52.4317 0.803863C52.3443 0.832502 51.882 1.32775 51.5287 1.38293C51.1769 1.44091 51.5287 1.38293 51.5 1.17826C51.47 0.975687 51.4091 0.689287 51.3832 0.485316C51.3532 0.27925 51.0307 0.341419 50.7663 0.106015C50.5061 -0.127294 50.4166 0.106026 50.3299 0.0473494C50.241 -0.00783449 49.8325 0.308592 49.7416 0.341423C49.657 0.367269 49.3933 0.57195 49.3933 0.57195C49.3933 0.57195 48.2475 0.99315 47.8363 1.08186C47.7628 1.09514 47.7138 1.10213 47.6964 1.09235C47.5823 1.03507 47.1969 1.26488 47.0535 1.15102C46.9074 1.03506 46.701 1.17897 46.4996 0.833195C46.2946 0.486026 46.1505 0.85974 46.0904 0.773123C46.0302 0.690696 45.8533 0.918416 45.7686 0.833195C45.6784 0.751467 45.244 1.00643 45.1237 0.917719C45.0083 0.833197 44.8614 0.948453 44.7747 0.833195C44.6859 0.719335 44.2774 0.690688 44.1578 0.690688C44.0424 0.690688 43.8087 0.85974 43.694 0.890475C43.5737 0.917718 43.2806 1.2083 43.2806 1.2083C43.2806 1.2083 42.5203 1.73219 42.1125 1.67421C42.0202 1.66234 41.7341 1.41297 41.7341 1.41297L41.4991 1.12448L39.8875 0.977792C39.8875 0.977792 39.1902 1.12448 39.1006 1.0672C39.0139 1.00712 38.5459 1.09374 38.22 1.12448C37.901 1.15172 38.0479 1.23834 37.929 1.17967C37.8122 1.12448 37.5233 1.44231 37.3177 1.47165C37.112 1.50099 36.5539 1.79156 36.4112 1.79156C36.2664 1.79156 34.9157 1.93617 34.5093 1.874C34.1008 1.81881 33.9246 2.19602 33.7777 2.16669C33.6308 2.13805 33.5133 2.42654 33.3699 2.51316C33.2195 2.59978 33.0174 2.7758 32.8712 2.83098C32.7264 2.88966 32.257 3.2969 32.1109 3.26756C31.9647 3.24102 31.994 3.03426 31.994 3.03426C31.994 3.03426 30.5909 3.52881 30.5035 3.49877C30.4175 3.46943 30.2419 3.76004 30.1216 3.82081C30.0069 3.87879 29.8005 4.07857 29.7131 4.16658C29.6257 4.25599 29.3319 4.60734 29.3319 4.60734L28.8975 4.95311C28.8975 4.95311 28.6009 5.09492 28.5114 5.03554C28.424 4.97757 28.2225 5.09492 27.9861 5.0083C27.7532 4.91959 27.6937 5.09491 27.6343 4.89304C27.579 4.68976 27.3762 4.7757 27.3153 4.66044C27.2566 4.54239 26.818 4.83368 26.7012 4.66044C26.5837 4.48441 26.6396 4.54238 26.4655 4.3426C26.2927 4.13653 26.143 4.39988 25.9968 4.36984C25.8506 4.3426 25.5597 4.45857 25.5597 4.45857L25.2365 4.60734C25.2365 4.60734 24.5923 4.71561 24.4461 4.71561C24.2999 4.71561 23.8369 4.60734 23.8369 4.4844C23.8369 4.36984 23.1325 4.54239 23.0752 4.31467C23.015 4.07857 22.1085 3.99194 22.1085 3.78517C22.1085 3.58679 21.8763 3.61613 21.8469 3.4401C21.8168 3.26687 21.465 3.26687 21.465 3.18165C21.465 3.09503 21.2887 3.35419 21.202 3.41427C21.1118 3.46945 20.9992 3.67341 20.8495 3.93397C20.7082 4.19661 20.8236 4.19661 20.7606 4.39988C20.7082 4.60734 20.2654 5.47283 20.2654 5.47283C20.2654 5.47283 20.1507 5.73059 20.0891 5.85004C20.0332 5.9639 19.9171 6.22515 19.887 6.31387C19.8583 6.40118 19.7114 6.7183 19.6261 6.74554C19.5359 6.77837 19.2743 7.21216 19.1533 7.15418C19.0385 7.0941 18.7154 7.58797 18.7154 7.58797L17.839 7.90999C17.839 7.90999 17.1948 8.1978 17.108 8.11397C17.0227 8.02456 16.696 8.34239 16.6107 8.34239C16.524 8.34239 16.2924 8.72099 15.9693 9.01297C15.6468 9.30007 15.5874 9.47471 15.4153 9.61651C15.2355 9.7653 15.0334 10.1425 14.9739 10.2277C14.9159 10.3136 14.5948 10.8089 14.5053 10.9235C14.4179 11.0366 14.4452 11.388 14.4452 11.388C14.4452 11.388 13.98 13.5932 13.9499 13.7951C13.9199 13.9956 13.9499 14.2855 14.0667 14.2855C14.1835 14.2855 14.1003 14.8681 14.1262 15.012C14.1528 15.1559 14.0667 15.2404 13.98 15.3598C13.8947 15.4765 13.6848 15.8537 13.5974 15.9382C13.5093 16.0269 13.3071 16.3748 13.1896 16.4614C13.0735 16.548 13.0141 16.6947 12.8084 16.9231C12.6063 17.1592 12.4293 17.1278 12.2237 17.2165C12.0215 17.3031 11.962 17.505 11.962 17.505L11.7284 17.8522C11.7284 17.8522 11.4934 18.1428 11.3472 18.2308C11.1996 18.3195 10.9947 18.5221 10.7919 18.6639C10.5869 18.8106 10.2344 18.9838 10.1176 18.9537C10.0028 18.9293 8.21852 19.6229 8.07233 19.6523C7.92754 19.6795 7.60507 20.1412 7.45818 20.318L7.46798 20.3347C7.31899 20.508 7.20218 21.2896 7.20218 21.2896L6.91051 21.7828C6.91051 21.7828 6.35653 22.3046 6.26769 22.3339C6.18026 22.3626 5.65216 22.7112 5.65216 22.7112C5.65216 22.7112 5.18562 23.2036 5.06741 23.2351C4.9506 23.2644 4.92053 23.9014 4.92053 23.9014C4.92053 23.9014 4.74497 24.5092 4.68901 24.5958C4.62815 24.6831 4.33648 25.3767 4.33648 25.3767C4.33648 25.3767 3.86784 25.9279 3.81258 26.0173C3.75243 26.1032 3.46004 26.4539 3.37401 26.5412C3.28378 26.625 3.08094 26.8297 2.93475 26.9449C2.78996 27.0609 2.66965 27.4088 2.58431 27.5555C2.49478 27.7007 2.52345 27.8132 2.46819 28.0759C2.40314 28.3371 2.3479 28.6549 2.26186 28.8331C2.17163 29.0028 1.79252 29.9877 1.47217 30.2525C1.14971 30.5137 0.976936 30.7163 0.883208 30.8888C0.797873 31.0614 0.651689 31.266 0.651689 31.4127C0.651689 31.5266 0.521593 31.9722 0.381 32.3858C0.376104 32.3858 0.370498 32.3858 0.370498 32.3858C0.332727 32.4857 0.296364 32.5828 0.266287 32.6708C0.0872236 33.1388 0.207516 33.4245 0.29425 33.4538C0.379585 33.4832 0.409667 33.5132 0.702044 33.3071C0.996519 33.1046 1.37493 34.0623 1.49244 34.0623C1.60925 34.0623 2.07931 35.2791 2.10589 35.3643C2.13526 35.4572 1.89954 35.7715 1.69809 35.9175C1.49245 36.06 1.54839 36.3821 1.54839 36.3821C1.54839 36.3821 1.69809 36.7299 1.8149 36.8166C1.93031 36.9032 2.02054 37.2524 2.02054 37.2524L2.22269 38.0355C2.22269 38.0355 2.45841 38.9338 2.45841 39.0225C2.45841 39.107 2.16672 39.5709 2.16672 39.5709C2.16672 39.5709 1.72747 40.0354 1.69809 40.6452C1.66801 41.2536 1.66802 41.4848 1.58058 41.5456C1.54421 41.5666 1.51064 41.6567 1.48126 41.7531C1.43509 41.8991 1.40642 42.0674 1.40642 42.0674C1.40642 42.0674 1.28961 42.907 1.08397 43.0516C0.876925 43.1976 0.996523 43.5176 0.937768 43.6035C0.876915 43.6901 0.410366 44.1812 0.207521 44.3258C0.000479389 44.4745 -0.0582648 44.8497 0.0613439 44.8762C0.177455 44.909 0.294961 45.4001 0.410372 45.4881C0.526484 45.5754 0.526483 45.9512 0.702749 45.924C0.876916 45.8933 1.2903 46.5303 1.2903 46.5303C1.2903 46.5303 1.26023 47.2295 1.34556 47.1995C1.43439 47.1723 1.26023 47.3162 1.11334 47.4901C0.96785 47.6633 0.93706 47.8072 0.876206 47.9847C0.819549 48.1579 0.967845 48.3891 0.967845 48.3891L1.02311 49.0241C1.02311 49.0241 0.967852 49.2853 1.02311 49.344C1.04339 49.3629 1.06718 49.4082 1.09586 49.4634C1.15881 49.5836 1.22876 49.7498 1.22876 49.7498C1.22876 49.7498 1.52112 49.8672 1.63723 49.8672C1.75684 49.8672 1.6673 50.1263 1.75684 50.2444C1.84357 50.3597 2.0793 50.4756 2.19261 50.4169C2.31152 50.3597 2.42763 50.4756 2.57452 50.331C2.7214 50.185 3.04175 50.4169 3.18864 50.3869C3.33413 50.3597 3.62722 50.6775 3.62722 50.6775V51.1678C3.62722 51.1678 3.62722 51.4871 3.62722 51.5786C3.62722 51.6631 3.7727 51.8671 3.85944 51.8377C3.93148 51.8133 4.06859 52.0501 4.29801 52.2617C4.34488 52.3072 4.39173 52.3505 4.44769 52.391C4.44769 52.391 4.62045 52.7954 4.76874 52.9114C4.91492 53.0238 5.11637 53.3459 5.26676 53.4318C5.41435 53.5198 5.70672 53.663 5.70672 53.663C5.70672 53.663 6.43207 54.3322 7.13643 55.3437C7.37705 55.6908 7.46868 55.8627 7.49876 55.9437C7.50646 55.9619 7.51274 55.9786 7.51274 55.9891C7.65543 56.1016 7.85129 56.4334 7.95341 56.5347C8.07232 56.6527 8.36609 57.3477 8.36609 57.4916C8.36609 57.6362 8.30803 58.0449 8.30803 58.0449L8.4829 58.3906C8.4829 58.3906 8.86342 58.42 9.00961 58.42C9.1523 58.42 9.12642 58.7106 9.21176 58.7399C9.30199 58.7692 9.8014 59.0577 9.88674 59.0878C9.97417 59.1171 10.1497 59.6662 10.4113 59.8408C10.4484 59.8694 10.4953 59.889 10.5379 59.912C10.8268 60.0587 11.2626 60.1887 11.2626 60.1887C11.2626 60.1887 12.1082 60.4513 12.3754 60.8285C12.6335 61.2036 12.9861 61.4956 13.1616 61.6353C13.3379 61.7883 13.6289 62.0475 13.7163 62.2165C13.8052 62.3911 14.2444 62.5092 14.2444 62.5092C14.2444 62.5092 14.7124 62.7991 14.7417 62.9157C14.7718 63.0345 15.1194 63.2364 15.2076 63.2908C15.2971 63.3495 15.7357 63.7002 15.8245 63.7575C15.9119 63.814 16.496 63.93 16.645 64.0166C16.7877 64.1067 17.4626 64.3931 17.6095 64.4225C17.7543 64.4518 18.3083 64.5126 18.3083 64.5126C18.3398 64.4951 18.3664 64.4832 18.3922 64.4693C19.0637 64.1521 19.3757 64.0355 19.6842 63.6995C20.0073 63.3481 20.0073 63.6108 20.213 63.492C20.4144 63.3788 20.853 63.4082 21.2342 63.1434C21.6147 62.8843 21.8196 63.0862 22.347 62.8843C22.8723 62.6817 23.1682 62.943 23.4263 62.8284C23.6935 62.7111 24.891 62.8284 25.3288 62.7404C25.7653 62.6524 25.9702 62.7404 26.1808 62.797C26.257 62.82 26.3822 62.8466 26.5361 62.878C26.7712 62.9255 27.0796 62.9751 27.4356 63.0324C28.0197 63.1162 27.9896 63.6359 28.1358 63.8119C28.2827 63.9873 28.4568 63.7826 28.4568 63.7826C28.4568 63.7826 29.0122 63.3782 29.4508 63.2049C29.8887 63.0317 30.1852 62.9423 30.4762 62.6803C30.7693 62.4177 30.7987 62.389 30.9448 62.3339C31.0896 62.2745 31.1771 62.389 31.6443 62.2745C32.1137 62.1585 32.1137 62.2451 32.3459 62.1585C32.5459 62.0817 32.7439 61.9874 32.9244 61.8561C32.9565 61.8295 32.9908 61.8044 33.0195 61.7855C33.2223 61.6074 33.3426 61.4935 33.6042 61.4935C33.8658 61.4935 34.3058 61.2889 34.6017 61.1422C34.8695 61.0108 34.943 61.0004 35.1983 60.9347C35.2228 60.9277 35.2452 60.9179 35.271 60.9103C35.5935 60.8264 35.6788 60.7705 35.6788 60.7705C35.6788 60.7705 36.8819 60.7112 37.2862 60.3891C37.6982 60.0734 37.7856 60.5379 37.7856 60.5379C37.7856 60.5379 37.8745 60.5212 38.0206 60.5044C38.1766 60.4869 38.4026 60.4611 38.66 60.4492C39.1594 60.4199 39.542 60.2725 40.0106 60.4199C40.4772 60.5624 40.4184 60.9396 40.715 61.0004C41.006 61.0576 41.0913 61.5529 41.5306 61.4607C41.9677 61.3755 41.8824 62.0698 42.0845 62.1313C42.2909 62.19 42.0545 62.7103 42.1146 63.0002C42.172 63.288 42.3468 63.6638 42.6693 63.8112C42.9917 63.9551 43.138 64.2744 43.2569 64.1591C43.3744 64.0453 44.7145 64.0725 45.0671 64.1885C45.4189 64.3058 45.712 64.2436 45.9183 64.1619C46.1205 64.0725 46.5583 63.9272 46.7934 63.8112C47.0298 63.6974 47.6138 63.4662 47.9062 63.3774C48.1986 63.288 47.8761 63.5214 47.8202 63.8371C47.7992 63.9307 47.8062 64.0103 47.8237 64.0865C47.8698 64.28 48.0076 64.4232 48.1083 64.5105C48.2545 64.6229 48.4308 64.9701 48.5777 64.9995C48.7232 65.0302 49.0155 64.7962 49.2485 64.7123C49.4842 64.6229 49.6003 65.2334 49.7192 65.2621C49.836 65.2914 50.0976 66.2749 50.2438 66.3644C50.39 66.451 50.2438 67.6392 50.3641 67.6392C50.4599 67.6392 50.1165 68.1603 49.9423 68.4076C49.9081 68.4509 49.8815 68.4886 49.8661 68.5096C49.7458 68.6555 49.6605 68.9426 49.7458 69.2046C49.8367 69.4665 49.7759 69.7264 49.8074 70.163C49.8367 70.5989 49.7199 70.7435 49.7759 71.3246C49.8367 71.9037 49.3422 71.9624 49.103 72.1922C48.8687 72.4241 48.8687 73.0898 48.9009 73.4677C48.9295 73.847 48.8694 74.4268 48.9295 74.6287C48.989 74.8305 49.3975 75.8162 49.629 75.8162C49.8668 75.8162 50.0424 76.6579 50.1858 76.5713C50.334 76.4833 51.3875 77.8175 52.1177 78.8925C52.4157 79.3256 52.6024 79.6092 52.7423 79.7915C52.9409 80.0625 53.0319 80.1212 53.1676 80.138C53.4068 80.168 53.8139 81.0677 54.3392 81.4729C54.3623 81.491 54.3833 81.5078 54.4021 81.5274C54.8603 81.9507 54.8393 82.7253 54.8393 82.865C54.8393 82.9251 54.8393 83.0571 54.8393 83.2129C54.8393 83.4371 54.8463 83.6984 54.8673 83.8234C54.8967 84.026 55.1862 84.4849 55.422 84.807C55.6542 85.1269 55.8626 85.8547 56.1823 86.1963C56.5012 86.5477 56.5012 87.0108 56.8524 87.3286C57.2049 87.6507 56.7404 87.9957 56.6495 88.2549C56.5635 88.5162 56.1228 88.9227 56.0955 89.0386C56.0655 89.1581 56.4145 89.8217 56.7404 90.4043C57.0587 90.9833 57.2042 91.8209 57.5267 92.2596C57.8491 92.6927 57.5875 93.0992 57.6176 93.2431C57.6428 93.3919 57.7022 93.7635 57.7302 93.9696C57.7624 94.1742 57.5267 94.8113 57.5267 94.8113C57.5267 94.8113 57.235 95.2437 57.144 95.361C57.0587 95.4777 56.7069 95.6509 56.4467 95.7948C56.1816 95.9394 55.92 96.2293 55.7423 96.494C55.5646 96.7518 55.3912 97.1891 55.4765 97.3924C55.564 97.5956 55.1597 98.0273 55.0722 98.0553C54.9813 98.0867 54.7197 99.1016 54.7456 99.3329C54.7757 99.5648 54.6288 100.319 54.6288 100.407C54.6288 100.495 54.3084 101.251 54.249 101.331C54.1916 101.422 54.1056 101.711 54.0468 101.973C53.986 102.235 53.8125 102.755 53.8125 102.755V104.089C53.8125 104.089 53.8027 104.181 53.7908 104.327C53.7467 104.868 53.6705 106.188 53.8999 106.554C54.1916 107.022 54.0748 107.078 54.1916 107.221C54.3084 107.369 54.4847 107.626 54.7456 107.657C55.0121 107.687 55.0393 108.15 55.1848 108.236C55.3303 108.323 55.6822 108.931 55.8291 108.963C55.9753 108.991 56.0641 109.857 56.0641 109.857C56.0641 109.857 56.3572 110.583 56.474 110.554C56.5887 110.528 56.9965 111.83 56.9965 111.83L57.2028 112.44C57.2028 112.44 57.4077 112.529 57.4952 112.675C57.5861 112.819 57.6155 113.019 57.7876 113.076C57.9617 113.134 57.9617 113.337 58.4318 113.749C58.9004 114.149 58.7829 114.411 58.8696 114.556C58.9599 114.702 59.0165 115.109 59.0165 115.282C59.0165 115.455 59.076 116.034 59.076 116.034C59.076 116.034 58.699 117.255 58.6381 117.368C58.5787 117.487 58.699 117.744 58.8396 117.921C58.9899 118.093 59.0165 118.388 59.1627 118.47C59.3089 118.559 59.3089 119.052 59.4278 119.021C59.5411 118.994 59.5152 119.833 59.6027 120.214C59.6915 120.589 59.4852 120.735 59.4558 120.82C59.4278 120.911 59.3684 121.053 59.4558 121.344C59.5418 121.633 59.5705 121.663 59.8377 122.676C60.0993 123.691 60.0692 123.489 60.2455 123.605C60.4217 123.724 60.3917 124.417 60.5113 124.358C60.6274 124.303 61.4437 125.836 61.8557 126.45C62.218 126.985 62.2586 126.956 62.4047 127.083C62.4236 127.101 62.4488 127.12 62.4705 127.144C62.6726 127.346 62.8496 127.694 63.0259 127.926C63.2014 128.157 63.4036 128.45 63.6386 128.45C63.8708 128.45 63.7855 129.056 63.7855 129.259C63.7855 129.463 63.9876 129.958 64.017 130.071C64.0485 130.188 64.1674 130.766 64.1345 130.912C64.1044 131.059 64.3695 131.406 64.6633 131.726C64.9536 132.045 65.1298 132.103 65.2732 132.245C65.4229 132.39 65.4789 132.969 65.5698 133.031C65.6587 133.087 65.9776 133.464 66.0077 133.584C66.0371 133.696 66.0371 134.711 65.9217 135.031C65.8014 135.347 65.9216 135.031 65.5383 135.347C65.1585 135.67 65.1305 135.551 65.1305 135.551L65.2215 135.929C65.2215 135.929 65.3936 136.479 65.5705 136.393C65.7447 136.303 65.9783 137.208 66.0371 137.351C66.093 137.496 66.0671 137.582 66.0671 137.582C66.0671 137.582 66.0671 137.929 66.0371 138.162C66.0077 138.398 66.3308 138.307 66.3896 138.222C66.4455 138.133 66.7414 138.338 66.8275 138.421C66.9149 138.509 67.1198 138.627 67.2667 138.627C67.4115 138.627 67.4115 138.975 67.4115 138.975C67.4115 138.975 67.615 139.236 67.7046 139.206C67.792 139.18 67.9662 139.497 68.3495 139.324C68.7279 139.148 68.8426 139.469 69.4588 139.644C69.6477 139.696 69.8666 139.379 70.017 139.235C70.1597 139.092 70.308 139.061 70.308 139.061L70.9515 138.859C70.9515 138.859 71.2446 138.829 71.8867 138.859C72.5295 138.889 72.1476 138.627 72.3833 138.509C72.6169 138.399 72.647 138.742 72.9674 138.569C73.2905 138.399 72.9674 138.569 73.3773 138.335C73.5256 138.256 73.4948 138.162 73.7277 137.96C73.9648 137.758 73.8753 138.019 74.2579 137.875C74.2579 137.875 74.4321 137.93 74.8405 138.133C74.8405 138.133 75.1329 138.163 75.3952 138.078C75.6617 137.99 75.5729 138.103 75.6883 137.99C75.8086 137.875 75.8645 138.019 76.0107 137.99C76.1576 137.96 76.2723 138.133 76.4801 138.103C76.685 138.078 76.8298 138.163 77.1222 138.336C77.1222 138.336 77.8797 138.627 78.205 138.483C78.2875 138.443 78.3784 138.281 78.4379 138.103C78.4967 137.93 78.7289 138.048 78.789 137.961C78.8499 137.876 79.1423 138.134 79.1423 138.134L79.4927 138.194C79.4927 138.194 79.6969 138.048 79.8417 137.93C79.9879 137.813 79.9879 137.786 80.2782 137.41C80.3544 137.314 80.6895 137.497 80.9511 137.466H81.3344C81.3344 137.466 81.6261 137.498 81.8317 137.352C82.0366 137.209 82.0625 137.352 82.271 137.178C82.4724 137.005 82.5619 137.062 82.7081 136.976C82.8536 136.887 83.1159 136.627 83.1159 136.627C83.1159 136.627 83.5846 136.305 84.0224 135.958C84.1399 135.869 84.2847 135.728 84.6366 135.379C84.9849 135.032 84.8429 135.236 84.9849 135.001C85.1346 134.774 85.1346 134.918 85.2255 134.745C85.3115 134.569 85.4843 134.509 85.6899 134.252C85.8956 133.99 85.955 134.045 86.3034 133.756C86.6524 133.466 86.6524 133.495 86.8021 133.262C86.9483 133.033 87.2414 132.917 87.6785 132.393C88.1164 131.872 87.6785 132.393 87.6785 132.308C87.6785 132.22 88.1479 132.016 88.2367 131.959C88.322 131.901 88.6445 131.379 88.7305 131.206C88.8179 131.033 88.762 131.061 88.8466 130.855C88.9376 130.654 89.1691 130.424 89.288 130.191C89.4041 129.96 89.607 129.869 89.6678 129.756C89.7266 129.642 89.9336 129.493 89.9336 129.493C89.9336 129.493 90.1651 129.205 90.191 129.087C90.226 128.972 90.603 128.568 90.6897 128.421C90.7807 128.277 90.8667 128.217 90.9254 128.105C90.9835 127.986 91.1591 127.986 91.2479 127.871C91.3353 127.753 91.7725 127.349 91.832 127.234C91.8893 127.116 92.0635 126.941 92.2419 126.594C92.416 126.246 92.3272 126.335 92.416 126.073C92.5035 125.811 92.5923 125.725 92.6797 125.554C92.7685 125.379 92.9714 125.089 93.0022 124.857C93.0287 124.623 92.9147 124.536 93.0581 124.188C93.1469 123.978 93.205 123.851 93.2274 123.74C93.2435 123.668 93.2463 123.6 93.2344 123.519C93.2092 123.319 93.2938 123.233 93.2645 123.028C93.2344 122.829 93.4107 122.854 93.5261 122.706C93.6464 122.566 93.5261 122.448 93.4701 122.244C93.4113 122.043 93.2645 121.867 93.2645 121.867C93.2645 121.867 93.1225 122.101 92.9154 121.898C92.7105 121.696 92.9154 121.898 92.7105 121.696C92.5048 121.492 92.7105 121.696 92.7364 121.26C92.77 120.824 92.8567 121.146 93.0294 120.915C93.2092 120.679 93.2092 120.795 93.3554 120.593C93.4995 120.391 93.617 120.417 93.9094 120.186C94.2011 119.953 94.3172 120.042 94.5788 119.867C94.8446 119.692 95.0481 119.751 95.1964 119.692C95.3426 119.636 95.984 119.402 95.984 119.402C95.984 119.402 96.4219 119.402 96.5107 119.288C96.5981 119.172 97.0374 118.941 97.1262 118.881C97.2116 118.826 97.6515 118.677 97.6515 118.677C97.6515 118.677 97.8579 118.097 97.8264 117.866C97.7984 117.637 97.8865 117.693 97.9726 117.26C98.0642 116.825 98.0041 117.113 98.0306 116.791C98.0642 116.475 98.1187 116.302 98.1187 116.302C98.1187 116.302 98.2356 116.068 98.2356 115.837C98.2356 115.607 98.2097 115.315 98.2356 115.229C98.2657 115.142 98.1481 115.027 98.1782 114.707C98.2097 114.388 97.9166 114.476 97.9432 114.212C97.9726 113.952 97.9432 114.1 98.004 113.863C98.0642 113.635 97.9166 113.69 97.8264 113.491C97.7411 113.287 97.6816 113.259 97.5648 113.055C97.4459 112.853 97.3892 112.879 97.3892 112.68C97.3892 112.474 97.4767 112.414 97.506 112.098C97.5361 111.776 97.506 111.834 97.506 111.603C97.506 111.371 97.4186 111.371 97.241 111.169C97.0675 110.966 97.0395 111.083 96.7457 110.732C96.452 110.386 96.7457 110.618 96.7164 110.357C96.6905 110.096 96.7758 110.212 96.7758 110.096C96.7758 109.981 96.8017 109.893 96.6904 109.693C96.5694 109.485 96.5995 109.257 96.5995 109.257C96.7163 109.199 96.8611 109.572 96.8611 109.572C96.8611 109.572 97.0668 109.572 97.241 109.257C97.4193 108.936 97.5361 108.996 97.7417 108.764C97.9439 108.532 97.9733 108.795 98.0901 108.675C98.2104 108.561 98.2964 108.588 98.4126 108.443C98.528 108.3 98.7651 108.211 99.056 107.893C99.3491 107.574 99.2883 107.72 99.4086 107.603C99.5247 107.485 99.731 107.168 99.7569 107.083C99.7863 106.994 99.8772 106.821 99.8772 106.821C99.8772 106.821 100.139 106.647 100.432 106.386C100.724 106.123 100.781 106.037 100.987 105.804C101.192 105.573 101.192 105.63 101.366 105.486C101.545 105.342 101.545 105.457 101.806 105.311C102.068 105.168 102.13 105.197 102.302 105.109C102.482 105.023 102.537 105.054 102.772 104.851C103.006 104.644 103.177 104.673 103.646 104.443C103.73 104.402 104.407 104.065 104.407 104.065C104.407 104.065 104.964 103.808 105.111 103.863C105.257 103.922 106.193 102.788 106.778 102.239C107.362 101.686 107.04 101.978 107.157 101.774C107.275 101.57 107.362 101.542 107.422 101.37C107.481 101.197 107.628 100.324 107.685 100.153C107.745 99.9762 107.715 99.833 107.715 99.6283C107.715 99.4265 107.657 99.138 107.657 98.9613C107.657 98.7873 107.569 98.408 107.685 98.1503C107.803 97.8883 107.482 97.7151 107.482 97.3979C107.482 97.0731 107.539 97.0473 107.539 96.8447C107.539 96.6428 107.453 96.2957 107.422 96.003C107.393 95.7145 107.362 95.6572 107.337 95.4225C107.303 95.1941 107.303 95.2807 107.247 94.6416C107.187 94.0073 107.362 94.1463 107.362 93.9151C107.362 93.6832 107.422 93.6 107.481 93.4806C107.538 93.3653 107.45 92.175 107.45 92.0325C107.45 91.9613 107.373 91.8265 107.289 91.6944C107.206 91.5582 107.113 91.4227 107.098 91.364C107.071 91.2467 106.925 91.1908 106.838 91.0714C106.749 90.9596 106.574 90.8401 106.544 90.7556C106.515 90.6676 106.342 90.4071 106.31 90.2611C106.28 90.1186 105.902 90.1186 105.842 90.032C105.787 89.9453 105.755 89.6233 105.722 89.4214C105.696 89.2154 105.549 89.1888 105.374 88.9003C105.197 88.6111 105.258 88.5518 105.082 88.1159C104.906 87.6814 104.995 87.9433 105.05 87.768C105.112 87.592 105.197 87.6521 105.258 87.4523C105.318 87.2441 105.465 87.2169 105.258 86.9549C105.258 86.9549 105.171 86.665 105.112 86.5526C105.05 86.4324 105.258 86.2564 105.258 86.2564L105.52 85.94C105.52 85.94 105.637 85.4203 105.637 85.3316C105.637 85.247 105.55 85.2156 105.171 84.7804C104.786 84.3459 104.906 84.4898 104.759 84.3459C104.613 84.1992 104.496 84.1126 104.437 83.91C104.381 83.7082 104.352 83.7082 104.381 83.4763C104.408 83.2443 104.381 83.0711 104.381 82.8685C104.381 82.6653 104.381 82.7505 104.468 82.4892C104.553 82.2294 104.469 82.4892 104.643 82.1714C104.766 81.9458 104.881 81.7362 104.992 81.4952C105.042 81.3974 105.089 81.2962 105.141 81.1858C105.318 80.8107 105.288 80.9832 105.344 80.7213C105.403 80.4621 105.549 80.5201 105.695 80.0828C105.842 79.649 105.928 79.7042 106.135 79.3605C106.341 79.0106 106.368 78.7772 106.397 78.3728C106.427 77.9662 106.574 77.7937 106.694 77.7064C106.809 77.6198 106.925 77.6198 107.098 77.4738C107.276 77.3292 107.393 77.2146 107.569 76.9227C107.745 76.6314 107.947 76.3694 108.064 76.2311C108.183 76.0809 108.532 76.1137 108.532 76.1137C108.532 76.1137 108.972 76.0551 109.118 75.6765C109.159 75.5745 109.202 75.5053 109.249 75.4467C109.372 75.2979 109.515 75.272 109.644 75.1246C109.819 74.9256 109.849 74.7789 109.992 74.5749C110.138 74.3709 110.138 74.3709 110.288 74.0524C110.431 73.7304 110.403 73.9127 110.55 73.7059C110.697 73.5033 110.989 73.3545 111.31 73.0088C111.632 72.6609 111.512 72.9222 111.718 72.5764C111.926 72.2278 112.01 72.4297 112.276 72.0232C112.539 71.6166 112.595 71.7612 112.803 71.3854C113.008 71.0082 113.326 70.895 113.473 70.6296C113.62 70.3718 113.737 70.4019 114.09 70.1078C114.439 69.8186 114.585 69.7921 114.761 69.674C114.937 69.5594 115.14 69.5008 115.23 69.4128C115.319 69.3261 115.873 69.1257 115.873 69.1257L116.281 68.9238C116.281 68.9238 117.481 68.1072 117.63 67.9333C117.772 67.76 118.065 67.7007 118.124 67.6182C118.18 67.5288 118.386 67.4142 118.507 67.2096C118.623 67.0042 118.769 66.9448 118.856 66.7472C118.944 66.5411 119.354 66.1066 119.354 66.1066C119.354 66.1066 120.699 64.5698 120.788 64.4525C120.874 64.3386 121.549 63.5863 121.634 63.4969C121.719 63.4103 121.84 63.2943 121.898 63.038C121.957 62.7732 122.482 62.4533 122.541 62.0768C122.597 61.701 122.802 61.4677 122.863 61.2665C122.92 61.0618 123.216 60.9151 123.242 60.8027C123.271 60.6839 123.447 60.5994 123.709 60.2222C123.975 59.845 123.855 59.8729 123.944 59.6396C124.031 59.4126 124.091 59.3504 124.324 58.9767C124.556 58.5981 124.324 58.9767 124.41 58.7728C124.499 58.5702 124.792 58.1902 124.998 57.873C125.2 57.5524 125.115 57.6397 125.29 57.4085C125.463 57.1752 125.29 57.4085 125.582 56.8022C125.874 56.1896 125.727 56.5095 125.904 56.425C126.077 56.3321 125.93 56.0743 126.107 55.8717C126.283 55.6699 126.224 55.7279 126.344 55.4666C126.458 55.204 126.549 55.1453 126.661 54.8533C126.781 54.5662 126.661 54.6843 126.661 54.307C126.661 53.9291 126.781 53.9564 126.837 53.7832C126.894 53.6078 126.951 53.4632 127.009 53.3766Z" fill="white" fill-opacity="0.18"/>
</svg>
