<svg width="3" height="1" viewBox="0 0 3 1" fill="none" xmlns="http://www.w3.org/2000/svg">
<path d="M1.51505 0.00384624C1.42202 0.0345816 1.20448 -0.0268966 1.01702 0.0660079C0.831666 0.157515 0.42318 -0.0268966 0.207744 0.0660079C0.00489899 0.151229 -0.0727416 0.494214 0.081141 0.58642C0.237821 0.680721 0.269297 0.802962 0.518307 0.802962C0.769415 0.802962 0.739337 0.773618 0.986948 0.862331C1.23456 0.952442 1.20379 0.89307 1.48357 0.924504C1.76336 0.953143 1.88577 0.773624 2.04455 0.802962C2.19913 0.831602 2.29426 0.924501 2.38658 0.773619C2.47961 0.618545 2.54187 0.465571 2.54187 0.465571L2.41875 0.128884C2.41875 0.128884 1.61018 -0.0261905 1.51505 0.00384624Z" fill="white" fill-opacity="0.18"/>
</svg>
