<svg width="16" height="19" viewBox="0 0 16 19" fill="none" xmlns="http://www.w3.org/2000/svg">
<mask id="path-1-inside-1_2605_3537" fill="white">
<path d="M9.64816 18.7716C9.73909 18.8959 9.87966 18.9616 10.0224 18.9616C10.1168 18.9616 10.2126 18.9322 10.2952 18.8722C10.5022 18.722 10.547 18.4328 10.3966 18.2274L13.3672 13.6835C13.4819 13.7373 13.6078 13.7645 13.7337 13.7645C13.9107 13.7645 14.089 13.71 14.2429 13.5976C14.629 13.3175 14.7137 12.7768 14.4311 12.3919C14.3499 12.2809 14.2478 12.1949 14.1338 12.1356L15.4062 8.76586C15.4936 8.76167 15.581 8.73302 15.6565 8.67713C15.8636 8.52695 15.9077 8.23707 15.7573 8.03171C15.6867 7.93391 15.5845 7.87314 15.4754 7.85079L13.91 0.891325C13.9456 0.877354 13.9799 0.858503 14.0121 0.835452C14.2184 0.684569 14.2639 0.39537 14.1128 0.190002C14.0219 0.065664 13.8813 0 13.7386 0C13.6435 0 13.5477 0.0286496 13.4651 0.0887232C13.2588 0.239606 13.2133 0.528783 13.3651 0.734151C13.3812 0.756504 13.3994 0.776765 13.4182 0.794927L10.5861 5.31233C10.5281 5.28718 10.4658 5.27459 10.4029 5.27459C10.3084 5.27459 10.2126 5.30395 10.1301 5.36402C9.97129 5.47998 9.90764 5.67904 9.95661 5.85856L2.69824 9.09905C2.6157 9.03478 2.51568 9.00195 2.41425 9.00195C2.31913 9.00195 2.22403 9.0306 2.14149 9.09137C2.08204 9.13468 2.03654 9.18916 2.00437 9.24993L0.923704 9.29604C0.91531 9.21851 0.887342 9.14167 0.83768 9.07392C0.747448 8.94958 0.606132 8.88391 0.463441 8.88391C0.368314 8.88391 0.272493 8.91255 0.189956 8.97332C-0.0163861 9.1235 -0.0618387 9.4127 0.0892459 9.61877C0.180176 9.74311 0.321476 9.80877 0.464167 9.80877C0.477457 9.80877 0.491435 9.80806 0.504725 9.80666L2.00509 15.3111C1.97572 15.3243 1.94703 15.3404 1.91975 15.3607C1.71341 15.5109 1.66934 15.8 1.81972 16.0061C1.90995 16.1298 2.05123 16.1954 2.19392 16.1954C2.28835 16.1954 2.3842 16.1668 2.46604 16.1067C2.54228 16.0515 2.59682 15.9768 2.6269 15.895L6.30542 16.6599C6.28723 16.7773 6.31311 16.9016 6.38935 17.005C6.47958 17.1286 6.62085 17.1943 6.76354 17.1943C6.85797 17.1943 6.95308 17.1657 7.03562 17.1056C7.08528 17.0693 7.12585 17.0246 7.15593 16.9757L9.60546 18.2938C9.53342 18.4447 9.54324 18.6284 9.64816 18.7716ZM14.003 12.0804C13.9156 12.0517 13.8247 12.0371 13.7323 12.0371C13.6204 12.0371 13.5078 12.0587 13.4015 12.1027L10.6582 6.12333C10.6645 6.11914 10.6708 6.11494 10.6771 6.11005C10.7183 6.08001 10.7526 6.04439 10.7806 6.00527L14.9627 8.10994C14.8948 8.25733 14.9067 8.43616 15.0095 8.57726C15.0732 8.66458 15.1627 8.72324 15.2599 8.74978L14.003 12.0804ZM13.5344 0.876658C13.5987 0.908092 13.6694 0.924153 13.74 0.924153C13.7505 0.924153 13.7617 0.924165 13.7722 0.922768L15.3292 7.8445C15.2529 7.85358 15.1781 7.88221 15.111 7.93041C15.0858 7.94857 15.0627 7.96953 15.0424 7.99189L10.8449 5.87954C10.889 5.74333 10.8694 5.58893 10.7785 5.4646C10.7575 5.43526 10.733 5.40942 10.7071 5.38706L13.5344 0.876658ZM10.0147 5.98849C10.0196 5.99618 10.0244 6.00387 10.03 6.01086C10.1203 6.1345 10.2616 6.20015 10.4035 6.20015C10.4462 6.20015 10.4889 6.19457 10.5302 6.1827L13.2763 12.1677C13.2581 12.1789 13.2406 12.1907 13.2231 12.2033C13.0657 12.3186 12.958 12.4779 12.9062 12.6511L2.87033 9.37777C2.85914 9.3191 2.83603 9.26182 2.80036 9.20873L10.0147 5.98849ZM0.642534 9.77383C0.675409 9.75986 0.706849 9.7424 0.736926 9.72005C0.834152 9.6495 0.895745 9.5475 0.917428 9.43853L1.95753 9.39383C1.93935 9.51048 1.9652 9.63482 2.04074 9.73751C2.11209 9.8353 2.2135 9.89677 2.32332 9.91843L2.13936 15.2657L0.642534 9.77383ZM2.56816 15.462C2.49611 15.3628 2.39188 15.3013 2.28067 15.2803L2.3716 12.6266L2.46463 9.92542C2.54297 9.91704 2.61992 9.8884 2.68846 9.83881C2.79408 9.76127 2.85774 9.6481 2.87383 9.52796L12.8762 12.7901C12.8622 12.8997 12.8685 13.0122 12.8971 13.1212L2.62272 15.5597C2.60873 15.5262 2.59054 15.4927 2.56816 15.462ZM6.76286 16.2716C6.66773 16.2716 6.5726 16.3002 6.49006 16.3603C6.42851 16.4057 6.38165 16.4629 6.34947 16.5265L2.65627 15.7581C2.65767 15.7379 2.65699 15.7176 2.65559 15.6974L12.9447 13.2553C12.9538 13.2763 12.9643 13.2965 12.9755 13.3168L7.10628 16.4231C7.01604 16.3233 6.89016 16.2716 6.76286 16.2716ZM7.21262 16.8464C7.2378 16.7466 7.22938 16.639 7.18461 16.5419L13.0538 13.4348C13.1091 13.5054 13.1741 13.5648 13.2448 13.6137L10.2944 18.1254C10.2147 18.0675 10.1189 18.0367 10.0224 18.0367C9.92723 18.0367 9.83139 18.0661 9.74955 18.1262C9.72787 18.1422 9.7069 18.1597 9.68871 18.1792L7.21262 16.8464Z"/>
</mask>
<path d="M9.64816 18.7716C9.73909 18.8959 9.87966 18.9616 10.0224 18.9616C10.1168 18.9616 10.2126 18.9322 10.2952 18.8722C10.5022 18.722 10.547 18.4328 10.3966 18.2274L13.3672 13.6835C13.4819 13.7373 13.6078 13.7645 13.7337 13.7645C13.9107 13.7645 14.089 13.71 14.2429 13.5976C14.629 13.3175 14.7137 12.7768 14.4311 12.3919C14.3499 12.2809 14.2478 12.1949 14.1338 12.1356L15.4062 8.76586C15.4936 8.76167 15.581 8.73302 15.6565 8.67713C15.8636 8.52695 15.9077 8.23707 15.7573 8.03171C15.6867 7.93391 15.5845 7.87314 15.4754 7.85079L13.91 0.891325C13.9456 0.877354 13.9799 0.858503 14.0121 0.835452C14.2184 0.684569 14.2639 0.39537 14.1128 0.190002C14.0219 0.065664 13.8813 0 13.7386 0C13.6435 0 13.5477 0.0286496 13.4651 0.0887232C13.2588 0.239606 13.2133 0.528783 13.3651 0.734151C13.3812 0.756504 13.3994 0.776765 13.4182 0.794927L10.5861 5.31233C10.5281 5.28718 10.4658 5.27459 10.4029 5.27459C10.3084 5.27459 10.2126 5.30395 10.1301 5.36402C9.97129 5.47998 9.90764 5.67904 9.95661 5.85856L2.69824 9.09905C2.6157 9.03478 2.51568 9.00195 2.41425 9.00195C2.31913 9.00195 2.22403 9.0306 2.14149 9.09137C2.08204 9.13468 2.03654 9.18916 2.00437 9.24993L0.923704 9.29604C0.91531 9.21851 0.887342 9.14167 0.83768 9.07392C0.747448 8.94958 0.606132 8.88391 0.463441 8.88391C0.368314 8.88391 0.272493 8.91255 0.189956 8.97332C-0.0163861 9.1235 -0.0618387 9.4127 0.0892459 9.61877C0.180176 9.74311 0.321476 9.80877 0.464167 9.80877C0.477457 9.80877 0.491435 9.80806 0.504725 9.80666L2.00509 15.3111C1.97572 15.3243 1.94703 15.3404 1.91975 15.3607C1.71341 15.5109 1.66934 15.8 1.81972 16.0061C1.90995 16.1298 2.05123 16.1954 2.19392 16.1954C2.28835 16.1954 2.3842 16.1668 2.46604 16.1067C2.54228 16.0515 2.59682 15.9768 2.6269 15.895L6.30542 16.6599C6.28723 16.7773 6.31311 16.9016 6.38935 17.005C6.47958 17.1286 6.62085 17.1943 6.76354 17.1943C6.85797 17.1943 6.95308 17.1657 7.03562 17.1056C7.08528 17.0693 7.12585 17.0246 7.15593 16.9757L9.60546 18.2938C9.53342 18.4447 9.54324 18.6284 9.64816 18.7716ZM14.003 12.0804C13.9156 12.0517 13.8247 12.0371 13.7323 12.0371C13.6204 12.0371 13.5078 12.0587 13.4015 12.1027L10.6582 6.12333C10.6645 6.11914 10.6708 6.11494 10.6771 6.11005C10.7183 6.08001 10.7526 6.04439 10.7806 6.00527L14.9627 8.10994C14.8948 8.25733 14.9067 8.43616 15.0095 8.57726C15.0732 8.66458 15.1627 8.72324 15.2599 8.74978L14.003 12.0804ZM13.5344 0.876658C13.5987 0.908092 13.6694 0.924153 13.74 0.924153C13.7505 0.924153 13.7617 0.924165 13.7722 0.922768L15.3292 7.8445C15.2529 7.85358 15.1781 7.88221 15.111 7.93041C15.0858 7.94857 15.0627 7.96953 15.0424 7.99189L10.8449 5.87954C10.889 5.74333 10.8694 5.58893 10.7785 5.4646C10.7575 5.43526 10.733 5.40942 10.7071 5.38706L13.5344 0.876658ZM10.0147 5.98849C10.0196 5.99618 10.0244 6.00387 10.03 6.01086C10.1203 6.1345 10.2616 6.20015 10.4035 6.20015C10.4462 6.20015 10.4889 6.19457 10.5302 6.1827L13.2763 12.1677C13.2581 12.1789 13.2406 12.1907 13.2231 12.2033C13.0657 12.3186 12.958 12.4779 12.9062 12.6511L2.87033 9.37777C2.85914 9.3191 2.83603 9.26182 2.80036 9.20873L10.0147 5.98849ZM0.642534 9.77383C0.675409 9.75986 0.706849 9.7424 0.736926 9.72005C0.834152 9.6495 0.895745 9.5475 0.917428 9.43853L1.95753 9.39383C1.93935 9.51048 1.9652 9.63482 2.04074 9.73751C2.11209 9.8353 2.2135 9.89677 2.32332 9.91843L2.13936 15.2657L0.642534 9.77383ZM2.56816 15.462C2.49611 15.3628 2.39188 15.3013 2.28067 15.2803L2.3716 12.6266L2.46463 9.92542C2.54297 9.91704 2.61992 9.8884 2.68846 9.83881C2.79408 9.76127 2.85774 9.6481 2.87383 9.52796L12.8762 12.7901C12.8622 12.8997 12.8685 13.0122 12.8971 13.1212L2.62272 15.5597C2.60873 15.5262 2.59054 15.4927 2.56816 15.462ZM6.76286 16.2716C6.66773 16.2716 6.5726 16.3002 6.49006 16.3603C6.42851 16.4057 6.38165 16.4629 6.34947 16.5265L2.65627 15.7581C2.65767 15.7379 2.65699 15.7176 2.65559 15.6974L12.9447 13.2553C12.9538 13.2763 12.9643 13.2965 12.9755 13.3168L7.10628 16.4231C7.01604 16.3233 6.89016 16.2716 6.76286 16.2716ZM7.21262 16.8464C7.2378 16.7466 7.22938 16.639 7.18461 16.5419L13.0538 13.4348C13.1091 13.5054 13.1741 13.5648 13.2448 13.6137L10.2944 18.1254C10.2147 18.0675 10.1189 18.0367 10.0224 18.0367C9.92723 18.0367 9.83139 18.0661 9.74955 18.1262C9.72787 18.1422 9.7069 18.1597 9.68871 18.1792L7.21262 16.8464Z" fill="white" fill-opacity="0.18" stroke="#FFC221" stroke-width="2" mask="url(#path-1-inside-1_2605_3537)"/>
</svg>
