<svg width="11" height="13" viewBox="0 0 11 13" fill="none" xmlns="http://www.w3.org/2000/svg">
<path d="M9.03414 4.6623C9.40696 4.19429 9.59233 4.38011 9.87701 3.53559C10.1575 2.68967 10.1575 2.59186 9.21601 2.22653C8.27103 1.84932 8.27944 2.78537 7.71077 3.35537C7.1519 3.91629 6.67766 2.88805 5.4522 2.70084C4.23023 2.51503 4.79122 2.13924 4.41491 1.29402C4.0386 0.449495 4.0386 0.449456 3.56786 0.0750441C3.09781 -0.295875 3.3804 0.828786 3.3804 0.828786C3.3804 0.828786 2.96631 1.04391 2.53334 0.73516C1.87305 0.269939 2.25284 1.77039 1.88003 2.4284C1.50651 3.08363 1.88001 3.46083 1.69325 4.21664C1.50929 4.96546 1.41487 5.24837 0.853198 5.71709C0.290128 6.18929 0.101983 6.18929 0.00755468 6.84521C-0.0840754 7.50392 0.669927 7.22101 1.61141 7.59123C2.55219 7.96704 2.08217 8.15497 2.55221 8.9052C3.02505 9.65262 2.46198 9.84192 2.18079 10.6899C1.9017 11.5373 2.08708 11.4387 2.93973 11.8146C3.78328 12.1869 3.68816 12.0947 4.1547 11.1558C4.62474 10.2177 4.9059 10.59 5.75505 9.64632C6.59791 8.7054 6.59792 8.99041 6.78397 8.236C6.97003 7.48648 6.78398 7.29714 6.77629 6.44913C6.77629 5.6074 7.34565 6.16975 7.90383 6.16765C8.47249 6.16765 8.47249 6.44774 8.37387 5.69752C8.27944 4.9459 8.65993 5.13101 9.03414 4.6623Z" fill="white" fill-opacity="0.18"/>
</svg>
