<svg width="6" height="4" viewBox="0 0 6 4" fill="none" xmlns="http://www.w3.org/2000/svg">
<path d="M1.94223 2.04239C1.59669 2.04239 0.956681 2.18907 0.956681 2.43286C0.956681 2.67455 0.413196 2.48036 0.314571 2.86944C0.216646 3.25713 -0.278586 3.49812 0.216636 3.49812C0.70906 3.49812 1.40084 3.20823 1.69532 3.06224C1.99399 2.91554 2.08911 2.86875 2.28846 2.86875C2.48221 2.86875 3.07886 2.91555 3.07886 2.91555L3.66641 2.62426C3.66641 2.62426 3.91611 3.35352 4.35887 3.06224C4.80443 2.77095 4.9989 2.72415 5.15068 2.62426C5.29407 2.52926 5.29406 2.18838 5.04715 2.13739C4.80514 2.09268 4.90026 2.09268 4.20778 2.04239C3.52371 1.99559 3.0285 1.89569 3.0285 1.89569C3.0285 1.89569 3.86575 1.50941 4.26025 1.55901C4.65615 1.60441 4.70021 1.5094 4.60578 1.07352C4.50366 0.632051 4.65545 0.538454 4.26025 0.538454C3.86575 0.538454 3.71677 0.583859 3.66641 0.344263C3.61814 0.102572 2.92987 -0.144713 2.18984 0.102566C2.00168 0.159846 2.33673 0.102572 2.48222 0.538454C2.6326 0.974337 2.63259 0.831832 2.13946 0.974332C1.64494 1.11963 0.908414 1.07352 1.25465 1.26771C1.59739 1.45981 1.94222 1.50941 2.28846 1.60441C2.6326 1.7057 2.28846 2.04239 1.94223 2.04239Z" fill="white" fill-opacity="0.18"/>
</svg>
