<svg width="11" height="9" viewBox="0 0 11 9" fill="none" xmlns="http://www.w3.org/2000/svg">
<path d="M9.83105 4.00236C9.93247 3.90037 10.0192 3.80957 10.0948 3.75299C10.1675 3.69431 9.75973 3.78233 9.71356 3.75299C9.67019 3.72225 9.48063 3.73693 9.40789 3.70899C9.33234 3.67686 9.30577 3.49034 9.36383 3.37019C9.42258 3.25074 9.40788 3.20674 9.51001 3.08869C9.61143 2.97134 9.61141 2.94269 9.68205 2.88262C9.7604 2.82604 9.74084 2.39853 9.71356 2.35522C9.68209 2.31052 9.50931 2.45931 9.46595 2.51869C9.42258 2.57597 9.15889 2.91545 8.89379 3.11803C8.63429 3.32619 8.75178 3.19068 8.68882 3.19068C8.63427 3.19068 8.33981 3.2675 8.32372 3.22139C8.31043 3.18088 8.15095 3.08868 8.06352 3.03001C7.97398 2.97133 7.78511 2.9853 7.74175 2.94269C7.69908 2.89729 7.53682 2.92662 7.53682 2.85537C7.53682 2.78343 7.38851 2.72195 7.33045 2.61926C7.2724 2.51867 7.09825 2.57526 7.09825 2.57526L6.7457 2.52986C6.7457 2.52986 6.14558 2.25114 6.14558 2.16243C6.14558 2.07302 5.86578 2.06395 5.84199 1.95917C5.81192 1.85439 5.68114 1.88233 5.61889 1.83902C5.56363 1.79571 5.38594 1.70629 5.40133 1.58684C5.41741 1.47298 4.65639 0.796819 4.56896 0.631966C4.47943 0.472002 4.31856 0.471997 4.23182 0.369313C4.14439 0.265931 3.84924 0.133897 3.77719 0.0605516C3.70515 -0.0134926 3.47013 0.00118252 3.42746 0.00118252C3.38409 0.00118252 3.22318 0.209347 3.25046 0.209347C3.28194 0.209347 3.13506 0.604706 3.13506 0.80728C3.13506 1.01544 3.28195 0.986812 3.36658 1.03152C3.45681 1.07553 3.47012 1.54634 3.52817 1.53167C3.58623 1.5163 3.45683 1.76637 3.48621 1.97104C3.51348 2.1792 3.44005 2.06323 3.36731 2.13448C3.29806 2.20643 3.2365 2.3685 3.22391 2.47049C3.20712 2.57527 3.2365 3.03 3.25119 3.18019C3.26587 3.32548 3.14834 3.48964 3.10637 3.54482C3.06301 3.6042 2.98748 3.57207 2.93292 3.56299C2.87066 3.54482 2.65452 3.72225 2.65452 3.72225C2.65452 3.72225 2.57968 4.0757 2.60696 4.18187C2.63844 4.28106 2.63847 4.59332 2.68044 4.66597C2.7238 4.73792 2.579 4.90068 2.579 4.90068C2.579 4.90068 2.27194 4.95794 2.22718 4.9286C2.18171 4.90066 1.9215 4.78053 1.9215 4.78053C1.9215 4.78053 1.46615 4.68972 1.42068 4.66597C1.37661 4.63454 1.21575 4.5612 1.17238 4.5612C1.12832 4.5612 1.01079 4.76515 0.983515 4.8392C0.953438 4.91254 0.983512 5.076 0.998201 5.13468C1.01079 5.19405 0.952738 5.29813 0.983515 5.35751C1.01079 5.41688 0.838703 5.60549 0.838703 5.60549L0.413448 5.87094L0.268637 6.00364C0.268637 6.00364 0.0329497 6.311 0.00497104 6.3564C-0.025106 6.40111 0.0917075 6.60649 0.0777182 6.75248C0.0658273 6.89987 0.182629 6.94387 0.269363 6.89987C0.355397 6.85516 0.328107 7.08009 0.328107 7.13457C0.328107 7.19325 0.414165 7.22747 0.518385 7.25052C0.618409 7.28405 0.561718 7.44751 0.561718 7.48942C0.561718 7.53413 0.47501 7.79887 0.47501 7.79887C0.47501 7.79887 0.414848 8.00564 0.431635 8.06222C0.444225 8.1195 0.474984 8.25362 0.561718 8.28156C0.64985 8.31439 0.577103 8.43104 0.663837 8.43104C0.749871 8.43104 0.796756 8.45828 0.938048 8.4017L1.18985 8.09505C1.18985 8.09505 1.21784 8.23756 1.30738 8.16491C1.39621 8.09506 1.30738 8.09505 1.30738 7.98887C1.30738 7.88549 1.40949 7.90226 1.49552 7.85755C1.58435 7.81355 1.80609 7.96233 1.87953 7.96233C1.95088 7.96233 2.09777 7.87081 2.1999 7.79887C2.29992 7.72622 2.27263 7.66685 2.28942 7.56207C2.30061 7.45939 2.24326 7.45938 2.13974 7.37066C2.03692 7.28405 1.96767 7.26799 1.87953 7.13457C1.79 7.00465 1.80608 7.06122 1.58505 7.03398C1.36541 7.00464 1.29269 6.84328 1.21785 6.79718C1.14651 6.75248 1.16256 6.60648 1.16256 6.5017C1.16256 6.40111 1.21783 6.29563 1.24791 6.25163C1.27938 6.20762 1.51302 6.16361 1.58436 6.17968C1.65641 6.19505 1.61445 6.28306 1.62774 6.3564C1.64243 6.42905 1.74664 6.47446 1.89213 6.59251C2.03622 6.70847 2.11105 6.72243 2.22786 6.65118C2.34677 6.57504 2.24187 6.56387 2.43282 6.37177C2.62098 6.17968 2.73987 6.17968 2.81261 6.11961C2.88466 6.05883 2.91476 6.10425 2.97561 6.13289C3.03087 6.16362 3.1057 6.26839 3.20572 6.29633C3.30784 6.32706 3.32464 6.41578 3.46943 6.3564C3.61841 6.29633 3.55614 6.38434 3.71632 6.37177C3.87859 6.3564 3.95203 6.38435 4.11361 6.47446C4.27448 6.56387 4.31857 6.70846 4.31857 6.70846C4.31857 6.70846 4.5375 6.81395 4.59556 6.87053C4.65641 6.92712 4.97818 6.99136 5.0796 6.99136C5.18172 6.99136 5.6063 7.17997 5.66435 7.19394C5.72241 7.2121 5.94134 7.19394 5.94134 7.19394C5.94134 7.19394 6.17426 7.22747 6.27848 7.15203C6.3792 7.08008 6.33723 6.85516 6.368 6.69729C6.39598 6.53174 6.42673 6.59321 6.4673 6.38435C6.51277 6.17968 6.49811 6.26839 6.60093 6.11961C6.70515 5.97711 6.81985 5.87094 6.81985 5.87094C6.81985 5.87094 6.89328 5.81224 6.94994 5.72353C7.00869 5.63482 7.22833 5.46019 7.22833 5.46019L7.59348 5.22479C7.59348 5.22479 7.91592 5.20663 7.98936 5.28277C8.0642 5.35681 8.09287 5.43017 8.1936 5.4162C8.29572 5.39803 8.51534 5.43017 8.66223 5.368C8.80632 5.31142 9.20365 5.26531 9.20365 5.26531C9.20365 5.26531 9.43865 5.17938 9.49391 5.03199C9.55267 4.8839 9.53797 4.95725 9.67087 4.79729C9.80307 4.63383 9.77371 4.63384 9.80309 4.56049C9.83177 4.48505 9.71424 4.35581 9.71424 4.22519C9.71285 4.09037 9.72823 4.10504 9.83105 4.00236Z" fill="white" fill-opacity="0.18"/>
</svg>
