<svg width="14" height="26" viewBox="0 0 14 26" fill="none" xmlns="http://www.w3.org/2000/svg">
<path d="M12.3024 6.26302C12.5556 6.34335 12.3723 6.74431 12.5556 6.8414C13.0179 7.09078 13.2663 6.92523 13.2663 6.92523C13.2663 6.92523 13.353 6.80439 13.4789 6.55292C13.602 6.30424 13.7678 6.34404 13.6845 6.05694C13.602 5.76426 13.1872 4.72906 13.1872 4.72906C12.9347 4.31344 12.8088 3.8971 12.7655 3.64982C12.7249 3.39905 12.7249 2.98412 12.7249 2.77875C12.7249 2.56989 12.8088 2.2381 12.6403 2.2381C12.4745 2.2381 12.3906 1.69953 12.3906 1.69953C12.3906 1.69953 12.3905 1.20147 12.2241 1.03522C12.0562 0.871063 12.1779 0.287797 11.9324 0.373716C11.6799 0.454047 11.5547 0.165551 11.3847 0.165551C11.219 0.165551 11.0958 0 11.0958 0L10.6307 0.541356C10.6307 0.541356 10.3425 0.786554 10.4251 0.952804C10.5083 1.12115 10.5922 1.61851 10.5922 1.61851C10.5922 1.61851 10.8048 1.82665 10.5922 2.03202C10.5922 2.03202 10.167 2.26254 10.0061 2.49096C9.7144 2.9031 9.6962 2.97295 9.54932 2.98482C9.00163 3.02674 8.7505 2.85978 8.79247 3.06794C8.83444 3.2754 8.87851 3.31871 8.79247 3.52548C8.70854 3.73643 8.70854 3.73644 8.70854 3.73644C8.70854 3.73644 8.75752 3.67427 8.66939 3.93831C8.49942 4.43776 8.49943 4.64383 8.49943 4.64383L8.37699 5.01685C7.99718 4.97703 7.49707 5.2264 7.49707 5.2264C7.66214 5.59732 7.50897 5.49254 7.45301 5.76357C7.37327 6.17641 6.99416 6.01086 6.99416 6.01086C6.57588 6.17641 6.56748 6.0807 6.4059 6.21761C5.99182 6.59552 5.82324 6.7995 5.82324 6.7995C5.82324 6.7995 5.99182 7.04957 5.90858 7.21582L5.3602 7.13339L4.82024 7.01045L4.19279 7.21582C4.19279 7.21582 3.60806 7.29686 3.48146 7.33947C3.48146 7.33947 3.18626 7.54691 3.05966 7.71037C3.05966 7.71037 2.63161 7.4128 2.5176 7.58813C2.22522 8.04497 2.2252 8.17001 2.2252 8.33486C2.2252 8.91394 1.93074 9.08089 1.80763 9.32887C1.68173 9.58314 1.76497 9.49862 1.68173 9.7452C1.5971 9.99667 1.47259 9.95335 1.51596 10.2006C1.55863 10.4486 1.59708 10.2852 1.55861 10.617C1.51594 10.9467 1.51596 10.9467 1.51596 11.1534L1.51523 11.1562C1.53412 11.2512 1.5586 11.3832 1.59707 11.6103C1.80761 12.8138 1.68173 13.1484 1.68173 13.1484C1.68173 13.1484 1.80763 13.3098 1.93144 13.5186C2.05874 13.7261 2.10001 13.7687 2.14268 14.0572C2.18325 14.3478 2.18324 13.7687 2.18324 14.3478C2.18324 14.9304 2.18323 15.0959 2.01605 15.3013C1.84888 15.5095 1.93144 15.3446 1.80763 15.7169C1.68173 16.092 1.55862 16.2562 1.43062 16.4217C1.30681 16.5873 1.13613 16.4217 1.13613 16.7521C1.13613 17.0853 1.18089 16.8353 1.13613 17.0854C1.09696 17.3347 1.09698 17.3347 1.09698 17.3347C1.09698 17.3347 0.722059 17.2914 0.634625 17.4989C0.552788 17.7077 0.435272 17.7986 0.383511 17.9557C0.215639 18.4943 0.215646 18.2463 0.215646 18.4943C0.383518 19.0356 0.758436 19.2522 0.59616 19.2836C0.17718 19.3674 0.0911381 19.533 0.133805 19.6587C0.133805 19.6587 0.0911381 19.9081 0.133805 20.1142C0.177172 20.3216 -0.241131 20.1952 0.21492 20.6101C0.677267 21.0285 0.847274 21.3576 0.847274 21.565C0.847274 21.7718 1.01445 20.9852 0.847274 21.9401C0.678004 22.8908 0.678001 22.8908 0.678001 22.8908C0.678001 22.8908 0.634634 23.099 0.678001 23.3043C0.678001 23.3043 0.805308 23.3477 0.971081 23.5551C1.13616 23.7661 1.26275 24.0546 1.26275 24.1817L1.59707 24.721L2.14268 24.8872L2.47422 25.2169L2.72743 25.4279L3.10585 25.5075L3.52411 25.7548L3.85774 25.8798L4.44181 25.7157L5.15387 25.3413L5.82324 25.0933C5.82324 25.0933 6.11354 24.9242 6.15761 25.0472H6.65983C6.95151 24.7203 7.07809 24.5086 7.07809 24.5086L7.37326 24.0113C7.37326 24.0113 7.62226 23.7228 7.7069 23.5544C7.78804 23.391 7.74677 23.0606 7.74677 23.0606C7.74677 23.0606 7.95593 23.0606 8.04126 22.5199C8.1252 21.9799 8.20704 21.7334 8.20704 21.7334C8.20704 21.7334 8.46024 21.1522 8.46024 21.0292C8.46024 20.9014 8.58755 20.3223 8.58755 20.3223L8.70995 19.8243C8.70995 19.8243 9.08486 19.1188 9.04499 19.1614C9.00303 19.2033 9.12893 18.4538 9.12893 18.4538C9.12893 18.4538 9.17019 18.0409 9.21286 17.8747C9.25483 17.7077 9.46398 17.2509 9.50385 17.1286C9.55141 17.0022 9.75637 16.7151 9.79834 16.5475C9.8417 16.3854 10.0074 15.967 10.0074 15.967C10.0074 15.967 10.2572 15.6331 10.3005 15.4683C10.3404 15.302 10.4264 14.8899 10.4264 14.8899C10.4264 14.8899 10.8853 14.1829 10.8853 14.0579C10.8853 13.935 10.8454 13.3538 10.8853 13.2288C10.9279 13.1051 11.2211 12.3989 11.2211 12.3989C11.2211 12.3989 11.263 12.0273 11.263 11.903C11.263 11.7779 11.512 10.9879 11.512 10.867C11.512 10.7392 11.5561 10.4095 11.512 10.2467C11.4686 10.077 11.4302 9.32817 11.5561 9.20523C11.5561 9.20523 11.9744 8.62755 12.2255 8.7477L12.4325 7.79839L12.1387 7.21512C12.1387 7.21512 11.9331 6.88261 12.0576 6.71636C12.1772 6.5522 12.0555 6.1771 12.3024 6.26302Z" fill="white" fill-opacity="0.18"/>
</svg>
