<svg width="7" height="4" viewBox="0 0 7 4" fill="none" xmlns="http://www.w3.org/2000/svg">
<path d="M5.64265 0.743099C5.76645 0.743099 5.76644 0.587329 6.04693 0.71027C6.32672 0.833211 6.6191 0.715163 6.70163 0.617369C6.94994 0.314207 7.0115 0.157737 6.79397 0.217112C6.57573 0.279282 6.54425 0.187769 6.38897 0.187769C6.23299 0.187769 5.61046 0.127692 5.42441 0.0969567C5.23555 0.068317 4.98865 -0.0245802 4.70956 0.00615511C4.42907 0.0347948 3.96043 -0.0245877 3.83592 0.0683168C3.71212 0.157729 3.55613 0.0969654 3.40155 0.217112C3.24697 0.342848 2.95039 0.405716 2.84198 0.372186C2.43768 0.251341 2.37334 -0.0245835 2.09635 0.157733C1.81376 0.342843 1.59694 0.34284 1.50461 0.405708C1.41088 0.464384 1.28637 0.439936 1.19194 0.464384C0.726096 0.588024 0.661041 0.497216 0.568711 0.588025C0.477781 0.680231 0.22598 0.833911 0.22598 0.833911C0.209192 0.873029 0.189605 0.926112 0.172817 0.988281C0.100073 1.23905 0.0413153 1.62255 0.0413153 1.84538C0.0413153 2.1199 -0.0831899 2.36369 0.10007 2.5488C0.288227 2.73252 0.972306 2.73252 1.06813 2.73252C1.16186 2.73252 1.47173 2.64031 1.59623 2.82752C1.72214 3.00983 1.97114 3.0692 1.97114 3.0692L2.56149 3.00982L3.02664 2.91483L3.65127 2.79399C3.65127 2.79399 3.866 2.88689 4.05415 2.79399C4.24091 2.70178 4.42906 2.61167 4.52139 2.61167C4.61652 2.61167 4.9096 2.51247 5.01871 2.51946C5.54821 2.5481 5.82801 2.36229 5.95321 2.29942C6.07632 2.24214 6.10849 2.05773 6.10849 2.05773C6.10849 2.05773 6.01685 1.96763 6.01685 1.75248C6.01685 1.53454 6.20011 1.691 6.01685 1.53453C5.828 1.38295 5.92103 1.35152 5.67412 1.29284C5.42441 1.22858 5.0481 1.10773 5.0481 1.10773C5.11455 0.804572 5.51604 0.743099 5.64265 0.743099Z" fill="white" fill-opacity="0.18"/>
</svg>
