<svg width="4" height="6" viewBox="0 0 4 6" fill="none" xmlns="http://www.w3.org/2000/svg">
<path d="M3.15804 1.68969C3.15804 0.751563 3.24338 0.957645 3.15804 0.632131C3.07131 0.311505 3.07128 0.0167176 2.89502 0.0167176C2.72085 0.0167176 2.42847 -0.0726887 2.27948 0.162017C2.15288 0.370179 1.90248 0.162015 1.72551 0.399515C1.54995 0.631427 1.58075 0.631434 1.43106 0.870332C1.28977 1.10224 1.22822 1.16371 1.08133 1.45639C0.936542 1.74977 0.790333 1.78121 0.7015 2.0746C0.615466 2.37217 0.380461 2.60268 0.323804 2.72493C0.265049 2.83879 0.176187 3.07698 0.144711 3.33823C0.12023 3.60297 0.0894533 3.45908 0.144711 3.89636C0.206264 4.34133 -0.320404 3.95712 0.323804 4.77999C0.965214 5.60286 0.904335 5.60286 1.10998 5.75234C1.31422 5.89624 1.46253 5.89624 1.46253 5.89624C1.72553 5.28013 1.66747 5.2487 1.78498 5.04403C1.90179 4.84145 1.69757 5.24801 2.07388 4.57323C2.45719 3.89636 2.42779 3.75106 2.45717 3.60297C2.48724 3.45907 2.36761 3.42834 2.48722 3.1601C2.60054 2.89885 2.57608 2.89885 2.69219 2.60267C2.8055 2.30859 2.5425 2.45738 2.83627 2.13397C3.12795 1.81055 3.15804 2.6327 3.15804 1.68969Z" fill="white" fill-opacity="0.18"/>
</svg>
