<svg width="4" height="2" viewBox="0 0 4 2" fill="none" xmlns="http://www.w3.org/2000/svg">
<path d="M3.10455 0.594971C3.26892 0.431515 2.48554 0.555857 2.23862 0.472033C1.99171 0.387511 1.8658 0.516736 1.70002 0.555853C1.53635 0.594971 1.20482 0.679493 0.876067 0.516736C0.54452 0.349089 0.876067 0.516735 0.54452 0.140227C0.215072 -0.232788 0.257034 0.224052 0.049293 0.516736C-0.157749 0.80453 0.341675 0.640391 0.54452 0.847156C0.669725 0.970796 1.45173 0.84714 2.07076 0.594971C2.26941 0.520228 2.2785 0.720017 2.52611 0.888363C2.77302 1.05461 2.52609 0.888354 2.773 1.30258C3.02131 1.71891 2.93811 1.47023 2.8136 0.929569C2.6905 0.388209 2.93877 0.763317 3.10455 0.594971Z" fill="white" fill-opacity="0.18"/>
</svg>
