<svg width="17" height="16" viewBox="0 0 17 16" fill="none" xmlns="http://www.w3.org/2000/svg">
<path d="M15.436 4.94985C15.8081 4.29393 15.5256 3.54301 15.9963 3.26011C16.4671 2.98 17.4078 1.73588 16.7433 1.56963C15.2367 1.19662 15.0513 1.38523 14.7708 1.66744C14.4869 1.95104 14.1098 1.57944 14.1098 1.57944C14.1098 0.827822 13.8259 0.726513 13.3572 0.543498C12.8865 0.358387 12.9781 -0.393195 12.5088 0.265518C12.0373 0.92493 12.1352 0.546288 11.9499 1.395C11.761 2.23883 11.6421 2.13056 11.291 2.70824C10.2628 4.40217 9.88716 4.30651 9.79133 4.96802C9.7011 5.62114 9.51506 5.62114 8.85826 6.18695C8.19726 6.75206 7.73071 6.65845 6.60177 7.69507C5.47423 8.73099 5.37909 7.98287 4.34738 9.01739C3.31566 10.0484 3.21917 9.8633 2.56656 10.8971C1.90767 11.933 2.27909 9.95832 1.44253 12.4025C1.44253 12.4025 -0.812543 13.1583 0.316395 13.9071C1.44533 14.6552 1.82373 14.3716 2.3861 14.5567C2.95057 14.7446 2.76519 15.1177 3.32687 15.2148C3.89623 15.3049 2.95407 15.2147 3.89625 15.3048C4.83283 15.397 4.92934 15.2084 5.68056 15.2993C6.43459 15.395 6.99768 15.2049 7.27887 14.9213C7.55865 14.6391 6.99837 14.8312 8.21544 13.6975C9.43671 12.5687 9.43671 12.2872 9.80952 11.4406C10.1837 10.5954 9.9935 9.93942 10.4642 9.56082C10.935 9.18431 10.3705 9.37363 11.4057 8.99782C12.4339 8.61922 11.5911 8.62479 12.9046 8.3363C14.2189 8.0492 13.7482 8.05059 14.219 8.0492C14.6939 8.0492 12.8095 7.77261 13.4656 7.02379C14.1217 6.27077 15.0625 5.61485 15.436 4.94985Z" fill="white" fill-opacity="0.18"/>
</svg>
