<svg width="13" height="9" viewBox="0 0 13 9" fill="none" xmlns="http://www.w3.org/2000/svg">
<path d="M3.12134 7.56476C4.24539 7.99296 4.05723 8.23815 4.55315 7.93429C5.05397 7.62693 5.23791 7.19734 5.48902 7.01572C5.73593 6.83131 5.89543 6.67484 6.17241 6.39892C6.73409 5.84918 6.85719 5.36021 6.85719 5.36021C6.85719 5.36021 7.10618 5.11362 7.54195 5.36021C7.97562 5.60399 8.18687 6.06712 8.60165 6.2201C9.78305 6.64411 10.0321 6.70766 10.2188 6.89208C10.4021 7.07719 11.3401 7.19804 11.3401 7.19804C12.0871 7.31818 12.1459 7.2609 12.5215 6.89208C12.8929 6.52395 13.0195 6.70767 12.7061 6.09436C12.3963 5.47965 12.3963 5.29803 12.0871 5.3609C11.7737 5.42237 10.7036 5.61377 10.5287 5.29803C10.1566 4.62605 9.84391 4.01204 9.84391 4.01204C9.84391 4.01204 9.59279 3.70399 9.34518 3.70399C9.09827 3.70399 8.6898 3.76616 8.53661 3.64252C7.85463 3.09557 7.58323 2.76656 7.41955 2.66038C6.73408 2.23358 6.48366 2.10925 6.3004 2.23359C6.11225 2.35653 5.80239 2.84968 5.55058 2.10924C5.30297 1.37579 4.92737 1.43866 4.92737 1.43866C4.92737 1.43866 4.43353 1.92902 4.24677 1.5595C4.05861 1.19417 4.12018 1.80538 4.05863 1.19417C3.99567 0.582957 3.99568 0.582957 3.99568 0.582957C3.99568 0.582957 3.74875 -0.153293 3.12273 0.029023C2.55826 0.195972 1.56782 0.399246 1.88048 1.25634C2.19034 2.10925 2.44146 2.17281 2.00219 3.09557C1.56783 4.01204 1.19641 3.82763 1.56782 4.38156C1.93994 4.93131 2.06933 4.56388 1.88048 5.1751C1.69442 5.7884 1.00896 5.66755 0.8243 5.84987C0.635444 6.03358 -0.361998 6.09435 0.13952 6.39961C0.635441 6.70766 0.883746 6.70766 1.56782 6.58751C2.2526 6.46108 2.87583 5.97212 3.06399 6.34164C3.24585 6.70767 2.73174 7.41737 3.12134 7.56476Z" fill="white" fill-opacity="0.18"/>
</svg>
