<svg width="22" height="14" viewBox="0 0 22 14" fill="none" xmlns="http://www.w3.org/2000/svg">
<path d="M21.259 8.86795C21.1988 8.77086 21.0743 8.53057 21.0743 8.53057C21.0743 8.53057 20.9491 8.4663 20.8239 8.28398C20.7022 8.09748 20.7022 7.94799 20.6357 7.85439C20.5721 7.76218 20.4518 7.54773 20.3266 7.60641C20.2021 7.66788 20.0762 7.26762 19.923 7.57568C19.767 7.88233 19.7964 8.0374 19.6075 7.94729C19.4236 7.85369 19.2997 7.79292 19.2997 7.70001C19.2997 7.60571 19.1151 7.45204 18.9262 7.48417C18.7395 7.5156 18.4919 7.36332 18.3646 7.48417C18.2422 7.60571 17.7127 7.66788 17.7127 7.66788C17.7127 7.66788 17.5861 7.30185 17.6805 7.26762C17.7742 7.24108 17.961 6.90299 17.8659 6.90299C17.7742 6.90299 17.7448 6.59913 17.5854 6.68924C17.4315 6.77935 17.2755 6.56421 17.2755 6.56421C17.2755 6.56421 17.7448 6.0452 17.6182 6.07803C17.4937 6.10667 17.1846 5.86078 17.1846 5.86078C17.1846 5.86078 16.4809 5.32781 16.3424 5.40115C15.9759 5.59534 15.7919 5.51641 15.6898 5.54575C15.6597 5.55693 15.6443 5.56112 15.6569 5.55274C15.6653 5.54715 15.6793 5.54854 15.6898 5.54575C15.8822 5.4745 16.8097 5.06655 16.8097 5.06655C16.8097 5.06655 16.8418 4.82067 16.7159 4.72637C16.5928 4.63347 16.4669 4.48329 16.4047 4.38968C16.3431 4.29957 15.2869 3.93005 15.1596 3.96288C15.0372 3.99362 14.7581 4.11725 14.7274 4.26674C14.6938 4.42251 14.5364 4.51262 14.6616 4.72637C14.7882 4.94152 15.0372 4.97365 15.1009 5.1867C15.1596 5.40045 15.1009 5.64634 14.8826 5.55204C14.6616 5.45983 14.2265 5.27751 14.074 5.24678C13.9181 5.21953 13.7935 5.0938 13.7935 4.87725C13.7935 4.6649 13.8852 4.48258 13.8229 4.29887C13.7586 4.11655 13.9474 3.80851 13.6963 3.80851C13.4508 3.80851 13.4508 3.74703 13.1088 3.68766C12.7646 3.62619 12.829 3.47251 12.3303 3.53119C11.8295 3.59545 11.179 3.47251 11.179 3.47251C11.179 3.47251 11.179 3.07155 10.9943 2.94861C10.8054 2.82777 10.8985 2.39887 10.4928 2.39887C10.092 2.39887 10.1207 2.18652 9.84087 2.03214C9.55618 1.87847 9.74854 1.93714 9.37362 1.57041C9.00081 1.20369 8.84624 0.928466 8.72174 0.928466C8.59513 0.928466 8.47131 0.866995 8.25238 0.746149C8.03695 0.619715 8.09851 0.438098 7.75647 0.405267C7.41373 0.374532 7.19618 0.438098 6.94927 0.317253C6.69956 0.191517 6.51142 0.130046 6.26451 0.0664798C6.0148 0.00920034 5.85531 0.0399351 5.63777 0.00919983C5.41954 -0.0236311 5.05024 0.0399357 4.95581 0.0664798C4.86068 0.100708 4.33398 0.284424 4.33398 0.284424C4.11505 0.651152 4.05349 0.928466 4.45779 0.928466C4.86138 0.928466 5.14465 1.08144 5.45452 1.04931C5.76438 1.02067 6.04556 0.895633 6.19875 1.02067C6.35752 1.13942 6.82338 1.29519 6.6646 1.386C6.51072 1.47821 5.98053 1.29519 5.66996 1.32872C5.3608 1.35736 4.89424 1.44747 4.70608 1.386C4.51863 1.32872 4.3004 1.17225 4.36685 1.386C4.42771 1.59905 4.11574 1.84634 4.11574 1.84634L3.80517 1.78486C3.46593 1.54108 2.90638 1.44677 2.7462 1.54108C2.59302 1.63119 2.25027 1.69475 2.2209 1.90641C2.18662 2.12156 2.09429 2.21306 2.2209 2.42961C2.3419 2.64266 2.37477 2.6713 2.68464 2.73277C2.9938 2.79703 3.30717 2.79703 3.49393 2.8585C3.68209 2.91648 3.92968 2.79703 4.08566 2.88784C4.23954 2.97935 4.26823 3.13442 4.26823 3.13442C4.26823 3.13442 3.95976 3.37821 3.83596 3.43968C3.71145 3.49976 3.49392 3.59406 3.36942 3.47111C3.24491 3.34538 3.1225 3.07016 2.96512 3.03733C2.80914 3.00799 2.49788 2.88784 2.31322 3.03733C2.12436 3.19589 2.00336 2.94722 1.6865 3.10159C1.37803 3.25317 1.34795 2.97865 1.13041 3.16306C1.13041 3.16306 1.66062 3.28391 1.53612 3.49975C1.40951 3.71281 1.06746 3.96008 1.06746 3.96008C1.06746 3.96008 1.43888 4.17244 1.46826 4.35824C1.50113 4.53847 0.567352 4.20247 0.444246 4.38688C0.319741 4.572 0.319735 4.26395 0.319735 4.572C0.319735 4.87516 -0.086654 5.06376 0.473618 5.03093C1.03459 5.00229 1.34725 5.15457 1.59486 5.15457C1.84387 5.15457 1.97049 5.00229 2.2209 5.15457C2.46641 5.30615 2.34189 5.36762 2.77976 5.27542C3.21552 5.18391 3.7744 5.54994 3.83596 5.39766C3.90031 5.24399 4.77044 4.66281 4.39272 5.0917C4.02131 5.5206 3.80518 5.64354 3.24491 5.73365C2.68463 5.82865 2.37478 5.61071 2.09429 5.73365C1.81241 5.85729 1.81241 5.73365 1.37734 5.70781C0.942276 5.67428 1.25563 5.67428 0.878616 5.43049C0.5065 5.18391 0.0693248 5.39766 0.0693248 5.39766C0.0693248 5.39766 -0.0866561 5.36693 0.0693248 5.76579C0.228803 6.16255 0.691868 6.43987 0.783498 6.77586C0.878626 7.11465 1.12972 7.23759 1.1584 7.36053C1.19337 7.48137 1.25563 7.4206 1.62705 7.48137C2.00336 7.54354 2.52866 7.36053 2.62239 7.36053C2.71752 7.36053 2.96511 7.23759 3.27428 7.20476C3.58694 7.17612 3.83596 6.86946 3.90031 7.05108C3.95907 7.23759 4.3004 7.29906 3.80517 7.44854C3.30646 7.60292 2.93086 7.36053 2.62239 7.57218C2.31253 7.78943 2.00335 7.23759 1.87535 7.69652C1.75294 8.15406 2.12437 8.25185 2.37478 8.52568C2.62239 8.7981 3.21553 8.95387 3.21553 8.95387C3.21553 8.95387 3.34003 9.10545 3.52539 9.04398C3.71215 8.98251 3.92968 8.76527 4.02201 8.73663C4.11644 8.70799 4.14792 8.55431 4.39343 8.58714C4.64454 8.61578 4.55291 8.18898 4.64454 8.61578C4.73897 9.04398 4.45849 9.07472 4.73898 9.04398C5.01946 9.01255 5.54615 8.67446 5.54615 8.67446C5.54615 8.67446 5.82663 8.58715 6.01479 8.52568C6.19875 8.46141 6.29387 8.36921 6.60304 8.25115C6.9164 8.12332 6.44917 7.9431 7.07169 8.15336C7.69212 8.36921 7.78655 8.33777 7.75647 8.52498C7.72709 8.70799 7.84809 8.76457 8.0985 8.70799C8.34541 8.64443 8.7511 8.49284 8.84623 8.58714C8.93716 8.67446 8.72173 8.7981 8.5035 8.86307C8.28666 8.92174 7.75645 8.92174 7.63055 8.98251C7.50884 9.04398 7.13393 8.64512 7.29062 8.98251C7.4466 9.31921 7.16611 9.38277 7.94252 9.28708C8.72173 9.19697 9.24842 9.16623 9.37362 9.1348C9.49813 9.10616 9.40651 9.04468 9.71917 9.10616C10.029 9.16623 8.96863 9.56579 8.81265 9.56579C8.65737 9.56579 7.63056 9.53296 7.38435 9.53296C7.13394 9.53296 6.9164 9.53295 6.60304 9.56579C6.29387 9.59443 6.10711 9.53296 5.76438 9.65799C5.42024 9.77954 5.67067 9.44284 5.42026 9.77954C5.17544 10.1176 5.17544 9.71807 4.73898 9.84101C4.30111 9.95976 3.90031 9.41002 4.30111 9.95976C4.7068 10.5158 5.08101 10.7316 5.32932 10.8511C5.58043 10.9768 5.48809 11.0034 5.79795 11.0977C6.10782 11.1878 6.23164 10.7309 6.42119 11.0669C6.60375 11.4029 6.51211 11.4029 6.54568 11.5838C6.57366 11.7703 6.70097 11.7424 6.9171 11.7424C7.13534 11.7424 7.47738 11.6167 7.60188 11.6474C7.72849 11.6802 7.9733 11.4344 8.12928 11.6167C8.28876 11.8011 8.63079 11.7424 8.72312 11.8297C8.81405 11.924 7.85019 12.1378 7.60188 12.1378C7.35077 12.1378 7.08079 11.8088 7.00874 12.0456C6.88424 12.4752 7.41512 12.6589 7.60188 12.8126C7.78724 12.9662 7.97329 12.9334 8.44193 13.1185C8.90708 13.3029 8.90708 13.057 9.09384 13.3029C9.2813 13.5481 9.24983 13.611 9.62335 13.611C9.99686 13.611 9.93461 13.5488 10.2773 13.4852C10.6194 13.4238 10.5606 13.2435 11.0237 13.3365C11.4902 13.4238 11.9896 14.0392 11.8001 13.4566C11.614 12.874 11.4287 12.7818 11.6462 12.6589C11.8637 12.5359 12.1337 12.5548 12.2393 12.6281C12.6401 12.9062 12.7947 12.8126 12.829 13.0899C12.8577 13.3644 12.8906 13.4238 13.078 13.3644C13.2662 13.3029 13.3585 13.2435 13.292 13.1185C13.234 12.997 13.171 12.5974 13.234 12.6917C13.292 12.7818 13.3907 12.749 13.7593 13.0284C14.137 13.3029 14.3524 13.4566 14.4441 13.4566C14.5371 13.4566 14.7882 13.4238 14.8505 13.1492C14.912 12.874 14.9749 12.4451 14.9749 12.4451C14.9749 12.4451 14.4441 12.1685 15.0666 12.0784C15.6898 11.9862 15.8157 11.924 15.7828 12.1685C15.7521 12.4123 15.6583 12.2621 15.7521 12.4123C15.8458 12.566 16.1913 12.0784 16.1256 11.9541C16.0668 11.8304 16.1256 11.6174 15.9738 11.5552C15.8157 11.4965 15.6304 11.4351 15.5975 11.1598C15.5653 10.8818 15.3464 10.9433 15.5352 10.6066C15.7241 10.2699 15.6898 10.0876 15.878 10.1791C16.0668 10.2692 16.5592 10.0233 16.3438 10.3307C16.1256 10.6352 15.8458 10.6352 15.9409 10.8818C16.0318 11.1326 16.0011 11.4972 16.1913 11.4644C16.3746 11.4358 16.1585 11.7438 16.7166 11.3743C17.2769 11.0048 17.2475 11.0376 17.4035 10.9433C17.5567 10.8518 17.0279 11.0991 17.7455 10.6695C18.4597 10.2364 17.3391 10.6352 18.5842 10.2112C19.825 9.78024 19.7341 9.71877 19.9845 9.71877C20.2314 9.71877 20.4658 9.62516 20.5455 9.56579C20.8568 9.3199 21.1366 9.19696 21.1366 9.19696L20.8868 9.2298C20.8875 9.23399 21.3219 8.95876 21.259 8.86795Z" fill="white" fill-opacity="0.18"/>
</svg>
