<svg width="2" height="3" viewBox="0 0 2 3" fill="none" xmlns="http://www.w3.org/2000/svg">
<path d="M0.844608 2.41063C1.30066 2.6146 1.17686 2.81787 1.42727 2.41063C1.67838 2.00129 1.42726 2.08372 1.67837 1.79733C1.92319 1.51093 2.04979 1.22452 1.92319 1.10368C1.79868 0.982833 1.42656 0.89971 1.42656 0.653827C1.42656 0.409342 1.3832 0.241697 1.3832 0.241697L0.557131 0C0.432626 0.201177 0.181516 0.492471 0.181516 0.734162C0.181516 0.982839 -0.277337 0.982832 0.26405 1.14419C0.804737 1.30765 0.64037 0.859198 0.804744 1.30765C0.968419 1.75751 0.264049 1.92026 0.557824 2.16684C0.844605 2.41063 0.389256 2.20526 0.844608 2.41063Z" fill="white" fill-opacity="0.18"/>
</svg>
