<svg width="5" height="5" viewBox="0 0 5 5" fill="none" xmlns="http://www.w3.org/2000/svg">
<path d="M4.79333 0.231131C4.79333 -0.0720305 4.60588 -0.0105611 4.10856 0.048814C3.61054 0.110285 3.54829 0.417644 3.29928 0.600658C3.04817 0.780879 3.04817 1.02955 2.6138 0.780876C2.17873 0.539185 2.05353 1.21397 1.80312 1.27684C1.55551 1.33691 1.80312 1.58209 2.05353 2.00959C2.30324 2.43919 2.4914 2.43918 2.36689 2.68367C2.24029 2.92955 1.92973 2.6243 1.74437 2.37981C1.55621 2.13393 1.55621 2.01029 1.05959 1.94952C0.55807 1.88945 0.499314 2.31625 0.127898 2.56283C-0.247715 2.80662 0.311158 3.23482 0.437762 3.60434C0.437762 3.60434 0.683974 3.72868 0.874928 3.78805C1.05959 3.84952 1.24705 3.91099 1.49396 4.03184C1.74437 4.15408 2.42844 3.91099 2.92576 3.60434C3.42378 3.29908 3.17337 3.54077 3.48534 3.17405C3.7952 2.80662 3.54829 2.80662 4.29392 2.43919C4.54433 2.31625 4.48207 1.94952 3.98405 0.844445C3.87214 0.594371 4.79333 0.539183 4.79333 0.231131Z" fill="white" fill-opacity="0.18"/>
</svg>
