<svg width="5" height="2" viewBox="0 0 5 2" fill="none" xmlns="http://www.w3.org/2000/svg">
<path d="M2.46146 0.262641C2.24043 0.241686 2.29361 0 1.80048 0C1.30946 0 0.936643 0.0237468 0.742192 0.0447027C0.544943 0.0712468 0.421121 0.0447027 0.323896 0.0447027C0.195893 0.0447027 -0.219589 0.189998 0.149029 0.41213C0.516948 0.627976 0.765974 0.698529 0.886982 0.845918C1.01149 0.989816 1.57875 1.25735 1.67388 1.2343C1.776 1.21055 2.04668 1.11136 2.36564 1.40125C2.6853 1.69393 2.85668 1.52279 3.17843 1.54793C3.49459 1.57238 4.03738 1.59823 4.28499 1.40125C4.5291 1.20985 5.04671 1.35375 4.5291 0.919261C4.0136 0.481283 2.68669 0.286391 2.46146 0.262641Z" fill="white" fill-opacity="0.18"/>
</svg>
