<svg width="5" height="6" viewBox="0 0 5 6" fill="none" xmlns="http://www.w3.org/2000/svg">
<path d="M2.72192 2.73825C3.05346 2.49097 2.76598 2.61391 3.05346 2.49096C3.58925 2.12004 3.34096 2.12005 3.71378 1.91049C4.0838 1.70303 4.00475 2.36733 4.08379 1.70303C4.16843 1.04082 4.08377 1.04081 4.0446 0.831252C4.00473 0.62309 3.87885 0.498771 3.96348 0.331124C4.04462 0.167668 4.00477 0 4.00477 0C4.00477 0 3.76274 0.459653 3.71378 0.623109C3.5487 1.16377 3.4207 1.27972 3.30039 1.45295C2.93317 1.99431 2.88909 1.99432 2.59811 2.2423C2.31343 2.49027 2.14627 2.49027 2.1057 2.69913C2.06513 2.9045 2.14626 2.9045 1.94202 3.15458C1.73498 3.40186 1.40345 3.6114 1.32371 3.73714C1.23977 3.86148 0.86623 3.94531 0.743823 4.10877C0.61722 4.27362 0.497607 4.19398 0.372403 4.48457C0.249996 4.77516 -0.122818 5.06295 0.0408567 5.2313C0.236008 5.42829 0.455673 4.85899 0.660617 4.81638C0.86556 4.77516 0.992151 4.65013 1.19849 4.5251C1.40344 4.39866 1.36288 4.39866 1.60979 4.19329C1.8581 3.98583 1.96722 3.902 2.10502 3.77766C2.59744 3.32222 2.66596 3.30476 2.68345 3.15458C2.72192 2.73825 2.39387 2.99042 2.72192 2.73825Z" fill="white" fill-opacity="0.18"/>
</svg>
