<svg width="4" height="2" viewBox="0 0 4 2" fill="none" xmlns="http://www.w3.org/2000/svg">
<path d="M2.95879 0.802293C2.72377 0.683543 2.64684 0.602529 2.5685 0.328705C2.49156 0.0576755 2.21595 0.21275 1.94455 0.0548826C1.67036 -0.101588 1.63049 0.134515 1.12687 0.0548826C0.618362 -0.0226542 0.735879 0.0946988 0.618369 0.0548826C0.500159 0.0164634 0.346284 0.0946868 0.109865 0.173621C-0.125855 0.253253 0.0735118 0.3287 0.191022 0.842818C0.304336 1.34925 0.462406 1.15436 0.65406 1.07473C0.849211 0.996495 0.967417 1.11733 1.5158 1.23329C1.70745 1.2745 1.71094 1.34925 1.98234 1.4687C2.25163 1.58884 2.13762 1.54485 2.36844 1.66569C2.60486 1.78165 3.07073 1.50502 3.07073 1.50502C3.2302 1.39046 3.42532 1.42959 3.30711 1.15367C3.191 0.879146 3.19101 0.918249 2.95879 0.802293Z" fill="white" fill-opacity="0.18"/>
</svg>
