<svg width="5" height="3" viewBox="0 0 5 3" fill="none" xmlns="http://www.w3.org/2000/svg">
<path d="M1.25287 0.0866247C1.00246 0.176735 0.503016 0.766997 0.41978 1.01917C0.333745 1.27343 -0.204846 1.5724 0.0847328 1.91118C0.37711 2.25207 0.71007 2.50423 0.834575 2.50423C0.95908 2.50423 1.08499 2.71729 1.50117 2.54895C1.91875 2.37921 2.0894 2.04112 2.21041 2.20737C2.33422 2.37921 2.7959 2.50424 2.95957 2.25137C3.12534 1.99501 3.25053 2.04112 3.4177 1.86858C3.58207 1.70093 3.63526 1.67508 3.79194 1.5724C4.25009 1.27343 4.28995 1.27343 4.33122 0.975157C4.37389 0.682473 2.33425 -0.293375 1.25287 0.0866247Z" fill="white" fill-opacity="0.18"/>
</svg>
