<svg width="26" height="9" viewBox="0 0 26 9" fill="none" xmlns="http://www.w3.org/2000/svg">
<path d="M24.3712 6.89169C24.714 6.86096 24.6552 6.86096 24.9357 6.89169C25.2155 6.92382 25.3393 6.86096 25.5254 6.86096C25.5254 6.86096 25.8331 6.55082 25.7408 6.55082C25.6499 6.55082 25.2442 6.46769 25.2442 6.46769C25.2442 6.46769 25.1511 6.15545 25.0553 6.09607C25.0553 6.09607 25.0553 5.81945 25.2148 5.72794C25.3687 5.63434 25.4925 5.57426 25.4925 5.42059C25.4925 5.26621 25.6149 4.92883 25.524 4.86875C25.4295 4.80938 25.4295 4.62217 25.1211 4.62217C24.8077 4.62217 24.5881 4.59353 24.5881 4.59353C24.4965 4.28828 24.4685 4.16533 24.344 4.16533C24.2202 4.16533 24.1229 4.1339 23.9362 4.04239C23.7515 3.94949 23.5934 3.94949 23.5934 3.94949C23.5934 3.94949 22.9115 4.04239 22.7856 4.01096C22.6618 3.98023 22.5785 3.78184 22.4722 3.73574C22.0378 3.55203 21.7287 3.45632 21.6035 3.45632C21.4776 3.45632 21.1019 3.45632 21.1019 3.45632C21.1019 3.45632 21.1355 3.18181 20.9508 3.18181C20.7634 3.18181 20.3913 3.21464 20.2968 3.24328C20.2031 3.27401 20.2031 2.96875 19.8611 3.21464C19.5184 3.45633 19.5813 3.36412 19.3631 3.45632C19.1434 3.55202 18.9588 3.58136 18.9588 3.58136C18.6167 3.76368 18.6167 3.76368 18.6167 3.76368C18.6167 3.76368 18.5881 3.98022 18.4957 3.76368C18.3985 3.55202 18.3363 3.39765 18.2117 3.42839C17.9313 3.48986 17.6844 3.36482 17.6844 3.36482C17.4025 3.30754 17.6843 3.24397 17.4025 3.30754C17.1255 3.36482 17.1779 3.20625 16.9989 3.36482C16.6575 3.67287 16.6673 3.60371 16.4687 3.67287C16.0343 3.82445 15.9392 4.04239 15.6916 4.04239C15.4412 4.04239 15.1299 4.01096 14.9445 4.07243C14.7592 4.1339 14.5731 4.34626 14.4472 4.28828C14.3255 4.22471 14.0128 4.19397 13.8569 4.22471C13.6995 4.25545 13.5729 4.1339 13.4484 4.28828C13.3239 4.43776 13.1686 4.25615 13.2036 4.53206C13.2308 4.80938 13.4197 4.74651 13.2308 4.80937C12.7049 4.83801 12.4873 4.86876 12.5202 4.74581L11.962 4.53136C11.7109 4.28757 11.5221 4.22471 11.5221 4.22471L11.1178 4.16533C11.1178 4.16533 10.7757 4.10596 10.6813 4.1339C10.5897 4.16533 10.4659 4.04239 10.2147 4.1339C9.96573 4.22471 10.0909 4.1339 9.96574 4.22471C9.623 4.37629 9.60621 4.44265 9.50059 4.37629C9.15855 4.16533 9.18793 4.10595 9.0963 4.04169C9.00327 3.97952 8.9697 3.94879 8.75357 3.94879C8.53603 3.94879 8.35068 4.01026 8.35068 4.13321C8.35068 4.25545 8.1919 4.07174 8.15972 4.34556C8.12964 4.62218 8.1919 4.50063 8.12965 4.62217C8.06599 4.74581 7.76661 4.46081 7.72394 4.37629C7.59944 4.1332 7.57008 3.79791 7.59945 3.70571C7.63233 3.6128 7.63231 3.48986 7.53998 3.42839C7.44346 3.36482 7.32246 3.24397 7.19796 3.21533C7.07275 3.1825 6.94684 3.11824 6.82233 3.15246C6.69643 3.1832 6.38657 3.1832 6.41874 3.06096C6.45092 2.94081 6.54185 2.75431 6.41874 2.72567C6.29424 2.69493 6.20332 2.60063 6.07742 2.60063C5.95291 2.60063 6.04382 2.56989 5.76404 2.63346C5.48635 2.69493 5.23875 2.75431 5.23875 2.75431C5.29751 2.44905 5.61016 2.60062 5.2975 2.44904C4.98764 2.29676 4.7701 2.29676 4.7701 2.29676C5.02051 2.08022 4.89321 2.05089 5.14362 2.05089C5.39263 2.05089 5.45419 1.93004 5.54861 1.98942C5.63954 2.05089 5.57799 2.20456 5.95291 2.17592C6.32502 2.1417 6.26207 2.11236 6.60411 2.11236C6.94685 2.11236 6.72861 2.11236 6.94684 2.11236C7.16507 2.11236 7.23013 2.11235 7.35464 2.08022L7.47774 1.68206C7.47774 1.68206 6.94685 1.46621 6.7587 1.46621C6.57474 1.46621 6.23269 1.44037 6.23269 1.44037C5.8277 1.18959 5.76335 1.16096 5.60947 1.09949C5.45349 1.04011 5.32968 1.07084 5.26742 0.946505C5.20447 0.826358 5.31219 0.798422 5.17369 0.703422C4.86243 0.485481 4.6414 0.433783 4.48891 0.336688C4.05524 0.0621654 4.14549 0.02864 3.93005 0.02864C3.71182 0.02864 3.83631 0 3.55443 0C3.27884 0 3.30752 2.55018e-07 3.02703 0.02864C2.74724 0.0621694 2.27861 0.0621718 2.12403 0.0922086C1.96735 0.120848 1.96734 0.273126 1.81206 0.337391C1.65538 0.400957 1.25459 0.337391 1.25459 0.337391C1.09791 0.366031 0.813936 0.148087 0.725803 0.273822C0.50827 0.583271 0.418032 0.586069 0.348086 0.674782C0.13265 0.947907 0.0703961 1.0415 0.0403191 1.13301C0.0088431 1.22522 -0.0562197 1.22522 0.10186 1.3775C0.256442 1.52908 0.194206 1.56401 0.41174 1.7156C0.627875 1.86927 0.445299 2.05229 0.662833 2.14309C0.878968 2.2374 0.725092 2.38688 0.941227 2.41971C1.15946 2.45114 1.15947 2.35824 1.28607 2.45114C1.40988 2.54265 1.40987 2.66908 1.53157 2.78504C1.65608 2.91007 1.782 2.97225 1.87433 3.03582C1.96735 3.09379 2.21635 3.15456 2.21635 3.24676C2.21635 3.33897 2.21635 3.45982 2.30938 3.7085C2.40521 3.95228 2.54301 4.14158 2.43459 4.2275C2.06178 4.53416 2.02961 4.34835 1.87433 4.62497C1.72044 4.90019 1.74982 4.78004 1.72044 4.90019C1.69106 5.02313 1.50219 5.14886 1.69105 5.36051C1.87431 5.57706 1.84494 5.54423 1.90649 5.73004C1.96735 5.91515 2.09185 5.82155 2.18348 6.06883C2.27931 6.30633 2.12402 6.30633 2.21635 6.52636C2.30938 6.73942 2.4052 7.01673 2.52621 7.0803C2.65631 7.13758 2.8102 7.04817 2.87035 7.20115C2.9326 7.35273 3.12008 7.50431 3.2131 7.56578C3.30823 7.63214 3.55513 7.63213 3.55513 7.63213C3.55513 7.63213 3.77196 7.68802 3.89786 7.72015C4.2406 7.81236 4.33155 7.53573 4.33155 7.53573V7.22979L4.64491 7.10964L4.61552 7.56578C4.61552 7.56578 4.80089 7.72015 4.92469 7.81236C5.0492 7.90247 5.2968 7.90246 5.26742 7.99677L5.76335 8.08827H6.07671C6.07671 8.08827 6.3565 8.05963 6.45023 8.08827C6.54116 8.1211 6.75799 8.12111 6.85452 8.12111C6.94615 8.12111 7.10352 8.0289 7.19725 8.0289C7.28818 8.0289 7.38402 8.0289 7.50572 7.96673L8.12824 7.63283C8.12824 7.63283 8.31499 7.25912 8.47167 7.29195C8.47167 7.29195 8.72139 7.081 8.81372 7.17111C8.90885 7.25912 8.84659 7.84169 8.84659 7.84169L9.00118 8.33416C9.00118 8.33416 9.43624 8.30343 9.56075 8.30343C9.68735 8.30343 9.80905 8.21122 9.90418 8.30343C9.99511 8.39563 10.4309 8.30342 10.5883 8.33416C10.7442 8.36699 10.8981 8.0289 11.0856 8.0289C11.2744 8.0289 11.3332 7.81235 11.429 7.9332C11.5199 8.05893 11.5493 8.17699 11.6766 8.21052C12.0187 8.30272 12.2362 8.14905 12.2362 8.14905L12.8279 8.24126L13.1378 8.14905C13.1378 8.14905 13.6065 7.841 13.6687 7.9325C13.731 8.0282 13.8555 8.05824 13.9485 8.08687C14.0408 8.11971 14.0114 8.36559 14.2584 8.17769C14.5095 7.99537 14.2283 7.96463 14.5095 7.99537C14.7879 8.0275 14.634 7.87243 14.7878 8.02751C14.9431 8.17769 15.1628 8.14835 15.1628 8.14835L15.4398 8.02751L15.7825 7.96533C16.0952 8.0275 16.0951 8.24126 16.3134 8.24126C16.5316 8.24126 16.9037 8.24126 17.059 8.20982C17.2164 8.17839 17.5291 8.05824 17.5291 8.05824C17.8389 7.99537 18.181 7.96534 18.2733 7.9325C18.3698 7.90177 18.4286 7.71945 18.3971 7.63144C18.3698 7.53504 18.2278 7.25004 18.3698 7.25772C18.7713 7.29055 18.8951 7.38346 18.8665 7.53504C18.8329 7.68662 18.7923 7.76416 18.8951 7.81166C19.4232 8.05824 19.547 8.08688 19.6393 8.11971C19.7401 8.14835 19.9296 8.11483 20.0164 8.14835C20.4829 8.33277 20.734 8.30202 20.734 8.30202C21.1362 8.4536 21.6664 8.42776 21.6664 8.42776L22.3813 8.17839C22.3813 8.17839 22.8772 7.93251 23.1283 7.99607C23.3752 8.05894 23.6382 8.05894 23.7844 7.99607C24.1222 7.841 24.0607 7.99607 24.1222 7.841C24.1845 7.68732 24.2782 7.25842 24.2782 7.17041C24.2796 7.0789 24.032 6.92382 24.3712 6.89169Z" fill="white" fill-opacity="0.18"/>
</svg>
