<svg width="4" height="6" viewBox="0 0 4 6" fill="none" xmlns="http://www.w3.org/2000/svg">
<path d="M1.83564 3.93042C2.2903 4.26013 1.91818 4.09597 2.29029 4.26013C2.66101 4.42288 2.45467 4.62896 2.78972 4.91326C3.11986 5.20036 2.91282 5.15845 3.28843 5.3212C3.65985 5.48675 3.49548 5.73054 3.65985 5.48675C3.82423 5.24087 3.82422 4.99639 3.61648 4.91326C3.40944 4.83293 3.2052 4.83292 3.03733 4.54653C2.87016 4.26013 2.74495 4.29924 2.70508 3.93042C2.66171 3.56369 2.70508 3.81028 2.49734 3.48546C2.2903 3.15506 2.08255 3.93043 2.16369 2.95248C2.25042 1.96965 1.91818 2.05277 1.91818 1.76568C1.91818 1.48138 1.77969 1.51211 1.95945 1.31583C2.4148 0.825459 2.45467 0.82546 2.5407 0.499945C2.59246 0.296673 2.29029 0.499941 1.71113 0.380493C1.12988 0.256154 1.16975 0.0927086 0.754267 0.216348C0.338784 0.336495 0.0883717 -0.437486 0.0513 0.380493C0.00793312 1.19428 -0.115164 1.52329 0.296822 1.76499C0.715102 2.01157 0.547225 1.72726 0.715097 2.01156C0.88087 2.29796 0.258348 2.29796 0.798336 2.50193C1.33413 2.7073 1.25298 2.29796 1.33412 2.7073C1.42085 3.11734 1.29565 3.15506 1.49989 3.35903C1.71113 3.5644 1.37679 3.6063 1.83564 3.93042Z" fill="white" fill-opacity="0.18"/>
</svg>
