<svg width="2" height="2" viewBox="0 0 2 2" fill="none" xmlns="http://www.w3.org/2000/svg">
<path d="M1.17554 0.679876C1.61131 0.827265 1.70014 0.887338 1.72952 0.769984C1.75889 0.651933 1.4078 0.56391 1.26161 0.386484C1.11542 0.210454 0.997908 0.0910241 0.881097 0.0910241C0.762187 0.0910241 0.646077 -0.0235512 0.471211 0.00439003C0.296344 0.0316327 0.267655 0.211169 0.267655 0.211169C0.0634109 0.387199 -0.114263 0.416524 0.0913797 0.534576C0.295624 0.652628 0.412427 0.62957 0.503358 0.711298C0.825812 1.00328 0.706903 1.00329 0.880371 1.12134C1.05594 1.24428 1.11401 1.06267 1.17486 1.35745C1.23292 1.65153 1.11468 1.94561 1.29235 1.88764C1.46652 1.82686 1.58334 2.09439 1.46653 1.62149C1.35112 1.15277 1.1147 1.03472 1.14408 0.85939C1.17556 0.679868 0.998579 0.798626 1.17554 0.679876Z" fill="white" fill-opacity="0.18"/>
</svg>
