<svg width="14" height="7" viewBox="0 0 14 7" fill="none" xmlns="http://www.w3.org/2000/svg">
<path d="M13.6374 4.47144C13.8535 4.28633 13.6374 4.47145 13.3904 4.04186C13.3457 3.96502 13.3394 3.94686 13.3296 3.92311C13.3261 3.91892 13.3282 3.9231 13.3247 3.91821C13.1072 3.67093 13.3247 3.91821 13.2016 3.64229C13.082 3.36637 13.0162 3.42436 13.0491 3.24693C13.082 3.05972 13.0491 3.24692 13.1414 2.93887C13.2324 2.63082 13.1701 2.38494 13.2016 2.08039C13.2317 1.77024 13.2016 2.08038 13.0162 1.80586C12.8316 1.52854 12.9869 1.65218 12.9533 1.46497C12.9246 1.28266 13.0162 1.34413 13.082 1.09964C13.1407 0.853762 12.7064 1.09965 12.3972 0.76156C12.3308 0.6952 11.9922 0.730821 11.8362 0.517071C11.6789 0.304019 11.3697 0.517075 10.9633 0.606487C10.8101 0.644207 10.6835 0.853066 10.6835 0.853066C10.6835 0.853066 10.154 1.00674 10.0624 0.914534C9.96725 0.824424 9.71964 0.8859 9.65599 0.730128C9.59374 0.576451 9.62731 0.484938 9.65599 0.149643C9.69166 -0.187048 9.09711 0.17828 8.97121 0.0287949C8.84671 -0.126279 8.78865 0.395529 8.78865 0.395529C8.78865 0.395529 8.53755 0.545015 8.38297 0.395529C8.22699 0.240456 8.35219 0.178987 8.01015 0.178987C7.91152 0.178987 7.44568 0.545711 7.20016 0.545711C6.94906 0.545711 7.26241 0.332664 7.13791 0.178987C7.01201 0.0295016 6.51469 0.366194 6.29715 0.332664C6.07892 0.304025 5.86139 0.886598 5.98379 0.886598C6.1104 0.886598 6.38809 0.978103 6.54477 0.978103C6.69795 0.978103 6.85743 1.00814 6.91968 1.09964C6.98193 1.19045 7.07496 1.34483 7.04069 1.52854C7.01201 1.71086 7.32117 1.52854 7.44568 1.61865C7.57228 1.71086 7.81989 1.71086 7.9437 1.77024C8.0689 1.83241 8.25356 2.01891 8.31931 2.10903C8.38297 2.20123 8.5998 2.29413 8.5998 2.60148C8.5998 2.90534 9.00619 2.93818 9.00619 2.93818C9.00619 2.93818 9.09712 3.212 9.03766 3.18336C8.97191 3.15262 8.84741 3.18336 8.38366 2.93818C8.22139 2.85505 8.01085 2.84457 7.97728 2.6895C7.9444 2.54001 7.47785 2.54001 7.47785 2.41707C7.47785 2.29413 7.04138 2.35561 6.98263 2.10903C6.92037 1.86733 6.67277 1.98608 6.38949 1.52854C6.1118 1.06961 6.04744 1.55927 5.86278 1.46497C5.67183 1.37486 5.42492 1.34413 5.27104 1.25053C5.11436 1.15972 4.9283 1.31549 4.74014 1.49361C4.55479 1.68082 4.74015 1.77024 4.52471 2.13906C4.46665 2.23406 4.77301 2.44571 5.14653 2.6888C5.22487 2.74119 5.36267 2.87392 5.4578 2.87392C5.55083 2.87392 5.79704 2.93747 5.79704 2.93747C5.79704 2.93747 5.89076 3.27416 5.92294 3.36497C5.95581 3.45648 6.64129 3.7324 6.64129 3.82601C6.64129 3.91681 6.1118 3.82601 6.1118 3.82601C6.1118 3.82601 5.95581 3.91682 5.76905 3.79457C5.5809 3.66954 5.64665 3.7331 5.55082 3.54869C5.45779 3.36497 5.42492 3.57942 5.0535 3.33773C4.92061 3.25041 5.08218 2.87392 5.08218 2.87392C5.08218 2.87392 4.64781 3.02968 4.52401 2.93747C4.4002 2.84387 4.2764 3.02969 4.18127 2.75307C4.08755 2.47994 4.18127 2.75307 4.08754 2.53932C3.99521 2.32347 4.08754 2.53932 3.80706 2.23406C3.70144 2.11741 3.83783 2.04686 3.55805 1.71017C3.49789 1.63472 3.12228 1.61795 2.93832 1.55858C2.74736 1.49361 2.77955 1.49362 2.77955 1.25053C2.77955 1.00744 2.49975 1.15972 2.37455 1.06961C2.25354 0.978101 2.036 0.915234 1.84365 0.669352C1.66039 0.424168 0.164241 0.517072 0.0432331 0.640712C-0.0833703 0.761558 0.105483 1.00744 0.134861 1.28267C0.164238 1.55858 0.448222 1.65218 0.600705 1.8324C0.758085 2.01891 0.665758 2.01891 0.382474 2.66086C0.105486 3.3049 0.60071 2.8753 0.728013 2.93887C0.849021 3.00034 1.47154 2.90605 1.6604 2.84528C1.84366 2.78381 1.69327 3.15332 1.69327 3.15332C1.66039 3.27487 1.84365 3.61296 1.84365 3.61296C1.84365 3.61296 2.15632 3.30491 2.12764 3.48792C2.09406 3.67024 2.40742 3.82671 2.40742 3.82671H2.90405C2.99708 3.76175 3.21461 3.79527 3.21461 3.79527L3.55805 4.01112C3.55805 4.01112 3.55805 4.16269 3.52588 4.3478C3.4972 4.53012 3.52587 4.34781 3.43564 4.62443C3.33981 4.89895 3.55805 4.80604 4.20995 4.89894C4.86465 4.98905 4.39951 4.86891 4.58417 4.71454C4.77163 4.56156 4.83387 4.59369 5.20739 4.49939C5.5802 4.41138 5.36127 4.53013 5.73689 4.71454C5.81942 4.75715 6.17335 4.74318 6.45314 4.71454C6.73293 4.68241 6.79587 4.86891 6.98263 4.71454C7.16799 4.56156 7.23024 4.59369 7.2925 4.49939C7.35475 4.41138 7.63524 4.37784 7.72687 4.3478C7.8206 4.31637 8.0689 4.41137 8.41164 4.2549C8.75577 4.10332 8.28714 4.59369 8.28714 4.59369C8.19551 4.53012 7.88215 4.77811 7.88215 4.77811L7.54291 5.11479C7.54291 5.11479 7.79122 5.57094 7.88215 5.66314C7.97658 5.75675 7.85277 6.1549 7.85277 6.1549L7.91571 6.73818C7.91571 6.73818 9.06564 6.98197 9.40768 6.88836C9.74902 6.79755 9.74902 6.85553 9.84135 6.77241C9.93648 6.67601 10.1834 6.73818 10.3408 6.70605C10.4968 6.67601 10.559 6.70605 10.8101 6.70605C11.057 6.70605 10.9346 6.73818 11.1528 6.79755C11.3704 6.85623 11.5529 6.88836 11.5529 6.88836C11.5529 6.88836 11.9286 6.88837 12.0845 6.73818C12.2405 6.58311 12.3979 6.55446 12.5189 6.52512C12.6448 6.49299 12.7987 6.52513 13.0169 6.00053C13.2324 5.48153 13.0169 6.00053 12.9253 5.69387C12.8323 5.38931 12.7987 5.7267 12.5483 5.6338C12.3028 5.54089 12.428 5.6338 12.4888 5.05193C12.5483 4.47145 12.4888 5.05193 12.9253 4.92829C13.0197 4.90244 13.0498 5.08336 13.1421 5.29501C13.2331 5.51295 13.5772 5.42075 13.6101 5.29501C13.6388 5.17486 13.6388 5.11549 13.517 4.80744C13.3897 4.49939 13.4191 4.65167 13.6374 4.47144Z" fill="white" fill-opacity="0.18"/>
</svg>
