<svg width="20" height="10" viewBox="0 0 20 10" fill="none" xmlns="http://www.w3.org/2000/svg">
<path d="M19.7989 3.4985C19.7989 3.451 19.3478 3.05703 19.3478 3.05703C19.3478 3.05703 18.926 3.0256 18.898 2.94946C18.868 2.86633 18.5378 3.0256 18.493 2.99347C18.4462 2.95994 18.2133 3.15343 18.0118 3.03957C17.9069 2.98857 18.2126 2.66026 18.2126 2.5967C18.2126 2.53243 17.653 2.47376 17.5145 2.43814C17.3725 2.40531 17.4075 2.32707 17.4368 2.23416C17.4662 2.13846 17.5145 2.10633 17.532 2.04347C17.546 1.9792 17.7033 1.70957 17.7033 1.70957C17.7033 1.70957 17.7033 1.70957 17.532 1.51887C17.4564 1.43784 17.2823 1.47137 17.2347 1.4078C17.1899 1.34633 17.1899 1.2171 17.1899 1.15354C17.1899 1.09207 17.2039 1.01174 17.2983 0.902067C17.3907 0.788906 17.5614 0.603096 17.4662 0.524163C17.3725 0.443133 17.1571 0.475964 17.0927 0.475964C17.0305 0.475964 16.7682 0.713461 16.7682 0.713461C16.7682 0.713461 16.7059 0.901363 16.6311 0.980995C16.5506 1.06202 16.4884 1.06203 16.3933 1.10813C16.3016 1.15284 16.196 1.21641 16.1016 1.09207C16.0043 0.96354 15.8218 0.932104 15.8218 0.932104C15.8218 0.932104 15.7427 0.724645 15.7085 0.584939C15.6798 0.442439 15.5084 0.505297 15.4448 0.378863C15.3853 0.253826 15.2111 0.142067 15.0286 0.0289052C14.8397 -0.0793669 14.6837 0.15604 14.5606 0.0924738C14.4389 0.0289076 14.2976 0.332764 14.3739 0.459198C14.4515 0.584235 14.4809 0.77493 14.4809 0.77493C14.4809 0.77493 14.39 1.09137 14.3277 1.1235C14.2648 1.15284 14.155 1.34563 14.1305 1.27997C14.0941 1.21641 13.8311 1.20103 13.6429 1.07879C13.4576 0.948862 13.4415 1.1235 13.2708 0.996365C13.1002 0.867836 13.1002 1.04456 12.7742 1.25063C12.7742 1.25063 12.7441 1.42317 12.6819 1.61317C12.6196 1.80178 12.5413 1.82203 12.5413 1.82203C12.5413 1.82203 12.2454 1.67674 12.1985 1.53494C12.151 1.39244 11.8719 1.47067 11.718 1.42247C11.5627 1.37497 11.3466 1.32677 11.2669 1.3589C11.1878 1.39243 11.1878 1.53493 11.1423 1.58313C11.0962 1.62783 11.1878 1.836 11.1878 1.9317C11.1878 2.0253 11.4053 2.04277 11.4501 2.0253C11.5005 2.00994 11.5431 2.33824 11.5431 2.33824C11.4599 2.21181 11.2151 2.5499 11.1325 2.33824C11.0493 2.12938 10.9255 1.95615 10.9255 1.74519C10.9255 1.53494 10.5506 1.57824 10.5107 1.27997C10.4681 0.985891 9.97143 1.27997 9.97143 1.27997L9.59933 1.4071C9.35102 1.49092 9.05934 1.62085 9.05934 1.62085C9.05934 1.62085 9.09921 2.00016 9.05934 2.16711C9.01667 2.33825 8.80962 2.29633 8.39763 1.87302C8.24725 1.72074 7.77441 1.74519 7.48484 1.57825C7.19456 1.40711 7.48484 1.57824 7.15679 2.08538C7.15679 2.08538 7.32047 2.63233 7.32047 2.80067C7.32047 2.97321 6.94555 3.18346 6.94555 3.18346C6.94555 3.18346 6.94555 3.18346 6.90568 2.88729C6.86581 2.59041 6.65527 3.13945 6.20132 3.05563C5.74387 2.9732 6.20132 3.05564 5.99358 3.39372L5.91245 4.23685L5.53543 4.02798C5.53543 4.02798 5.53543 3.51876 5.53543 3.39372C5.53543 3.2645 5.28712 2.97251 5.16472 2.76156C5.04091 2.5499 4.62682 2.76156 4.58556 2.63233C4.54429 2.50729 5.20389 1.95615 5.20389 1.95615C5.20389 1.95615 5.16471 1.4071 5.12134 1.15284C5.08357 0.901364 4.62612 1.06902 4.21414 0.730931C4.21414 0.730931 3.79936 0.562582 3.67205 0.436846C3.54965 0.309714 3.21459 0.393541 3.04952 0.226592C2.88584 0.0575483 2.5529 0.184672 2.22415 0.184672C1.89051 0.184672 1.97374 0.522766 1.97374 0.522766C1.97374 0.522766 2.18078 0.480854 2.34446 0.436846C2.51163 0.393538 2.63475 0.730931 2.51164 1.10884L2.96979 1.57825C2.96979 1.57825 2.67742 1.74519 2.51164 1.74519C2.34447 1.74519 2.22345 1.70328 1.7653 1.32328C1.638 1.2185 1.39389 1.35611 1.33443 1.39243C1.3785 1.42876 1.43725 1.74519 1.43725 1.74519L0.979105 1.95615L1.1015 2.37946C1.1015 2.37946 1.10152 2.63232 0.687433 2.67633L0.106864 2.9285C-0.0169413 2.97251 -0.0169394 3.18346 0.025728 3.64868C0.0690949 4.1139 0.0257309 3.64869 0.146739 3.60468C0.272642 3.56207 0.397861 3.77163 0.772774 3.6906C0.772774 3.6906 1.43795 3.81563 1.72613 3.34761C1.72613 3.34761 2.01641 3.34762 2.43119 3.2645L2.88515 3.43353L3.26008 3.05494C3.26008 3.05494 3.92177 3.22677 4.04698 3.13876C4.17078 3.05493 4.0036 3.30851 3.96373 3.47685C3.92176 3.64799 3.79936 3.98328 3.79936 3.98328L3.38106 4.23615L4.21343 4.57633C4.21343 4.57633 3.99381 4.74957 3.7441 4.57633C3.49649 4.3996 3.63497 4.57633 3.5888 4.56096C3.54194 4.5428 3.43493 4.7349 3.38807 4.7349C3.3377 4.7349 3.18731 4.79986 3.06141 4.84596C2.9376 4.89137 2.46966 4.9249 2.23884 4.89137C2.00172 4.86203 1.89331 4.95633 1.80238 4.96821C1.71005 4.98637 1.17985 5.05134 1.02666 5.05134C0.867885 5.05134 0.762272 5.23784 0.714009 5.28813C0.667844 5.33842 0.71401 5.636 0.867892 5.60457C1.02667 5.57453 1.08893 5.71703 1.16377 5.636C1.24071 5.55776 1.47502 5.62203 1.53587 5.60457C1.60162 5.5885 2.1619 5.51096 2.23884 5.4481C2.31508 5.38453 2.40811 5.60457 2.5487 5.5885C2.68719 5.57523 2.704 5.55777 2.8285 5.47744C2.95511 5.3992 3.01734 5.52423 3.1999 5.46276C3.38876 5.3992 3.23138 5.52424 3.29363 5.62204C3.35588 5.71704 3.38876 5.95314 3.41744 6.1138C3.45101 6.27167 3.60211 6.3017 3.65107 6.31986C3.70073 6.33244 4.44356 6.1138 4.44356 6.1138C4.44356 6.1138 4.44355 6.23814 4.35192 6.28564C4.2575 6.33174 4.2736 6.41067 4.16448 6.56923C4.05677 6.7292 4.18126 6.74317 4.22603 6.7292C4.27289 6.71593 4.50581 7.0177 4.50581 7.12597C4.50581 7.23564 4.30508 7.31457 4.19456 7.39211C4.08754 7.47314 3.884 7.5374 3.73011 7.6331C3.57693 7.72601 3.04603 7.76233 2.87536 7.83917C2.70399 7.9174 2.73687 7.98096 2.70399 8.18633C2.67461 8.3924 2.92013 8.36516 3.17123 8.42593C3.41745 8.4895 3.57763 8.5845 3.79306 8.4895C4.0113 8.3924 4.524 8.40846 4.74153 8.3924C4.95837 8.37773 5.0367 8.44199 5.1752 8.3924C5.31299 8.3428 5.40813 8.252 5.67463 7.99774C5.93903 7.74277 5.75086 8.1074 5.85927 8.2052C5.96839 8.2988 5.99778 8.34211 6.07751 8.36446C6.15516 8.37773 6.33982 8.5342 6.40347 8.59777C6.46572 8.66483 6.80776 8.67531 6.93157 8.69487C7.05677 8.71024 6.94556 8.80733 6.96164 8.9617C6.97843 9.12097 7.13582 9.1049 7.35405 9.15589C7.57088 9.2013 7.57087 9.21876 7.67509 9.26347C7.78701 9.31097 7.95837 9.37384 8.09687 9.50307C8.23466 9.6281 8.65575 9.66233 8.65575 9.66233C8.65575 9.66233 9.06003 9.75523 9.46572 9.6756C9.86932 9.59876 9.86933 9.74126 10.0708 9.75523C10.2715 9.7706 10.4135 9.7706 10.5373 9.64556C10.6639 9.51564 10.7087 9.4395 10.8017 9.32843C10.8968 9.21877 11.1438 9.35847 11.1438 9.35847C11.1438 9.35847 11.2515 9.61552 11.4235 9.46883C11.5928 9.32843 11.6579 9.35847 11.7817 9.31097C11.9041 9.26347 11.8915 9.0595 11.9999 8.78777C12.023 8.7263 12.3098 8.88347 12.3426 8.75634C12.3748 8.6313 12.7889 8.42524 12.7889 8.42524C12.7889 8.42524 13.1974 8.4406 13.3681 8.4406C13.5352 8.4406 13.5352 8.52372 13.645 8.45876C13.7535 8.391 13.8647 8.37634 14.0822 8.32744C14.2997 8.28204 14.3417 8.18493 14.4208 8.04453C14.5005 7.90063 14.5327 7.99634 14.6858 7.94954C14.8027 7.91321 14.9216 7.7246 15.1839 7.43052C15.4469 7.12527 15.3685 7.45777 15.3874 7.39141C15.4014 7.33063 15.5721 7.48991 15.8854 7.29921C16.1981 7.10781 16.1156 7.1588 16.2268 6.99814C16.3331 6.84027 16.4744 6.90383 16.5366 6.87519C16.5982 6.84027 16.9703 6.9192 17.1585 6.88567C17.3452 6.85563 17.4536 6.95273 17.4536 6.95273C17.4536 6.95273 17.6243 6.75923 17.7796 6.66703C17.9335 6.56853 17.9509 6.56854 18.0307 6.50707C18.1055 6.44351 18.1384 6.23744 18.1384 6.23744C18.1384 6.18854 18.2461 6.1131 18.2762 5.90494C18.3077 5.69887 18.3385 5.8749 18.5266 5.69887C18.7113 5.52285 18.8183 5.6346 18.8183 5.6346C18.8183 5.6346 19.0071 5.53891 19.0862 5.39711C19.1645 5.25461 19.0862 5.28674 19.1778 5.03038C19.2729 4.78101 19.4877 4.96751 19.5667 4.90814C19.6451 4.84457 19.7206 4.89067 19.7206 4.8299C19.7206 4.76494 19.6912 4.03777 19.6912 3.98678C19.6912 3.94277 19.5059 3.78071 19.5534 3.67313C19.5982 3.56416 19.7989 3.4985 19.7989 3.4985Z" fill="white" fill-opacity="0.18"/>
</svg>
