<svg width="86" height="65" viewBox="0 0 86 65" fill="none" xmlns="http://www.w3.org/2000/svg">
<path d="M85.6727 38.8087C85.565 38.6697 85.423 38.1751 85.423 38.1751C85.423 38.1751 85.423 37.9649 85.2796 37.7518C85.1376 37.5374 85.2439 37.149 85.1376 37.149C85.0299 37.149 84.9215 36.9038 84.855 36.7976C84.7816 36.6935 84.7109 36.3778 84.6025 36.2716C84.4969 36.162 84.4612 35.9517 84.4969 35.8441C84.5319 35.7401 84.6025 35.4551 84.6025 35.3139C84.6025 35.1735 84.741 34.6434 84.741 34.5037C84.741 34.3619 84.9509 33.9029 84.8802 33.7639C84.8075 33.6179 84.8474 33.3748 84.8075 33.1646C84.7718 32.9508 84.7718 32.7364 84.7327 32.6323C84.6991 32.5247 84.5613 32.3871 84.7711 32.1356C84.9803 31.8925 85.1614 32.3145 85.1215 31.5377C85.0866 30.763 85.0467 30.3718 84.9432 30.478C84.8347 30.5842 84.4878 31.4315 84.4878 31.4315C84.1346 31.75 83.9541 31.5768 83.9541 31.5768C83.9541 31.5768 83.8828 31.4671 83.745 31.2918C83.6016 31.1144 83.2421 30.8007 83.1749 30.6904C83.1036 30.5884 82.9581 29.6307 82.6762 29.6719C82.3922 29.7076 81.7508 29.1089 81.7508 29.1089C81.7508 29.1089 81.8564 28.7575 81.6837 28.7575C81.5053 28.7575 80.9758 28.4083 80.9758 28.4083C80.9758 28.4083 80.5526 28.3021 80.4785 28.1945C80.4071 28.0904 80.4414 27.5945 80.2637 27.6294C80.0889 27.6685 79.914 27.5253 79.8734 27.3151C79.8392 27.1027 79.87 26.465 79.8 26.3581C79.7294 26.254 79.9098 26.326 79.7294 25.9048C79.5538 25.4773 79.4069 25.3704 79.4069 25.3704C79.4069 25.3704 79.4069 25.5862 79.1992 25.5862C78.9844 25.5862 78.7032 25.5506 78.6676 25.4444C78.6284 25.3396 78.6676 25.2328 78.5619 25.1601C78.457 25.0938 78.6676 24.9149 78.35 24.9149C78.0311 24.9177 77.9996 24.609 77.8877 24.778C77.6072 25.2006 77.6142 25.6896 77.4645 25.5513C77.1455 25.2726 77.2134 24.8157 77.1091 24.6013C77.0042 24.3931 76.8623 24.3205 76.8623 24.0006C76.8623 23.6841 77.0378 23.506 76.7867 23.1896C76.5398 22.8724 76.7482 22.8019 76.4293 22.5916C76.111 22.373 76.2915 22.1285 76.0404 22.0286C75.7942 21.9203 75.9327 21.8847 75.7907 21.7422C75.6473 21.6067 75.4018 21.4635 75.4018 21.4635C75.4018 21.4635 75.2584 21.2511 75.4018 21.0381C75.543 20.8278 75.9697 20.649 75.6137 20.5798C75.2583 20.5093 75.4346 20.6539 75.0121 20.4052C74.5862 20.1593 74.1252 20.1971 74.1252 20.1971C74.1252 20.1971 74.8317 20.0168 74.4792 19.8422C74.1253 19.6655 73.4181 19.7039 73.3824 19.5593C73.3446 19.4196 73.1698 19.4196 73.1026 19.2072C73.0285 18.9977 72.955 18.749 72.7431 18.7211C72.5325 18.682 72.6354 18.4668 72.3535 18.4668C72.0723 18.4668 72.2444 18.3997 71.8576 18.4368C71.4686 18.4759 71.2896 18.4032 71.0791 18.1916C70.8643 17.9778 70.8965 17.8975 70.758 17.7327C70.2964 17.1703 70.2963 16.9545 70.2963 16.7449C70.2963 16.5319 70.4356 16.3209 70.2264 16.2874C70.0068 16.2511 69.9033 16.0764 69.7983 15.8264C69.6906 15.5798 69.6571 15.1209 69.6906 14.912C69.7242 14.6982 69.657 14.3469 69.657 14.3469C69.657 14.3469 70.1845 14.5557 69.5102 13.7818C68.8352 13.0043 68.9793 13.1454 68.9793 13.1454C68.9793 13.1454 68.8016 12.9044 68.6974 12.7577C68.5889 12.6208 68.7275 12.5146 68.4812 12.4441C68.2343 12.3756 68.3043 12.4043 68.2295 12.0201C68.163 11.631 68.2665 11.244 68.1959 11.068C68.1231 10.8891 68.1539 10.5001 68.1217 10.2884C68.0839 10.0782 68.0839 10.1124 68.0448 9.47743C68.0133 8.84107 68.2259 9.08974 68.0133 8.84106C67.7993 8.59798 67.6943 8.48901 67.5516 8.48901C67.4096 8.48901 67.481 8.41846 67.1949 8.24592C66.9124 8.0671 66.983 7.92599 66.7682 7.71154C66.5556 7.50338 66.7683 7.46635 66.5556 7.50337C66.1331 7.6808 65.8512 7.78698 65.8512 7.78698C65.4994 8.03915 65.589 7.94065 65.319 7.85822C64.8629 7.72411 65.0399 7.61026 64.8258 7.40209C64.6069 7.19184 64.7167 7.05073 64.6069 6.94106C64.5034 6.84257 64.5363 6.58621 64.4649 6.4472C64.3985 6.3075 64.5027 6.23485 64.3607 5.8821C64.2173 5.53074 64.2866 5.18146 64.2131 5.00474C64.1432 4.82452 64.2865 4.68691 64.1431 4.47525C64.0012 4.2608 64.1431 3.9786 64.0012 3.8375C63.8599 3.69919 64.0389 3.58951 63.7543 3.37856C63.471 3.1683 63.5024 3.09495 63.4311 2.92311C63.3597 2.74429 63.3961 2.60459 63.3276 2.39433C63.252 2.18337 63.5004 2.24973 63.1114 1.86344C62.7197 1.47157 62.8296 1.72375 62.7197 1.47158C62.6141 1.22919 62.7589 1.08668 62.6834 0.87363C62.6141 0.664071 62.5778 0.697594 62.47 0.381858C62.3658 0.0633289 62.5777 0.0633334 62.3658 0.0633334C62.1511 0.0633334 62.4316 -0.0791667 62.1511 0.0633334C61.8657 0.203039 61.6901 0.207229 61.6223 0.385354C61.5509 0.557891 61.5509 0.492239 61.516 0.844298C61.4838 1.19636 61.5181 1.40801 61.4467 1.65459C61.3796 1.90048 61.5908 1.72584 61.2753 2.15125C60.9529 2.57316 60.9172 2.64441 60.9172 2.85536C60.9207 3.06562 60.7787 3.03209 60.6374 3.31569C60.4955 3.59999 60.4269 3.28357 60.4954 3.6C60.5703 3.91993 60.6039 3.91992 60.7123 4.05892C60.8165 4.19793 61.0117 4.28455 60.8871 4.41377C60.4975 4.79797 60.6745 4.44662 60.4975 4.79798C60.3227 5.40081 60.6409 5.32816 60.501 5.64669C60.4185 5.8311 60.4423 5.84927 60.4458 5.86464C60.3779 5.93589 60.2611 6.06442 60.3591 5.96662C60.0072 6.35431 60.045 6.24673 60.1492 6.60229C60.2597 6.95504 60.2905 6.84537 60.2905 7.12827C60.2905 7.41607 60.2555 7.64588 60.2241 7.80305C60.1198 8.29761 60.0331 8.38422 60.0492 8.54279C60.087 8.89694 60.2436 8.86482 60.2989 9.00173C60.4752 9.46276 60.6039 9.63599 60.4752 9.775C60.2283 10.0621 60.4381 9.63598 60.2282 10.0621C60.1233 10.2702 60.0666 10.3408 60.0324 10.3792C60.0296 10.2598 60.0184 10.1473 60.0184 10.3953C59.9988 10.417 60.0037 10.4281 60.0184 10.4826C60.0184 11.0833 60.0898 10.6279 60.0184 11.0833C59.9464 11.5437 59.7708 11.6485 59.7708 11.6485C59.7708 11.6485 59.8792 11.6841 59.8086 12.0026C59.7386 12.3204 59.8086 12.0026 59.7386 12.3204C59.6687 12.6362 59.7043 12.2869 59.6687 12.6362C59.6337 12.9938 59.917 12.8164 59.6337 12.9938C59.3504 13.1706 58.9657 13.4178 58.9657 13.6323C58.9657 13.8425 58.8951 13.8831 58.8566 13.9815C58.7195 14.3734 58.3299 14.6912 58.3299 14.6912C57.9781 14.9015 58.0445 14.4761 57.7969 14.729C57.5535 14.9734 57.4779 14.6947 57.3031 14.868C57.1303 15.0461 57.1989 14.6947 56.8092 14.8344C56.4203 14.9783 56.4203 14.9784 56.4203 14.9784C56.4203 14.9784 56.3812 14.5893 56.2434 14.5934C56.1021 14.5934 55.958 14.416 55.7838 14.416C55.6062 14.416 55.6397 14.1673 55.4614 14.1338C55.2837 14.0961 54.969 14.0297 54.969 14.0297C54.969 14.0297 55.0382 13.7112 54.9305 13.6372C54.8235 13.5666 54.6822 13.2893 54.6822 13.2893C54.6822 13.2893 54.5052 13.1468 54.3297 13.2173C54.1513 13.2893 53.9743 12.9365 53.8666 13.0797C53.7603 13.2173 53.656 12.8283 53.3707 12.9365C53.0895 13.0448 53.1245 12.8653 52.9804 12.7612C52.8398 12.6571 52.6656 12.6187 52.5208 12.5153C52.1676 12.2688 52.3809 12.5153 52.1676 12.2688C51.7074 11.8839 51.6507 11.8077 51.5311 11.7071C51.1743 11.4263 51.352 11.0687 51.0673 11.0687C50.7862 11.0687 51.0337 11.1064 50.7861 11.0687C50.5364 11.0358 50.5015 11.2126 50.3259 11.2496C50.151 11.2838 50.0069 11.1441 49.8279 11.1441C49.6516 11.1441 49.6873 10.8633 49.4775 10.8256C49.2627 10.7949 49.2956 10.688 49.1914 10.5469C49.0865 10.403 49.1207 10.3331 48.9794 10.1585C48.8353 9.97896 48.678 9.83019 48.5898 9.76942C48.1967 9.52423 47.8813 9.41804 47.7379 9.31256L47.349 8.81941L47.5595 8.43102C47.9113 8.07617 48.0148 7.89874 48.1233 7.83098C48.2282 7.75833 48.3345 7.54808 48.3345 7.54808C48.3345 7.54808 48.5821 7.22817 48.5786 7.05074C48.5786 6.87681 48.8731 6.72033 48.7192 6.62812C48.4374 6.4507 49.1088 6.37875 49.1088 6.37875C48.6815 6.23974 48.3555 6.3522 48.3667 6.23974C48.4003 5.85485 48.3884 5.57753 48.5779 5.60128C49.2858 5.70746 49.2137 5.77941 49.4271 5.74029C49.6397 5.70746 49.6397 5.95405 49.7796 5.67184C49.9223 5.38824 50.0293 5.49511 49.8873 5.24923C49.746 5.00264 49.709 4.96701 49.8503 4.71763C49.9895 4.47315 49.8831 5.03616 50.1315 4.32925C50.3749 3.62024 50.5546 3.76415 50.5546 3.76415C50.2685 3.30312 50.079 3.1229 49.9853 3.05724C49.6334 2.81415 49.7384 2.2162 49.5593 2.60179C49.3865 2.98668 49.3488 2.92032 49.2823 3.23675C49.2075 3.55389 49.5649 3.48334 49.2075 3.55389C48.8549 3.62444 48.8885 3.41769 48.7493 3.34155C48.3597 3.13339 48.6073 3.30802 48.3597 3.13338C48.2142 2.42717 48.3562 2.28536 48.2142 2.42716C48.0743 2.57106 48.0044 2.70797 47.8288 2.85257C47.6504 2.99088 47.4399 2.99089 47.3357 3.10056C47.2294 3.20813 47.0391 3.33524 46.9076 3.24234C46.518 2.96362 46.4921 2.87142 46.3424 2.85745C45.9864 2.81764 46.0619 2.68072 45.8094 2.7848C45.5639 2.89307 45.6675 2.54103 45.4206 2.64511C45.1743 2.75129 45.3772 3.09007 45.2827 3.03279C44.8232 2.75477 44.5266 2.5955 44.3937 2.54102C43.8957 2.32866 43.9342 2.12331 43.7586 2.22948C43.5816 2.33077 43.5796 2.08279 43.2256 2.15334C42.8738 2.22948 42.9465 2.08557 42.8038 2.04995C42.6618 2.01642 42.6234 1.76775 42.4471 1.77124C42.2722 1.77124 42.5136 1.23897 42.268 1.34515C42.0239 1.45133 41.8827 1.52746 41.7393 1.48904C41.598 1.45482 41.4937 1.1754 41.3853 1.09996C41.2741 1.02941 41.3853 0.782134 41.1377 0.824046C40.8859 0.856877 40.8859 0.540425 40.604 0.788403C40.3228 1.03359 40.2158 0.678743 40.0403 1.0336C39.8633 1.38635 39.7919 1.28437 39.8633 1.38636C39.9339 1.49253 40.0437 1.7405 40.3228 1.77333C40.6082 1.80966 40.7852 1.70559 40.9237 1.8446C41.0671 1.985 41.3175 1.91654 41.3175 2.09326C41.3175 2.2679 41.4937 2.51099 41.3867 2.69052C41.2839 2.87074 41.107 3.08169 41.107 3.08169L40.753 3.15155C40.753 3.15155 40.5054 2.97482 40.3634 3.04886C40.22 3.11592 40.1536 3.01253 40.0444 3.25912C39.9423 3.505 39.6591 3.68521 39.6591 3.68521C39.2701 3.58113 39.019 3.08239 38.912 3.08728C38.912 3.08728 38.2762 3.264 38.0999 3.47495C37.9251 3.68801 37.9628 4.00723 37.8544 4.00723C37.7488 4.00723 37.2886 4.04287 37.1508 4.15114C37.1508 4.15114 36.9325 4.18677 36.9032 4.3621C36.8654 4.53883 36.6548 4.36208 36.4764 4.57653C36.3037 4.78679 36.2995 4.50111 36.3037 4.78681C36.3037 5.06832 36.3373 5.3575 36.4429 5.3575C36.4429 5.3575 36.0932 5.91701 36.0932 6.19922C36.0932 6.48491 35.7392 6.20482 35.4573 6.48493C35.172 6.77203 34.9775 6.89844 34.9642 7.12058C34.895 8.03914 34.895 7.68639 34.895 8.03914C34.895 8.3919 34.895 8.46245 35.1055 8.6769C35.3217 8.88436 35.393 9.38172 35.393 9.38172C34.8278 9.59547 34.6138 9.59547 34.4718 9.38521C34.4718 9.38521 33.9017 8.75165 33.6926 8.964C33.4793 9.17426 32.8434 9.17426 32.8434 9.17426C32.2097 10.1662 31.9251 10.0949 31.9251 10.0949V9.53051C31.9964 8.89555 31.711 8.47573 31.711 8.47573C31.071 7.84076 31.1423 7.48521 30.6492 7.48521C30.1491 7.48521 30.7157 7.91201 30.1491 7.48521C29.5846 7.064 29.2293 6.85375 29.2293 6.85375C29.2293 6.85375 28.7334 7.06399 28.6634 7.27984C28.6634 7.27984 28.0542 7.12129 27.8884 7.56206C27.6765 8.12996 27.1099 8.48413 27.1099 8.48413C26.4734 8.48413 26.3314 8.27316 26.1202 8.41356C25.4858 8.84176 25.413 9.12188 25.413 9.12188L25.3459 10.1131C25.3459 10.1131 24.5674 10.1857 24.424 10.5371C24.424 10.5371 24.2148 10.9618 24.219 11.2454C24.219 11.2454 24.4981 11.668 24.5751 12.0229L23.7231 12.1598L22.7991 11.6708L22.5927 12.588C22.5927 12.588 23.23 12.7989 23.3006 13.1531L22.5256 14.1415L22.3158 14.8526L21.8884 13.51L21.2141 12.838C21.2141 12.838 20.9651 12.6306 20.8951 12.7354C20.8217 12.8381 20.6504 12.8751 20.402 13.3347C20.1551 13.7957 19.52 14.2903 19.4522 14.4C19.3773 14.504 19.4123 14.6081 19.4522 14.7492C19.485 14.8931 19.6599 14.9288 19.6599 15.1774C19.6634 15.4226 19.4941 15.8054 19.5599 15.9479C19.7718 16.4432 19.5928 16.4467 19.4165 16.592C19.2409 16.7303 18.7478 17.0481 18.7478 17.0481C18.7478 17.0481 19.0304 17.0858 18.7821 17.4351C18.5365 17.7906 18.147 18.2537 18.0434 18.3942C17.9364 18.5325 17.8336 18.5681 17.6895 18.7462C17.5482 18.9236 17.267 19.1346 17.267 19.1346C16.7697 19.4175 16.243 19.7395 16.243 19.7395C16.243 19.7395 16.0654 19.7395 15.5345 19.8129C15.005 19.8827 14.9679 19.8492 14.7553 19.9889C14.5454 20.1328 14.579 20.0566 14.3684 20.239C14.1565 20.4143 13.8382 20.5938 13.8382 20.5938C13.8382 20.5938 13.5529 20.3815 13.4479 20.5226C13.3437 20.6658 13.3088 20.2048 13.0961 20.2446C12.8821 20.2781 12.6352 20.3158 12.4589 20.4548C12.2812 20.5994 12.2813 20.5254 12.07 20.7035C11.8567 20.8809 11.3293 21.059 11.3293 21.059C11.3293 21.059 11.0103 21.1981 10.8683 21.307C10.8683 21.307 10.4095 21.5536 10.2689 21.6291C10.1262 21.6954 9.9457 21.5913 9.9457 21.5913C9.9457 21.5913 8.88395 21.4663 8.71118 21.525C8.2866 21.6675 8.07397 21.5969 7.96975 21.7387C7.86483 21.8798 7.63959 21.7967 7.50739 21.9168C7.01427 22.3716 7.05133 22.0607 6.87576 22.4456C6.6953 22.8382 6.76875 22.5902 6.52044 22.8382C6.27632 23.0827 5.60205 23.3684 5.60205 23.3684C5.60205 23.3684 5.32157 23.5095 5.25022 23.6192C5.17468 23.7211 5.14598 23.865 4.96692 23.9698C4.78925 24.0781 4.25836 23.937 4.25836 23.937C4.25836 23.937 4.01496 24.1158 4.11918 24.2862C4.2234 24.4665 3.30709 24.9631 3.33997 25.0693C3.37774 25.1797 3.2658 25.4248 3.16788 25.6016C2.98881 25.9152 2.59854 25.4619 2.59854 25.4619C2.59854 25.4619 2.35092 25.2845 2.49292 25.1399C2.63701 25.0009 2.63701 24.8611 2.66569 24.7172C2.70346 24.5768 2.63282 24.296 2.63282 24.296C2.63282 24.296 2.52509 24.1871 2.31455 24.435C2.10401 24.6809 2.14389 25.0714 2.03338 25.3885C1.92916 25.7071 1.92915 25.7071 1.82073 25.9564C1.71441 26.1995 1.78927 26.1995 1.78927 26.4175C1.78927 26.6256 1.93334 27.0888 1.89907 27.1921C1.8641 27.299 1.86411 27.299 1.78927 27.6504C1.72282 28.0031 1.82912 28.0031 1.65146 28.2155C1.47519 28.4264 1.51368 28.4264 1.37029 28.745C1.22829 29.0621 1.19471 29.2395 1.12476 29.4519C1.05482 29.6649 0.98484 29.63 1.09326 30.0561C1.19888 30.4787 1.30383 30.7239 1.37797 30.8664C1.44512 31.0054 1.51714 30.4787 1.73048 31.0767C1.94172 31.6767 2.30054 32.2055 2.33551 32.3487C2.37048 32.4842 2.6545 32.7336 2.6545 32.8377C2.6545 32.9452 2.47891 33.1234 2.47891 33.2659C2.47891 33.4056 2.72724 33.226 2.68947 33.6535C2.65729 34.0761 2.41248 34.2193 2.41248 34.2193C2.41248 34.2193 2.23061 33.4754 1.98509 33.511C1.73748 33.5474 1.91445 33.1233 1.55702 33.0507C1.20239 32.9885 1.02615 32.633 1.06252 32.8761C1.10029 33.1233 1.66266 33.372 1.70392 33.6179C1.7382 33.8659 1.80464 34.0433 1.95013 34.2186C2.09002 34.3933 2.02078 33.97 2.09003 34.3933C2.16417 34.8187 2.02075 34.8536 1.91653 34.8187C1.81231 34.7824 1.87948 34.4303 1.45281 34.3975C1.03033 34.3618 0.924017 34.2186 0.853371 34.1146C0.782725 34.007 0.817004 33.6933 0.640039 33.5145C0.524627 33.4049 0.45606 33.3064 0.393108 33.2044C0.358834 33.145 0.322484 33.0856 0.284713 33.0214C0.176995 32.8467 0 32.6372 0 32.6372C0 32.6372 0.0371021 33.6235 0.284713 33.6235C0.533024 33.6179 0.60644 33.7974 0.60644 34.007C0.60644 34.2207 0.85338 34.4694 0.924026 34.57C0.996771 34.6783 1.10027 34.6112 1.28213 34.7824C1.45699 34.9605 1.56542 34.8892 1.77526 34.9961C1.99 35.1016 1.88367 35.6667 2.02147 35.7673C2.16905 35.8791 2.20262 35.7673 2.30614 36.0851C2.41386 36.4051 2.62931 36.3345 2.66219 36.5461C2.69996 36.7606 2.66637 37.3571 2.66637 37.5709C2.66637 37.7832 2.84683 38.4168 2.84683 38.4168C3.12662 38.7353 3.37841 39.0881 3.41199 39.2271C3.44836 39.3689 3.27491 38.9819 3.52043 39.6532C3.76734 40.3245 4.12405 40.321 4.16042 40.5326C4.19749 40.7471 4.4794 41.5204 4.41295 41.6266C4.3416 41.7362 4.30733 42.2245 4.30733 42.2245C4.30733 42.2245 4.48429 42.404 4.3437 42.58C4.20241 42.7596 4.37727 42.8629 4.3437 43.1794C4.31013 43.5014 4.4878 43.4281 4.51998 43.7445C4.55845 44.0623 4.47168 44.1322 4.69971 44.383C5.05504 44.7665 5.27048 45.1178 5.41177 45.2268C5.54956 45.3343 5.80137 45.6145 5.83425 45.7213C5.97764 46.1782 6.08676 46.32 5.98184 46.6748C5.87622 47.0262 5.94266 46.4995 5.87622 47.0262C5.80487 47.5585 6.05249 48.0831 6.05249 48.0831C6.05249 48.0831 5.91331 48.5476 5.84266 48.725C5.77551 48.9017 5.77131 48.5476 5.77551 48.9017C5.77551 49.2524 5.81256 49.3586 5.81256 49.6066C5.81256 49.8531 5.91748 49.7812 5.77969 50.1738C5.6356 50.5614 5.91679 50.3812 5.6356 50.5615C5.35232 50.7368 5.14177 50.7011 4.9676 50.845C4.78574 50.9882 4.60949 50.8807 4.57731 51.1622C4.54234 51.443 4.64937 51.5848 4.613 51.8314C4.57943 52.0828 4.47168 51.795 4.5794 52.0828C4.68222 52.3609 4.86129 52.2924 5.04176 52.328C5.21662 52.3609 5.42717 52.328 5.60623 52.4663C5.7811 52.6116 6.06577 52.5355 6.06577 52.678C6.06577 52.817 6.38545 52.8547 6.38545 53.0294C6.38545 53.204 6.5624 53.4198 6.63724 53.5924C6.70369 53.7719 7.23668 54.0534 7.23668 54.0534C7.23668 54.0534 7.80465 54.0862 7.83403 54.2266C7.8753 54.367 8.4041 54.3314 8.4041 54.3314L9.32458 54.219C9.32458 54.219 9.85621 54.1533 10.1738 54.3272C10.4934 54.5019 11.4146 54.147 11.4146 54.147L11.9749 53.8997L12.4002 53.5106L12.789 53.0866L13.5305 52.8694L14.4839 52.4139L14.8028 52.0186L15.0497 51.7371C15.0497 51.7371 15.8618 51.5191 16.0724 51.5932C16.2892 51.6637 16.6781 51.6232 16.7144 51.6973C16.7452 51.7671 17.4531 51.3752 17.4531 51.3752C17.4531 51.3752 17.8427 51.4095 17.9483 51.3752C18.0567 51.3389 18.4792 51.3389 18.4792 51.3389C18.4792 51.3389 18.6898 51.2327 18.7989 51.3389C18.9045 51.443 19.0793 51.2656 19.1878 51.443C19.2948 51.6176 20.0369 51.582 20.0369 51.582L20.7847 51.5114L21.2785 51.473C21.2785 51.473 21.5597 51.3291 21.6632 51.4018C21.7674 51.473 22.0863 51.3661 22.0863 51.3661C22.0863 51.3661 22.4746 51.2565 22.5858 51.2223C22.6893 51.1887 23.1503 50.7256 23.1503 50.7256C23.1503 50.7256 23.5356 50.4455 23.5685 50.3372C23.6077 50.2303 23.4643 50.3372 23.9246 49.7686C24.382 49.2049 24.7723 49.0631 24.9136 49.0261C25.0514 48.9932 25.6215 48.7809 25.7264 48.7418C25.8306 48.7041 26.4293 48.352 26.4293 48.352L26.9959 47.8553C26.9959 47.8553 27.3519 47.5382 27.3855 47.6416C27.4233 47.7492 27.9891 47.6793 27.9891 47.6793L29.6839 47.6723C29.6839 47.6723 30.1848 47.6723 30.3548 47.636C30.5338 47.6011 31.3123 47.3503 31.3123 47.3503L31.8789 47.2804L32.3021 46.9591C32.3021 46.9591 32.6539 46.8194 32.8344 46.6406C33.005 46.4632 33.082 46.3584 33.2568 46.3186C33.4331 46.2823 33.6101 46.2145 33.7863 46.2089C33.9654 46.2089 34.4592 46.2089 34.4592 46.2089C34.4592 46.2089 34.8488 46.1425 35.0251 46.2445C35.2007 46.35 35.7337 46.0322 35.8372 46.1006C35.9414 46.1719 35.9805 45.9986 36.545 46.1006C37.1095 46.2054 37.4984 45.8897 37.6425 46.0287C37.7838 46.1684 38.2426 45.991 38.2426 45.991C38.2426 45.991 38.8442 45.7772 39.0204 45.8848C39.196 45.9889 39.6926 46.2012 39.6926 46.2012C39.6926 46.2012 40.0472 46.5526 40.2592 46.656C40.4739 46.7601 40.2634 47.1505 40.4019 47.1841C40.5452 47.2218 40.9006 47.3231 40.9006 47.3231H41.4979C41.4979 47.3231 42.0316 47.1834 42.1358 47.0744C42.2421 46.9731 42.5248 47.1785 42.5248 47.1785C42.7052 47.5319 43.0207 47.6395 43.0207 47.6395C43.4844 47.4942 43.4138 47.4271 43.6222 47.4942C43.8362 47.5654 43.937 47.5906 44.0489 47.7401C44.3336 48.1285 44.4714 48.1662 44.5812 48.1955C44.6903 48.2346 44.9708 48.1613 45.0051 48.4442C45.0421 48.7264 45.2897 48.3401 45.0421 48.7264C44.7945 49.1183 44.5539 49.0121 44.6525 49.1532C45.0421 49.7183 45.3268 49.7183 45.3646 49.893C45.4017 50.069 46.0368 50.1724 46.0368 50.1724C46.1809 50.493 46.1683 50.5649 46.2137 50.6655C46.3907 51.0532 46.5327 51.1245 46.5369 51.2306C46.5369 51.3368 46.9265 51.4081 46.8559 51.582C46.7852 51.7622 46.8181 51.7922 46.8559 51.9347C46.8929 52.0745 46.9559 52.2603 46.9964 52.3588C47.1783 52.7849 47.1175 52.8659 47.1783 52.9916C47.3896 53.4561 47.7092 53.7726 47.7092 53.7726C47.7092 53.7726 48.2016 53.8389 48.2401 53.9437C48.2751 54.0513 48.5583 53.9437 48.5583 53.9437C48.5583 53.9437 48.8437 53.5903 48.7353 53.5903C48.6255 53.5903 48.6982 53.3095 48.7696 53.169C48.8402 53.0279 49.0872 52.7059 49.0872 52.7059L49.6488 52.1778L50.1077 51.7524C50.1077 51.7524 50.57 51.5066 50.5001 51.4716C50.4273 51.4339 50.7813 51.1147 50.7813 51.1147C50.7813 51.1147 51.0268 51.0106 51.131 50.9352C51.2408 50.866 51.4534 50.618 51.4534 50.618C51.8053 50.3351 51.8388 50.1242 51.8745 50.0194C51.9095 49.916 52.0864 49.6631 52.0864 49.6631L52.2963 49.3809C52.2963 49.3809 52.2243 49.133 52.3299 48.9199C52.4348 48.7076 52.8608 49.485 52.7559 49.485C52.6523 49.485 52.6894 49.8755 52.5817 49.9467C52.4754 50.0194 52.546 50.157 52.4754 50.3351C52.404 50.5084 52.5852 50.6914 52.4754 50.7962C52.3712 50.9002 52.1935 51.1482 52.1564 51.2565C52.1263 51.3613 52.0186 51.7133 51.9857 51.8195C51.9473 51.9236 52.0564 52.0675 51.9158 52.3162C51.7745 52.562 51.7745 52.5285 51.8123 52.701C51.8417 52.8792 52.0935 52.8435 51.9158 53.2661C51.7409 53.6943 51.9158 53.5505 51.7409 53.6944C51.5654 53.8341 51.4933 53.8648 51.2471 53.9046C50.9995 53.9409 51.2121 53.5882 50.9995 53.9409C50.7847 54.2923 50.7519 54.4711 50.7519 54.4711L51.0708 54.7918L51.3555 54.293L51.7738 54.256C51.7738 54.256 51.9543 54.184 52.0969 54.2203C52.2375 54.2546 52.4481 54.1484 52.4851 54.0443C52.5194 53.936 52.6586 53.6552 52.6943 53.4443C52.7293 53.2298 52.8335 52.8806 52.8335 52.8806C53.3308 52.9476 53.931 53.2284 53.8267 53.3004C53.7211 53.3674 53.968 53.4778 53.931 53.6189C53.8974 53.7558 54.0058 54.0401 53.9023 54.2902C53.7952 54.5333 53.7589 54.6779 53.7246 54.7848C53.6883 54.8881 53.7589 54.8881 53.6547 55.0998C53.5497 55.31 53.5637 55.3149 53.7246 55.3834C54.152 55.5594 54.6437 55.3457 54.6437 55.3457C54.6437 55.3457 55.4229 55.1675 55.3893 55.3799C55.3536 55.5874 55.639 55.5559 55.6006 55.695C55.5684 55.8388 55.46 56.2601 55.46 56.2601C55.46 56.2601 55.8496 56.5674 55.9237 56.6491C56.2084 56.9656 56.3217 56.9935 56.3133 57.106C56.2805 57.5656 56.3889 57.7766 56.3889 57.7766C56.3889 57.7766 56.3889 57.9547 56.3511 58.0958C56.3175 58.2376 56.5659 58.3095 56.4588 58.4465C56.3553 58.5931 56.4742 58.524 56.5294 58.7322C56.6728 59.2567 56.726 59.2833 56.7484 59.5068C56.7806 59.8952 56.8421 59.9008 56.9205 59.9993C57.2422 60.389 57.4178 60.5295 57.4891 60.6329C57.7367 60.9891 57.8067 61.0932 57.9158 61.2678C58.02 61.4459 58.4488 61.3363 58.4866 61.4459C58.4866 61.4459 59.0839 61.374 59.0839 61.4788C59.0839 61.4788 59.9359 61.8637 59.9009 61.9678C59.9009 61.9678 60.3583 62.1466 60.4668 62.1466C60.5752 62.1466 60.6437 62.0383 60.8193 62.1116C60.9976 62.1794 60.9934 62.0383 61.2453 62.1466C61.4936 62.2513 62.0196 62.317 62.0196 62.317C62.0196 62.317 62.6239 62.2094 62.5903 62.3862C62.5568 62.5622 62.9471 62.6306 62.9471 62.6306L63.2982 62.7389C63.2982 62.7389 63.5773 62.813 63.6171 62.9492C63.6535 63.0903 64.0431 63.2293 64.0431 63.2293C64.0431 63.2293 64.3579 63.1231 64.3957 63.1937C64.4334 63.2656 64.4334 63.2656 64.4334 63.2656L65.0671 62.9108L65.5966 62.5538L65.8449 62.2367L66.2339 61.9887L66.4094 62.1298L66.6941 61.9531C66.6941 61.6709 66.904 61.4222 66.904 61.4222L67.2565 61.1763C67.2565 61.1763 67.7167 61.3489 67.572 61.455C67.4356 61.5626 67.4684 61.8804 67.3642 61.9531L67.6832 62.1591L68.2469 61.7742C68.2469 61.7742 68.7093 62.1256 68.461 62.2667C68.2141 62.4078 68.0343 62.3373 68.0049 62.4413C67.9657 62.5482 68.1462 62.5482 68.2875 62.6181C68.4239 62.6907 68.817 62.7571 68.817 62.7571H69.3108L69.6298 63.0379C69.6298 63.0379 69.8459 63.2509 69.8459 63.3543C69.8459 63.4619 70.1998 63.6714 70.1998 63.6714C70.1998 63.6714 70.3047 63.8838 70.3747 64.0249C70.3747 64.0249 70.6223 63.742 70.6223 63.6351C70.6223 63.5289 70.9385 63.142 70.9385 63.142L71.2924 63.07C71.6114 62.9995 71.6113 62.9995 71.6113 62.9995C72.0338 62.4323 72.4234 62.222 72.4948 62.0802C72.5654 61.9391 72.9543 61.6164 72.9543 61.6164C72.9543 61.6164 72.9543 61.5116 73.3069 61.2664C73.658 61.0149 73.9406 60.7013 73.9441 60.8403C73.9441 60.98 74.3337 60.7998 74.3337 60.9116C74.3337 60.9116 75.108 60.4456 75.1793 60.6245C75.2458 60.8005 75.7487 60.869 75.7487 60.869C75.7487 60.869 76.1005 60.7642 76.2062 60.797C76.3118 60.8298 76.737 60.7237 76.737 60.7237C76.737 60.7237 77.091 60.6196 77.1945 60.6531C77.2994 60.6908 77.5848 60.5846 77.5848 60.5846C77.759 60.1935 77.8688 59.9154 77.8688 59.9154C78.0408 59.4872 78.2542 59.1324 78.2542 59.1324C78.2542 59.1324 78.3703 58.9026 78.2885 58.7796C78.0737 58.4653 78.18 57.9002 78.18 57.9002C78.18 57.9002 78.3542 57.6508 78.3542 57.472C78.3542 57.2946 78.4242 57.2946 78.4591 57.1178C78.4983 56.9425 78.4591 56.8398 78.4591 56.6945C78.4591 56.5576 78.4948 56.1686 78.4948 56.1686C78.7774 55.813 78.7774 55.7767 78.8459 55.565C78.9166 55.352 79.0921 55.0027 79.0921 55.0027L79.6545 54.3279C79.6545 54.3279 79.7958 53.9765 79.8308 53.8648C79.8665 53.7607 79.8665 53.5498 79.9021 53.4436C79.935 53.3395 80.0063 53.1271 80.0392 52.9504C80.077 52.7723 80.0392 52.562 80.1462 52.4908C80.254 52.423 80.3582 52.0654 80.3582 52.0654C80.3582 52.0654 80.5352 51.7112 80.5687 51.6058C80.6016 51.501 80.9912 51.0064 80.9912 51.0064C80.9912 51.0064 81.0618 50.9701 81.0954 50.72C81.1318 50.4748 81.1318 50.2988 81.1318 50.2988C81.1318 50.2988 81.1989 50.0857 81.413 49.9097C81.6235 49.7316 81.7648 49.4836 81.8739 49.4131C81.9802 49.3439 81.9803 49.4131 82.2607 49.1295C82.5405 48.8507 82.6147 48.7774 82.7916 48.5965C82.9651 48.4225 82.8252 48.5287 83.1057 48.2116C83.3875 47.891 83.6722 47.571 83.6722 47.571C83.6722 47.571 83.7771 47.0437 83.6722 47.0437C83.5624 47.0437 83.6331 46.7621 83.6331 46.7621C83.6331 46.7621 83.9136 46.4792 83.9136 46.3032C83.9136 46.1244 83.987 45.8771 83.987 45.8771C83.987 45.8771 84.1955 45.5942 84.1955 45.4517C84.1955 45.3106 84.3766 44.9585 84.3766 44.8524C84.3696 44.7455 84.5095 44.1832 84.5095 44.1832C84.5095 44.1832 84.7208 43.7221 84.6907 43.579C84.6515 43.4399 84.825 43.192 84.7914 42.9796C84.7571 42.7687 84.8243 42.5919 84.7914 42.4138C84.7571 42.2399 84.7571 42.133 84.7914 41.9535C84.8243 41.7816 85.0012 41.5658 85.0719 41.3884C85.139 41.2137 85.3516 40.965 85.3516 40.861C85.3516 40.7548 85.4244 40.5424 85.4915 40.4034C85.5622 40.2609 85.6664 40.1925 85.6664 39.9054C85.6664 39.6281 85.6335 39.4444 85.6335 39.4444C85.6335 39.4444 85.779 38.9484 85.6727 38.8087Z" fill="white" fill-opacity="0.18"/>
</svg>
