<svg width="10" height="7" viewBox="0 0 10 7" fill="none" xmlns="http://www.w3.org/2000/svg">
<path d="M6.50525 4.99209C6.69411 5.42168 6.94242 5.1765 7.37819 5.1765C7.81256 5.1765 7.99792 5.36023 8.68549 5.8492C9.36747 6.34166 9.0576 5.91065 9.49127 5.66966C9.92984 5.42098 9.55282 5.23588 9.0569 4.68404C8.55888 4.13569 8.49663 4.37878 7.99721 4.13569C7.50199 3.88841 7.31524 3.58315 6.94173 3.39804C6.56681 3.21433 6.62906 3.09349 6.38215 2.6646C6.13244 2.23779 5.88133 1.9919 5.50991 1.49664C5.1364 1.00977 4.76288 1.25705 4.39286 1.19697C4.01725 1.13061 3.08207 0.643744 2.71065 0.703817C2.33923 0.765288 1.83702 0.151976 1.4656 0.029035C1.09279 -0.0939062 -0.224311 0.209259 0.0330922 0.274921C0.282802 0.336392 1.15225 0.517312 0.842383 1.00978C0.53252 1.49665 0.842375 1.00977 0.779423 1.31782C0.71787 1.62099 1.34389 1.49665 1.52855 1.86896C1.71181 2.23779 1.52855 1.86896 2.27209 2.11135C3.02261 2.35933 2.95756 2.05058 2.95756 2.05058C2.95756 2.05058 3.45838 2.42011 3.51713 2.60382C3.57939 2.79033 3.51713 2.8511 3.51713 3.27511C3.51713 3.7061 4.07741 3.39875 4.82444 3.64463C5.1427 3.74801 5.0112 4.01415 5.25881 4.31732C5.50922 4.62537 5.69668 4.44514 6.3192 4.56389C6.94243 4.68404 6.3206 4.56319 6.50525 4.99209Z" fill="white" fill-opacity="0.18"/>
</svg>
