<svg width="3" height="4" viewBox="0 0 3 4" fill="none" xmlns="http://www.w3.org/2000/svg">
<path d="M2.25707 1.01369C1.61357 0.721703 1.34708 0.630895 1.23306 0.721704C1.11415 0.808321 0.998028 0.693075 0.911294 0.663038C0.823861 0.631604 0.706383 0.693758 0.560195 0.486295C0.412608 0.280927 0.26642 -0.0732286 0.0628755 0.0133891C-0.0581321 0.0657788 0.00411149 0.249506 0.17618 0.337521C0.355943 0.424837 0.325839 0.458359 0.497907 0.631595C0.676971 0.808323 0.559485 0.897037 0.733653 1.1045C0.910617 1.30917 0.96935 1.39789 1.08616 1.48521C1.19947 1.57532 1.11347 1.60464 1.23238 1.86869C1.34639 2.13343 1.34639 2.28082 1.49468 2.42821C1.64367 2.5763 1.61286 2.78307 1.75835 2.89902C1.90384 3.01498 1.84371 3.07505 2.04865 2.92836C2.25639 2.78306 2.40119 2.74955 2.42917 2.63219C2.46064 2.51554 2.37388 2.31226 2.40116 1.99024C2.42914 1.66473 2.42914 1.42862 2.40116 1.28193C2.37458 1.13174 2.90058 1.30847 2.25707 1.01369Z" fill="white" fill-opacity="0.18"/>
</svg>
