<svg width="33" height="24" viewBox="0 0 33 24" fill="none" xmlns="http://www.w3.org/2000/svg">
<path d="M13.9782 9.76055C14.2692 9.5929 14.144 9.46647 14.2251 9.21151C14.3119 8.95934 14.3119 8.70437 14.4329 8.74838C14.5595 8.78889 15.0981 8.96004 15.0981 8.96004C15.5128 8.91603 15.9276 8.70438 15.9276 8.70438C16.0913 8.36908 16.0514 8.30062 16.2591 8.28316C16.7138 8.23915 16.8222 8.19654 16.8775 8.0275C17.0447 7.52106 17.4993 7.22769 17.4993 7.22769C17.4993 7.22769 17.7938 7.14107 17.9575 7.01323C18.1219 6.88959 18.2883 6.76316 18.4114 6.72055C18.4114 6.72055 18.7437 6.84558 18.9941 6.67864C19.2431 6.5075 19.4138 6.30702 19.5732 6.25532C20.5672 5.91654 20.4874 5.83481 20.9414 5.70349C21.396 5.57915 21.231 5.57915 21.8101 5.45342C22.3921 5.32628 25.3753 4.65151 25.3753 4.65151C25.3753 4.65151 25.916 4.43985 26.0412 4.39585C26.1615 4.35394 26.8267 4.05566 26.9911 4.01584C27.1547 3.97184 27.3226 3.93272 27.6954 3.80489C28.0669 3.67775 28.567 3.54852 28.8964 3.42348C29.2287 3.29565 29.3105 3.16992 29.5616 3.16992C29.8113 3.16992 29.9351 3.00227 30.1841 3.00227C30.4289 3.00227 30.722 2.87724 30.9297 2.82974C31.134 2.79062 31.1788 2.61879 31.4257 2.49445C31.6726 2.36941 31.7153 2.23948 31.8796 2.06764C32.0468 1.90279 32.2112 2.23878 32.2979 1.60661C32.3777 0.969551 32.5448 0.8054 32.3776 0.717385C32.2119 0.633561 32.0475 0.379301 31.8803 0.254264C31.7159 0.125036 32.5455 0.169036 31.3019 0.0831167C30.0575 -8.35835e-06 30.2646 0 29.6861 0C29.1077 0 28.6068 -7.58809e-06 28.3564 0.169037C28.1109 0.335985 28.0284 0.298263 27.4492 0.676168C26.8666 1.05617 26.9918 0.8054 26.8666 1.05617C26.7428 1.31044 26.7833 1.35305 26.6196 1.47738C26.4518 1.60661 26.3287 1.5647 26.2056 1.60661C26.0804 1.64852 25.874 1.39566 25.5397 1.64853C25.2109 1.9028 25.2109 1.81547 24.9207 1.98451C24.629 2.15775 24.5031 2.11374 24.2149 2.23878C23.9211 2.3694 23.968 2.15775 23.7176 2.3247C23.4672 2.49374 22.8069 2.61808 22.8069 2.61808C22.8069 2.61808 22.5592 2.49374 22.3921 2.61808C22.2249 2.74591 22.0605 2.74592 21.8101 2.87654C21.5597 3.00158 21.1519 3.00158 21.0239 3.00158C20.9015 3.00158 20.8553 2.95757 20.6504 2.95757C20.4441 2.95757 20.4021 3.04489 20.1125 2.95757C19.8222 2.87654 19.2431 2.87654 19.0759 2.82974C18.908 2.79062 18.7444 2.58107 18.5401 2.66279C18.3296 2.74662 17.8812 2.76617 17.7938 2.95757C17.4993 3.59184 17.8309 3.46471 17.4993 3.59184C17.1678 3.71897 16.9201 3.71897 16.9201 3.71897C16.9201 3.71897 16.8775 3.34037 16.5487 3.54783C16.2158 3.76088 16.5061 3.54782 16.2158 3.76088C15.7199 4.14297 15.5674 4.09897 15.3471 4.09897C14.7665 4.09897 14.5594 4.05566 14.5594 4.05566L14.0188 4.09897C13.5648 4.47897 13.7677 4.77584 13.604 4.81845C13.4403 4.86246 13.0255 4.9854 13.0255 4.9854C13.0255 4.9854 12.4471 5.07132 12.2792 5.32559C12.1134 5.57915 11.9896 5.53375 11.7406 5.79081C11.493 6.04367 11.6574 6.00177 11.4531 6.29585C11.2419 6.59203 11.2859 5.66158 10.7033 6.00176C10.1227 6.33776 10.1228 6.08489 9.91921 6.42298C9.70797 6.76316 9.67021 6.8896 9.50514 7.05724C9.33657 7.22699 9.17008 7.01323 8.8791 7.01323C8.59162 7.01323 8.2195 6.80298 8.30204 7.14106C8.38317 7.47915 8.2482 7.49173 8.38319 7.6468C8.67347 7.98559 8.4664 7.86684 8.4664 8.19654C8.4664 8.8336 8.75528 8.66177 8.4664 8.8336C8.17682 8.99986 7.84531 8.7875 7.64176 9.1696C7.43402 9.5489 7.34799 9.08368 7.43402 9.5489C7.51166 10.0176 7.59837 9.5929 7.51164 10.0176C7.434 10.4388 7.01642 10.0176 7.18359 10.4828C7.34797 10.9453 6.3946 11.0291 6.3946 11.0291C6.3946 11.0291 6.18685 11.159 6.02318 11.3686C5.85671 11.5795 5.81542 11.5795 5.65035 11.8338C5.48388 12.0839 4.73896 12.2969 4.73896 12.2969C4.53122 12.7181 4.24304 12.9738 4.48926 12.9738C4.73897 12.9738 4.78303 12.5491 4.98657 12.8026C5.19362 13.0569 5.07122 12.8886 5.19363 13.2679C5.31884 13.65 5.3188 13.3098 5.3188 13.65C4.73895 14.155 4.48924 14.2402 4.2822 14.2402C4.07446 14.2402 3.65968 14.0712 3.53868 14.2821C3.53868 14.2821 3.24489 14.7872 3.28756 15.0442C3.32673 15.295 2.62238 15.506 2.49857 15.55C2.37686 15.5947 2.08377 15.1274 2.0439 15.6331C2.00053 16.1381 1.58928 16.0152 2.00057 16.1381C2.41885 16.2667 2.49859 16.224 2.70913 16.3107C2.91337 16.3973 3.08054 16.6061 2.91337 16.8185C2.74829 17.0295 2.53773 16.9973 2.37685 17.2816C2.08378 17.7867 2.37685 18.0423 2.0439 18.0849C1.71235 18.1268 2.12714 17.9117 1.71235 18.1268C1.29687 18.3357 1.13319 18.2128 1.13319 18.2128C1.13319 18.2128 0.707937 18.0612 0.593225 18.2128C0.260279 18.6333 -0.0712532 18.8442 0.0133821 19.1809C0.0966186 19.5218 0.13646 19.4352 0.220396 19.8578C0.303632 20.2825 0.30363 20.2378 0.593908 20.3649C0.882788 20.4928 1.25423 20.4928 1.25423 20.4928C1.83618 20.3649 2.19571 20.0583 2.33421 20.3216C2.62239 20.8714 2.45942 21.0439 2.45942 21.0439C2.45942 21.0439 1.81451 20.965 1.88026 21.0809C2.12717 21.5517 2.08378 21.3373 2.41882 21.5902C2.74827 21.8444 2.8301 22.223 3.0805 21.7592C3.32742 21.2933 3.36732 21.2625 3.24491 21.0439C3.03787 20.6597 2.41881 20.2818 3.0805 20.4928C3.7457 20.7044 3.70235 20.7044 3.9101 20.8274C4.11644 20.958 4.07376 21.1689 4.11643 21.2933C4.1556 21.4183 4.44658 21.2542 4.69559 21.3813C4.94599 21.5063 5.07053 21.7592 4.82012 21.8011C4.57111 21.8444 3.94997 22.0114 3.9101 22.1413C3.86673 22.2663 3.70234 22.4347 3.95274 22.5625C4.19966 22.6875 4.40739 22.7295 4.6543 22.6875C4.90261 22.6449 4.86136 22.2663 5.27825 22.6875C5.68813 23.1108 6.18617 23.2806 6.31417 23.3218C6.43727 23.3637 6.76533 23.3714 6.85136 23.4077C7.34728 23.6187 7.46547 23.3637 7.64104 23.3637C8.17683 23.3637 8.42025 23.3805 8.54756 23.4077C8.96584 23.493 9.1302 23.4496 9.2568 23.4077C9.37711 23.3637 9.87374 23.2806 9.87374 23.2806C9.87374 23.2806 10.1234 23.5349 10.2913 23.5349C10.4557 23.5349 10.3738 23.4077 10.7453 23.4077C11.1181 23.4077 11.7959 23.5782 11.5189 22.9635C11.3937 22.6875 10.1766 22.8196 10.1766 22.2433C10.1766 21.6656 9.96257 21.7396 9.5387 21.31C9.11412 20.8749 9.60935 21.2346 9.11412 20.8749C8.6196 20.5123 8.337 20.2937 8.19501 20.0813C8.05371 19.8655 7.63055 19.5036 7.6991 19.072C7.77114 18.6438 7.62985 18.0605 7.6991 17.8453C7.77114 17.6288 7.48856 17.5555 7.62985 17.0553C7.77114 16.5461 7.48856 16.5461 7.84459 16.3344C8.19432 16.1158 8.19433 15.6848 8.47831 15.9013C8.47831 15.9013 8.70215 15.5486 8.9022 15.3195C9.60936 14.5322 9.6422 14.3953 9.89261 14.2416C10.5984 13.8071 10.5935 13.6926 10.7404 13.5193C11.2349 12.9437 11.0964 13.0897 11.2349 12.9438C11.9428 12.5093 12.3666 12.0783 12.3666 12.0783C12.6499 11.5013 12.2281 11.4279 12.6499 11.0689L13.0745 10.7092C13.1885 10.4381 13.2319 10.3962 13.1885 10.2251C13.1487 10.0539 13.0675 9.63412 13.0675 9.63412L13.6026 9.50489C13.6026 9.50489 13.6893 9.9282 13.9782 9.76055Z" fill="white" fill-opacity="0.18"/>
</svg>
