<svg width="3" height="2" viewBox="0 0 3 2" fill="none" xmlns="http://www.w3.org/2000/svg">
<path d="M1.98195 0.403913C1.85744 0.311707 1.63921 0.162227 1.48533 0.0644326C1.33005 -0.0256777 1.20554 0.00505287 1.04816 0.00505287C0.895681 0.00505287 0.674644 0.126597 0.45641 0.190163C0.240275 0.25303 0.148649 0.526861 0.0514231 0.526861C-0.0402069 0.526861 0.0185503 0.801376 0.0185503 0.801376C0.0185503 0.801376 0.206708 1.10733 0.26896 1.19884C0.331912 1.29384 0.552938 1.23028 0.862102 1.26311C1.17197 1.29385 1.48953 1.27359 1.73224 1.41679C1.88962 1.50969 2.13723 1.29384 2.35826 1.1688C2.5751 1.04237 2.69751 1.14017 2.72758 0.893585C2.76046 0.651894 2.60447 0.737816 2.51284 0.615573C2.41702 0.495426 2.10785 0.49542 1.98195 0.403913Z" fill="white" fill-opacity="0.18"/>
</svg>
