<svg width="5" height="2" viewBox="0 0 5 2" fill="none" xmlns="http://www.w3.org/2000/svg">
<path d="M3.6518 0C3.6518 0 2.59492 0.195587 2.48161 0.195587C2.3627 0.195587 1.97447 0.234705 1.97447 0.234705C1.97447 0.234705 1.38902 0.393969 1.22954 0.430292C1.07566 0.470109 0.880511 0.54765 0.68466 0.509231C0.490208 0.470113 0.413296 0.664293 0.215347 0.820764C0.023693 0.981426 -0.0952435 1.21405 0.0999075 1.17772C0.295059 1.13721 0.530778 1.25315 0.68466 1.33208C0.839242 1.41032 0.702852 1.96497 0.839248 1.88254C1.11274 1.72328 2.20529 1.68486 2.7124 1.21405C3.21742 0.744637 3.10204 1.1365 3.49234 0.901791C3.88265 0.663593 4.00082 0.70202 4.11484 0.547645C4.23374 0.39327 4.31348 0.393273 4.42819 0.153677C4.54571 -0.0803301 4.19668 0.0412133 3.6518 0Z" fill="white" fill-opacity="0.18"/>
</svg>
