<svg width="18" height="20" viewBox="0 0 18 20" fill="none" xmlns="http://www.w3.org/2000/svg">
<path d="M16.1022 3.32081C16.2211 3.44165 16.6862 3.5576 16.6862 3.5576L17.1856 3.49823L17.4486 3.35293C17.4486 3.35293 18.1194 2.7054 17.7662 2.73893C17.4172 2.76687 17.229 2.66698 17.1542 2.61808C16.8324 2.41201 16.6281 2.14797 16.6281 2.14797C16.6281 2.14797 16.3057 2.02992 16.1917 2.11863C16.0749 2.20665 16.0749 1.91326 15.8399 1.85249C15.6042 1.79381 15.6041 1.49972 15.4307 1.49972C15.2551 1.49972 15.0502 1.41312 15.0229 1.26363C14.9921 1.11624 14.9641 1.00029 14.9641 0.88154C14.9641 0.765584 14.7018 0.528779 14.7018 0.528779C14.7018 0.528779 14.5241 0.528769 14.4353 0.470092C14.3486 0.41421 14.1744 0.178811 14.1744 0.178811C13.8806 0.118039 13.9121 -0.0614826 13.7359 0.0314219C13.5589 0.11804 13.4463 0 13.4463 0C13.356 0.059375 13.0644 0.17881 12.9749 0.383479C12.8888 0.588847 12.6538 0.973035 12.6538 0.973035C12.6538 0.973035 12.3915 1.20496 12.3915 1.32441C12.3915 1.44106 12.3327 1.58775 12.1579 1.7093C11.983 1.82316 11.6025 2.03062 11.5151 2.17591C11.429 2.32051 11.6613 2.08859 11.429 2.46928C11.194 2.85557 11.194 2.85558 11.1632 3.00297C11.1353 3.14826 11.194 3.09237 11.1045 3.49892C11.0185 3.91245 10.9597 3.7944 11.0185 3.91245C11.0765 4.03051 11.1632 4.17789 11.0492 4.35183C10.9275 4.52856 10.875 4.60888 10.7554 4.58932C10.433 4.52855 10.5015 4.56769 10.2868 4.73603C9.87692 5.06015 9.8769 5.08808 9.70274 5.14675C9.52717 5.20543 9.26698 4.88271 9.26698 4.7947C9.26698 4.70529 9.15017 4.44334 9.03196 4.38257C8.91445 4.32389 8.94242 3.94179 8.79903 4.17719C8.65074 4.4119 8.68223 4.26381 8.56542 4.55579C8.44651 4.85057 8.68224 4.58864 8.44652 4.85059C8.2115 5.11533 8.29894 4.93999 7.92192 5.29485C7.54071 5.64621 7.48196 5.70767 7.27702 5.94168C7.07417 6.17359 7.21825 6.11701 6.98253 6.32378C6.7524 6.52844 7.07416 6.11632 6.57824 6.58922C6.07742 7.06003 6.07742 7.06004 6.07742 7.06004C6.07742 7.06004 5.52483 7.02859 5.31989 7.14874C5.11564 7.2647 4.64843 7.44004 4.64843 7.44004C4.64843 7.44004 4.41267 7.61607 4.29656 7.50011C4.17765 7.38416 4.00421 7.38416 3.91468 7.64471C3.82865 7.90875 3.65306 8.14556 3.68244 8.29504C3.71251 8.44034 3.71253 8.35232 3.71253 8.70438C3.71253 9.05853 3.62367 9.26529 3.59709 9.35401C3.59709 9.35401 3.21658 9.20662 2.98156 9.32397C2.74934 9.43993 2.51502 9.32397 2.39681 9.29323C2.28419 9.26529 2.19189 9.08856 2.0443 9.29323C1.90301 9.50069 1.377 9.64948 1.28677 9.35401C1.20004 9.05853 1.26018 8.85386 1.1105 8.94188C0.965009 9.0264 0.70343 9.02639 0.615996 9.26528C0.529263 9.49999 0.293544 9.64947 0.293544 9.87929C0.293544 10.1168 0.0913969 10.8502 0.0913969 10.999C0.0913969 11.1464 -0.114246 11.4384 0.0913969 11.6766C0.293543 11.9127 0.293534 12.0615 0.379568 12.1446C0.467001 12.2361 0.4397 12.2047 0.58449 12.4681C0.734175 12.7314 1.142 14.0586 1.142 14.0586C1.28679 14.3499 1.34693 14.4973 1.43227 14.616C1.5218 14.7341 1.54977 14.704 1.58195 14.938C1.61062 15.1769 1.56867 15.5039 1.61064 15.6436C1.69527 15.9383 2.0443 16.2345 2.0443 16.2345C2.0443 16.2345 2.25204 16.5593 2.25204 16.7053C2.25204 16.8506 2.28421 16.8821 2.33806 16.998C2.39682 17.1147 2.60109 17.1461 2.60109 17.1461L2.9536 17.1726C2.9536 17.1726 3.30334 16.9694 3.36139 17.0567C3.42015 17.1461 3.7433 17.1147 3.82934 17.2027C3.91537 17.2942 4.03427 17.3487 4.09232 17.2607C4.15108 17.1733 4.41338 16.9987 4.50012 16.9987C4.58965 16.9987 4.97156 17.026 4.97156 17.1733C4.97156 17.3221 4.91071 17.3494 4.94078 17.5261C4.97156 17.7056 5.08487 17.9117 5.08487 17.9117C5.61506 17.8488 6.02285 17.7329 6.02285 17.7329C6.02285 17.7329 6.37118 17.8195 6.43133 17.8803C6.48589 17.9389 6.75309 17.8803 6.83913 17.7936C6.92796 17.7049 7.36513 17.3487 7.36513 17.3487C7.83518 17.5848 8.12685 17.7643 8.12685 17.7643C8.24436 18.1164 8.04013 18.2323 8.35909 18.1436C8.68434 18.057 8.97462 17.8488 8.97462 17.8488C9.32366 17.7643 9.3824 17.4094 9.58734 17.8488C9.79158 18.2917 9.61812 18.6165 9.67268 18.7625C9.73633 18.9099 9.64539 19.0538 9.79158 19.2026C9.93917 19.3493 10.1133 19.2941 10.2609 19.2627C10.4078 19.2354 10.873 19.0279 10.873 19.0279L11.3997 18.8491L11.7221 18.5865L11.8683 18.349C11.8683 18.349 12.0712 18.0849 12.1936 17.9396C12.3069 17.7943 12.4244 17.6448 12.5398 17.4695C12.6566 17.2942 12.7153 17.2334 12.7755 17.0867C12.8335 16.9373 13.0378 16.4078 13.0378 16.4078C13.0378 16.4078 13.0958 16.2352 13.0378 16.0278C12.9776 15.8231 12.9776 15.5891 12.9196 15.4368C12.8643 15.2936 12.7755 15.1441 12.9196 14.9974C13.0672 14.8521 13.2994 14.7341 13.3854 14.6747C13.4729 14.616 14.5885 13.3789 14.5885 13.3789C14.5885 13.3789 14.7333 12.9675 14.7333 12.7922C14.7333 12.6154 14.7599 12.2361 14.7333 12.0245C14.7053 11.8212 14.6466 11.6766 14.6746 11.5558C14.7053 11.4377 14.8221 11.2624 15.1124 11.0291C15.4041 10.7944 14.8802 11.2624 15.4041 10.7944C15.9301 10.3222 15.6706 10.026 15.9301 10.3222C16.1966 10.6148 16.0203 10.6463 16.3106 10.6749C16.6044 10.7064 16.7198 10.5869 16.9261 10.6148C17.1304 10.6463 17.4528 10.4682 17.2751 10.4402C17.1003 10.4088 16.9828 10.1748 16.8366 10.1475C16.6897 10.1168 16.2246 9.70466 16.2246 9.70466C16.2246 9.70466 15.9923 9.43992 15.8755 9.41267C15.7566 9.37914 15.581 8.88319 15.581 8.79308C15.581 8.70437 15.5503 8.67503 15.581 8.41099C15.6083 8.14555 15.6083 7.99885 15.5209 7.88289C15.4349 7.76274 15.2593 7.53084 15.1691 7.49941C15.0816 7.47217 14.9376 7.20743 14.848 7.11732C14.7599 7.0286 14.7906 6.88051 14.6738 6.82463C14.5549 6.76456 14.4381 6.47396 14.4381 6.47396C14.4381 6.47396 14.4381 6.35312 14.4689 6.14635C14.4969 5.94168 14.2983 5.6511 14.527 5.70768C15.0264 5.82294 15.2201 6.01085 15.2579 5.91026C15.3474 5.67416 15.1977 5.503 15.1397 5.41079C15.0809 5.32348 14.8473 5.29484 15.0264 5.14675C15.1985 4.99936 15.1684 4.82334 15.3482 4.94C15.5202 5.05945 15.7552 4.94 15.7552 4.94L15.9602 4.70529C16.254 4.62007 16.254 4.62006 16.254 4.62006C16.254 4.62006 16.4267 4.23518 16.3679 4.14786C16.3092 4.05775 16.1518 3.90268 16.105 3.82305C15.9266 3.52967 15.9882 3.20555 16.1022 3.32081Z" fill="white" fill-opacity="0.18"/>
</svg>
