<svg width="44" height="46" viewBox="0 0 44 46" fill="none" xmlns="http://www.w3.org/2000/svg">
<path d="M21.66 29.7645C20.2039 29.707 18.8079 29.1437 17.6938 28.1641C16.5797 27.1844 15.8113 25.8446 15.5107 24.3573C15.2101 22.8701 15.3946 21.3208 16.0347 19.9554C16.6749 18.59 17.734 17.4868 19.044 16.8211C20.3539 16.1554 21.8396 15.9652 23.265 16.281C24.6903 16.5967 25.9737 17.4001 26.9113 18.5636C27.8489 19.7271 28.3869 21.184 28.4399 22.7029C28.4928 24.2218 28.0577 25.7157 27.2037 26.9472L21.9072 22.9508L21.66 29.7645Z" fill="white"/>
<path d="M44.0088 22.9521C44.0088 35.6282 34.1571 45.9041 22.0044 45.9041C9.8517 45.9041 0 35.6282 0 22.9521C0 10.276 9.8517 0 22.0044 0C34.1571 0 44.0088 10.276 44.0088 22.9521ZM7.60666 22.9521C7.60666 31.2462 14.0527 37.9699 22.0044 37.9699C29.956 37.9699 36.4021 31.2462 36.4021 22.9521C36.4021 14.658 29.956 7.93426 22.0044 7.93426C14.0527 7.93426 7.60666 14.658 7.60666 22.9521Z" fill="white"/>
</svg>
