<svg width="68" height="68" viewBox="0 0 68 68" fill="none" xmlns="http://www.w3.org/2000/svg">
<path d="M30.5226 18.9468V42.1042C30.5191 45.4532 29.1872 48.664 26.8191 51.0321C24.451 53.4002 21.2402 54.7321 17.8912 54.7356C17.3329 54.7356 16.7974 54.5138 16.4026 54.119C16.0078 53.7242 15.786 53.1887 15.786 52.6304C15.786 52.072 16.0078 51.5366 16.4026 51.1418C16.7974 50.7469 17.3329 50.5251 17.8912 50.5251C20.1246 50.5251 22.2665 49.6379 23.8457 48.0587C25.4249 46.4795 26.3121 44.3376 26.3121 42.1042V39.999H10.5229C9.40627 39.999 8.33532 39.5554 7.54571 38.7658C6.7561 37.9762 6.3125 36.9053 6.3125 35.7886V18.9468C6.3125 17.8301 6.7561 16.7592 7.54571 15.9695C8.33532 15.1799 9.40627 14.7363 10.5229 14.7363H26.3121C27.4288 14.7363 28.4998 15.1799 29.2894 15.9695C30.079 16.7592 30.5226 17.8301 30.5226 18.9468ZM56.8379 14.7363H41.0487C39.932 14.7363 38.8611 15.1799 38.0715 15.9695C37.2819 16.7592 36.8383 17.8301 36.8383 18.9468V35.7886C36.8383 36.9053 37.2819 37.9762 38.0715 38.7658C38.8611 39.5554 39.932 39.999 41.0487 39.999H56.8379V42.1042C56.8379 44.3376 55.9507 46.4795 54.3715 48.0587C52.7922 49.6379 50.6504 50.5251 48.417 50.5251C47.8587 50.5251 47.3232 50.7469 46.9284 51.1418C46.5336 51.5366 46.3118 52.072 46.3118 52.6304C46.3118 53.1887 46.5336 53.7242 46.9284 54.119C47.3232 54.5138 47.8587 54.7356 48.417 54.7356C51.766 54.7321 54.9768 53.4002 57.3449 51.0321C59.7129 48.664 61.0449 45.4532 61.0483 42.1042V18.9468C61.0483 17.8301 60.6047 16.7592 59.8151 15.9695C59.0255 15.1799 57.9546 14.7363 56.8379 14.7363Z" fill="#E6A632"/>
</svg>
