<svg width="1423" height="914" viewBox="0 0 1423 914" fill="none" xmlns="http://www.w3.org/2000/svg">
<path opacity="0.2" d="M0.625 113.461C0.625 113.461 78.6915 362.739 211.471 427.384C327.181 483.719 442.067 345.094 541.014 427.384C615.995 489.742 553.132 602.187 631.6 660.096C726.53 730.154 833.164 576.969 933.03 639.792C1026.13 698.36 954.185 842.21 1050.17 895.93C1151.58 952.689 1343.79 847.514 1343.79 847.514" stroke="white" stroke-width="1.314"/>
<path opacity="0.2" d="M28.3984 77.0059C28.3984 77.0059 106.465 326.284 239.245 390.929C354.954 447.264 469.84 308.639 568.788 390.929C643.768 453.287 580.906 565.732 659.373 623.641C754.303 693.699 860.937 540.514 960.803 603.337C1053.91 661.905 981.958 805.755 1077.94 859.475C1179.35 916.234 1371.56 811.058 1371.56 811.058" stroke="white" stroke-width="1.314"/>
<path opacity="0.2" d="M52.7031 42.2871C52.7031 42.2871 130.77 291.566 263.549 356.211C379.259 412.545 494.145 273.921 593.092 356.211C668.073 418.568 605.21 531.013 683.678 588.922C778.608 658.98 885.242 505.796 985.108 568.618C1078.21 627.186 1006.26 771.036 1102.24 824.756C1203.66 881.515 1395.87 776.34 1395.87 776.34" stroke="white" stroke-width="1.314"/>
<path opacity="0.2" d="M78.7422 0.193359C78.7422 0.193359 156.809 249.472 289.588 314.117C405.298 370.451 520.184 231.827 619.132 314.117C694.112 376.474 631.25 488.92 709.717 546.828C804.647 616.886 911.281 463.702 1011.15 526.525C1104.25 585.092 1032.3 728.943 1128.28 782.662C1229.69 839.421 1421.9 734.246 1421.9 734.246" stroke="white" stroke-width="1.314"/>
</svg>
