<svg width="1083" height="696" viewBox="0 0 1083 696" fill="none" xmlns="http://www.w3.org/2000/svg">
<path opacity="0.2" d="M0.476562 86.3496C0.476562 86.3496 59.888 276.059 160.938 325.257C248.997 368.129 336.43 262.631 411.732 325.257C468.795 372.713 420.954 458.288 480.671 502.358C552.916 555.675 634.069 439.096 710.07 486.907C780.924 531.479 726.17 640.954 799.215 681.836C876.393 725.032 1022.67 644.99 1022.67 644.99" stroke="white"/>
<path opacity="0.2" d="M21.6172 58.6055C21.6172 58.6055 81.0286 248.315 182.079 297.513C270.138 340.385 357.57 234.887 432.873 297.513C489.936 344.969 442.095 430.544 501.812 474.614C574.057 527.931 655.209 411.352 731.211 459.162C802.065 503.734 747.311 613.21 820.356 654.092C897.533 697.288 1043.81 617.246 1043.81 617.246" stroke="white"/>
<path opacity="0.2" d="M40.1094 32.1836C40.1094 32.1836 99.5208 221.893 200.571 271.091C288.63 313.963 376.062 208.465 451.365 271.091C508.428 318.547 460.587 404.122 520.304 448.192C592.549 501.509 673.701 384.93 749.703 432.741C820.557 477.313 765.803 586.788 838.848 627.67C916.026 670.866 1062.3 590.824 1062.3 590.824" stroke="white"/>
<path opacity="0.2" d="M59.9297 0.148438C59.9297 0.148438 119.341 189.858 220.391 239.055C308.451 281.928 395.883 176.43 471.185 239.055C528.248 286.512 480.408 372.087 540.124 416.157C612.369 469.474 693.522 352.895 769.523 400.705C840.377 445.277 785.623 554.753 858.668 595.635C935.846 638.831 1082.12 558.789 1082.12 558.789" stroke="white"/>
</svg>
