<svg width="17" height="18" viewBox="0 0 17 18" fill="none" xmlns="http://www.w3.org/2000/svg">
<path d="M16.9384 4.98946C16.8976 4.08537 16.7515 3.46679 16.5443 2.92638C16.3269 2.36897 16.0382 1.89314 15.5661 1.4241C15.0939 0.955066 14.6218 0.65937 14.0647 0.445245C13.5246 0.234518 12.9064 0.091768 12.0028 0.0509822C11.0959 0.0101964 10.8072 0 8.50416 0C6.19775 0 5.90903 0.0101964 5.00549 0.0509822C4.10194 0.091768 3.48373 0.237917 2.94364 0.445245C2.38318 0.662769 1.90763 0.951668 1.43887 1.4241C0.970118 1.89654 0.674599 2.36897 0.460602 2.92638C0.253399 3.46679 0.107338 4.08537 0.0665766 4.98946C0.0258153 5.89694 0.015625 6.18584 0.015625 8.49023C0.015625 10.798 0.0258153 11.0869 0.0665766 11.991C0.107338 12.8951 0.253399 13.5137 0.460602 14.0541C0.677996 14.6115 0.966722 15.0873 1.43887 15.5564C1.90763 16.0288 2.38318 16.3211 2.94025 16.5352C3.48033 16.746 4.09855 16.8887 5.00209 16.9295C5.90903 16.9703 6.19775 16.9805 8.50076 16.9805C10.8072 16.9805 11.0959 16.9703 11.9994 16.9295C12.903 16.8887 13.5212 16.7426 14.0613 16.5352C14.6184 16.3177 15.0939 16.0288 15.5627 15.5564C16.0314 15.0839 16.3269 14.6115 16.5409 14.0541C16.7515 13.5137 16.8942 12.8951 16.935 11.991C16.9757 11.0835 16.9859 10.7946 16.9859 8.49023C16.9859 6.18584 16.9791 5.89354 16.9384 4.98946ZM15.4132 11.923C15.3758 12.7523 15.2366 13.2044 15.1211 13.5001C14.9682 13.8943 14.7814 14.1798 14.4825 14.4789C14.1836 14.778 13.9016 14.9582 13.5042 15.1179C13.2053 15.2335 12.7535 15.3728 11.9281 15.4102C11.0348 15.451 10.7664 15.4612 8.49737 15.4612C6.22832 15.4612 5.95998 15.451 5.06663 15.4102C4.23781 15.3728 3.78604 15.2335 3.49052 15.1179C3.0965 14.965 2.81117 14.778 2.51225 14.4789C2.21334 14.1798 2.03331 13.8977 1.87366 13.5001C1.75817 13.201 1.6189 12.7489 1.58154 11.923C1.54078 11.0291 1.53059 10.7606 1.53059 8.49023C1.53059 6.21983 1.54078 5.95132 1.58154 5.05743C1.6189 4.22812 1.75817 3.77608 1.87366 3.48038C2.02651 3.08612 2.21334 2.80062 2.51225 2.50153C2.81117 2.20243 3.0931 2.02229 3.49052 1.86255C3.78944 1.74699 4.24121 1.60764 5.06663 1.57025C5.95998 1.52947 6.22832 1.51927 8.49737 1.51927C10.7664 1.51927 11.0348 1.52947 11.9281 1.57025C12.7569 1.60764 13.2087 1.74699 13.5042 1.86255C13.8982 2.0155 14.1836 2.20243 14.4825 2.50153C14.7814 2.80062 14.9614 3.08272 15.1211 3.48038C15.2366 3.77948 15.3758 4.23152 15.4132 5.05743C15.454 5.95132 15.4642 6.21983 15.4642 8.49023C15.4642 10.7606 15.4506 11.0291 15.4132 11.923Z" fill="url(#paint0_linear_2666_2301)"/>
<path d="M8.50208 4.12695C6.09037 4.12695 4.14062 6.08127 4.14062 8.49103C4.14062 10.9042 6.09377 12.8551 8.50208 12.8551C10.9104 12.8551 12.8635 10.8974 12.8635 8.49103C12.8635 6.07787 10.9138 4.12695 8.50208 4.12695ZM8.50208 11.3222C6.93957 11.3222 5.67257 10.0545 5.67257 8.49103C5.67257 6.92757 6.93957 5.65982 8.50208 5.65982C10.0646 5.65982 11.3316 6.92757 11.3316 8.49103C11.3316 10.0545 10.0646 11.3222 8.50208 11.3222Z" fill="white"/>
<path d="M13.0347 4.97483C13.5975 4.97483 14.0537 4.51832 14.0537 3.95519C14.0537 3.39206 13.5975 2.93555 13.0347 2.93555C12.4719 2.93555 12.0156 3.39206 12.0156 3.95519C12.0156 4.51832 12.4719 4.97483 13.0347 4.97483Z" fill="white"/>
<path d="M0 8.49023C0 10.798 0.0101903 11.0869 0.0509516 11.991C0.0917129 12.8951 0.237774 13.5137 0.444977 14.0541C0.662371 14.6115 0.951097 15.0873 1.42325 15.5564C1.892 16.0254 2.36755 16.3211 2.92462 16.5352C3.46471 16.746 4.08292 16.8887 4.98646 16.9295C5.8934 16.9703 6.18213 16.9805 8.48514 16.9805C10.7915 16.9805 11.0803 16.9703 11.9838 16.9295C12.8874 16.8887 13.5056 16.7426 14.0457 16.5352C14.6027 16.3177 15.0783 16.0288 15.547 15.5564C16.0158 15.0873 16.3113 14.6115 16.5253 14.0541C16.7359 13.5137 16.8786 12.8951 16.9193 11.991C16.9601 11.0835 16.9703 10.7946 16.9703 8.49023C16.9703 6.18244 16.9601 5.89354 16.9193 4.98946C16.8786 4.08537 16.7325 3.46679 16.5253 2.92638C16.3079 2.36897 16.0192 1.89314 15.547 1.4241C15.0817 0.951668 14.6061 0.65937 14.0491 0.445245C13.509 0.234518 12.8908 0.091768 11.9872 0.0509822C11.0803 0.0101964 10.7915 0 8.48854 0C6.18213 0 5.8934 0.0101964 4.98986 0.0509822C4.08632 0.091768 3.46811 0.237917 2.92802 0.445245C2.37095 0.662769 1.8954 0.951668 1.42664 1.4241C0.95789 1.89654 0.662371 2.36897 0.448374 2.92638C0.237774 3.46679 0.0917129 4.08537 0.0509516 4.98946C0.0101903 5.89354 0 6.18244 0 8.49023ZM1.53194 8.49023C1.53194 6.22323 1.54214 5.95132 1.5829 5.05743C1.62026 4.22812 1.75953 3.77608 1.87502 3.48038C2.02787 3.08612 2.2147 2.80062 2.51361 2.50153C2.81253 2.20243 3.09446 2.02229 3.49188 1.86255C3.7908 1.74699 4.24257 1.60764 5.06799 1.57025C5.96134 1.52947 6.22968 1.51927 8.49873 1.51927C10.7678 1.51927 11.0361 1.52947 11.9295 1.57025C12.7583 1.60764 13.2101 1.74699 13.5056 1.86255C13.8996 2.0155 14.1849 2.20243 14.4838 2.50153C14.7828 2.80062 14.9628 3.08272 15.1224 3.48038C15.2379 3.77948 15.3772 4.23152 15.4146 5.05743C15.4553 5.95132 15.4655 6.21983 15.4655 8.49023C15.4655 10.7606 15.4553 11.0291 15.4146 11.923C15.3772 12.7523 15.2379 13.2044 15.1224 13.5001C14.9696 13.8943 14.7828 14.1798 14.4838 14.4789C14.1849 14.778 13.903 14.9582 13.5056 15.1179C13.2067 15.2335 12.7549 15.3728 11.9295 15.4102C11.0361 15.451 10.7678 15.4612 8.49873 15.4612C6.22968 15.4612 5.96134 15.451 5.06799 15.4102C4.23917 15.3728 3.7874 15.2335 3.49188 15.1179C3.09786 14.965 2.81253 14.778 2.51361 14.4789C2.2147 14.1798 2.03467 13.8977 1.87502 13.5001C1.75953 13.201 1.62026 12.7489 1.5829 11.923C1.53874 11.0291 1.53194 10.7572 1.53194 8.49023Z" fill="white"/>
<defs>
<linearGradient id="paint0_linear_2666_2301" x1="14.3649" y1="1.29844" x2="2.08062" y2="16.3491" gradientUnits="userSpaceOnUse">
<stop stop-color="#AE3DAE"/>
<stop offset="0.0468721" stop-color="#B23BA6"/>
<stop offset="0.1216" stop-color="#BD368E"/>
<stop offset="0.2148" stop-color="#CE2E69"/>
<stop offset="0.3216" stop-color="#E62335"/>
<stop offset="0.418" stop-color="#FF1800"/>
</linearGradient>
</defs>
</svg>
