<svg width="14" height="14" viewBox="0 0 14 14" fill="none" xmlns="http://www.w3.org/2000/svg">
<g clip-path="url(#clip0_2666_2309)">
<path d="M0 1.72007C0 1.26961 0.157662 0.897988 0.472973 0.605205C0.788284 0.312408 1.1982 0.166016 1.7027 0.166016C2.1982 0.166016 2.59909 0.310151 2.90541 0.598448C3.22072 0.895745 3.37838 1.28312 3.37838 1.76061C3.37838 2.19304 3.22523 2.55339 2.91892 2.84169C2.60361 3.13899 2.18919 3.28764 1.67568 3.28764H1.66216C1.16666 3.28764 0.76577 3.13899 0.459459 2.84169C0.153149 2.54439 0 2.17052 0 1.72007ZM0.175676 13.5444V4.51737H3.17568V13.5444H0.175676ZM4.83784 13.5444H7.83784V8.50385C7.83784 8.18853 7.87388 7.94528 7.94595 7.77412C8.07207 7.46781 8.26351 7.2088 8.52027 6.9971C8.77703 6.78538 9.09909 6.67953 9.48649 6.67953C10.4955 6.67953 11 7.3597 11 8.72007V13.5444H14V8.36872C14 7.03538 13.6847 6.02412 13.0541 5.33493C12.4234 4.64574 11.5901 4.30115 10.5541 4.30115C9.39189 4.30115 8.48649 4.80115 7.83784 5.80115V5.82818H7.82432L7.83784 5.80115V4.51737H4.83784C4.85585 4.80565 4.86486 5.70204 4.86486 7.20656C4.86486 8.71105 4.85585 10.8237 4.83784 13.5444Z" fill="white"/>
</g>
<defs>
<clipPath id="clip0_2666_2309">
<rect width="14" height="14" fill="white"/>
</clipPath>
</defs>
</svg>
