<svg width="17" height="15" viewBox="0 0 17 15" fill="none" xmlns="http://www.w3.org/2000/svg">
<path d="M15.2244 3.55791C15.2313 3.71509 15.2313 3.86513 15.2313 4.0223C15.2382 8.78768 11.7371 14.2889 5.33441 14.2889C3.446 14.2889 1.59205 13.7245 0 12.6671C0.27568 12.7029 0.55136 12.7172 0.827041 12.7172C2.39153 12.7172 3.91466 12.1742 5.14833 11.1668C3.65966 11.1382 2.35017 10.1308 1.8953 8.65908C2.41909 8.76625 2.95667 8.74482 3.46668 8.59478C1.84706 8.26613 0.682309 6.78722 0.675417 5.0654C0.675417 5.05111 0.675417 5.03682 0.675417 5.02253C1.15786 5.30117 1.70233 5.45835 2.25369 5.47264C0.730553 4.41525 0.255004 2.30763 1.17853 0.657248C2.94978 2.91491 5.55496 4.27951 8.35311 4.42954C8.07054 3.17925 8.45649 1.86467 9.35934 0.97875C10.7584 -0.385849 12.9639 -0.314404 14.2871 1.13593C15.0659 0.97875 15.8172 0.678681 16.4995 0.257156C16.2376 1.09306 15.6931 1.80037 14.9694 2.25047C15.6586 2.16474 16.3341 1.97183 16.9681 1.68605C16.4995 2.41479 15.9067 3.04351 15.2244 3.55791Z" fill="white"/>
</svg>
